<svg width="22" height="21" viewBox="0 0 22 21" fill="none" xmlns="http://www.w3.org/2000/svg">
<path d="M19.563 6.87009L19.5529 6.85875C18.6599 5.86105 12.7731 1.8674 12.7731 1.8674C12.1598 1.41604 11.4361 1.18993 10.712 1.1879V1.1875C10.7099 1.1875 10.7083 1.1879 10.7063 1.1879C10.7047 1.1879 10.7026 1.1875 10.701 1.1875V1.1879C9.97647 1.18993 9.25274 1.41604 8.63943 1.8674C8.63943 1.8674 2.75267 5.86105 1.8601 6.85875L1.84954 6.87009C1.3239 7.43673 1 8.19291 1 9.02703V16.0121C1 17.7656 2.42146 19.1875 4.17494 19.1875H10.701H10.712H17.2376C18.9915 19.1875 20.413 17.7656 20.413 16.0121V9.02703C20.413 8.19291 20.0886 7.43673 19.563 6.87009Z" stroke="#8CC63F" stroke-width="2" stroke-miterlimit="10" stroke-linecap="round" stroke-linejoin="round"/>
<path d="M1.84521 18.0803L8.63997 13.0775C9.24841 12.6294 9.96564 12.4033 10.6841 12.3981C11.4216 12.392 12.1603 12.6201 12.7838 13.0804L19.5574 18.0803" stroke="#8CC63F" stroke-miterlimit="10" stroke-linecap="round" stroke-linejoin="round"/>
<path d="M12.251 12.7458L20.2062 7.97815" stroke="#8CC63F" stroke-miterlimit="10" stroke-linecap="round" stroke-linejoin="round"/>
<path d="M1.1958 7.97815L9.15103 12.7458" stroke="#8CC63F" stroke-miterlimit="10" stroke-linecap="round" stroke-linejoin="round"/>
</svg>
