<svg width="16" height="22" viewBox="0 0 16 22" fill="none" xmlns="http://www.w3.org/2000/svg">
<path d="M1.10503 4.78648C0.752214 6.85395 1.26879 9.8204 2.95117 13.4489C4.63355 17.0774 6.56409 19.3888 8.36978 20.455C10.1759 21.5212 11.7198 20.7837 12.8467 20.2613L13.6631 19.8828C14.2882 19.593 14.5601 18.8512 14.2704 18.2257L13.124 15.7541C12.8556 15.1745 12.1675 14.9224 11.5883 15.1912L10.6889 15.6078C10.452 15.7179 10.2568 15.8808 10.1093 16.0753H10.109C10.109 16.0753 9.20922 17.2423 8.0796 16.7716C6.86128 16.264 5.7126 14.2296 4.92606 12.5332C4.13953 10.8368 3.32927 8.64563 3.72876 7.38803C4.09946 6.22145 5.5714 6.28878 5.5714 6.28878V6.2884C5.81529 6.30201 6.0658 6.25802 6.30269 6.14794L7.20165 5.73136C7.78163 5.46257 8.0337 4.77481 7.76491 4.19482L6.61855 1.72318C6.32876 1.09808 5.58696 0.826209 4.96185 1.11601L4.14498 1.49488C3.01807 2.0169 1.45823 2.71939 1.10503 4.78648Z" stroke="#8CC63F" stroke-width="2" stroke-miterlimit="10" stroke-linecap="round" stroke-linejoin="round"/>
<path d="M10.689 15.6189L12.8463 20.2724" stroke="#8CC63F" stroke-miterlimit="10" stroke-linecap="round" stroke-linejoin="round"/>
<path d="M4.14551 1.49438L6.30322 6.14787" stroke="#8CC63F" stroke-miterlimit="10" stroke-linecap="round" stroke-linejoin="round"/>
</svg>
