<?xml version="1.0" encoding="UTF-8"?> <svg xmlns="http://www.w3.org/2000/svg" viewBox="0 0 320 169.75"> <defs> <style>.cls-1{fill:#fff;}.cls-2{fill:#fcc142;}.cls-3{fill:#2e3192;}</style> </defs> <title>парк развлечений</title> <g id="Слой_2" data-name="Слой 2"> <g id="Слой_8_копия3_" data-name="Слой 8 (копия3)"> <polygon class="cls-1" points="320 136 15.5 136 7.67 140 4 136 4 0 320 0 320 136"></polygon> <polygon class="cls-2" points="316 140 11.5 140 0 169.75 0 140 0 4 316 4 316 140"></polygon> <path class="cls-3" d="M24.44,63.79H17.13V40H38.72v23.8H31.44V46.28h-7Z"></path> <path class="cls-3" d="M49.8,63.79H42.26l9.79-23.94h7l9.82,23.94H61l-1.7-4.46H51.54Zm5.61-15.57-1.77,5.64h3.51Z"></path> <path class="cls-3" d="M72.34,40h11a9.42,9.42,0,0,1,6.53,2.17,7.52,7.52,0,0,1,0,11.16,9.42,9.42,0,0,1-6.53,2.17H79.65v8.3H72.34Zm7.31,10.2h2.66a2.15,2.15,0,1,0,0-4.25H79.65Z"></path> <path class="cls-3" d="M103.49,63.79H96.18V40h7.31v8.87L110.18,40h8.61l-8.44,11,10.14,12.75h-9l-8-10.27Z"></path> <path class="cls-3" d="M17.14,74H28.08a9.42,9.42,0,0,1,6.53,2.17,7.52,7.52,0,0,1,0,11.16,9.42,9.42,0,0,1-6.53,2.17H24.44v8.3h-7.3Zm7.3,10.2H27.1a2.15,2.15,0,1,0,0-4.25H24.44Z"></path> <path class="cls-3" d="M46.75,97.79H39.2L49,73.85h7l9.83,23.94H57.93l-1.7-4.46H48.48Zm5.61-15.57-1.77,5.64h3.5Z"></path> <path class="cls-3" d="M68.27,96V89.18a14,14,0,0,0,8.19,2.59c2.72,0,4.08-.68,4.08-2,0-1.12-1.05-1.49-3-1.49H74V82.73h3.91c1.52,0,2.31-.45,2.31-1.33s-1.16-1.53-3.44-1.53a16.89,16.89,0,0,0-7.75,1.77V75.42a18.59,18.59,0,0,1,8.5-1.91,11.85,11.85,0,0,1,7.28,2,5.91,5.91,0,0,1,2.68,5,4.8,4.8,0,0,1-2.85,4.76,5.82,5.82,0,0,1,3.43,5.34,6.61,6.61,0,0,1-2.89,5.47,12.43,12.43,0,0,1-7.75,2.18A17.05,17.05,0,0,1,68.27,96Z"></path> <path class="cls-3" d="M92.34,97.79V74h12.07a8.92,8.92,0,0,1,5.44,1.56A5.18,5.18,0,0,1,112,80.07,4.38,4.38,0,0,1,111,83a5.9,5.9,0,0,1-1.9,1.64,5.51,5.51,0,0,1,3,2,6.19,6.19,0,0,1,1.5,4.24,6.06,6.06,0,0,1-2.42,5,9.9,9.9,0,0,1-6.32,1.91Zm7.31-18.12v3.19h3.71a1.62,1.62,0,0,0,1.73-1.53,1.64,1.64,0,0,0-1.73-1.66Zm0,8.29V91.9h3.84A1.92,1.92,0,0,0,105.67,90a2,2,0,0,0-2.18-2Z"></path> <path class="cls-3" d="M116.11,91a4.27,4.27,0,0,0,1.66.44,2.86,2.86,0,0,0,1.87-.51c.82-.72,1.43-3.3,1.5-9l.1-8H140v23.8h-7.28V80.28h-4.86l0,2.85c-.07,5.82-.89,9.79-2.42,12a6.51,6.51,0,0,1-6,3,6.9,6.9,0,0,1-3.33-.61Z"></path> <path class="cls-3" d="M164.18,97.79H145.31V74H164v6.29H152.62v2.11h8.91v5.77h-8.91V91.5h11.56Z"></path> <path class="cls-3" d="M188.36,97.79h-7.28v-8.2a9.75,9.75,0,0,1-4,.72c-5.58,0-9-3.13-9-8.16V74h7.27V81.2c0,1.76,1.3,2.65,3,2.65a5,5,0,0,0,2.79-.65V74h7.28Z"></path> <path class="cls-3" d="M212.53,97.79H193.66V74h18.66v6.29H201v2.11h8.91v5.77H201V91.5h11.56Z"></path> <path class="cls-3" d="M224.29,97.79H217V74h7.31v8.06h7.28V74h7.31v23.8h-7.31V88.4h-7.28Z"></path> <path class="cls-3" d="M250.41,97.79h-6.23V74h7.08V85.82L260.43,74h6v23.8h-7V86.06Z"></path> <path class="cls-3" d="M278,97.79h-6.22V74h7.07V85.82L288,74h6v23.8h-7V86.06Zm.27-26.59a5.91,5.91,0,0,1-1.94-4.52h4.63a1.72,1.72,0,0,0,2,1.84,1.7,1.7,0,0,0,1.94-1.84h4.69a5.88,5.88,0,0,1-1.91,4.52,7.56,7.56,0,0,1-9.38,0Z"></path> </g> </g> </svg> 