<?xml version="1.0" encoding="UTF-8"?> <svg xmlns="http://www.w3.org/2000/svg" viewBox="0 0 353.66 113.83"> <defs> <style>.cls-1{fill:#ff6464;}.cls-2{fill:#fff;}</style> </defs> <title>лЕНТА КОМИКСЫ</title> <g id="Слой_2" data-name="Слой 2"> <g id="Слой_12" data-name="Слой 12"> <path class="cls-1" d="M255.76,113.83a201.68,201.68,0,0,1-29-2.06c-32.7-4.7-56.15-16.07-76.84-26.11-20.87-10.12-36-17.43-56.84-16.45-17.82.84-35.88,7.53-53.69,19.9L0,32.33C28.64,12.44,58.88,1.62,89.88.17c38.47-1.81,66,11.53,90.24,23.3,17.73,8.59,34.47,16.71,56.53,19.89,27.61,4,57.94-.9,90.15-14.48l26.86,63.69C320.12,106.71,287.3,113.83,255.76,113.83Z"></path> <path class="cls-2" d="M81.31,50.53l-8.52.82L70.09,23.6l8.53-.82,1,10.34L86.43,22l10-1L87.87,34.88,101.13,48.6l-10.47,1L80.15,38.55Z"></path> <path class="cls-2" d="M108.49,25.45A15.54,15.54,0,0,1,129.57,29,13.92,13.92,0,0,1,132,39.83a14,14,0,0,1-5.88,9.42,15.7,15.7,0,0,1-21.08-3.62,14,14,0,0,1-2.45-10.79A13.93,13.93,0,0,1,108.49,25.45Zm7.72,18.48a5.84,5.84,0,0,0,4.68-1.1,7,7,0,0,0,2.53-4.46,6.75,6.75,0,0,0-.93-5,6.07,6.07,0,0,0-8.71-1.48,6.75,6.75,0,0,0-2.53,4.42,6.91,6.91,0,0,0,.92,5.05A5.8,5.8,0,0,0,116.21,43.93Z"></path> <path class="cls-2" d="M139.1,57.76l-7.63-3.23,10.86-25.68,7.82,3.31,1.75,11.51,9.51-6.75,7.78,3.29L158.32,65.89l-7.55-3.2,6.08-14.38-6.22,4.59-4.26-1.8-1.18-7.72Z"></path> <path class="cls-2" d="M168.24,71.14,161.65,68l12-25.18,7.48,3.55L175.15,58.9,190.82,51l6.36,3-12,25.19-7.41-3.52,5.9-12.42Z"></path> <path class="cls-2" d="M199.22,84.56l-8.13-2.67,8.67-26.5,8.14,2.67-3.24,9.88,10.7-7.44,9.57,3.13-13.41,9.23,6.63,17.89-10-3.27L203,73.12Z"></path> <path class="cls-2" d="M227.11,88.48a13.43,13.43,0,0,1-3.14-11,13.35,13.35,0,0,1,5.82-9.76,16.31,16.31,0,0,1,11.82-2.55,15.33,15.33,0,0,1,6.8,2.37l-1,8a14.07,14.07,0,0,0-6.52-2.7,7.36,7.36,0,0,0-5.46,1.25,6.2,6.2,0,0,0-2.68,4.51,6.27,6.27,0,0,0,1.49,5.14,8.17,8.17,0,0,0,5.21,2.57,11.69,11.69,0,0,0,7.09-1.08l-1.07,8.13a16.4,16.4,0,0,1-7.49.51A16.71,16.71,0,0,1,227.11,88.48Z"></path> <path class="cls-2" d="M252.67,95.06l-2.15-27.79,8.54-.66.62,8,3.06-.24a12.19,12.19,0,0,1,8.55,2.18,9.6,9.6,0,0,1,1.14,14.21,12.33,12.33,0,0,1-8.17,3.39Zm7.52-13.76.47,6,2.5-.2c2.06-.16,3.4-1.46,3.27-3.21s-1.67-2.94-3.73-2.78ZM286.7,92.43l-8.5.66L276.05,65.3l8.5-.66Z"></path> </g> </g> </svg> 