<?xml version="1.0" encoding="UTF-8"?> <svg xmlns="http://www.w3.org/2000/svg" viewBox="0 0 324.03 193.32"> <defs> <style>.cls-1{fill:#fcc142;}</style> </defs> <title>сфф ж_1</title> <g id="Слой_2" data-name="Слой 2"> <g id="Слой_12" data-name="Слой 12"> <path class="cls-1" d="M69.91,184.7,55,193.32,44.1,184.49l-12.26,7.08-11.43-9.24,12.07-7-8.78-7-12.08,7L0,166.21l12.26-7.08L1.1,150.47,16,141.86l11.08,8.72,9.24-5.34-11.07-8.72,14.91-8.61,11.07,8.72,12.08-7,11.44,9.25-12,6.92,8.69,7,12.18-7,11.43,9.25-12,6.92,11,8.77-14.92,8.61-11-8.77-9.24,5.33Zm-31.3-24.93,8.7,7,9.24-5.33-8.69-7Z"></path> <path class="cls-1" d="M121.7,145.61c-13.17.42-24.7-2.22-34.49-7.87s-14.37-12.31-13.64-19.81,6.32-14.43,16.84-20.5A61.57,61.57,0,0,1,110,90l18.58,10.73c-8.06,1.37-14.64,3.59-19.86,6.6-4.85,2.8-7.41,6-7.6,9.56s1.83,6.55,6.32,9.14a29.74,29.74,0,0,0,16.19,3.65,36.56,36.56,0,0,0,16.93-4.81c6.32-3.65,10-7.56,11.26-11.78L170.66,124c-2.2,3.8-6.68,7.77-13.54,11.73A75.34,75.34,0,0,1,121.7,145.61Z"></path> <path class="cls-1" d="M232.24,94.36l-19.67,11.36-7.14-4.12a66.44,66.44,0,0,1-31.11,7.5c-11-.11-20.13-2.32-27.72-6.71s-11.44-9.67-11.53-16,4.21-12.26,13-18l-5.58-3.22,19.67-11.36,5.58,3.23a65.73,65.73,0,0,1,31.12-7.51c10.79.11,19.94,2.33,27.54,6.71s11.44,9.67,11.71,16-4.12,12.2-13,18ZM164.71,78.09c-4.85,3.22-5.67,8.24,2,12.68A24.36,24.36,0,0,0,188.78,92Zm43.74,2.54c4.76-3.28,5.49-8.35-2.1-12.74s-16.38-4-22-1.16Z"></path> <path class="cls-1" d="M318.17,44.75,298.5,56.11,291.36,52a66.44,66.44,0,0,1-31.11,7.5c-11-.11-20.13-2.32-27.73-6.71s-11.43-9.67-11.53-16,4.21-12.26,13-18l-5.58-3.22L248.08,4.28l5.58,3.23A65.72,65.72,0,0,1,284.77,0c10.8.11,20,2.33,27.55,6.71s11.43,9.67,11.71,16-4.12,12.2-13,18ZM250.64,28.48c-4.85,3.22-5.67,8.24,2,12.68a24.38,24.38,0,0,0,22.06,1.21ZM294.38,31c4.76-3.27,5.49-8.34-2.1-12.73s-16.38-4-22-1.16Z"></path> </g> </g> </svg> 