<svg width="512" height="512" viewBox="0 0 512 512" fill="none" xmlns="http://www.w3.org/2000/svg">
<path d="M228 184C234.627 184 240 178.627 240 172C240 165.373 234.627 160 228 160C221.373 160 216 165.373 216 172C216 178.627 221.373 184 228 184Z" fill="#FF9F19"/>
<path d="M284 184C290.627 184 296 178.627 296 172C296 165.373 290.627 160 284 160C277.373 160 272 165.373 272 172C272 178.627 277.373 184 284 184Z" fill="#FF9F19"/>
<path d="M234.343 194.343C233.6 195.086 233.011 195.968 232.609 196.938C232.207 197.909 232 198.949 232 200C232 201.051 232.207 202.091 232.609 203.062C233.011 204.032 233.6 204.914 234.343 205.657C237.187 208.501 240.564 210.757 244.28 212.296C247.995 213.836 251.978 214.628 256 214.628C260.022 214.628 264.005 213.836 267.721 212.296C271.437 210.757 274.813 208.501 277.657 205.657C279.158 204.157 280.001 202.122 280.001 200C280.001 197.878 279.158 195.843 277.657 194.343C276.157 192.843 274.122 192 272 192C269.879 192 267.844 192.843 266.343 194.343C263.598 197.082 259.878 198.62 256 198.62C252.122 198.62 248.403 197.082 245.657 194.343C244.914 193.6 244.032 193.011 243.062 192.609C242.091 192.207 241.051 192 240 192C238.95 192 237.909 192.207 236.939 192.609C235.968 193.011 235.086 193.6 234.343 194.343Z" fill="#FF9F19"/>
<path d="M440 369.962C440.002 354.056 435.532 338.469 427.099 324.982C418.667 311.495 406.612 300.65 392.311 293.686C391.419 288.824 389.14 284.323 385.747 280.727L391.82 226.062L420.833 158.362C426.993 143.929 429.252 128.131 427.385 112.55C425.517 96.9695 419.588 82.153 410.191 69.585C403.786 61.0199 395.12 54.4096 385.167 50.4961C375.213 46.5826 364.366 45.5209 353.842 47.43C325.312 26.9894 291.097 15.9974 256.001 15.9974C220.904 15.9974 186.689 26.9894 158.159 47.43C147.635 45.5204 136.788 46.5821 126.834 50.4958C116.88 54.4095 108.214 61.0203 101.809 69.586C92.4127 82.154 86.4836 96.9705 84.6159 112.551C82.7481 128.132 85.0074 143.93 91.1672 158.363L120.18 226.063L126.253 280.727C122.861 284.323 120.581 288.824 119.689 293.687C108.997 298.896 99.5189 306.295 91.8709 315.404C84.2228 324.513 78.5753 335.128 75.2948 346.561C72.0144 357.993 71.1743 369.988 72.8291 381.766C74.4839 393.544 78.5965 404.843 84.9002 414.929L112 458.3V488C112 490.122 112.843 492.157 114.343 493.657C115.844 495.157 117.878 496 120 496H392C394.122 496 396.157 495.157 397.657 493.657C399.157 492.157 400 490.122 400 488V458.3L427.1 414.934C435.535 401.451 440.005 385.866 440 369.962ZM341.47 391.59L352.754 395.352C355.136 396.152 357.157 397.773 358.455 399.925C359.753 402.076 360.244 404.619 359.841 407.1C359.438 409.58 358.167 411.837 356.255 413.467C354.342 415.097 351.913 415.995 349.4 416H312C309.879 415.998 307.846 415.154 306.346 413.654C304.846 412.154 304.003 410.121 304 408V389.314C303.983 383.894 302.677 378.556 300.188 373.742C297.7 368.927 294.102 364.773 289.691 361.624L301.657 349.657C302.4 348.914 302.989 348.032 303.392 347.062C303.794 346.091 304.001 345.051 304.001 344C304.001 342.949 303.794 341.909 303.392 340.938C302.989 339.968 302.4 339.086 301.657 338.343L299.314 336H310.1C317.926 340.024 324.486 346.134 329.057 353.654C333.628 361.173 336.031 369.81 336 378.61V384C336 385.679 336.528 387.316 337.51 388.678C338.492 390.04 339.877 391.059 341.47 391.59V391.59ZM184 184C181.878 184 179.844 183.157 178.343 181.657C176.843 180.157 176 178.122 176 176C176 173.878 176.843 171.843 178.343 170.343C179.844 168.843 181.878 168 184 168V184ZM184 200H185.814C188.296 210.884 193.281 221.04 200.374 229.661L190.06 232.239C188.541 232.612 187.167 233.426 186.109 234.579C185.051 235.731 184.358 237.17 184.115 238.715C178.36 240.161 172.904 242.611 168 245.953V193.869C172.392 197.82 178.092 200.004 184 200ZM242.343 149.657C243.844 151.157 245.878 152 248 152C250.122 152 252.157 151.157 253.657 149.657C255.158 148.157 256 146.122 256 144C256 141.878 255.158 139.843 253.657 138.343C250.368 135.078 247.928 131.058 246.548 126.633C245.168 122.209 244.89 117.514 245.739 112.958C250.989 111.972 256.352 111.746 261.666 112.286C260.748 119.071 261.416 125.977 263.615 132.461C265.815 138.945 269.487 144.831 274.343 149.657C275.086 150.4 275.968 150.989 276.939 151.391C277.909 151.793 278.95 152 280 152C281.051 152 282.091 151.793 283.062 151.391C284.032 150.989 284.914 150.4 285.657 149.657C286.4 148.914 286.989 148.032 287.391 147.062C287.793 146.091 288 145.051 288 144C288 142.949 287.793 141.909 287.391 140.938C286.989 139.968 286.4 139.086 285.657 138.343C282.767 135.47 280.528 132.008 279.093 128.194C277.658 124.379 277.06 120.301 277.339 116.235C287.587 120.47 296.35 127.648 302.519 136.862C308.688 146.076 311.988 156.911 312 168V184C312 198.852 306.1 213.096 295.598 223.598C285.096 234.1 270.852 240 256 240C241.148 240 226.904 234.1 216.402 223.598C205.9 213.096 200 198.852 200 184V168C200.007 157.927 202.729 148.042 207.879 139.385C213.029 130.728 220.417 123.618 229.265 118.805C229.423 130.403 234.118 141.479 242.343 149.657V149.657ZM328 168C330.122 168 332.157 168.843 333.657 170.343C335.157 171.843 336 173.878 336 176C336 178.122 335.157 180.157 333.657 181.657C332.157 183.157 330.122 184 328 184V168ZM328 200C333.908 200.004 339.608 197.82 344 193.869V245.953C339.096 242.612 333.641 240.162 327.885 238.715C327.643 237.17 326.949 235.731 325.891 234.579C324.834 233.426 323.459 232.612 321.94 232.239L311.626 229.661C318.719 221.04 323.704 210.884 326.186 200H328ZM370.687 271.374L360 260.686V232H375.062L370.687 271.374ZM268.687 360H243.313L227.313 344L256 315.314L284.687 344L268.687 360ZM297.667 242.663L308.743 245.432L277.5 314.18L265.547 302.228L289.637 248.028C289.708 247.867 289.764 247.704 289.824 247.541C292.54 246.085 295.16 244.455 297.667 242.663V242.663ZM256 284.3L242.879 254.78C251.551 256.407 260.45 256.407 269.121 254.78L256 284.3ZM203.305 245.417L214.333 242.661C216.831 244.445 219.44 246.067 222.144 247.519L246.458 302.226L234.506 314.18L203.3 245.52L203.305 245.417ZM208 294.534L219.576 320H208V294.534ZM304 294.534V320H292.424L304 294.534ZM152 260.686L141.313 271.374L136.938 232H152V260.686ZM136 294.628C136.656 293.021 137.735 291.622 139.122 290.579C139.175 290.544 139.228 290.51 139.28 290.473C140.081 289.897 140.964 289.445 141.899 289.133L146.529 287.59C147.708 287.197 148.779 286.535 149.657 285.657L171.939 263.375C176.749 258.56 182.87 255.267 189.539 253.908L201.468 280.153C199.55 279.789 197.566 280.14 195.889 281.14L156.642 304.688L148.042 307.554C145.825 308.284 143.419 308.194 141.262 307.3C139.105 306.407 137.34 304.769 136.288 302.685C135.657 301.444 135.305 300.08 135.255 298.688C135.205 297.297 135.46 295.911 136 294.628V294.628ZM201.9 336H212.685L210.342 338.343C209.599 339.086 209.01 339.968 208.608 340.938C208.206 341.909 207.999 342.949 207.999 344C207.999 345.051 208.206 346.091 208.608 347.062C209.01 348.032 209.599 348.914 210.342 349.657L222.304 361.62C217.891 364.768 214.292 368.922 211.804 373.738C209.316 378.554 208.013 383.893 208 389.314V408C207.998 410.121 207.154 412.154 205.654 413.654C204.155 415.154 202.121 415.998 200 416H162.6C160.088 415.994 157.659 415.096 155.747 413.465C153.835 411.835 152.565 409.578 152.162 407.098C151.76 404.618 152.251 402.075 153.549 399.924C154.847 397.773 156.867 396.152 159.249 395.352L170.533 391.59C172.126 391.058 173.51 390.039 174.492 388.677C175.473 387.315 176.001 385.679 176 384V378.61C175.97 369.81 178.373 361.173 182.944 353.654C187.514 346.134 194.075 340.025 201.9 336V336ZM248 376H264V392H248V376ZM316.116 281.14C314.44 280.14 312.455 279.789 310.537 280.153L322.466 253.908C329.133 255.268 335.253 258.56 340.061 263.375L362.343 285.657C363.222 286.535 364.293 287.197 365.471 287.59L370.1 289.133C371.037 289.445 371.921 289.897 372.722 290.474C372.773 290.51 372.822 290.544 372.877 290.579C374.688 291.95 375.962 293.91 376.48 296.121C376.997 298.332 376.726 300.654 375.712 302.686C374.661 304.77 372.896 306.407 370.74 307.301C368.583 308.194 366.177 308.284 363.96 307.554L355.36 304.688L316.116 281.14ZM397.391 79.188C405.105 89.5046 409.972 101.667 411.505 114.457C413.038 127.247 411.183 140.215 406.126 152.062L378.725 216H360V62.709C367.124 62.0061 374.308 63.1537 380.859 66.0405C387.409 68.9274 393.104 73.4559 397.391 79.188V79.188ZM344 60.062V158.131C339.608 154.18 333.908 151.996 328 152H326.186C322.564 136.094 313.646 121.89 300.895 111.716C288.143 101.542 272.313 96.0007 256 96.0007C239.687 96.0007 223.858 101.542 211.106 111.716C198.354 121.89 189.437 136.094 185.814 152H184C178.092 151.996 172.392 154.18 168 158.131V60.062C193.713 41.8068 224.466 32 256 32C287.534 32 318.288 41.8068 344 60.062V60.062ZM114.609 79.188C118.897 73.4558 124.591 68.9273 131.142 66.0404C137.692 63.1535 144.877 62.006 152 62.709V216H133.275L105.875 152.062C100.818 140.215 98.9635 127.247 100.496 114.457C102.029 101.667 106.896 89.5047 114.609 79.188V79.188ZM384 480H128V464H384V480ZM413.536 406.448L387.566 448H124.434L98.4642 406.448C93.5719 398.62 90.3038 389.887 88.8543 380.77C87.4048 371.653 87.8035 362.338 90.0267 353.378C92.2499 344.419 96.2521 335.998 101.795 328.616C107.339 321.234 114.31 315.042 122.294 310.409C125.164 315.754 129.824 319.918 135.457 322.172C141.089 324.425 147.336 324.624 153.1 322.733L162.529 319.59C163.083 319.405 191.999 302.13 191.999 302.13V323.191C182.299 328.745 174.234 336.756 168.616 346.42C162.998 356.083 160.026 367.056 159.999 378.233L154.184 380.172C148.197 382.173 143.117 386.239 139.851 391.641C136.586 397.044 135.349 403.432 136.361 409.664C137.373 415.895 140.568 421.563 145.375 425.655C150.182 429.747 156.287 431.996 162.6 432H200C206.363 431.993 212.463 429.462 216.963 424.962C221.462 420.463 223.993 414.363 224 408V389.314C224.007 386.357 224.741 383.447 226.135 380.839C227.53 378.231 229.544 376.006 232 374.359V400C232 402.122 232.843 404.157 234.343 405.657C235.844 407.157 237.878 408 240 408H272C274.122 408 276.157 407.157 277.657 405.657C279.157 404.157 280 402.122 280 400V374.366C282.454 376.014 284.466 378.238 285.861 380.844C287.256 383.45 287.99 386.358 288 389.314V408C288.008 414.363 290.539 420.463 295.038 424.962C299.537 429.462 305.637 431.993 312 432H349.4C355.713 431.995 361.818 429.745 366.624 425.653C371.43 421.56 374.624 415.892 375.635 409.661C376.646 403.43 375.409 397.043 372.143 391.64C368.878 386.238 363.798 382.173 357.811 380.172L352 378.233C351.973 367.056 349.001 356.083 343.384 346.42C337.766 336.756 329.7 328.745 320 323.191V302.13C320 302.13 348.916 319.405 349.47 319.59L358.9 322.733C364.665 324.625 370.911 324.427 376.544 322.173C382.177 319.92 386.837 315.755 389.706 310.409C397.691 315.042 404.662 321.234 410.205 328.616C415.748 335.998 419.751 344.419 421.974 353.378C424.197 362.338 424.596 371.653 423.146 380.77C421.697 389.887 418.429 398.62 413.536 406.448V406.448Z" fill="#FF9F19"/>
</svg>
