<svg width="457" height="457" viewBox="0 0 457 457" fill="none" xmlns="http://www.w3.org/2000/svg">
<path d="M270.345 182.8H285.579C289.791 182.8 293.195 179.395 293.195 175.183C293.195 170.971 289.791 167.567 285.579 167.567H270.345C266.133 167.567 262.729 170.971 262.729 175.183C262.729 179.395 266.133 182.8 270.345 182.8Z" fill="#FF9F19"/>
<path d="M243.696 236.117C240.398 236.109 237.191 235.523 234.16 234.365C230.26 232.88 225.835 234.837 224.327 238.767C222.834 242.697 224.807 247.1 228.729 248.6C233.497 250.413 238.517 251.342 243.681 251.35H246.4C250.612 251.35 254.017 247.945 254.017 243.733C254.017 239.521 250.612 236.117 246.4 236.117H243.696V236.117Z" fill="#FF9F19"/>
<path d="M225.626 187.949C227.004 187.949 228.391 187.576 229.647 186.799C233.021 184.696 236.754 183.409 240.722 182.967C244.903 182.503 247.92 178.74 247.463 174.559C247.006 170.377 243.266 167.391 239.054 167.818C232.793 168.511 226.913 170.537 221.581 173.866C218.009 176.09 216.927 180.789 219.152 184.361C220.599 186.677 223.082 187.949 225.626 187.949Z" fill="#FF9F19"/>
<path d="M274.155 304.667C273.5 304.667 272.853 304.682 272.205 304.712C268.001 304.88 264.741 308.429 264.909 312.634C265.068 316.731 268.45 319.938 272.51 319.938C272.617 319.938 272.723 319.938 272.83 319.93L287.751 319.9C291.963 319.9 295.368 316.495 295.368 312.283C295.368 308.071 291.963 304.667 287.751 304.667H274.155Z" fill="#FF9F19"/>
<path d="M331.28 182.8C335.492 182.8 338.896 179.395 338.896 175.183C338.896 170.971 335.492 167.567 331.28 167.567H316.046C311.834 167.567 308.43 170.971 308.43 175.183C308.43 179.395 311.834 182.8 316.046 182.8H331.28Z" fill="#FF9F19"/>
<path d="M363.917 304.667C359.705 304.667 356.301 308.071 356.301 312.283C356.301 316.495 359.705 319.9 363.917 319.9H379.151C383.363 319.9 386.767 316.495 386.767 312.283C386.767 308.071 383.363 304.667 379.151 304.667H363.917Z" fill="#FF9F19"/>
<path d="M391.127 243.733C391.127 239.521 387.722 236.117 383.51 236.117H368.277C364.065 236.117 360.66 239.521 360.66 243.733C360.66 247.945 364.065 251.35 368.277 251.35H383.51C387.715 251.35 391.127 247.945 391.127 243.733Z" fill="#FF9F19"/>
<path d="M318.218 319.9H333.452C337.664 319.9 341.068 316.495 341.068 312.283C341.068 308.071 337.664 304.667 333.452 304.667H318.218C314.006 304.667 310.602 308.071 310.602 312.283C310.602 316.495 314.014 319.9 318.218 319.9Z" fill="#FF9F19"/>
<path d="M345.428 243.733C345.428 239.521 342.023 236.117 337.811 236.117H322.578C318.366 236.117 314.961 239.521 314.961 243.733C314.961 247.945 318.366 251.35 322.578 251.35H337.811C342.015 251.35 345.428 247.945 345.428 243.733Z" fill="#FF9F19"/>
<path d="M276.876 236.117C272.664 236.117 269.26 239.521 269.26 243.733C269.26 247.945 272.664 251.35 276.876 251.35H292.11C296.322 251.35 299.726 247.945 299.726 243.733C299.726 239.521 296.322 236.117 292.11 236.117H276.876Z" fill="#FF9F19"/>
<path d="M183.291 441.767H168.058C163.846 441.767 160.441 445.171 160.441 449.383C160.441 453.595 163.846 457 168.058 457H183.291C187.503 457 190.908 453.595 190.908 449.383C190.908 445.171 187.496 441.767 183.291 441.767Z" fill="#FF9F19"/>
<path d="M137.59 441.767H122.357C118.145 441.767 114.74 445.171 114.74 449.383C114.74 453.595 118.145 457 122.357 457H137.59C141.802 457 145.207 453.595 145.207 449.383C145.207 445.171 141.795 441.767 137.59 441.767Z" fill="#FF9F19"/>
<path d="M400.675 415.238C396.569 414.316 392.494 416.891 391.573 420.996C390.697 424.88 388.998 428.453 386.523 431.598C383.926 434.904 384.489 439.695 387.803 442.292C389.204 443.389 390.857 443.922 392.502 443.922C394.764 443.922 396.996 442.924 398.496 441.013C402.335 436.138 405.077 430.38 406.433 424.347C407.355 420.234 404.78 416.159 400.675 415.238Z" fill="#FF9F19"/>
<path d="M392.501 401.543C394.146 401.543 395.814 401.01 397.2 399.913C400.514 397.308 401.077 392.517 398.48 389.219C394.649 384.352 389.706 380.331 384.168 377.581C380.383 375.7 375.828 377.246 373.954 381.009C372.081 384.779 373.619 389.349 377.382 391.223C380.908 392.967 384.062 395.534 386.499 398.641C388.007 400.545 390.239 401.543 392.501 401.543Z" fill="#FF9F19"/>
<path d="M358.488 380.833C358.488 376.621 355.084 373.217 350.871 373.217H335.638C331.426 373.217 328.021 376.621 328.021 380.833C328.021 385.045 331.426 388.45 335.638 388.45H350.871C355.076 388.45 358.488 385.045 358.488 380.833Z" fill="#FF9F19"/>
<path d="M365.557 441.767H350.857C346.645 441.767 343.24 445.171 343.24 449.383C343.24 453.595 346.645 457 350.857 457L365.869 456.992L366.09 449.376V456.992C370.302 456.992 373.44 453.588 373.44 449.376C373.44 445.171 369.769 441.767 365.557 441.767Z" fill="#FF9F19"/>
<path d="M452.629 271.397C451.959 267.239 448.036 264.398 443.9 265.083C439.742 265.746 436.916 269.661 437.586 273.812C437.799 275.167 437.921 276.546 437.906 278.016C437.906 280.575 437.54 283.104 436.824 285.541C435.644 289.578 437.952 293.813 441.996 294.994C442.712 295.199 443.428 295.298 444.136 295.298C447.434 295.298 450.473 293.15 451.448 289.822C452.568 285.991 453.139 282.022 453.139 278.069C453.155 275.876 452.987 273.629 452.629 271.397Z" fill="#FF9F19"/>
<path d="M213.496 227.395C217.487 226.078 219.666 221.774 218.356 217.776C217.48 215.102 217.03 212.307 217.03 209.489C217.038 208.338 217.106 207.188 217.243 206.069C217.769 201.895 214.814 198.079 210.64 197.561C206.336 197.081 202.65 200.006 202.132 204.165C201.919 205.886 201.804 207.638 201.797 209.451C201.797 213.929 202.498 218.332 203.876 222.536C204.935 225.743 207.913 227.776 211.112 227.776C211.904 227.776 212.712 227.662 213.496 227.395Z" fill="#FF9F19"/>
<path d="M432.221 241.738C426.782 238.585 420.841 236.734 414.573 236.239C410.391 235.934 406.712 239.034 406.385 243.238C406.057 247.435 409.188 251.099 413.385 251.426C417.36 251.739 421.131 252.912 424.581 254.915C425.785 255.615 427.102 255.943 428.397 255.943C431.025 255.943 433.584 254.58 434.993 252.15C437.103 248.517 435.861 243.855 432.221 241.738Z" fill="#FF9F19"/>
<path d="M421.554 302.603C418.286 303.974 414.828 304.667 411.256 304.667H409.619C405.407 304.667 402.002 308.072 402.002 312.284C402.002 316.496 405.407 319.9 409.619 319.9H411.256C416.862 319.9 422.308 318.803 427.442 316.648C431.326 315.018 433.146 310.555 431.517 306.678C429.894 302.801 425.4 300.973 421.554 302.603Z" fill="#FF9F19"/>
<path d="M247.964 341.524C248.718 337.609 250.302 333.991 252.679 330.761C255.169 327.38 254.446 322.612 251.056 320.113C247.667 317.63 242.906 318.346 240.408 321.736C236.684 326.808 234.185 332.498 232.997 338.66C232.205 342.788 234.909 346.779 239.045 347.579C239.525 347.67 240.012 347.716 240.484 347.716C244.064 347.701 247.256 345.164 247.964 341.524Z" fill="#FF9F19"/>
<path d="M259.909 385.358C262.803 385.358 265.56 383.705 266.84 380.909C268.584 377.078 266.908 372.562 263.085 370.817C259.512 369.18 256.275 366.72 253.731 363.688C251.02 360.466 246.221 360.047 243 362.759C239.778 365.463 239.359 370.269 242.07 373.491C246.061 378.236 251.134 382.105 256.748 384.664C257.776 385.129 258.85 385.358 259.909 385.358Z" fill="#FF9F19"/>
<path d="M228.991 441.767H213.757C209.545 441.767 206.141 445.171 206.141 449.383C206.141 453.595 209.545 457 213.757 457H228.991C233.203 457 236.607 453.595 236.607 449.383C236.607 445.171 233.195 441.767 228.991 441.767Z" fill="#FF9F19"/>
<path d="M274.69 441.767H259.457C255.244 441.767 251.84 445.171 251.84 449.383C251.84 453.595 255.244 457 259.457 457H274.69C278.902 457 282.307 453.595 282.307 449.383C282.307 445.171 278.894 441.767 274.69 441.767Z" fill="#FF9F19"/>
<path d="M312.787 380.833C312.787 376.621 309.382 373.217 305.17 373.217H289.937C285.725 373.217 282.32 376.621 282.32 380.833C282.32 385.045 285.725 388.45 289.937 388.45H305.17C309.375 388.45 312.787 385.045 312.787 380.833Z" fill="#FF9F19"/>
<path d="M320.391 441.767H305.158C300.946 441.767 297.541 445.171 297.541 449.383C297.541 453.595 300.946 457 305.158 457H320.391C324.603 457 328.008 453.595 328.008 449.383C328.008 445.171 324.595 441.767 320.391 441.767Z" fill="#FF9F19"/>
<path d="M160.115 220.708C142.818 201.171 119.755 190.417 95.1606 190.417C70.5663 190.417 47.5031 201.171 30.2132 220.708C-4.91483 260.399 -4.91483 324.965 30.2132 364.656L95.1606 438.027L160.108 364.656C195.244 324.965 195.244 260.399 160.115 220.708ZM95.1606 327.517C69.957 327.517 49.4606 307.02 49.4606 281.817C49.4606 256.613 69.957 236.117 95.1606 236.117C120.364 236.117 140.861 256.613 140.861 281.817C140.861 307.02 120.364 327.517 95.1606 327.517Z" fill="#FF9F19"/>
<path d="M371.299 186.662L420.534 131.167C447.024 101.309 447.024 52.7454 420.534 22.8881C407.433 8.12698 389.945 0 371.292 0C352.646 0 335.158 8.12698 322.058 22.8881C295.575 52.7454 295.575 101.309 322.058 131.167L371.299 186.662ZM373.173 30.4667C396.267 30.4667 415.065 49.2646 415.065 72.3583C415.065 95.4521 396.267 114.25 373.173 114.25C350.079 114.25 331.281 95.4521 331.281 72.3583C331.281 49.2646 350.079 30.4667 373.173 30.4667Z" fill="#FF9F19"/>
</svg>
