<svg width="342" height="512" viewBox="0 0 342 512" fill="none" xmlns="http://www.w3.org/2000/svg">
<path d="M299 213.333H203V164.32C234.223 151.625 256.333 121.058 256.333 85.333C256.333 38.281 218.063 0 171 0C123.937 0 85.667 38.281 85.667 85.333C85.667 121.058 107.778 151.625 139 164.32V213.333H43C19.479 213.333 0.333008 232.468 0.333008 256V469.333C0.333008 492.865 19.479 512 43 512H299C322.521 512 341.667 492.865 341.667 469.333V256C341.667 232.469 322.521 213.333 299 213.333ZM107 85.333C107 50.041 135.708 21.333 171 21.333C206.292 21.333 235 50.041 235 85.333C235 120.625 206.292 149.333 171 149.333C135.708 149.333 107 120.625 107 85.333ZM181.667 169.589V330.667C181.667 336.552 176.875 341.334 171 341.334C165.125 341.334 160.333 336.553 160.333 330.667V169.589C163.866 170.037 167.347 170.667 171 170.667C174.653 170.667 178.134 170.036 181.667 169.589ZM140.965 341.334C145.383 353.722 157.112 362.666 171 362.666C184.888 362.666 196.617 353.722 201.035 341.333H245.667C251.563 341.333 256.334 336.562 256.334 330.666V288C256.334 282.115 261.126 277.333 267.001 277.333C272.876 277.333 277.668 282.114 277.668 288V437.333C277.668 443.218 272.876 448 267.001 448C261.126 448 256.334 443.219 256.334 437.333V384C256.334 378.104 251.563 373.333 245.667 373.333H192.334C186.438 373.333 181.667 378.104 181.667 384V437.333C181.667 443.218 176.875 448 171 448C165.125 448 160.333 443.219 160.333 437.333V384C160.333 378.104 155.562 373.333 149.666 373.333H96.333C90.437 373.333 85.666 378.104 85.666 384V437.333C85.666 443.218 80.874 448 74.999 448C69.124 448 64.332 443.219 64.332 437.333V288C64.332 282.115 69.124 277.333 74.999 277.333C80.874 277.333 85.666 282.114 85.666 288V330.667C85.666 336.563 90.437 341.334 96.333 341.334H140.965ZM320.333 469.333C320.333 481.093 310.77 490.666 299 490.666H43C31.229 490.666 21.667 481.093 21.667 469.333V256C21.667 244.24 31.23 234.667 43 234.667H139V320H107V288C107 270.354 92.646 256 75 256C57.354 256 43 270.354 43 288V437.333C43 454.979 57.354 469.333 75 469.333C92.646 469.333 107 454.979 107 437.333V394.666H139V437.333C139 454.979 153.354 469.333 171 469.333C188.646 469.333 203 454.979 203 437.333V394.666H235V437.333C235 454.979 249.354 469.333 267 469.333C284.646 469.333 299 454.979 299 437.333V288C299 270.354 284.646 256 267 256C249.354 256 235 270.354 235 288V320H203V234.667H299C310.771 234.667 320.333 244.24 320.333 256V469.333V469.333Z" fill="#6495ED"/>
</svg>
