<svg width="395" height="395" viewBox="0 0 395 395" fill="none" xmlns="http://www.w3.org/2000/svg">
<g clip-path="url(#clip0)">
<path d="M391.909 145.036C390.971 142.305 387.646 140.181 384.87 140.181C372.849 140.181 360.83 140.181 348.809 140.181C346.034 140.181 342.708 142.305 341.769 145.036C340.851 147.709 340.165 150.094 339.709 152.337L315.621 85.6962C311.648 74.7072 301.126 67.3242 289.442 67.3242H105.209C93.5241 67.3242 83.0041 74.7072 79.0291 85.6982L54.9401 152.345C54.4831 150.1 53.7971 147.712 52.8781 145.036C51.9401 142.305 48.6141 140.181 45.8391 140.181C33.8191 140.181 21.7991 140.181 9.7781 140.181C7.0031 140.181 3.6771 142.305 2.7391 145.036C-0.912898 155.669 -0.910898 161.756 2.7401 172.39C3.6781 175.121 7.0041 177.245 9.7791 177.245C21.8001 177.245 33.8201 177.245 45.8401 177.245C45.8741 177.245 45.9101 177.236 45.9451 177.235L45.4011 178.742C38.0481 181.185 32.7391 188.107 32.7391 196.281V252.086V256.685V318.437C32.7391 323.346 36.7171 327.324 41.6261 327.324H86.3531C91.2611 327.324 95.2401 323.346 95.2401 318.437V275.175H299.41V318.437C299.41 323.346 303.389 327.324 308.297 327.324H353.024C357.933 327.324 361.911 323.346 361.911 318.437V256.685V252.086V196.281C361.911 188.109 356.604 181.188 349.254 178.743L348.709 177.235C348.742 177.236 348.777 177.244 348.81 177.244C360.831 177.244 372.85 177.244 384.871 177.244C387.647 177.244 390.972 175.12 391.91 172.389C395.561 161.756 395.559 155.669 391.909 145.036ZM108.612 100.028H286.014L314.122 177.79H80.5051L108.612 100.028ZM113.56 232.571H76.1421C68.1141 232.571 61.6071 226.064 61.6071 218.036C61.6071 210.009 68.1131 203.501 76.1421 203.501H113.56C121.587 203.501 128.095 210.008 128.095 218.036C128.096 226.064 121.587 232.571 113.56 232.571ZM318.505 232.571H281.087C273.06 232.571 266.552 226.064 266.552 218.036C266.552 210.009 273.06 203.501 281.087 203.501H318.505C326.533 203.501 333.04 210.008 333.04 218.036C333.04 226.064 326.533 232.571 318.505 232.571Z" fill="#6495ED"/>
</g>
<defs>
<clipPath id="clip0">
<rect width="394.648" height="394.648" fill="white"/>
</clipPath>
</defs>
</svg>
