<svg width="1159" height="1159" viewBox="0 0 1159 1159" fill="none" xmlns="http://www.w3.org/2000/svg">
<g clip-path="url(#clip0)">
<path d="M202.303 610.798C154.007 610.798 114.846 649.947 114.846 698.255C114.846 701.979 115.15 705.645 115.619 709.24C121.041 752.348 157.731 785.689 202.292 785.689C248.058 785.689 285.58 750.51 289.386 705.703C289.585 703.256 289.749 700.761 289.749 698.243C289.761 649.947 250.611 610.798 202.303 610.798ZM158.528 665.301L176.352 683.136C174.97 685.514 173.881 688.078 173.178 690.819H148.046C149.335 681.309 152.977 672.62 158.528 665.301ZM147.929 705.961H173.26C173.974 708.655 175.028 711.208 176.434 713.55L158.563 731.409C153.023 724.148 149.299 715.459 147.929 705.961ZM194.738 752.582C185.264 751.259 176.656 747.547 169.372 742.054L187.149 724.265C189.491 725.635 192.056 726.643 194.738 727.345V752.582ZM194.738 669.165C191.986 669.891 189.409 670.969 187.009 672.386L169.196 654.573C176.516 649.011 185.205 645.333 194.738 644.01V669.165ZM209.88 643.987C219.413 645.31 228.114 649.011 235.422 654.562L217.621 672.374C215.232 670.957 212.632 669.879 209.892 669.153L209.88 643.987ZM209.88 752.559V727.357C212.574 726.643 215.115 725.647 217.457 724.265L235.246 742.054C227.962 747.547 219.343 751.236 209.88 752.559ZM246.091 731.491L228.161 713.538C229.566 711.184 230.702 708.666 231.417 705.973H256.548C255.213 715.435 251.642 724.195 246.091 731.491ZM231.452 690.819C230.738 688.078 229.66 685.514 228.278 683.136L246.126 665.301C251.642 672.62 255.284 681.309 256.595 690.83H231.452V690.819Z" fill="#FF9F1A"/>
<path d="M928.487 610.798C880.191 610.798 841.029 649.947 841.029 698.255C841.029 701.979 841.334 705.645 841.802 709.24C847.224 752.348 883.915 785.689 928.463 785.689C974.23 785.689 1011.75 750.51 1015.57 705.703C1015.77 703.256 1015.93 700.761 1015.93 698.243C1015.96 649.947 976.795 610.798 928.487 610.798ZM884.711 665.301L902.524 683.136C901.142 685.514 900.053 688.078 899.35 690.819H874.218C875.518 681.309 879.16 672.62 884.711 665.301ZM874.124 705.961H899.455C900.17 708.655 901.224 711.208 902.629 713.55L884.77 731.409C879.207 724.148 875.471 715.459 874.124 705.961ZM920.922 752.582C911.447 751.259 902.84 747.547 895.556 742.054L913.333 724.265C915.675 725.635 918.24 726.643 920.922 727.345V752.582ZM920.922 669.165C918.169 669.891 915.593 670.969 913.192 672.386L895.38 654.573C902.699 649.011 911.377 645.333 920.922 644.01V669.165ZM936.076 643.987C945.608 645.31 954.31 649.011 961.617 654.562L943.805 672.374C941.416 670.957 938.816 669.856 936.076 669.153V643.987ZM936.076 752.559V727.357C938.769 726.643 941.31 725.647 943.653 724.265L961.442 742.054C954.157 747.547 945.526 751.236 936.076 752.559ZM972.274 731.491L954.345 713.561C955.75 711.196 956.898 708.69 957.6 705.984H982.732C981.397 715.435 977.837 724.195 972.274 731.491ZM957.636 690.819C956.921 688.078 955.855 685.514 954.462 683.136L972.298 665.301C977.825 672.62 981.456 681.309 982.779 690.83H957.636V690.819Z" fill="#FF9F1A"/>
<path d="M1138.49 565.523V500.808C1138.49 490.397 1130.92 481.579 1120.64 479.974C1095.97 476.11 1052.23 468.814 1032.58 462.759C1004.4 454.07 895.534 407.975 857.837 399.321C820.127 390.666 650.107 344.455 487.266 400.902C459.71 410.446 335.75 469.704 262.861 500.515C241.394 500.984 28.9222 545.275 17.6094 575.63C6.29657 605.996 2.74814 620.729 0.663591 628.434C-1.42096 636.14 0.663591 673.018 16.45 698.7C32.5409 707.8 63.5164 713.913 99.3285 718.012C98.9187 715.822 98.4736 713.667 98.1926 711.453C97.5719 706.722 97.2791 702.401 97.2791 698.279C97.2791 640.368 144.381 593.243 202.303 593.243C260.226 593.243 307.327 640.356 307.327 698.279C307.327 701.253 307.128 704.204 306.906 707.109C306.355 713.608 305.184 719.92 303.486 725.998C303.568 725.998 303.767 725.998 303.767 725.998L825.093 715.505C824.858 714.159 824.554 712.824 824.378 711.453C823.758 706.746 823.465 702.413 823.465 698.279C823.465 640.368 870.566 593.255 928.489 593.255C986.411 593.255 1033.52 640.356 1033.52 698.279C1033.52 698.501 1033.5 698.688 1033.49 698.899L1035.71 698.712L1124.85 681.93C1124.85 681.93 1158.98 663.755 1158.98 613.749C1159 580.396 1138.49 565.523 1138.49 565.523ZM621.345 504.169L426.65 510.13C430.234 480.958 412.96 474.412 412.96 474.412C490.358 404.157 646.348 401.78 646.348 401.78L621.345 504.169ZM839.848 495.257L662.427 501.218L678.506 401.792C770.203 400.597 822.586 420.834 822.586 420.834L848.784 463.111L839.848 495.257ZM939.872 494.648H890.44L841.02 426.783C878.097 441.539 907.772 456.084 925.444 465.277C936.171 470.851 942.027 482.762 939.872 494.648Z" fill="#FF9F1A"/>
</g>
<defs>
<clipPath id="clip0">
<rect width="1159" height="1159" fill="white"/>
</clipPath>
</defs>
</svg>
