<svg width="1159" height="1159" viewBox="0 0 1159 1159" fill="none" xmlns="http://www.w3.org/2000/svg">
<path d="M947.421 610.223C994.442 610.223 1032.57 648.34 1032.57 695.372C1032.57 698.998 1032.27 702.566 1031.82 706.067C1026.54 748.037 990.816 780.497 947.432 780.497C902.874 780.497 866.343 746.246 862.637 702.623C862.444 700.24 862.284 697.812 862.284 695.36C862.272 648.34 900.389 610.223 947.421 610.223ZM990.041 663.287L972.687 680.652C974.033 682.967 975.093 685.464 975.777 688.132H1000.25C998.991 678.873 995.445 670.413 990.041 663.287ZM1000.36 702.874H975.697C975.002 705.497 973.976 707.982 972.607 710.263L990.007 727.65C995.4 720.581 999.025 712.121 1000.36 702.874ZM954.786 748.265C964.011 746.976 972.391 743.362 979.483 738.014L962.175 720.695C959.894 722.029 957.397 723.01 954.786 723.694V748.265ZM954.786 667.05C957.466 667.757 959.974 668.806 962.312 670.185L979.654 652.843C972.528 647.427 964.068 643.847 954.786 642.559V667.05ZM940.044 642.536C930.763 643.824 922.291 647.427 915.177 652.832L932.507 670.174C934.833 668.794 937.365 667.745 940.033 667.038L940.044 642.536ZM940.044 748.242V723.705C937.422 723.01 934.947 722.041 932.667 720.695L915.348 738.014C922.44 743.362 930.831 746.953 940.044 748.242ZM904.79 727.73L922.246 710.251C920.878 707.959 919.772 705.508 919.076 702.886H894.608C895.908 712.098 899.385 720.627 904.79 727.73ZM919.042 688.132C919.737 685.464 920.786 682.967 922.132 680.652L904.755 663.287C899.385 670.413 895.839 678.873 894.562 688.143H919.042V688.132Z" fill="#6495ED"/>
<path d="M240.411 610.223C287.432 610.223 325.56 648.34 325.56 695.372C325.56 698.998 325.263 702.566 324.807 706.067C319.528 748.037 283.806 780.497 240.434 780.497C195.876 780.497 159.345 746.246 155.628 702.623C155.434 700.24 155.274 697.812 155.274 695.36C155.251 648.34 193.379 610.223 240.411 610.223ZM283.031 663.287L265.689 680.652C267.034 682.967 268.095 685.464 268.779 688.132H293.247C291.981 678.873 288.435 670.413 283.031 663.287ZM293.338 702.874H268.676C267.981 705.497 266.955 707.982 265.586 710.263L282.974 727.65C288.39 720.581 292.027 712.121 293.338 702.874ZM247.777 748.265C257.001 746.976 265.381 743.362 272.473 738.014L255.165 720.695C252.885 722.029 250.388 723.01 247.777 723.694V748.265ZM247.777 667.05C250.456 667.757 252.965 668.806 255.302 670.185L272.644 652.843C265.518 647.427 257.069 643.847 247.777 642.559V667.05ZM233.023 642.536C223.742 643.824 215.27 647.427 208.156 652.832L225.498 670.174C227.824 668.794 230.355 667.723 233.023 667.038V642.536ZM233.023 748.242V723.705C230.4 723.01 227.926 722.041 225.646 720.695L208.327 738.014C215.418 743.362 223.822 746.953 233.023 748.242ZM197.78 727.73L215.236 710.274C213.868 707.971 212.751 705.531 212.066 702.897H187.598C188.898 712.098 192.364 720.627 197.78 727.73ZM212.032 688.132C212.728 685.464 213.765 682.967 215.122 680.652L197.757 663.287C192.375 670.413 188.841 678.873 187.553 688.143H212.032V688.132Z" fill="#6495ED"/>
<path d="M35.9527 566.144V503.138C35.9527 493.002 43.3183 484.416 53.3291 482.854C77.3526 479.092 119.938 471.988 139.07 466.094C166.503 457.633 272.494 412.756 309.196 404.33C345.91 395.904 511.441 350.913 669.982 405.869C696.811 415.162 817.498 472.855 888.463 502.853C909.362 503.309 1116.22 546.43 1127.24 575.984C1138.25 605.549 1141.71 619.892 1143.74 627.394C1145.77 634.897 1143.74 670.801 1128.37 695.805C1112.7 704.664 1082.54 710.616 1047.68 714.607C1048.08 712.474 1048.51 710.376 1048.78 708.222C1049.39 703.615 1049.67 699.408 1049.67 695.395C1049.67 639.013 1003.81 593.132 947.421 593.132C891.028 593.132 845.17 639.001 845.17 695.395C845.17 698.291 845.364 701.164 845.581 703.992C846.117 710.319 847.257 716.465 848.91 722.383C848.83 722.383 848.637 722.383 848.637 722.383L341.075 712.167C341.303 710.855 341.6 709.556 341.771 708.222C342.375 703.638 342.66 699.419 342.66 695.395C342.66 639.013 296.802 593.144 240.409 593.144C184.016 593.144 138.147 639.001 138.147 695.395C138.147 695.611 138.17 695.794 138.181 695.999L136.015 695.816L49.2358 679.478C49.2358 679.478 15.9997 661.782 15.9997 613.097C15.9883 580.624 35.9527 566.144 35.9527 566.144ZM539.443 506.41L728.998 512.214C725.509 483.812 742.326 477.438 742.326 477.438C666.972 409.039 515.101 406.725 515.101 406.725L539.443 506.41ZM326.709 497.734L499.446 503.537L483.791 406.736C394.516 405.573 343.515 425.275 343.515 425.275L318.01 466.436L326.709 497.734ZM229.327 497.141H277.454L325.569 431.067C289.471 445.434 260.579 459.595 243.374 468.545C232.93 473.972 227.229 485.568 229.327 497.141Z" fill="#6495ED"/>
</svg>
