<svg width="241" height="241" viewBox="0 0 241 241" fill="none" xmlns="http://www.w3.org/2000/svg">
<g clip-path="url(#clip0)">
<path d="M211.744 6.089C208.081 2.163 203.03 0 197.52 0H182.377C171.217 0 160.566 8.942 158.637 19.934L157.682 25.37C156.722 30.84 158.014 36.021 161.321 39.959C164.628 43.897 169.507 46.065 175.061 46.065H194.622C197.336 46.065 199.961 45.523 202.4 44.561L200.321 62.322C198.32 61.481 196.123 61.033 193.814 61.033H171.496C161.935 61.033 152.544 68.642 150.56 77.994L130.828 171.021L37.7293 164.331C32.6983 163.971 28.4983 165.676 25.8943 169.024C23.4553 172.16 22.7423 176.367 23.8853 180.871L34.7093 223.489C37.0543 232.722 46.7133 240.235 56.2393 240.235H134.288H135.479H175.208C184.861 240.235 193.544 232.424 194.562 222.824L209.834 78.843C209.921 78.02 209.931 77.209 209.903 76.406L215.13 31.758C215.868 29.835 216.337 27.791 216.484 25.671L216.83 20.701C217.214 15.205 215.407 10.016 211.744 6.089Z" fill="#6495ED"/>
</g>
<defs>
<clipPath id="clip0">
<rect width="240.235" height="240.235" fill="white"/>
</clipPath>
</defs>
</svg>
