<svg width="512" height="512" viewBox="0 0 512 512" fill="none" xmlns="http://www.w3.org/2000/svg">
<path d="M437 0C395.647 0 362 33.647 362 75C362 111.216 387.809 141.513 422 148.482V226C422 234.276 415.276 241 407 241H271V148.482C305.191 141.513 331 111.216 331 75C331 33.647 297.353 0 256 0C214.647 0 181 33.647 181 75C181 111.216 206.809 141.513 241 148.482V241H90V148.482C124.191 141.513 150 111.216 150 75C150 33.647 116.353 0 75 0C33.647 0 0 33.647 0 75C0 111.216 25.809 141.513 60 148.482V363.518C25.809 370.487 0 400.784 0 437C0 478.353 33.647 512 75 512C116.353 512 150 478.353 150 437C150 400.784 124.191 370.487 90 363.518V271H241V363.518C206.809 370.487 181 400.784 181 437C181 478.353 214.647 512 256 512C297.353 512 331 478.353 331 437C331 400.784 305.191 370.487 271 363.518V271H407C431.814 271 452 250.814 452 226V148.482C486.191 141.513 512 111.216 512 75C512 33.647 478.353 0 437 0Z" fill="#6495ED"/>
</svg>
