<svg width="384" height="384" viewBox="0 0 384 384" fill="none" xmlns="http://www.w3.org/2000/svg">
<path d="M275.312 140.688C269.072 134.44 258.928 134.44 252.688 140.688L184 209.368L155.312 180.688C149.072 174.44 138.928 174.44 132.688 180.688C126.44 186.936 126.44 197.064 132.688 203.312L172.688 243.312C175.808 246.44 179.904 248 184 248C188.096 248 192.192 246.44 195.312 243.312L275.312 163.312C281.56 157.064 281.56 146.936 275.312 140.688Z" fill="#6495ED"/>
<path d="M368 176C359.168 176 352 183.168 352 192C352 280.224 280.224 352 192 352C103.776 352 32 280.224 32 192C32 103.776 103.776 32 192 32C234.952 32 275.272 48.784 305.544 79.264C311.76 85.544 321.896 85.576 328.168 79.344C334.44 73.12 334.472 62.992 328.248 56.72C291.928 20.144 243.536 0 192 0C86.128 0 0 86.128 0 192C0 297.872 86.128 384 192 384C297.872 384 384 297.872 384 192C384 183.168 376.832 176 368 176Z" fill="#6495ED"/>
</svg>
