<svg width="512" height="512" viewBox="0 0 512 512" fill="none" xmlns="http://www.w3.org/2000/svg">
<path d="M23.9844 440.008C19.5604 440.008 15.9844 436.432 15.9844 432.008C15.9844 392.304 48.2804 360.008 87.9844 360.008C92.4084 360.008 95.9844 363.584 95.9844 368.008C95.9844 372.432 92.4084 376.008 87.9844 376.008C57.1124 376.008 31.9844 401.136 31.9844 432.008C31.9844 436.432 28.4084 440.008 23.9844 440.008V440.008Z" fill="#6495ED"/>
<path d="M135.984 376.016L87.9844 376.008C83.5604 376.008 79.9844 372.424 79.9844 368.008C79.9844 363.584 83.5684 360.008 87.9844 360.008L135.984 360.016C140.408 360.016 143.984 363.6 143.984 368.016C143.984 372.44 140.4 376.016 135.984 376.016Z" fill="#6495ED"/>
<path d="M281.232 376.016L247.984 376C243.56 376 239.984 372.416 239.984 368C239.984 363.576 243.568 360 247.984 360L281.232 360.016C285.656 360.016 289.232 363.6 289.232 368.016C289.232 372.44 285.648 376.016 281.232 376.016Z" fill="#6495ED"/>
<path d="M24.0004 496C19.5844 496 16.0004 492.424 16.0004 488L15.9844 432.008C15.9844 427.592 19.5604 424.008 23.9844 424.008C28.4004 424.008 31.9844 427.584 31.9844 432.008L32.0004 488C32.0004 492.416 28.4244 496 24.0004 496Z" fill="#6495ED"/>
<path d="M135.984 376.016C131.56 376.016 127.984 372.44 127.984 368.016V322.168C127.984 317.744 131.56 314.168 135.984 314.168C140.408 314.168 143.984 317.744 143.984 322.168V368.016C143.984 372.44 140.408 376.016 135.984 376.016Z" fill="#6495ED"/>
<path d="M247.984 376C243.56 376 239.984 372.424 239.984 368V322.168C239.984 317.744 243.56 314.168 247.984 314.168C252.408 314.168 255.984 317.744 255.984 322.168V368C255.984 372.424 252.408 376 247.984 376Z" fill="#6495ED"/>
<path d="M191.984 344.008C121.408 344.008 63.9844 286.584 63.9844 216.008C63.9844 211.584 67.5604 208.008 71.9844 208.008C76.4084 208.008 79.9844 211.584 79.9844 216.008C79.9844 277.768 130.224 328.008 191.984 328.008C253.744 328.008 303.984 277.768 303.984 216.008C303.984 211.584 307.56 208.008 311.984 208.008C316.408 208.008 319.984 211.584 319.984 216.008C319.984 286.584 262.56 344.008 191.984 344.008V344.008Z" fill="#6495ED"/>
<path d="M71.9844 224.008C67.5604 224.008 63.9844 220.432 63.9844 216.008V128C63.9844 123.576 67.5604 120 71.9844 120C76.4084 120 79.9844 123.576 79.9844 128V216.008C79.9844 220.432 76.4084 224.008 71.9844 224.008V224.008Z" fill="#6495ED"/>
<path d="M311.984 224.008C307.56 224.008 303.984 220.432 303.984 216.008V120.016C303.984 115.592 307.56 112.016 311.984 112.016C316.408 112.016 319.984 115.592 319.984 120.016V216.008C319.984 220.432 316.408 224.008 311.984 224.008Z" fill="#6495ED"/>
<path d="M311.984 128.016C307.56 128.016 303.984 124.44 303.984 120.016C303.984 93.5441 282.456 72.0161 255.984 72.0161C251.56 72.0161 247.984 68.4401 247.984 64.0161C247.984 59.5921 251.56 56.0161 255.984 56.0161C291.272 56.0161 319.984 84.7281 319.984 120.016C319.984 124.44 316.408 128.016 311.984 128.016Z" fill="#6495ED"/>
<path d="M255.984 72.016C251.56 72.016 247.984 68.44 247.984 64.016V24C247.984 19.576 251.56 16 255.984 16C260.408 16 263.984 19.576 263.984 24V64.016C263.984 68.44 260.408 72.016 255.984 72.016V72.016Z" fill="#6495ED"/>
<path d="M255.984 32H175.984C171.56 32 167.984 28.424 167.984 24C167.984 19.576 171.56 16 175.984 16H255.984C260.408 16 263.984 19.576 263.984 24C263.984 28.424 260.408 32 255.984 32V32Z" fill="#6495ED"/>
<path d="M71.9844 136C67.5604 136 63.9844 132.424 63.9844 128C63.9844 66.24 114.224 16 175.984 16C180.408 16 183.984 19.576 183.984 24C183.984 28.424 180.408 32 175.984 32C123.048 32 79.9844 75.064 79.9844 128C79.9844 132.424 76.4084 136 71.9844 136V136Z" fill="#6495ED"/>
<path d="M311.984 176C309.936 176 307.888 175.216 306.328 173.656L274.328 141.656C271.2 138.528 271.2 133.472 274.328 130.344C277.456 127.216 282.512 127.216 285.64 130.344L317.64 162.344C320.768 165.472 320.768 170.528 317.64 173.656C316.08 175.216 314.032 176 311.984 176Z" fill="#6495ED"/>
<path d="M191.984 168C142.336 168 101.576 143.88 99.8645 142.856C96.0805 140.584 94.8565 135.68 97.1205 131.888C99.3845 128.112 104.272 126.856 108.088 129.128C108.48 129.368 146.896 152 191.984 152C237.072 152 275.488 129.368 275.872 129.136C279.696 126.864 284.576 128.12 286.84 131.896C289.104 135.688 287.88 140.592 284.096 142.864C282.392 143.88 241.632 168 191.984 168V168Z" fill="#6495ED"/>
<path d="M71.9844 176C69.9364 176 67.8884 175.216 66.3284 173.656C63.2004 170.528 63.2004 165.472 66.3284 162.344L98.3284 130.344C101.456 127.216 106.512 127.216 109.64 130.344C112.768 133.472 112.768 138.528 109.64 141.656L77.6404 173.656C76.0804 175.216 74.0324 176 71.9844 176V176Z" fill="#6495ED"/>
<path d="M159.977 392C158.457 392 156.913 391.56 155.545 390.656L131.545 374.672C127.873 372.224 126.873 367.256 129.329 363.576C131.777 359.896 136.729 358.912 140.425 361.36L164.425 377.344C168.097 379.792 169.097 384.76 166.641 388.44C165.105 390.752 162.561 392 159.977 392V392Z" fill="#6495ED"/>
<path d="M159.976 392C156.392 392 153.136 389.576 152.224 385.936C151.144 381.648 153.752 377.312 158.048 376.24L190.048 368.248C194.32 367.168 198.672 369.768 199.744 374.072C200.824 378.36 198.216 382.696 193.92 383.768L161.92 391.76C161.272 391.92 160.616 392 159.976 392Z" fill="#6495ED"/>
<path d="M223.993 392C221.409 392 218.865 390.752 217.329 388.44C214.873 384.76 215.873 379.792 219.545 377.344L243.545 361.36C247.225 358.912 252.185 359.896 254.641 363.576C257.097 367.256 256.097 372.224 252.425 374.672L228.425 390.656C227.057 391.56 225.513 392 223.993 392V392Z" fill="#6495ED"/>
<path d="M223.993 392C223.353 392 222.697 391.92 222.049 391.76L190.049 383.768C185.761 382.696 183.153 378.36 184.225 374.072C185.289 369.792 189.625 367.168 193.921 368.248L225.921 376.24C230.209 377.312 232.817 381.648 231.745 385.936C230.833 389.568 227.577 392 223.993 392Z" fill="#6495ED"/>
<path d="M192.224 424C187.8 424 184.184 420.424 184.184 416C184.184 411.576 187.72 408 192.136 408H192.224C196.64 408 200.224 411.576 200.224 416C200.224 420.424 196.64 424 192.224 424Z" fill="#6495ED"/>
<path d="M192.224 472.008C187.8 472.008 184.184 468.432 184.184 464.008C184.184 459.584 187.72 456.008 192.136 456.008H192.224C196.64 456.008 200.224 459.584 200.224 464.008C200.224 468.432 196.64 472.008 192.224 472.008Z" fill="#6495ED"/>
<path d="M384.016 496C322.256 496 272.016 445.752 272.016 383.976C272.016 322.216 322.256 271.968 384.016 271.968C445.776 271.968 496.016 322.216 496.016 383.976C496.016 445.752 445.776 496 384.016 496ZM384.016 287.968C331.08 287.968 288.016 331.04 288.016 383.976C288.016 436.92 331.08 480 384.016 480C436.952 480 480.016 436.92 480.016 383.976C480.016 331.04 436.952 287.968 384.016 287.968Z" fill="#6495ED"/>
<path d="M384.016 472C335.496 472 296.016 432.512 296.016 383.976C296.016 335.448 335.496 295.968 384.016 295.968C432.536 295.968 472.016 335.448 472.016 383.976C472.016 432.512 432.536 472 384.016 472ZM384.016 311.968C344.312 311.968 312.016 344.272 312.016 383.976C312.016 423.688 344.312 456 384.016 456C423.72 456 456.016 423.688 456.016 383.976C456.016 344.272 423.72 311.968 384.016 311.968Z" fill="#6495ED"/>
<path d="M384.016 407.968C370.784 407.968 360.016 397.2 360.016 383.968C360.016 370.736 370.784 359.96 384.016 359.96C397.248 359.96 408.016 370.736 408.016 383.968C408.016 397.2 397.248 407.968 384.016 407.968ZM384.016 375.96C379.6 375.96 376.016 379.552 376.016 383.968C376.016 388.384 379.6 391.968 384.016 391.968C388.432 391.968 392.016 388.384 392.016 383.968C392.016 379.552 388.432 375.96 384.016 375.96Z" fill="#6495ED"/>
<path d="M453.311 351.968H314.719C310.295 351.968 306.719 348.392 306.719 343.968C306.719 339.544 310.295 335.968 314.719 335.968H453.311C457.735 335.968 461.311 339.544 461.311 343.968C461.311 348.392 457.735 351.968 453.311 351.968Z" fill="#6495ED"/>
<path d="M400.031 470.312C399.983 470.312 399.927 470.312 399.879 470.312C395.455 470.224 391.943 466.576 392.031 462.16C392.839 419.64 420.831 383.272 461.687 371.656C465.951 370.432 470.359 372.912 471.567 377.16C472.775 381.408 470.311 385.832 466.063 387.04C432.023 396.72 408.703 427.024 408.031 462.456C407.943 466.832 404.383 470.312 400.031 470.312Z" fill="#6495ED"/>
<path d="M368.031 470.392C363.679 470.392 360.111 466.896 360.031 462.536C359.399 427.048 336.079 396.712 301.991 387.04C297.735 385.84 295.271 381.416 296.479 377.168C297.679 372.912 302.119 370.424 306.351 371.656C347.271 383.264 375.271 419.672 376.031 462.256C376.111 466.672 372.591 470.32 368.175 470.4C368.127 470.392 368.079 470.392 368.031 470.392Z" fill="#6495ED"/>
</svg>
