<svg width="512" height="512" viewBox="0 0 512 512" fill="none" xmlns="http://www.w3.org/2000/svg">
<g clip-path="url(#clip0)">
<path d="M269.711 428.5C275.234 428.5 279.711 424.023 279.711 418.5C279.711 412.977 275.234 408.5 269.711 408.5C264.188 408.5 259.711 412.977 259.711 418.5C259.711 424.023 264.188 428.5 269.711 428.5Z" fill="#6495ED"/>
<path d="M508.069 114.04C505.549 108.08 501.95 102.74 497.349 98.15C492.759 93.55 487.419 89.95 481.459 87.43C475.299 84.82 468.749 83.5 461.999 83.5H50C43.25 83.5 36.7 84.82 30.54 87.43C24.58 89.95 19.24 93.55 14.65 98.14C10.05 102.74 6.45 108.08 3.93 114.04C1.32 120.2 0 126.75 0 133.5V378.5C0 385.25 1.32 391.8 3.93 397.96C6.45 403.92 10.05 409.26 14.65 413.85C19.24 418.45 24.58 422.05 30.54 424.57C36.7 427.18 43.25 428.5 50 428.5H224.71C230.23 428.5 234.71 424.01 234.71 418.5C234.71 412.99 230.23 408.5 224.71 408.5H50C33.49 408.47 20.03 395.01 20 378.5V143.5H492V378.5C491.97 395.01 478.51 408.47 462 408.5H314.71C309.2 408.5 304.71 412.99 304.71 418.5C304.71 424.01 309.2 428.5 314.71 428.5H462C468.75 428.5 475.3 427.18 481.46 424.57C487.42 422.05 492.76 418.45 497.35 413.85C501.951 409.26 505.55 403.92 508.07 397.96C510.68 391.8 512.001 385.25 512.001 378.5V133.5C512 126.75 510.68 120.2 508.069 114.04V114.04ZM50 103.5H462C475.005 103.523 486.113 111.883 490.259 123.5H21.741C25.887 111.883 36.994 103.523 50 103.5V103.5Z" fill="#6495ED"/>
<path d="M395 348C400.523 348 405 343.523 405 338C405 332.477 400.523 328 395 328C389.477 328 385 332.477 385 338C385 343.523 389.477 348 395 348Z" fill="#6495ED"/>
<path d="M350 348C355.523 348 360 343.523 360 338C360 332.477 355.523 328 350 328C344.477 328 340 332.477 340 338C340 343.523 344.477 348 350 348Z" fill="#6495ED"/>
<path d="M260 348C265.523 348 270 343.523 270 338C270 332.477 265.523 328 260 328C254.477 328 250 332.477 250 338C250 343.523 254.477 348 260 348Z" fill="#6495ED"/>
<path d="M305 348C310.523 348 315 343.523 315 338C315 332.477 310.523 328 305 328C299.477 328 295 332.477 295 338C295 343.523 299.477 348 305 348Z" fill="#6495ED"/>
<path d="M260 292H328C333.51 292 338 287.51 338 282C338 276.49 333.51 272 328 272H260C254.49 272 250 276.49 250 282C250 287.51 254.49 292 260 292Z" fill="#6495ED"/>
<path d="M260 252H395C400.51 252 405 247.51 405 242C405 236.49 400.51 232 395 232H260C254.49 232 250 236.49 250 242C250 247.51 254.49 252 260 252Z" fill="#6495ED"/>
<path d="M260 212H395C400.51 212 405 207.51 405 202C405 196.49 400.51 192 395 192H260C254.49 192 250 196.49 250 202C250 207.51 254.49 212 260 212Z" fill="#6495ED"/>
<path d="M55 331C55 336.523 59.477 341 65 341H185C190.523 341 195 336.523 195 331C195 303.614 179.183 279.865 156.212 268.37C164.703 260.18 170 248.7 170 236C170 211.187 149.813 191 125 191C100.187 191 80 211.187 80 236C80 248.7 85.297 260.18 93.788 268.37C70.817 279.865 55 303.614 55 331ZM100 236C100 222.215 111.215 211 125 211C138.785 211 150 222.215 150 236C150 249.785 138.785 261 125 261C111.215 261 100 249.785 100 236ZM125 281C149.146 281 169.349 298.206 173.996 321H76.004C80.651 298.206 100.854 281 125 281Z" fill="#6495ED"/>
</g>
<defs>
<clipPath id="clip0">
<rect width="512" height="512" fill="white"/>
</clipPath>
</defs>
</svg>
