<svg id="Capa_1" enable-background="new 0 0 448.941 448.941" height="512" viewBox="0 0 448.941 448.941" width="512" xmlns="http://www.w3.org/2000/svg"><path d="m322.019 392.823c-62.154 0-116.412-33.94-145.576-84.176h146.233v-56.118h-166.476c-1.545-9.147-2.535-18.48-2.535-28.059 0-9.578.99-18.912 2.535-28.059h166.476v-56.118h-146.233c29.163-50.237 83.421-84.176 145.576-84.176 20.606 0 41.019 3.864 60.666 11.481l10.138-52.336c-26.14-10.124-43.239-15.262-70.804-15.262-93.996 0-174.561 58.138-207.944 140.294h-57.957v56.118h43.38c-1.156 9.214-1.949 18.537-1.949 28.059s.793 18.845 1.949 28.059h-43.38v56.118h57.957c33.383 82.156 113.948 140.294 207.944 140.294 27.566 0 44.664-5.138 70.805-15.262l-10.138-52.336c-19.648 7.616-40.061 11.48-60.667 11.479z"/></svg>