<svg width="474" height="474" viewBox="0 0 474 474" fill="none" xmlns="http://www.w3.org/2000/svg">
<g clip-path="url(#clip0)">
<path d="M245.643 84.5308H84.6426V185.531H245.643V84.5308Z" fill="#6495ED"/>
<path d="M342.644 292.074C342.644 292.177 342.644 292.281 342.643 292.384V320.05C342.643 348.217 365.476 371.05 393.643 371.05C421.81 371.05 444.643 348.217 444.643 320.05V161.88C444.682 145.959 438.705 130.61 427.909 118.908L349.687 29.7549L337.65 40.3049L400.782 112.281C379.729 113.736 363.843 131.983 365.298 153.035C366.684 173.082 383.36 188.629 403.454 188.61C412.714 188.568 421.652 185.205 428.643 179.131V320.05C428.643 339.38 412.973 355.05 393.643 355.05C374.313 355.05 358.643 339.38 358.643 320.05V292.384C358.749 267.719 338.84 247.637 314.174 247.531C314.083 247.531 313.992 247.531 313.901 247.531H287.643V263.531H313.901C329.72 263.476 342.589 276.255 342.644 292.074ZM425.634 150.395C425.62 162.658 415.681 172.596 403.418 172.61C391.148 172.61 381.202 162.664 381.202 150.394C381.202 138.124 391.148 128.178 403.418 128.178C415.688 128.178 425.634 138.124 425.634 150.394V150.395Z" fill="#6495ED"/>
<path d="M465.286 427.531H279.643V59.0428C279.717 46.1628 269.359 35.6488 256.479 35.5308H70.643C57.784 35.5308 47.643 46.1828 47.643 59.0428V427.531H8C3.582 427.531 0 431.113 0 435.531C0 439.949 3.582 443.531 8 443.531H465.286C469.704 443.531 473.286 439.949 473.286 435.531C473.286 431.113 469.704 427.531 465.286 427.531ZM261.643 193.531C261.643 197.949 258.061 201.531 253.643 201.531H76.643C72.225 201.531 68.643 197.949 68.643 193.531V76.5308C68.643 72.1128 72.225 68.5308 76.643 68.5308H253.643C258.061 68.5308 261.643 72.1128 261.643 76.5308V193.531Z" fill="#6495ED"/>
</g>
<defs>
<clipPath id="clip0">
<rect width="473.286" height="473.286" fill="white"/>
</clipPath>
</defs>
</svg>
