<svg width="512" height="512" viewBox="0 0 512 512" fill="none" xmlns="http://www.w3.org/2000/svg">
<path d="M437.02 74.98C388.667 26.629 324.38 0 256 0C187.62 0 123.333 26.629 74.98 74.98C26.628 123.332 0 187.62 0 256C0 324.38 26.629 388.667 74.98 437.02C123.332 485.372 187.62 512 256 512C324.38 512 388.667 485.371 437.02 437.02C485.372 388.668 512 324.38 512 256C512 187.62 485.371 123.333 437.02 74.98ZM256 482.462C131.129 482.462 29.538 380.871 29.538 256C29.538 131.129 131.129 29.538 256 29.538C380.871 29.538 482.462 131.129 482.462 256C482.462 380.871 380.871 482.462 256 482.462Z" fill="#6495ED"/>
<path d="M392.913 121.54C392.558 121.09 392.18 120.651 391.765 120.235C391.349 119.819 390.91 119.442 390.46 119.087C355.796 85.038 308.312 64 256 64C203.687 64 156.203 85.039 121.539 119.088C121.089 119.443 120.651 119.821 120.235 120.235C119.819 120.65 119.442 121.09 119.087 121.54C85.038 156.204 64 203.688 64 256C64 307.286 83.971 355.5 120.235 391.764C120.235 391.764 120.235 391.764 120.235 391.765C120.235 391.766 120.236 391.766 120.236 391.767C123.12 394.651 126.9 396.092 130.679 396.092C134.458 396.092 138.239 394.65 141.122 391.766C141.133 391.755 141.143 391.742 141.153 391.731L189.855 343.029C195.623 337.261 195.623 327.91 189.855 322.142C184.088 316.374 174.736 316.374 168.968 322.142L131.149 359.961C109.946 334.585 97.156 303.708 94.206 270.77H147.691C155.848 270.77 162.46 264.157 162.46 256.001C162.46 247.845 155.847 241.232 147.691 241.232H94.217C97.271 207.509 110.667 176.728 131.21 152.098L168.972 189.86C171.856 192.744 175.636 194.186 179.415 194.186C183.194 194.186 186.975 192.743 189.858 189.86C195.626 184.093 195.626 174.741 189.858 168.973L152.096 131.211C176.727 110.668 207.508 97.272 241.231 94.218V147.693C241.231 155.85 247.844 162.462 256 162.462C264.156 162.462 270.769 155.849 270.769 147.693V94.217C304.492 97.271 335.273 110.667 359.903 131.21L322.141 168.972C316.373 174.74 316.373 184.091 322.141 189.859C325.025 192.743 328.805 194.185 332.584 194.185C336.363 194.185 340.144 192.744 343.027 189.859L380.789 152.097C401.332 176.727 414.728 207.508 417.782 241.231H364.308C356.151 241.231 349.539 247.844 349.539 256C349.539 264.156 356.152 270.769 364.308 270.769H417.793C414.844 303.707 402.054 334.585 380.848 359.961L343.029 322.141C337.262 316.374 327.91 316.373 322.142 322.141C316.374 327.908 316.374 337.26 322.142 343.028L370.877 391.764C371.237 392.124 371.612 392.462 371.999 392.778C377.799 397.51 386.358 397.171 391.764 391.764C428.029 355.5 448 307.285 448 256C448 203.688 426.962 156.204 392.913 121.54Z" fill="#6495ED"/>
<path d="M293.79 302.792L270.44 193.828C268.982 187.018 262.964 182.153 256 182.153C249.036 182.153 243.018 187.018 241.559 193.828L218.21 302.791C215.752 314.258 218.571 326.066 225.944 335.186C233.318 344.307 244.273 349.538 256 349.538C267.728 349.538 278.683 344.307 286.055 335.186C293.427 326.065 296.248 314.259 293.79 302.792ZM263.084 316.617C262.062 317.88 259.785 320 256 320C252.215 320 249.937 317.881 248.916 316.617C247.895 315.353 246.299 312.682 247.092 308.981L256 267.412L264.908 308.981C265.701 312.682 264.106 315.354 263.084 316.617Z" fill="#6495ED"/>
<path d="M255.999 359.385C231.568 359.385 211.691 379.261 211.691 403.693C211.691 428.124 231.568 448 255.999 448C280.43 448 300.307 428.124 300.307 403.692C300.307 379.261 280.43 359.385 255.999 359.385ZM255.999 418.462C247.855 418.462 241.23 411.837 241.23 403.693C241.23 395.549 247.855 388.924 255.999 388.924C264.143 388.924 270.768 395.549 270.768 403.693C270.768 411.837 264.143 418.462 255.999 418.462Z" fill="#6495ED"/>
</svg>
