<svg width="414" height="414" viewBox="0 0 414 414" fill="none" xmlns="http://www.w3.org/2000/svg">
<g clip-path="url(#clip0)">
<path d="M206.549 0C123.949 0 57.249 66.7 57.249 149.3C57.249 178.1 66.449 205.6 79.249 228.199L176.549 396.598C182.649 407.598 194.949 413.098 206.549 413.098C218.15 413.098 229.849 407.598 236.549 396.598L333.849 228.299C346.749 205.698 355.849 178.698 355.849 149.398C355.849 66.8 289.149 0 206.549 0ZM206.549 193.4C176.549 193.4 152.049 168.9 152.049 138.9C152.049 108.9 176.549 84.4 206.549 84.4C236.549 84.4 261.049 108.9 261.049 138.9C261.049 169 236.549 193.4 206.549 193.4Z" fill="#758493"/>
</g>
<defs>
<clipPath id="clip0">
<rect width="413.099" height="413.099" fill="white"/>
</clipPath>
</defs>
</svg>
