<?xml version="1.0" encoding="iso-8859-1"?>
<!-- Generator: Adobe Illustrator 17.1.0, SVG Export Plug-In . SVG Version: 6.00 Build 0)  -->
<!DOCTYPE svg PUBLIC "-//W3C//DTD SVG 1.1//EN" "http://www.w3.org/Graphics/SVG/1.1/DTD/svg11.dtd">
<svg version="1.1" id="Capa_1" xmlns="http://www.w3.org/2000/svg" xmlns:xlink="http://www.w3.org/1999/xlink" x="0px" y="0px"
	 viewBox="0 0 250.993 250.993" style="enable-background:new 0 0 250.993 250.993;" xml:space="preserve">
<path d="M242.697,69.229c-0.878,0-1.778,0.126-2.677,0.373l-10.171,2.802l-10.563-25.729c-2.993-7.289-11.837-13.219-19.717-13.219
	h-98.851c-7.879,0-16.724,5.93-19.717,13.219L70.454,72.369L60.41,69.602c-0.899-0.248-1.799-0.373-2.677-0.373
	c-4.807,0-8.296,3.672-8.296,8.733v5.996c0,0.262,0.021,0.518,0.039,0.775c-2.324,1.732-4.54,3.643-6.627,5.73
	c-11.249,11.249-17.444,26.204-17.444,42.112c0,12.896,4.073,25.167,11.608,35.343L2.611,202.322c-3.481,3.48-3.481,9.124,0,12.605
	c1.74,1.741,4.021,2.611,6.302,2.611c2.281,0,4.562-0.87,6.302-2.611l34.404-34.404c10.177,7.536,22.447,11.609,35.343,11.609
	c15.908,0,30.864-6.195,42.112-17.444c3.629-3.629,6.724-7.648,9.262-11.956h73.987v12.765c0,5.906,4.805,10.711,10.711,10.711
	h13.989c5.906,0,10.711-4.805,10.711-10.711V124.38c0-7.32-2.262-18.786-5.042-25.558l-1.705-4.153h1.292
	c5.906,0,10.711-4.805,10.711-10.712v-5.996C250.993,72.901,247.504,69.229,242.697,69.229z M94.112,49.933
	c1.79-4.36,7.11-7.927,11.824-7.927h88.418c4.713,0,10.034,3.567,11.824,7.927l15.977,38.919c1.79,4.36-0.602,7.927-5.315,7.927
	h-84.277c-1.669-2.21-3.495-4.324-5.487-6.316c-11.249-11.249-26.204-17.444-42.112-17.444c-0.111,0-0.22,0.007-0.331,0.008
	L94.112,49.933z M84.962,174.305c-11.146,0-21.626-4.341-29.508-12.223c-7.882-7.881-12.222-18.36-12.222-29.507
	s4.341-21.626,12.222-29.508c7.882-7.881,18.361-12.222,29.508-12.222s21.626,4.341,29.508,12.222
	c7.882,7.882,12.222,18.361,12.222,29.507c0,11.147-4.34,21.626-12.222,29.508C106.588,169.964,96.109,174.305,84.962,174.305z
	 M225.12,138.079c0,2.357-1.928,4.285-4.285,4.285h-30.351c-2.356,0-4.285-1.928-4.285-4.285v-14.566
	c0-2.356,1.928-4.285,4.285-4.285h30.351c2.357,0,4.285,1.928,4.285,4.285V138.079z"/>
<g>
</g>
<g>
</g>
<g>
</g>
<g>
</g>
<g>
</g>
<g>
</g>
<g>
</g>
<g>
</g>
<g>
</g>
<g>
</g>
<g>
</g>
<g>
</g>
<g>
</g>
<g>
</g>
<g>
</g>
</svg>
