<svg width="464" height="464" viewBox="0 0 464 464" fill="none" xmlns="http://www.w3.org/2000/svg">
<g clip-path="url(#clip0)">
<path d="M418.193 245.165L333.941 267.729L301.465 248.995V213.839L333.57 195.403L418.191 218.077C419.892 218.531 421.601 218.755 423.295 218.755C431.987 218.755 439.941 212.95 442.29 204.157C445.105 193.649 438.875 182.85 428.368 180.038L381.977 167.608L424.743 143.055C434.169 137.641 437.431 125.606 432.016 116.176C426.583 106.746 414.572 103.479 405.142 108.906L362.288 133.517L374.715 87.11C377.527 76.605 371.306 65.804 360.794 62.992C350.352 60.253 339.509 66.414 336.693 76.912L314.113 161.168L281.807 179.721L251.182 162.014V124.86L313.113 62.93C320.801 55.238 320.801 42.779 313.113 35.086C305.423 27.395 292.967 27.395 285.271 35.086L251.182 69.174V19.688C251.183 8.816 242.365 0 231.492 0C220.621 0 211.804 8.815 211.804 19.688V68.93L177.963 35.086C170.272 27.395 157.813 27.395 150.12 35.086C142.429 42.778 142.429 55.237 150.12 62.93L211.804 124.613V162.157L181.411 179.691L149.105 161.155L126.541 76.913C123.73 66.415 112.938 60.237 102.441 62.993C91.9354 65.805 85.7004 76.606 88.5154 87.111L100.941 133.51L58.0894 108.906C48.6424 103.478 36.6174 106.738 31.2114 116.181C25.8004 125.613 29.0634 137.64 38.4924 143.054L81.2544 167.607L34.8624 180.037C24.3554 182.849 18.1224 193.648 20.9364 204.156C23.2914 212.949 31.2434 218.754 39.9364 218.754C41.6294 218.754 43.3394 218.53 45.0454 218.076L129.677 195.394L161.746 213.806L161.779 248.994L129.293 267.762L45.0454 245.164C34.6124 242.426 23.7544 248.594 20.9364 259.088C18.1224 269.592 24.3554 280.394 34.8624 283.191L81.0844 295.588L38.4434 320.204C29.0304 325.645 25.8004 337.676 31.2444 347.09C34.8914 353.426 41.5074 356.934 48.3044 356.934C51.6414 356.934 55.0284 356.104 58.1314 354.288L100.988 329.556L88.5154 376.133C85.7004 386.655 91.9354 397.423 102.441 400.252C104.142 400.713 105.851 400.931 107.545 400.931C116.234 400.931 124.186 395.117 126.541 386.318L149.217 301.713L181.469 283.104L211.804 300.608V338.633L150.12 400.318C142.429 408.008 142.429 420.465 150.12 428.16C153.966 432.006 158.995 433.912 164.041 433.912C169.07 433.912 174.117 432.006 177.963 428.16L211.804 394.318V443.543C211.804 454.435 220.621 463.232 231.492 463.232C242.365 463.232 251.183 454.433 251.183 443.543V394.072L285.272 428.16C289.117 432.006 294.146 433.912 299.193 433.912C304.24 433.912 309.269 432.006 313.114 428.16C320.802 420.467 320.802 408.01 313.114 400.318L251.183 338.387V300.76L281.778 283.102L314.021 301.711L336.697 386.316C339.049 395.115 347.001 400.929 355.689 400.929C357.377 400.929 359.091 400.711 360.796 400.25C371.308 397.421 377.528 386.653 374.717 376.131L362.23 329.554L405.103 354.286C408.207 356.1 411.593 356.932 414.931 356.932C421.728 356.932 428.342 353.424 431.99 347.088C437.433 337.674 434.205 325.645 424.791 320.202L382.15 295.59L428.371 283.192C438.878 280.395 445.108 269.592 442.293 259.09C439.495 248.594 428.682 242.413 418.193 245.165ZM262.087 248.995L231.615 266.594L201.165 248.994L201.131 213.775L231.615 196.188L262.087 213.801V248.995Z" fill="#6495ED"/>
</g>
<defs>
<clipPath id="clip0">
<rect width="463.229" height="463.229" fill="white"/>
</clipPath>
</defs>
</svg>
