<?xml version="1.0" encoding="iso-8859-1"?>
<!-- Generator: Adobe Illustrator 19.0.0, SVG Export Plug-In . SVG Version: 6.00 Build 0)  -->
<svg version="1.1" id="Layer_1" xmlns="http://www.w3.org/2000/svg" xmlns:xlink="http://www.w3.org/1999/xlink" x="0px" y="0px"
	 viewBox="0 0 330 330" style="enable-background:new 0 0 330 330;" xml:space="preserve">
<path id="XMLID_441_" d="M260.002,150c-8.284,0-15,6.716-15,15c0,69.369-52.595,126.676-119.999,134.162V152.477l69.743-23.247
	c7.859-2.62,12.106-11.115,9.487-18.974c-2.62-7.859-11.117-12.106-18.974-9.487l-60.256,20.086V92.479l69.743-23.247
	c7.859-2.62,12.106-11.115,9.487-18.974c-2.62-7.859-11.117-12.106-18.974-9.487l-60.256,20.085V15c0-8.284-6.716-15-15-15
	s-15,6.716-15,15v55.855L65.258,80.77c-7.859,2.62-12.106,11.115-9.487,18.974c2.096,6.286,7.948,10.26,14.229,10.26
	c1.572,0,3.172-0.249,4.746-0.773l20.257-6.753v28.376l-29.744,9.914c-7.859,2.62-12.106,11.115-9.487,18.974
	c2.096,6.286,7.948,10.26,14.229,10.26c1.572,0,3.172-0.249,4.746-0.773l20.257-6.753V315c0,8.284,6.716,15,15,15
	c90.981,0,165-74.019,165-165C275.002,156.716,268.286,150,260.002,150z"/>
<g>
</g>
<g>
</g>
<g>
</g>
<g>
</g>
<g>
</g>
<g>
</g>
<g>
</g>
<g>
</g>
<g>
</g>
<g>
</g>
<g>
</g>
<g>
</g>
<g>
</g>
<g>
</g>
<g>
</g>
</svg>
