<?xml version="1.0" encoding="UTF-8"?> <svg xmlns="http://www.w3.org/2000/svg" viewBox="0 0 414.51 126.78"> <defs> <style>.cls-1{fill:#ff6464;}.cls-2{fill:#fff;}</style> </defs> <title>Мини-сериалы</title> <g id="Слой_2" data-name="Слой 2"> <g id="Слой_12" data-name="Слой 12"> <path class="cls-1" d="M300.15,126.78a218.37,218.37,0,0,1-33.81-2.61c-38.09-6-65.5-20.47-89.69-33.26-25.24-13.34-43.48-23-69.1-21.67-21.83,1.11-44,10.07-65.83,26.61L0,40.75C33.1,15.68,68.1,2,104,.21,148.66-2.08,180.69,14.86,209,29.81c21.3,11.25,41.41,21.88,68.1,26.07,33.29,5.23,69.83-1.16,108.59-19l28.87,62.8C375.32,117.72,337,126.78,300.15,126.78Z"></path> <path class="cls-2" d="M52.82,63.13,45.2,66.38l-11-25.64,7.8-3.33,9.5,6.73,1.74-11.53,7.77-3.31L72,54.93l-7.55,3.22L58.33,43.8l-1,7.66-4.25,1.81-6.38-4.5Z"></path> <path class="cls-2" d="M81.93,52.79l-7.16,1.38L69.52,26.79l8.13-1.56,2.61,13.61L88.21,23.2l6.92-1.33,5.26,27.38L92.33,50.8,89.74,37.3Z"></path> <path class="cls-2" d="M111.73,49.3l-8.56-.3,1-27.87,8.56.3-.33,9.43,8.52.3.33-9.44,8.56.3-1,27.86-8.56-.29.38-11-8.52-.29Z"></path> <path class="cls-2" d="M138.53,52.29l-7-2L139,23.48l8,2.24-3.74,13.34,14.1-10.44,6.78,1.9-7.52,26.84-7.9-2.21,3.71-13.23Z"></path> <path class="cls-2" d="M175.63,57.8l-12.25-5.49,3-6.65,12.25,5.49Z"></path> <path class="cls-2" d="M181.59,65.53a13.43,13.43,0,0,1,.84-11.38A13.41,13.41,0,0,1,191.26,47a16.41,16.41,0,0,1,12,1.69,15.55,15.55,0,0,1,5.56,4.58L205,60.43a14,14,0,0,0-5.18-4.79,7.33,7.33,0,0,0-5.56-.71,6.64,6.64,0,0,0-4.44,8.64,8.07,8.07,0,0,0,4,4.21,11.64,11.64,0,0,0,7,1.44l-3.8,7.27a18.67,18.67,0,0,1-15.49-11Z"></path> <path class="cls-2" d="M219.74,89.1,200,79.24l12.43-24.95L232,64l-3.29,6.59-11.9-5.93-1.1,2.21L225,71.56l-3,6.06L212.65,73l-1.74,3.49,12.12,6Z"></path> <path class="cls-2" d="M234.1,65.09l12,4.52a11.1,11.1,0,0,1,6.26,5.08,8.79,8.79,0,0,1-4.61,12.23,11,11,0,0,1-8.05-.31l-4-1.5-3.43,9.1-8-3Zm3.8,14.2,2.91,1.1c1.64.62,3.12.07,3.64-1.31s-.29-2.75-1.89-3.35l-2.91-1.1Z"></path> <path class="cls-2" d="M258.51,102.44,251.36,101l5.43-27.35,8.12,1.62-2.7,13.59,13.25-11.5,6.91,1.37L277,106.09l-8.05-1.59L271.57,91Z"></path> <path class="cls-2" d="M291.15,107l-8.84-.1L294.09,79l8.17.09,11.2,28.17-9.21-.11-1.93-5.23-9.08-.11Zm6.78-18.17-2.15,6.59,4.1,0Z"></path> <path class="cls-2" d="M315.14,99a5,5,0,0,0,2,.21,3.29,3.29,0,0,0,2.07-.93c.82-1,1-4.08.09-10.66L318,78.42,339.69,75,344,102.53l-8.42,1.32-3.2-20.25-5.62.88.48,3.31q1.47,10.11-.61,14.29c-1.33,2.79-3.35,4-6.38,4.52a8,8,0,0,1-4-.1Z"></path> <path class="cls-2" d="M350.87,101.13,342.33,74.6,350.48,72l2.46,7.66,2.92-.94a12.14,12.14,0,0,1,8.83.13,9.6,9.6,0,0,1,4.4,13.55,12.27,12.27,0,0,1-7.15,5.19ZM355,86l1.85,5.72,2.38-.77c2-.63,3-2.21,2.44-3.88s-2.31-2.48-4.28-1.84Zm28.36,4.67-8.11,2.61L366.7,66.75l8.11-2.62Z"></path> </g> </g> </svg> 