<svg width="12" height="12" viewBox="0 0 12 12" fill="none" xmlns="http://www.w3.org/2000/svg">
<path d="M0 1.19517V8.30321C0 8.37376 0.00729779 8.43457 0.0267586 8.48809C0.0462193 8.54161 0.0778431 8.58539 0.12163 8.61702C0.165417 8.64864 0.204338 8.67783 0.235962 8.69729C0.267586 8.71675 0.323535 8.73135 0.398946 8.73865C0.474356 8.74595 0.527874 8.75081 0.554632 8.75324C0.583823 8.75568 0.642206 8.75568 0.732212 8.75324C0.822218 8.75081 0.873302 8.75081 0.887898 8.75081C0.887898 9.2422 1.06061 9.6606 1.40847 10.0085C1.75634 10.3563 2.17474 10.529 2.66613 10.529C3.15751 10.529 3.57592 10.3563 3.92378 10.0085C4.27164 9.6606 4.44435 9.2422 4.44435 8.75081H7.11048C7.11048 9.2422 7.2832 9.6606 7.63106 10.0085C7.97892 10.3563 8.39732 10.529 8.88871 10.529C9.38009 10.529 9.7985 10.3563 10.1464 10.0085C10.4942 9.6606 10.6669 9.2422 10.6669 8.75081H11.1121C11.1243 8.75081 11.1778 8.75081 11.2678 8.75324C11.3578 8.75568 11.4186 8.75568 11.4454 8.75324C11.4721 8.75081 11.5256 8.74595 11.6011 8.73865C11.6765 8.73135 11.7324 8.71919 11.764 8.69729C11.7957 8.6754 11.8346 8.64864 11.8784 8.61702C11.9246 8.58296 11.9538 8.54161 11.9732 8.48809C11.9903 8.43457 12 8.37376 12 8.30321C12 8.18402 11.9562 8.07941 11.8686 7.99184C11.7811 7.90427 11.6765 7.86048 11.5573 7.86048V5.63952C11.5573 5.60303 11.5573 5.52032 11.5597 5.39626C11.5621 5.26976 11.5621 5.18219 11.5597 5.13111C11.5573 5.08002 11.5524 4.99975 11.5427 4.89028C11.5329 4.78081 11.5183 4.69567 11.4965 4.63242C11.4746 4.56918 11.4429 4.49863 11.3991 4.42079C11.3554 4.34051 11.3043 4.2724 11.2435 4.21159L9.86905 2.83717C9.78147 2.74959 9.66471 2.67662 9.51875 2.6158C9.3728 2.55499 9.23657 2.5258 9.11251 2.5258H8.00081V1.19273C8.00081 1.07354 7.95702 0.968934 7.86945 0.88136C7.78188 0.793787 7.67728 0.75 7.55808 0.75H0.445165C0.325968 0.75 0.221366 0.793787 0.133793 0.88136C0.0462193 0.968934 0 1.07354 0 1.19517ZM8.00081 8.75081C8.00081 8.50998 8.09082 8.30078 8.26596 8.12563C8.44111 7.95049 8.65031 7.86291 8.89114 7.86291C9.13197 7.86291 9.34117 7.95049 9.51632 8.12563C9.69147 8.30078 9.77904 8.50998 9.77904 8.75081C9.77904 8.99164 9.69147 9.20084 9.51632 9.37599C9.34117 9.55357 9.13197 9.64114 8.89114 9.64114C8.65031 9.64114 8.44111 9.55114 8.26596 9.37599C8.09082 9.20084 8.00324 8.99164 8.00081 8.75081ZM8.00081 5.19435V3.41369H9.09791C9.15873 3.41369 9.20981 3.43559 9.25117 3.47694L10.6061 4.8319C10.6475 4.87325 10.6694 4.92434 10.6694 4.98515V5.19435H8.00324H8.00081ZM1.77823 8.75081C1.77823 8.50998 1.86823 8.30078 2.04338 8.12563C2.21853 7.95049 2.42773 7.86291 2.66856 7.86291C2.90939 7.86291 3.11859 7.95049 3.29374 8.12563C3.46888 8.30078 3.55646 8.50998 3.55646 8.75081C3.55646 8.99164 3.46888 9.20084 3.29374 9.37599C3.11859 9.55357 2.90939 9.64114 2.66856 9.64114C2.42773 9.64114 2.21853 9.55114 2.04338 9.37599C1.86823 9.20084 1.77823 8.99164 1.77823 8.75081Z" fill="#50CE1B"/>
</svg>
