<svg width="167" height="21" viewBox="0 0 167 21" fill="none" xmlns="http://www.w3.org/2000/svg">
<path d="M25.23 18.31V0.999964H19.39V15.18C19.39 15.2701 19.3721 15.3593 19.3373 15.4425C19.3025 15.5257 19.2515 15.6011 19.1873 15.6644C19.1231 15.7276 19.0469 15.7775 18.9633 15.8111C18.8796 15.8447 18.7901 15.8613 18.7 15.8599C18.572 15.8584 18.4468 15.8223 18.3376 15.7554C18.2285 15.6885 18.1395 15.5933 18.08 15.4799L12.16 3.47994C11.7908 2.73625 11.22 2.11131 10.5128 1.67636C9.80551 1.2414 8.99024 1.01394 8.15997 1.01995H2.20996C1.62383 1.01995 1.06173 1.25281 0.647278 1.66726C0.232822 2.08172 0 2.64382 0 3.22994V20.55H5.83997V6.44995C5.83983 6.27865 5.89759 6.11233 6.00385 5.97796C6.1101 5.84359 6.25864 5.74907 6.42535 5.70971C6.59207 5.67035 6.76717 5.68845 6.9223 5.7611C7.07743 5.83375 7.20347 5.95668 7.27997 6.10995L13.18 18.06C13.5487 18.8048 14.1191 19.4311 14.8262 19.8678C15.5334 20.3045 16.3489 20.5339 17.18 20.53H23.02C23.311 20.53 23.5993 20.4725 23.868 20.3608C24.1368 20.2491 24.3809 20.0854 24.5862 19.8791C24.7916 19.6729 24.9542 19.428 25.0646 19.1587C25.1751 18.8895 25.2313 18.601 25.23 18.31ZM43.47 11.81H36.7L39.37 6.15997C39.4321 6.02273 39.5317 5.9058 39.6573 5.82266C39.7829 5.73951 39.9294 5.69352 40.08 5.68997C40.2312 5.69108 40.3787 5.7361 40.5048 5.81954C40.6308 5.90298 40.7299 6.02125 40.79 6.15997L43.47 11.81ZM47.6 20.53H54.18L45.87 3.38995C45.5546 2.6878 45.0456 2.09009 44.4027 1.6668C43.7598 1.24352 43.0096 1.0122 42.24 0.999964H38.05C37.2804 1.0122 36.5302 1.24352 35.8873 1.6668C35.2444 2.09009 34.7354 2.6878 34.42 3.38995L26.11 20.53H32.56L34.47 16.53H45.7L47.6 20.53ZM77.48 16.1V0.999964H71.64V14.3599C71.64 14.5538 71.6017 14.7458 71.5272 14.9248C71.4527 15.1038 71.3435 15.2663 71.2059 15.4029C71.0684 15.5396 70.9051 15.6477 70.7256 15.7209C70.5461 15.7942 70.3539 15.8313 70.16 15.83H61.78C61.5861 15.8313 61.3939 15.7942 61.2144 15.7209C61.0349 15.6477 60.8716 15.5396 60.7341 15.4029C60.5965 15.2663 60.4873 15.1038 60.4128 14.9248C60.3383 14.7458 60.3 14.5538 60.3 14.3599V0.999964H54.45V16.1C54.45 17.2749 54.9167 18.4017 55.7475 19.2324C56.5783 20.0632 57.7051 20.53 58.88 20.53H73.06C73.6413 20.53 74.2169 20.4153 74.7538 20.1926C75.2907 19.9698 75.7784 19.6433 76.189 19.2318C76.5995 18.8203 76.9249 18.3319 77.1464 17.7945C77.368 17.2571 77.4813 16.6813 77.48 16.1ZM106.66 20.53H112.51V3.17996C112.51 2.88889 112.453 2.60069 112.341 2.3319C112.229 2.06312 112.065 1.81905 111.859 1.6137C111.653 1.40835 111.408 1.24578 111.139 1.13531C110.87 1.02484 110.581 0.968648 110.29 0.969965H104.39C103.56 0.963954 102.744 1.19138 102.037 1.62634C101.33 2.06129 100.759 2.68627 100.39 3.42996L96.59 14.43L92.93 3.42996C92.5608 2.68627 91.99 2.06129 91.2828 1.62634C90.5755 1.19138 89.7603 0.963954 88.93 0.969965H83.03C82.4438 0.969965 81.8817 1.20279 81.4673 1.61724C81.0528 2.0317 80.82 2.59383 80.82 3.17996V20.5H86.67V6.36996C86.67 6.18961 86.7416 6.01665 86.8691 5.88912C86.9967 5.7616 87.1696 5.68997 87.35 5.68997C87.4745 5.6898 87.5966 5.72431 87.7026 5.78967C87.8086 5.85502 87.8943 5.94863 87.95 6.05996L92.95 19.32C93.1379 19.6877 93.4245 19.9957 93.7778 20.2095C94.1311 20.4233 94.5371 20.5342 94.95 20.53H98.36C98.775 20.5324 99.1824 20.4184 99.5359 20.201C99.8894 19.9836 100.175 19.6714 100.36 19.3L105.36 6.06997C105.416 5.95598 105.503 5.85994 105.611 5.79278C105.718 5.72562 105.843 5.69001 105.97 5.68997C106.15 5.69255 106.321 5.76502 106.448 5.89199C106.575 6.01896 106.647 6.19042 106.65 6.36996L106.66 20.53ZM118.21 20.53H137.21V15.83H121.84V13.18H135.48V8.47994H121.84V5.68997H137.3V0.999964H118.3C118.005 0.987908 117.71 1.03517 117.434 1.13894C117.157 1.24271 116.904 1.40088 116.69 1.60412C116.475 1.80736 116.304 2.05153 116.185 2.3222C116.067 2.59286 116.004 2.88454 116 3.17996V18.28C115.999 18.571 116.055 18.8595 116.165 19.1287C116.276 19.398 116.438 19.6429 116.644 19.8491C116.849 20.0554 117.093 20.2191 117.362 20.3308C117.631 20.4425 117.919 20.5 118.21 20.5V20.53ZM166.12 18.28V0.999964H160.3V15.18C160.299 15.3357 160.246 15.4867 160.149 15.6083C160.051 15.7299 159.916 15.815 159.764 15.8497C159.612 15.8845 159.453 15.8669 159.313 15.7997C159.172 15.7326 159.058 15.6199 158.99 15.4799L153.07 3.47994C152.703 2.73476 152.132 2.10849 151.425 1.67327C150.717 1.23805 149.901 1.01158 149.07 1.01995H143.12C142.534 1.01995 141.972 1.25281 141.557 1.66726C141.143 2.08172 140.91 2.64382 140.91 3.22994V20.55H146.76V6.37997C146.76 6.19697 146.833 6.02145 146.962 5.89205C147.091 5.76265 147.267 5.68997 147.45 5.68997H147.56C147.687 5.69001 147.811 5.72562 147.919 5.79278C148.027 5.85994 148.114 5.95598 148.17 6.06997L154.09 18.07C154.46 18.814 155.03 19.4397 155.737 19.8763C156.444 20.3128 157.259 20.5427 158.09 20.5399H163.92C164.212 20.5413 164.501 20.4847 164.771 20.3737C165.041 20.2626 165.286 20.0991 165.493 19.8927C165.699 19.6863 165.863 19.441 165.974 19.1711C166.085 18.9011 166.141 18.6119 166.14 18.32" fill="#FF671B"/>
</svg>
