<svg width="27" height="28" viewBox="0 0 27 28" fill="none" xmlns="http://www.w3.org/2000/svg">
<path d="M13.7817 19.6011C17.3069 19.6011 20.1645 16.7434 20.1645 13.2183C20.1645 9.69312 17.3069 6.83545 13.7817 6.83545" stroke="#CA1118" stroke-width="2" stroke-miterlimit="10" stroke-linecap="round" stroke-linejoin="round"/>
<path d="M13.7336 3.2053V1" stroke="#CA1118" stroke-width="2" stroke-miterlimit="10" stroke-linecap="round" stroke-linejoin="round"/>
<path d="M20.8958 20.2644L22.4553 21.8245" stroke="#CA1118" stroke-width="2" stroke-miterlimit="10" stroke-linecap="round" stroke-linejoin="round"/>
<path d="M23.7944 13.1707H26.0003" stroke="#CA1118" stroke-width="2" stroke-miterlimit="10" stroke-linecap="round" stroke-linejoin="round"/>
<path d="M20.8286 6.10428L22.3876 4.54419" stroke="#CA1118" stroke-width="2" stroke-miterlimit="10" stroke-linecap="round" stroke-linejoin="round"/>
<path d="M13.7121 16.2427C12.0952 16.2427 10.7844 14.932 10.7844 13.3151C10.7844 11.6982 12.0952 10.3875 13.7121 10.3875" stroke="#CA1118" stroke-width="2" stroke-miterlimit="10" stroke-linecap="round" stroke-linejoin="round"/>
<path d="M11.5841 11.2669L4.68384 4.3667" stroke="#CA1118" stroke-width="2" stroke-miterlimit="10" stroke-linecap="round" stroke-linejoin="round"/>
<path d="M8.18712 7.86974L3.56934 7.39233" stroke="#CA1118" stroke-width="2" stroke-miterlimit="10" stroke-linecap="round" stroke-linejoin="round"/>
<path d="M8.18739 7.86972L7.70996 3.25195" stroke="#CA1118" stroke-width="2" stroke-miterlimit="10" stroke-linecap="round" stroke-linejoin="round"/>
<path d="M10.7586 13.3713H1" stroke="#CA1118" stroke-width="2" stroke-miterlimit="10" stroke-linecap="round" stroke-linejoin="round"/>
<path d="M5.95456 13.3713L2.35132 16.299" stroke="#CA1118" stroke-width="2" stroke-miterlimit="10" stroke-linecap="round" stroke-linejoin="round"/>
<path d="M5.95456 13.3715L2.35132 10.4438" stroke="#CA1118" stroke-width="2" stroke-miterlimit="10" stroke-linecap="round" stroke-linejoin="round"/>
<path d="M11.6642 15.4431L4.76343 22.3439" stroke="#CA1118" stroke-width="2" stroke-miterlimit="10" stroke-linecap="round" stroke-linejoin="round"/>
<path d="M8.26706 18.8406L7.78906 23.4584" stroke="#CA1118" stroke-width="2" stroke-miterlimit="10" stroke-linecap="round" stroke-linejoin="round"/>
<path d="M8.26728 18.8406L3.64893 19.3186" stroke="#CA1118" stroke-width="2" stroke-miterlimit="10" stroke-linecap="round" stroke-linejoin="round"/>
<path d="M13.7688 16.2686V26.0271" stroke="#CA1118" stroke-width="2" stroke-miterlimit="10" stroke-linecap="round" stroke-linejoin="round"/>
<path d="M13.7688 21.0728L16.6964 24.6759" stroke="#CA1118" stroke-width="2" stroke-miterlimit="10" stroke-linecap="round" stroke-linejoin="round"/>
<path d="M13.7687 21.0728L10.8411 24.6759" stroke="#CA1118" stroke-width="2" stroke-miterlimit="10" stroke-linecap="round" stroke-linejoin="round"/>
</svg>
