<svg width="27" height="22" viewBox="0 0 27 22" fill="none" xmlns="http://www.w3.org/2000/svg">
<path d="M7.81554 5.04656C7.00622 5.04656 6.35034 4.14101 6.35034 3.02364C6.35034 1.90551 7.00622 1 7.81554 1H24.5353C25.344 1 25.9999 1.90551 25.9999 3.02364C25.9999 4.14101 25.344 5.04656 24.5353 5.04656H7.81554Z" stroke="#309B27" stroke-width="2" stroke-miterlimit="10" stroke-linecap="round" stroke-linejoin="round"/>
<path d="M7.81554 13.0231C7.00622 13.0231 6.35034 12.1176 6.35034 11.0002C6.35034 9.88287 7.00622 8.97656 7.81554 8.97656H24.5353C25.344 8.97656 25.9999 9.88287 25.9999 11.0002C25.9999 12.1176 25.344 13.0231 24.5353 13.0231H7.81554Z" stroke="#309B27" stroke-width="2" stroke-miterlimit="10" stroke-linecap="round" stroke-linejoin="round"/>
<path d="M7.81554 20.9999C7.00622 20.9999 6.35034 20.0944 6.35034 18.977C6.35034 17.8597 7.00622 16.9534 7.81554 16.9534H24.5353C25.344 16.9534 25.9999 17.8597 25.9999 18.977C25.9999 20.0944 25.344 20.9999 24.5353 20.9999H7.81554Z" stroke="#309B27" stroke-width="2" stroke-miterlimit="10" stroke-linecap="round" stroke-linejoin="round"/>
<path d="M2.46521 5.04656C1.65589 5.04656 1 4.14101 1 3.02364C1 1.90551 1.65589 1 2.46521 1H2.50286C3.31218 1 3.96807 1.90551 3.96807 3.02364C3.96807 4.14101 3.31218 5.04656 2.50286 5.04656H2.46521Z" stroke="#309B27" stroke-width="2" stroke-miterlimit="10" stroke-linecap="round" stroke-linejoin="round"/>
<path d="M2.46521 13.0231C1.65589 13.0231 1 12.1176 1 11.0002C1 9.88287 1.65589 8.97656 2.46521 8.97656H2.50286C3.31218 8.97656 3.96807 9.88287 3.96807 11.0002C3.96807 12.1176 3.31218 13.0231 2.50286 13.0231H2.46521Z" stroke="#309B27" stroke-width="2" stroke-miterlimit="10" stroke-linecap="round" stroke-linejoin="round"/>
<path d="M2.46521 20.9999C1.65589 20.9999 1 20.0944 1 18.977C1 17.8597 1.65589 16.9534 2.46521 16.9534H2.50286C3.31218 16.9534 3.96807 17.8597 3.96807 18.977C3.96807 20.0944 3.31218 20.9999 2.50286 20.9999H2.46521Z" stroke="#309B27" stroke-width="2" stroke-miterlimit="10" stroke-linecap="round" stroke-linejoin="round"/>
</svg>
