<svg width="20" height="18" viewBox="0 0 20 18" fill="none" xmlns="http://www.w3.org/2000/svg">
<path d="M10 8.59338C10.2156 8.59338 10.3906 8.41837 10.3906 8.20276C10.3906 7.98715 10.2156 7.81213 10 7.81213C9.78439 7.81213 9.60938 7.98715 9.60938 8.20276C9.60938 8.41837 9.78439 8.59338 10 8.59338Z" fill="#ED1C24"/>
<path d="M18.4375 5.46827H16.1274L12.574 0.579508C12.2548 0.0324807 11.5516 -0.162221 10.9932 0.147074C10.4271 0.461558 10.2235 1.1746 10.5382 1.74085C10.5472 1.75688 10.5571 1.77229 10.5682 1.78694L13.3554 5.46827H6.64458L9.43174 1.78694C9.44273 1.77229 9.4528 1.75688 9.4618 1.74085C9.77567 1.17597 9.57441 0.462321 9.00633 0.146769C8.44908 -0.161916 7.74595 0.0326333 7.42613 0.579203L3.87252 5.46827H1.5625C0.700987 5.46827 0 6.16926 0 7.03077C0 7.71024 0.440978 8.30183 1.06216 8.51118C1.12838 8.56244 1.21109 8.59327 1.30111 8.59327C1.31912 8.59327 1.33606 8.59434 1.35376 8.59678C1.52191 8.61936 1.65512 8.74692 1.68563 8.91385L3.01452 16.2249C3.11599 16.7824 3.60091 17.187 4.16762 17.187H15.8323C16.399 17.187 16.884 16.7824 16.9854 16.2248L18.3143 8.91401C18.3448 8.74692 18.4782 8.61936 18.647 8.59678C18.6641 8.59434 18.681 8.59327 18.6988 8.59327C18.7895 8.59327 18.8728 8.56214 18.939 8.51026C19.5607 8.29954 20 7.70902 20 7.03077C20 6.16926 19.299 5.46827 18.4375 5.46827ZM11.2105 1.34092C11.1212 1.15614 11.1905 0.93107 11.372 0.830362C11.5611 0.725535 11.7994 0.793131 11.9037 0.980967C11.9113 0.995005 11.92 1.00843 11.9293 1.02125L15.1616 5.46827H14.3351L11.2105 1.34092ZM8.07066 1.0214C8.07997 1.00858 8.08836 0.99531 8.09614 0.981577C8.20067 0.793589 8.43916 0.72584 8.62745 0.830057C8.80934 0.93107 8.87892 1.15583 8.7895 1.34092L5.66481 5.46827H4.8384L8.07066 1.0214ZM18.4375 7.81202H11.5625C11.3467 7.81202 11.1719 7.98688 11.1719 8.20264C11.1719 8.4184 11.3467 8.5893 11.5625 8.5893H17.5937C17.5732 8.64759 17.557 8.70801 17.5457 8.77027L16.2167 16.085C16.183 16.2709 16.0212 16.4058 15.8323 16.4058H4.16762C3.97857 16.4058 3.81698 16.2709 3.7831 16.0852L2.45422 8.77408C2.44293 8.71183 2.42675 8.6514 2.40631 8.59327H8.43748C8.65324 8.59327 8.82811 8.4184 8.82811 8.20264C8.82811 7.98688 8.65324 7.81202 8.43748 7.81202H1.5625C1.12808 7.81202 0.781248 7.45801 0.781248 7.03077C0.781248 6.60001 1.13174 6.24952 1.5625 6.24952H18.4375C18.8682 6.24952 19.2187 6.60001 19.2187 7.03077C19.2187 7.46458 18.8638 7.81202 18.4375 7.81202Z" fill="#ED1C24"/>
<path d="M10 9.76514C9.35379 9.76514 8.82812 10.2908 8.82812 10.937V14.062C8.82812 14.7082 9.35379 15.2339 10 15.2339C10.6462 15.2339 11.1719 14.7082 11.1719 14.062V10.937C11.1719 10.2896 10.6474 9.76514 10 9.76514ZM10.3906 14.062C10.3906 14.2775 10.2155 14.4526 10 14.4526C9.78454 14.4526 9.60937 14.2775 9.60937 14.062V10.937C9.60937 10.7216 9.78454 10.5464 10 10.5464C10.2156 10.5464 10.3906 10.7214 10.3906 10.937V14.062Z" fill="#ED1C24"/>
<path d="M13.9062 15.2339C14.5525 15.2339 15.0781 14.7082 15.0781 14.062V10.937C15.0781 10.2896 14.5537 9.76514 13.9062 9.76514C13.26 9.76514 12.7344 10.2908 12.7344 10.937V14.062C12.7344 14.7082 13.26 15.2339 13.9062 15.2339ZM13.5156 10.937C13.5156 10.7216 13.6908 10.5464 13.9062 10.5464C14.1219 10.5464 14.2969 10.7214 14.2969 10.937V14.062C14.2969 14.2775 14.1217 14.4526 13.9062 14.4526C13.6908 14.4526 13.5156 14.2775 13.5156 14.062V10.937Z" fill="#ED1C24"/>
<path d="M6.09375 9.76514C5.44754 9.76514 4.92188 10.2908 4.92188 10.937V14.062C4.92188 14.7082 5.44754 15.2339 6.09375 15.2339C6.73996 15.2339 7.26562 14.7082 7.26562 14.062V10.937C7.26562 10.2896 6.74118 9.76514 6.09375 9.76514ZM6.48437 14.062C6.48437 14.2775 6.3092 14.4526 6.09375 14.4526C5.87829 14.4526 5.70312 14.2775 5.70312 14.062V10.937C5.70312 10.7216 5.87829 10.5464 6.09375 10.5464C6.30935 10.5464 6.48437 10.7213 6.48437 10.937V14.062Z" fill="#ED1C24"/>
</svg>
