<svg xmlns="http://www.w3.org/2000/svg" fill="none">
<symbol id="thorns" viewBox="0 0 17 17" >
<path d="M9.00025 1H7.99975L4.81482 7.67364L6.81796 8.87593V11.5609L1 12.5101V13.6751C1 14.9591 7.17333 16 8.50076 16C9.82673 16 16 14.9591 16 13.6751V12.5101L10.1828 11.5609V8.87593L12.1859 7.67364L9.00025 1Z" stroke="#ED1C24" stroke-miterlimit="10" stroke-linecap="round" stroke-linejoin="round"/>
<path d="M6.99951 8.74213H9.99222" stroke="#ED1C24" stroke-miterlimit="10" stroke-linecap="round" stroke-linejoin="round"/>
<path d="M6.99951 11.561H10.6243" stroke="#ED1C24" stroke-miterlimit="10" stroke-linecap="round" stroke-linejoin="round"/>
</symbol>

<symbol id="snowflake"  viewBox="0 0 17 17">
<path d="M8.46705 3.92279L6.73975 1.79686" stroke="#ED1C24" stroke-miterlimit="10" stroke-linecap="round" stroke-linejoin="round"/>
<path d="M8.4668 3.92279L10.1941 1.79686" stroke="#ED1C24" stroke-miterlimit="10" stroke-linecap="round" stroke-linejoin="round"/>
<path d="M5.24061 5.28706L2.51611 5.00539" stroke="#ED1C24" stroke-miterlimit="10" stroke-linecap="round" stroke-linejoin="round"/>
<path d="M5.24067 5.28708L4.95898 2.56259" stroke="#ED1C24" stroke-miterlimit="10" stroke-linecap="round" stroke-linejoin="round"/>
<path d="M3.92328 8.53305L1.79736 10.2603" stroke="#ED1C24" stroke-miterlimit="10" stroke-linecap="round" stroke-linejoin="round"/>
<path d="M3.92328 8.53307L1.79736 6.80576" stroke="#ED1C24" stroke-miterlimit="10" stroke-linecap="round" stroke-linejoin="round"/>
<path d="M5.28788 11.7598L5.00586 14.4843" stroke="#ED1C24" stroke-miterlimit="10" stroke-linecap="round" stroke-linejoin="round"/>
<path d="M5.28782 11.7598L2.56299 12.0418" stroke="#ED1C24" stroke-miterlimit="10" stroke-linecap="round" stroke-linejoin="round"/>
<path d="M8.53369 13.0769L10.261 15.2027" stroke="#ED1C24" stroke-miterlimit="10" stroke-linecap="round" stroke-linejoin="round"/>
<path d="M8.53347 13.0769L6.80615 15.2027" stroke="#ED1C24" stroke-miterlimit="10" stroke-linecap="round" stroke-linejoin="round"/>
<path d="M11.7603 11.7126L14.4848 11.995" stroke="#ED1C24" stroke-miterlimit="10" stroke-linecap="round" stroke-linejoin="round"/>
<path d="M11.7603 11.7126L12.0419 14.4378" stroke="#ED1C24" stroke-miterlimit="10" stroke-linecap="round" stroke-linejoin="round"/>
<path d="M13.0771 8.46665L15.2031 6.73933" stroke="#ED1C24" stroke-miterlimit="10" stroke-linecap="round" stroke-linejoin="round"/>
<path d="M13.0771 8.46664L15.2031 10.194" stroke="#ED1C24" stroke-miterlimit="10" stroke-linecap="round" stroke-linejoin="round"/>
<path d="M8.50026 10.2271C9.45423 10.2271 10.2276 9.45379 10.2276 8.49982C10.2276 7.54585 9.45423 6.77251 8.50026 6.77251C7.5463 6.77251 6.77295 7.54585 6.77295 8.49982C6.77295 9.45379 7.5463 10.2271 8.50026 10.2271Z" stroke="#ED1C24" stroke-miterlimit="10" stroke-linecap="round" stroke-linejoin="round"/>
<path d="M8.4668 6.75759V1" stroke="#ED1C24" stroke-miterlimit="10" stroke-linecap="round" stroke-linejoin="round"/>
<path d="M7.24448 7.2914L3.17334 3.22028" stroke="#ED1C24" stroke-miterlimit="10" stroke-linecap="round" stroke-linejoin="round"/>
<path d="M6.75759 8.53305H1" stroke="#ED1C24" stroke-miterlimit="10" stroke-linecap="round" stroke-linejoin="round"/>
<path d="M7.29168 9.75543L3.22021 13.8269" stroke="#ED1C24" stroke-miterlimit="10" stroke-linecap="round" stroke-linejoin="round"/>
<path d="M8.53369 10.2424V16" stroke="#ED1C24" stroke-miterlimit="10" stroke-linecap="round" stroke-linejoin="round"/>
<path d="M9.75586 9.70863L13.827 13.7798" stroke="#ED1C24" stroke-miterlimit="10" stroke-linecap="round" stroke-linejoin="round"/>
<path d="M10.2432 8.46664H16.0008" stroke="#ED1C24" stroke-miterlimit="10" stroke-linecap="round" stroke-linejoin="round"/>
<path d="M9.7085 7.24424L13.78 3.1731" stroke="#ED1C24" stroke-miterlimit="10" stroke-linecap="round" stroke-linejoin="round"/>
<path d="M11.7134 5.24021L11.9954 2.51538" stroke="#ED1C24" stroke-miterlimit="10" stroke-linecap="round" stroke-linejoin="round"/>
<path d="M11.7134 5.24022L14.4382 4.95821" stroke="#ED1C24" stroke-miterlimit="10" stroke-linecap="round" stroke-linejoin="round"/>
</symbol>

<symbol id="phone"  viewBox="0 0 20 19">
<path d="M19.2404 14.7283L15.3215 11.098C14.8537 10.6646 14.0927 10.6646 13.6249 11.098L12.6058 12.042C12.2865 12.3378 12.1856 12.7602 12.3022 13.1364L11.9177 13.4925C11.9176 13.4927 11.9175 13.4927 11.9174 13.4928C11.6443 13.7461 9.94381 13.3575 7.88827 11.4532C5.83304 9.54933 5.41343 7.97425 5.68647 7.72084C5.68647 7.72076 5.68655 7.72076 5.68655 7.72076L6.07139 7.36429C6.18003 7.3932 6.29214 7.40796 6.40432 7.40796C6.71155 7.40796 7.01874 7.29966 7.25268 7.083L8.27174 6.13896C8.73951 5.70562 8.73951 5.00059 8.27174 4.56721L4.35288 0.936794C4.12632 0.726909 3.82503 0.611328 3.5046 0.611328C3.18409 0.611328 2.88292 0.726982 2.65632 0.936794L1.63718 1.88091C1.31789 2.1767 1.21695 2.59908 1.33355 2.97524C1.33355 2.97524 1.00761 3.28008 0.991404 3.29933C-0.0926953 4.41566 -0.296093 6.17323 0.422616 8.27457C1.1264 10.3321 2.64359 12.5116 4.69476 14.4117C6.74585 16.3118 9.09861 17.7173 11.3196 18.3694C12.2118 18.6312 13.0464 18.761 13.8043 18.761C15.047 18.761 16.0831 18.4119 16.8258 17.7239L17.0397 17.5258C17.1467 17.5543 17.2585 17.5697 17.3729 17.5697C17.6934 17.5697 17.9947 17.454 18.2212 17.2442L19.2404 16.3001C19.7081 15.8668 19.7081 15.1617 19.2404 14.7283ZM3.5046 1.72263L7.4235 5.35309L6.40499 6.29764C6.40499 6.29764 6.40479 6.29746 6.40444 6.29713L6.38979 6.28356L4.44499 4.48192L2.4855 2.66675L3.5046 1.72263ZM15.9776 16.938C15.9775 16.9381 15.9775 16.9381 15.9774 16.9382C15.1143 17.7376 13.5889 17.8697 11.682 17.3098C9.64096 16.7107 7.46077 15.4023 5.54315 13.6258C3.62546 11.8493 2.21312 9.82967 1.56636 7.93879C0.962068 6.17225 1.10461 4.75904 1.96773 3.95942L1.96781 3.95935L2.07601 3.85911L5.11729 6.67648L4.83835 6.93489C4.83815 6.93507 4.838 6.93529 4.83776 6.93551C3.6821 8.00744 5.07069 10.4148 7.04003 12.2391C8.51401 13.6046 10.3405 14.6687 11.6514 14.6687C12.0922 14.6687 12.4747 14.5484 12.7658 14.2787C12.7659 14.2786 12.766 14.2785 12.7661 14.2784L13.0447 14.0203L16.086 16.8377L15.9776 16.938ZM17.373 16.4584L13.4541 12.8279L14.4732 11.8839L18.3921 15.5142C18.3921 15.5142 17.3734 16.4587 17.373 16.4584Z"/>
<path d="M15.188 4.69102C14.047 3.63403 12.5301 3.05197 10.9167 3.052C10.5854 3.052 10.3169 3.30079 10.3169 3.60769C10.3169 3.91459 10.5855 4.16338 10.9167 4.16338C12.2097 4.1633 13.4253 4.62983 14.3397 5.47686C15.254 6.32385 15.7575 7.44995 15.7574 8.64771C15.7574 8.95461 16.026 9.20347 16.3573 9.20347C16.6885 9.20347 16.9571 8.95468 16.9571 8.64785C16.9571 7.15318 16.3288 5.74801 15.188 4.69102Z"/>
<path d="M17.3396 2.69792C15.6239 1.10855 13.3429 0.233265 10.9167 0.233337C10.5854 0.233337 10.3169 0.482159 10.3169 0.789024C10.3169 1.09593 10.5855 1.34471 10.9167 1.34471C13.0225 1.34464 15.0022 2.10435 16.4913 3.48376C17.9803 4.86313 18.8003 6.69712 18.8003 8.64785C18.8003 8.95475 19.0688 9.20354 19.4001 9.20354C19.7313 9.20354 19.9999 8.95475 19.9999 8.64792C20 6.40028 19.0552 4.28725 17.3396 2.69792Z"/>
<path d="M13.0362 6.68398C12.4618 6.15181 11.729 5.87061 10.9169 5.87061C10.9169 5.87061 10.9167 5.87061 10.9167 5.87061C10.5854 5.87068 10.3168 6.11943 10.3169 6.42636C10.317 6.73327 10.5856 6.98205 10.9168 6.98198C10.9169 6.98198 10.9169 6.98198 10.917 6.98198C11.4109 6.98198 11.8386 7.14612 12.1881 7.46981C12.5325 7.78898 12.7146 8.19627 12.7146 8.64748C12.7145 8.95438 12.9831 9.20317 13.3143 9.20324H13.3144C13.6457 9.20324 13.9142 8.95445 13.9142 8.64763C13.9143 7.89523 13.6107 7.21622 13.0362 6.68398Z" />
</symbol>

<symbol id="geo"  viewBox="0 0 19 25">
<path d="M18.4566 23.5537L15.2025 16.8996C15.1376 16.7669 15.025 16.6651 14.8901 16.6096L13.2712 15.9129L16.0763 11.3683C16.083 11.3574 16.0893 11.3464 16.0954 11.3351C16.6531 10.2828 16.9359 9.14577 16.9359 7.95566C16.9359 5.95364 16.1237 4.07675 14.649 2.67078C13.1746 1.26514 11.2212 0.505932 9.14887 0.534081C7.13619 0.561064 5.24115 1.34255 3.81274 2.73468C2.38446 4.12671 1.59131 5.96487 1.57936 7.91069C1.57203 9.09977 1.86269 10.2839 2.41971 11.335C2.42568 11.3463 2.432 11.3574 2.4387 11.3683L5.24376 15.9129L3.61551 16.6133C3.4823 16.6706 3.3748 16.7722 3.31251 16.8996L0.0584732 23.5537C-0.0504334 23.7762 -0.00448917 24.0408 0.173599 24.2168C0.351639 24.3928 0.624122 24.4433 0.856832 24.3432L4.93338 22.5887L9.00993 24.3432C9.16762 24.411 9.34769 24.411 9.50538 24.3432L13.5819 22.5887L17.6585 24.3432C17.7381 24.3774 17.8224 24.3941 17.906 24.3941C18.0666 24.3941 18.2246 24.3327 18.3417 24.2169C18.5197 24.0408 18.5655 23.7763 18.4566 23.5537ZM3.49518 10.7816C3.02609 9.89002 2.79136 8.92659 2.79758 7.91773C2.81821 4.54232 5.67504 1.7582 9.16584 1.71146C10.9094 1.68881 12.5532 2.32657 13.7937 3.50922C15.0345 4.69214 15.7178 6.27124 15.7178 7.95571C15.7178 8.95111 15.483 9.90171 15.02 10.7816L9.78066 19.2703C9.6207 19.5294 9.36162 19.5574 9.25763 19.5574C9.15359 19.5574 8.89451 19.5294 8.7346 19.2703L3.49518 10.7816ZM13.8295 21.4064C13.6718 21.3386 13.4918 21.3386 13.3341 21.4064L9.25753 23.1608L5.18099 21.4064C5.02329 21.3386 4.84323 21.3386 4.68553 21.4064L1.86148 22.6218L4.31721 17.6004L5.87237 16.9314L7.68834 19.8736C8.02119 20.4128 8.60781 20.7348 9.25744 20.7348C9.90707 20.7348 10.4937 20.4128 10.8265 19.8736L12.6425 16.9314L14.1978 17.6007L16.6534 22.6219L13.8295 21.4064Z" />
<path d="M9.25775 5.26855C7.72497 5.26855 6.47803 6.47394 6.47803 7.9556C6.47803 9.43725 7.72497 10.6426 9.25775 10.6426C10.7905 10.6427 12.0374 9.43725 12.0374 7.9556C12.0374 6.47394 10.7905 5.26855 9.25775 5.26855ZM9.25775 9.46516C8.39667 9.46521 7.69609 8.78807 7.69609 7.9556C7.69609 7.12322 8.39663 6.44603 9.25775 6.44603C10.1188 6.44603 10.8194 7.12322 10.8194 7.9556C10.8194 8.78797 10.1188 9.46516 9.25775 9.46516Z" />
</symbol>
<symbol id="messages"  viewBox="0 0 27 27">

<path d="M26.9249 13.9501L23.8435 5.62125C23.7316 5.31861 23.5085 5.07772 23.2153 4.94293C22.9222 4.80814 22.5941 4.79549 22.2915 4.9075L7.26655 10.466C6.96391 10.578 6.72302 10.8011 6.58818 11.0942C6.45339 11.3873 6.44078 11.7154 6.55274 12.018L9.63406 20.3469C9.74596 20.6495 9.96908 20.8904 10.2623 21.0253C10.4231 21.0993 10.5945 21.1364 10.7664 21.1364C10.9078 21.1364 11.0496 21.1113 11.1862 21.0607L26.2112 15.5022H26.2112C26.8358 15.2711 27.156 14.5748 26.9249 13.9501ZM21.4656 6.50102L16.8051 13.1637L8.93043 11.1384L21.4656 6.50102ZM10.5492 19.3393L7.87642 12.1147L14.0665 13.7069L10.5492 19.3393ZM11.858 19.5242L15.2937 14.0224L16.9096 14.4381C16.9598 14.4508 17.0105 14.4574 17.06 14.4574C17.2545 14.4574 17.4405 14.3632 17.5553 14.1995L18.5115 12.8314L24.7009 14.7729L11.858 19.5242ZM19.2382 11.7934L22.9013 6.5556L25.5751 13.7812L19.2382 11.7934Z" />
<path d="M7.03702 20.5124C6.92132 20.1995 6.57369 20.0399 6.26103 20.1555L3.98491 20.9976C3.67204 21.1134 3.5123 21.4608 3.628 21.7736C3.71818 22.0174 3.94894 22.1682 4.19453 22.1682C4.26409 22.1682 4.33496 22.156 4.40404 22.1305L6.68006 21.2884C6.99303 21.1728 7.15277 20.8253 7.03702 20.5124Z" />
<path d="M3.95648 14.9052C3.84067 14.5923 3.49321 14.4327 3.18044 14.5482L1.77544 15.0681C1.46256 15.1839 1.30283 15.5312 1.41853 15.8441C1.50871 16.0878 1.73953 16.2386 1.98506 16.2386C2.05461 16.2386 2.12549 16.2265 2.19457 16.2009L3.59957 15.6811C3.91245 15.5655 4.07223 15.218 3.95648 14.9052Z" />
<path d="M2.2146 19.4805C2.09879 19.1676 1.75133 19.0079 1.43856 19.1236L0.394578 19.5098C0.0817047 19.6256 -0.0780277 19.973 0.0376715 20.2858C0.127847 20.5296 0.358613 20.6804 0.604197 20.6804C0.673753 20.6804 0.744628 20.6683 0.813711 20.6427L1.85769 20.2565C2.17062 20.1408 2.33035 19.7934 2.2146 19.4805Z" />

</symbol>
<symbol id="vk" viewBox="0 0 21 21">
<path  d="M21 2.61804C21.0036 1.35822 20.0319 0.432538 18.7547 0.43335C13.2504 0.436598 7.74585 0.436395 2.24154 0.433553C0.971671 0.432944 -0.00146834 1.35497 1.66319e-06 2.62331C0.00609166 7.93156 0.00567154 13.2396 0.000211548 18.5479C-0.00125845 19.8089 0.96936 20.7342 2.24637 20.7334C7.70973 20.7299 13.1731 20.7342 18.6367 20.7258C18.9229 20.7254 19.2095 20.6369 19.4956 20.5866C20.3578 20.4355 20.9983 19.5109 20.9979 18.6215C20.9971 15.9543 20.9975 13.2871 20.9975 10.6197C20.9977 7.95247 20.9924 5.28525 21 2.61804ZM17.523 14.8313C16.5598 14.8459 15.5919 14.8628 14.6345 14.7826C14.3392 14.758 14.0513 14.4481 13.7972 14.2282C13.5395 14.0055 13.3358 13.7258 13.0931 13.4854C12.9524 13.346 12.7945 13.2138 12.622 13.1156C12.3182 12.9424 12.0317 13.0159 11.9148 13.333C11.8058 13.6279 11.755 13.9509 11.7314 14.2652C11.6949 14.7509 11.5714 14.8805 11.0611 14.8874C10.235 14.8985 9.41451 14.8756 8.62869 14.5857C7.58373 14.2002 6.81429 13.4828 6.14733 12.647C4.95369 11.1515 4.0299 9.5042 3.24156 7.78236C3.0639 7.39483 3.20061 7.2034 3.63888 7.20117C4.284 7.19812 4.92954 7.21355 5.57424 7.19528C5.94363 7.18493 6.13767 7.34347 6.29643 7.65345C6.70278 8.44495 7.13076 9.2269 7.57785 9.99769C7.71582 10.2354 7.92414 10.4453 8.1354 10.6304C8.41512 10.8759 8.67531 10.8111 8.77695 10.4685C9.009 9.68345 9.06528 8.88505 8.83428 8.08929C8.73579 7.75008 8.53041 7.48456 8.14002 7.40884C8.11608 7.40417 8.09256 7.39138 8.07198 7.37818C8.05875 7.36966 8.05056 7.35342 8.01045 7.30409C8.106 7.23405 8.19105 7.1423 8.29752 7.09825C9.29061 6.68737 10.3074 6.67053 11.3305 6.97137C11.6609 7.06861 11.7808 7.25862 11.7726 7.60981C11.7558 8.35583 11.7178 9.10125 11.7037 9.84707C11.6997 10.0493 11.7249 10.2594 11.7814 10.4536C11.8868 10.816 12.1512 10.8939 12.4219 10.627C12.6934 10.3594 12.9635 10.0734 13.1561 9.75186C13.5542 9.08683 13.9169 8.40008 14.2626 7.70765C14.491 7.24989 14.5259 7.20015 15.0625 7.20015C15.8096 7.20015 16.5566 7.19832 17.3038 7.20076C17.7618 7.20238 17.9308 7.39909 17.7547 7.80935C17.5841 8.20703 17.3649 8.59294 17.1125 8.94818C16.6904 9.54298 16.2221 10.1067 15.779 10.6877C15.2645 11.3627 15.3035 11.5649 15.9203 12.1491C16.4703 12.6702 16.9932 13.2193 17.5052 13.7761C17.6513 13.9349 17.7444 14.1541 17.8137 14.3608C17.8985 14.6139 17.7853 14.8275 17.523 14.8313Z" />
</symbol>
<symbol id="instagram" viewBox="0 0 21 21">
<path d="M0 18.4636C0 13.2102 0 7.95687 0 2.70311C0.0170486 2.64235 0.0382056 2.58199 0.0509407 2.52004C0.2204 1.71189 0.660584 1.09019 1.43537 0.730399C1.73198 0.592994 2.06514 0.530049 2.38167 0.43335C7.79389 0.43335 13.2055 0.43335 18.6181 0.43335C18.6935 0.450625 18.7679 0.46929 18.8437 0.485175C19.8565 0.69704 20.5463 1.26195 20.8698 2.22319C20.923 2.38045 20.9573 2.54268 21 2.70292C21 7.95647 21 13.21 21 18.4634C20.9825 18.5245 20.9614 18.5845 20.9486 18.6465C20.7771 19.4604 20.3318 20.0841 19.5494 20.444C19.2575 20.5779 18.9295 20.6386 18.6181 20.7334C13.195 20.7334 7.7713 20.7334 2.34819 20.7334C2.29068 20.7175 2.23378 20.6982 2.17545 20.6861C1.09358 20.4585 0.379179 19.8523 0.0918173 18.8035C0.0610066 18.6905 0.0312216 18.5772 0 18.4636ZM16.7847 9.02811C16.8001 9.09443 16.8126 9.14626 16.8233 9.19868C16.8814 9.48401 16.9607 9.76756 16.9938 10.0559C17.1873 11.7641 16.7175 13.2908 15.5814 14.6091C14.6791 15.6555 13.5282 16.34 12.1559 16.6688C10.7447 17.0065 9.36216 16.914 8.01162 16.3997C7.23437 16.1037 6.5438 15.6678 5.93949 15.1105C5.47692 14.6834 5.08521 14.1983 4.77608 13.655C4.48872 13.1515 4.27654 12.6197 4.14816 12.056C3.96843 11.2651 3.95179 10.4715 4.10174 9.67542C4.142 9.46078 4.19787 9.24891 4.2486 9.02514C3.60014 9.02514 2.97652 9.02514 2.3408 9.02514C2.33587 9.08053 2.32765 9.12739 2.32765 9.17505C2.32724 11.9579 2.32539 14.7407 2.32868 17.524C2.32991 18.0706 2.68136 18.4008 3.24519 18.4008C8.06379 18.4014 12.8826 18.4014 17.7014 18.4008C18.2887 18.4008 18.6241 18.0748 18.6241 17.5043C18.6249 14.7374 18.6245 11.9702 18.6241 9.20324C18.6241 9.14586 18.6241 9.08867 18.6241 9.02792C18.0003 9.02811 17.4001 9.02811 16.7847 9.02811ZM10.5139 14.4892C11.0455 14.4937 11.5571 14.3956 12.054 14.2177C13.6366 13.6524 14.6992 12.2268 14.7294 10.6001C14.7512 9.46396 14.3122 8.50689 13.4672 7.72336C12.7926 7.0969 11.9848 6.7377 11.058 6.62591C10.0018 6.49803 9.01995 6.71367 8.13815 7.28136C7.26107 7.84627 6.67094 8.62603 6.4222 9.62976C6.10526 10.9089 6.4035 12.0604 7.27031 13.0508C8.10898 14.0094 9.21529 14.4687 10.5139 14.4892ZM16.4731 6.70315C16.8475 6.70315 17.222 6.70593 17.5962 6.70275C18.2348 6.69759 18.6152 6.32687 18.6167 5.70815C18.6185 5.03821 18.6179 4.36845 18.6167 3.69851C18.6157 3.06728 18.2285 2.68663 17.5782 2.68306C16.8518 2.67968 16.1251 2.67968 15.399 2.68286C14.7442 2.68564 14.3576 3.05953 14.3549 3.69195C14.3525 4.3617 14.3525 5.03165 14.3549 5.7016C14.3576 6.33362 14.7323 6.69759 15.3834 6.70315C15.7464 6.70593 16.1099 6.70374 16.4731 6.70315Z" />
</symbol>
<symbol id="basket"  viewBox="0 0 20 18">
<path d="M10 8.59326C10.2156 8.59326 10.3906 8.41824 10.3906 8.20264C10.3906 7.98703 10.2156 7.81201 10 7.81201C9.78439 7.81201 9.60938 7.98703 9.60938 8.20264C9.60938 8.41824 9.78439 8.59326 10 8.59326Z" fill="#ED1C24"/>
<path d="M18.4375 5.46827H16.1274L12.574 0.579508C12.2548 0.0324807 11.5516 -0.162221 10.9932 0.147074C10.4271 0.461558 10.2235 1.1746 10.5382 1.74085C10.5472 1.75688 10.5571 1.77229 10.5682 1.78694L13.3554 5.46827H6.64458L9.43174 1.78694C9.44273 1.77229 9.4528 1.75688 9.4618 1.74085C9.77567 1.17597 9.57441 0.462321 9.00633 0.146769C8.44908 -0.161916 7.74595 0.0326333 7.42613 0.579203L3.87252 5.46827H1.5625C0.700987 5.46827 0 6.16926 0 7.03077C0 7.71024 0.440978 8.30183 1.06216 8.51118C1.12838 8.56244 1.21109 8.59327 1.30111 8.59327C1.31912 8.59327 1.33606 8.59434 1.35376 8.59678C1.52191 8.61936 1.65512 8.74692 1.68563 8.91385L3.01452 16.2249C3.11599 16.7824 3.60091 17.187 4.16762 17.187H15.8323C16.399 17.187 16.884 16.7824 16.9854 16.2248L18.3143 8.91401C18.3448 8.74692 18.4782 8.61936 18.647 8.59678C18.6641 8.59434 18.681 8.59327 18.6988 8.59327C18.7895 8.59327 18.8728 8.56214 18.939 8.51026C19.5607 8.29954 20 7.70902 20 7.03077C20 6.16926 19.299 5.46827 18.4375 5.46827ZM11.2105 1.34092C11.1212 1.15614 11.1905 0.93107 11.372 0.830362C11.5611 0.725535 11.7994 0.793131 11.9037 0.980967C11.9113 0.995005 11.92 1.00843 11.9293 1.02125L15.1616 5.46827H14.3351L11.2105 1.34092ZM8.07066 1.0214C8.07997 1.00858 8.08836 0.99531 8.09614 0.981577C8.20067 0.793589 8.43916 0.72584 8.62745 0.830057C8.80934 0.93107 8.87892 1.15583 8.7895 1.34092L5.66481 5.46827H4.8384L8.07066 1.0214ZM18.4375 7.81202H11.5625C11.3467 7.81202 11.1719 7.98688 11.1719 8.20264C11.1719 8.4184 11.3467 8.5893 11.5625 8.5893H17.5937C17.5732 8.64759 17.557 8.70801 17.5457 8.77027L16.2167 16.085C16.183 16.2709 16.0212 16.4058 15.8323 16.4058H4.16762C3.97857 16.4058 3.81698 16.2709 3.7831 16.0852L2.45422 8.77408C2.44293 8.71183 2.42675 8.6514 2.40631 8.59327H8.43748C8.65324 8.59327 8.82811 8.4184 8.82811 8.20264C8.82811 7.98688 8.65324 7.81202 8.43748 7.81202H1.5625C1.12808 7.81202 0.781248 7.45801 0.781248 7.03077C0.781248 6.60001 1.13174 6.24952 1.5625 6.24952H18.4375C18.8682 6.24952 19.2187 6.60001 19.2187 7.03077C19.2187 7.46458 18.8638 7.81202 18.4375 7.81202Z"/>
<path d="M10 9.76514C9.35379 9.76514 8.82812 10.2908 8.82812 10.937V14.062C8.82812 14.7082 9.35379 15.2339 10 15.2339C10.6462 15.2339 11.1719 14.7082 11.1719 14.062V10.937C11.1719 10.2896 10.6474 9.76514 10 9.76514ZM10.3906 14.062C10.3906 14.2775 10.2155 14.4526 10 14.4526C9.78454 14.4526 9.60937 14.2775 9.60937 14.062V10.937C9.60937 10.7216 9.78454 10.5464 10 10.5464C10.2156 10.5464 10.3906 10.7214 10.3906 10.937V14.062Z" />
<path d="M13.9062 15.2339C14.5525 15.2339 15.0781 14.7082 15.0781 14.062V10.937C15.0781 10.2896 14.5537 9.76514 13.9062 9.76514C13.26 9.76514 12.7344 10.2908 12.7344 10.937V14.062C12.7344 14.7082 13.26 15.2339 13.9062 15.2339ZM13.5156 10.937C13.5156 10.7216 13.6908 10.5464 13.9062 10.5464C14.1219 10.5464 14.2969 10.7214 14.2969 10.937V14.062C14.2969 14.2775 14.1217 14.4526 13.9062 14.4526C13.6908 14.4526 13.5156 14.2775 13.5156 14.062V10.937Z" />
<path d="M6.09375 9.76514C5.44754 9.76514 4.92188 10.2908 4.92188 10.937V14.062C4.92188 14.7082 5.44754 15.2339 6.09375 15.2339C6.73996 15.2339 7.26562 14.7082 7.26562 14.062V10.937C7.26562 10.2896 6.74118 9.76514 6.09375 9.76514ZM6.48437 14.062C6.48437 14.2775 6.3092 14.4526 6.09375 14.4526C5.87829 14.4526 5.70312 14.2775 5.70312 14.062V10.937C5.70312 10.7216 5.87829 10.5464 6.09375 10.5464C6.30935 10.5464 6.48437 10.7213 6.48437 10.937V14.062Z"/>
</symbol>
<symbol viewBox="0 0 19 23" id="person">
<path d="M14.8211 14.9349C14.8029 14.9329 12.1553 15.011 11.7617 12.1738C12.1991 11.8686 12.6022 11.4724 12.9573 10.9917C13.6482 10.0564 14.0934 8.88312 14.252 7.61403C14.3065 7.56475 14.3516 7.50344 14.3819 7.43116C14.6689 6.74767 14.8144 6.01787 14.8144 5.26192C14.8144 2.36051 12.6257 0 9.93535 0C9.23174 0 8.54911 0.162078 7.90439 0.482146C7.65845 0.500924 7.41744 0.544184 7.18632 0.610938C6.08137 0.930197 5.18222 1.74944 4.65443 2.91786C4.14205 4.05231 4.04107 5.38779 4.37017 6.67836C4.4397 6.95099 4.52811 7.2189 4.63296 7.47487C4.66135 7.54409 4.70366 7.60316 4.75447 7.65177C5.01133 9.6326 5.95384 11.2738 7.23897 12.1699C6.8441 15.0119 4.19749 14.933 4.17925 14.935C2.27537 14.9995 0.746094 16.5675 0.746094 18.4868V22.4822C0.746094 22.7682 0.977935 23 1.26395 23H5.81144H13.1888H17.7364C18.0224 23 18.2543 22.7682 18.2543 22.4822V18.4868C18.2543 16.5674 16.7251 14.9994 14.8211 14.9349ZM7.47386 1.606C7.66285 1.55138 7.86244 1.51899 8.0671 1.50978C8.14306 1.50637 8.21732 1.48629 8.28466 1.45089C8.80894 1.17543 9.36435 1.03576 9.9354 1.03576C12.0545 1.03576 13.7786 2.9316 13.7786 5.26192C13.7786 5.33187 13.7767 5.40145 13.7736 5.47077C13.3626 5.05335 12.7915 4.79393 12.1608 4.79393H8.63127C8.42126 4.79393 8.22195 4.72798 8.05479 4.60319C7.91207 4.49668 7.80175 4.35351 7.73585 4.18919C7.63378 3.93502 7.38213 3.77604 7.1082 3.79325C6.83328 3.81077 6.60193 4.00169 6.53248 4.26848C6.32795 5.05443 5.9201 5.77839 5.36056 6.36547C4.83991 4.22275 5.77954 2.09552 7.47386 1.606ZM7.0233 10.5629C6.34942 9.73969 5.90811 8.62801 5.76822 7.41094C6.4217 6.82853 6.9383 6.10376 7.27463 5.29984C7.32566 5.34692 7.37926 5.39143 7.43523 5.43326C7.78274 5.69259 8.19629 5.82974 8.63132 5.82974H12.1609C12.6603 5.82974 13.0907 6.12927 13.2828 6.55796C13.2828 6.56165 13.2822 6.56515 13.2822 6.56884C13.2822 9.49226 11.586 11.8707 9.50096 11.8707C8.59354 11.8707 7.71356 11.4062 7.0233 10.5629ZM8.21323 12.6784C8.62377 12.827 9.05561 12.9065 9.50096 12.9065C9.94277 12.9065 10.3744 12.8296 10.7877 12.6812C10.9773 13.6691 11.5265 14.5301 12.2938 15.1228L9.57441 18.9954C9.55666 19.0207 9.532 19.0335 9.5011 19.0335C9.47023 19.0335 9.44557 19.0207 9.42787 18.9955L6.70785 15.122C7.47512 14.5285 8.0242 13.6669 8.21323 12.6784ZM17.2185 21.9642H13.1888H5.81144H1.78181V18.4867C1.78181 17.0976 2.91191 15.9675 4.30099 15.9675C4.31985 15.9675 5.1532 15.9473 5.81166 15.648L8.58015 19.5907C8.79057 19.8904 9.13485 20.0693 9.50105 20.0693C9.50105 20.0693 9.50105 20.0693 9.5011 20.0693C9.86725 20.0693 10.2116 19.8904 10.422 19.5907L13.19 15.6487C13.9409 15.9676 14.6805 15.9676 14.6994 15.9676C16.0884 15.9676 17.2185 17.0977 17.2185 18.4867V21.9642Z" />
</symbol>
<symbol id="logo"  viewBox="0 0 38 38">
<path d="M20.0587 0.650146C19.4201 0.650146 18.7879 0.675902 18.167 0.72339C23.3622 0.72661 26.9402 6.56519 26.9402 13.7664C26.9402 20.9685 23.3622 26.8063 18.167 26.8095C18.7879 26.8578 19.4201 26.8827 20.0587 26.8827C29.9457 26.8827 37.3282 21.0103 37.3282 13.7664C37.3282 6.52253 29.9457 0.650146 20.0587 0.650146Z" />
<path d="M32.9734 27.4115C33.2923 26.8594 33.5863 26.2992 33.8552 25.7374C31.2548 30.2318 24.4071 30.4097 18.1674 26.8095C11.9262 23.2085 8.65653 17.1928 11.2513 12.6943C10.8986 13.2078 10.5611 13.7423 10.2422 14.2944C5.29831 22.8519 6.69555 32.178 12.9723 35.8008C19.2498 39.4235 28.0295 35.9698 32.9734 27.4115Z" />
<path d="M3.32664 25.2095C3.64555 25.7616 3.98459 26.2961 4.33571 26.8096C1.74175 22.3119 5.01138 16.2955 11.2511 12.6952C17.4915 9.09342 24.3392 9.2721 26.9405 13.7665C26.6707 13.2047 26.3767 12.6453 26.057 12.0924C21.1131 3.53493 12.3342 0.081203 6.0575 3.70235C-0.220029 7.3251 -1.61727 16.6512 3.32664 25.2095Z"/>
</symbol>

<symbol id="close"  viewBox="0 0 27 27" >
<path d="M11.1284 15.8709L15.8702 11.1277" stroke="#CA1118" stroke-width="2" stroke-miterlimit="10" stroke-linecap="round" stroke-linejoin="round"/>
<path d="M11.1284 11.1284L15.8702 15.8709" stroke="#CA1118" stroke-width="2" stroke-miterlimit="10" stroke-linecap="round" stroke-linejoin="round"/>
<path d="M13.5 26C20.4036 26 26.0001 20.4036 26.0001 13.5C26.0001 6.59642 20.4036 1 13.5 1C6.59646 1 1 6.59642 1 13.5C1 20.4036 6.59646 26 13.5 26Z" stroke="#CA1118" stroke-width="2" stroke-miterlimit="10" stroke-linecap="round" stroke-linejoin="round"/>
</symbol>


<symbol id="arrow-right" viewBox="0 0 27 27">
<path d="M12 18.8708L16.7418 14.1277" stroke="#CA1118" stroke-width="2" stroke-miterlimit="10" stroke-linecap="round" stroke-linejoin="round"/>
<path d="M12 9L16.7418 13.7424" stroke="#CA1118" stroke-width="2" stroke-miterlimit="10" stroke-linecap="round" stroke-linejoin="round"/>
<path d="M13.5 26C20.4036 26 26.0001 20.4036 26.0001 13.5C26.0001 6.59642 20.4036 1 13.5 1C6.59646 1 1 6.59642 1 13.5C1 20.4036 6.59646 26 13.5 26Z" stroke="#CA1118" stroke-width="2" stroke-miterlimit="10" stroke-linecap="round" stroke-linejoin="round"/>
</symbol>
<symbol viewBox="0 0 23 22" id="youtube">
<path fill-rule="evenodd" clip-rule="evenodd" d="M3.63594 0.647919H19.0048C20.7607 0.647919 22.1844 1.99137 22.1844 3.64857V18.6514C22.1844 20.3086 20.7607 21.652 19.0048 21.652H3.63594C1.88004 21.652 0.456299 20.3086 0.456299 18.6514V3.64857C0.456299 1.99137 1.88004 0.647919 3.63594 0.647919ZM8.67221 15.225L16.2091 11.0186L8.67221 6.8122V15.225Z" fill="#ED1C24"/>
</symbol>
<symbol id="attention" viewBox="0 0 24 24">
<path d="M12 22C17.5229 22 22.0001 17.5229 22.0001 12C22.0001 6.47714 17.5229 2 12 2C6.47717 2 2 6.47714 2 12C2 17.5229 6.47717 22 12 22Z" stroke="#CA1118" stroke-width="2.4" stroke-miterlimit="10" stroke-linecap="round" stroke-linejoin="round"/>
<path d="M12.0003 7.18079V6.50366" stroke="#CA1118" stroke-width="1.76" stroke-miterlimit="10" stroke-linecap="round" stroke-linejoin="round"/>
<path d="M12.0003 17.4961V9.94067" stroke="#CA1118" stroke-width="1.76" stroke-miterlimit="10" stroke-linecap="round" stroke-linejoin="round"/>
</symbol>
</svg>