<svg width="22" height="23" viewBox="0 0 22 23" fill="none" xmlns="http://www.w3.org/2000/svg">
<path fill-rule="evenodd" clip-rule="evenodd" d="M17.2489 9.07132C17.2334 8.47977 17.2106 7.88687 17.1511 7.29858C17.0172 5.97995 16.232 5.07062 14.9329 4.82509C14.239 4.69363 13.5187 4.67544 12.8096 4.66213C11.5108 4.63823 10.2114 4.64094 8.91235 4.66104C8.24204 4.67163 7.56521 4.695 6.90467 4.79793C5.77671 4.97312 5.00618 5.61953 4.69465 6.73853C4.5947 7.09705 4.5363 7.47702 4.52761 7.84884C4.49421 9.2609 4.47356 10.6735 4.47818 12.0864C4.48144 12.9851 4.50208 13.8868 4.58003 14.7817C4.69546 16.1053 5.48718 17.0113 6.7868 17.2612C7.48536 17.3951 8.21189 17.4125 8.92675 17.4255C10.2198 17.4505 11.5135 17.4424 12.8071 17.4282C13.4095 17.4217 14.0136 17.3886 14.6133 17.3296C15.1692 17.275 15.6894 17.0931 16.1361 16.7378C16.8605 16.162 17.1403 15.3679 17.1829 14.4873C17.2407 13.2985 17.2524 12.1081 17.2839 10.9182C17.2733 10.9177 17.263 10.9177 17.2524 10.9177C17.2527 10.3019 17.2652 9.68622 17.2489 9.07132ZM10.8516 15.0498C8.62717 15.0487 6.85741 13.2605 6.8585 11.0146C6.85931 8.80162 8.6584 7.0362 10.9103 7.03865C13.1083 7.04109 14.8718 8.84588 14.8694 11.0904C14.8672 13.276 13.0662 15.0503 10.8516 15.0498ZM15.0196 7.82385C14.4987 7.81434 14.0747 7.38088 14.0845 6.86837C14.0945 6.3458 14.5163 5.94002 15.0443 5.94491C15.5707 5.94926 15.9694 6.36454 15.9634 6.90096C15.9572 7.41157 15.5269 7.83281 15.0196 7.82385Z" fill="#8CC63F"/>
<path fill-rule="evenodd" clip-rule="evenodd" d="M10.8608 8.44557C9.4327 8.44992 8.26318 9.62241 8.26563 11.0475C8.26807 12.4731 9.44384 13.6459 10.8676 13.6432C12.294 13.6399 13.4654 12.4655 13.463 11.0407C13.4603 9.61398 12.2837 8.44068 10.8608 8.44557Z" fill="#8CC63F"/>
<path fill-rule="evenodd" clip-rule="evenodd" d="M18.5485 0.459106H3.17964C1.42374 0.459106 0 1.84888 0 3.56323V19.0834C0 20.7977 1.42374 22.1875 3.17964 22.1875H18.5485C20.3044 22.1875 21.7281 20.7977 21.7281 19.0834V3.56323C21.7281 1.84888 20.3044 0.459106 18.5485 0.459106ZM18.649 13.5022C18.64 14.3211 18.6129 15.1433 18.3399 15.9304C17.8168 17.4402 16.7543 18.3563 15.2024 18.6545C14.4976 18.79 13.7661 18.8044 13.0456 18.8324C12.3174 18.8609 11.5873 18.8387 10.8581 18.8387C10.8581 18.846 10.8581 18.8533 10.8578 18.8604C9.80428 18.8419 8.75046 18.8321 7.69719 18.802C6.78787 18.7759 5.90679 18.6116 5.11752 18.1273C4.08353 17.4923 3.45206 16.5591 3.2508 15.3736C3.13048 14.665 3.08757 13.9368 3.0767 13.2165C3.05308 11.673 3.06231 10.1289 3.07915 8.58514C3.08784 7.76599 3.115 6.94415 3.38823 6.15677C3.91134 4.64748 4.97384 3.73134 6.52577 3.4334C7.23058 3.2976 7.962 3.26802 8.68229 3.25688C10.2312 3.23298 11.7813 3.24193 13.3308 3.25904C14.1439 3.268 14.9604 3.29571 15.7423 3.56568C17.2587 4.08933 18.1794 5.15348 18.4754 6.7141C18.6093 7.41918 18.6398 8.15058 18.6509 8.87087C18.6748 10.4144 18.6656 11.9584 18.649 13.5022Z" fill="#8CC63F"/>
</svg>
