<svg width="26" height="26" viewBox="0 0 26 26" fill="none" xmlns="http://www.w3.org/2000/svg">
<path d="M13.7904 0.419922C13.3582 0.419922 12.9303 0.437353 12.51 0.469491C16.0263 0.47167 18.4481 4.42303 18.4481 9.2966C18.4481 14.1707 16.0263 18.1215 12.51 18.1237C12.9303 18.1564 13.3582 18.1733 13.7904 18.1733C20.4824 18.1733 25.4791 14.199 25.4791 9.2966C25.4791 4.39416 20.4824 0.419922 13.7904 0.419922Z" fill="#ED1C24"/>
<path d="M22.5311 18.5312C22.747 18.1575 22.9459 17.7784 23.128 17.3982C21.3679 20.4398 16.7331 20.5602 12.5098 18.1237C8.28539 15.6867 6.07236 11.6155 7.82861 8.57104C7.58987 8.91857 7.36148 9.28027 7.14563 9.65394C3.79937 15.4454 4.74508 21.757 8.99345 24.2087C13.2424 26.6605 19.1849 24.3231 22.5311 18.5312Z" fill="#ED1C24"/>
<path d="M2.46517 17.0407C2.68102 17.4144 2.9105 17.7761 3.14815 18.1236C1.39245 15.0798 3.60548 11.008 7.82877 8.57149C12.0526 6.13389 16.6874 6.25482 18.4481 9.29651C18.2655 8.9163 18.0665 8.53772 17.8501 8.1635C14.5038 2.37209 8.56191 0.0347193 4.31354 2.48539C0.0646266 4.93716 -0.88109 11.2488 2.46517 17.0407Z" fill="#ED1C24"/>
</svg>
