<svg width="20" height="20" viewBox="0 0 20 20" fill="none" xmlns="http://www.w3.org/2000/svg">
<path d="M19.2404 14.9949L15.3215 11.2394C14.8537 10.7911 14.0927 10.7911 13.6248 11.2394L12.6058 12.216C12.2865 12.522 12.1855 12.9589 12.3021 13.348L11.9177 13.7165C11.9175 13.7166 11.9175 13.7167 11.9173 13.7168C11.6443 13.9788 9.9438 13.5768 7.88826 11.6069C5.83303 9.63732 5.41342 8.00793 5.68647 7.74577C5.68647 7.7457 5.68654 7.7457 5.68654 7.7457L6.07139 7.37693C6.18002 7.40684 6.29213 7.42211 6.40432 7.42211C6.71154 7.42211 7.01873 7.31007 7.25267 7.08595L8.27173 6.10935C8.7395 5.66107 8.7395 4.93173 8.27173 4.48341L4.35288 0.727802C4.12631 0.51068 3.82503 0.391113 3.5046 0.391113C3.18409 0.391113 2.88292 0.510755 2.65632 0.727802L1.63718 1.70448C1.31789 2.01047 1.21695 2.44741 1.33355 2.83654C1.33355 2.83654 1.00761 3.15189 0.991403 3.17181C-0.0926952 4.32663 -0.296093 6.1448 0.422616 8.3186C1.1264 10.447 2.64359 12.7018 4.69475 14.6674C6.74584 16.633 9.0986 18.0869 11.3196 18.7615C12.2118 19.0324 13.0464 19.1666 13.8043 19.1666C15.047 19.1666 16.0831 18.8055 16.8258 18.0938L17.0396 17.8888C17.1467 17.9183 17.2585 17.9343 17.3729 17.9343C17.6934 17.9343 17.9947 17.8146 18.2212 17.5976L19.2403 16.6209C19.7081 16.1726 19.7081 15.4432 19.2404 14.9949ZM3.5046 1.54074L7.42349 5.29638L6.40498 6.2735C6.40498 6.2735 6.40478 6.27332 6.40443 6.27298L6.38978 6.25894L4.44499 4.39517L2.4855 2.51741L3.5046 1.54074ZM15.9776 17.2808C15.9775 17.2809 15.9774 17.2809 15.9774 17.281C15.1143 18.1079 13.5889 18.2445 11.682 17.6654C9.64094 17.0456 7.46076 15.6921 5.54315 13.8543C3.62546 12.0166 2.21312 9.92732 1.56636 7.97124C0.962067 6.14379 1.10461 4.68185 1.96773 3.85465L1.96781 3.85458L2.07601 3.75089L5.11729 6.66541L4.83834 6.93273C4.83815 6.93292 4.83799 6.93314 4.83776 6.93337C3.6821 8.04226 5.07069 10.5326 7.04002 12.4199C8.514 13.8324 10.3405 14.9333 11.6514 14.9333C12.0921 14.9333 12.4746 14.8088 12.7657 14.5298C12.7659 14.5297 12.7659 14.5296 12.7661 14.5295L13.0447 14.2625L16.086 17.177L15.9776 17.2808ZM17.373 16.7846L13.4541 13.029L14.4732 12.0524L18.392 15.8079C18.392 15.8079 17.3733 16.7849 17.373 16.7846Z" fill="#ED1C24"/>
<path d="M15.188 4.61155C14.047 3.51812 12.5301 2.91598 10.9167 2.91602C10.5854 2.91602 10.3169 3.17338 10.3169 3.49086C10.3169 3.80835 10.5855 4.06571 10.9167 4.06571C12.2097 4.06564 13.4253 4.54825 14.3397 5.42448C15.254 6.30068 15.7575 7.46561 15.7574 8.70467C15.7574 9.02215 16.026 9.27959 16.3573 9.27959C16.6885 9.27959 16.9571 9.02223 16.9571 8.70482C16.9571 7.15861 16.3288 5.70498 15.188 4.61155Z" fill="#ED1C24"/>
<path d="M17.3396 2.54957C15.6239 0.905398 13.3429 -7.48649e-05 10.9167 4.64261e-09C10.5854 4.64261e-09 10.3169 0.257402 10.3169 0.574848C10.3169 0.892333 10.5855 1.1497 10.9167 1.1497C13.0225 1.14962 15.0022 1.93553 16.4913 3.3625C17.9803 4.78944 18.8003 6.68668 18.8003 8.70467C18.8003 9.02216 19.0688 9.27952 19.4001 9.27952C19.7314 9.27952 20 9.02216 20 8.70475C20 6.3796 19.0552 4.19371 17.3396 2.54957Z" fill="#ED1C24"/>
<path d="M13.0363 6.67296C12.4618 6.12245 11.729 5.83154 10.9169 5.83154C10.9169 5.83154 10.9167 5.83154 10.9167 5.83154C10.5854 5.83162 10.3168 6.08894 10.3169 6.40647C10.317 6.72395 10.5856 6.98131 10.9168 6.98124C10.9169 6.98124 10.9169 6.98124 10.917 6.98124C11.4109 6.98124 11.8386 7.15104 12.1881 7.4859C12.5326 7.81607 12.7147 8.2374 12.7146 8.70418C12.7145 9.02166 12.9831 9.27902 13.3143 9.2791H13.3144C13.6457 9.2791 13.9142 9.02173 13.9143 8.70433C13.9143 7.92598 13.6108 7.22355 13.0363 6.67296Z" fill="#ED1C24"/>
</svg>
