<svg width="23" height="22" viewBox="0 0 23 22" fill="none" xmlns="http://www.w3.org/2000/svg">
<path fill-rule="evenodd" clip-rule="evenodd" d="M19.2765 0.1875H3.90767C2.15176 0.1875 0.728027 1.57727 0.728027 3.29162V18.8118C0.728027 20.5261 2.15176 21.9159 3.90767 21.9159H19.2765C21.0324 21.9159 22.4562 20.5261 22.4562 18.8118V3.29162C22.4562 1.57727 21.0324 0.1875 19.2765 0.1875ZM17.5084 12.2167C17.6662 12.4093 17.8435 12.5853 18.0157 12.7659C18.5603 13.3368 19.1136 13.899 19.6456 14.4808C19.8064 14.6568 19.9262 14.8782 20.0343 15.0941C20.2182 15.461 20.097 15.7429 19.7067 15.8722C19.5557 15.9225 19.3909 15.9488 19.2314 15.9529C18.4962 15.9722 17.7602 15.9847 17.0244 15.9901C16.5475 15.9939 16.1433 15.7913 15.8011 15.4787C15.5379 15.2383 15.3046 14.9651 15.0575 14.7068C14.8247 14.4634 14.6071 14.2013 14.354 13.9808C13.9279 13.6098 13.5335 13.704 13.3532 14.241C13.2391 14.5807 13.2 14.9501 13.163 15.31C13.1215 15.7166 12.9721 15.9279 12.5731 15.9461C11.5918 15.9906 10.6187 15.964 9.68219 15.5916C8.49882 15.1207 7.56859 14.3355 6.79235 13.3452C5.63234 11.8647 4.73524 10.227 3.91582 8.5425C3.7534 8.2087 3.5975 7.87166 3.45111 7.53053C3.28081 7.13426 3.41308 6.90449 3.84303 6.89227C4.64588 6.87 5.44928 6.86401 6.25268 6.86889C6.59897 6.87107 6.81625 7.07096 6.94743 7.39416C7.39313 8.49279 7.95535 9.52979 8.65825 10.4869C8.78536 10.6594 8.93203 10.8234 9.09499 10.9617C9.42716 11.2438 9.71669 11.1656 9.82234 10.7463C9.90708 10.409 9.95841 10.0551 9.96303 9.70795C9.97009 9.14926 9.94402 8.58894 9.89866 8.03189C9.85901 7.54626 9.57736 7.24534 9.092 7.14593C9.04692 7.13697 9.00373 7.1174 8.92632 7.09133C9.0241 6.83629 9.20363 6.68938 9.42553 6.62773C9.70908 6.54869 10.0054 6.47588 10.2971 6.4729C10.9973 6.46502 11.7021 6.45876 12.3971 6.52856C13.002 6.58913 13.1831 6.83711 13.1837 7.45066C13.1837 8.20652 13.1522 8.96185 13.1413 9.71799C13.1375 9.97384 13.1492 10.2305 13.1666 10.4861C13.1728 10.5849 13.2049 10.6854 13.2418 10.7789C13.3817 11.1303 13.6196 11.2061 13.8985 10.9559C14.1278 10.7506 14.3369 10.5151 14.5197 10.2669C15.1789 9.37007 15.6906 8.39067 16.101 7.35723C16.2577 6.96178 16.3628 6.89307 16.7805 6.89144C17.6513 6.88764 18.5223 6.88411 19.3928 6.87569C20.0932 6.86917 20.2904 7.12475 19.9849 7.7584C19.7282 8.29019 19.4107 8.79728 19.0747 9.28453C18.6575 9.88966 18.1904 10.4603 17.7528 11.0513C17.6333 11.2132 17.5312 11.3902 17.4397 11.5698C17.3256 11.7947 17.3498 12.0228 17.5084 12.2167Z" fill="#8CC63F"/>
</svg>
