<svg width="27" height="27" viewBox="0 0 27 27" fill="none" xmlns="http://www.w3.org/2000/svg">
<path d="M13.4441 5.87116L10.5654 2.32812" stroke="#CA1118" stroke-width="2" stroke-miterlimit="10" stroke-linecap="round" stroke-linejoin="round"/>
<path d="M13.4443 5.87116L16.323 2.32812" stroke="#CA1118" stroke-width="2" stroke-miterlimit="10" stroke-linecap="round" stroke-linejoin="round"/>
<path d="M8.06697 8.14472L3.52637 7.67529" stroke="#CA1118" stroke-width="2" stroke-miterlimit="10" stroke-linecap="round" stroke-linejoin="round"/>
<path d="M8.0671 8.14483L7.59766 3.60425" stroke="#CA1118" stroke-width="2" stroke-miterlimit="10" stroke-linecap="round" stroke-linejoin="round"/>
<path d="M5.87212 13.5544L2.3291 16.4331" stroke="#CA1118" stroke-width="2" stroke-miterlimit="10" stroke-linecap="round" stroke-linejoin="round"/>
<path d="M5.87212 13.5545L2.3291 10.6758" stroke="#CA1118" stroke-width="2" stroke-miterlimit="10" stroke-linecap="round" stroke-linejoin="round"/>
<path d="M8.14578 18.9321L7.67578 23.4727" stroke="#CA1118" stroke-width="2" stroke-miterlimit="10" stroke-linecap="round" stroke-linejoin="round"/>
<path d="M8.14565 18.9321L3.60449 19.4021" stroke="#CA1118" stroke-width="2" stroke-miterlimit="10" stroke-linecap="round" stroke-linejoin="round"/>
<path d="M13.5557 21.1272L16.4344 24.6702" stroke="#CA1118" stroke-width="2" stroke-miterlimit="10" stroke-linecap="round" stroke-linejoin="round"/>
<path d="M13.5555 21.1272L10.6768 24.6702" stroke="#CA1118" stroke-width="2" stroke-miterlimit="10" stroke-linecap="round" stroke-linejoin="round"/>
<path d="M18.9326 18.8535L23.4732 19.3241" stroke="#CA1118" stroke-width="2" stroke-miterlimit="10" stroke-linecap="round" stroke-linejoin="round"/>
<path d="M18.9326 18.8535L19.4021 23.3952" stroke="#CA1118" stroke-width="2" stroke-miterlimit="10" stroke-linecap="round" stroke-linejoin="round"/>
<path d="M21.1279 13.4439L24.6709 10.5652" stroke="#CA1118" stroke-width="2" stroke-miterlimit="10" stroke-linecap="round" stroke-linejoin="round"/>
<path d="M21.1279 13.4438L24.6709 16.3226" stroke="#CA1118" stroke-width="2" stroke-miterlimit="10" stroke-linecap="round" stroke-linejoin="round"/>
<path d="M13.4998 16.3778C15.0897 16.3778 16.3785 15.0889 16.3785 13.4991C16.3785 11.9092 15.0897 10.6204 13.4998 10.6204C11.9099 10.6204 10.6211 11.9092 10.6211 13.4991C10.6211 15.0889 11.9099 16.3778 13.4998 16.3778Z" stroke="#CA1118" stroke-width="2" stroke-miterlimit="10" stroke-linecap="round" stroke-linejoin="round"/>
<path d="M13.4443 10.5955V1" stroke="#CA1118" stroke-width="2" stroke-miterlimit="10" stroke-linecap="round" stroke-linejoin="round"/>
<path d="M11.407 11.4851L4.62207 4.7002" stroke="#CA1118" stroke-width="2" stroke-miterlimit="10" stroke-linecap="round" stroke-linejoin="round"/>
<path d="M10.5955 13.5544H1" stroke="#CA1118" stroke-width="2" stroke-miterlimit="10" stroke-linecap="round" stroke-linejoin="round"/>
<path d="M11.4856 15.5918L4.7002 22.3772" stroke="#CA1118" stroke-width="2" stroke-miterlimit="10" stroke-linecap="round" stroke-linejoin="round"/>
<path d="M13.5557 16.4033V25.9988" stroke="#CA1118" stroke-width="2" stroke-miterlimit="10" stroke-linecap="round" stroke-linejoin="round"/>
<path d="M15.5928 15.5137L22.3777 22.2986" stroke="#CA1118" stroke-width="2" stroke-miterlimit="10" stroke-linecap="round" stroke-linejoin="round"/>
<path d="M16.4043 13.4438H25.9998" stroke="#CA1118" stroke-width="2" stroke-miterlimit="10" stroke-linecap="round" stroke-linejoin="round"/>
<path d="M15.5137 11.4065L22.2991 4.62158" stroke="#CA1118" stroke-width="2" stroke-miterlimit="10" stroke-linecap="round" stroke-linejoin="round"/>
<path d="M18.8545 8.06655L19.3245 3.52539" stroke="#CA1118" stroke-width="2" stroke-miterlimit="10" stroke-linecap="round" stroke-linejoin="round"/>
<path d="M18.8545 8.06668L23.3957 7.59668" stroke="#CA1118" stroke-width="2" stroke-miterlimit="10" stroke-linecap="round" stroke-linejoin="round"/>
</svg>
