<svg width="56" height="71" viewBox="0 0 56 71" fill="none" xmlns="http://www.w3.org/2000/svg">
<rect x="2.78342" y="2.62912" width="38.3341" height="65.9703" rx="4.9032" stroke="black" stroke-width="4.45746"/>
<path d="M40.6715 52.9984H50.4779C51.955 52.9984 53.1524 51.8009 53.1524 50.3239V22.6877C53.1524 21.2106 51.955 20.0132 50.4779 20.0132H40.6715" stroke="black" stroke-width="4.45746"/>
<rect x="9.02364" y="12.4359" width="25.8532" height="44.5746" stroke="black" stroke-width="2.67447"/>
<rect x="20.1672" y="22.688" width="31.2022" height="9.8064" rx="0.891491" fill="#E45142" stroke="#F0F0F0" stroke-width="1.78298"/>
<rect x="20.1672" y="32.4941" width="31.2022" height="9.8064" rx="0.891491" fill="#E45142" stroke="#F0F0F0" stroke-width="1.78298"/>
<rect x="20.1672" y="42.3008" width="31.2022" height="9.8064" rx="0.891491" fill="#E45142" stroke="#F0F0F0" stroke-width="1.78298"/>
<rect x="7.6864" y="15.5562" width="28.5277" height="1.78298" fill="black"/>
<rect x="12.1438" y="13.7729" width="1.78298" height="1.78298" fill="black"/>
<rect x="24.6248" y="26.2539" width="10.6979" height="1.78298" fill="#F0F0F0"/>
<rect x="24.6248" y="36.0601" width="10.6979" height="1.78298" fill="#F0F0F0"/>
<rect x="24.6248" y="45.8667" width="10.6979" height="1.78298" fill="#F0F0F0"/>
<rect x="37.9971" y="26.2539" width="4.45746" height="1.78298" fill="#F0F0F0"/>
<rect x="37.9971" y="36.0601" width="4.45746" height="1.78298" fill="#F0F0F0"/>
<rect x="37.9971" y="45.8667" width="4.45746" height="1.78298" fill="#F0F0F0"/>
<rect x="44.2375" y="26.2539" width="2.67447" height="1.78298" fill="#F0F0F0"/>
<rect x="44.2375" y="36.0601" width="2.67447" height="1.78298" fill="#F0F0F0"/>
<rect x="44.2375" y="45.8667" width="2.67447" height="1.78298" fill="#F0F0F0"/>
<rect x="18.3843" y="6.64111" width="7.13193" height="1.78298" fill="black"/>
<circle cx="21.9502" cy="62.8048" r="1.78298" stroke="black" stroke-width="1.78298"/>
</svg>
