<svg width="77" height="76" viewBox="0 0 77 76" fill="none" xmlns="http://www.w3.org/2000/svg">
<path d="M52.8994 17.6908H73.4386V47.657H64.8054H3.78602V42.9156V21.9201V17.6908H52.8994Z" stroke="black" stroke-width="1.78298" stroke-linecap="round" stroke-linejoin="bevel"/>
<path d="M31.8656 58.073H8.24348C5.28934 58.073 2.89453 55.6782 2.89453 52.724V49.342V16.7991V14.2108C2.89453 11.2566 5.28934 8.86182 8.24348 8.86182H68.9812C71.9353 8.86182 74.3301 11.2566 74.3301 14.2108V52.724C74.3301 55.6782 71.9353 58.073 68.9812 58.073H45.359" stroke="black" stroke-width="4.45746" stroke-linecap="round"/>
<path d="M38.4746 14.1876L57.5218 22.4265C58.2364 22.7356 58.2392 23.748 57.5263 24.061L38.4793 32.4249C38.247 32.5269 37.9822 32.5251 37.7513 32.4199L19.3865 24.056C18.6884 23.738 18.6912 22.7453 19.3911 22.4313L37.7558 14.1924C37.9841 14.09 38.2449 14.0882 38.4746 14.1876Z" fill="#E45142" stroke="#F0F0F0" stroke-width="1.78298"/>
<path d="M37.8327 33.9209L38.2156 34.103L38.5985 33.9209L48.0394 29.4307L48.0394 36.8227C48.0394 37.8284 47.2231 38.9668 45.3863 39.9068C43.5971 40.8225 41.0632 41.4152 38.2156 41.4152C35.3679 41.4152 32.8341 40.8225 31.0448 39.9068C29.2081 38.9668 28.3917 37.8284 28.3917 36.8227L28.3917 29.4307L37.8327 33.9209Z" fill="#E45142" stroke="#E45142" stroke-width="1.78298"/>
<path d="M53.693 26.4321V39.8171" stroke="#E45142" stroke-width="1.78298"/>
<path d="M50.5188 50.4874L52.3134 42.9922C52.766 43.436 52.8419 43.6736 54.108 44.0629C54.108 46.3234 54.1798 50.9871 54.4669 51.5581C54.7541 52.1292 51.9545 51.0823 50.5188 50.4874Z" fill="#F0F0F0" stroke="#E45142" stroke-width="1.78298"/>
<path d="M56.868 48.3218L54.4868 49.3423L54.09 43.7862L55.1672 42.1987L56.868 48.3218Z" fill="#F0F0F0" stroke="#E45142" stroke-width="1.78298"/>
<path d="M32.545 58.0728L29.8813 64.4226M44.3837 58.0728L47.3434 64.4226" stroke="black" stroke-width="4.45746" stroke-linecap="round"/>
<path d="M29.881 64.4229H25.3141C24.3294 64.4229 23.5311 65.2211 23.5311 66.2058V71.3709C23.5311 72.3556 24.3294 73.1539 25.3141 73.1539H51.9098C52.8945 73.1539 53.6928 72.3556 53.6928 71.3709V66.2058C53.6928 65.2211 52.8945 64.4229 51.9098 64.4229L47.7398 64.4229" stroke="black" stroke-width="4.45746" stroke-linecap="round"/>
<circle cx="38.1084" cy="52.2829" r="1.33724" stroke="black" stroke-width="1.78298"/>
<circle cx="53.6931" cy="41.4046" r="1.48969" fill="#F0F0F0" stroke="#E45142" stroke-width="1.78298"/>
<path d="M32.2623 57.2793H44.5651" stroke="black" stroke-width="1.78298"/>
<path d="M29.8813 65.2168H47.3434" stroke="black" stroke-width="1.78298"/>
</svg>
