<svg width="75" height="64" viewBox="0 0 75 64" fill="none" xmlns="http://www.w3.org/2000/svg">
<rect x="28.2142" y="16.6381" width="18.4728" height="11.9909" rx="2.67447" fill="#E45142" stroke="#F0F0F0" stroke-width="1.78298"/>
<rect x="28.214" y="30.8602" width="18.4728" height="11.9909" rx="2.67447" fill="#E45142" stroke="#F0F0F0" stroke-width="1.78298"/>
<rect x="28.214" y="45.723" width="18.4728" height="11.9909" rx="2.67447" fill="#E45142" stroke="#F0F0F0" stroke-width="1.78298"/>
<path d="M39.8957 21.9298C40.49 22.273 40.49 23.1308 39.8957 23.474L36.8796 25.2153C36.2853 25.5584 35.5424 25.1295 35.5424 24.4432L35.5424 20.9606C35.5424 20.2743 36.2853 19.8454 36.8796 20.1885L39.8957 21.9298Z" fill="#F0F0F0"/>
<path d="M39.8957 36.152C40.49 36.4951 40.49 37.353 39.8957 37.6961L36.8796 39.4374C36.2853 39.7806 35.5424 39.3517 35.5424 38.6654L35.5424 35.1827C35.5424 34.4965 36.2853 34.0675 36.8796 34.4107L39.8957 36.152Z" fill="#F0F0F0"/>
<path d="M39.8957 51.0148C40.49 51.3579 40.49 52.2158 39.8957 52.5589L36.8796 54.3002C36.2853 54.6434 35.5424 54.2145 35.5424 53.5282L35.5424 50.0455C35.5424 49.3593 36.2853 48.9303 36.8796 49.2735L39.8957 51.0148Z" fill="#F0F0F0"/>
<rect x="6.32655" y="31.1806" width="18.4728" height="11.9909" rx="2.67447" fill="#E45142" stroke="#F0F0F0" stroke-width="1.78298"/>
<rect x="6.32728" y="16.6381" width="18.4728" height="11.9909" rx="2.67447" fill="#E45142" stroke="#F0F0F0" stroke-width="1.78298"/>
<rect x="6.32655" y="45.723" width="18.4728" height="11.9909" rx="2.67447" fill="#E45142" stroke="#F0F0F0" stroke-width="1.78298"/>
<path d="M18.0082 36.4723C18.6026 36.8155 18.6025 37.6733 18.0082 38.0164L14.9922 39.7578C14.3978 40.1009 13.6549 39.672 13.6549 38.9857L13.6549 35.503C13.6549 34.8168 14.3978 34.3879 14.9922 34.731L18.0082 36.4723Z" fill="#F0F0F0"/>
<path d="M18.0082 21.9298C18.6026 22.273 18.6025 23.1308 18.0082 23.474L14.9922 25.2153C14.3978 25.5584 13.6549 25.1295 13.6549 24.4432L13.6549 20.9606C13.6549 20.2743 14.3978 19.8454 14.9922 20.1885L18.0082 21.9298Z" fill="#F0F0F0"/>
<path d="M18.0082 51.0148C18.6026 51.3579 18.6025 52.2158 18.0082 52.5589L14.9922 54.3002C14.3978 54.6434 13.6549 54.2145 13.6549 53.5282L13.6549 50.0455C13.6549 49.3593 14.3978 48.9303 14.9922 49.2735L18.0082 51.0148Z" fill="#F0F0F0"/>
<rect x="49.8829" y="31.1806" width="18.4728" height="11.9909" rx="2.67447" fill="#E45142" stroke="#F0F0F0" stroke-width="1.78298"/>
<rect x="49.8827" y="16.6381" width="18.4728" height="11.9909" rx="2.67447" fill="#E45142" stroke="#F0F0F0" stroke-width="1.78298"/>
<rect x="49.8829" y="45.723" width="18.4728" height="11.9909" rx="2.67447" fill="#E45142" stroke="#F0F0F0" stroke-width="1.78298"/>
<path d="M61.5646 36.4723C62.1589 36.8155 62.1589 37.6733 61.5646 38.0164L58.5485 39.7578C57.9542 40.1009 57.2113 39.672 57.2113 38.9857L57.2113 35.503C57.2113 34.8168 57.9542 34.3879 58.5485 34.731L61.5646 36.4723Z" fill="#F0F0F0"/>
<path d="M61.5646 21.9298C62.1589 22.273 62.1589 23.1308 61.5646 23.474L58.5485 25.2153C57.9542 25.5584 57.2113 25.1295 57.2113 24.4432L57.2113 20.9606C57.2113 20.2743 57.9542 19.8454 58.5485 20.1885L61.5646 21.9298Z" fill="#F0F0F0"/>
<path d="M61.5646 51.0148C62.1589 51.3579 62.1589 52.2158 61.5646 52.5589L58.5485 54.3002C57.9542 54.6434 57.2113 54.2145 57.2113 53.5282L57.2113 50.0455C57.2113 49.3593 57.9542 48.9303 58.5485 49.2735L61.5646 51.0148Z" fill="#F0F0F0"/>
<mask id="path-19-inside-1" fill="white">
<rect y="10.1904" width="74.8852" height="53.7638" rx="3.56596"/>
</mask>
<rect y="10.1904" width="74.8852" height="53.7638" rx="3.56596" stroke="black" stroke-width="8.91491" mask="url(#path-19-inside-1)"/>
<mask id="path-20-inside-2" fill="white">
<rect x="23.0413" y="0.589844" width="29.7621" height="13.4409" rx="2.67447"/>
</mask>
<rect x="23.0413" y="0.589844" width="29.7621" height="13.4409" rx="2.67447" stroke="black" stroke-width="8.91491" mask="url(#path-20-inside-2)"/>
</svg>
