<svg width="104" height="82" viewBox="0 0 104 82" fill="none" xmlns="http://www.w3.org/2000/svg">
<mask id="path-1-inside-1" fill="white">
<path d="M84.4746 17.0381C80.1677 14.205 74.9516 13.0981 69.8653 13.938C64.779 14.7779 60.1957 17.503 57.0283 21.5703C53.8609 25.6377 52.3419 30.749 52.7737 35.8861C53.2056 41.0231 55.5567 45.809 59.3587 49.2905C63.1607 52.772 68.1346 54.6936 73.2898 54.6725C78.4449 54.6514 83.403 52.6892 87.1764 49.1768C90.9498 45.6643 93.2617 40.8594 93.6515 35.7189C94.0414 30.5785 92.4806 25.4798 89.28 21.4385L73.206 34.1684L84.4746 17.0381Z"/>
</mask>
<path d="M84.4746 17.0381C80.1677 14.205 74.9516 13.0981 69.8653 13.938C64.779 14.7779 60.1957 17.503 57.0283 21.5703C53.8609 25.6377 52.3419 30.749 52.7737 35.8861C53.2056 41.0231 55.5567 45.809 59.3587 49.2905C63.1607 52.772 68.1346 54.6936 73.2898 54.6725C78.4449 54.6514 83.403 52.6892 87.1764 49.1768C90.9498 45.6643 93.2617 40.8594 93.6515 35.7189C94.0414 30.5785 92.4806 25.4798 89.28 21.4385L73.206 34.1684L84.4746 17.0381Z" fill="#F0F0F0" stroke="black" stroke-width="3.56596" mask="url(#path-1-inside-1)"/>
<mask id="path-2-inside-2" fill="white">
<path d="M87.4143 12.5692C82.5845 9.39207 76.8292 7.9254 71.0679 8.40351C65.3066 8.88162 59.8718 11.2769 55.6318 15.2067C51.3918 19.1365 48.5913 24.3741 47.6777 30.0825C46.7641 35.791 47.7901 41.6409 50.5919 46.6977C53.3936 51.7545 57.8094 55.7264 63.1337 57.9786C68.458 60.2309 74.3836 60.6337 79.9637 59.1226C85.5438 57.6115 90.4564 54.2738 93.9167 49.6426C97.377 45.0114 99.1852 39.3541 99.0524 33.5746L73.206 34.1682L87.4143 12.5692Z"/>
</mask>
<path d="M87.4143 12.5692C82.5845 9.39207 76.8292 7.9254 71.0679 8.40351C65.3066 8.88162 59.8718 11.2769 55.6318 15.2067C51.3918 19.1365 48.5913 24.3741 47.6777 30.0825C46.7641 35.791 47.7901 41.6409 50.5919 46.6977C53.3936 51.7545 57.8094 55.7264 63.1337 57.9786C68.458 60.2309 74.3836 60.6337 79.9637 59.1226C85.5438 57.6115 90.4564 54.2738 93.9167 49.6426C97.377 45.0114 99.1852 39.3541 99.0524 33.5746L73.206 34.1682L87.4143 12.5692Z" fill="#F0F0F0" stroke="black" stroke-width="3.56596" mask="url(#path-2-inside-2)"/>
<mask id="path-3-inside-3" fill="white">
<path d="M89.8639 8.84518C85.3638 5.88492 80.1561 4.17732 74.7769 3.89816C69.3976 3.61899 64.0412 4.77834 59.2588 7.25687C54.4764 9.7354 50.441 13.4436 47.5677 17.9997C44.6944 22.5559 43.0872 27.7954 42.9114 33.179C42.7356 38.5626 43.9977 43.8958 46.5676 48.6297C49.1376 53.3635 52.9226 57.3271 57.5331 60.1123C62.1436 62.8975 67.413 64.4038 72.799 64.4761C78.185 64.5484 83.493 63.1841 88.1766 60.5237L73.206 34.1681L89.8639 8.84518Z"/>
</mask>
<path d="M89.8639 8.84518C85.3638 5.88492 80.1561 4.17732 74.7769 3.89816C69.3976 3.61899 64.0412 4.77834 59.2588 7.25687C54.4764 9.7354 50.441 13.4436 47.5677 17.9997C44.6944 22.5559 43.0872 27.7954 42.9114 33.179C42.7356 38.5626 43.9977 43.8958 46.5676 48.6297C49.1376 53.3635 52.9226 57.3271 57.5331 60.1123C62.1436 62.8975 67.413 64.4038 72.799 64.4761C78.185 64.5484 83.493 63.1841 88.1766 60.5237L73.206 34.1681L89.8639 8.84518Z" fill="#F0F0F0" stroke="black" stroke-width="3.56596" mask="url(#path-3-inside-3)"/>
<mask id="path-4-inside-4" fill="white">
<path d="M8.47698 25.9195C8.47698 20.9964 12.7408 15.8474 14.2269 14.2024C14.5452 13.85 14.9975 13.6641 15.4723 13.6641H63.2944C64.7827 13.6641 65.6548 15.4072 64.827 16.644C63.016 19.3498 60.7121 23.3058 60.7121 25.9195C60.7121 30.2254 60.7121 64.0437 60.7121 69.6414C60.7121 75.2391 56.2564 77.8514 53.785 77.8514C51.7269 77.8514 17.1039 77.8514 5.58226 77.8514C4.08585 77.8514 3.27713 76.1193 4.21386 74.9523L8.08443 70.1304C8.3385 69.8139 8.47698 69.4428 8.47698 69.037C8.47698 64.1716 8.47698 31.4357 8.47698 25.9195Z"/>
</mask>
<path d="M8.47698 25.9195C8.47698 20.9964 12.7408 15.8474 14.2269 14.2024C14.5452 13.85 14.9975 13.6641 15.4723 13.6641H63.2944C64.7827 13.6641 65.6548 15.4072 64.827 16.644C63.016 19.3498 60.7121 23.3058 60.7121 25.9195C60.7121 30.2254 60.7121 64.0437 60.7121 69.6414C60.7121 75.2391 56.2564 77.8514 53.785 77.8514C51.7269 77.8514 17.1039 77.8514 5.58226 77.8514C4.08585 77.8514 3.27713 76.1193 4.21386 74.9523L8.08443 70.1304C8.3385 69.8139 8.47698 69.4428 8.47698 69.037C8.47698 64.1716 8.47698 31.4357 8.47698 25.9195Z" fill="#F0F0F0"/>
<path d="M4.21386 74.9523L2.82342 73.8362L4.21386 74.9523ZM5.58226 77.8514V76.0684V77.8514ZM64.827 16.644L66.3087 17.6357L64.827 16.644ZM14.2269 14.2024L15.55 15.3976L14.2269 14.2024ZM8.08443 70.1304L9.47487 71.2465L8.08443 70.1304ZM58.9291 25.9195C58.9291 30.3143 58.9291 63.9548 58.9291 69.6414H62.495C62.495 63.9548 62.495 30.3143 62.495 25.9195H58.9291ZM10.26 69.037C10.26 69.0275 10.26 69.0179 10.26 69.0081C10.26 68.9984 10.26 68.9886 10.26 68.9787C10.26 68.9688 10.26 68.9587 10.26 68.9486C10.26 68.9384 10.26 68.9282 10.26 68.9179C10.26 68.9075 10.26 68.8971 10.26 68.8865C10.26 68.8759 10.26 68.8653 10.26 68.8545C10.26 68.8438 10.26 68.8329 10.26 68.8219C10.26 68.8109 10.26 68.7999 10.26 68.7887C10.26 68.7775 10.26 68.7662 10.26 68.7549C10.26 68.7435 10.26 68.732 10.26 68.7204C10.26 68.7088 10.26 68.6971 10.26 68.6853C10.26 68.6735 10.26 68.6616 10.26 68.6496C10.26 68.6376 10.26 68.6256 10.26 68.6134C10.26 68.6012 10.26 68.5889 10.26 68.5765C10.26 68.5641 10.26 68.5516 10.26 68.539C10.26 68.5264 10.26 68.5137 10.26 68.5009C10.26 68.4881 10.26 68.4752 10.26 68.4622C10.26 68.4492 10.26 68.4361 10.26 68.4229C10.26 68.4097 10.26 68.3964 10.26 68.383C10.26 68.3696 10.26 68.3561 10.26 68.3425C10.26 68.3289 10.26 68.3152 10.26 68.3014C10.26 68.2876 10.26 68.2738 10.26 68.2598C10.26 68.2458 10.26 68.2317 10.26 68.2175C10.26 68.2034 10.26 68.1891 10.26 68.1747C10.26 68.1604 10.26 68.1459 10.26 68.1313C10.26 68.1168 10.26 68.1021 10.26 68.0874C10.26 68.0726 10.26 68.0578 10.26 68.0428C10.26 68.0279 10.26 68.0128 10.26 67.9977C10.26 67.9826 10.26 67.9673 10.26 67.952C10.26 67.9367 10.26 67.9213 10.26 67.9057C10.26 67.8902 10.26 67.8746 10.26 67.8589C10.26 67.8432 10.26 67.8274 10.26 67.8115C10.26 67.7957 10.26 67.7797 10.26 67.7636C10.26 67.7475 10.26 67.7314 10.26 67.7151C10.26 67.6989 10.26 67.6825 10.26 67.6661C10.26 67.6496 10.26 67.6331 10.26 67.6165C10.26 67.5998 10.26 67.5831 10.26 67.5663C10.26 67.5495 10.26 67.5326 10.26 67.5156C10.26 67.4986 10.26 67.4815 10.26 67.4644C10.26 67.4472 10.26 67.4299 10.26 67.4126C10.26 67.3952 10.26 67.3778 10.26 67.3603C10.26 67.3427 10.26 67.3251 10.26 67.3074C10.26 67.2897 10.26 67.2719 10.26 67.254C10.26 67.2361 10.26 67.2181 10.26 67.2001C10.26 67.182 10.26 67.1639 10.26 67.1456C10.26 67.1274 10.26 67.1091 10.26 67.0906C10.26 67.0722 10.26 67.0537 10.26 67.0351C10.26 67.0165 10.26 66.9979 10.26 66.9791C10.26 66.9603 10.26 66.9415 10.26 66.9225C10.26 66.9036 10.26 66.8846 10.26 66.8655C10.26 66.8464 10.26 66.8272 10.26 66.8079C10.26 66.7886 10.26 66.7693 10.26 66.7498C10.26 66.7304 10.26 66.7108 10.26 66.6912C10.26 66.6716 10.26 66.6519 10.26 66.6321C10.26 66.6123 10.26 66.5924 10.26 66.5725C10.26 66.5525 10.26 66.5325 10.26 66.5124C10.26 66.4922 10.26 66.472 10.26 66.4517C10.26 66.4314 10.26 66.4111 10.26 66.3906C10.26 66.3702 10.26 66.3496 10.26 66.329C10.26 66.3084 10.26 66.2877 10.26 66.2669C10.26 66.2461 10.26 66.2253 10.26 66.2043C10.26 66.1834 10.26 66.1623 10.26 66.1412C10.26 66.1201 10.26 66.0989 10.26 66.0777C10.26 66.0564 10.26 66.035 10.26 66.0136C10.26 65.9922 10.26 65.9707 10.26 65.9491C10.26 65.9275 10.26 65.9058 10.26 65.8841C10.26 65.8623 10.26 65.8405 10.26 65.8186C10.26 65.7967 10.26 65.7747 10.26 65.7526C10.26 65.7306 10.26 65.7084 10.26 65.6862C10.26 65.664 10.26 65.6417 10.26 65.6193C10.26 65.5969 10.26 65.5745 10.26 65.5519C10.26 65.5294 10.26 65.5068 10.26 65.4841C10.26 65.4614 10.26 65.4387 10.26 65.4158C10.26 65.393 10.26 65.3701 10.26 65.3471C10.26 65.3241 10.26 65.301 10.26 65.2779C10.26 65.2548 10.26 65.2315 10.26 65.2083C10.26 65.185 10.26 65.1616 10.26 65.1381C10.26 65.1147 10.26 65.0912 10.26 65.0676C10.26 65.044 10.26 65.0203 10.26 64.9966C10.26 64.9729 10.26 64.9491 10.26 64.9252C10.26 64.9013 10.26 64.8773 10.26 64.8533C10.26 64.8293 10.26 64.8051 10.26 64.781C10.26 64.7568 10.26 64.7325 10.26 64.7082C10.26 64.6839 10.26 64.6595 10.26 64.635C10.26 64.6106 10.26 64.586 10.26 64.5614C10.26 64.5368 10.26 64.5121 10.26 64.4874C10.26 64.4626 10.26 64.4378 10.26 64.4129C10.26 64.388 10.26 64.363 10.26 64.338C10.26 64.313 10.26 64.2878 10.26 64.2627C10.26 64.2375 10.26 64.2122 10.26 64.1869C10.26 64.1616 10.26 64.1362 10.26 64.1108C10.26 64.0853 10.26 64.0598 10.26 64.0342C10.26 64.0086 10.26 63.983 10.26 63.9572C10.26 63.9315 10.26 63.9057 10.26 63.8798C10.26 63.854 10.26 63.8281 10.26 63.8021C10.26 63.7761 10.26 63.75 10.26 63.7239C10.26 63.6977 10.26 63.6715 10.26 63.6453C10.26 63.619 10.26 63.5927 10.26 63.5663C10.26 63.5399 10.26 63.5134 10.26 63.4869C10.26 63.4603 10.26 63.4337 10.26 63.4071C10.26 63.3804 10.26 63.3537 10.26 63.3269C10.26 63.3001 10.26 63.2732 10.26 63.2463C10.26 63.2194 10.26 63.1924 10.26 63.1654C10.26 63.1383 10.26 63.1112 10.26 63.084C10.26 63.0569 10.26 63.0296 10.26 63.0023C10.26 62.975 10.26 62.9476 10.26 62.9202C10.26 62.8928 10.26 62.8653 10.26 62.8377C10.26 62.8102 10.26 62.7826 10.26 62.7549C10.26 62.7272 10.26 62.6995 10.26 62.6716C10.26 62.6438 10.26 62.616 10.26 62.5881C10.26 62.5601 10.26 62.5321 10.26 62.5041C10.26 62.476 10.26 62.4479 10.26 62.4198C10.26 62.3916 10.26 62.3634 10.26 62.3351C10.26 62.3068 10.26 62.2784 10.26 62.25C10.26 62.2216 10.26 62.1932 10.26 62.1646C10.26 62.1361 10.26 62.1075 10.26 62.0789C10.26 62.0502 10.26 62.0215 10.26 61.9928C10.26 61.964 10.26 61.9352 10.26 61.9063C10.26 61.8774 10.26 61.8485 10.26 61.8195C10.26 61.7905 10.26 61.7614 10.26 61.7323C10.26 61.7032 10.26 61.6741 10.26 61.6448C10.26 61.6156 10.26 61.5863 10.26 61.557C10.26 61.5277 10.26 61.4983 10.26 61.4688C10.26 61.4394 10.26 61.4099 10.26 61.3803C10.26 61.3508 10.26 61.3211 10.26 61.2915C10.26 61.2618 10.26 61.2321 10.26 61.2023C10.26 61.1725 10.26 61.1427 10.26 61.1128C10.26 61.0829 10.26 61.053 10.26 61.023C10.26 60.993 10.26 60.9629 10.26 60.9328C10.26 60.9027 10.26 60.8726 10.26 60.8424C10.26 60.8122 10.26 60.7819 10.26 60.7516C10.26 60.7213 10.26 60.6909 10.26 60.6605C10.26 60.6301 10.26 60.5996 10.26 60.5691C10.26 60.5386 10.26 60.508 10.26 60.4774C10.26 60.4467 10.26 60.416 10.26 60.3853C10.26 60.3546 10.26 60.3238 10.26 60.293C10.26 60.2622 10.26 60.2313 10.26 60.2003C10.26 60.1694 10.26 60.1384 10.26 60.1074C10.26 60.0764 10.26 60.0453 10.26 60.0142C10.26 59.983 10.26 59.9519 10.26 59.9206C10.26 59.8894 10.26 59.8581 10.26 59.8268C10.26 59.7955 10.26 59.7641 10.26 59.7327C10.26 59.7013 10.26 59.6698 10.26 59.6383C10.26 59.6068 10.26 59.5752 10.26 59.5436C10.26 59.512 10.26 59.4803 10.26 59.4486C10.26 59.4169 10.26 59.3852 10.26 59.3534C10.26 59.3216 10.26 59.2897 10.26 59.2578C10.26 59.2259 10.26 59.194 10.26 59.162C10.26 59.13 10.26 59.098 10.26 59.0659C10.26 59.0339 10.26 59.0018 10.26 58.9696C10.26 58.9374 10.26 58.9052 10.26 58.873C10.26 58.8407 10.26 58.8084 10.26 58.7761C10.26 58.7437 10.26 58.7114 10.26 58.6789C10.26 58.6465 10.26 58.614 10.26 58.5815C10.26 58.549 10.26 58.5164 10.26 58.4838C10.26 58.4512 10.26 58.4186 10.26 58.3859C10.26 58.3532 10.26 58.3205 10.26 58.2877C10.26 58.255 10.26 58.2222 10.26 58.1893C10.26 58.1564 10.26 58.1236 10.26 58.0906C10.26 58.0577 10.26 58.0247 10.26 57.9917C10.26 57.9587 10.26 57.9256 10.26 57.8925C10.26 57.8594 10.26 57.8263 10.26 57.7931C10.26 57.7599 10.26 57.7267 10.26 57.6935C10.26 57.6602 10.26 57.6269 10.26 57.5936C10.26 57.5602 10.26 57.5269 10.26 57.4934C10.26 57.46 10.26 57.4266 10.26 57.3931C10.26 57.3596 10.26 57.3261 10.26 57.2925C10.26 57.2589 10.26 57.2253 10.26 57.1917C10.26 57.1581 10.26 57.1244 10.26 57.0907C10.26 57.0569 10.26 57.0232 10.26 56.9894C10.26 56.9556 10.26 56.9218 10.26 56.8879C10.26 56.8541 10.26 56.8202 10.26 56.7862C10.26 56.7523 10.26 56.7183 10.26 56.6843C10.26 56.6503 10.26 56.6163 10.26 56.5822C10.26 56.5481 10.26 56.514 10.26 56.4799C10.26 56.4457 10.26 56.4116 10.26 56.3774C10.26 56.3431 10.26 56.3089 10.26 56.2746C10.26 56.2403 10.26 56.206 10.26 56.1717C10.26 56.1373 10.26 56.1029 10.26 56.0685C10.26 56.0341 10.26 55.9997 10.26 55.9652C10.26 55.9307 10.26 55.8962 10.26 55.8617C10.26 55.8271 10.26 55.7925 10.26 55.7579C10.26 55.7233 10.26 55.6887 10.26 55.654C10.26 55.6194 10.26 55.5847 10.26 55.5499C10.26 55.5152 10.26 55.4804 10.26 55.4456C10.26 55.4108 10.26 55.376 10.26 55.3412C10.26 55.3063 10.26 55.2714 10.26 55.2365C10.26 55.2016 10.26 55.1667 10.26 55.1317C10.26 55.0967 10.26 55.0617 10.26 55.0267C10.26 54.9917 10.26 54.9566 10.26 54.9215C10.26 54.8864 10.26 54.8513 10.26 54.8162C10.26 54.781 10.26 54.7459 10.26 54.7107C10.26 54.6755 10.26 54.6403 10.26 54.605C10.26 54.5697 10.26 54.5345 10.26 54.4992C10.26 54.4639 10.26 54.4285 10.26 54.3932C10.26 54.3578 10.26 54.3224 10.26 54.287C10.26 54.2516 10.26 54.2162 10.26 54.1807C10.26 54.1452 10.26 54.1097 10.26 54.0742C10.26 54.0387 10.26 54.0032 10.26 53.9676C10.26 53.9321 10.26 53.8965 10.26 53.8609C10.26 53.8252 10.26 53.7896 10.26 53.7539C10.26 53.7183 10.26 53.6826 10.26 53.6469C10.26 53.6112 10.26 53.5755 10.26 53.5397C10.26 53.504 10.26 53.4682 10.26 53.4324C10.26 53.3966 10.26 53.3608 10.26 53.3249C10.26 53.2891 10.26 53.2532 10.26 53.2173C10.26 53.1814 10.26 53.1455 10.26 53.1096C10.26 53.0737 10.26 53.0377 10.26 53.0017C10.26 52.9658 10.26 52.9298 10.26 52.8938C10.26 52.8577 10.26 52.8217 10.26 52.7857C10.26 52.7496 10.26 52.7135 10.26 52.6774C10.26 52.6413 10.26 52.6052 10.26 52.5691C10.26 52.5329 10.26 52.4968 10.26 52.4606C10.26 52.4245 10.26 52.3883 10.26 52.3521C10.26 52.3158 10.26 52.2796 10.26 52.2434C10.26 52.2071 10.26 52.1709 10.26 52.1346C10.26 52.0983 10.26 52.062 10.26 52.0257C10.26 51.9894 10.26 51.953 10.26 51.9167C10.26 51.8803 10.26 51.844 10.26 51.8076C10.26 51.7712 10.26 51.7348 10.26 51.6984C10.26 51.662 10.26 51.6255 10.26 51.5891C10.26 51.5526 10.26 51.5162 10.26 51.4797C10.26 51.4432 10.26 51.4067 10.26 51.3702C10.26 51.3337 10.26 51.2972 10.26 51.2606C10.26 51.2241 10.26 51.1875 10.26 51.151C10.26 51.1144 10.26 51.0778 10.26 51.0412C10.26 51.0046 10.26 50.968 10.26 50.9314C10.26 50.8948 10.26 50.8582 10.26 50.8215C10.26 50.7849 10.26 50.7482 10.26 50.7115C10.26 50.6749 10.26 50.6382 10.26 50.6015C10.26 50.5648 10.26 50.5281 10.26 50.4914C10.26 50.4546 10.26 50.4179 10.26 50.3812C10.26 50.3444 10.26 50.3077 10.26 50.2709C10.26 50.2341 10.26 50.1974 10.26 50.1606C10.26 50.1238 10.26 50.087 10.26 50.0502C10.26 50.0134 10.26 49.9766 10.26 49.9398C10.26 49.9029 10.26 49.8661 10.26 49.8293C10.26 49.7924 10.26 49.7556 10.26 49.7187C10.26 49.6819 10.26 49.645 10.26 49.6081C10.26 49.5712 10.26 49.5343 10.26 49.4974C10.26 49.4606 10.26 49.4237 10.26 49.3867C10.26 49.3498 10.26 49.3129 10.26 49.276C10.26 49.2391 10.26 49.2021 10.26 49.1652C10.26 49.1283 10.26 49.0913 10.26 49.0544C10.26 49.0174 10.26 48.9805 10.26 48.9435C10.26 48.9066 10.26 48.8696 10.26 48.8326C10.26 48.7956 10.26 48.7587 10.26 48.7217C10.26 48.6847 10.26 48.6477 10.26 48.6107C10.26 48.5737 10.26 48.5367 10.26 48.4997C10.26 48.4627 10.26 48.4257 10.26 48.3887C10.26 48.3517 10.26 48.3147 10.26 48.2777C10.26 48.2407 10.26 48.2037 10.26 48.1666C10.26 48.1296 10.26 48.0926 10.26 48.0556C10.26 48.0185 10.26 47.9815 10.26 47.9445C10.26 47.9074 10.26 47.8704 10.26 47.8334C10.26 47.7963 10.26 47.7593 10.26 47.7223C10.26 47.6852 10.26 47.6482 10.26 47.6112C10.26 47.5741 10.26 47.5371 10.26 47.5C10.26 47.463 10.26 47.4259 10.26 47.3889C10.26 47.3519 10.26 47.3148 10.26 47.2778C10.26 47.2407 10.26 47.2037 10.26 47.1667C10.26 47.1296 10.26 47.0926 10.26 47.0555C10.26 47.0185 10.26 46.9815 10.26 46.9444C10.26 46.9074 10.26 46.8704 10.26 46.8333C10.26 46.7963 10.26 46.7593 10.26 46.7222C10.26 46.6852 10.26 46.6482 10.26 46.6112C10.26 46.5742 10.26 46.5371 10.26 46.5001C10.26 46.4631 10.26 46.4261 10.26 46.3891C10.26 46.3521 10.26 46.3151 10.26 46.2781C10.26 46.2411 10.26 46.2041 10.26 46.1671C10.26 46.1301 10.26 46.0931 10.26 46.0561C10.26 46.0191 10.26 45.9822 10.26 45.9452C10.26 45.9082 10.26 45.8712 10.26 45.8343C10.26 45.7973 10.26 45.7604 10.26 45.7234C10.26 45.6865 10.26 45.6495 10.26 45.6126C10.26 45.5756 10.26 45.5387 10.26 45.5018C10.26 45.4649 10.26 45.428 10.26 45.391C10.26 45.3541 10.26 45.3172 10.26 45.2803C10.26 45.2434 10.26 45.2066 10.26 45.1697C10.26 45.1328 10.26 45.0959 10.26 45.0591C10.26 45.0222 10.26 44.9854 10.26 44.9485C10.26 44.9117 10.26 44.8748 10.26 44.838C10.26 44.8012 10.26 44.7644 10.26 44.7276C10.26 44.6908 10.26 44.654 10.26 44.6172C10.26 44.5804 10.26 44.5436 10.26 44.5069C10.26 44.4701 10.26 44.4333 10.26 44.3966C10.26 44.3599 10.26 44.3231 10.26 44.2864C10.26 44.2497 10.26 44.213 10.26 44.1763C10.26 44.1396 10.26 44.1029 10.26 44.0662C10.26 44.0295 10.26 43.9929 10.26 43.9562C10.26 43.9196 10.26 43.883 10.26 43.8463C10.26 43.8097 10.26 43.7731 10.26 43.7365C10.26 43.6999 10.26 43.6633 10.26 43.6268C10.26 43.5902 10.26 43.5536 10.26 43.5171C10.26 43.4806 10.26 43.444 10.26 43.4075C10.26 43.371 10.26 43.3345 10.26 43.298C10.26 43.2616 10.26 43.2251 10.26 43.1886C10.26 43.1522 10.26 43.1158 10.26 43.0793C10.26 43.0429 10.26 43.0065 10.26 42.9701C10.26 42.9338 10.26 42.8974 10.26 42.861C10.26 42.8247 10.26 42.7883 10.26 42.752C10.26 42.7157 10.26 42.6794 10.26 42.6431C10.26 42.6068 10.26 42.5706 10.26 42.5343C10.26 42.4981 10.26 42.4618 10.26 42.4256C10.26 42.3894 10.26 42.3532 10.26 42.3171C10.26 42.2809 10.26 42.2447 10.26 42.2086C10.26 42.1725 10.26 42.1363 10.26 42.1002C10.26 42.0641 10.26 42.0281 10.26 41.992C10.26 41.956 10.26 41.9199 10.26 41.8839C10.26 41.8479 10.26 41.8119 10.26 41.7759C10.26 41.7399 10.26 41.704 10.26 41.6681C10.26 41.6321 10.26 41.5962 10.26 41.5603C10.26 41.5244 10.26 41.4886 10.26 41.4527C10.26 41.4169 10.26 41.3811 10.26 41.3452C10.26 41.3094 10.26 41.2737 10.26 41.2379C10.26 41.2022 10.26 41.1664 10.26 41.1307C10.26 41.095 10.26 41.0593 10.26 41.0237C10.26 40.988 10.26 40.9524 10.26 40.9167C10.26 40.8811 10.26 40.8455 10.26 40.81C10.26 40.7744 10.26 40.7389 10.26 40.7034C10.26 40.6678 10.26 40.6324 10.26 40.5969C10.26 40.5614 10.26 40.526 10.26 40.4906C10.26 40.4552 10.26 40.4198 10.26 40.3844C10.26 40.349 10.26 40.3137 10.26 40.2784C10.26 40.2431 10.26 40.2078 10.26 40.1726C10.26 40.1373 10.26 40.1021 10.26 40.0669C10.26 40.0317 10.26 39.9965 10.26 39.9614C10.26 39.9262 10.26 39.8911 10.26 39.856C10.26 39.8209 10.26 39.7859 10.26 39.7508C10.26 39.7158 10.26 39.6808 10.26 39.6458C10.26 39.6108 10.26 39.5759 10.26 39.541C10.26 39.5061 10.26 39.4712 10.26 39.4363C10.26 39.4015 10.26 39.3666 10.26 39.3318C10.26 39.297 10.26 39.2623 10.26 39.2275C10.26 39.1928 10.26 39.1581 10.26 39.1234C10.26 39.0888 10.26 39.0541 10.26 39.0195C10.26 38.9849 10.26 38.9503 10.26 38.9158C10.26 38.8812 10.26 38.8467 10.26 38.8122C10.26 38.7778 10.26 38.7433 10.26 38.7089C10.26 38.6745 10.26 38.6401 10.26 38.6057C10.26 38.5714 10.26 38.5371 10.26 38.5028C10.26 38.4685 10.26 38.4343 10.26 38.4C10.26 38.3658 10.26 38.3316 10.26 38.2975C10.26 38.2634 10.26 38.2292 10.26 38.1952C10.26 38.1611 10.26 38.127 10.26 38.093C10.26 38.059 10.26 38.0251 10.26 37.9911C10.26 37.9572 10.26 37.9233 10.26 37.8894C10.26 37.8556 10.26 37.8217 10.26 37.7879C10.26 37.7541 10.26 37.7204 10.26 37.6867C10.26 37.6529 10.26 37.6193 10.26 37.5856C10.26 37.552 10.26 37.5184 10.26 37.4848C10.26 37.4512 10.26 37.4177 10.26 37.3842C10.26 37.3507 10.26 37.3173 10.26 37.2838C10.26 37.2504 10.26 37.217 10.26 37.1837C10.26 37.1504 10.26 37.1171 10.26 37.0838C10.26 37.0505 10.26 37.0173 10.26 36.9841C10.26 36.951 10.26 36.9178 10.26 36.8847C10.26 36.8516 10.26 36.8186 10.26 36.7855C10.26 36.7525 10.26 36.7195 10.26 36.6866C10.26 36.6537 10.26 36.6208 10.26 36.5879C10.26 36.555 10.26 36.5222 10.26 36.4895C10.26 36.4567 10.26 36.424 10.26 36.3913C10.26 36.3586 10.26 36.3259 10.26 36.2933C10.26 36.2607 10.26 36.2282 10.26 36.1956C10.26 36.1631 10.26 36.1306 10.26 36.0982C10.26 36.0658 10.26 36.0334 10.26 36.001C10.26 35.9687 10.26 35.9364 10.26 35.9041C10.26 35.8719 10.26 35.8397 10.26 35.8075C10.26 35.7753 10.26 35.7432 10.26 35.7111C10.26 35.6791 10.26 35.647 10.26 35.6151C10.26 35.5831 10.26 35.5511 10.26 35.5192C10.26 35.4873 10.26 35.4555 10.26 35.4237C10.26 35.3919 10.26 35.3601 10.26 35.3284C10.26 35.2967 10.26 35.265 10.26 35.2334C10.26 35.2018 10.26 35.1702 10.26 35.1387C10.26 35.1072 10.26 35.0757 10.26 35.0443C10.26 35.0129 10.26 34.9815 10.26 34.9502C10.26 34.9188 10.26 34.8876 10.26 34.8563C10.26 34.8251 10.26 34.7939 10.26 34.7628C10.26 34.7316 10.26 34.7006 10.26 34.6695C10.26 34.6385 10.26 34.6075 10.26 34.5766C10.26 34.5456 10.26 34.5148 10.26 34.4839C10.26 34.4531 10.26 34.4223 10.26 34.3916C10.26 34.3608 10.26 34.3302 10.26 34.2995C10.26 34.2689 10.26 34.2383 10.26 34.2078C10.26 34.1773 10.26 34.1468 10.26 34.1164C10.26 34.0859 10.26 34.0556 10.26 34.0252C10.26 33.9949 10.26 33.9647 10.26 33.9344C10.26 33.9042 10.26 33.8741 10.26 33.844C10.26 33.8139 10.26 33.7838 10.26 33.7538C10.26 33.7238 10.26 33.6939 10.26 33.664C10.26 33.6341 10.26 33.6042 10.26 33.5744C10.26 33.5447 10.26 33.5149 10.26 33.4853C10.26 33.4556 10.26 33.426 10.26 33.3964C10.26 33.3668 10.26 33.3373 10.26 33.3079C10.26 33.2784 10.26 33.249 10.26 33.2197C10.26 33.1903 10.26 33.1611 10.26 33.1318C10.26 33.1026 10.26 33.0734 10.26 33.0443C10.26 33.0152 10.26 32.9862 10.26 32.9572C10.26 32.9282 10.26 32.8992 10.26 32.8703C10.26 32.8414 10.26 32.8126 10.26 32.7838C10.26 32.7551 10.26 32.7264 10.26 32.6977C10.26 32.6691 10.26 32.6405 10.26 32.6119C10.26 32.5834 10.26 32.5549 10.26 32.5265C10.26 32.4981 10.26 32.4698 10.26 32.4415C10.26 32.4132 10.26 32.3849 10.26 32.3568C10.26 32.3286 10.26 32.3005 10.26 32.2724C10.26 32.2444 10.26 32.2164 10.26 32.1884C10.26 32.1605 10.26 32.1326 10.26 32.1048C10.26 32.077 10.26 32.0493 10.26 32.0216C10.26 31.9939 10.26 31.9663 10.26 31.9387C10.26 31.9111 10.26 31.8836 10.26 31.8562C10.26 31.8288 10.26 31.8014 10.26 31.7741C10.26 31.7468 10.26 31.7195 10.26 31.6923C10.26 31.6652 10.26 31.638 10.26 31.611C10.26 31.5839 10.26 31.5569 10.26 31.53C10.26 31.5031 10.26 31.4762 10.26 31.4494C10.26 31.4226 10.26 31.3959 10.26 31.3692C10.26 31.3426 10.26 31.316 10.26 31.2894C10.26 31.2629 10.26 31.2364 10.26 31.21C10.26 31.1836 10.26 31.1573 10.26 31.131C10.26 31.1047 10.26 31.0785 10.26 31.0524C10.26 31.0262 10.26 31.0002 10.26 30.9741C10.26 30.9481 10.26 30.9222 10.26 30.8963C10.26 30.8705 10.26 30.8447 10.26 30.8189C10.26 30.7932 10.26 30.7675 10.26 30.7419C10.26 30.7163 10.26 30.6908 10.26 30.6653C10.26 30.6399 10.26 30.6145 10.26 30.5892C10.26 30.5638 10.26 30.5386 10.26 30.5134C10.26 30.4882 10.26 30.4631 10.26 30.4381C10.26 30.413 10.26 30.3881 10.26 30.3632C10.26 30.3383 10.26 30.3134 10.26 30.2887C10.26 30.2639 10.26 30.2392 10.26 30.2146C10.26 30.19 10.26 30.1654 10.26 30.141C10.26 30.1165 10.26 30.0921 10.26 30.0677C10.26 30.0434 10.26 30.0192 10.26 29.995C10.26 29.9708 10.26 29.9467 10.26 29.9226C10.26 29.8986 10.26 29.8746 10.26 29.8507C10.26 29.8268 10.26 29.803 10.26 29.7793C10.26 29.7555 10.26 29.7318 10.26 29.7082C10.26 29.6847 10.26 29.6611 10.26 29.6377C10.26 29.6142 10.26 29.5909 10.26 29.5676C10.26 29.5443 10.26 29.521 10.26 29.4979C10.26 29.4747 10.26 29.4517 10.26 29.4287C10.26 29.4057 10.26 29.3827 10.26 29.3599C10.26 29.3371 10.26 29.3143 10.26 29.2916C10.26 29.2689 10.26 29.2463 10.26 29.2237C10.26 29.2012 10.26 29.1787 10.26 29.1564C10.26 29.134 10.26 29.1117 10.26 29.0894C10.26 29.0672 10.26 29.0451 10.26 29.023C10.26 29.0009 10.26 28.9789 10.26 28.957C10.26 28.9351 10.26 28.9133 10.26 28.8915C10.26 28.8698 10.26 28.8481 10.26 28.8265C10.26 28.8049 10.26 28.7834 10.26 28.7619C10.26 28.7405 10.26 28.7191 10.26 28.6979C10.26 28.6766 10.26 28.6554 10.26 28.6343C10.26 28.6131 10.26 28.5921 10.26 28.5712C10.26 28.5502 10.26 28.5293 10.26 28.5085C10.26 28.4877 10.26 28.467 10.26 28.4464C10.26 28.4258 10.26 28.4052 10.26 28.3848C10.26 28.3643 10.26 28.3439 10.26 28.3236C10.26 28.3033 10.26 28.2831 10.26 28.263C10.26 28.2429 10.26 28.2228 10.26 28.2028C10.26 28.1829 10.26 28.163 10.26 28.1432C10.26 28.1234 10.26 28.1037 10.26 28.0841C10.26 28.0644 10.26 28.0449 10.26 28.0254C10.26 28.006 10.26 27.9866 10.26 27.9673C10.26 27.948 10.26 27.9288 10.26 27.9097C10.26 27.8906 10.26 27.8716 10.26 27.8526C10.26 27.8337 10.26 27.8148 10.26 27.796C10.26 27.7773 10.26 27.7586 10.26 27.74C10.26 27.7214 10.26 27.7029 10.26 27.6845C10.26 27.666 10.26 27.6477 10.26 27.6294C10.26 27.6112 10.26 27.593 10.26 27.575C10.26 27.5569 10.26 27.5389 10.26 27.521C10.26 27.5031 10.26 27.4853 10.26 27.4676C10.26 27.4499 10.26 27.4322 10.26 27.4147C10.26 27.3972 10.26 27.3797 10.26 27.3624C10.26 27.345 10.26 27.3277 10.26 27.3105C10.26 27.2934 10.26 27.2763 10.26 27.2593C10.26 27.2423 10.26 27.2254 10.26 27.2086C10.26 27.1917 10.26 27.175 10.26 27.1584C10.26 27.1417 10.26 27.1252 10.26 27.1087C10.26 27.0923 10.26 27.0759 10.26 27.0597C10.26 27.0434 10.26 27.0272 10.26 27.0111C10.26 26.9951 10.26 26.9791 10.26 26.9632C10.26 26.9473 10.26 26.9315 10.26 26.9158C10.26 26.9001 10.26 26.8844 10.26 26.8689C10.26 26.8534 10.26 26.838 10.26 26.8226C10.26 26.8073 10.26 26.7921 10.26 26.7769C10.26 26.7618 10.26 26.7467 10.26 26.7318C10.26 26.7168 10.26 26.702 10.26 26.6872C10.26 26.6724 10.26 26.6578 10.26 26.6432C10.26 26.6286 10.26 26.6142 10.26 26.5998C10.26 26.5854 10.26 26.5711 10.26 26.5569C10.26 26.5427 10.26 26.5287 10.26 26.5147C10.26 26.5007 10.26 26.4868 10.26 26.473C10.26 26.4592 10.26 26.4455 10.26 26.4319C10.26 26.4183 10.26 26.4048 10.26 26.3914C10.26 26.378 10.26 26.3647 10.26 26.3515C10.26 26.3383 10.26 26.3251 10.26 26.3121C10.26 26.2991 10.26 26.2862 10.26 26.2734C10.26 26.2606 10.26 26.2479 10.26 26.2353C10.26 26.2227 10.26 26.2102 10.26 26.1978C10.26 26.1853 10.26 26.173 10.26 26.1608C10.26 26.1486 10.26 26.1365 10.26 26.1245C10.26 26.1125 10.26 26.1006 10.26 26.0888C10.26 26.077 10.26 26.0653 10.26 26.0537C10.26 26.0421 10.26 26.0306 10.26 26.0192C10.26 26.0078 10.26 25.9965 10.26 25.9853C10.26 25.9742 10.26 25.9631 10.26 25.9521C10.26 25.9411 10.26 25.9302 10.26 25.9195H6.694C6.694 25.9302 6.694 25.9411 6.694 25.9521C6.694 25.9631 6.694 25.9742 6.694 25.9853C6.694 25.9965 6.694 26.0078 6.694 26.0192C6.694 26.0306 6.694 26.0421 6.694 26.0537C6.694 26.0653 6.694 26.077 6.694 26.0888C6.694 26.1006 6.694 26.1125 6.694 26.1245C6.694 26.1365 6.694 26.1486 6.694 26.1608C6.694 26.173 6.694 26.1853 6.694 26.1978C6.694 26.2102 6.694 26.2227 6.694 26.2353C6.694 26.2479 6.694 26.2606 6.694 26.2734C6.694 26.2862 6.694 26.2991 6.694 26.3121C6.694 26.3251 6.694 26.3383 6.694 26.3515C6.694 26.3647 6.694 26.378 6.694 26.3914C6.694 26.4048 6.694 26.4183 6.694 26.4319C6.694 26.4455 6.694 26.4592 6.694 26.473C6.694 26.4868 6.694 26.5007 6.694 26.5147C6.694 26.5287 6.694 26.5427 6.694 26.5569C6.694 26.5711 6.694 26.5854 6.694 26.5998C6.694 26.6142 6.694 26.6286 6.694 26.6432C6.694 26.6578 6.694 26.6724 6.694 26.6872C6.694 26.702 6.694 26.7168 6.694 26.7318C6.694 26.7467 6.694 26.7618 6.694 26.7769C6.694 26.7921 6.694 26.8073 6.694 26.8226C6.694 26.838 6.694 26.8534 6.694 26.8689C6.694 26.8844 6.694 26.9001 6.694 26.9158C6.694 26.9315 6.694 26.9473 6.694 26.9632C6.694 26.9791 6.694 26.9951 6.694 27.0111C6.694 27.0272 6.694 27.0434 6.694 27.0597C6.694 27.0759 6.694 27.0923 6.694 27.1087C6.694 27.1252 6.694 27.1417 6.694 27.1584C6.694 27.175 6.694 27.1917 6.694 27.2086C6.694 27.2254 6.694 27.2423 6.694 27.2593C6.694 27.2763 6.694 27.2934 6.694 27.3105C6.694 27.3277 6.694 27.345 6.694 27.3624C6.694 27.3797 6.694 27.3972 6.694 27.4147C6.694 27.4322 6.694 27.4499 6.694 27.4676C6.694 27.4853 6.694 27.5031 6.694 27.521C6.694 27.5389 6.694 27.5569 6.694 27.575C6.694 27.593 6.694 27.6112 6.694 27.6294C6.694 27.6477 6.694 27.666 6.694 27.6845C6.694 27.7029 6.694 27.7214 6.694 27.74C6.694 27.7586 6.694 27.7773 6.694 27.796C6.694 27.8148 6.694 27.8337 6.694 27.8526C6.694 27.8716 6.694 27.8906 6.694 27.9097C6.694 27.9288 6.694 27.948 6.694 27.9673C6.694 27.9866 6.694 28.006 6.694 28.0254C6.694 28.0449 6.694 28.0644 6.694 28.0841C6.694 28.1037 6.694 28.1234 6.694 28.1432C6.694 28.163 6.694 28.1829 6.694 28.2028C6.694 28.2228 6.694 28.2429 6.694 28.263C6.694 28.2831 6.694 28.3033 6.694 28.3236C6.694 28.3439 6.694 28.3643 6.694 28.3848C6.694 28.4052 6.694 28.4258 6.694 28.4464C6.694 28.467 6.694 28.4877 6.694 28.5085C6.694 28.5293 6.694 28.5502 6.694 28.5712C6.694 28.5921 6.694 28.6131 6.694 28.6343C6.694 28.6554 6.694 28.6766 6.694 28.6979C6.694 28.7191 6.694 28.7405 6.694 28.7619C6.694 28.7834 6.694 28.8049 6.694 28.8265C6.694 28.8481 6.694 28.8698 6.694 28.8915C6.694 28.9133 6.694 28.9351 6.694 28.957C6.694 28.9789 6.694 29.0009 6.694 29.023C6.694 29.0451 6.694 29.0672 6.694 29.0894C6.694 29.1117 6.694 29.134 6.694 29.1564C6.694 29.1787 6.694 29.2012 6.694 29.2237C6.694 29.2463 6.694 29.2689 6.694 29.2916C6.694 29.3143 6.694 29.3371 6.694 29.3599C6.694 29.3827 6.694 29.4057 6.694 29.4287C6.694 29.4517 6.694 29.4747 6.694 29.4979C6.694 29.521 6.694 29.5443 6.694 29.5676C6.694 29.5909 6.694 29.6142 6.694 29.6377C6.694 29.6611 6.694 29.6847 6.694 29.7082C6.694 29.7318 6.694 29.7555 6.694 29.7793C6.694 29.803 6.694 29.8268 6.694 29.8507C6.694 29.8746 6.694 29.8986 6.694 29.9226C6.694 29.9467 6.694 29.9708 6.694 29.995C6.694 30.0192 6.694 30.0434 6.694 30.0677C6.694 30.0921 6.694 30.1165 6.694 30.141C6.694 30.1654 6.694 30.19 6.694 30.2146C6.694 30.2392 6.694 30.2639 6.694 30.2887C6.694 30.3134 6.694 30.3383 6.694 30.3632C6.694 30.3881 6.694 30.413 6.694 30.4381C6.694 30.4631 6.694 30.4882 6.694 30.5134C6.694 30.5386 6.694 30.5638 6.694 30.5892C6.694 30.6145 6.694 30.6399 6.694 30.6653C6.694 30.6908 6.694 30.7163 6.694 30.7419C6.694 30.7675 6.694 30.7932 6.694 30.8189C6.694 30.8447 6.694 30.8705 6.694 30.8963C6.694 30.9222 6.694 30.9481 6.694 30.9741C6.694 31.0002 6.694 31.0262 6.694 31.0524C6.694 31.0785 6.694 31.1047 6.694 31.131C6.694 31.1573 6.694 31.1836 6.694 31.21C6.694 31.2364 6.694 31.2629 6.694 31.2894C6.694 31.316 6.694 31.3426 6.694 31.3692C6.694 31.3959 6.694 31.4226 6.694 31.4494C6.694 31.4762 6.694 31.5031 6.694 31.53C6.694 31.5569 6.694 31.5839 6.694 31.611C6.694 31.638 6.694 31.6652 6.694 31.6923C6.694 31.7195 6.694 31.7468 6.694 31.7741C6.694 31.8014 6.694 31.8288 6.694 31.8562C6.694 31.8836 6.694 31.9111 6.694 31.9387C6.694 31.9663 6.694 31.9939 6.694 32.0216C6.694 32.0493 6.694 32.077 6.694 32.1048C6.694 32.1326 6.694 32.1605 6.694 32.1884C6.694 32.2164 6.694 32.2444 6.694 32.2724C6.694 32.3005 6.694 32.3286 6.694 32.3568C6.694 32.3849 6.694 32.4132 6.694 32.4415C6.694 32.4698 6.694 32.4981 6.694 32.5265C6.694 32.5549 6.694 32.5834 6.694 32.6119C6.694 32.6405 6.694 32.6691 6.694 32.6977C6.694 32.7264 6.694 32.7551 6.694 32.7838C6.694 32.8126 6.694 32.8414 6.694 32.8703C6.694 32.8992 6.694 32.9282 6.694 32.9572C6.694 32.9862 6.694 33.0152 6.694 33.0443C6.694 33.0734 6.694 33.1026 6.694 33.1318C6.694 33.1611 6.694 33.1903 6.694 33.2197C6.694 33.249 6.694 33.2784 6.694 33.3079C6.694 33.3373 6.694 33.3668 6.694 33.3964C6.694 33.426 6.694 33.4556 6.694 33.4853C6.694 33.5149 6.694 33.5447 6.694 33.5744C6.694 33.6042 6.694 33.6341 6.694 33.664C6.694 33.6939 6.694 33.7238 6.694 33.7538C6.694 33.7838 6.694 33.8139 6.694 33.844C6.694 33.8741 6.694 33.9042 6.694 33.9344C6.694 33.9647 6.694 33.9949 6.694 34.0252C6.694 34.0556 6.694 34.0859 6.694 34.1164C6.694 34.1468 6.694 34.1773 6.694 34.2078C6.694 34.2383 6.694 34.2689 6.694 34.2995C6.694 34.3302 6.694 34.3608 6.694 34.3916C6.694 34.4223 6.694 34.4531 6.694 34.4839C6.694 34.5148 6.694 34.5456 6.694 34.5766C6.694 34.6075 6.694 34.6385 6.694 34.6695C6.694 34.7006 6.694 34.7316 6.694 34.7628C6.694 34.7939 6.694 34.8251 6.694 34.8563C6.694 34.8876 6.694 34.9188 6.694 34.9502C6.694 34.9815 6.694 35.0129 6.694 35.0443C6.694 35.0757 6.694 35.1072 6.694 35.1387C6.694 35.1702 6.694 35.2018 6.694 35.2334C6.694 35.265 6.694 35.2967 6.694 35.3284C6.694 35.3601 6.694 35.3919 6.694 35.4237C6.694 35.4555 6.694 35.4873 6.694 35.5192C6.694 35.5511 6.694 35.5831 6.694 35.6151C6.694 35.647 6.694 35.6791 6.694 35.7111C6.694 35.7432 6.694 35.7753 6.694 35.8075C6.694 35.8397 6.694 35.8719 6.694 35.9041C6.694 35.9364 6.694 35.9687 6.694 36.001C6.694 36.0334 6.694 36.0658 6.694 36.0982C6.694 36.1306 6.694 36.1631 6.694 36.1956C6.694 36.2282 6.694 36.2607 6.694 36.2933C6.694 36.3259 6.694 36.3586 6.694 36.3913C6.694 36.424 6.694 36.4567 6.694 36.4895C6.694 36.5222 6.694 36.555 6.694 36.5879C6.694 36.6208 6.694 36.6537 6.694 36.6866C6.694 36.7195 6.694 36.7525 6.694 36.7855C6.694 36.8186 6.694 36.8516 6.694 36.8847C6.694 36.9178 6.694 36.951 6.694 36.9841C6.694 37.0173 6.694 37.0505 6.694 37.0838C6.694 37.1171 6.694 37.1504 6.694 37.1837C6.694 37.217 6.694 37.2504 6.694 37.2838C6.694 37.3173 6.694 37.3507 6.694 37.3842C6.694 37.4177 6.694 37.4512 6.694 37.4848C6.694 37.5184 6.694 37.552 6.694 37.5856C6.694 37.6193 6.694 37.6529 6.694 37.6867C6.694 37.7204 6.694 37.7541 6.694 37.7879C6.694 37.8217 6.694 37.8556 6.694 37.8894C6.694 37.9233 6.694 37.9572 6.694 37.9911C6.694 38.0251 6.694 38.059 6.694 38.093C6.694 38.127 6.694 38.1611 6.694 38.1952C6.694 38.2292 6.694 38.2634 6.694 38.2975C6.694 38.3316 6.694 38.3658 6.694 38.4C6.694 38.4343 6.694 38.4685 6.694 38.5028C6.694 38.5371 6.694 38.5714 6.694 38.6057C6.694 38.6401 6.694 38.6745 6.694 38.7089C6.694 38.7433 6.694 38.7778 6.694 38.8122C6.694 38.8467 6.694 38.8812 6.694 38.9158C6.694 38.9503 6.694 38.9849 6.694 39.0195C6.694 39.0541 6.694 39.0888 6.694 39.1234C6.694 39.1581 6.694 39.1928 6.694 39.2275C6.694 39.2623 6.694 39.297 6.694 39.3318C6.694 39.3666 6.694 39.4015 6.694 39.4363C6.694 39.4712 6.694 39.5061 6.694 39.541C6.694 39.5759 6.694 39.6108 6.694 39.6458C6.694 39.6808 6.694 39.7158 6.694 39.7508C6.694 39.7859 6.694 39.8209 6.694 39.856C6.694 39.8911 6.694 39.9262 6.694 39.9614C6.694 39.9965 6.694 40.0317 6.694 40.0669C6.694 40.1021 6.694 40.1373 6.694 40.1726C6.694 40.2078 6.694 40.2431 6.694 40.2784C6.694 40.3137 6.694 40.349 6.694 40.3844C6.694 40.4198 6.694 40.4552 6.694 40.4906C6.694 40.526 6.694 40.5614 6.694 40.5969C6.694 40.6324 6.694 40.6678 6.694 40.7034C6.694 40.7389 6.694 40.7744 6.694 40.81C6.694 40.8455 6.694 40.8811 6.694 40.9167C6.694 40.9524 6.694 40.988 6.694 41.0237C6.694 41.0593 6.694 41.095 6.694 41.1307C6.694 41.1664 6.694 41.2022 6.694 41.2379C6.694 41.2737 6.694 41.3094 6.694 41.3452C6.694 41.3811 6.694 41.4169 6.694 41.4527C6.694 41.4886 6.694 41.5244 6.694 41.5603C6.694 41.5962 6.694 41.6321 6.694 41.6681C6.694 41.704 6.694 41.7399 6.694 41.7759C6.694 41.8119 6.694 41.8479 6.694 41.8839C6.694 41.9199 6.694 41.956 6.694 41.992C6.694 42.0281 6.694 42.0641 6.694 42.1002C6.694 42.1363 6.694 42.1725 6.694 42.2086C6.694 42.2447 6.694 42.2809 6.694 42.3171C6.694 42.3532 6.694 42.3894 6.694 42.4256C6.694 42.4618 6.694 42.4981 6.694 42.5343C6.694 42.5706 6.694 42.6068 6.694 42.6431C6.694 42.6794 6.694 42.7157 6.694 42.752C6.694 42.7883 6.694 42.8247 6.694 42.861C6.694 42.8974 6.694 42.9338 6.694 42.9701C6.694 43.0065 6.694 43.0429 6.694 43.0793C6.694 43.1158 6.694 43.1522 6.694 43.1886C6.694 43.2251 6.694 43.2616 6.694 43.298C6.694 43.3345 6.694 43.371 6.694 43.4075C6.694 43.444 6.694 43.4806 6.694 43.5171C6.694 43.5536 6.694 43.5902 6.694 43.6268C6.694 43.6633 6.694 43.6999 6.694 43.7365C6.694 43.7731 6.694 43.8097 6.694 43.8463C6.694 43.883 6.694 43.9196 6.694 43.9562C6.694 43.9929 6.694 44.0295 6.694 44.0662C6.694 44.1029 6.694 44.1396 6.694 44.1763C6.694 44.213 6.694 44.2497 6.694 44.2864C6.694 44.3231 6.694 44.3599 6.694 44.3966C6.694 44.4333 6.694 44.4701 6.694 44.5069C6.694 44.5436 6.694 44.5804 6.694 44.6172C6.694 44.654 6.694 44.6908 6.694 44.7276C6.694 44.7644 6.694 44.8012 6.694 44.838C6.694 44.8748 6.694 44.9117 6.694 44.9485C6.694 44.9854 6.694 45.0222 6.694 45.0591C6.694 45.0959 6.694 45.1328 6.694 45.1697C6.694 45.2066 6.694 45.2434 6.694 45.2803C6.694 45.3172 6.694 45.3541 6.694 45.391C6.694 45.428 6.694 45.4649 6.694 45.5018C6.694 45.5387 6.694 45.5756 6.694 45.6126C6.694 45.6495 6.694 45.6865 6.694 45.7234C6.694 45.7604 6.694 45.7973 6.694 45.8343C6.694 45.8712 6.694 45.9082 6.694 45.9452C6.694 45.9822 6.694 46.0191 6.694 46.0561C6.694 46.0931 6.694 46.1301 6.694 46.1671C6.694 46.2041 6.694 46.2411 6.694 46.2781C6.694 46.3151 6.694 46.3521 6.694 46.3891C6.694 46.4261 6.694 46.4631 6.694 46.5001C6.694 46.5371 6.694 46.5742 6.694 46.6112C6.694 46.6482 6.694 46.6852 6.694 46.7222C6.694 46.7593 6.694 46.7963 6.694 46.8333C6.694 46.8704 6.694 46.9074 6.694 46.9444C6.694 46.9815 6.694 47.0185 6.694 47.0555C6.694 47.0926 6.694 47.1296 6.694 47.1667C6.694 47.2037 6.694 47.2407 6.694 47.2778C6.694 47.3148 6.694 47.3519 6.694 47.3889C6.694 47.4259 6.694 47.463 6.694 47.5C6.694 47.5371 6.694 47.5741 6.694 47.6112C6.694 47.6482 6.694 47.6852 6.694 47.7223C6.694 47.7593 6.694 47.7963 6.694 47.8334C6.694 47.8704 6.694 47.9074 6.694 47.9445C6.694 47.9815 6.694 48.0185 6.694 48.0556C6.694 48.0926 6.694 48.1296 6.694 48.1666C6.694 48.2037 6.694 48.2407 6.694 48.2777C6.694 48.3147 6.694 48.3517 6.694 48.3887C6.694 48.4257 6.694 48.4627 6.694 48.4997C6.694 48.5367 6.694 48.5737 6.694 48.6107C6.694 48.6477 6.694 48.6847 6.694 48.7217C6.694 48.7587 6.694 48.7956 6.694 48.8326C6.694 48.8696 6.694 48.9066 6.694 48.9435C6.694 48.9805 6.694 49.0174 6.694 49.0544C6.694 49.0913 6.694 49.1283 6.694 49.1652C6.694 49.2021 6.694 49.2391 6.694 49.276C6.694 49.3129 6.694 49.3498 6.694 49.3867C6.694 49.4237 6.694 49.4606 6.694 49.4974C6.694 49.5343 6.694 49.5712 6.694 49.6081C6.694 49.645 6.694 49.6819 6.694 49.7187C6.694 49.7556 6.694 49.7924 6.694 49.8293C6.694 49.8661 6.694 49.9029 6.694 49.9398C6.694 49.9766 6.694 50.0134 6.694 50.0502C6.694 50.087 6.694 50.1238 6.694 50.1606C6.694 50.1974 6.694 50.2341 6.694 50.2709C6.694 50.3077 6.694 50.3444 6.694 50.3812C6.694 50.4179 6.694 50.4546 6.694 50.4914C6.694 50.5281 6.694 50.5648 6.694 50.6015C6.694 50.6382 6.694 50.6749 6.694 50.7115C6.694 50.7482 6.694 50.7849 6.694 50.8215C6.694 50.8582 6.694 50.8948 6.694 50.9314C6.694 50.968 6.694 51.0046 6.694 51.0412C6.694 51.0778 6.694 51.1144 6.694 51.151C6.694 51.1875 6.694 51.2241 6.694 51.2606C6.694 51.2972 6.694 51.3337 6.694 51.3702C6.694 51.4067 6.694 51.4432 6.694 51.4797C6.694 51.5162 6.694 51.5526 6.694 51.5891C6.694 51.6255 6.694 51.662 6.694 51.6984C6.694 51.7348 6.694 51.7712 6.694 51.8076C6.694 51.844 6.694 51.8803 6.694 51.9167C6.694 51.953 6.694 51.9894 6.694 52.0257C6.694 52.062 6.694 52.0983 6.694 52.1346C6.694 52.1709 6.694 52.2071 6.694 52.2434C6.694 52.2796 6.694 52.3158 6.694 52.3521C6.694 52.3883 6.694 52.4245 6.694 52.4606C6.694 52.4968 6.694 52.5329 6.694 52.5691C6.694 52.6052 6.694 52.6413 6.694 52.6774C6.694 52.7135 6.694 52.7496 6.694 52.7857C6.694 52.8217 6.694 52.8577 6.694 52.8938C6.694 52.9298 6.694 52.9658 6.694 53.0017C6.694 53.0377 6.694 53.0737 6.694 53.1096C6.694 53.1455 6.694 53.1814 6.694 53.2173C6.694 53.2532 6.694 53.2891 6.694 53.3249C6.694 53.3608 6.694 53.3966 6.694 53.4324C6.694 53.4682 6.694 53.504 6.694 53.5397C6.694 53.5755 6.694 53.6112 6.694 53.6469C6.694 53.6826 6.694 53.7183 6.694 53.7539C6.694 53.7896 6.694 53.8252 6.694 53.8609C6.694 53.8965 6.694 53.9321 6.694 53.9676C6.694 54.0032 6.694 54.0387 6.694 54.0742C6.694 54.1097 6.694 54.1452 6.694 54.1807C6.694 54.2162 6.694 54.2516 6.694 54.287C6.694 54.3224 6.694 54.3578 6.694 54.3932C6.694 54.4285 6.694 54.4639 6.694 54.4992C6.694 54.5345 6.694 54.5697 6.694 54.605C6.694 54.6403 6.694 54.6755 6.694 54.7107C6.694 54.7459 6.694 54.781 6.694 54.8162C6.694 54.8513 6.694 54.8864 6.694 54.9215C6.694 54.9566 6.694 54.9917 6.694 55.0267C6.694 55.0617 6.694 55.0967 6.694 55.1317C6.694 55.1667 6.694 55.2016 6.694 55.2365C6.694 55.2714 6.694 55.3063 6.694 55.3412C6.694 55.376 6.694 55.4108 6.694 55.4456C6.694 55.4804 6.694 55.5152 6.694 55.5499C6.694 55.5847 6.694 55.6194 6.694 55.654C6.694 55.6887 6.694 55.7233 6.694 55.7579C6.694 55.7925 6.694 55.8271 6.694 55.8617C6.694 55.8962 6.694 55.9307 6.694 55.9652C6.694 55.9997 6.694 56.0341 6.694 56.0685C6.694 56.1029 6.694 56.1373 6.694 56.1717C6.694 56.206 6.694 56.2403 6.694 56.2746C6.694 56.3089 6.694 56.3431 6.694 56.3774C6.694 56.4116 6.694 56.4457 6.694 56.4799C6.694 56.514 6.694 56.5481 6.694 56.5822C6.694 56.6163 6.694 56.6503 6.694 56.6843C6.694 56.7183 6.694 56.7523 6.694 56.7862C6.694 56.8202 6.694 56.8541 6.694 56.8879C6.694 56.9218 6.694 56.9556 6.694 56.9894C6.694 57.0232 6.694 57.0569 6.694 57.0907C6.694 57.1244 6.694 57.1581 6.694 57.1917C6.694 57.2253 6.694 57.2589 6.694 57.2925C6.694 57.3261 6.694 57.3596 6.694 57.3931C6.694 57.4266 6.694 57.46 6.694 57.4934C6.694 57.5269 6.694 57.5602 6.694 57.5936C6.694 57.6269 6.694 57.6602 6.694 57.6935C6.694 57.7267 6.694 57.7599 6.694 57.7931C6.694 57.8263 6.694 57.8594 6.694 57.8925C6.694 57.9256 6.694 57.9587 6.694 57.9917C6.694 58.0247 6.694 58.0577 6.694 58.0906C6.694 58.1236 6.694 58.1564 6.694 58.1893C6.694 58.2222 6.694 58.255 6.694 58.2877C6.694 58.3205 6.694 58.3532 6.694 58.3859C6.694 58.4186 6.694 58.4512 6.694 58.4838C6.694 58.5164 6.694 58.549 6.694 58.5815C6.694 58.614 6.694 58.6465 6.694 58.6789C6.694 58.7114 6.694 58.7437 6.694 58.7761C6.694 58.8084 6.694 58.8407 6.694 58.873C6.694 58.9052 6.694 58.9374 6.694 58.9696C6.694 59.0018 6.694 59.0339 6.694 59.0659C6.694 59.098 6.694 59.13 6.694 59.162C6.694 59.194 6.694 59.2259 6.694 59.2578C6.694 59.2897 6.694 59.3216 6.694 59.3534C6.694 59.3852 6.694 59.4169 6.694 59.4486C6.694 59.4803 6.694 59.512 6.694 59.5436C6.694 59.5752 6.694 59.6068 6.694 59.6383C6.694 59.6698 6.694 59.7013 6.694 59.7327C6.694 59.7641 6.694 59.7955 6.694 59.8268C6.694 59.8581 6.694 59.8894 6.694 59.9206C6.694 59.9519 6.694 59.983 6.694 60.0142C6.694 60.0453 6.694 60.0764 6.694 60.1074C6.694 60.1384 6.694 60.1694 6.694 60.2003C6.694 60.2313 6.694 60.2622 6.694 60.293C6.694 60.3238 6.694 60.3546 6.694 60.3853C6.694 60.416 6.694 60.4467 6.694 60.4774C6.694 60.508 6.694 60.5386 6.694 60.5691C6.694 60.5996 6.694 60.6301 6.694 60.6605C6.694 60.6909 6.694 60.7213 6.694 60.7516C6.694 60.7819 6.694 60.8122 6.694 60.8424C6.694 60.8726 6.694 60.9027 6.694 60.9328C6.694 60.9629 6.694 60.993 6.694 61.023C6.694 61.053 6.694 61.0829 6.694 61.1128C6.694 61.1427 6.694 61.1725 6.694 61.2023C6.694 61.2321 6.694 61.2618 6.694 61.2915C6.694 61.3211 6.694 61.3508 6.694 61.3803C6.694 61.4099 6.694 61.4394 6.694 61.4688C6.694 61.4983 6.694 61.5277 6.694 61.557C6.694 61.5863 6.694 61.6156 6.694 61.6448C6.694 61.6741 6.694 61.7032 6.694 61.7323C6.694 61.7614 6.694 61.7905 6.694 61.8195C6.694 61.8485 6.694 61.8774 6.694 61.9063C6.694 61.9352 6.694 61.964 6.694 61.9928C6.694 62.0215 6.694 62.0502 6.694 62.0789C6.694 62.1075 6.694 62.1361 6.694 62.1646C6.694 62.1932 6.694 62.2216 6.694 62.25C6.694 62.2784 6.694 62.3068 6.694 62.3351C6.694 62.3634 6.694 62.3916 6.694 62.4198C6.694 62.4479 6.694 62.476 6.694 62.5041C6.694 62.5321 6.694 62.5601 6.694 62.5881C6.694 62.616 6.694 62.6438 6.694 62.6716C6.694 62.6995 6.694 62.7272 6.694 62.7549C6.694 62.7826 6.694 62.8102 6.694 62.8377C6.694 62.8653 6.694 62.8928 6.694 62.9202C6.694 62.9476 6.694 62.975 6.694 63.0023C6.694 63.0296 6.694 63.0569 6.694 63.084C6.694 63.1112 6.694 63.1383 6.694 63.1654C6.694 63.1924 6.694 63.2194 6.694 63.2463C6.694 63.2732 6.694 63.3001 6.694 63.3269C6.694 63.3537 6.694 63.3804 6.694 63.4071C6.694 63.4337 6.694 63.4603 6.694 63.4869C6.694 63.5134 6.694 63.5399 6.694 63.5663C6.694 63.5927 6.694 63.619 6.694 63.6453C6.694 63.6715 6.694 63.6977 6.694 63.7239C6.694 63.75 6.694 63.7761 6.694 63.8021C6.694 63.8281 6.694 63.854 6.694 63.8798C6.694 63.9057 6.694 63.9315 6.694 63.9572C6.694 63.983 6.694 64.0086 6.694 64.0342C6.694 64.0598 6.694 64.0853 6.694 64.1108C6.694 64.1362 6.694 64.1616 6.694 64.1869C6.694 64.2122 6.694 64.2375 6.694 64.2627C6.694 64.2878 6.694 64.313 6.694 64.338C6.694 64.363 6.694 64.388 6.694 64.4129C6.694 64.4378 6.694 64.4626 6.694 64.4874C6.694 64.5121 6.694 64.5368 6.694 64.5614C6.694 64.586 6.694 64.6106 6.694 64.635C6.694 64.6595 6.694 64.6839 6.694 64.7082C6.694 64.7325 6.694 64.7568 6.694 64.781C6.694 64.8051 6.694 64.8293 6.694 64.8533C6.694 64.8773 6.694 64.9013 6.694 64.9252C6.694 64.9491 6.694 64.9729 6.694 64.9966C6.694 65.0203 6.694 65.044 6.694 65.0676C6.694 65.0912 6.694 65.1147 6.694 65.1381C6.694 65.1616 6.694 65.185 6.694 65.2083C6.694 65.2315 6.694 65.2548 6.694 65.2779C6.694 65.301 6.694 65.3241 6.694 65.3471C6.694 65.3701 6.694 65.393 6.694 65.4158C6.694 65.4387 6.694 65.4614 6.694 65.4841C6.694 65.5068 6.694 65.5294 6.694 65.5519C6.694 65.5745 6.694 65.5969 6.694 65.6193C6.694 65.6417 6.694 65.664 6.694 65.6862C6.694 65.7084 6.694 65.7306 6.694 65.7526C6.694 65.7747 6.694 65.7967 6.694 65.8186C6.694 65.8405 6.694 65.8623 6.694 65.8841C6.694 65.9058 6.694 65.9275 6.694 65.9491C6.694 65.9707 6.694 65.9922 6.694 66.0136C6.694 66.035 6.694 66.0564 6.694 66.0777C6.694 66.0989 6.694 66.1201 6.694 66.1412C6.694 66.1623 6.694 66.1834 6.694 66.2043C6.694 66.2253 6.694 66.2461 6.694 66.2669C6.694 66.2877 6.694 66.3084 6.694 66.329C6.694 66.3496 6.694 66.3702 6.694 66.3906C6.694 66.4111 6.694 66.4314 6.694 66.4517C6.694 66.472 6.694 66.4922 6.694 66.5124C6.694 66.5325 6.694 66.5525 6.694 66.5725C6.694 66.5924 6.694 66.6123 6.694 66.6321C6.694 66.6519 6.694 66.6716 6.694 66.6912C6.694 66.7108 6.694 66.7304 6.694 66.7498C6.694 66.7693 6.694 66.7886 6.694 66.8079C6.694 66.8272 6.694 66.8464 6.694 66.8655C6.694 66.8846 6.694 66.9036 6.694 66.9225C6.694 66.9415 6.694 66.9603 6.694 66.9791C6.694 66.9979 6.694 67.0165 6.694 67.0351C6.694 67.0537 6.694 67.0722 6.694 67.0906C6.694 67.1091 6.694 67.1274 6.694 67.1456C6.694 67.1639 6.694 67.182 6.694 67.2001C6.694 67.2181 6.694 67.2361 6.694 67.254C6.694 67.2719 6.694 67.2897 6.694 67.3074C6.694 67.3251 6.694 67.3427 6.694 67.3603C6.694 67.3778 6.694 67.3952 6.694 67.4126C6.694 67.4299 6.694 67.4472 6.694 67.4644C6.694 67.4815 6.694 67.4986 6.694 67.5156C6.694 67.5326 6.694 67.5495 6.694 67.5663C6.694 67.5831 6.694 67.5998 6.694 67.6165C6.694 67.6331 6.694 67.6496 6.694 67.6661C6.694 67.6825 6.694 67.6989 6.694 67.7151C6.694 67.7314 6.694 67.7475 6.694 67.7636C6.694 67.7797 6.694 67.7957 6.694 67.8115C6.694 67.8274 6.694 67.8432 6.694 67.8589C6.694 67.8746 6.694 67.8902 6.694 67.9057C6.694 67.9213 6.694 67.9367 6.694 67.952C6.694 67.9673 6.694 67.9826 6.694 67.9977C6.694 68.0128 6.694 68.0279 6.694 68.0428C6.694 68.0578 6.694 68.0726 6.694 68.0874C6.694 68.1021 6.694 68.1168 6.694 68.1313C6.694 68.1459 6.694 68.1604 6.694 68.1747C6.694 68.1891 6.694 68.2034 6.694 68.2175C6.694 68.2317 6.694 68.2458 6.694 68.2598C6.694 68.2738 6.694 68.2876 6.694 68.3014C6.694 68.3152 6.694 68.3289 6.694 68.3425C6.694 68.3561 6.694 68.3696 6.694 68.383C6.694 68.3964 6.694 68.4097 6.694 68.4229C6.694 68.4361 6.694 68.4492 6.694 68.4622C6.694 68.4752 6.694 68.4881 6.694 68.5009C6.694 68.5137 6.694 68.5264 6.694 68.539C6.694 68.5516 6.694 68.5641 6.694 68.5765C6.694 68.5889 6.694 68.6012 6.694 68.6134C6.694 68.6256 6.694 68.6376 6.694 68.6496C6.694 68.6616 6.694 68.6735 6.694 68.6853C6.694 68.6971 6.694 68.7088 6.694 68.7204C6.694 68.732 6.694 68.7435 6.694 68.7549C6.694 68.7662 6.694 68.7775 6.694 68.7887C6.694 68.7999 6.694 68.8109 6.694 68.8219C6.694 68.8329 6.694 68.8438 6.694 68.8545C6.694 68.8653 6.694 68.8759 6.694 68.8865C6.694 68.8971 6.694 68.9075 6.694 68.9179C6.694 68.9282 6.694 68.9384 6.694 68.9486C6.694 68.9587 6.694 68.9688 6.694 68.9787C6.694 68.9886 6.694 68.9984 6.694 69.0081C6.694 69.0179 6.694 69.0275 6.694 69.037H10.26ZM10.26 25.9195C10.26 23.9301 11.1391 21.744 12.3278 19.7419C13.4965 17.7735 14.8497 16.1728 15.55 15.3976L12.9039 13.0072C12.1181 13.877 10.5963 15.6733 9.26155 17.9214C7.94676 20.1359 6.694 22.9857 6.694 25.9195H10.26ZM15.4723 15.447H63.2944V11.8811H15.4723V15.447ZM63.3453 15.6523C62.4167 17.0397 61.3386 18.781 60.4862 20.5381C59.6624 22.2362 58.9291 24.1862 58.9291 25.9195H62.495C62.495 25.0391 62.9137 23.7043 63.6946 22.0945C64.4469 20.5437 65.4264 18.9541 66.3087 17.6357L63.3453 15.6523ZM5.60429 76.0684L9.47487 71.2465L6.694 69.0143L2.82342 73.8362L5.60429 76.0684ZM58.9291 69.6414C58.9291 71.9237 58.0364 73.5174 56.9468 74.5534C55.7983 75.6453 54.4903 76.0684 53.785 76.0684V79.6344C55.5511 79.6344 57.7066 78.7514 59.4039 77.1377C61.1598 75.4682 62.495 72.9568 62.495 69.6414H58.9291ZM53.785 76.0684C51.7269 76.0684 17.1039 76.0684 5.58226 76.0684V79.6344C17.1039 79.6344 51.7269 79.6344 53.785 79.6344V76.0684ZM2.82342 73.8362C0.976727 76.1368 2.54685 79.6344 5.58226 79.6344V76.0684C5.57491 76.0684 5.57109 76.0679 5.57031 76.0678C5.56953 76.0677 5.57072 76.0678 5.57343 76.0686C5.57611 76.0695 5.57941 76.0707 5.58301 76.0724C5.58658 76.0741 5.58986 76.076 5.59272 76.0779C5.59851 76.0817 5.60121 76.0847 5.60167 76.0853C5.60197 76.0856 5.60074 76.0842 5.59921 76.0809C5.59769 76.0777 5.59684 76.0747 5.5965 76.0727C5.59619 76.071 5.59653 76.0716 5.59625 76.0744C5.59593 76.0776 5.59504 76.081 5.59421 76.083C5.5939 76.0838 5.59406 76.0832 5.59525 76.0812C5.59644 76.0791 5.59915 76.0748 5.60429 76.0684L2.82342 73.8362ZM63.2944 15.447C63.3049 15.447 63.3064 15.4483 63.3027 15.4472C63.2995 15.4462 63.298 15.4451 63.299 15.4458C63.3028 15.4483 63.322 15.4633 63.3403 15.4992C63.3587 15.5352 63.3649 15.571 63.3641 15.5964C63.3634 15.6156 63.3594 15.6311 63.3453 15.6523L66.3087 17.6357C67.8742 15.2967 66.3064 11.8811 63.2944 11.8811V15.447ZM15.55 15.3976C15.5304 15.4193 15.5081 15.4336 15.4906 15.4411C15.4743 15.448 15.4673 15.447 15.4723 15.447V11.8811C14.5324 11.8811 13.5856 12.2525 12.9039 13.0072L15.55 15.3976ZM6.694 69.037C6.694 69.037 6.694 69.0367 6.69402 69.0362C6.69404 69.0357 6.69408 69.035 6.69416 69.0341C6.69432 69.0323 6.69461 69.0299 6.69511 69.027C6.69617 69.021 6.69782 69.0149 6.69978 69.0094C6.70172 69.0041 6.70325 69.0014 6.70313 69.0016C6.70296 69.0019 6.70047 69.0063 6.694 69.0143L9.47487 71.2465C9.96758 70.6327 10.26 69.8727 10.26 69.037H6.694Z" fill="black" mask="url(#path-4-inside-4)"/>
<rect x="16.1505" y="27.036" width="38.3341" height="12.4809" fill="#E45142" stroke="#E45142" stroke-width="1.78298"/>
<path d="M16.1506 46.6489H27.74" stroke="black" stroke-width="1.78298" stroke-linecap="round" stroke-linejoin="round"/>
<path d="M32.1975 46.6489H54.4848" stroke="black" stroke-width="1.78298" stroke-linecap="round" stroke-linejoin="round"/>
<path d="M16.1506 50.2148H27.74" stroke="black" stroke-width="1.78298" stroke-linecap="round" stroke-linejoin="round"/>
<path d="M32.1975 50.2148H54.4848" stroke="black" stroke-width="1.78298" stroke-linecap="round" stroke-linejoin="round"/>
<path d="M16.1506 53.7808H27.74" stroke="black" stroke-width="1.78298" stroke-linecap="round" stroke-linejoin="round"/>
<path d="M32.1975 53.7808H54.4848" stroke="black" stroke-width="1.78298" stroke-linecap="round" stroke-linejoin="round"/>
<path d="M16.1506 57.3467H27.74" stroke="black" stroke-width="1.78298" stroke-linecap="round" stroke-linejoin="round"/>
<path d="M32.1975 57.3467H54.4848" stroke="black" stroke-width="1.78298" stroke-linecap="round" stroke-linejoin="round"/>
<path d="M16.1506 60.9131H27.74" stroke="black" stroke-width="1.78298" stroke-linecap="round" stroke-linejoin="round"/>
<path d="M32.1975 60.9131H54.4848" stroke="black" stroke-width="1.78298" stroke-linecap="round" stroke-linejoin="round"/>
<path d="M16.1506 64.479H27.74" stroke="black" stroke-width="1.78298" stroke-linecap="round" stroke-linejoin="round"/>
<path d="M32.1975 64.479H54.4848" stroke="black" stroke-width="1.78298" stroke-linecap="round" stroke-linejoin="round"/>
<path d="M19.7166 35.7654V30.7884L25.2788 35.7654V30.7884M33.3109 35.7654H28.2466V33.2769M33.3109 30.7884H28.2466V33.2769M28.2466 33.2769H33.3109M36.1651 30.7883L38.0191 35.7653L39.8732 33.4546L41.3565 35.7653L43.5813 30.7883M50.5861 31.4102C49.7597 30.4768 48.1069 30.4771 47.2806 30.7882C46.4542 31.0992 45.6278 32.9655 47.2806 33.2765C48.9333 33.5876 49.7597 32.9655 50.5861 33.5876C51.4125 34.2097 50.5861 35.454 49.3465 35.765C48.1069 36.0761 46.8674 36.0758 46.041 35.1429" stroke="#F0F0F0" stroke-width="1.78298" stroke-linecap="round" stroke-linejoin="round"/>
<path d="M76.3262 40.8543L81.2294 35.0596" stroke="black" stroke-width="1.78298" stroke-linecap="round"/>
<path d="M78.1091 44.4202L86.1326 35.0596" stroke="black" stroke-width="1.78298" stroke-linecap="round"/>
<path d="M80.3379 47.5404L91.0358 35.0596" stroke="black" stroke-width="1.78298" stroke-linecap="round"/>
<path d="M82.1208 51.1064L95.939 35.0596" stroke="black" stroke-width="1.78298" stroke-linecap="round"/>
<path d="M83.9038 54.6723L97.7219 38.6255" stroke="black" stroke-width="1.78298" stroke-linecap="round"/>
<path d="M87.8491 19.9562L81.0326 25.483L90.2781 9.89783C90.8958 8.8565 90.5692 7.51247 89.5425 6.87077C86.8204 5.16949 79.4868 2.14522 70.4387 2.52222C65.6658 2.72109 61.1459 4.57064 57.5081 6.69013C54.3271 8.54342 51.6929 10.6776 49.9917 12.3267H16.5962C14.8339 12.3267 13.374 12.9937 12.6221 14.0404L11.4542 15.2081L11.4542 15.2082C6.6901 19.9723 6.28752 25.8045 6.78967 28.5892V70.1007C6.76105 70.171 6.6797 70.3554 6.47277 70.6543C6.0988 71.1945 5.38786 71.9936 4.11531 72.9481C3.66931 73.2826 3.23828 73.6663 2.9048 74.112C2.57953 74.5467 2.20526 75.2337 2.24565 76.1059C2.28942 77.0511 2.79249 77.7279 3.2757 78.1295C3.72082 78.4996 4.21594 78.7033 4.5869 78.8235C5.9476 79.2647 7.87667 79.2598 9.08592 79.1885H51.3644C56.0239 79.1885 59.0532 77.1849 60.7617 74.4691C62.3457 71.9511 62.6674 69.0359 62.508 67.0584V64.2108C66.938 66.1403 71.6204 66.4902 75.7999 66.096C81.0792 65.5981 85.7512 63.8988 88.5126 62.4369C89.5826 61.8704 90.0046 60.5534 89.4632 59.4705L88.1213 56.7867C98.5254 49.5153 101.003 38.9549 100.841 34.094C100.801 32.8926 99.8154 31.9395 98.6134 31.9395H95.3852C94.8446 26.3477 92.4015 22.0163 90.9777 20.276C90.2007 19.3263 88.8022 19.1834 87.8491 19.9562Z" stroke="black" stroke-width="4.45746" stroke-linecap="round" stroke-linejoin="round"/>
</svg>
