<svg width="121" height="75" viewBox="0 0 121 75" fill="none" xmlns="http://www.w3.org/2000/svg">
<path d="M2.71484 32.3013H50.4096" stroke="black" stroke-width="4.45746" stroke-linecap="round"/>
<path d="M20.5447 41.2163H68.2394" stroke="black" stroke-width="4.45746" stroke-linecap="round"/>
<path d="M20.5447 48.3481H68.2394" stroke="black" stroke-width="4.45746" stroke-linecap="round"/>
<path d="M20.5447 55.48H68.2394" stroke="black" stroke-width="4.45746" stroke-linecap="round"/>
<path d="M20.5447 62.6123H68.2394" stroke="black" stroke-width="4.45746" stroke-linecap="round"/>
<path d="M15.1957 38.0962L11.6298 41.6622L15.1957 45.2281" stroke="black" stroke-width="1.78298" stroke-linecap="round"/>
<path d="M57.9875 62.6123H105.682" stroke="black" stroke-width="4.45746" stroke-linecap="round"/>
<path d="M48.1809 33.1929H95.8757" stroke="black" stroke-width="4.45746" stroke-linecap="round"/>
<path d="M48.1812 40.3247H95.8759" stroke="black" stroke-width="4.45746" stroke-linecap="round"/>
<path d="M48.1812 47.4565H95.8759" stroke="black" stroke-width="4.45746" stroke-linecap="round"/>
<path d="M48.1812 54.5889H95.8759" stroke="black" stroke-width="4.45746" stroke-linecap="round"/>
<path d="M115.935 59.0459L119.5 62.6119L115.935 66.1778" stroke="black" stroke-width="1.78298" stroke-linecap="round"/>
<path d="M113.26 56.3716L109.694 69.2982" stroke="black" stroke-width="1.78298" stroke-linecap="round"/>
<path d="M25.0022 13.8335C37.0389 17.6208 52.0076 8.70482 57.9874 3.77344C63.9671 8.70482 78.9358 17.6208 90.9725 13.8335C88.6578 31.5864 88.0791 55.8488 57.9874 72.4182C27.8956 55.8488 27.3169 31.5864 25.0022 13.8335Z" fill="#F0F0F0" stroke="black" stroke-width="4.45746"/>
<path d="M25.0022 13.8335C37.0389 17.6208 52.0076 8.70482 57.9874 3.77344C63.9671 8.70482 78.9358 17.6208 90.9725 13.8335C88.6578 31.5864 88.0791 55.8488 57.9874 72.4182C27.8956 55.8488 27.3169 31.5864 25.0022 13.8335Z" stroke="black" stroke-width="4.45746"/>
<path d="M33.9174 22.0491C42.1238 22.0491 53.624 16.339 57.9876 12.6885C62.3512 16.339 72.6972 22.0491 82.0579 22.0491C80.3687 35.1909 79.9464 51.2378 57.9876 63.5035C36.0288 51.2378 35.6065 35.1909 33.9174 22.0491Z" fill="#E45142" stroke="#F0F0F0" stroke-width="1.78298"/>
<path d="M50.8557 29.6265L43.7238 36.7584L50.8557 43.8903" stroke="#F0F0F0" stroke-width="1.78298" stroke-linecap="round"/>
<path d="M64.2279 29.6265L71.3599 36.7584L64.2279 43.8903" stroke="#F0F0F0" stroke-width="1.78298" stroke-linecap="round"/>
<path d="M55.3131 48.3478L60.2163 26.0605" stroke="#F0F0F0" stroke-width="1.78298" stroke-linecap="round"/>
</svg>
