<svg width="70" height="70" viewBox="0 0 70 70" fill="none" xmlns="http://www.w3.org/2000/svg">
<rect x="2.75802" y="7.60031" width="64.1873" height="59.7299" rx="4.9032" stroke="black" stroke-width="4.45746"/>
<rect x="13.0101" y="0.914062" width="9.8064" height="8.91491" rx="4.45746" fill="black"/>
<rect x="29.9485" y="0.914062" width="9.8064" height="8.91491" rx="4.45746" fill="black"/>
<rect x="46.8868" y="0.914062" width="9.8064" height="8.91491" rx="4.45746" fill="black"/>
<rect x="15.6847" y="3.58876" width="4.45746" height="10.6979" rx="2.22873" fill="#F0F0F0" stroke="black" stroke-width="1.78298"/>
<rect x="32.6229" y="3.58876" width="4.45746" height="10.6979" rx="2.22873" fill="#F0F0F0" stroke="black" stroke-width="1.78298"/>
<rect x="49.5613" y="3.58876" width="4.45746" height="10.6979" rx="2.22873" fill="#F0F0F0" stroke="black" stroke-width="1.78298"/>
<rect x="2.31226" y="20.5269" width="64.1874" height="1.78298" fill="black"/>
<rect x="13.0101" y="41.9227" width="3.56596" height="3.56596" stroke="black" stroke-width="1.78298"/>
<rect x="23.708" y="41.9227" width="3.56596" height="3.56596" stroke="black" stroke-width="1.78298"/>
<rect x="23.708" y="31.225" width="3.56596" height="3.56596" stroke="black" stroke-width="1.78298"/>
<rect x="55.8018" y="31.225" width="3.56596" height="3.56596" stroke="black" stroke-width="1.78298"/>
<rect x="55.8018" y="41.9227" width="3.56596" height="3.56596" stroke="black" stroke-width="1.78298"/>
<rect x="13.0101" y="52.6205" width="3.56596" height="3.56596" stroke="black" stroke-width="1.78298"/>
<rect x="23.708" y="52.6205" width="3.56596" height="3.56596" stroke="black" stroke-width="1.78298"/>
<rect x="34.4059" y="52.6205" width="3.56596" height="3.56596" stroke="black" stroke-width="1.78298"/>
<rect x="45.1039" y="52.6205" width="3.56596" height="3.56596" stroke="black" stroke-width="1.78298"/>
<rect x="55.8018" y="52.6205" width="3.56596" height="3.56596" stroke="black" stroke-width="1.78298"/>
<path d="M41.1717 28.5579C41.4881 27.86 42.4792 27.86 42.7955 28.5579L45.1343 33.7162C45.2641 34.0023 45.5348 34.1991 45.8471 34.234L51.4757 34.8643C52.2371 34.9496 52.5434 35.8922 51.9775 36.4087L47.7943 40.2271C47.5623 40.4389 47.4589 40.7572 47.5221 41.0649L48.662 46.6128C48.8162 47.3633 48.0144 47.9459 47.3482 47.5673L42.4241 44.7688C42.151 44.6136 41.8163 44.6136 41.5431 44.7688L36.619 47.5673C35.9529 47.9459 35.1511 47.3633 35.3053 46.6128L36.4451 41.0649C36.5084 40.7572 36.405 40.4389 36.1729 40.2271L31.9897 36.4087C31.4239 35.8922 31.7301 34.9496 32.4916 34.8643L38.1202 34.234C38.4324 34.1991 38.7032 34.0023 38.8329 33.7162L41.1717 28.5579Z" fill="#E45142"/>
</svg>
