<svg width="53" height="41" viewBox="0 0 53 41" fill="none" xmlns="http://www.w3.org/2000/svg">
<path d="M14.9923 21.9794C16.3508 22.7557 17.4182 23.8717 18.1945 25.3272C19.0678 26.6858 19.5045 28.2384 19.5045 29.985C19.5045 32.9932 18.4856 35.5162 16.4478 37.5539C14.5071 39.5917 12.1297 40.6106 9.31558 40.6106C6.69558 40.6106 4.46372 39.7373 2.62001 37.9906C0.873336 36.2439 0 34.0121 0 31.295C0 29.8395 0.242593 28.4809 0.727779 27.2195C1.21297 25.8609 2.0863 24.0658 3.34779 21.8339L15.5745 0.000488281H24.7445L14.9923 21.9794ZM42.5024 21.9794C43.8609 22.7557 44.9283 23.8717 45.7046 25.3272C46.5779 26.6858 47.0146 28.2384 47.0146 29.985C47.0146 32.9932 45.9957 35.5162 43.9579 37.5539C42.0172 39.5917 39.6398 40.6106 36.8257 40.6106C34.2057 40.6106 31.9738 39.7373 30.1301 37.9906C28.3834 36.2439 27.5101 34.0121 27.5101 31.295C27.5101 29.8395 27.7527 28.4809 28.2379 27.2195C28.7231 25.8609 29.5964 24.0658 30.8579 21.8339L43.0846 0.000488281H52.2546L42.5024 21.9794Z" fill="#E45142"/>
</svg>
