<svg width="355" height="32" viewBox="0 0 355 32" fill="none" xmlns="http://www.w3.org/2000/svg">
<g clip-path="url(#clip0)">
<path d="M49.6655 30.7378C46.706 30.7378 44.2537 30.1096 42.3085 28.8531C40.363 27.5965 39.0074 25.8895 38.2292 23.7558L44.3483 20.1759C45.3856 22.6653 47.225 23.9099 49.8658 23.9099C52.0469 23.9099 53.1433 23.2816 53.1433 22.0251C53.1433 21.1953 52.5185 20.5197 51.2687 20.0218C50.7383 19.8084 49.5594 19.441 47.7554 18.9312C45.197 18.1844 43.1691 17.1294 41.6834 15.7781C40.1863 14.4267 39.4436 12.5419 39.4436 10.1356C39.4436 7.53951 40.3748 5.4295 42.226 3.8292C44.0769 2.21707 46.3877 1.42285 49.1583 1.42285C51.5046 1.42285 53.5795 1.96814 55.3953 3.07056C57.211 4.17299 58.5903 5.76144 59.5572 7.84774L53.568 11.3802C52.6838 9.29391 51.2336 8.25078 49.2056 8.25078C48.3565 8.25078 47.7082 8.42858 47.2719 8.77234C46.8357 9.1161 46.6117 9.56656 46.6117 10.1C46.6117 10.7164 46.9418 11.238 47.5902 11.6647C48.2389 12.0915 49.5121 12.5893 51.4103 13.1465C52.7662 13.5495 53.8626 13.9289 54.6877 14.2726C55.5132 14.6164 56.4211 15.1261 57.3996 15.7781C58.3781 16.43 59.121 17.2835 59.5924 18.3148C60.0759 19.3461 60.3117 20.5553 60.3117 21.954C60.3117 24.716 59.3332 26.8734 57.3996 28.4263C55.4307 29.9673 52.8605 30.7378 49.6655 30.7378Z" fill="black"/>
<path d="M85.5067 2.01562L76.0748 19.3343V30.1452H68.9181V19.4173L59.4862 2.01562H67.5152L72.4669 12.4235L77.4658 2.01562H85.5067Z" fill="black"/>
<path d="M103.132 2.01562H110.242V30.1452H104.724L94.8557 16.0034V30.1452H87.6993V2.01562H93.2639L103.132 16.1575V2.01562Z" fill="black"/>
<path d="M121.831 23.3884H132.666V30.1334H114.686V2.01562H132.465V8.725H121.831V12.625H131.463V19.2514H121.831V23.3884Z" fill="black"/>
<path d="M150.646 30.1334L145.764 21.0532H143.206V30.1334H136.05V2.01562H147.238C150.092 2.01562 152.485 2.92838 154.407 4.76575C156.34 6.60314 157.307 8.92652 157.307 11.7359C157.307 13.4192 156.882 14.9721 156.033 16.3709C155.185 17.7815 154.017 18.8958 152.555 19.7255L158.309 30.1334H150.646ZM143.218 8.64201V14.9484H147.179C148.064 14.9721 148.783 14.6994 149.337 14.1067C149.891 13.514 150.174 12.7554 150.174 11.8189C150.174 10.8824 149.891 10.1238 149.337 9.53108C148.783 8.93838 148.064 8.64201 147.179 8.64201H143.218Z" fill="black"/>
<path d="M188.209 14.0237V16.8805C188.209 21.0057 186.924 24.3485 184.354 26.909C181.783 29.4695 178.447 30.7497 174.344 30.7497C169.97 30.7497 166.386 29.3391 163.58 26.5297C160.774 23.7203 159.359 20.247 159.359 16.1218C159.359 11.9966 160.762 8.51154 163.556 5.67845C166.35 2.83348 169.817 1.42285 173.943 1.42285C176.549 1.42285 178.942 2.01555 181.111 3.1891C183.281 4.36266 184.978 5.93925 186.204 7.89516L180.133 11.3921C179.579 10.503 178.753 9.80365 177.68 9.25837C176.596 8.72492 175.382 8.4523 174.026 8.4523C171.809 8.4523 170.005 9.17538 168.59 10.6216C167.176 12.0678 166.468 13.917 166.468 16.1693C166.468 18.3385 167.164 20.1759 168.567 21.6695C169.97 23.175 171.927 23.9218 174.462 23.9218C177.716 23.9218 179.861 22.689 180.899 20.2233H174.108V14.0355H188.209V14.0237Z" fill="black"/>
<path d="M212.944 2.01562L203.512 19.3343V30.1452H196.356V19.4173L186.924 2.01562H194.953L199.905 12.4235L204.903 2.01562H212.944Z" fill="black"/>
<path d="M213.947 30.7022C212.767 30.7022 211.777 30.2991 210.963 29.4812C210.15 28.6633 209.749 27.6794 209.749 26.5295C209.749 25.3797 210.162 24.3958 210.987 23.5779C211.813 22.76 212.803 22.3569 213.947 22.3569C215.09 22.3569 216.069 22.76 216.882 23.5779C217.696 24.3958 218.096 25.3797 218.096 26.5295C218.096 27.6794 217.696 28.6633 216.882 29.4812C216.069 30.2991 215.09 30.7022 213.947 30.7022Z" fill="#E45142"/>
<path d="M245.896 26.4228C243.09 29.244 239.659 30.6665 235.604 30.6665C231.56 30.6665 228.129 29.2559 225.311 26.4228C222.505 23.6015 221.09 20.152 221.09 16.0742C221.09 11.9964 222.493 8.55879 225.311 5.72566C228.117 2.90442 231.548 1.48193 235.604 1.48193C239.659 1.48193 243.078 2.89256 245.896 5.72566C248.702 8.54693 250.117 11.9964 250.117 16.0742C250.117 20.152 248.702 23.5897 245.896 26.4228ZM228.553 23.2815C230.463 25.2018 232.81 26.1501 235.604 26.1501C238.398 26.1501 240.756 25.19 242.654 23.2815C244.564 21.3611 245.507 18.9666 245.507 16.0742C245.507 13.1818 244.552 10.7755 242.654 8.86698C240.744 6.94663 238.398 5.99832 235.604 5.99832C232.81 5.99832 230.452 6.95849 228.553 8.86698C226.643 10.7873 225.7 13.1818 225.7 16.0742C225.688 18.9666 226.643 21.373 228.553 23.2815Z" fill="black"/>
<path d="M271.092 2.01562H275.69V30.1452H272.094L258.901 11.0602V30.1452H254.303V2.01562H257.899L271.092 21.1006V2.01562Z" fill="black"/>
<path d="M285.877 25.7118H297.266V30.1334H281.279V2.01562H285.877V25.7118Z" fill="black"/>
<path d="M300.661 2.01562H305.259V30.1452H300.661V2.01562Z" fill="black"/>
<path d="M327.636 2.01562H332.235V30.1452H328.638L315.446 11.0602V30.1452H310.849V2.01562H314.444L327.636 21.1006V2.01562Z" fill="black"/>
<path d="M342.421 25.7118H354.813V30.1334H337.835V2.01562H354.624V6.43718H342.433V13.7511H353.622V18.1253H342.433V25.7118H342.421Z" fill="black"/>
<path d="M0.123657 0.723145V31.2591H30.4946V0.723145H0.123657ZM4.82784 26.5293V5.4529H25.7904V26.5293H4.82784Z" fill="#E45142"/>
<path d="M18.4811 25.7708V19.0852L15.4039 15.9913L18.4929 12.8737V6.18799L8.75439 15.9913L18.4811 25.7708Z" fill="#E45142"/>
</g>
<defs>
<clipPath id="clip0">
<rect width="355" height="30.9693" fill="white" transform="translate(0 0.5)"/>
</clipPath>
</defs>
</svg>
