<svg width="33" height="33" fill="none" xmlns="http://www.w3.org/2000/svg"><g clip-path="url(#clip0)"><path d="M27.084 32.446a97.703 97.703 0 01-20.775 0 5.89 5.89 0 01-5.231-5.232 97.694 97.694 0 010-20.774 5.89 5.89 0 015.231-5.23 97.694 97.694 0 0120.774 0 5.89 5.89 0 015.232 5.231 97.7 97.7 0 010 20.774 5.89 5.89 0 01-5.231 5.232z" fill="url(#paint0_linear)"/><path d="M30.556 7.61a5.226 5.226 0 00-4.642-4.642 86.725 86.725 0 00-18.435 0A5.227 5.227 0 002.837 7.61a86.723 86.723 0 000 18.434 5.226 5.226 0 004.642 4.643 86.688 86.688 0 0018.434 0 5.226 5.226 0 004.643-4.643 86.688 86.688 0 000-18.434z" fill="url(#paint1_linear)"/><path d="M1.008 26.544l.07.67a5.89 5.89 0 005.231 5.232 97.688 97.688 0 0020.775 0 5.89 5.89 0 005.231-5.231l.07-.671H1.008z" fill="url(#paint2_linear)"/><path d="M22.27 6.042a5.103 5.103 0 00-5.103 5.102v3.812H14.42v4.719l2.746 2.46v10.863c3.307-.015 6.614-.2 9.917-.552a5.89 5.89 0 005.231-5.232c.55-5.147.69-10.305.422-15.459l-5.714-5.713h-4.754z" fill="url(#paint3_linear)"/><path d="M17.167 32.998a97.516 97.516 0 005.652-.191V19.675h3.75l.454-4.72h-4.204V11.96c0-.662.537-1.198 1.199-1.198h3.005V6.04h-4.754a5.103 5.103 0 00-5.102 5.103v3.812H14.42v4.719h2.746v13.323z" fill="#fff"/></g><defs><linearGradient id="paint0_linear" x1="11.263" y1="5.202" x2="19.444" y2="22.706" gradientUnits="userSpaceOnUse"><stop stop-color="#3457A0"/><stop offset="1" stop-color="#3B5998"/></linearGradient><linearGradient id="paint1_linear" x1="22.832" y1="21.043" x2="-5.443" y2="1.616" gradientUnits="userSpaceOnUse"><stop stop-color="#3457A0" stop-opacity="0"/><stop offset="1" stop-color="#1F3F77"/></linearGradient><linearGradient id="paint2_linear" x1="16.697" y1="27.685" x2="16.697" y2="32.062" gradientUnits="userSpaceOnUse"><stop stop-color="#3457A0" stop-opacity="0"/><stop offset="1" stop-color="#1F3F77"/></linearGradient><linearGradient id="paint3_linear" x1="37.656" y1="27.367" x2="15.206" y2="16.047" gradientUnits="userSpaceOnUse"><stop stop-color="#3457A0" stop-opacity="0"/><stop offset=".325" stop-color="#2A4C8D" stop-opacity=".325"/><stop offset=".705" stop-color="#22427D" stop-opacity=".706"/><stop offset="1" stop-color="#1F3F77"/></linearGradient><clipPath id="clip0"><path fill="#fff" transform="translate(.524 .655)" d="M0 0h32.345v32.345H0z"/></clipPath></defs></svg>