<svg width="17" height="17" fill="none" xmlns="http://www.w3.org/2000/svg"><g clip-path="url(#clip0)" fill="#fff"><path d="M11.269 8.587L17 12.21V4.811l-5.731 3.776zM0 4.811v7.4l5.731-3.624L0 4.811zm15.938-2.155H1.063c-.53 0-.951.395-1.031.904L8.5 9.14l8.468-5.58a1.05 1.05 0 00-1.03-.904zm-5.642 6.573l-1.504.99a.53.53 0 01-.584 0l-1.504-.991-6.67 4.219c.082.505.5.897 1.028.897h14.876c.528 0 .946-.392 1.028-.897l-6.67-4.218z"/></g><defs><clipPath id="clip0"><path fill="#fff" d="M0 0h17v17H0z"/></clipPath></defs></svg>