<svg width="35" height="49" fill="none" xmlns="http://www.w3.org/2000/svg"><path d="M19.08 25.696l-5.26 8.13-5.02 2.149c-2.957-3.388-6.115-7.408-7.608-12.49l3.005-5.588 4.833-2.25a9.51 9.51 0 00-.143 1.58c0 4.737 3.876 8.613 8.613 8.613a9.53 9.53 0 001.58-.144z" fill="#FFDA2D"/><path d="M25.97 18.797a9.398 9.398 0 00.143-1.57c0-4.734-3.87-8.608-8.602-8.614H17.5a9.53 9.53 0 00-1.58.144l7.638-7.637a17.184 17.184 0 0110.049 10.049l-7.637 7.637v-.009z" fill="#80AEF8"/><path d="M33.607 11.168l-2.613 5.102-5.024 2.536v-.009a9.398 9.398 0 00.143-1.57c0-4.734-3.87-8.608-8.602-8.614h-.008V7.175l1.72-3.825 4.335-2.23a17.184 17.184 0 0110.049 10.049z" fill="#4086F4"/><path d="M33.607 11.168l-7.637 7.638a8.701 8.701 0 01-6.891 6.89l-8.314 8.314L8.8 35.975c.489.545.92 1.033 1.379 1.55 3.158 3.59 5.885 6.881 5.885 10.04 0 .803.632 1.435 1.436 1.435.804 0 1.436-.632 1.436-1.436 0-3.158 2.727-6.45 5.885-10.039 4.422-4.967 9.906-11.168 9.906-20.298 0-2.125-.374-4.164-1.12-6.059z" fill="#59C36A"/><path d="M33.607 11.168l-7.637 7.637a8.701 8.701 0 01-6.89 6.891h-.001l-1.576 1.576V49a1.421 1.421 0 001.433-1.435c0-3.158 2.727-6.45 5.885-10.039 4.422-4.967 9.906-11.168 9.906-20.298 0-2.125-.374-4.164-1.12-6.059z" fill="#00A66C"/><path d="M17.503 27.272l1.576-1.576a9.54 9.54 0 01-1.576.143v1.433z" fill="#FDBF00"/><path d="M23.558 1.12l-7.637 7.637a8.714 8.714 0 00-4.508 2.383l-4.44-1.857-1.646-4.23A17.067 17.067 0 0117.5 0c2.125 0 4.163.373 6.058 1.12z" fill="#4086F4"/><path d="M17.503 7.175l6.055-6.055C21.664.374 19.627 0 17.503 0v7.175z" fill="#4175DF"/><path d="M11.413 11.14a8.715 8.715 0 00-2.383 4.508l-7.838 7.837a21.674 21.674 0 01-.919-6.258c0-4.767 1.924-9.073 5.054-12.174l6.086 6.087z" fill="#F03800"/></svg>