<svg width="31" height="31" fill="none" xmlns="http://www.w3.org/2000/svg"><g clip-path="url(#clip0)"><path d="M31 25.833H0V5.166h31v20.667z" fill="#F0F0F0"/><path d="M17.438 25.834h-3.875v-8.396H0v-3.875h13.563V5.167h3.874v8.396H31v3.875H17.437v8.396z" fill="#D80027"/><path d="M23.843 11.906L31 7.93v3.976h-7.157zm-4.973 0L31 5.167v1.906l-8.7 4.833h-3.43zm8.899-6.739l-8.9 4.944V5.167h8.9z" fill="#0052B4"/><path d="M18.87 11.906L31 5.167v1.906l-8.7 4.833h-3.43z" fill="#F0F0F0"/><path d="M18.87 11.906L31 5.167v1.906l-8.7 4.833h-3.43z" fill="#D80027"/><path d="M5.47 11.906L0 8.867v3.04h5.47zm6.66-.856V5.166H1.543l10.587 5.882z" fill="#0052B4"/><path d="M8.7 11.906L0 7.073V5.167l12.13 6.74H8.7z" fill="#D80027"/><path d="M7.158 19.094L0 23.071v-3.977h7.158zm4.972 0L0 25.834v-1.906l8.7-4.834h3.43zm-8.899 6.74l8.9-4.945v4.945h-8.9z" fill="#0052B4"/><path d="M12.13 19.094L0 25.834v-1.906l8.7-4.834h3.43z" fill="#F0F0F0"/><path d="M12.13 19.094L0 25.834v-1.906l8.7-4.834h3.43z" fill="#D80027"/><path d="M25.53 19.094l5.47 3.04v-3.04h-5.47zm-6.66.857v5.883h10.587L18.87 19.95z" fill="#0052B4"/><path d="M22.3 19.094l8.7 4.834v1.906l-12.13-6.74h3.43z" fill="#D80027"/></g><defs><clipPath id="clip0"><path fill="#fff" transform="matrix(1 0 0 -1 0 31)" d="M0 0h31v31H0z"/></clipPath></defs></svg>