<svg width="33" height="33" fill="none" xmlns="http://www.w3.org/2000/svg"><g clip-path="url(#clip0)"><path d="M32.774.655H.429V33h32.345V.655z" fill="#7D3DAF"/><path d="M26.83 11.081l-.006-.026c-.516-2.088-2.846-4.33-4.985-4.796l-.024-.005c-3.46-.66-6.968-.66-10.428 0l-.024.005c-2.139.466-4.468 2.708-4.986 4.796l-.005.026a20.41 20.41 0 000 8.792l.005.026c.496 2 2.652 4.138 4.711 4.726v2.332c0 .843 1.028 1.258 1.613.649l2.363-2.456a27.494 27.494 0 006.751-.45l.024-.005c2.14-.466 4.469-2.707 4.985-4.796l.007-.026a20.41 20.41 0 000-8.792zm-1.869 8.37c-.345 1.362-2.113 3.056-3.519 3.37-1.84.349-3.694.498-5.546.447a.131.131 0 00-.098.04l-1.725 1.77-1.835 1.884a.215.215 0 01-.37-.149v-3.862a.133.133 0 00-.108-.13c-1.406-.314-3.174-2.008-3.52-3.37a18.522 18.522 0 010-7.947c.346-1.363 2.114-3.057 3.52-3.37a25.801 25.801 0 019.682 0c1.406.313 3.174 2.007 3.52 3.37a18.5 18.5 0 010 7.946z" fill="#fff"/><path d="M19.658 21.233c-.216-.065-.422-.11-.613-.189-1.981-.822-3.805-1.882-5.25-3.508-.82-.924-1.463-1.968-2.007-3.073-.258-.523-.475-1.068-.696-1.608-.202-.494.095-1.003.408-1.375a3.228 3.228 0 011.082-.812c.32-.153.634-.065.868.206.504.586.968 1.201 1.343 1.88.23.417.167.928-.251 1.212-.102.069-.194.15-.289.228a.947.947 0 00-.218.23.63.63 0 00-.042.553c.516 1.417 1.385 2.52 2.811 3.113.229.095.458.205.72.175.441-.052.584-.535.892-.787.302-.247.688-.25 1.012-.045.325.206.64.427.954.65.307.22.613.433.897.683.272.24.366.555.213.881-.282.597-.69 1.093-1.28 1.41-.167.09-.366.118-.554.176-.216-.065.188-.058 0 0zM16.607 9.986c2.591.072 4.72 1.792 5.176 4.354.078.437.105.883.14 1.326.015.187-.091.364-.292.366-.208.003-.301-.17-.315-.357-.026-.369-.045-.74-.096-1.105-.268-1.93-1.808-3.528-3.73-3.87-.288-.052-.584-.066-.877-.097-.185-.019-.428-.03-.469-.26-.034-.193.129-.347.312-.357.05-.003.1 0 .15 0 2.592.072-.05 0 0 0z" fill="#fff"/><path d="M20.545 15.091c-.004.033-.006.109-.025.18-.07.26-.464.293-.554.03a.782.782 0 01-.032-.25c0-.549-.12-1.097-.396-1.575a2.932 2.932 0 00-1.23-1.153 3.54 3.54 0 00-.98-.3c-.147-.025-.296-.04-.445-.06-.18-.025-.276-.14-.267-.317a.28.28 0 01.31-.276c.595.034 1.17.163 1.698.443 1.076.57 1.69 1.468 1.869 2.668.008.055.021.108.025.163.01.135.017.27.027.447-.004.033-.01-.177 0 0z" fill="#fff"/><path d="M18.933 15.029c-.217.004-.333-.116-.355-.315-.016-.139-.028-.28-.061-.414a1.165 1.165 0 00-.43-.675 1.125 1.125 0 00-.35-.169c-.159-.045-.324-.033-.483-.072-.172-.042-.268-.181-.24-.343a.311.311 0 01.328-.25c1.005.072 1.723.591 1.826 1.774.007.084.015.172-.003.252-.032.137-.133.205-.232.212-.217.004.099-.007 0 0z" fill="#fff"/></g><defs><clipPath id="clip0"><rect x=".429" y=".655" width="32.345" height="32.345" rx="7" fill="#fff"/></clipPath></defs></svg>