<svg width="419" height="306" viewBox="0 0 419 306" fill="none" xmlns="http://www.w3.org/2000/svg">
<path d="M223.742 42.062C223.476 41.6036 223.387 41.0466 223.546 40.4944C223.848 39.4489 224.904 38.857 225.91 39.1412C229.53 40.2141 233.142 41.448 236.645 42.8076C237.62 43.1976 238.097 44.3274 237.718 45.3308C237.332 46.3454 236.231 46.8525 235.259 46.4631C231.852 45.1372 228.343 43.9386 224.822 42.9C224.351 42.7711 223.979 42.4516 223.742 42.062ZM196.958 36.6566C196.742 36.2967 196.641 35.8619 196.7 35.4002C196.835 34.3302 197.785 33.565 198.824 33.6816C202.557 34.1298 206.318 34.6966 210.005 35.3846C211.036 35.5743 211.704 36.5964 211.507 37.6525C211.305 38.7202 210.309 39.4252 209.28 39.2358C205.671 38.5651 201.99 38.0034 198.34 37.5611C197.742 37.4917 197.246 37.145 196.958 36.6566ZM169.624 35.5783C169.468 35.2942 169.37 34.9726 169.351 34.6185C169.335 33.5403 170.152 32.6333 171.202 32.5899C174.961 32.4439 178.765 32.4205 182.531 32.5136C183.58 32.5324 184.397 33.4372 184.353 34.5147C184.309 35.5921 183.433 36.4362 182.385 36.4174C178.704 36.3182 174.972 36.3451 171.296 36.4969C170.599 36.5307 169.969 36.1542 169.624 35.5783ZM142.408 38.8373C142.292 38.6493 142.208 38.4306 142.165 38.1839C141.974 37.1296 142.662 36.0942 143.698 35.8976C147.384 35.1483 151.152 34.5173 154.892 34.0173C155.929 33.8709 156.875 34.6293 157.003 35.6947C157.117 36.7694 156.37 37.7419 155.334 37.8883C151.668 38.3797 147.988 38.9928 144.379 39.7216C143.581 39.8831 142.804 39.5118 142.408 38.8373ZM115.965 46.4401C115.906 46.327 115.846 46.2138 115.803 46.0794C115.446 45.0636 115.972 43.9424 116.961 43.5731C120.485 42.2384 124.121 41.0032 127.751 39.9042C128.761 39.6021 129.807 40.1826 130.098 41.2214C130.378 42.2578 129.788 43.3399 128.775 43.6539C125.223 44.7324 121.666 45.9352 118.221 47.2374C117.352 47.5581 116.424 47.2159 115.965 46.4401ZM91.0025 58.3055L90.958 58.2332C90.4506 57.2966 90.7852 56.1083 91.7017 55.5731C94.9906 53.6616 98.3818 51.8352 101.802 50.1525C102.754 49.6752 103.885 50.0871 104.324 51.0586C104.775 52.0326 104.359 53.2031 103.41 53.6685C100.058 55.3162 96.738 57.0959 93.543 58.9656C92.6406 59.4914 91.523 59.1825 91.0025 58.3055ZM68.2483 74.2565C67.7634 73.4374 67.9307 72.3496 68.6872 71.7167C69.3562 71.1519 70.0367 70.5897 70.7288 70.03C73.0253 68.1747 75.3973 66.361 77.7882 64.6264C78.6397 64.0019 79.8272 64.2137 80.4195 65.0941C81.0029 65.9599 80.8042 67.1907 79.9411 67.8126C77.6095 69.4978 75.294 71.274 73.0542 73.0919C72.3763 73.6422 71.7127 74.1831 71.0463 74.736C70.2304 75.4183 69.0335 75.3044 68.3845 74.4615L68.2483 74.2565ZM48.4984 94.0314C48.0848 93.3279 48.1435 92.4037 48.6898 91.7369C51.1703 88.7725 53.7698 85.8718 56.4496 83.1013C57.2005 82.3297 58.4006 82.3194 59.1309 83.0677C59.8702 83.8305 59.8639 85.0662 59.1246 85.8403C56.5093 88.5376 53.9628 91.3625 51.5583 94.2562C50.8688 95.0789 49.6734 95.1777 48.8811 94.4907C48.7317 94.3453 48.608 94.193 48.4984 94.0314ZM32.5001 117.095C32.1463 116.505 32.1246 115.725 32.4847 115.08C34.4115 111.718 36.4794 108.376 38.6248 105.175C39.221 104.282 40.4081 104.056 41.2676 104.658C42.127 105.26 42.3415 106.482 41.7338 107.372C39.6413 110.497 37.6317 113.741 35.7579 117.026C35.2115 117.968 34.0522 118.287 33.1539 117.752C32.875 117.59 32.6489 117.353 32.5001 117.095ZM20.5721 142.606C20.2833 142.105 20.2159 141.477 20.4306 140.888C21.7942 137.227 23.2821 133.606 24.8554 130.092C25.3006 129.116 26.4259 128.676 27.3824 129.112C28.3248 129.558 28.7361 130.71 28.2998 131.701C26.759 135.123 25.3099 138.677 23.9647 142.254C23.5862 143.258 22.4913 143.779 21.5101 143.4C21.1078 143.249 20.7833 142.965 20.5721 142.606ZM12.6558 169.676C12.409 169.259 12.3153 168.751 12.4283 168.238C13.2575 164.423 14.2046 160.62 15.2373 156.924C15.5288 155.876 16.5703 155.269 17.584 155.555C18.5889 155.826 19.1737 156.905 18.8822 157.953C17.8768 161.58 16.9454 165.311 16.1346 169.043C15.9007 170.104 14.8809 170.778 13.8655 170.555C13.3348 170.438 12.9116 170.107 12.6558 169.676Z" fill="#8DD1C5"/>
<path d="M341.387 80.5731L274.4 39.9863L258 56.7197L341.387 80.5731Z" fill="#4CA797"/>
<path d="M274.066 89.973L275.026 58.573L341.066 80.573L274.066 89.973Z" fill="#8DD1C5"/>
<path d="M274 14L341.067 80.5731L274.08 39.9865L274 14Z" fill="#8DD1C5"/>
<path d="M258 56.7197L275.347 58.5731L275.2 63.1332L258 56.7197Z" fill="#3D7168"/>
</svg>
