<svg width="425" height="318" viewBox="0 0 425 318" fill="none" xmlns="http://www.w3.org/2000/svg">
<path d="M313.728 122.757C313.268 121.9 313.54 120.81 314.377 120.274C315.257 119.713 316.43 119.973 316.996 120.847C318.959 123.914 320.948 127.136 322.901 130.446C323.434 131.323 323.136 132.504 322.233 133.046C321.332 133.577 320.173 133.271 319.639 132.369C317.708 129.103 315.742 125.924 313.807 122.89L313.728 122.757ZM297.756 100.544C297.338 99.7606 297.519 98.7671 298.233 98.1837C299.044 97.5294 300.238 97.6482 300.899 98.4632C303.218 101.312 305.538 104.32 307.799 107.398C308.409 108.236 308.233 109.427 307.39 110.048C306.543 110.667 305.356 110.489 304.739 109.637C302.519 106.608 300.238 103.647 297.959 100.847L297.756 100.544ZM279.013 80.6394C278.647 79.9572 278.728 79.0831 279.279 78.4777C279.982 77.7066 281.181 77.6421 281.957 78.3427C284.694 80.8306 287.429 83.4779 290.082 86.2248C290.807 86.9845 290.787 88.1835 290.036 88.904C289.281 89.6359 288.082 89.6139 287.353 88.8656C284.76 86.1726 282.088 83.5801 279.41 81.1581C279.246 81.0007 279.113 80.8277 279.013 80.6394ZM257.18 64.2197C256.872 63.6525 256.869 62.9386 257.233 62.3415C257.779 61.452 258.945 61.1692 259.837 61.7183C263.023 63.6581 266.195 65.7782 269.268 68.0176C270.116 68.6278 270.302 69.812 269.689 70.6577C269.069 71.5139 267.887 71.6937 267.039 71.0835C264.048 68.9041 260.959 66.8446 257.863 64.9428C257.564 64.7592 257.334 64.5093 257.18 64.2197ZM232.547 52.4242C232.306 51.9622 232.246 51.4166 232.434 50.8921C232.789 49.8991 233.873 49.3963 234.86 49.739C238.413 51.021 241.952 52.4587 245.374 54.0107C246.326 54.4539 246.743 55.5807 246.312 56.5276C245.875 57.4849 244.751 57.9027 243.801 57.4602C240.474 55.9474 237.037 54.5509 233.581 53.3087C233.118 53.1523 232.763 52.8177 232.547 52.4242ZM206.123 45.3931C205.927 45.0298 205.848 44.6017 205.931 44.1582C206.121 43.1303 207.108 42.4525 208.138 42.635C211.836 43.3192 215.557 44.1203 219.198 45.0339C220.215 45.2867 220.829 46.3219 220.577 47.3321C220.321 48.3532 219.291 48.9698 218.275 48.7173C214.711 47.8258 211.07 47.035 207.454 46.3621C206.862 46.2548 206.385 45.8856 206.123 45.3931ZM178.926 42.5181C178.786 42.2324 178.704 41.9141 178.704 41.5698C178.744 40.5238 179.605 39.6996 180.654 39.7278C184.41 39.838 188.204 40.07 191.954 40.4124C192.999 40.5008 193.766 41.4323 193.666 42.4735C193.567 43.5146 192.65 44.2739 191.605 44.1856C187.941 43.8431 184.218 43.6192 180.546 43.5203C179.849 43.5063 179.24 43.0992 178.926 42.5181ZM151.622 43.8542C151.517 43.6643 151.443 43.4467 151.414 43.2048C151.278 42.1703 152.018 41.213 153.06 41.0919C156.774 40.6125 160.565 40.2533 164.319 40.0192C165.36 39.9467 166.264 40.745 166.336 41.7859C166.394 42.8351 165.599 43.7275 164.558 43.7999C160.878 44.0307 157.177 44.3785 153.541 44.8431C152.737 44.9462 151.982 44.5344 151.622 43.8542ZM124.863 49.4516C124.81 49.3379 124.756 49.2243 124.72 49.0911C124.417 48.0828 124.999 47.0315 126.004 46.7398C129.588 45.6824 133.277 44.7289 136.953 43.9069C137.976 43.6818 138.989 44.3143 139.225 45.3405C139.45 46.3635 138.806 47.3727 137.78 47.6091C134.182 48.4164 130.574 49.3439 127.072 50.3752C126.188 50.6278 125.28 50.234 124.863 49.4516ZM99.3593 59.2786L99.3186 59.2055C98.8613 58.264 99.2565 57.1348 100.198 56.6775C103.576 55.0454 107.052 53.5025 110.549 52.1009C111.523 51.7021 112.63 52.1769 113.017 53.1478C113.416 54.1219 112.941 55.2283 111.97 55.6158C108.543 56.9881 105.14 58.4904 101.858 60.0883C100.931 60.5374 99.8327 60.1633 99.3593 59.2786ZM75.8452 73.2128C75.4043 72.3865 75.6274 71.3436 76.4146 70.7809C77.1109 70.2784 77.8185 69.7791 78.5375 69.2831C80.9235 67.6389 83.3825 66.0401 85.8563 64.5192C86.7376 63.971 87.9106 64.2558 88.4555 65.1486C88.9923 66.0267 88.7303 67.2061 87.8375 67.751C85.4255 69.228 83.0248 70.7942 80.6973 72.4059C79.9929 72.8938 79.3031 73.3736 78.61 73.8647C77.7612 74.4713 76.5738 74.2807 75.9704 73.4205L75.8452 73.2128ZM55.1282 91.0536C54.7524 90.3442 54.8588 89.4525 55.438 88.8429C58.065 86.1363 60.8072 83.4993 63.6227 80.9939C64.4114 80.2965 65.6085 80.3668 66.2979 81.1409C66.9953 81.9296 66.925 83.1266 66.1477 83.8273C63.4003 86.2661 60.7148 88.8331 58.1674 91.4763C57.4372 92.2273 56.2403 92.243 55.486 91.5242C55.3445 91.3733 55.2291 91.2175 55.1282 91.0536ZM37.9811 112.333C37.6589 111.737 37.6777 110.98 38.0702 110.379C40.1656 107.25 42.4008 104.149 44.7059 101.191C45.3467 100.366 46.542 100.227 47.3676 100.867C48.1933 101.508 48.3438 102.707 47.6917 103.529C45.4433 106.417 43.2714 109.425 41.2328 112.484C40.6392 113.36 39.4667 113.592 38.5989 113.013C38.3291 112.837 38.1161 112.592 37.9811 112.333ZM24.7652 136.255C24.5032 135.75 24.4686 135.138 24.7133 134.581C26.2627 131.125 27.934 127.716 29.6849 124.416C30.1794 123.499 31.3242 123.149 32.2553 123.635C33.1717 124.13 33.5219 125.275 33.0356 126.206C31.3219 129.418 29.6928 132.765 28.166 136.142C27.7365 137.089 26.6179 137.52 25.6592 137.088C25.266 136.914 24.9572 136.617 24.7652 136.255ZM15.4684 161.958C15.2438 161.537 15.1768 161.039 15.316 160.55C16.3407 156.907 17.4823 153.286 18.7036 149.774C19.0486 148.778 20.1184 148.259 21.1143 148.604C22.1021 148.934 22.6293 150.019 22.2843 151.014C21.0938 154.462 19.9716 158.015 18.9696 161.578C18.6814 162.59 17.6295 163.175 16.6288 162.89C16.1057 162.741 15.701 162.393 15.4684 161.958ZM9.77309 188.698C9.58925 188.35 9.50761 187.946 9.56731 187.52C10.1306 183.771 10.7768 180.034 11.5026 176.405C11.708 175.381 12.7078 174.719 13.7312 174.925C14.7692 175.122 15.4312 176.122 15.2226 177.156C14.5048 180.714 13.8635 184.392 13.3164 188.084C13.1566 189.12 12.1925 189.829 11.1642 189.684C10.5421 189.58 10.0464 189.206 9.77309 188.698ZM8.05267 216.028C7.90625 215.765 7.8362 215.45 7.82939 215.129C7.85594 210.502 7.90107 206.716 7.97312 203.872C7.99 202.819 8.86626 201.987 9.91547 202.015C10.9647 202.044 11.7857 202.917 11.7607 203.954C11.6919 206.787 11.6417 210.547 11.6217 215.151C11.6194 216.196 10.766 217.034 9.72163 217.032C8.99565 217.035 8.37481 216.624 8.05267 216.028Z" fill="#8DD1C5"/>
<path d="M347.816 159.791L305.984 93.574L283.84 101.229L347.816 159.791Z" fill="#4CA797"/>
<path d="M283.377 138.157L298.25 110.487L347.529 159.648L283.377 138.157Z" fill="#8DD1C5"/>
<path d="M317.224 70.1408L347.53 159.648L305.698 93.4314L317.224 70.1408Z" fill="#8DD1C5"/>
<path d="M283.841 101.229L298.537 110.63L296.371 114.645L283.841 101.229Z" fill="#3D7168"/>
</svg>
