<svg width="421" height="437" viewBox="0 0 421 437" fill="none" xmlns="http://www.w3.org/2000/svg">
<path d="M348.443 186.676C348.571 186.677 348.699 186.678 348.838 186.704C349.901 186.873 350.638 187.868 350.494 188.913C349.994 192.649 349.354 196.435 348.597 200.152C348.383 201.184 347.375 201.829 346.323 201.591C345.278 201.345 344.606 200.313 344.811 199.272C345.549 195.633 346.18 191.933 346.67 188.282C346.801 187.365 347.543 186.71 348.443 186.676ZM349.859 159.073L349.944 159.068C351.009 159.066 351.896 159.925 351.931 160.986C352.051 164.788 352.048 168.64 351.904 172.449C351.872 173.513 350.972 174.313 349.908 174.238C348.837 174.172 348.005 173.25 348.046 172.194C348.188 168.462 348.199 164.695 348.071 160.995C348.037 159.951 348.84 159.114 349.859 159.073ZM346.63 131.473C347.581 131.435 348.459 132.099 348.657 133.065C348.836 133.922 349.007 134.788 349.171 135.663C349.713 138.565 350.183 141.514 350.573 144.442C350.718 145.488 349.968 146.432 348.912 146.535C347.873 146.637 346.884 145.878 346.747 144.823C346.371 141.971 345.908 139.09 345.372 136.255C345.21 135.397 345.049 134.556 344.879 133.707C344.666 132.665 345.335 131.666 346.385 131.495L346.63 131.473ZM338.609 104.7C339.425 104.67 340.21 105.161 340.538 105.958C341.968 109.549 343.286 113.215 344.451 116.889C344.774 117.916 344.213 118.977 343.207 119.264C342.185 119.553 341.1 118.96 340.77 117.942C339.639 114.359 338.363 110.776 336.958 107.286C336.562 106.288 337.043 105.19 338.024 104.819C338.222 104.756 338.415 104.72 338.609 104.7ZM325.913 79.6667C326.6 79.6358 327.296 79.9869 327.693 80.6103C329.736 83.9026 331.695 87.3101 333.493 90.7184C333.996 91.6673 333.631 92.8191 332.693 93.2895C331.755 93.7599 330.578 93.3683 330.083 92.4105C328.327 89.0848 326.427 85.7759 324.426 82.5663C323.857 81.6382 324.126 80.4664 325.024 79.9303C325.299 79.7615 325.615 79.6753 325.913 79.6667ZM309.129 57.0529C309.707 57.0367 310.291 57.2753 310.708 57.7445C313.282 60.6832 315.761 63.7122 318.106 66.766C318.754 67.6216 318.606 68.8205 317.768 69.4552C316.929 70.073 315.719 69.8873 315.054 69.0327C312.775 66.0517 310.336 63.0883 307.827 60.2054C307.124 59.3956 307.186 58.1847 307.985 57.5012C308.309 57.219 308.713 57.0683 309.129 57.0529ZM289.068 37.2288C289.552 37.2095 290.044 37.3684 290.441 37.7112C293.405 40.2534 296.301 42.8929 299.063 45.5572C299.847 46.3115 299.887 47.5165 299.153 48.2728C298.437 49.028 297.21 49.0304 296.427 48.2761C293.712 45.6686 290.872 43.0769 287.972 40.5905C287.15 39.881 287.041 38.6629 287.72 37.8758C288.075 37.4643 288.567 37.249 289.068 37.2288Z" fill="#8DD1C5"/>
<path d="M290.972 288.396L349.689 236.561L338.608 215.917L290.972 288.396Z" fill="#4CA797"/>
<path d="M302.076 221.335L331.761 231.616L291.068 288.09L302.076 221.335Z" fill="#8DD1C5"/>
<path d="M374.612 243.929L291.068 288.09L349.784 236.255L374.612 243.929Z" fill="#8DD1C5"/>
<path d="M338.608 215.917L331.666 231.921L327.357 230.421L338.608 215.917Z" fill="#3D7168"/>
</svg>
