<svg width="437" height="422" viewBox="0 0 437 422" fill="none" xmlns="http://www.w3.org/2000/svg">
<path d="M153.132 301.482C153.146 302.012 152.958 302.544 152.554 302.952C151.789 303.726 150.579 303.741 149.831 303.011C147.165 300.338 144.582 297.527 142.155 294.659C141.485 293.85 141.606 292.63 142.42 291.93C143.243 291.223 144.452 291.304 145.121 292.111C147.479 294.904 149.988 297.634 152.584 300.23C152.936 300.568 153.11 301.027 153.132 301.482ZM174.073 319.034C174.09 319.453 173.972 319.884 173.699 320.261C173.069 321.137 171.869 321.354 171.012 320.755C167.947 318.577 164.915 316.281 162.005 313.914C161.191 313.255 161.092 312.037 161.771 311.204C162.458 310.363 163.67 310.22 164.484 310.878C167.333 313.193 170.297 315.446 173.291 317.579C173.784 317.926 174.053 318.468 174.073 319.034ZM197.566 333.049C197.566 333.373 197.499 333.702 197.346 334.022C196.845 334.977 195.694 335.383 194.751 334.919C191.38 333.25 188.027 331.452 184.764 329.57C183.852 329.052 183.567 327.867 184.121 326.942C184.674 326.016 185.847 325.694 186.759 326.211C189.944 328.058 193.235 329.819 196.536 331.442C197.164 331.746 197.538 332.378 197.566 333.049ZM223.028 343.197C223.04 343.418 223.01 343.65 222.929 343.887C222.593 344.905 221.494 345.485 220.49 345.163C216.894 344.059 213.282 342.811 209.759 341.462C208.778 341.095 208.31 339.977 208.707 338.98C209.121 337.982 210.241 337.485 211.222 337.852C214.676 339.172 218.202 340.393 221.72 341.478C222.498 341.718 223.003 342.415 223.028 343.197ZM249.888 349.161C249.886 349.289 249.885 349.417 249.858 349.555C249.686 350.618 248.688 351.352 247.643 351.203C243.91 350.69 240.126 350.037 236.412 349.267C235.38 349.049 234.739 348.04 234.98 346.988C235.23 345.944 236.265 345.275 237.305 345.484C240.941 346.235 244.639 346.879 248.288 347.382C249.204 347.516 249.857 348.26 249.888 349.161ZM277.486 350.673L277.491 350.758C277.488 351.823 276.626 352.707 275.566 352.739C271.763 352.845 267.911 352.828 264.103 352.671C263.039 352.635 262.242 351.733 262.321 350.669C262.39 349.598 263.315 348.769 264.371 348.814C268.103 348.969 271.87 348.993 275.57 348.879C276.614 348.848 277.448 349.654 277.486 350.673ZM305.097 347.541C305.131 348.492 304.465 349.367 303.497 349.562C302.64 349.738 301.773 349.906 300.898 350.067C297.994 350.599 295.043 351.058 292.114 351.438C291.068 351.58 290.126 350.826 290.027 349.77C289.928 348.73 290.691 347.744 291.746 347.611C294.6 347.245 297.483 346.792 300.319 346.266C301.178 346.107 302.019 345.949 302.869 345.782C303.912 345.573 304.908 346.245 305.076 347.295L305.097 347.541ZM331.898 339.613C331.925 340.429 331.431 341.213 330.633 341.537C327.037 342.955 323.367 344.26 319.689 345.413C318.66 345.731 317.601 345.167 317.317 344.16C317.033 343.137 317.629 342.054 318.649 341.728C322.235 340.609 325.822 339.345 329.318 337.953C330.316 337.56 331.414 338.045 331.781 339.027C331.843 339.226 331.879 339.419 331.898 339.613ZM356.975 327.004C357.004 327.692 356.65 328.387 356.025 328.782C352.726 330.813 349.312 332.76 345.897 334.546C344.947 335.045 343.796 334.676 343.329 333.737C342.862 332.797 343.257 331.621 344.217 331.13C347.549 329.385 350.864 327.497 354.081 325.507C355.011 324.942 356.182 325.215 356.715 326.115C356.883 326.39 356.968 326.707 356.975 327.004ZM379.648 310.3C379.662 310.878 379.421 311.461 378.95 311.877C376.003 314.44 372.965 316.909 369.903 319.243C369.045 319.888 367.847 319.736 367.215 318.896C366.6 318.054 366.79 316.845 367.647 316.183C370.636 313.915 373.608 311.486 376.5 308.987C377.312 308.286 378.523 308.352 379.203 309.154C379.484 309.479 379.634 309.884 379.648 310.3ZM399.542 290.308C399.559 290.792 399.399 291.283 399.055 291.679C396.502 294.635 393.852 297.521 391.178 300.274C390.421 301.055 389.216 301.091 388.463 300.355C387.71 299.636 387.712 298.409 388.469 297.628C391.086 294.923 393.687 292.091 396.184 289.201C396.896 288.381 398.115 288.276 398.899 288.958C399.31 289.314 399.523 289.807 399.542 290.308ZM416.617 267.851C416.63 268.25 416.524 268.659 416.281 269.03C414.101 272.277 411.851 275.478 409.576 278.546C408.934 279.41 407.73 279.608 406.889 278.991C406.031 278.374 405.873 277.17 406.523 276.296C408.758 273.291 410.977 270.143 413.117 266.943C413.723 266.047 414.916 265.791 415.788 266.354C416.309 266.71 416.594 267.265 416.617 267.851ZM430.334 243.186C430.351 243.492 430.275 243.813 430.138 244.115C428.057 248.401 426.332 251.898 425.002 254.509C424.519 255.48 423.351 255.887 422.408 255.423C421.465 254.959 421.105 253.806 421.589 252.853C422.911 250.251 424.629 246.78 426.694 242.512C427.16 241.543 428.31 241.12 429.261 241.558C429.923 241.859 430.306 242.499 430.334 243.186Z" fill="#8DD1C5"/>
<path d="M72.6268 207.336L99.5256 280.895L122.787 278.091L72.6268 207.336Z" fill="#4CA797"/>
<path d="M131.041 242.094L110.658 265.998L72.8763 207.536L131.041 242.094Z" fill="#8DD1C5"/>
<path d="M83.5883 301.425L72.8757 207.536L99.7747 281.095L83.5883 301.425Z" fill="#8DD1C5"/>
<path d="M122.787 278.091L110.408 265.798L113.374 262.331L122.787 278.091Z" fill="#3D7168"/>
</svg>
