<svg width="434" height="426" viewBox="0 0 434 426" fill="none" xmlns="http://www.w3.org/2000/svg">
<path d="M148.42 301.023C148.419 301.552 148.216 302.078 147.8 302.475C147.013 303.227 145.803 303.207 145.077 302.456C142.489 299.707 139.987 296.823 137.644 293.886C136.998 293.058 137.154 291.842 137.987 291.166C138.831 290.483 140.037 290.598 140.682 291.424C142.958 294.284 145.388 297.086 147.908 299.754C148.251 300.103 148.412 300.566 148.42 301.023ZM168.847 319.17C168.853 319.589 168.721 320.016 168.438 320.385C167.783 321.242 166.577 321.425 165.738 320.802C162.737 318.536 159.772 316.154 156.932 313.704C156.137 313.022 156.073 311.802 156.775 310.989C157.487 310.168 158.703 310.06 159.496 310.741C162.278 313.137 165.177 315.474 168.108 317.693C168.59 318.054 168.844 318.603 168.847 319.17ZM191.927 333.855C191.918 334.178 191.842 334.506 191.68 334.821C191.151 335.761 189.989 336.134 189.06 335.643C185.738 333.878 182.439 331.984 179.23 330.009C178.334 329.465 178.083 328.272 178.663 327.363C179.243 326.454 180.425 326.165 181.321 326.709C184.452 328.647 187.691 330.501 190.944 332.219C191.563 332.541 191.919 333.184 191.927 333.855ZM217.087 344.731C217.092 344.952 217.055 345.184 216.968 345.419C216.603 346.426 215.487 346.974 214.493 346.623C210.931 345.416 207.356 344.065 203.873 342.616C202.903 342.221 202.467 341.089 202.893 340.104C203.335 339.118 204.47 338.653 205.439 339.048C208.854 340.468 212.343 341.79 215.828 342.976C216.599 343.238 217.084 343.949 217.087 344.731ZM243.764 351.466C243.759 351.593 243.753 351.721 243.723 351.859C243.52 352.916 242.502 353.621 241.461 353.443C237.744 352.823 233.98 352.061 230.29 351.184C229.265 350.937 228.654 349.909 228.925 348.865C229.204 347.828 230.258 347.19 231.292 347.428C234.905 348.284 238.583 349.034 242.215 349.641C243.128 349.802 243.758 350.565 243.764 351.466ZM271.307 353.771L271.309 353.856C271.276 354.921 270.389 355.78 269.328 355.781C265.524 355.778 261.674 355.65 257.872 355.384C256.809 355.317 256.039 354.392 256.148 353.331C256.249 352.263 257.197 351.46 258.251 351.536C261.977 351.798 265.742 351.931 269.444 351.923C270.488 351.922 271.298 352.752 271.307 353.771ZM298.997 351.435C299.004 352.387 298.312 353.243 297.34 353.409C296.477 353.561 295.606 353.704 294.727 353.84C291.809 354.287 288.846 354.661 285.907 354.958C284.857 355.069 283.937 354.288 283.868 353.229C283.8 352.188 284.591 351.224 285.65 351.121C288.513 350.838 291.407 350.467 294.258 350.023C295.12 349.889 295.966 349.755 296.82 349.613C297.868 349.434 298.845 350.134 298.982 351.189L298.997 351.435ZM326.014 344.282C326.018 345.098 325.502 345.868 324.695 346.169C321.059 347.483 317.353 348.682 313.644 349.728C312.606 350.017 311.564 349.422 311.309 348.408C311.054 347.377 311.681 346.312 312.71 346.015C316.327 345 319.949 343.84 323.483 342.549C324.493 342.185 325.576 342.701 325.915 343.693C325.971 343.894 326.001 344.088 326.014 344.282ZM351.444 332.4C351.453 333.088 351.08 333.773 350.444 334.149C347.087 336.085 343.618 337.933 340.154 339.62C339.189 340.092 338.05 339.69 337.61 338.737C337.17 337.785 337.599 336.621 338.573 336.157C341.953 334.509 345.322 332.717 348.594 330.821C349.54 330.282 350.703 330.589 351.21 331.504C351.37 331.784 351.446 332.102 351.444 332.4ZM374.588 316.355C374.586 316.934 374.328 317.509 373.846 317.911C370.826 320.389 367.718 322.769 364.59 325.014C363.714 325.634 362.521 325.448 361.914 324.59C361.323 323.731 361.548 322.528 362.423 321.891C365.476 319.709 368.517 317.367 371.479 314.952C372.311 314.275 373.52 314.376 374.177 315.197C374.449 315.53 374.586 315.939 374.588 316.355ZM395.049 296.944C395.053 297.429 394.878 297.915 394.523 298.301C391.886 301.181 389.155 303.991 386.403 306.665C385.624 307.424 384.418 307.425 383.686 306.668C382.954 305.928 382.991 304.701 383.77 303.942C386.464 301.314 389.146 298.558 391.725 295.741C392.46 294.942 393.681 294.872 394.446 295.576C394.846 295.944 395.045 296.443 395.049 296.944Z" fill="#8DD1C5"/>
<path d="M58.1708 232.759L105.85 294.897L127.207 285.26L58.1708 232.759Z" fill="#4CA797"/>
<path d="M124.311 248.443L112.015 277.351L58.4698 232.875L124.311 248.443Z" fill="#8DD1C5"/>
<path d="M96.7878 319.255L58.469 232.875L106.148 295.013L96.7878 319.255Z" fill="#8DD1C5"/>
<path d="M127.207 285.26L111.717 277.235L113.509 273.039L127.207 285.26Z" fill="#3D7168"/>
</svg>
