<svg width="635" height="615" viewBox="0 0 635 615" fill="none" xmlns="http://www.w3.org/2000/svg">
<path d="M572.189 381.16L501.727 415.359L506.869 438.218L572.189 381.16Z" fill="#4CA797"/>
<path d="M543.516 442.79L517.673 424.928L572.015 381.429L543.516 442.79Z" fill="#8DD1C5"/>
<path d="M479.69 401.58L572.015 381.429L501.553 415.628L479.69 401.58Z" fill="#8DD1C5"/>
<path d="M506.869 438.218L517.847 424.659L521.596 427.26L506.869 438.218Z" fill="#3D7168"/>
<path d="M90.0324 385.347L90.059 385.396C92.2399 389.605 94.415 393.699 96.5389 397.559L96.9189 398.249C97.5775 399.446 96.9835 401.039 95.5875 401.807C94.1766 402.583 92.5133 402.233 91.8548 401.036L91.4748 400.345C89.3333 396.454 87.1393 392.326 84.9423 388.087C84.3135 386.874 84.9498 385.288 86.3598 384.545C87.7556 383.812 89.3858 384.172 90.0324 385.347ZM115.536 428.778C116.151 429.896 115.665 431.403 114.392 432.219C113.049 433.084 111.341 432.863 110.566 431.735C107.896 427.797 105.202 423.64 102.564 419.373C101.844 418.24 102.373 416.6 103.74 415.779C105.107 414.959 106.791 415.24 107.524 416.397C110.118 420.62 112.784 424.725 115.424 428.609L115.536 428.778ZM74.6302 353.066L74.7127 353.251C76.6233 357.638 78.6387 362.109 80.7241 366.532C81.3084 367.77 80.6094 369.347 79.1777 370.051C77.746 370.754 76.1591 370.331 75.5298 369.082C73.4389 364.614 71.3884 360.114 69.4723 355.682C68.934 354.423 69.6619 352.863 71.111 352.191C72.4824 351.554 74.0151 351.948 74.6302 353.066ZM61.7163 319.647L61.8544 320.003C63.4095 324.552 65.0644 329.177 66.7831 333.742C67.2741 335.021 66.4772 336.562 65.0021 337.186C63.5405 337.8 61.9619 337.252 61.4744 335.979C59.732 331.371 58.0526 326.701 56.5027 322.091C56.0591 320.793 56.9039 319.269 58.3852 318.691C59.7229 318.169 61.1376 318.595 61.7163 319.647ZM137.452 457.145C138.011 458.161 137.679 459.525 136.573 460.399C135.332 461.38 133.574 461.348 132.659 460.319C129.454 456.709 126.248 452.888 123.152 448.948C122.312 447.879 122.653 446.249 123.94 445.317C125.244 444.382 126.974 444.502 127.82 445.581C130.875 449.447 134.026 453.204 137.177 456.751C137.285 456.876 137.376 457.006 137.452 457.145ZM51.8524 285.054C51.9462 285.224 52.0102 285.411 52.0609 285.608C53.1441 290.285 54.361 295.063 55.6606 299.815C56.0243 301.145 55.1048 302.638 53.6063 303.15C52.1084 303.662 50.5875 303.008 50.2238 301.679C48.8949 296.873 47.6797 292.027 46.5825 287.291C46.2682 285.946 47.2412 284.479 48.7629 284.01C50.0542 283.614 51.3142 284.076 51.8524 285.054ZM163.642 482.062C164.132 482.952 163.952 484.138 163.087 485.026C162.002 486.15 160.224 486.365 159.129 485.499C155.276 482.435 151.433 479.143 147.724 475.708C146.704 474.768 146.831 473.136 147.987 472.072C149.158 470.999 150.922 470.9 151.942 471.84C155.569 475.197 159.316 478.421 163.09 481.411C163.328 481.597 163.508 481.819 163.642 482.062ZM45.7197 249.331C45.852 249.571 45.9425 249.841 45.9701 250.137C46.5073 254.982 47.1825 259.9 47.9658 264.77C48.1946 266.135 47.1238 267.564 45.5948 267.95C44.0657 268.336 42.6421 267.542 42.4267 266.166C41.626 261.23 40.9456 256.231 40.4052 251.311C40.2449 249.929 41.3748 248.537 42.9014 248.217C44.1152 247.962 45.2291 248.439 45.7197 249.331ZM194.65 501.918C195.059 502.661 195.011 503.628 194.432 504.475C193.548 505.752 191.815 506.259 190.534 505.618C185.984 503.328 181.461 500.803 177.081 498.117C175.893 497.364 175.699 495.782 176.658 494.572C177.634 493.356 179.396 492.971 180.597 493.713C184.861 496.329 189.254 498.792 193.69 501.017C194.117 501.231 194.444 501.544 194.65 501.918ZM44.0843 212.674C44.2635 213 44.3549 213.377 44.3474 213.785C44.2332 218.711 44.256 223.745 44.4137 228.744C44.4688 230.145 43.2608 231.466 41.7064 231.7C40.1661 231.924 38.8687 230.973 38.8298 229.566C38.6619 224.479 38.6325 219.362 38.7408 214.355C38.7739 212.939 40.0634 211.661 41.6041 211.507C42.7038 211.396 43.6462 211.878 44.0843 212.674ZM230.115 515.211C230.44 515.801 230.482 516.546 230.168 517.275C229.571 518.652 227.93 519.467 226.506 519.095C221.359 517.758 216.244 516.198 211.304 514.463C209.933 513.975 209.408 512.494 210.106 511.16C210.819 509.82 212.509 509.128 213.879 509.614C218.678 511.303 223.651 512.817 228.66 514.113C229.319 514.291 229.828 514.69 230.115 515.211ZM268.584 521.832C268.844 522.305 268.928 522.88 268.776 523.482C268.415 524.902 266.912 525.931 265.403 525.791C259.993 525.278 254.567 524.592 249.267 523.752C247.786 523.522 246.956 522.189 247.403 520.786C247.85 519.384 249.417 518.434 250.899 518.666C256.09 519.484 261.395 520.159 266.683 520.664C267.558 520.741 268.232 521.193 268.584 521.832ZM308.477 522.744C308.678 523.109 308.777 523.535 308.741 523.997C308.615 525.421 307.27 526.634 305.726 526.71C300.205 526.979 294.616 527.089 289.112 527.037C287.591 527.016 286.523 525.848 286.746 524.425C286.954 523.009 288.374 521.863 289.909 521.875C295.297 521.927 300.755 521.826 306.163 521.562C307.199 521.512 308.063 521.991 308.477 522.744ZM348.87 517.918C349.011 518.175 349.095 518.469 349.116 518.788C349.242 520.177 348.081 521.548 346.54 521.841C341.024 522.893 335.407 523.797 329.851 524.528C328.301 524.735 327.03 523.762 327.008 522.35C327.002 520.933 328.223 519.636 329.772 519.428C335.218 518.706 340.711 517.823 346.121 516.79C347.312 516.564 348.389 517.045 348.87 517.918ZM388.758 507.394C388.838 507.54 388.889 507.703 388.941 507.868C389.305 509.196 388.383 510.686 386.883 511.194C381.506 513.025 375.998 514.724 370.507 516.242C368.979 516.667 367.535 515.904 367.272 514.548C367.008 513.189 368.031 511.743 369.558 511.32C374.931 509.831 380.323 508.168 385.571 506.384C386.876 505.943 388.204 506.387 388.758 507.394ZM427.097 491.277L427.145 491.363C427.745 492.594 427.084 494.172 425.663 494.893C420.58 497.471 415.324 499.944 410.049 502.242C408.597 502.872 406.998 502.358 406.492 501.086C405.984 499.812 406.759 498.266 408.226 497.627C413.376 495.384 418.509 492.969 423.471 490.452C424.862 489.746 426.46 490.12 427.097 491.277ZM462.815 469.797C463.406 470.871 462.998 472.31 461.799 473.155C460.726 473.913 459.634 474.671 458.553 475.413C454.914 477.907 451.171 480.352 447.404 482.683C446.048 483.523 444.359 483.267 443.612 482.12C442.887 480.978 443.369 479.358 444.725 478.517C448.39 476.247 452.049 473.861 455.603 471.423C456.671 470.691 457.719 469.96 458.779 469.214C460.074 468.298 461.812 468.432 462.643 469.521L462.815 469.797ZM494.673 443.343C495.177 444.259 494.963 445.487 494.057 446.372C490.001 450.323 485.75 454.201 481.406 457.911C480.21 458.935 478.435 458.979 477.467 457.995C476.513 456.999 476.702 455.373 477.899 454.348C482.123 450.738 486.27 446.953 490.24 443.093C491.36 441.999 493.131 441.841 494.188 442.744C494.399 442.916 494.551 443.122 494.673 443.343Z" fill="#8DD1C5"/>
</svg>
