<svg width="30" height="29" viewBox="0 0 30 29" fill="none" xmlns="http://www.w3.org/2000/svg">
<path d="M28.9256 10.4136L19.9994 9.11637L16.0092 1.02692C15.9002 0.805433 15.7209 0.626136 15.4994 0.517152C14.944 0.242933 14.269 0.471449 13.9912 1.02692L10.001 9.11637L1.07483 10.4136C0.828734 10.4488 0.603734 10.5648 0.431468 10.7406C0.223209 10.9546 0.108448 11.2426 0.112404 11.5412C0.116359 11.8399 0.238706 12.1247 0.452562 12.3332L6.91077 18.6297L5.38498 27.5207C5.3492 27.7275 5.37209 27.9402 5.45105 28.1347C5.53001 28.3292 5.66188 28.4976 5.83171 28.621C6.00154 28.7443 6.20253 28.8176 6.4119 28.8325C6.62126 28.8475 6.83062 28.8034 7.01623 28.7054L15.0002 24.5078L22.9842 28.7054C23.2022 28.8214 23.4553 28.8601 23.6979 28.8179C24.3096 28.7125 24.7209 28.1324 24.6155 27.5207L23.0897 18.6297L29.5479 12.3332C29.7237 12.1609 29.8397 11.9359 29.8748 11.6898C29.9697 11.0746 29.5408 10.505 28.9256 10.4136ZM20.3721 17.7437L21.6412 25.1371L15.0002 21.6496L8.3592 25.1406L9.62834 17.7472L4.25647 12.5089L11.6815 11.4297L15.0002 4.70426L18.319 11.4297L25.744 12.5089L20.3721 17.7437Z" fill="#8DD1C5"/>
</svg>
