<svg width="29" height="28" viewBox="0 0 29 28" fill="none" xmlns="http://www.w3.org/2000/svg">
<path d="M28.0393 10.0689L19.3611 8.80763L15.4817 0.942884C15.3757 0.727552 15.2014 0.553235 14.9861 0.447278C14.446 0.180677 13.7898 0.402845 13.5198 0.942884L9.64038 8.80763L0.962154 10.0689C0.722896 10.103 0.504146 10.2158 0.336665 10.3867C0.134191 10.5948 0.022618 10.8748 0.0264634 11.1651C0.0303088 11.4555 0.149258 11.7324 0.357173 11.9351L6.63598 18.0567L5.15258 26.7007C5.1178 26.9018 5.14005 27.1086 5.21681 27.2977C5.29358 27.4867 5.42179 27.6505 5.5869 27.7704C5.75201 27.8904 5.94742 27.9616 6.15097 27.9761C6.35452 27.9906 6.55806 27.9478 6.73852 27.8526L14.5007 23.7715L22.2629 27.8526C22.4748 27.9653 22.7209 28.0029 22.9568 27.9619C23.5515 27.8594 23.9514 27.2954 23.8489 26.7007L22.3655 18.0567L28.6443 11.9351C28.8152 11.7676 28.928 11.5488 28.9622 11.3096C29.0544 10.7114 28.6374 10.1577 28.0393 10.0689Z" fill="#8DD1C5"/>
</svg>
