<svg width="31" height="30" viewBox="0 0 31 30" fill="none" xmlns="http://www.w3.org/2000/svg">
<path d="M5.48581 28.1627C5.43442 28.3827 5.43349 28.6114 5.4831 28.8318C5.53272 29.0522 5.63158 29.2585 5.77228 29.4353C5.91298 29.6121 6.09187 29.7547 6.29554 29.8525C6.49921 29.9503 6.72238 30.0007 6.94832 30C7.24462 30.0001 7.5343 29.9124 7.78082 29.748L15.9484 24.3036L24.1159 29.748C24.3714 29.9176 24.6727 30.005 24.9794 29.9982C25.286 29.9915 25.5832 29.8911 25.831 29.7104C26.0788 29.5297 26.2654 29.2775 26.3656 28.9877C26.4658 28.6979 26.4748 28.3843 26.3914 28.0892L23.6479 18.4901L30.452 12.3677C30.6699 12.1715 30.8255 11.9158 30.8996 11.6321C30.9737 11.3484 30.963 11.0492 30.8688 10.7715C30.7746 10.4938 30.6011 10.2498 30.3698 10.0697C30.1384 9.88956 29.8593 9.78119 29.5669 9.75799L21.0154 9.07706L17.3149 0.886364C17.197 0.622558 17.0053 0.398494 16.7629 0.241214C16.5205 0.0839335 16.2378 0.000158803 15.9489 2.25546e-07C15.6599 -0.000158352 15.3771 0.083306 15.1345 0.24032C14.8919 0.397335 14.7 0.621188 14.5819 0.884864L10.8813 9.07706L2.32979 9.75649C2.04247 9.77925 1.76779 9.88429 1.53862 10.0591C1.30944 10.2338 1.13547 10.4709 1.03752 10.7419C0.939572 11.013 0.921788 11.3065 0.986299 11.5874C1.05081 11.8682 1.19488 12.1246 1.40128 12.3257L7.72232 18.4856L5.48581 28.1627ZM15.9484 5.14594L19.0114 11.9268L19.8934 11.9973H19.8949L25.8529 12.4697L20.9464 16.8853L20.9449 16.8883L20.2504 17.5122L20.5069 18.4076V18.4121L22.3864 24.989L15.9484 20.6979V5.14594Z" fill="#8DD1C5"/>
</svg>
