<svg width="351" height="58" viewBox="0 0 351 58" fill="none" xmlns="http://www.w3.org/2000/svg">
<path d="M54.4773 18.1408H50.0747C50.4095 18.1408 49.6509 16.3575 49.6509 15.6504V3.12819C49.6509 1.00835 48.8914 0 46.7716 0H4.39013C2.26985 0 0 1.00835 0 3.12819V15.6504C0 17.769 2.26985 20.0517 4.39013 20.0517H8.79315C8.45746 21.0059 7.63867 20.7209 7.63867 21.4293V33.9511C7.63867 34.659 8.45746 36.2841 8.79315 37.2379H5.35334C3.2335 37.2379 0.955048 37.6096 0.955048 39.7299V52.2526C0.955048 54.3716 3.2335 57.29 5.35334 57.29H47.7348C49.8546 57.29 50.6064 54.3716 50.6064 52.2526V39.7299C50.6064 39.022 51.3732 39.1484 51.0375 39.1484H54.4773C56.5967 39.1484 57.29 36.0709 57.29 33.9506V21.4288C57.29 19.3086 56.5967 18.1408 54.4773 18.1408ZM4.67466 5.729L1.90924 8.11619V5.729H4.67466ZM47.7417 9.54833H45.4443L47.8633 5.72942H47.7417V9.54833ZM43.1921 9.54833H40.6282L43.0472 5.72942H45.6102L43.1921 9.54833ZM38.3769 9.54833H35.3312L37.7498 5.72942H40.795L38.3769 9.54833ZM33.0785 9.54833H30.5147L32.9333 5.72942H35.4962L33.0785 9.54833ZM28.2625 9.54833H25.2168L27.6358 5.72942H30.6806L28.2625 9.54833ZM22.965 9.54833H19.9193L22.3383 5.72942H25.3831L22.965 9.54833ZM17.6671 9.54833H14.6214L17.04 5.72942H20.0852L17.6671 9.54833ZM12.3701 9.54833H9.80622L12.2244 5.72942H14.7878L12.3701 9.54833ZM7.55356 9.54833H4.5079L6.92689 5.72942H9.97127L7.55356 9.54833ZM6.92689 15.2778L4.5079 11.4571H7.55356L9.97127 15.2778H6.92689ZM4.6738 15.2778H1.90924V10.6633L4.6738 15.2778ZM12.2244 15.2778L9.80622 11.4571H12.3701L14.7878 15.2778H12.2244ZM17.04 15.2778L14.6214 11.4571H17.6671L20.0852 15.2778H17.04ZM22.3379 15.2778L19.9193 11.4571H22.965L25.3831 15.2778H22.3379ZM27.6358 15.2778L25.2172 11.4571H28.2625L30.6806 15.2778H27.6358ZM32.9337 15.2778L30.5151 11.4571H33.079L35.4967 15.2778H32.9337ZM37.7498 15.2778L35.3312 11.4571H38.3769L40.7946 15.2778H37.7498ZM43.0472 15.2778L40.6282 11.4571H43.1921L45.6102 15.2778H43.0472ZM47.8629 15.2778L45.4443 11.4571H47.7417V15.2778H47.8629ZM4.39013 1.90966H46.7716C47.6742 1.90966 48.4281 2.86471 48.6408 3.8189H2.52043C2.73276 2.86428 3.48751 1.90966 4.39013 1.90966ZM2.52043 17.187H48.6404C48.4281 18.1412 47.6738 18.1412 46.7711 18.1412H12.0963H4.39013C3.48751 18.1408 2.73276 18.1408 2.52043 17.187ZM46.7716 20.0517H54.4773C55.3803 20.0517 56.1338 21.0059 56.3461 21.9605H10.2262C10.4393 21.0055 11.1932 20.0517 12.0963 20.0517H46.7716ZM55.569 33.4189L53.15 29.5996H55.3803V33.4189H55.569ZM48.3339 27.6895L50.7529 23.8702H53.3164L50.8978 27.6895H48.3339ZM46.0821 27.6895H43.0365L45.4555 23.8702H48.5003L46.0821 27.6895ZM40.7847 27.6895H38.2208L40.6394 23.8702H43.2028L40.7847 27.6895ZM35.9682 27.6895H32.9225L35.3411 23.8702H38.3859L35.9682 27.6895ZM30.6707 27.6895H27.625L30.0436 23.8702H33.0889L30.6707 27.6895ZM25.3728 27.6895H22.3272L24.7466 23.8702H27.791L25.3728 27.6895ZM20.0754 27.6895H17.5111L19.9301 23.8702H22.4935L20.0754 27.6895ZM15.2589 27.6895H12.2136L14.6322 23.8702H17.677L15.2589 27.6895ZM9.54833 26.4164V23.8702H12.38L9.54833 26.4164ZM9.54833 28.9635L12.38 33.4189H9.54833V28.9635ZM14.6326 33.4189L12.214 29.5996H15.2593L17.6774 33.4189H14.6326ZM19.9301 33.4189L17.5111 29.5996H20.0754L22.4935 33.4189H19.9301ZM24.7466 33.4189L22.3272 29.5996H25.3728L27.791 33.4189H24.7466ZM30.0436 33.4189L27.625 29.5996H30.6707L33.0889 33.4189H30.0436ZM35.3411 33.4189L32.9225 29.5996H35.9682L38.3859 33.4189H35.3411ZM40.6394 33.4189L38.2208 29.5996H40.7847L43.2028 33.4189H40.6394ZM45.455 33.4189L43.0361 29.5996H46.0817L48.4994 33.4189H45.455ZM50.7529 33.4189L48.3339 29.5996H50.8974L53.3159 33.4189H50.7529ZM53.15 27.6895L55.569 23.8702H55.3803V27.6895H53.15ZM48.8265 51.5601L46.4075 47.7408H48.6967V51.5601H48.8265ZM7.88968 51.5601L5.47111 47.7408H8.51721L10.9349 51.5601H7.88968ZM5.63788 51.5601H2.86472V47.2641L5.63788 51.5601ZM13.188 51.5601L10.7694 47.7408H13.3333L15.7514 51.5601H13.188ZM18.0036 51.5601L15.5851 47.7408H18.6303L21.0485 51.5601H18.0036ZM23.3015 51.5601L20.8825 47.7408H23.9278L26.3459 51.5601H23.3015ZM28.5994 51.5601L26.1804 47.7408H29.2261L31.6438 51.5601H28.5994ZM33.8965 51.5601L31.4775 47.7408H34.0417L36.4595 51.5601H33.8965ZM38.7125 51.5601L36.294 47.7408H39.3396L41.7578 51.5601H38.7125ZM44.0104 51.5601L41.5914 47.7408H44.1557L46.5739 51.5601H44.0104ZM46.4075 45.832L48.8261 42.0114H48.6967V45.832H46.4075ZM44.1553 45.832H41.591L44.01 42.0114H46.5734L44.1553 45.832ZM39.3396 45.832H36.294L38.7125 42.0114H41.7574L39.3396 45.832ZM34.0422 45.832H31.4779L33.8969 42.0114H36.4599L34.0422 45.832ZM29.2261 45.832H26.1809L28.5994 42.0114H31.6438L29.2261 45.832ZM23.9278 45.832H20.8825L23.3011 42.0114H26.3464L23.9278 45.832ZM18.6303 45.832H15.5851L18.0036 42.0114H21.0485L18.6303 45.832ZM13.3333 45.832H10.7694L13.188 42.0114H15.7514L13.3333 45.832ZM8.51721 45.832H5.47111L7.88968 42.0114H10.9345L8.51721 45.832ZM2.86472 44.7162V42.0114H5.63745L2.86472 44.7162ZM47.7348 55.3799H5.35334C4.45073 55.3799 3.69641 54.4249 3.48365 53.4707H49.604C49.3917 54.4249 48.637 55.3799 47.7348 55.3799ZM49.604 40.1026H3.48365C3.69598 39.1484 4.45073 39.1484 5.35334 39.1484H12.0963H47.7348C48.637 39.1484 49.3917 39.1484 49.604 40.1026ZM54.4773 37.2379H47.7344H12.0963C11.1932 37.2379 10.4398 36.2837 10.2262 35.3282H56.3461C56.1338 36.2837 55.3803 37.2379 54.4773 37.2379Z" fill="url(#paint0_linear)"/>
<path d="M70.5774 7.96875V35.2732H75.0991V7.96875H79.5765V35.2732H84.0981V7.96875H88.5755V39.224H66.0996V7.96875H70.5774Z" fill="black"/>
<path d="M102.578 39.224V18.9432H102.49L96.6078 39.224H92.1304V7.96875H96.6078V28.2934H96.6954L102.578 7.96875H107.055V39.224H102.578Z" fill="black"/>
<path d="M110.611 39.224V7.96875H115.089V21.3575H120.62V7.96875H125.097V39.224H120.62V25.3083H115.089V39.224H110.611Z" fill="black"/>
<path d="M126.634 39.224L133.614 7.96875H137.345L144.325 39.224H139.847L138.53 32.5077H132.429L131.112 39.224H126.634ZM137.696 28.2934L135.501 16.9678H135.414L133.219 28.2934H137.696Z" fill="black"/>
<path d="M153.367 39.224V7.96875H159.908C161.342 7.96875 162.564 8.18795 163.574 8.62723C164.583 9.0665 165.41 9.65191 166.054 10.383C166.697 11.115 167.158 11.9566 167.437 12.9073C167.714 13.8585 167.854 14.8462 167.854 15.8705V17.0121C167.854 17.8614 167.788 18.5779 167.656 19.1628C167.524 19.7487 167.327 20.2602 167.064 20.6994C166.566 21.5191 165.805 22.2214 164.781 22.8064C165.834 23.3041 166.609 24.0352 167.107 25.001C167.605 25.9668 167.854 27.2838 167.854 28.9519V30.7077C167.854 33.4585 167.187 35.5659 165.856 37.0289C164.524 38.4925 162.395 39.2236 159.469 39.2236H153.367V39.224ZM157.845 12.1831V20.7871H159.864C161.356 20.7871 162.358 20.414 162.871 19.6679C163.382 18.9217 163.639 17.8317 163.639 16.3974C163.639 14.9928 163.354 13.9393 162.783 13.2366C162.212 12.5342 161.18 12.1831 159.688 12.1831H157.845ZM157.845 24.7375V34.7466H159.776C160.683 34.7466 161.393 34.6147 161.905 34.3512C162.417 34.0882 162.805 33.7224 163.069 33.2539C163.332 32.7858 163.493 32.2296 163.552 31.5858C163.61 30.9423 163.64 30.2396 163.64 29.4788C163.64 28.6884 163.596 28.0011 163.508 27.4153C163.42 26.8303 163.244 26.333 162.981 25.923C162.688 25.5134 162.293 25.2138 161.796 25.0229C161.298 24.833 160.64 24.7375 159.82 24.7375H157.845Z" fill="black"/>
<path d="M194.542 12.1831C194.132 12.1831 193.796 12.2347 193.532 12.3365C193.269 12.4393 193.02 12.6219 192.786 12.885C192.551 13.1484 192.391 13.4708 192.303 13.8508C192.216 14.2316 192.142 14.6562 192.084 15.1239L191.689 18.7674C191.659 19.1482 191.615 19.4994 191.557 19.8209C191.497 20.114 191.44 20.4136 191.381 20.7209C191.322 21.0282 191.234 21.299 191.118 21.5333C190.942 21.9433 190.73 22.3014 190.482 22.6087C190.232 22.916 189.991 23.1571 189.757 23.3329L194.41 39.224H189.845L185.894 25.3083H183.392V39.224H178.915V7.96875H183.392V21.3575H184.885C185.412 21.3575 185.835 21.2848 186.158 21.1378C186.48 20.9917 186.743 20.7867 186.948 20.5232C187.153 20.2597 187.299 19.9601 187.387 19.6232C187.475 19.2871 187.547 18.914 187.606 18.5039L188.045 14.7727C188.074 14.6562 188.111 14.4147 188.155 14.0485C188.199 13.6827 188.279 13.2658 188.397 12.7973C188.513 12.3296 188.674 11.8465 188.879 11.3484C189.084 10.8511 189.347 10.3826 189.67 9.94375C190.226 9.24143 190.906 8.7364 191.711 8.42951C192.516 8.1222 193.459 7.96875 194.543 7.96875V12.1831H194.542Z" fill="black"/>
<path d="M196.429 39.224V7.96875H203.145C204.375 7.96875 205.457 8.12993 206.394 8.45143C207.331 8.77379 208.179 9.34459 208.94 10.1634C209.701 10.983 210.228 11.9411 210.521 13.0384C210.813 14.1357 210.96 15.6216 210.96 17.4943C210.96 18.8989 210.879 20.0839 210.718 21.0497C210.557 22.0155 210.213 22.9229 209.686 23.7713C209.072 24.796 208.252 25.5933 207.228 26.1637C206.203 26.7345 204.857 27.0199 203.189 27.0199H200.906V39.2236H196.429V39.224ZM200.907 12.1831V22.8064H203.058C203.964 22.8064 204.667 22.6744 205.165 22.4114C205.662 22.1479 206.028 21.7826 206.262 21.3141C206.496 20.8752 206.636 20.3341 206.679 19.6898C206.724 19.0464 206.745 18.329 206.745 17.539C206.745 16.8079 206.73 16.1124 206.701 15.4535C206.672 14.7951 206.54 14.2178 206.306 13.7197C206.071 13.2224 205.72 12.842 205.252 12.5785C204.784 12.315 204.111 12.1835 203.233 12.1835H200.907V12.1831Z" fill="black"/>
<path d="M209.994 39.224L216.974 7.96875H220.705L227.685 39.224H223.208L221.891 32.5077H215.789L214.472 39.224H209.994ZM221.057 28.2934L218.862 16.9678H218.774L216.58 28.2934H221.057Z" fill="black"/>
<path d="M243.445 30.313V32.2442C243.445 33.21 243.261 34.125 242.896 34.9881C242.529 35.8516 242.025 36.6197 241.382 37.2923C240.738 37.9659 239.984 38.4997 239.121 38.8951C238.257 39.2901 237.328 39.4874 236.333 39.4874C235.484 39.4874 234.622 39.3705 233.744 39.1367C232.866 38.9029 232.076 38.4932 231.373 37.9078C230.67 37.3229 230.093 36.569 229.639 35.6466C229.185 34.7246 228.958 33.5469 228.958 32.1131V14.905C228.958 13.8808 229.134 12.9296 229.485 12.0515C229.837 11.1738 230.334 10.413 230.978 9.76873C231.622 9.1253 232.39 8.62069 233.283 8.25449C234.175 7.88872 235.163 7.70605 236.246 7.70605C238.353 7.70605 240.065 8.39418 241.382 9.76916C242.025 10.4427 242.53 11.2396 242.897 12.1615C243.262 13.0835 243.445 14.0862 243.445 15.1685V16.9243H238.967V15.4315C238.967 14.5534 238.718 13.7931 238.221 13.1488C237.723 12.5054 237.05 12.183 236.202 12.183C235.089 12.183 234.351 12.5273 233.985 13.2146C233.619 13.9027 233.437 14.7726 233.437 15.8265V31.8053C233.437 32.7127 233.634 33.4739 234.029 34.0885C234.424 34.7031 235.134 35.0105 236.158 35.0105C236.451 35.0105 236.765 34.9597 237.102 34.857C237.438 34.7547 237.753 34.5867 238.046 34.352C238.309 34.1182 238.529 33.7967 238.704 33.3862C238.879 32.977 238.967 32.4642 238.967 31.85V30.3139H243.445V30.313Z" fill="black"/>
<path d="M246.429 39.224V7.96875H250.907V21.3575H256.438V7.96875H260.915V39.224H256.438V25.3083H250.907V39.224H246.429Z" fill="black"/>
<path d="M264.207 15.3436C264.207 14.0859 264.427 12.9731 264.865 12.0073C265.304 11.0415 265.89 10.2369 266.622 9.59307C267.324 8.97844 268.121 8.51037 269.014 8.188C269.906 7.8665 270.806 7.70532 271.713 7.70532C272.62 7.70532 273.52 7.8665 274.413 8.188C275.305 8.51037 276.118 8.97801 276.849 9.59307C277.552 10.2374 278.122 11.0415 278.561 12.0073C279 12.9731 279.22 14.0855 279.22 15.3436V31.8493C279.22 33.1663 279 34.2932 278.561 35.2294C278.122 36.1664 277.551 36.9413 276.849 37.556C276.118 38.1998 275.305 38.6829 274.413 39.0044C273.52 39.3259 272.62 39.4871 271.713 39.4871C270.806 39.4871 269.906 39.3259 269.014 39.0044C268.121 38.6829 267.324 38.1998 266.622 37.556C265.89 36.9413 265.305 36.1664 264.865 35.2294C264.427 34.2928 264.207 33.1663 264.207 31.8493V15.3436ZM268.685 31.8493C268.685 32.9324 268.984 33.7302 269.585 34.2417C270.184 34.7536 270.894 35.0097 271.714 35.0097C272.533 35.0097 273.243 34.7536 273.843 34.2417C274.443 33.7302 274.743 32.932 274.743 31.8493V15.3436C274.743 14.2613 274.443 13.4636 273.843 12.9512C273.243 12.4397 272.533 12.1831 271.714 12.1831C270.894 12.1831 270.184 12.4397 269.585 12.9512C268.985 13.4636 268.685 14.2613 268.685 15.3436V31.8493Z" fill="black"/>
<path d="M283.917 39.224V44.0525H280.055V35.2732H282.337C282.601 34.7174 282.849 34.0809 283.084 33.3635C283.318 32.6466 283.522 31.8931 283.699 31.1027C283.874 30.3127 284.034 29.5003 284.181 28.6665C284.327 27.8326 284.444 27.0203 284.533 26.2303C284.591 25.6157 284.642 24.9284 284.686 24.1672C284.73 23.4064 284.766 22.6237 284.796 21.8187C284.824 21.0141 284.846 20.2094 284.861 19.404C284.876 18.5994 284.883 17.8313 284.883 17.0993V7.96875H297.745V35.2732H300.292V44.0525H296.429V39.224H283.917ZM289.097 11.9196V17.0559C289.097 17.4659 289.082 18.0587 289.053 18.8336C289.024 19.6094 288.98 20.451 288.921 21.3579C288.862 22.2652 288.804 23.1799 288.746 24.1014C288.687 25.0234 288.614 25.8353 288.526 26.538C288.467 27.1234 288.373 27.7888 288.241 28.535C288.109 29.2811 287.956 30.0492 287.78 30.8396C287.604 31.6296 287.414 32.4127 287.209 33.1881C287.004 33.9639 286.771 34.6585 286.507 35.2736H293.268V11.9196H289.097Z" fill="black"/>
<path d="M300.335 39.224L307.315 7.96875H311.046L318.026 39.224H313.548L312.231 32.5077H306.13L304.813 39.224H300.335ZM311.397 28.2934L309.202 16.9678H309.115L306.92 28.2934H311.397Z" fill="black"/>
<path d="M319.562 39.224V7.96875H326.278C327.508 7.96875 328.59 8.12993 329.527 8.45143C330.463 8.77379 331.311 9.34459 332.073 10.1634C332.834 10.983 333.36 11.9411 333.653 13.0384C333.946 14.1357 334.092 15.6216 334.092 17.4943C334.092 18.8989 334.012 20.0839 333.851 21.0497C333.69 22.0155 333.346 22.9229 332.819 23.7713C332.205 24.796 331.385 25.5933 330.361 26.1637C329.336 26.7345 327.99 27.0199 326.322 27.0199H324.039V39.2236H319.562V39.224ZM324.039 12.1831V22.8064H326.191C327.097 22.8064 327.8 22.6744 328.298 22.4114C328.795 22.1479 329.161 21.7826 329.395 21.3141C329.629 20.8752 329.768 20.3341 329.812 19.6898C329.856 19.0464 329.878 18.329 329.878 17.539C329.878 16.8079 329.863 16.1124 329.834 15.4535C329.804 14.7951 329.673 14.2178 329.439 13.7197C329.204 13.2224 328.853 12.842 328.385 12.5785C327.917 12.315 327.244 12.1835 326.366 12.1835H324.039V12.1831Z" fill="black"/>
<path d="M336.77 39.224V7.96875H350.115V12.1831H341.247V21.3575H348.974V25.5718H341.247V34.7466H350.115V39.224H336.77Z" fill="black"/>
<path d="M350.012 47.8396H65.4751V50.8483H350.012V47.8396Z" fill="url(#paint1_linear)"/>
<defs>
<linearGradient id="paint0_linear" x1="19.0294" y1="-3.85372" x2="32.7115" y2="51.0222" gradientUnits="userSpaceOnUse">
<stop stop-color="#8CC63F"/>
<stop offset="1" stop-color="#39B54A"/>
</linearGradient>
<linearGradient id="paint1_linear" x1="65.4751" y1="49.344" x2="350.012" y2="49.344" gradientUnits="userSpaceOnUse">
<stop stop-color="#8CC63F"/>
<stop offset="1" stop-color="#39B54A"/>
</linearGradient>
</defs>
</svg>
