<svg width="397" height="42" viewBox="0 0 397 42" fill="none" xmlns="http://www.w3.org/2000/svg">
<path d="M3.54314 1.10168L0 14.1654H11.1742L4.31688 40.5689H21.5205L28.3779 14.1654H39.4979L43.0411 1.10168H3.54314Z" fill="white"/>
<path d="M68.4773 0.00720215C58.3976 0.00720215 50.1438 1.00503 45.3764 8.58662C41.4417 14.8755 39.1158 23.3016 39.1158 28.9418C39.1158 41.2719 48.3109 41.6611 60.6127 41.6611C68.5316 41.6611 78.9581 41.161 83.2796 34.2919C87.6059 27.6326 89.9907 18.3785 89.9907 12.736C89.9907 0.394075 78.5122 0.00720215 68.4773 0.00720215ZM69.1449 27.4085C67.4819 30.4161 65.8189 31.1285 61.778 31.1285C59.504 31.1285 56.737 30.1991 56.737 26.1512C56.737 24.1791 58.0085 19.7444 59.5041 16.9561C61.4997 13.2314 63.7689 13.0686 66.4816 13.0686C70.3055 13.0686 71.8553 14.8213 71.8553 17.6685C71.8577 22.0986 69.7535 26.314 69.1449 27.4085Z" fill="white"/>
<path d="M121.643 1.0968L111.497 18.4774H111.332L109.173 1.0968H90.684L98.9308 31.5482L92.2455 40.5687H112.509L141.24 1.0968H121.643Z" fill="white"/>
<path d="M162.738 0.00720215C152.656 0.00720215 144.402 1.00503 139.632 8.58662C135.697 14.8755 133.372 23.3016 133.372 28.9418C133.372 41.2719 142.569 41.6611 154.871 41.6611C162.787 41.6611 173.209 41.161 177.531 34.2919C181.857 27.6326 184.244 18.3785 184.244 12.736C184.244 0.394075 172.768 0.00720215 162.738 0.00720215ZM163.401 27.4085C161.74 30.4161 160.077 31.1285 156.034 31.1285C153.762 31.1285 150.995 30.1991 150.995 26.1512C150.995 24.1791 152.267 19.7444 153.762 16.9561C155.758 13.2314 158.027 13.0686 160.742 13.0686C164.561 13.0686 166.113 14.8213 166.113 17.6685C166.116 22.0986 164.009 26.314 163.401 27.4085Z" fill="white"/>
<path d="M198.32 1.10168L194.786 14.1678H205.958L199.098 40.5689H216.302L223.162 14.1678H234.277L237.823 1.10168H198.32Z" fill="white"/>
<path d="M240.462 1.0968L229.995 40.5687H246.666L257.409 1.0968H240.462Z" fill="white"/>
<path d="M302.084 9.88144C302.084 4.30022 300.473 1.0968 292.95 1.0968H260.298L249.513 40.5664H266.393L269.887 26.8209L278.084 40.5664H297.845L286.423 24.3723H289.41C296.552 24.3747 302.084 19.8338 302.084 9.88144ZM279.5 20.3291H271.927L274.032 12.146H281.396C283.713 12.146 285.038 13.0283 285.038 14.9107C285.038 17.4512 283.382 20.3291 279.5 20.3291Z" fill="white"/>
<path d="M347.131 13.5779L350.4 1.0968H309.612L299.419 40.564H340.158L342.863 30.0361H319.293L320.234 26.4836H343.805L346.022 17.9655H322.44L323.563 13.5779H347.131Z" fill="white"/>
<path d="M376.707 12.4882C382.128 12.4882 387.435 13.0284 392.811 13.6865L396.3 1.49557C388.216 0.27836 379.306 0 373.77 0C369.673 0 364.301 0.11322 360.586 1.16294C353.953 3.03829 349.525 9.94288 349.525 18.3996C349.525 24.6013 355.116 26.3138 360.204 26.3138C370.111 26.3138 371.112 26.6912 371.112 28.5902C371.112 31.1284 367.238 31.1284 365.408 31.1284C359.05 31.1284 352.787 30.6496 346.484 29.8853L343.989 39.8281C351.339 41.1562 358.876 41.6539 367.738 41.6539C378.639 41.6539 384.175 40.6019 387.607 35.0655C388.778 33.1807 390.209 28.9134 390.209 25.8727C390.209 17.5693 384.671 17.2933 378.365 17.2933C369.673 17.2933 368.571 16.8592 368.571 15.2717C368.569 13.4129 370.111 12.4882 376.707 12.4882Z" fill="white"/>
</svg>
