<svg width="270" height="29" viewBox="0 0 270 29" fill="none" xmlns="http://www.w3.org/2000/svg">
<path d="M2.41395 0.750488L0 9.65087H7.61304L2.9411 27.6396H14.662L19.3339 9.65087H26.91L29.324 0.750488H2.41395Z" fill="#0062B0"/>
<path d="M46.6535 0.00463867C39.7861 0.00463867 34.1628 0.684462 30.9148 5.84982C28.234 10.1345 26.6494 15.8752 26.6494 19.7179C26.6494 28.1184 32.914 28.3836 41.2953 28.3836C46.6905 28.3836 53.794 28.0429 56.7383 23.3629C59.6858 18.8259 61.3106 12.5211 61.3106 8.67679C61.3106 0.268216 53.4903 0.00463867 46.6535 0.00463867ZM47.1083 18.6732C45.9753 20.7223 44.8423 21.2077 42.0892 21.2077C40.5399 21.2077 38.6547 20.5745 38.6547 17.8166C38.6547 16.473 39.521 13.4516 40.54 11.552C41.8996 9.0143 43.4456 8.90339 45.2938 8.90339C47.899 8.90339 48.9549 10.0975 48.9549 12.0373C48.9565 15.0556 47.523 17.9275 47.1083 18.6732Z" fill="#0062B0"/>
<path d="M82.8759 0.747559L75.9635 12.589H75.851L74.3805 0.747559H61.7837L67.4023 21.4942L62.8476 27.6399H76.653L96.228 0.747559H82.8759Z" fill="#0062B0"/>
<path d="M110.874 0.00463867C104.005 0.00463867 98.3812 0.684462 95.1316 5.84982C92.4508 10.1345 90.8662 15.8752 90.8662 19.7179C90.8662 28.1184 97.1325 28.3836 105.514 28.3836C110.907 28.3836 118.008 28.0429 120.952 23.3629C123.899 18.8259 125.526 12.5211 125.526 8.67679C125.526 0.268216 117.707 0.00463867 110.874 0.00463867ZM111.325 18.6732C110.194 20.7223 109.061 21.2077 106.306 21.2077C104.758 21.2077 102.873 20.5745 102.873 17.8166C102.873 16.473 103.739 13.4516 104.758 11.552C106.118 9.0143 107.664 8.90339 109.514 8.90339C112.116 8.90339 113.173 10.0975 113.173 12.0373C113.175 15.0556 111.74 17.9275 111.325 18.6732Z" fill="#0062B0"/>
<path d="M135.115 0.750488L132.708 9.65246H140.319L135.646 27.6396H147.367L152.04 9.65246H159.613L162.029 0.750488H135.115Z" fill="#0062B0"/>
<path d="M163.827 0.747559L156.696 27.6399H168.054L175.373 0.747559H163.827Z" fill="#0062B0"/>
<path d="M205.811 6.73256C205.811 2.93006 204.713 0.747559 199.588 0.747559H177.342L169.994 27.6383H181.495L183.875 18.2735L189.46 27.6383H202.923L195.141 16.6053H197.176C202.042 16.6069 205.811 13.5131 205.811 6.73256ZM190.424 13.8506H185.265L186.699 8.27543H191.716C193.294 8.27543 194.198 8.8765 194.198 10.159C194.198 11.8899 193.07 13.8506 190.424 13.8506Z" fill="#0062B0"/>
<path d="M236.501 9.25096L238.728 0.747559H210.939L203.995 27.6367H231.75L233.593 20.464H217.535L218.176 18.0437H234.235L235.745 12.2402H219.679L220.444 9.25096H236.501Z" fill="#0062B0"/>
<path d="M256.651 8.50823C260.344 8.50823 263.96 8.87626 267.623 9.32465L270 1.01893C264.492 0.189647 258.422 0 254.65 0C251.858 0 248.199 0.0771368 245.668 0.792316C241.148 2.07 238.132 6.77412 238.132 12.5357C238.132 16.7609 241.941 17.9277 245.407 17.9277C252.157 17.9277 252.839 18.1848 252.839 19.4786C252.839 21.2079 250.2 21.2079 248.953 21.2079C244.621 21.2079 240.354 20.8816 236.06 20.3609L234.36 27.135C239.368 28.0398 244.503 28.379 250.541 28.379C257.967 28.379 261.739 27.6622 264.078 23.8902C264.875 22.6061 265.85 19.6988 265.85 17.6272C265.85 11.97 262.077 11.782 257.781 11.782C251.858 11.782 251.108 11.4863 251.108 10.4046C251.106 9.13822 252.157 8.50823 256.651 8.50823Z" fill="#0062B0"/>
</svg>
