<svg width="567" height="567" viewBox="0 0 567 567" fill="none" xmlns="http://www.w3.org/2000/svg">
<path d="M283.5 47.25C413.768 47.25 519.75 153.232 519.75 283.5C519.75 413.768 413.768 519.75 283.5 519.75C153.232 519.75 47.25 413.768 47.25 283.5C47.25 153.232 153.232 47.25 283.5 47.25ZM283.5 0C126.937 0 0 126.937 0 283.5C0 440.063 126.937 567 283.5 567C440.063 567 567 440.063 567 283.5C567 126.937 440.063 0 283.5 0ZM259.875 141.75H307.125V330.75H259.875V141.75ZM283.5 431.156C267.199 431.156 253.969 417.926 253.969 401.625C253.969 385.324 267.199 372.094 283.5 372.094C299.801 372.094 313.031 385.324 313.031 401.625C313.031 417.926 299.801 431.156 283.5 431.156Z" fill="#C4C3C3"/>
</svg>
