<svg width="459" height="433" viewBox="0 0 459 433" fill="none" xmlns="http://www.w3.org/2000/svg">
<g clip-path="url(#clip0)">
<path fill-rule="evenodd" clip-rule="evenodd" d="M433.5 237.969L417.435 254.678H121.125L102 234.786L72.6744 50.939H25.5C18.737 50.939 12.2498 48.2555 7.46759 43.4789C2.68541 38.7022 0 32.2236 0 25.4684C0 18.7132 2.68541 12.2346 7.46759 7.45796C12.2498 2.6813 18.737 -0.00217837 25.5 -0.00217837H76.5C83.13 -0.00217837 89.7605 0.125202 89.7605 0.125202C96.1474 -0.74977 102.635 0.745098 107.992 4.32671C113.35 7.90831 117.206 13.328 118.831 19.5593L131.581 76.3841H436.56L459 97.1681V127.351L433.5 237.969ZM136.935 127.351L147.391 203.763H389.641L408 127.351H136.935ZM178.5 280.174C193.63 280.174 208.422 284.656 221.002 293.052C233.582 301.448 243.386 313.382 249.176 327.345C254.966 341.307 256.483 356.671 253.531 371.493C250.579 386.316 243.293 399.931 232.594 410.617C221.895 421.304 208.265 428.581 193.426 431.53C178.586 434.478 163.203 432.965 149.224 427.181C135.246 421.398 123.299 411.604 114.893 399.038C106.487 386.472 102 371.699 102 356.586C102 336.32 110.059 316.885 124.406 302.555C138.752 288.225 158.211 280.174 178.5 280.174ZM357 280.174C372.13 280.174 386.922 284.656 399.502 293.052C412.082 301.448 421.886 313.382 427.676 327.345C433.466 341.307 434.983 356.671 432.031 371.493C429.079 386.316 421.793 399.931 411.094 410.617C400.395 421.304 386.765 428.581 371.926 431.53C357.086 434.478 341.703 432.965 327.724 427.181C313.746 421.398 301.799 411.604 293.393 399.038C284.987 386.472 280.5 371.699 280.5 356.586C280.5 336.32 288.559 316.885 302.906 302.555C317.252 288.225 336.711 280.174 357 280.174ZM153 331.115H204V382.057H153V331.115ZM331.5 331.115H382.5V382.057H331.5V331.115Z" fill="white"/>
</g>
<defs>
<clipPath id="clip0">
<rect width="459" height="433" fill="white"/>
</clipPath>
</defs>
</svg>
