<svg width="12" height="9" viewBox="0 0 12 9" fill="none" xmlns="http://www.w3.org/2000/svg">
<path fill-rule="evenodd" clip-rule="evenodd" d="M10.6997 1.72896L4.90871 7.78496C4.81584 7.87794 4.70555 7.9517 4.58415 8.00202C4.46275 8.05235 4.33263 8.07825 4.20121 8.07825C4.06979 8.07825 3.93967 8.05235 3.81828 8.00202C3.69688 7.9517 3.58659 7.87794 3.49371 7.78496L0.280716 4.76097C0.0985575 4.57236 -0.00224062 4.31976 3.78012e-05 4.05756C0.00231622 3.79537 0.107484 3.54455 0.292892 3.35914C0.4783 3.17374 0.729113 3.06857 0.99131 3.06629C1.25351 3.06401 1.50611 3.16481 1.69471 3.34696L4.16271 5.67097L9.28571 0.315966C9.37737 0.218223 9.48773 0.139898 9.61025 0.0856421C9.73277 0.0313864 9.86495 0.00230739 9.99892 0.000131827C10.1329 -0.00204373 10.266 0.0227282 10.3902 0.0729773C10.5144 0.123226 10.6272 0.197927 10.722 0.292643C10.8168 0.387358 10.8916 0.500154 10.9419 0.624335C10.9923 0.748516 11.0171 0.881549 11.015 1.01553C11.013 1.14951 10.984 1.2817 10.9298 1.40426C10.8756 1.52682 10.7974 1.63724 10.6997 1.72896V1.72896Z" fill="#37AC09"/>
</svg>
