<svg width="511" height="452" viewBox="0 0 511 452" fill="none" xmlns="http://www.w3.org/2000/svg">
<g clip-path="url(#clip0)">
<path fill-rule="evenodd" clip-rule="evenodd" d="M459.901 252.456L259.334 452.17H250.817L35.8565 240.635L36.1404 240.493C12.3101 213.736 -0.829568 179.124 -0.76519 143.278C-1.55702 106.151 12.4067 70.2279 38.0583 43.4C63.7099 16.5721 98.9514 1.03393 136.041 0.198919C160.978 0.496298 185.35 7.6726 206.477 20.9385C227.603 34.2043 244.665 53.0457 255.785 75.3902C266.763 53.0139 283.724 34.122 304.782 20.8133C325.841 7.50458 350.173 0.30003 375.075 0C411.911 0.835137 446.911 16.2648 472.395 42.9028C497.878 69.5408 511.763 105.211 511.001 142.085C511.071 163.104 506.532 183.883 497.702 202.954C488.872 222.025 475.969 238.923 459.901 252.456V252.456ZM423.649 206.989L258.34 375.331H251.385L77.9004 198.919L78.4114 198.35C70.6751 189.819 64.7536 179.801 61.0074 168.906C57.2612 158.012 55.7685 146.468 56.6202 134.978C57.4719 123.487 60.6502 112.291 65.9616 102.069C71.273 91.8468 78.6065 82.8134 87.516 75.5182C96.4254 68.223 106.725 62.8186 117.787 59.6337C128.849 56.4488 140.442 55.5501 151.862 56.9922C163.283 58.4343 174.29 62.187 184.215 68.0221C194.141 73.8573 202.776 81.6527 209.596 90.9342L209.824 90.7353L210.874 92.3835C213.155 95.6455 215.204 99.064 217.006 102.614L256.523 168.626L292.691 105.001C294.586 100.949 296.798 97.0531 299.305 93.3497V93.3497C306.204 83.361 315.16 74.9669 325.57 68.7319C335.98 62.4969 347.604 58.5657 359.658 57.2025C371.713 55.8393 383.92 57.0758 395.457 60.8289C406.995 64.582 417.595 70.7646 426.547 78.9609C435.498 87.1572 442.592 97.1772 447.352 108.347C452.111 119.517 454.426 131.577 454.141 143.717C453.856 155.857 450.977 167.795 445.698 178.729C440.418 189.662 432.861 199.337 423.535 207.103L423.649 206.989Z" fill="white"/>
</g>
<defs>
<clipPath id="clip0">
<rect width="511" height="452" fill="white"/>
</clipPath>
</defs>
</svg>
