<svg width="457" height="457" viewBox="0 0 457 457" fill="none" xmlns="http://www.w3.org/2000/svg">
<g clip-path="url(#clip0)">
<path d="M441.11 252.677C451.578 240.687 456.814 226.508 456.814 210.137C456.814 195.291 451.382 182.445 440.555 171.59C429.706 160.736 416.86 155.312 402.014 155.312H322.932C323.692 152.648 324.454 150.364 325.214 148.461C325.967 146.558 327.025 144.462 328.352 142.178C329.68 139.893 330.635 138.179 331.204 137.039C334.629 130.571 337.251 125.238 339.061 121.054C340.868 116.862 342.667 111.154 344.481 103.921C346.292 96.692 347.192 89.456 347.192 82.223C347.192 77.657 347.137 73.942 347.047 71.089C346.958 68.234 346.473 63.95 345.624 58.239C344.762 52.531 343.618 47.772 342.194 43.967C340.764 40.161 338.478 35.875 335.343 31.12C332.201 26.356 328.396 22.507 323.919 19.555C319.443 16.605 313.735 14.131 306.788 12.134C299.834 10.135 291.987 9.13599 283.226 9.13599C278.278 9.13599 273.999 10.945 270.379 14.562C266.573 18.368 263.332 23.126 260.67 28.834C258.004 34.545 256.147 39.494 255.099 43.683C254.052 47.87 252.861 53.677 251.534 61.098C249.815 69.096 248.536 74.85 247.674 78.371C246.819 81.892 245.149 86.507 242.677 92.216C240.2 97.929 237.253 102.494 233.826 105.922C227.546 112.202 217.935 123.623 204.989 140.181C195.66 152.361 186.049 163.876 176.152 174.726C166.253 185.578 159.021 191.192 154.454 191.573C149.699 191.953 145.606 193.904 142.179 197.427C138.752 200.948 137.039 205.089 137.039 209.846V392.856C137.039 397.805 138.846 402.038 142.463 405.559C146.078 409.084 150.361 410.939 155.31 411.13C161.971 411.321 177.008 415.504 200.421 423.696C215.075 428.637 226.541 432.402 234.821 434.968C243.099 437.534 254.67 440.296 269.505 443.25C284.354 446.199 298.056 447.678 310.615 447.678H315.47H337.17H347.446C372.767 447.298 391.507 439.872 403.693 425.41C414.729 412.275 419.39 395.049 417.683 373.731C425.105 366.689 430.248 357.747 433.099 346.895C436.33 335.291 436.33 324.155 433.099 313.498C441.853 301.887 445.946 288.849 445.371 274.383C445.395 268.286 443.971 261.055 441.11 252.677Z" fill="#3AB503"/>
<path d="M100.5 191.864H18.276C13.324 191.864 9.041 193.673 5.425 197.29C1.809 200.905 0 205.188 0 210.137V392.869C0 397.811 1.809 402.096 5.426 405.716C9.045 409.327 13.328 411.137 18.277 411.137H100.5C105.448 411.137 109.729 409.327 113.347 405.716C116.963 402.096 118.771 397.812 118.771 392.869V210.137C118.771 205.188 116.962 200.906 113.347 197.29C109.73 193.672 105.449 191.864 100.5 191.864ZM67.665 369.308C64.049 372.829 59.767 374.589 54.818 374.589C49.678 374.589 45.347 372.829 41.828 369.308C38.307 365.787 36.547 361.458 36.547 356.318C36.547 351.37 38.306 347.086 41.828 343.471C45.348 339.854 49.678 338.043 54.818 338.043C59.767 338.043 64.049 339.854 67.665 343.471C71.282 347.085 73.091 351.369 73.091 356.318C73.091 361.458 71.286 365.786 67.665 369.308Z" fill="#3AB503"/>
</g>
<defs>
<clipPath id="clip0">
<rect width="456.814" height="456.814" fill="white"/>
</clipPath>
</defs>
</svg>
