<svg width="512" height="512" viewBox="0 0 512 512" fill="none" xmlns="http://www.w3.org/2000/svg">
<path d="M425.951 89.021C386.864 32.451 324.917 0 256.006 0C187.095 0 125.148 32.451 86.061 89.021C47.166 145.305 38.185 216.562 61.989 279.517C68.356 296.709 78.477 313.412 91.999 329.064L242.377 505.698C245.778 509.696 250.761 512 256.006 512C261.251 512 266.234 509.697 269.635 505.698L419.971 329.112C433.553 313.37 443.661 296.685 449.975 279.631C473.827 216.562 464.846 145.305 425.951 89.021ZM416.451 267.093C411.582 280.251 403.633 293.26 392.838 305.773C392.808 305.803 392.778 305.833 392.754 305.869L256.006 466.487L119.174 305.768C108.385 293.266 100.436 280.258 95.519 266.974C75.833 214.909 83.304 155.993 115.51 109.382C147.817 62.622 199.029 35.804 256.006 35.804C312.982 35.804 364.188 62.621 396.496 109.382C428.708 155.993 436.185 214.909 416.451 267.093Z" fill="#3AB503"/>
<path d="M256.006 106.219C200.73 106.219 155.754 151.189 155.754 206.471C155.754 261.753 200.724 306.723 256.006 306.723C311.288 306.723 356.258 261.753 356.258 206.471C356.258 151.195 311.282 106.219 256.006 106.219ZM256.006 270.918C220.47 270.918 191.558 242.006 191.558 206.47C191.558 170.934 220.47 142.022 256.006 142.022C291.542 142.022 320.454 170.934 320.454 206.47C320.454 242.006 291.542 270.918 256.006 270.918Z" fill="#3AB503"/>
</svg>
