<svg width="437" height="437" viewBox="0 0 437 437" fill="none" xmlns="http://www.w3.org/2000/svg">
<path fill-rule="evenodd" clip-rule="evenodd" d="M374.571 437H62.4286C45.8715 437 29.9922 430.423 18.2845 418.715C6.57691 407.008 0 391.129 0 374.571V228.905C0 212.348 6.57691 196.469 18.2845 184.761C29.9922 173.053 45.8715 166.476 62.4286 166.476H83.2381V124.857C83.2381 91.743 96.3919 59.9851 119.807 36.5699C143.222 13.1546 174.981 0 208.095 0H228.905C262.019 0 293.778 13.1546 317.193 36.5699C340.608 59.9851 353.762 91.743 353.762 124.857V166.476H374.571C391.129 166.476 407.008 173.053 418.715 184.761C430.423 196.469 437 212.348 437 228.905V374.571C437 391.129 430.423 407.008 418.715 418.715C407.008 430.423 391.129 437 374.571 437ZM312.143 124.857C312.143 102.781 303.372 81.609 287.762 65.9989C272.152 50.3887 250.981 41.619 228.905 41.619H208.095C186.019 41.619 164.848 50.3887 149.238 65.9989C133.628 81.609 124.857 102.781 124.857 124.857V166.476H312.143V124.857ZM395.381 228.905C395.381 223.386 393.19 218.093 389.287 214.19C385.384 210.288 380.09 208.095 374.571 208.095H62.4286C56.9095 208.095 51.6156 210.288 47.713 214.19C43.8105 218.093 41.619 223.386 41.619 228.905V374.571C41.619 380.09 43.8105 385.383 47.713 389.286C51.6156 393.189 56.9095 395.381 62.4286 395.381H374.571C380.09 395.381 385.384 393.189 389.287 389.286C393.19 385.383 395.381 380.09 395.381 374.571V228.905ZM228.905 310.062V343.357C228.905 346.117 227.808 348.763 225.856 350.714C223.905 352.666 221.26 353.762 218.5 353.762C215.74 353.762 213.095 352.666 211.144 350.714C209.192 348.763 208.095 346.117 208.095 343.357V310.062C201.153 307.608 195.302 302.778 191.576 296.427C187.85 290.075 186.49 282.612 187.735 275.354C188.98 268.097 192.752 261.514 198.381 256.768C204.011 252.022 211.137 249.419 218.5 249.419C225.863 249.419 232.989 252.022 238.619 256.768C244.248 261.514 248.02 268.097 249.265 275.354C250.51 282.612 249.15 290.075 245.424 296.427C241.698 302.778 235.847 307.608 228.905 310.062V310.062Z" fill="white"/>
</svg>
