<svg width="224" height="224" viewBox="0 0 224 224" fill="none" xmlns="http://www.w3.org/2000/svg">
<g clip-path="url(#clip0)">
<path fill-rule="evenodd" clip-rule="evenodd" d="M202.199 170.347L202.553 174.167C202.907 178.005 202.436 181.871 201.177 185.505C198.638 192.917 194.907 199.866 190.131 206.078L189.043 207.492L187.737 208.706C180.097 215.802 170.533 220.465 160.263 222.126C149.732 224.66 138.739 224.625 128.214 222.016L127.282 221.786L126.374 221.472C114.261 217.283 102.954 211.062 92.9382 203.077C85.7392 198.208 79.0454 192.633 72.9571 186.431L72.693 186.162L72.4386 185.885C52.6271 164.227 37.4868 138.734 27.9602 110.989L27.8261 110.598L27.7073 110.203C25.2325 101.971 23.6019 93.5112 22.8396 84.9525C20.7242 72.4524 20.8371 59.674 23.1775 47.2073L23.3698 46.1828L23.661 45.182C26.6896 34.7753 32.2752 25.3006 39.8976 17.6132C46.6616 9.68726 55.6418 3.9511 65.6925 1.14435L67.3076 0.69329L68.9734 0.500145C76.7635 -0.403096 84.6468 -0.0814689 92.337 1.45319C96.0088 2.17251 99.4986 3.6368 102.589 5.76012L105.624 7.84604L107.785 10.829C111.759 16.3169 114.318 22.6892 115.248 29.3819C115.792 31.478 116.302 33.4858 116.799 35.4377C117.871 39.6499 118.876 43.6015 119.999 47.6169C122.703 53.7085 124.005 60.3401 123.796 67.0215L123.716 69.5613L123.043 72.0114C121.399 77.9853 117.916 81.997 115.572 84.2304C113.13 86.5578 110.551 88.2528 108.587 89.4146C105.565 91.2015 102.183 92.7594 99.4706 93.9509C103.92 108.813 112.063 122.326 123.152 133.228C125.654 131.469 129.012 129.17 132.395 127.371C134.419 126.294 137.188 124.989 140.417 124.114C143.536 123.269 148.588 122.412 154.353 123.914L156.674 124.518L158.803 125.623C164.714 128.692 169.868 133.022 173.904 138.298C176.861 141.184 179.797 143.933 182.908 146.844C184.506 148.339 186.149 149.878 187.866 151.501C193.259 155.525 197.612 160.801 200.537 166.889L202.199 170.347ZM174.263 168.002C177.297 170.035 179.729 172.842 181.309 176.129C181.385 176.947 181.282 177.772 181.01 178.547C179.222 183.781 176.59 188.688 173.217 193.076C168.48 197.476 162.496 200.307 156.084 201.182C148.635 203.118 140.817 203.162 133.346 201.31C123.262 197.823 113.867 192.598 105.59 185.875C99.3025 181.694 93.4676 176.871 88.1794 171.485C70.342 151.986 56.7128 129.036 48.1373 104.06C45.9976 96.9431 44.6164 89.6205 44.0169 82.214C42.1748 71.9346 42.2178 61.407 44.1445 51.1433C46.2537 43.8961 50.2113 37.3193 55.6308 32.0556C59.6925 27.0494 65.2142 23.4275 71.4305 21.6915C77.026 21.0428 82.6886 21.2764 88.2113 22.3839C89.0346 22.5417 89.8164 22.8681 90.5068 23.3425C92.631 26.2756 93.9186 29.7285 94.2324 33.3338C94.8387 35.6517 95.4309 37.9785 96.0233 40.3055C97.2872 45.2713 98.5515 50.2386 99.9544 55.1269C101.729 58.5975 102.595 62.4594 102.473 66.3537C101.516 69.8335 94.8561 72.7109 88.3996 75.5004C82.3263 78.1243 76.4332 80.6703 75.6363 83.5667C75.4301 87.2083 76.0502 90.8493 77.4509 94.2183C82.8067 116.351 94.7089 136.366 111.612 151.663C113.935 154.562 116.874 156.912 120.215 158.543C123.197 159.324 128.414 155.634 133.79 151.831C139.502 147.792 145.394 143.625 148.974 144.558C152.48 146.378 155.479 149.034 157.707 152.291C161.263 155.804 164.94 159.247 168.619 162.691C170.506 164.459 172.393 166.225 174.263 168.002Z" fill="#222222"/>
</g>
<defs>
<clipPath id="clip0">
<rect width="224" height="224" fill="white"/>
</clipPath>
</defs>
</svg>
