<svg width="405" height="540" viewBox="0 0 405 540" fill="none" xmlns="http://www.w3.org/2000/svg">
<g clip-path="url(#clip0)">
<path fill-rule="evenodd" clip-rule="evenodd" d="M293.851 375.663C324.23 395.017 355.625 412.727 387.901 428.718C391.378 430.103 394.53 432.196 397.155 434.864C399.781 437.533 401.822 440.718 403.151 444.217C404.48 447.717 405.068 451.454 404.875 455.193C404.682 458.931 403.713 462.588 402.031 465.933L396.676 484.698C395.326 491.655 392.278 498.171 387.803 503.666C383.328 509.161 377.565 513.466 371.026 516.198C350.027 528.258 326.997 536.372 303.075 540.138C237.915 541.488 180.316 487.083 139.996 441.588C114.261 412.706 91.3987 381.388 71.7307 348.078C52.2991 314.772 36.1867 279.639 23.6257 243.183C3.73573 186.033 -15.3441 109.713 18.4059 54.8126C33.7774 36.2636 52.4331 20.7042 73.4405 8.91273C79.1966 4.70034 85.8887 1.94702 92.9426 0.888937C99.9965 -0.169151 107.203 0.49947 113.942 2.83764L133.157 7.65257C136.873 8.04721 140.473 9.18118 143.745 10.9876C147.017 12.794 149.895 15.2365 152.21 18.1715C154.524 21.1064 156.229 24.4745 157.222 28.0777C158.216 31.6809 158.478 35.4462 157.995 39.1526C157.68 80.8676 157.051 110.793 158.491 145.083C159.031 159.303 153.451 161.328 140.491 166.323L119.476 174.423C116.062 174.937 112.794 176.157 109.877 178.003C106.96 179.85 104.458 182.283 102.532 185.148C100.607 188.014 99.2992 191.248 98.6912 194.647C98.0832 198.045 98.1889 201.532 99.0016 204.888C114.646 279.326 154.143 346.63 211.502 396.588C214.036 398.971 217.031 400.811 220.303 401.995C223.575 403.178 227.054 403.68 230.527 403.47C234 403.259 237.392 402.34 240.497 400.77C243.602 399.199 246.353 397.01 248.58 394.338L266.176 380.523C267.668 378.365 269.575 376.526 271.785 375.113C273.995 373.701 276.465 372.742 279.05 372.294C281.634 371.846 284.282 371.917 286.839 372.503C289.396 373.089 291.81 374.178 293.942 375.708V375.708L293.851 375.663Z" fill="#222222"/>
</g>
<defs>
<clipPath id="clip0">
<rect width="405" height="540" fill="white"/>
</clipPath>
</defs>
</svg>
