<svg width="493" height="493" viewBox="0 0 493 493" fill="none" xmlns="http://www.w3.org/2000/svg">
<path fill-rule="evenodd" clip-rule="evenodd" d="M464 87C471.691 87 479.068 90.0553 484.506 95.4939C489.945 100.932 493 108.309 493 116V493H435V116C435 108.309 438.055 100.932 443.494 95.4939C448.932 90.0553 456.309 87 464 87V87ZM319 174C326.691 174 334.068 177.055 339.506 182.494C344.945 187.932 348 195.309 348 203V493H290V203C290 195.309 293.055 187.932 298.494 182.494C303.932 177.055 311.309 174 319 174V174ZM174 0C181.691 0 189.068 3.05535 194.506 8.4939C199.945 13.9325 203 21.3087 203 29V493H145V29C145 21.3087 148.055 13.9325 153.494 8.4939C158.932 3.05535 166.309 0 174 0V0ZM29 232C36.6913 232 44.0675 235.055 49.5061 240.494C54.9447 245.932 58 253.309 58 261V493H0V261C0 253.309 3.05535 245.932 8.4939 240.494C13.9325 235.055 21.3087 232 29 232V232Z" fill="white"/>
</svg>
