<svg width="512" height="512" viewBox="0 0 512 512" fill="none" xmlns="http://www.w3.org/2000/svg">
<g clip-path="url(#clip0)">
<path d="M267.096 86.4435L233.039 52.3152L227.739 47.0044L233.052 41.7067L259.143 15.6892L264.452 10.3953L269.748 15.7023L360.948 107.095L366.198 112.355L360.986 117.652L270.975 209.136L265.717 214.48L260.371 209.224L234.097 183.391L228.747 178.131L234.009 172.783L267.954 138.282H256C170.731 138.282 101.351 207.64 101.351 292.874C101.351 378.108 170.731 447.466 256 447.466C341.269 447.466 410.649 378.107 410.649 292.871V274.451V266.95L418.149 266.951L455.001 266.955L462.5 266.956V274.455V292.874C462.5 348.001 441.01 399.865 402.016 438.843C363.024 477.823 311.142 499.305 256 499.305C200.858 499.305 148.976 477.823 109.984 438.843C70.9905 399.864 49.5 348 49.5 292.874C49.5 237.749 70.9904 185.884 109.984 146.904C148.976 107.925 200.858 86.4435 256 86.4435H267.096Z" fill="#3AB503" stroke="#3AB503" stroke-width="15"/>
</g>
<defs>
<clipPath id="clip0">
<rect width="512" height="512" fill="white"/>
</clipPath>
</defs>
</svg>
