<svg width="434" height="434" viewBox="0 0 434 434" fill="none" xmlns="http://www.w3.org/2000/svg">
<g clip-path="url(#clip0)">
<path fill-rule="evenodd" clip-rule="evenodd" d="M428.006 427.986C426.084 429.923 423.798 431.46 421.28 432.509C418.761 433.558 416.061 434.099 413.333 434.099C410.605 434.099 407.905 433.558 405.386 432.509C402.868 431.46 400.582 429.923 398.661 427.986L301.939 331.328C264.589 361.325 217.171 375.881 169.423 372.007C121.674 368.133 77.222 346.123 45.1955 310.497C13.1689 274.871 -4.00203 228.334 -2.78795 180.445C-1.57387 132.555 17.9313 86.9481 51.7219 52.9909C85.5125 19.0337 131.025 -0.695859 178.908 -2.14542C226.791 -3.59497 273.41 13.3456 309.192 45.1966C344.975 77.0476 367.205 121.391 371.314 169.12C375.422 216.848 361.1 264.339 331.287 301.836L428.006 398.515C429.961 400.438 431.517 402.732 432.577 405.262C433.637 407.791 434.181 410.507 434.181 413.25C434.181 415.993 433.637 418.709 432.577 421.239C431.517 423.769 429.961 426.062 428.006 427.986ZM186 41.3329C157.387 41.3329 129.417 49.8174 105.626 65.7136C81.836 81.6098 63.2945 104.204 52.345 130.638C41.3956 157.072 38.5312 186.16 44.1132 214.223C49.6952 242.285 63.4738 268.062 83.7058 288.294C103.938 308.526 129.715 322.304 157.777 327.886C185.84 333.468 214.928 330.604 241.362 319.654C267.797 308.705 290.39 290.162 306.286 266.372C322.182 242.582 330.666 214.612 330.666 186C330.666 147.632 315.424 110.835 288.294 83.7049C261.163 56.5746 224.368 41.3329 186 41.3329V41.3329Z" fill="#222222"/>
</g>
<defs>
<clipPath id="clip0">
<rect width="434" height="434" fill="white"/>
</clipPath>
</defs>
</svg>
