<svg width="512" height="512" viewBox="0 0 512 512" fill="none" xmlns="http://www.w3.org/2000/svg">
<path d="M375.733 330.483C400.928 296.078 415.998 253.816 415.998 208.002C415.998 93.3146 322.686 0.00201416 207.999 0.00201416C93.3116 0.00201416 0 93.3146 0 208.002C0 322.689 93.3126 416.001 208 416.001C253.814 416.001 296.079 400.929 330.485 375.734L466.75 511.999L512 466.749C512 466.748 375.733 330.483 375.733 330.483V330.483ZM208 352.001C128.593 352.001 64.0002 287.408 64.0002 208.002C64.0002 128.595 128.593 64.0023 208 64.0023C287.406 64.0023 351.999 128.595 351.999 208.002C351.999 287.408 287.405 352.001 208 352.001Z" fill="#3AB503"/>
</svg>
