<svg width="433" height="433" viewBox="0 0 433 433" fill="none" xmlns="http://www.w3.org/2000/svg">
<g clip-path="url(#clip0)">
<path d="M74.305 297.86C57.205 294.96 41.005 306.56 38.105 323.66C37.805 325.46 37.705 327.16 37.705 328.86C37.705 346.16 51.805 360.26 69.105 360.26C86.505 360.16 100.505 346.16 100.505 328.86C100.505 327.06 100.405 325.36 100.105 323.66C97.905 310.46 87.505 300.06 74.305 297.86Z" fill="#3AB503"/>
<path d="M3.10503 226.16C1.20503 226.96 -0.0949721 228.96 0.00502794 231.06V306.56C0.00502794 306.76 0.00502794 306.96 0.00502794 307.16C0.105028 309.86 2.30503 311.86 5.00503 311.76H20.405C25.605 296.66 37.405 284.96 52.405 279.76C79.305 270.56 108.605 284.86 117.805 311.76H131.005V212.76H34.605L3.10503 226.16Z" fill="#3AB503"/>
<path d="M130.905 147.96C130.905 147.96 130.905 147.86 130.905 147.76C130.805 144.86 128.405 142.66 125.605 142.76H77.905C75.905 142.76 74.005 143.96 73.105 145.76L48.905 192.76H130.905V147.96Z" fill="#3AB503"/>
<path d="M357.905 297.36C342.505 297.36 329.405 308.46 326.905 323.66C326.605 325.46 326.505 327.16 326.505 328.86C326.505 346.16 340.605 360.26 357.905 360.26C375.205 360.16 389.305 346.16 389.305 328.76C389.405 327.16 389.205 325.56 389.005 323.96C386.505 308.66 373.405 297.46 357.905 297.36Z" fill="#3AB503"/>
<path d="M151.005 228.76H421.005V71.76H121.005V122.76H125.705C125.805 122.76 125.905 122.76 126.005 122.76C139.905 122.86 151.105 134.06 151.005 147.96V228.76Z" fill="#3AB503"/>
<path d="M427.005 248.76H151.005V311.76H309.105C314.305 296.66 326.105 284.96 341.105 279.76C368.005 270.56 397.305 284.86 406.505 311.76H426.905C427.105 311.76 427.305 311.76 427.505 311.76C430.205 311.56 432.205 309.26 432.005 306.66V254.46C432.005 251.46 430.005 248.76 427.005 248.76Z" fill="#3AB503"/>
</g>
<defs>
<clipPath id="clip0">
<rect width="432.019" height="432.019" fill="white"/>
</clipPath>
</defs>
</svg>
