<svg width="605" height="605" viewBox="0 0 605 605" fill="none" xmlns="http://www.w3.org/2000/svg">
<g clip-path="url(#clip0)">
<path d="M601.786 311.008L526.161 197.57C524.448 194.97 522.12 192.832 519.382 191.348C516.645 189.864 513.583 189.079 510.469 189.062H359.219C354.205 189.062 349.396 191.054 345.85 194.6C342.304 198.146 340.312 202.955 340.312 207.969V434.844C340.312 439.858 342.304 444.667 345.85 448.213C349.396 451.758 354.205 453.75 359.219 453.75H397.031C397.055 440.468 400.576 427.426 407.241 415.938H378.125V226.875H500.259L567.188 327.078V415.938H538.072C544.736 427.426 548.258 440.468 548.281 453.75H586.094C591.108 453.75 595.917 451.758 599.463 448.213C603.008 444.667 605 439.858 605 434.844V321.406C604.971 317.7 603.853 314.084 601.786 311.008V311.008Z" fill="#3AB503"/>
<path d="M359.219 75.625H18.9062C13.892 75.625 9.08312 77.6169 5.53751 81.1625C1.9919 84.7081 0 89.517 0 94.5312L0 434.844C0 439.858 1.9919 444.667 5.53751 448.213C9.08312 451.758 13.892 453.75 18.9062 453.75H56.7188C56.7423 440.468 60.2635 427.426 66.9281 415.938H37.8125V113.438H340.312V415.938H197.759C204.424 427.426 207.945 440.468 207.969 453.75H359.219C364.233 453.75 369.042 451.758 372.588 448.213C376.133 444.667 378.125 439.858 378.125 434.844V94.5312C378.125 89.517 376.133 84.7081 372.588 81.1625C369.042 77.6169 364.233 75.625 359.219 75.625V75.625Z" fill="#3AB503"/>
<path d="M132.344 529.375C117.387 529.375 102.765 524.94 90.3288 516.63C77.8923 508.32 68.1993 496.509 62.4754 482.69C56.7515 468.872 55.2539 453.666 58.1719 438.996C61.0899 424.327 68.2925 410.851 78.8688 400.275C89.4452 389.699 102.92 382.496 117.59 379.578C132.26 376.66 147.466 378.158 161.284 383.882C175.103 389.606 186.914 399.299 195.224 411.735C203.533 424.172 207.969 438.793 207.969 453.75C207.969 473.807 200.001 493.043 185.819 507.225C171.636 521.407 152.401 529.375 132.344 529.375V529.375ZM132.344 415.938C124.865 415.938 117.555 418.155 111.336 422.31C105.118 426.465 100.272 432.37 97.4096 439.28C94.5476 446.189 93.7988 453.792 95.2578 461.127C96.7168 468.462 100.318 475.199 105.606 480.488C110.894 485.776 117.632 489.377 124.967 490.836C132.302 492.295 139.905 491.546 146.814 488.684C153.723 485.822 159.629 480.976 163.784 474.758C167.939 468.539 170.156 461.229 170.156 453.75C170.156 443.722 166.172 434.104 159.081 427.013C151.99 419.921 142.372 415.938 132.344 415.938Z" fill="#3AB503"/>
<path d="M472.656 529.375C457.699 529.375 443.078 524.94 430.641 516.63C418.205 508.32 408.512 496.509 402.788 482.69C397.064 468.872 395.566 453.666 398.484 438.996C401.402 424.327 408.605 410.851 419.181 400.275C429.758 389.699 443.233 382.496 457.903 379.578C472.572 376.66 487.778 378.158 501.597 383.882C515.415 389.606 527.226 399.299 535.536 411.735C543.846 424.172 548.281 438.793 548.281 453.75C548.281 473.807 540.314 493.043 526.131 507.225C511.949 521.407 492.713 529.375 472.656 529.375ZM472.656 415.938C465.178 415.938 457.867 418.155 451.649 422.31C445.431 426.465 440.584 432.37 437.722 439.28C434.86 446.189 434.111 453.792 435.57 461.127C437.029 468.462 440.631 475.199 445.919 480.488C451.207 485.776 457.945 489.377 465.279 490.836C472.614 492.295 480.217 491.546 487.127 488.684C494.036 485.822 499.941 480.976 504.096 474.758C508.251 468.539 510.469 461.229 510.469 453.75C510.469 443.722 506.485 434.104 499.394 427.013C492.303 419.921 482.685 415.938 472.656 415.938Z" fill="#3AB503"/>
</g>
<defs>
<clipPath id="clip0">
<rect width="605" height="605" fill="white"/>
</clipPath>
</defs>
</svg>
