<svg width="476" height="476" viewBox="0 0 476 476" fill="none" xmlns="http://www.w3.org/2000/svg">
<path d="M17.0082 0H204.003C208.511 0.000996066 212.834 1.79292 216.021 4.98133L471.014 259.974C477.657 266.609 477.663 277.372 471.027 284.015C471.023 284.019 471.018 284.024 471.014 284.028L284.02 471.023C277.381 477.658 266.62 477.658 259.983 471.023L4.98968 216.03C1.79729 212.838 0.00535658 208.508 0.00834477 203.994V16.9999C0.00834477 7.61094 7.6193 0 17.0082 0ZM119.005 152.996C137.782 152.996 153.004 137.774 153.004 118.997C153.004 100.22 137.782 84.9983 119.005 84.9983C100.229 84.9983 85.0066 100.22 85.0066 118.997C85.0066 137.774 100.229 152.996 119.005 152.996Z" fill="#3AB503"/>
</svg>
