<svg width="649" height="649" viewBox="0 0 649 649" fill="none" xmlns="http://www.w3.org/2000/svg">
<path d="M624.038 324.5C624.038 159.337 489.675 24.9614 324.5 24.9614C159.325 24.9614 24.9615 159.337 24.9615 324.5C24.9615 408.96 60.2374 485.219 116.661 539.725C117.982 541.445 119.547 542.839 121.378 544.013C174.827 593.508 246.078 624.038 324.5 624.038C402.922 624.038 474.173 593.508 527.622 544.013C529.453 542.839 531.018 541.445 532.339 539.725C588.763 485.219 624.038 408.96 624.038 324.5ZM324.5 62.4037C469.028 62.4037 586.596 179.984 586.596 324.5C586.596 385.779 565.297 442.089 529.927 486.771C513.689 434.406 467.333 393.412 404.417 374.549C438.704 349.736 461.13 309.534 461.13 264.107C461.13 188.869 399.848 127.66 324.5 127.66C249.152 127.66 187.87 188.869 187.87 264.107C187.87 309.534 210.296 349.736 244.583 374.549C181.667 393.412 135.311 434.406 119.073 486.771C83.7028 442.089 62.4038 385.779 62.4038 324.5C62.4038 179.984 179.972 62.4037 324.5 62.4037ZM225.312 264.107C225.312 209.516 269.799 165.102 324.5 165.102C379.201 165.102 423.688 209.516 423.688 264.107C423.688 318.698 379.201 363.112 324.5 363.112C269.799 363.112 225.312 318.698 225.312 264.107ZM150.537 519.998C156.165 451.355 228.956 400.555 324.5 400.555C420.044 400.555 492.835 451.355 498.463 519.998C452.131 561.273 391.29 586.596 324.5 586.596C257.71 586.596 196.869 561.273 150.537 519.998Z" fill="#3AB503"/>
</svg>
