<svg width="512" height="512" viewBox="0 0 512 512" fill="none" xmlns="http://www.w3.org/2000/svg">
<path fill-rule="evenodd" clip-rule="evenodd" d="M501.333 426.667C501.333 456.128 477.461 480 448 480H64C34.5387 480 10.6667 456.128 10.6667 426.667V117.333C10.6667 93.7707 29.7707 74.6667 53.3334 74.6667H268.491L354.88 43.3707C360.352 41.376 366.411 44.2027 368.405 49.6533L377.504 74.6667H416C439.563 74.6667 458.667 93.7707 458.667 117.333V138.667C482.229 138.667 501.333 157.771 501.333 181.333V426.667ZM53.3334 96C41.5574 96 32 105.557 32 117.333C32 129.109 41.5574 138.667 53.3334 138.667H90.08H92.096C92.2347 138.613 92.32 138.496 92.4587 138.443L209.6 96H53.3334ZM363.499 97.9307L352.171 66.7413H352.16L330.283 74.6667H330.315L271.499 96H271.392L153.643 138.667H378.304L363.499 97.9307ZM437.333 117.333C437.333 105.557 427.776 96 416 96H385.248L400.757 138.667H437.333V117.333ZM458.667 160H53.3334C45.5254 160 38.2934 157.749 32 154.08V426.667C32 444.341 46.336 458.667 64 458.667H448C465.675 458.667 480 444.341 480 426.667V352H437.333C413.771 352 394.667 332.896 394.667 309.333C394.667 285.771 413.771 266.667 437.333 266.667H480V181.333C480 169.557 470.443 160 458.667 160ZM480 330.667V288H437.333C425.557 288 416 297.557 416 309.333C416 321.109 425.557 330.667 437.333 330.667H480ZM437.333 298.667H458.667V320H437.333V298.667Z" fill="#3AB503"/>
</svg>
