<svg width="40" height="42" viewBox="0 0 40 42" fill="none" xmlns="http://www.w3.org/2000/svg">
<path d="M28.7607 9.61649C28.1286 9.38378 27.4411 9.38378 26.8091 9.61648L3.26958 18.2935C1.71829 18.8644 0.897542 20.6601 1.43627 22.3042C1.71078 23.1418 2.3056 23.8182 3.07477 24.1672L12.728 28.551L16.865 38.7825C17.517 40.3842 19.2708 41.1225 20.7821 40.4315C21.1238 40.2752 21.435 40.0525 21.6993 39.7748C22.0177 39.4373 22.2602 39.0281 22.4085 38.5775L30.5936 13.6274C31.1325 11.9834 30.3119 10.1876 28.7607 9.61649ZM20.5345 37.8853C20.3548 38.4332 19.79 38.723 19.2729 38.5325C19.0095 38.4355 18.7969 38.2253 18.6871 37.9536L14.658 27.9909L28.6473 13.1647L20.5345 37.8853ZM13.2564 26.5054L3.85618 22.2352C3.47675 22.07 3.23706 21.6689 3.25837 21.2348C3.26371 20.7983 3.53096 20.414 3.92275 20.2796L27.2457 11.6792L13.2564 26.5054Z" fill="white"/>
</svg>
