<svg width="394" height="759" viewBox="0 0 394 759" fill="none" xmlns="http://www.w3.org/2000/svg">
<path d="M1.06656e-05 304.841C1.0632e-05 304.071 0.834148 303.589 1.5008 303.975L233.529 438.214C234.194 438.599 234.194 439.56 233.529 439.945L140.674 493.665C140.364 493.844 139.982 493.844 139.673 493.665L0.499252 413.147C0.190262 412.968 1.53776e-05 412.639 1.5362e-05 412.282L1.06656e-05 304.841Z" fill="white"/>
<path d="M392.504 531.919C393.169 531.534 393.169 530.573 392.504 530.188L299.626 476.454C299.316 476.274 298.934 476.274 298.624 476.454L204.285 531.033C204.28 531.036 204.28 531.043 204.285 531.047C204.291 531.05 204.291 531.057 204.285 531.06L0.499263 648.96C0.190272 649.139 2.57298e-05 649.468 2.57454e-05 649.825L3.04418e-05 757.266C3.04755e-05 758.036 0.834137 758.517 1.50082 758.132L392.504 531.919Z" fill="white"/>
<path d="M1.37397 227.152C0.737007 227.52 0.702797 228.427 1.31022 228.843L94.3643 292.486C94.682 292.703 95.0963 292.719 95.4296 292.526L189.72 237.975C189.727 237.971 189.727 237.96 189.72 237.956C189.712 237.952 189.712 237.941 189.72 237.937L393.501 120.041C393.81 119.862 394 119.532 394 119.175L394 1.73383C394 0.963623 393.166 0.482544 392.499 0.868286L1.37397 227.152Z" fill="white"/>
</svg>
