<svg width="236" height="43" viewBox="0 0 236 43" fill="none" xmlns="http://www.w3.org/2000/svg">
<mask id="mask0" mask-type="alpha" maskUnits="userSpaceOnUse" x="26" y="1" width="40" height="35">
<path d="M41.405 27.5709L46.1786 36L65.9999 1L56.4564 1L46.1786 19.1482L41.405 27.5709Z" fill="#121212"/>
<path d="M42.9519 13.4505L38.1801 21.8764L26.3573 1L35.9009 1L42.9519 13.4505Z" fill="#121212"/>
</mask>
<g mask="url(#mask0)">
<path d="M41.405 27.5709L46.1786 36L65.9999 1L56.4564 1L46.1786 19.1482L41.405 27.5709Z" fill="#121212"/>
<path d="M42.9519 13.4505L38.1801 21.8764L26.3573 1L35.9009 1L42.9519 13.4505Z" fill="#121212"/>
<path d="M70.989 -5.10742L47.6062 36.2871H36.0262L47.6062 16.3565L59.7307 -5.10742L70.989 -5.10742Z" fill="#121212"/>
</g>
<mask id="mask1" mask-type="alpha" maskUnits="userSpaceOnUse" x="0" y="1" width="40" height="35">
<path d="M27.8191 15.1223L39.6426 36H30.0991L23.0473 23.5481L27.8191 15.1223Z" fill="#121212"/>
<path d="M24.5943 9.42809L19.8213 1L0 36H9.54352L19.8213 17.8517L19.8226 17.854L24.5943 9.42809Z" fill="#121212"/>
</mask>
<g mask="url(#mask1)">
<path d="M27.8191 15.1223L39.6426 36H30.0991L23.0473 23.5481L27.8191 15.1223Z" fill="#121212"/>
<path d="M24.5943 9.42809L19.8213 1L0 36H9.54352L19.8213 17.8517L19.8226 17.854L24.5943 9.42809Z" fill="#121212"/>
<path d="M27.2856 9.48254C27.0167 10.2969 14.8469 33.1204 8.79566 44.4304C-0.169157 47.4841 -17.8299 52.3021 -16.7541 47.1448C-15.4094 40.6981 -20.7883 13.8934 -13.0561 9.48254" stroke="white" stroke-width="1.02816"/>
</g>
<path d="M85.54 16H87.808L89.104 12.958H95.062L96.34 16H98.68L93.136 3.31H91.084L85.54 16ZM89.914 10.996L92.074 5.956L94.252 10.996H89.914ZM100.589 18.88H102.767V14.524C103.433 15.406 104.423 16.198 105.989 16.198C108.257 16.198 110.417 14.416 110.417 11.266C110.417 8.08 108.239 6.298 105.989 6.298C104.459 6.298 103.469 7.09 102.767 8.08V6.496H100.589V18.88ZM105.485 14.308C104.009 14.308 102.713 13.102 102.713 11.266C102.713 9.412 104.009 8.188 105.485 8.188C106.961 8.188 108.203 9.394 108.203 11.23C108.203 13.138 106.979 14.308 105.485 14.308ZM114.681 16H116.877V8.368H119.937V6.496H111.621V8.368H114.681V16ZM121.917 16H127.749C130.557 16 132.411 14.794 132.411 12.544C132.411 10.798 131.385 9.952 129.909 9.448C130.845 8.962 131.709 8.152 131.709 6.64C131.709 5.758 131.421 5.074 130.863 4.516C130.143 3.796 129.009 3.4 127.569 3.4H121.917V16ZM124.095 8.71V5.362H127.281C128.703 5.362 129.495 5.974 129.495 6.964C129.495 8.152 128.541 8.71 127.119 8.71H124.095ZM124.095 14.038V10.582H127.605C129.351 10.582 130.197 11.212 130.197 12.274C130.197 13.444 129.279 14.038 127.767 14.038H124.095ZM139.173 16.216C142.107 16.216 144.267 13.966 144.267 11.266C144.267 8.512 142.125 6.298 139.209 6.298C136.293 6.298 134.133 8.548 134.133 11.266C134.133 14.002 136.275 16.216 139.173 16.216ZM139.209 14.326C137.517 14.326 136.311 12.922 136.311 11.266C136.311 9.574 137.427 8.206 139.173 8.206C140.883 8.206 142.089 9.592 142.089 11.266C142.089 12.94 140.973 14.326 139.209 14.326ZM146.413 16.108C148.519 16.108 149.815 15.262 149.815 8.368H152.785V16H154.963V6.496H147.781C147.781 13.732 147.025 14.272 145.927 14.272C145.783 14.272 145.441 14.236 145.297 14.2L145.135 15.982C145.459 16.036 146.071 16.108 146.413 16.108ZM157.7 16H159.86V13.714L161.408 12.076L164.288 16H166.862L162.866 10.492L166.556 6.496H164L159.86 11.05V6.496H157.7V16ZM172.888 16.216C175.822 16.216 177.982 13.966 177.982 11.266C177.982 8.512 175.84 6.298 172.924 6.298C170.008 6.298 167.848 8.548 167.848 11.266C167.848 14.002 169.99 16.216 172.888 16.216ZM172.924 14.326C171.232 14.326 170.026 12.922 170.026 11.266C170.026 9.574 171.142 8.206 172.888 8.206C174.598 8.206 175.804 9.592 175.804 11.266C175.804 12.94 174.688 14.326 172.924 14.326ZM180.2 16H185.132C187.292 16 188.642 15.028 188.642 13.426C188.642 12.076 187.832 11.374 186.68 11.05C187.49 10.69 188.21 10.078 188.21 8.872C188.21 7.414 186.968 6.496 185.078 6.496H180.2V16ZM182.342 14.272V11.896H184.7C185.87 11.896 186.428 12.364 186.428 13.048C186.428 13.786 185.87 14.272 184.808 14.272H182.342ZM182.342 10.42V8.17H184.61C185.582 8.17 185.996 8.638 185.996 9.25C185.996 9.934 185.492 10.42 184.574 10.42H182.342Z" fill="#121212"/>
<path d="M85.15 37.935H86.095L86.305 36H92.575V37.935H93.535L93.715 34.98H92.545V28.245H87.025V29.595C87.025 32.205 86.62 33.825 85.99 34.98H85.15V37.935ZM87.22 34.98C87.76 33.975 88.135 32.265 88.135 30.345V29.265H91.39V34.98H87.22ZM94.9988 36H96.1088L100.729 29.865V36H101.884V28.245H100.759L96.1538 34.38V28.245H94.9988V36ZM103.022 37.935H103.967L104.177 36H110.447V37.935H111.407L111.587 34.98H110.417V28.245H104.897V29.595C104.897 32.205 104.492 33.825 103.862 34.98H103.022V37.935ZM105.092 34.98C105.632 33.975 106.007 32.265 106.007 30.345V29.265H109.262V34.98H105.092ZM111.88 36H113.23L115.81 32.385L117.385 34.11V36H118.54V34.11L120.115 32.385L122.695 36H124.045L120.865 31.56L123.88 28.245H122.485L118.54 32.745V28.245H117.385V32.745L113.44 28.245H112.045L115.06 31.56L111.88 36ZM125.329 36H126.439L131.059 29.865V36H132.214V28.245H131.089L126.484 34.38V28.245H125.329V36ZM136.367 36H137.537V29.265H140.312V28.245H133.592V29.265H136.367V36ZM144.002 36.165C145.367 36.165 146.252 35.535 146.792 34.845V36H147.932V31.26C147.932 30.27 147.662 29.52 147.122 28.98C146.567 28.425 145.712 28.125 144.617 28.125C143.477 28.125 142.652 28.395 141.797 28.785L142.142 29.73C142.862 29.4 143.582 29.175 144.497 29.175C145.952 29.175 146.792 29.895 146.792 31.275V31.515C146.102 31.32 145.412 31.185 144.422 31.185C142.457 31.185 141.107 32.055 141.107 33.72C141.107 35.34 142.547 36.165 144.002 36.165ZM144.227 35.235C143.177 35.235 142.277 34.665 142.277 33.69C142.277 32.73 143.102 32.1 144.542 32.1C145.487 32.1 146.237 32.265 146.807 32.43V33.15C146.807 34.38 145.652 35.235 144.227 35.235ZM149.704 36.12C151.174 36.12 152.269 35.49 152.269 29.445V29.265H155.509V36H156.664V28.245H151.174V28.89C151.174 34.71 150.394 35.115 149.464 35.115C149.329 35.115 149.059 35.055 148.909 35.01L148.774 36C149.014 36.06 149.449 36.12 149.704 36.12ZM165.456 36.165C166.821 36.165 167.706 35.535 168.246 34.845V36H169.386V31.26C169.386 30.27 169.116 29.52 168.576 28.98C168.021 28.425 167.166 28.125 166.071 28.125C164.931 28.125 164.106 28.395 163.251 28.785L163.596 29.73C164.316 29.4 165.036 29.175 165.951 29.175C167.406 29.175 168.246 29.895 168.246 31.275V31.515C167.556 31.32 166.866 31.185 165.876 31.185C163.911 31.185 162.561 32.055 162.561 33.72C162.561 35.34 164.001 36.165 165.456 36.165ZM165.681 35.235C164.631 35.235 163.731 34.665 163.731 33.69C163.731 32.73 164.556 32.1 165.996 32.1C166.941 32.1 167.691 32.265 168.261 32.43V33.15C168.261 34.38 167.106 35.235 165.681 35.235ZM171.532 36H172.687V29.265H176.797V28.245H171.532V36ZM181.566 36.18C183.036 36.18 183.981 35.595 184.761 34.725L184.041 34.08C183.411 34.74 182.661 35.175 181.596 35.175C180.231 35.175 179.031 34.23 178.866 32.595H185.016C185.031 32.415 185.031 32.295 185.031 32.19C185.031 29.91 183.711 28.08 181.416 28.08C179.271 28.08 177.696 29.88 177.696 32.13C177.696 34.545 179.436 36.18 181.566 36.18ZM178.866 31.665C179.031 30.165 180.051 29.055 181.386 29.055C182.916 29.055 183.726 30.255 183.861 31.665H178.866ZM186.753 36H187.908V32.61H192.378V36H193.533V28.245H192.378V31.59H187.908V28.245H186.753V36ZM197.688 36H198.858V29.265H201.633V28.245H194.913V29.265H197.688V36ZM206.508 36.18C207.963 36.18 208.893 35.55 209.673 34.68L208.908 33.975C208.293 34.635 207.558 35.145 206.568 35.145C204.948 35.145 203.718 33.81 203.718 32.13C203.718 30.435 204.918 29.1 206.493 29.1C207.543 29.1 208.263 29.595 208.878 30.24L209.613 29.46C208.893 28.695 207.978 28.08 206.508 28.08C204.243 28.08 202.533 29.94 202.533 32.13C202.533 34.335 204.243 36.18 206.508 36.18ZM213.157 36H214.327V29.265H217.102V28.245H210.382V29.265H213.157V36ZM218.482 36H222.367C224.077 36 225.187 35.19 225.187 33.885C225.187 32.79 224.407 32.22 223.477 31.965C224.122 31.695 224.767 31.2 224.767 30.18C224.767 29.01 223.777 28.245 222.232 28.245H218.482V36ZM219.637 35.01V32.505H222.067C223.327 32.505 224.002 32.955 224.002 33.705C224.002 34.515 223.327 35.01 222.217 35.01H219.637ZM219.637 31.575V29.235H222.052C223.057 29.235 223.597 29.685 223.597 30.33C223.597 31.14 222.952 31.575 222.022 31.575H219.637ZM230.511 36.18C232.851 36.18 234.576 34.32 234.576 32.13C234.576 29.91 232.866 28.08 230.541 28.08C228.201 28.08 226.491 29.94 226.491 32.13C226.491 34.35 228.186 36.18 230.511 36.18ZM230.541 35.145C228.906 35.145 227.676 33.795 227.676 32.13C227.676 30.465 228.831 29.1 230.511 29.1C232.146 29.1 233.391 30.465 233.391 32.13C233.391 33.795 232.221 35.145 230.541 35.145Z" fill="#121212"/>
</svg>
