<svg width="163" height="326" viewBox="0 0 163 326" fill="none" xmlns="http://www.w3.org/2000/svg">
<path d="M8.73185e-07 326C21.4055 326 42.6013 321.784 62.3774 313.592C82.1535 305.401 100.122 293.394 115.258 278.258C130.394 263.122 142.401 245.153 150.592 225.377C158.784 205.601 163 184.405 163 163C163 141.595 158.784 120.399 150.592 100.623C142.401 80.8465 130.394 62.8775 115.258 47.7416C100.122 32.6056 82.1535 20.5992 62.3774 12.4076C42.6013 4.21612 21.4054 3.59589e-06 -3.05176e-05 6.29371e-06L-1.14179e-05 77.6183C11.2125 77.6183 22.3152 79.8267 32.6742 84.1176C43.0332 88.4084 52.4456 94.6976 60.374 102.626C68.3024 110.554 74.5916 119.967 78.8824 130.326C83.1733 140.685 85.3817 151.788 85.3817 163C85.3817 174.212 83.1733 185.315 78.8824 195.674C74.5916 206.033 68.3024 215.446 60.374 223.374C52.4456 231.302 43.0332 237.592 32.6742 241.882C22.3152 246.173 11.2125 248.382 -2.96772e-06 248.382L8.73185e-07 326Z" fill="#3139F3"/>
</svg>
