<?xml version="1.0" encoding="UTF-8"?> <svg xmlns="http://www.w3.org/2000/svg" id="Слой_1" data-name="Слой 1" width="1128.58mm" height="18.87mm" viewBox="0 0 3199.13 53.48"> <title>ровная дорога для обложек</title> <path d="M45.06,0H28.19A26.73,26.73,0,0,0,1.41,26.62,27,27,0,0,0,28.19,53.48H1473.32V3.33Z" transform="translate(-1.41)" style="fill: #005c6f"></path> <path d="M3173.76,0h-16.87L2051.21,3.3,45.06,0,30,53.48H3173.76a27,27,0,0,0,26.78-26.86A26.71,26.71,0,0,0,3173.76,0Z" transform="translate(-1.41)" style="fill: #005c6f"></path> <g> <rect x="99.71" y="24.01" width="12.9" height="4" style="fill: #fff"></rect> <rect x="66.96" y="23.98" width="12.9" height="4" style="fill: #fff"></rect> <rect x="34.22" y="23.95" width="12.9" height="4" style="fill: #fff"></rect> <rect x="197.04" y="24.01" width="12.9" height="4" style="fill: #fff"></rect> <rect x="164.29" y="23.98" width="12.9" height="4" style="fill: #fff"></rect> <rect x="131.55" y="23.95" width="12.9" height="4" style="fill: #fff"></rect> <rect x="297.04" y="24.01" width="12.9" height="4" style="fill: #fff"></rect> <rect x="264.29" y="23.98" width="12.9" height="4" style="fill: #fff"></rect> <rect x="231.55" y="23.95" width="12.9" height="4" style="fill: #fff"></rect> <rect x="394.38" y="24.01" width="12.9" height="4" style="fill: #fff"></rect> <rect x="361.63" y="23.98" width="12.9" height="4" style="fill: #fff"></rect> <rect x="328.89" y="23.95" width="12.9" height="4" style="fill: #fff"></rect> <rect x="491.71" y="24.01" width="12.9" height="4" style="fill: #fff"></rect> <rect x="458.96" y="23.98" width="12.9" height="4" style="fill: #fff"></rect> <rect x="426.22" y="23.95" width="12.9" height="4" style="fill: #fff"></rect> <rect x="589.04" y="24.01" width="12.9" height="4" style="fill: #fff"></rect> <rect x="556.29" y="23.98" width="12.9" height="4" style="fill: #fff"></rect> <rect x="523.55" y="23.95" width="12.9" height="4" style="fill: #fff"></rect> <rect x="689.04" y="24.01" width="12.9" height="4" style="fill: #fff"></rect> <rect x="656.29" y="23.98" width="12.9" height="4" style="fill: #fff"></rect> <rect x="623.55" y="23.95" width="12.9" height="4" style="fill: #fff"></rect> <rect x="786.38" y="24.01" width="12.9" height="4" style="fill: #fff"></rect> <rect x="753.63" y="23.98" width="12.9" height="4" style="fill: #fff"></rect> <rect x="720.89" y="23.95" width="12.9" height="4" style="fill: #fff"></rect> <rect x="889.15" y="24.01" width="12.9" height="4" style="fill: #fff"></rect> <rect x="856.4" y="23.98" width="12.9" height="4" style="fill: #fff"></rect> <rect x="823.66" y="23.95" width="12.9" height="4" style="fill: #fff"></rect> <rect x="986.48" y="24.01" width="12.9" height="4" style="fill: #fff"></rect> <rect x="953.73" y="23.98" width="12.9" height="4" style="fill: #fff"></rect> <rect x="921" y="23.95" width="12.9" height="4" style="fill: #fff"></rect> <rect x="1086.48" y="24.01" width="12.9" height="4" style="fill: #fff"></rect> <rect x="1053.73" y="23.98" width="12.9" height="4" style="fill: #fff"></rect> <rect x="1021" y="23.95" width="12.9" height="4" style="fill: #fff"></rect> <rect x="1183.82" y="24.01" width="12.9" height="4" style="fill: #fff"></rect> <rect x="1151.07" y="23.98" width="12.9" height="4" style="fill: #fff"></rect> <rect x="1118.33" y="23.95" width="12.9" height="4" style="fill: #fff"></rect> <rect x="1281.15" y="24.01" width="12.9" height="4" style="fill: #fff"></rect> <rect x="1248.4" y="23.98" width="12.9" height="4" style="fill: #fff"></rect> <rect x="1215.66" y="23.95" width="12.9" height="4" style="fill: #fff"></rect> <rect x="1378.48" y="24.01" width="12.9" height="4" style="fill: #fff"></rect> <rect x="1345.73" y="23.98" width="12.9" height="4" style="fill: #fff"></rect> <rect x="1313" y="23.95" width="12.9" height="4" style="fill: #fff"></rect> <rect x="1478.48" y="24.01" width="12.9" height="4" style="fill: #fff"></rect> <rect x="1445.73" y="23.98" width="12.9" height="4" style="fill: #fff"></rect> <rect x="1413" y="23.95" width="12.9" height="4" style="fill: #fff"></rect> <rect x="1575.82" y="24.01" width="12.9" height="4" style="fill: #fff"></rect> <rect x="1543.07" y="23.98" width="12.9" height="4" style="fill: #fff"></rect> <rect x="1510.33" y="23.95" width="12.9" height="4" style="fill: #fff"></rect> <rect x="1673.85" y="24.01" width="12.9" height="4" style="fill: #fff"></rect> <rect x="1641.1" y="23.98" width="12.9" height="4" style="fill: #fff"></rect> <rect x="1608.36" y="23.95" width="12.9" height="4" style="fill: #fff"></rect> <rect x="1771.18" y="24.01" width="12.9" height="4" style="fill: #fff"></rect> <rect x="1738.43" y="23.98" width="12.9" height="4" style="fill: #fff"></rect> <rect x="1705.69" y="23.95" width="12.9" height="4" style="fill: #fff"></rect> <rect x="1871.18" y="24.01" width="12.9" height="4" style="fill: #fff"></rect> <rect x="1838.43" y="23.98" width="12.9" height="4" style="fill: #fff"></rect> <rect x="1805.69" y="23.95" width="12.9" height="4" style="fill: #fff"></rect> <rect x="1968.52" y="24.01" width="12.9" height="4" style="fill: #fff"></rect> <rect x="1935.77" y="23.98" width="12.9" height="4" style="fill: #fff"></rect> <rect x="1903.03" y="23.95" width="12.9" height="4" style="fill: #fff"></rect> <rect x="2065.85" y="24.01" width="12.9" height="4" style="fill: #fff"></rect> <rect x="2033.1" y="23.98" width="12.9" height="4" style="fill: #fff"></rect> <rect x="2000.36" y="23.95" width="12.9" height="4" style="fill: #fff"></rect> <rect x="2163.18" y="24.01" width="12.9" height="4" style="fill: #fff"></rect> <rect x="2130.43" y="23.98" width="12.9" height="4" style="fill: #fff"></rect> <rect x="2097.69" y="23.95" width="12.9" height="4" style="fill: #fff"></rect> <rect x="2263.18" y="24.01" width="12.9" height="4" style="fill: #fff"></rect> <rect x="2230.43" y="23.98" width="12.9" height="4" style="fill: #fff"></rect> <rect x="2197.69" y="23.95" width="12.9" height="4" style="fill: #fff"></rect> <rect x="2360.52" y="24.01" width="12.9" height="4" style="fill: #fff"></rect> <rect x="2327.77" y="23.98" width="12.9" height="4" style="fill: #fff"></rect> <rect x="2295.03" y="23.95" width="12.9" height="4" style="fill: #fff"></rect> <rect x="2463.29" y="24.01" width="12.9" height="4" style="fill: #fff"></rect> <rect x="2430.54" y="23.98" width="12.9" height="4" style="fill: #fff"></rect> <rect x="2397.8" y="23.95" width="12.9" height="4" style="fill: #fff"></rect> <rect x="2560.63" y="24.01" width="12.9" height="4" style="fill: #fff"></rect> <rect x="2527.88" y="23.98" width="12.9" height="4" style="fill: #fff"></rect> <rect x="2495.14" y="23.95" width="12.9" height="4" style="fill: #fff"></rect> <rect x="2660.63" y="24.01" width="12.9" height="4" style="fill: #fff"></rect> <rect x="2627.88" y="23.98" width="12.9" height="4" style="fill: #fff"></rect> <rect x="2595.14" y="23.95" width="12.9" height="4" style="fill: #fff"></rect> <rect x="2757.96" y="24.01" width="12.9" height="4" style="fill: #fff"></rect> <rect x="2725.21" y="23.98" width="12.9" height="4" style="fill: #fff"></rect> <rect x="2692.47" y="23.95" width="12.9" height="4" style="fill: #fff"></rect> <rect x="2855.29" y="24.01" width="12.9" height="4" style="fill: #fff"></rect> <rect x="2822.54" y="23.98" width="12.9" height="4" style="fill: #fff"></rect> <rect x="2789.8" y="23.95" width="12.9" height="4" style="fill: #fff"></rect> <rect x="2952.63" y="24.01" width="12.9" height="4" style="fill: #fff"></rect> <rect x="2919.88" y="23.98" width="12.9" height="4" style="fill: #fff"></rect> <rect x="2887.14" y="23.95" width="12.9" height="4" style="fill: #fff"></rect> <rect x="3052.63" y="24.01" width="12.9" height="4" style="fill: #fff"></rect> <rect x="3019.88" y="23.98" width="12.9" height="4" style="fill: #fff"></rect> <rect x="2987.14" y="23.95" width="12.9" height="4" style="fill: #fff"></rect> <rect x="3149.96" y="24.01" width="12.9" height="4" style="fill: #fff"></rect> <rect x="3117.21" y="23.98" width="12.9" height="4" style="fill: #fff"></rect> <rect x="3084.47" y="23.95" width="12.9" height="4" style="fill: #fff"></rect> </g> </svg> 