<?xml version="1.0" encoding="UTF-8"?> <!-- Generator: Adobe Illustrator 24.1.2, SVG Export Plug-In . SVG Version: 6.00 Build 0) --> <svg xmlns="http://www.w3.org/2000/svg" xmlns:xlink="http://www.w3.org/1999/xlink" id="Слой_1" x="0px" y="0px" viewBox="0 0 564.77 549.19" style="enable-background:new 0 0 564.77 549.19;" xml:space="preserve"> <style type="text/css"> .st0{fill:#EC6567;} .st1{fill:#FCC142;} .st2{fill:#FFFFFF;} .st3{fill:#6FC7DA;} .st4{fill:#30358C;} .st5{fill:#EA9A0A;} </style> <polygon class="st0" points="33.45,243.31 34.41,243.87 150.21,177.02 149.25,176.46 "></polygon> <ellipse class="st0" cx="149.55" cy="176.85" rx="5.11" ry="2.95"></ellipse> <ellipse class="st0" cx="33.2" cy="244.02" rx="5.11" ry="2.95"></ellipse> <polygon class="st0" points="89.22,211.67 116.63,227.5 232.01,160.88 289.7,194.19 361.75,152.59 360.78,152.04 289.7,193.08 232.01,159.77 116.63,226.39 90.18,211.12 "></polygon> <ellipse class="st0" cx="361.08" cy="152.42" rx="5.11" ry="2.95"></ellipse> <polygon class="st0" points="264.22,178.92 265.18,179.48 413.67,93.75 412.71,93.19 "></polygon> <ellipse class="st0" cx="413" cy="93.57" rx="5.11" ry="2.95"></ellipse> <polygon class="st0" points="294.51,134.79 318.07,148.39 319.02,147.83 296.43,134.79 330.97,114.84 330.01,114.29 "></polygon> <ellipse class="st0" cx="330.32" cy="114.67" rx="5.11" ry="2.95"></ellipse> <polygon class="st0" points="289.22,193.91 316.55,209.69 317.52,209.14 290.18,193.36 "></polygon> <ellipse class="st0" cx="316.86" cy="209.31" rx="5.11" ry="2.95"></ellipse> <polygon class="st1" points="220.62,277.97 221.58,278.53 297.48,234.71 225.43,193.11 224.46,193.67 295.55,234.71 "></polygon> <ellipse class="st1" cx="225.13" cy="193.5" rx="5.11" ry="2.95"></ellipse> <ellipse class="st1" cx="221.28" cy="278.15" rx="5.11" ry="2.95"></ellipse> <polygon class="st1" points="214.85,256.88 215.82,257.43 253.24,235.82 213.89,213.1 212.93,213.66 251.32,235.82 "></polygon> <ellipse class="st1" cx="213.59" cy="213.48" rx="5.11" ry="2.95"></ellipse> <ellipse class="st1" cx="215.51" cy="257.05" rx="5.11" ry="2.95"></ellipse> <polygon class="st1" points="41.55,115.22 42.51,115.78 73.21,98.05 96.45,111.47 97.41,110.91 73.21,96.95 "></polygon> <ellipse class="st1" cx="42.21" cy="115.4" rx="5.11" ry="2.95"></ellipse> <polygon class="st1" points="191.55,93.47 218.88,109.25 219.85,108.7 192.51,92.91 "></polygon> <ellipse class="st1" cx="192.21" cy="93.3" rx="5.11" ry="2.95"></ellipse> <polygon class="st1" points="39.65,143.67 40.62,144.22 120.35,98.19 204,146.49 408.73,28.29 407.76,27.73 204,145.38 120.35,97.08 "></polygon> <ellipse class="st1" cx="40.31" cy="143.84" rx="5.11" ry="2.95"></ellipse> <ellipse class="st1" cx="408.06" cy="28.12" rx="5.11" ry="2.95"></ellipse> <polygon class="st1" points="218.41,108.97 243.25,123.32 244.21,122.76 220.33,108.97 310,57.2 309.04,56.65 "></polygon> <ellipse class="st1" cx="309.34" cy="57.03" rx="5.11" ry="2.95"></ellipse> <polygon class="st1" points="325.94,75.2 348.21,88.07 474.1,15.38 473.14,14.83 348.21,86.96 326.9,74.65 "></polygon> <ellipse class="st1" cx="473.44" cy="15.21" rx="5.11" ry="2.95"></ellipse> <polygon class="st1" points="462.26,315.59 463.22,315.04 554.02,367.46 553.06,368.02 "></polygon> <ellipse class="st1" cx="553.36" cy="367.64" rx="5.11" ry="2.95"></ellipse> <ellipse class="st1" cx="461.69" cy="314.71" rx="5.11" ry="2.95"></ellipse> <polygon class="st2" points="393.94,136.17 394.91,136.73 485.7,84.31 484.74,83.75 "></polygon> <ellipse class="st2" cx="485.04" cy="84.14" rx="5.11" ry="2.95"></ellipse> <ellipse class="st2" cx="393.37" cy="137.06" rx="5.11" ry="2.95"></ellipse> <polygon class="st3" points="135.46,332.98 136.42,333.53 161.58,319.01 312.87,406.35 348.05,386.03 347.09,385.48 312.87,405.24 161.58,317.9 "></polygon> <ellipse class="st3" cx="347.39" cy="385.86" rx="5.11" ry="2.95"></ellipse> <polygon class="st3" points="219.43,351.11 220.39,351.67 404.14,245.58 403.17,245.03 "></polygon> <ellipse class="st3" cx="403.48" cy="245.41" rx="5.11" ry="2.95"></ellipse> <polygon class="st3" points="265.59,325.02 299.4,344.54 495.16,231.52 494.2,230.97 299.4,343.43 266.55,324.47 "></polygon> <ellipse class="st3" cx="494.5" cy="231.35" rx="5.11" ry="2.95"></ellipse> <polygon class="st3" points="370.71,302.82 398.12,318.64 462.22,281.63 519.84,314.9 520.81,314.34 462.22,280.52 398.12,317.53 371.68,302.26 "></polygon> <ellipse class="st3" cx="520.15" cy="314.52" rx="5.11" ry="2.95"></ellipse> <polygon class="st3" points="492.51,297.08 493.47,297.64 536.19,272.97 535.23,272.42 "></polygon> <ellipse class="st3" cx="535.53" cy="272.8" rx="5.11" ry="2.95"></ellipse> <polygon class="st3" points="272.79,284.77 304.05,302.81 305.01,302.26 274.72,284.77 360.62,235.18 333.69,219.64 482.34,133.82 481.38,133.26 331.77,219.64 358.7,235.18 "></polygon> <ellipse class="st3" cx="481.68" cy="133.64" rx="5.11" ry="2.95"></ellipse> <polygon class="st3" points="397.64,318.36 435.23,340.07 436.19,339.51 398.6,317.81 "></polygon> <ellipse class="st3" cx="435.53" cy="339.68" rx="5.11" ry="2.95"></ellipse> <ellipse class="st3" cx="136.09" cy="333.17" rx="5.11" ry="2.95"></ellipse> <polygon class="st2" points="283.35,481.01 315.88,499.79 397.61,452.6 350.17,425.21 412.92,388.99 411.96,388.43 348.25,425.21 395.69,452.6 315.88,498.68 284.31,480.45 "></polygon> <ellipse class="st2" cx="412.26" cy="388.81" rx="5.11" ry="2.95"></ellipse> <polygon class="st2" points="374.37,439.74 375.33,440.3 474.46,383.06 473.5,382.51 "></polygon> <ellipse class="st2" cx="473.8" cy="382.89" rx="5.11" ry="2.95"></ellipse> <ellipse class="st2" cx="281.94" cy="479.71" rx="5.11" ry="2.95"></ellipse> <polygon class="st4" points="428.15,441.16 527.13,384.02 528.09,384.58 430.08,441.16 465.17,461.43 464.21,461.98 "></polygon> <ellipse class="st4" cx="527.42" cy="384.41" rx="5.11" ry="2.95"></ellipse> <ellipse class="st4" cx="467" cy="463.19" rx="5.11" ry="2.95"></ellipse> <polygon class="st2" points="469.51,185.15 519.92,214.26 520.88,213.71 470.47,184.6 "></polygon> <ellipse class="st2" cx="470.17" cy="184.98" rx="5.11" ry="2.95"></ellipse> <ellipse class="st2" cx="523.27" cy="215.69" rx="5.11" ry="2.95"></ellipse> <polygon class="st5" points="152.72,426.89 349.35,540.42 350.31,539.86 154.64,426.89 223.87,386.92 11.43,264.27 10.47,264.83 221.94,386.92 "></polygon> <ellipse class="st5" cx="11.13" cy="264.65" rx="5.11" ry="2.95"></ellipse> <ellipse class="st5" cx="351.49" cy="541.11" rx="5.11" ry="2.95"></ellipse> <polygon class="st2" points="242.48,402.23 340.97,459.09 341.93,458.54 243.45,401.67 "></polygon> <ellipse class="st2" cx="243.14" cy="402.06" rx="5.11" ry="2.95"></ellipse> <ellipse class="st2" cx="343.93" cy="460.18" rx="5.11" ry="2.95"></ellipse> <polygon class="st2" points="404.2,217.42 429.13,231.82 452.69,218.22 451.73,217.67 429.13,230.71 405.16,216.87 "></polygon> <ellipse class="st2" cx="404.86" cy="217.25" rx="5.11" ry="2.95"></ellipse> <ellipse class="st2" cx="455.33" cy="216.13" rx="5.11" ry="2.95"></ellipse> </svg> 