<?xml version="1.0" encoding="UTF-8"?> <!-- Generator: Adobe Illustrator 24.1.2, SVG Export Plug-In . SVG Version: 6.00 Build 0) --> <svg xmlns="http://www.w3.org/2000/svg" xmlns:xlink="http://www.w3.org/1999/xlink" id="Слой_1" x="0px" y="0px" viewBox="0 0 319.13 75.37" style="enable-background:new 0 0 319.13 75.37;" xml:space="preserve"> <style type="text/css"> .st0{fill:#F8AC12;} .st1{fill:none;stroke:#F8AC12;stroke-width:3.6;stroke-miterlimit:10;} </style> <g id="Слой_2_1_"> <g id="Слой_3"> <g id="Слой_4"> <path class="st0" d="M44,47.36H25.3v-5.71c3.2-1.54,5.67-2.83,7.4-3.83c0.67-0.33,1.31-0.72,1.91-1.17 c0.59-0.45,0.74-0.74,0.74-1.07c0-0.59-0.56-0.88-1.7-0.88c-2.63,0.13-5.19,0.88-7.47,2.2V30c2.51-1.46,5.38-2.19,8.28-2.13 c2.23-0.08,4.43,0.52,6.3,1.73c1.64,1.12,2.57,3.02,2.46,5c-0.04,1.7-0.86,3.28-2.22,4.29c-1.52,1.3-3.32,2.23-5.26,2.72H44 V47.36z"></path> <path class="st0" d="M65.42,54.68h-7.91v-7.32H45.84V42l11.78-13.63h7.8v13.1h3.35v5.89h-3.35V54.68z M57.51,36.94l-3.94,4.53 h3.94V36.94z"></path> <path class="st0" d="M84.38,40.25H72v-6.73h12.38V40.25z"></path> <path class="st0" d="M106.87,47.36h-18.7v-5.71c3.2-1.54,5.67-2.83,7.4-3.83c0.67-0.33,1.31-0.72,1.91-1.17 c0.59-0.45,0.74-0.74,0.74-1.07c0-0.59-0.56-0.88-1.7-0.88c-2.63,0.13-5.19,0.88-7.47,2.2V30c2.51-1.46,5.38-2.19,8.28-2.13 c2.23-0.08,4.43,0.52,6.3,1.73c1.64,1.12,2.57,3.02,2.46,5c-0.04,1.69-0.86,3.26-2.21,4.27c-1.52,1.3-3.32,2.23-5.26,2.72h8.25 V47.36z"></path> <path class="st0" d="M108.93,53.06v-7.21c2.12,1.43,4.62,2.2,7.18,2.21c2.54,0,3.82-0.89,3.82-2.69s-1.47-2.72-4.12-2.72 c-2.1,0-4.19,0.34-6.18,1l1.69-15.27h14.8V35h-9L117,36.83h0.81c2.62-0.18,5.21,0.64,7.25,2.29c1.89,1.53,2.93,3.87,2.8,6.29 c0.05,1.91-0.53,3.79-1.66,5.34c-2.17,2.94-5.59,4.19-9.68,4.19C113.87,55,111.25,54.35,108.93,53.06z"></path> <path class="st0" d="M141.25,45c-2.01-1.82-3.13-4.43-3.06-7.14c-0.07-2.71,1.05-5.32,3.06-7.14c4.49-3.77,11.04-3.77,15.53,0 c2.03,1.81,3.16,4.42,3.09,7.14c0.07,2.72-1.06,5.33-3.09,7.14C152.28,48.73,145.75,48.73,141.25,45z M151.37,40.33 c1.23-1.4,1.23-3.5,0-4.9c-1.28-1.3-3.37-1.32-4.67-0.04c-0.01,0.01-0.03,0.03-0.04,0.04c-1.23,1.4-1.23,3.5,0,4.9 C147.97,41.61,150.06,41.61,151.37,40.33z"></path> <path class="st0" d="M170.11,47.36h-7.73v-19h7.73v6.69l4.89-6.68h8.87L177,36.9l8,10.46h-9.46l-5.48-7.7L170.11,47.36z"></path> <path class="st0" d="M198.08,47.36h-7.76V34.47h-5.08v-6.1h18v6.1h-5.15L198.08,47.36z"></path> <path class="st0" d="M212.33,47.36h-8.5l4.86-7c-1.97-1.05-3.16-3.13-3.06-5.36c-0.03-1.77,0.7-3.47,2-4.67 c1.29-1.29,3.31-1.91,6.07-1.91h10.6v19h-7.73v-5.6h-0.73L212.33,47.36z M216.52,36.94V34h-1.76c-1,0-1.73,0.55-1.73,1.44 c0.05,0.87,0.79,1.53,1.66,1.48c0.02,0,0.05,0,0.07-0.01L216.52,36.94z"></path> <path class="st0" d="M247.52,38.08c0.06,2.66-1.03,5.21-3,7c-2,1.82-4.62,2.78-7.32,2.69c-3.46,0-6.07-1.07-7.88-3.31 c-1.88-2.52-2.83-5.62-2.68-8.76c0-3.76,0.88-6.7,2.65-8.84s4.82-3.71,9.12-4.74c1.29-0.34,3.54-0.74,6.74-1.29v6.59 c-0.59,0-2.28,0.25-3.17,0.36c-1.15,0.12-2.29,0.31-3.42,0.56c-1.03,0.23-2.04,0.56-3,1c-1.22,0.73-2.1,1.54-2.17,3 c1.67-1.43,3.8-2.23,6-2.25C244.32,30.13,247.52,33.08,247.52,38.08z M240.19,38.67c0.13-1.44-0.93-2.7-2.37-2.83 c-0.17-0.02-0.34-0.01-0.5,0c-1.28-0.01-2.51,0.46-3.46,1.32c0,3.13,1.25,4.68,3.31,4.68c1.61,0.06,2.97-1.2,3.03-2.81 C240.2,38.91,240.2,38.79,240.19,38.67z"></path> <path class="st0" d="M257.79,54.68H250V28.37h7.77v2.13c1.15-1.75,3.14-2.75,5.23-2.61c2.33-0.03,4.54,1.01,6,2.83 c1.63,2.01,2.48,4.55,2.39,7.14c0.09,2.59-0.76,5.13-2.39,7.14c-1.46,1.81-3.68,2.84-6,2.8c-2.07,0.13-4.05-0.85-5.19-2.58 L257.79,54.68z M257.68,40c0.63,0.97,1.76,1.51,2.91,1.39c1.79-0.07,3.2-1.57,3.13-3.37c0-0.05-0.01-0.11-0.01-0.16 c0.16-1.79-1.17-3.36-2.96-3.52c-0.05,0-0.11-0.01-0.16-0.01c-1.15-0.12-2.27,0.4-2.91,1.36V40z"></path> <path class="st0" d="M280.54,47.36H272l4.85-7c-1.95-1.06-3.12-3.14-3.01-5.36c-0.03-1.77,0.7-3.47,2-4.67 c1.29-1.29,3.31-1.91,6.07-1.91h10.6v19h-7.73v-5.6H284L280.54,47.36z M284.73,36.94V34H283c-1,0-1.73,0.55-1.73,1.44 c0.03,0.87,0.76,1.54,1.63,1.51c0.03,0,0.07,0,0.1-0.01L284.73,36.94z"></path> <rect x="1.8" y="1.8" class="st1" width="314.93" height="71.78"></rect> </g> </g> </g> </svg> 