<?xml version="1.0" encoding="UTF-8"?> <svg xmlns="http://www.w3.org/2000/svg" viewBox="0 0 350 169.75"> <defs> <style>.cls-1{fill:#fff;}.cls-2{fill:#fcc142;}.cls-3{fill:#2e3192;}</style> </defs> <title>родительский комитет 2</title> <g id="Слой_2" data-name="Слой 2"> <g id="Слой_8_копия3_" data-name="Слой 8 (копия3)"> <polygon class="cls-1" points="350 136 15.5 136 7.67 140 4 136 4 0 350 0 350 136"></polygon> <polygon class="cls-2" points="346 140 11.5 140 0 169.75 0 140 0 4 346 4 346 140"></polygon> <path class="cls-3" d="M17.13,40h11a9.4,9.4,0,0,1,6.52,2.18,7.51,7.51,0,0,1,0,11.15,9.4,9.4,0,0,1-6.52,2.18H24.44v8.29H17.13Zm7.31,10.2h2.65a2.16,2.16,0,1,0,0-4.25H24.44Z"></path> <path class="cls-3" d="M43.89,43.15A12.39,12.39,0,0,1,53,39.51a12.32,12.32,0,0,1,9.11,3.64,12.41,12.41,0,0,1,0,17.5A12.27,12.27,0,0,1,53,64.22a12.4,12.4,0,0,1-9.14-3.6,12.37,12.37,0,0,1,0-17.47ZM53,57.59A4.94,4.94,0,0,0,56.8,56a5.88,5.88,0,0,0,1.5-4.12,5.75,5.75,0,0,0-1.5-4.08,5.17,5.17,0,0,0-7.54,0,5.75,5.75,0,0,0-1.5,4.08A5.88,5.88,0,0,0,49.26,56,4.94,4.94,0,0,0,53,57.59Z"></path> <path class="cls-3" d="M75.37,68.13h-6.8V57.49H71c1.53-2.75,2.31-7.07,2.31-12.88V40H91.79V57.49h3V68.13H87.91V63.78H75.37Zm9.14-10.64V46.27H80.13a44,44,0,0,1-.48,6.09,17.5,17.5,0,0,1-1.36,5.13Z"></path> <path class="cls-3" d="M105.19,63.78H99V40H106V51.82L115.22,40h6v23.8h-7V52.05Z"></path> <path class="cls-3" d="M125.49,46.27V40h20.9v6.29h-6.83V63.78h-7.31V46.27Z"></path> <path class="cls-3" d="M169.51,63.78H150.64V40h18.67v6.29H158v2.11h8.91v5.78H158v3.33h11.56Z"></path> <path class="cls-3" d="M172.17,57a4.1,4.1,0,0,0,1.66.44,2.86,2.86,0,0,0,1.87-.51c.82-.71,1.43-3.29,1.5-9l.1-8h18.77v23.8h-7.28V46.27h-4.86l0,2.86c-.07,5.81-.89,9.79-2.42,12a6.52,6.52,0,0,1-6,2.95,6.78,6.78,0,0,1-3.33-.61Z"></path> <path class="cls-3" d="M201.37,63.78V40h7.28v6.87H212a10.39,10.39,0,0,1,7.18,2.42,8.17,8.17,0,0,1,0,12.17A10.55,10.55,0,0,1,212,63.78Zm7.28-11.22V57.7h2.92c1.77,0,3-1,3-2.52a2.7,2.7,0,0,0-3-2.62Z"></path> <path class="cls-3" d="M229,60.82a11.47,11.47,0,0,1-3.88-8.94A11.42,11.42,0,0,1,229,43a13.92,13.92,0,0,1,9.72-3.47,13.15,13.15,0,0,1,6,1.26v6.9a12,12,0,0,0-5.82-1.57,6.27,6.27,0,0,0-4.48,1.67,5.67,5.67,0,0,0,.06,8.29,6.94,6.94,0,0,0,4.7,1.6A10,10,0,0,0,245,56v7A16,16,0,0,1,229,60.82Z"></path> <path class="cls-3" d="M257.2,63.78h-7.31V40h7.31v8.88L263.9,40h8.6L264.07,51,274.2,63.78h-9l-8-10.26Z"></path> <path class="cls-3" d="M283.45,63.78h-6.22V40h7.07V51.82L293.48,40h6v23.8h-7V52.05Z"></path> <path class="cls-3" d="M311,63.78H304.8V40h7.07V51.82L321.05,40h6v23.8h-7V52.05Zm.27-26.58a5.88,5.88,0,0,1-1.93-4.52H314a1.72,1.72,0,0,0,2,1.83,1.7,1.7,0,0,0,1.94-1.83h4.69a5.89,5.89,0,0,1-1.9,4.52,7.58,7.58,0,0,1-9.39,0Z"></path> <path class="cls-3" d="M24.44,97.78h-7.3V74h7.3v8.88L31.14,74h8.6L31.31,85,41.44,97.78h-9l-8-10.26Z"></path> <path class="cls-3" d="M47.39,77.15a12.43,12.43,0,0,1,9.15-3.64,12.32,12.32,0,0,1,9.11,3.64,12.43,12.43,0,0,1,0,17.5,12.27,12.27,0,0,1-9.11,3.57,12.44,12.44,0,0,1-9.15-3.6,12.4,12.4,0,0,1,0-17.47Zm9.15,14.44A4.94,4.94,0,0,0,60.31,90a5.88,5.88,0,0,0,1.5-4.12,5.75,5.75,0,0,0-1.5-4.08,5.17,5.17,0,0,0-7.54,0,5.75,5.75,0,0,0-1.5,4.08A5.88,5.88,0,0,0,52.77,90,4.94,4.94,0,0,0,56.54,91.59Z"></path> <path class="cls-3" d="M81,97.78H73.91V74h7.25l5.2,8.47L91.59,74H98.8v23.8h-7V84.46l-3.37,5.67H84.49L81,84.46Z"></path> <path class="cls-3" d="M110.33,97.78h-6.22V74h7.07V85.82L120.36,74h6v23.8h-7V86.05Z"></path> <path class="cls-3" d="M130.63,80.27V74h20.9v6.29H144.7V97.78h-7.31V80.27Z"></path> <path class="cls-3" d="M174.65,97.78H155.79V74h18.66v6.29H163.1v2.11H172v5.78h-8.9v3.33h11.55Z"></path> <path class="cls-3" d="M178.06,80.27V74H199v6.29h-6.83V97.78h-7.31V80.27Z"></path> </g> </g> </svg> 