<?xml version="1.0" encoding="UTF-8"?> <svg xmlns="http://www.w3.org/2000/svg" xmlns:xlink="http://www.w3.org/1999/xlink" viewBox="0 0 756.83 629.58"> <defs> <style>.cls-1{fill:url(#Безымянный_градиент_3);}.cls-2{fill:#0f9363;}.cls-3{fill:#46bc64;}.cls-4{fill:#0c7552;}.cls-5,.cls-7{fill:#0d6042;}.cls-5{opacity:0.38;}.cls-6{fill:#3aa559;}.cls-8{fill:#736357;}.cls-9{fill:#a67c52;}.cls-10{fill:#128450;}.cls-11{fill:#198e4d;}.cls-12{fill:#209951;}.cls-13{fill:#f4f4f4;}.cls-14{fill:url(#Безымянный_градиент_26);}.cls-15{fill:#ccc;}.cls-16{fill:url(#Безымянный_градиент_26-2);}.cls-17{fill:url(#Безымянный_градиент_26-3);}.cls-18{fill:#ff6464;}.cls-19{fill:url(#Безымянный_градиент_26-4);}.cls-20{fill:url(#Безымянный_градиент_26-5);}.cls-21{fill:url(#Безымянный_градиент_26-6);}.cls-22{fill:url(#Безымянный_градиент_26-7);}.cls-23{fill:url(#Безымянный_градиент_38);}.cls-24{fill:url(#Безымянный_градиент_26-8);}.cls-25{fill:url(#Безымянный_градиент_26-9);}.cls-26{fill:url(#Безымянный_градиент_26-10);}.cls-27{fill:url(#Безымянный_градиент_26-11);}.cls-28{fill:url(#Безымянный_градиент_26-12);}.cls-29{fill:url(#Безымянный_градиент_26-13);}.cls-30{fill:url(#Безымянный_градиент_26-14);}.cls-31{fill:#b0d3d8;}.cls-32{fill:url(#Безымянный_градиент_38-2);}.cls-33{fill:url(#Безымянный_градиент_26-15);}.cls-34{fill:url(#Безымянный_градиент_26-16);}.cls-35{fill:url(#Безымянный_градиент_26-17);}.cls-36{fill:url(#Безымянный_градиент_26-18);}.cls-37{fill:url(#Безымянный_градиент_26-19);}.cls-38{fill:url(#Безымянный_градиент_26-20);}.cls-39{fill:url(#Безымянный_градиент_26-21);}.cls-40{fill:url(#Безымянный_градиент_26-22);}.cls-41{fill:url(#Безымянный_градиент_26-23);}.cls-42{fill:url(#Безымянный_градиент_26-24);}.cls-43{fill:url(#Безымянный_градиент_26-25);}.cls-44{fill:url(#Безымянный_градиент_26-26);}.cls-45{fill:url(#Безымянный_градиент_26-27);}.cls-46{fill:url(#Безымянный_градиент_26-28);}.cls-47{fill:url(#Безымянный_градиент_26-29);}.cls-48{fill:url(#Безымянный_градиент_26-30);}.cls-49{fill:url(#Безымянный_градиент_26-31);}.cls-50{fill:url(#Безымянный_градиент_26-32);}.cls-51{fill:url(#Безымянный_градиент_26-33);}.cls-52{fill:url(#Безымянный_градиент_26-34);}.cls-53{fill:url(#Безымянный_градиент_26-35);}.cls-54{fill:url(#Безымянный_градиент_26-36);}.cls-55{fill:url(#Безымянный_градиент_26-37);}.cls-56{fill:url(#Безымянный_градиент_26-38);}.cls-57{fill:url(#Безымянный_градиент_26-39);}.cls-58{fill:url(#Безымянный_градиент_26-40);}.cls-59{fill:url(#Безымянный_градиент_26-41);}.cls-60{fill:url(#Безымянный_градиент_26-42);}.cls-61{fill:url(#Безымянный_градиент_26-43);}.cls-62{fill:url(#Безымянный_градиент_26-44);}.cls-63{fill:url(#Безымянный_градиент_26-45);}.cls-64{fill:#fcc142;}.cls-65{fill:#ea990a;}.cls-66{fill:#bb711b;}.cls-67{fill:#f8c79f;}.cls-68{fill:#e03f3f;}.cls-69{fill:#b46254;}.cls-70{fill:#b46154;}.cls-71{fill:#9e5e4f;}.cls-72{fill:#995e4e;}.cls-73{fill:#d18920;}.cls-74{fill:#9a5f4f;}.cls-75{fill:#b36153;}.cls-76{fill:#cb8224;}.cls-77{fill:#29abe2;}.cls-78{fill:#c7892d;}.cls-79{fill:#e8b693;}.cls-80{fill:#a05e1a;}.cls-81{fill:#b47f32;}.cls-82{fill:#c97f09;}.cls-83{fill:#f8c69f;}.cls-84{fill:#e4ac87;}.cls-85{fill:#e8b692;}.cls-86{fill:#e8b491;}.cls-87{fill:#e8b691;}.cls-88{fill:#eab38e;}.cls-89{fill:#cf8b47;}.cls-90{fill:#e4634d;}.cls-91{fill:#ffca5f;}.cls-92{fill:#008dab;}.cls-93{fill:#3e281a;}.cls-94{fill:#b46255;}.cls-95{fill:#b16253;}.cls-96{fill:#985d4d;}.cls-97{fill:#9e5f50;}.cls-98{fill:#b46256;}.cls-99{fill:#ff8571;}.cls-100{fill:#334da0;}.cls-101{fill:#2e3192;}.cls-102{fill:#c0dee2;}.cls-103{fill:#a6a6e7;}.cls-104{fill:#a6a5e7;}.cls-105{fill:#8282cb;}.cls-106{fill:#5f5f96;}.cls-107{fill:#c88a2e;}.cls-108{fill:#cbcbfa;}.cls-109{fill:#65659b;}.cls-110{fill:#53538e;}.cls-111{fill:#b96658;}.cls-112{fill:#3e2381;}.cls-113{fill:#daf0f2;}.cls-114{fill:#e4ad87;}.cls-115{fill:#e5ae89;}.cls-116{fill:#c6934a;}.cls-117{fill:#70b6b7;}.cls-118{fill:#1f1048;}</style> <linearGradient id="Безымянный_градиент_3" x1="275.02" y1="245.8" x2="469.88" y2="583.3" gradientUnits="userSpaceOnUse"> <stop offset="0" stop-color="#2e3192"></stop> <stop offset="1" stop-color="#29abe2"></stop> </linearGradient> <linearGradient id="Безымянный_градиент_26" x1="330.8" y1="392" x2="481.09" y2="392" gradientUnits="userSpaceOnUse"> <stop offset="0" stop-color="#191c78"></stop> <stop offset="1" stop-color="#6165d9"></stop> </linearGradient> <linearGradient id="Безымянный_градиент_26-2" x1="367.94" y1="314.58" x2="320.88" y2="387.78" xlink:href="#Безымянный_градиент_26"></linearGradient> <linearGradient id="Безымянный_градиент_26-3" x1="399.43" y1="334.82" x2="352.37" y2="408.02" xlink:href="#Безымянный_градиент_26"></linearGradient> <linearGradient id="Безымянный_градиент_26-4" x1="462.15" y1="375.14" x2="415.09" y2="448.34" xlink:href="#Безымянный_градиент_26"></linearGradient> <linearGradient id="Безымянный_градиент_26-5" x1="474.49" y1="383.08" x2="427.43" y2="456.28" xlink:href="#Безымянный_градиент_26"></linearGradient> <linearGradient id="Безымянный_градиент_26-6" x1="392.62" y1="330.45" x2="345.57" y2="403.65" xlink:href="#Безымянный_градиент_26"></linearGradient> <linearGradient id="Безымянный_градиент_26-7" x1="455.6" y1="370.93" x2="408.54" y2="444.14" xlink:href="#Безымянный_градиент_26"></linearGradient> <linearGradient id="Безымянный_градиент_38" x1="481.44" y1="392" x2="631.73" y2="392" gradientUnits="userSpaceOnUse"> <stop offset="0" stop-color="#008dab"></stop> <stop offset="1" stop-color="#abd9e3"></stop> </linearGradient> <linearGradient id="Безымянный_градиент_26-8" x1="516.34" y1="321.4" x2="501.97" y2="433.82" xlink:href="#Безымянный_градиент_26"></linearGradient> <linearGradient id="Безымянный_градиент_26-9" x1="575.49" y1="328.96" x2="561.11" y2="441.38" xlink:href="#Безымянный_градиент_26"></linearGradient> <linearGradient id="Безымянный_градиент_26-10" x1="549.33" y1="325.62" x2="534.95" y2="438.03" xlink:href="#Безымянный_градиент_26"></linearGradient> <linearGradient id="Безымянный_градиент_26-11" x1="608.41" y1="333.17" x2="594.03" y2="445.59" xlink:href="#Безымянный_градиент_26"></linearGradient> <linearGradient id="Безымянный_градиент_26-12" x1="523.17" y1="322.27" x2="508.8" y2="434.69" xlink:href="#Безымянный_градиент_26"></linearGradient> <linearGradient id="Безымянный_градиент_26-13" x1="552.75" y1="326.05" x2="538.37" y2="438.47" xlink:href="#Безымянный_градиент_26"></linearGradient> <linearGradient id="Безымянный_градиент_26-14" x1="611.83" y1="333.61" x2="597.45" y2="446.03" xlink:href="#Безымянный_градиент_26"></linearGradient> <linearGradient id="Безымянный_градиент_38-2" x1="480.59" y1="210.18" x2="594.79" y2="210.18" xlink:href="#Безымянный_градиент_38"></linearGradient> <linearGradient id="Безымянный_градиент_26-15" x1="539.41" y1="127.98" x2="535.8" y2="353.69" xlink:href="#Безымянный_градиент_26"></linearGradient> <linearGradient id="Безымянный_градиент_26-16" x1="510.37" y1="127.52" x2="506.76" y2="353.22" xlink:href="#Безымянный_градиент_26"></linearGradient> <linearGradient id="Безымянный_градиент_26-17" x1="569.29" y1="128.46" x2="565.67" y2="354.16" xlink:href="#Безымянный_градиент_26"></linearGradient> <linearGradient id="Безымянный_градиент_26-18" x1="510.79" y1="127.52" x2="507.18" y2="353.23" xlink:href="#Безымянный_градиент_26"></linearGradient> <linearGradient id="Безымянный_градиент_26-19" x1="540.25" y1="128" x2="536.64" y2="353.7" xlink:href="#Безымянный_градиент_26"></linearGradient> <linearGradient id="Безымянный_градиент_26-20" x1="569.71" y1="128.47" x2="566.09" y2="354.17" xlink:href="#Безымянный_градиент_26"></linearGradient> <linearGradient id="Безымянный_градиент_26-21" x1="509.11" y1="127.5" x2="505.5" y2="353.2" xlink:href="#Безымянный_градиент_26"></linearGradient> <linearGradient id="Безымянный_градиент_26-22" x1="568.03" y1="128.44" x2="564.42" y2="354.14" xlink:href="#Безымянный_градиент_26"></linearGradient> <linearGradient id="Безымянный_градиент_26-23" x1="509.53" y1="127.5" x2="505.92" y2="353.21" xlink:href="#Безымянный_градиент_26"></linearGradient> <linearGradient id="Безымянный_градиент_26-24" x1="538.99" y1="127.97" x2="535.38" y2="353.68" xlink:href="#Безымянный_градиент_26"></linearGradient> <linearGradient id="Безымянный_градиент_26-25" x1="568.45" y1="128.45" x2="564.84" y2="354.15" xlink:href="#Безымянный_градиент_26"></linearGradient> <linearGradient id="Безымянный_градиент_26-26" x1="508.27" y1="127.48" x2="504.66" y2="353.19" xlink:href="#Безымянный_градиент_26"></linearGradient> <linearGradient id="Безымянный_градиент_26-27" x1="537.73" y1="127.95" x2="534.12" y2="353.66" xlink:href="#Безымянный_градиент_26"></linearGradient> <linearGradient id="Безымянный_градиент_26-28" x1="538.15" y1="127.96" x2="534.54" y2="353.67" xlink:href="#Безымянный_градиент_26"></linearGradient> <linearGradient id="Безымянный_градиент_26-29" x1="567.61" y1="128.43" x2="564" y2="354.14" xlink:href="#Безымянный_градиент_26"></linearGradient> <linearGradient id="Безымянный_градиент_26-30" x1="366.4" y1="210.18" x2="480.59" y2="210.18" xlink:href="#Безымянный_градиент_26"></linearGradient> <linearGradient id="Безымянный_градиент_26-31" x1="455.25" y1="126.64" x2="451.64" y2="352.34" xlink:href="#Безымянный_градиент_26"></linearGradient> <linearGradient id="Безымянный_градиент_26-32" x1="395.23" y1="125.67" x2="391.62" y2="351.38" xlink:href="#Безымянный_градиент_26"></linearGradient> <linearGradient id="Безымянный_градиент_26-33" x1="425.66" y1="126.16" x2="422.05" y2="351.87" xlink:href="#Безымянный_градиент_26"></linearGradient> <linearGradient id="Безымянный_градиент_26-34" x1="395.65" y1="125.68" x2="392.04" y2="351.39" xlink:href="#Безымянный_градиент_26"></linearGradient> <linearGradient id="Безымянный_градиент_26-35" x1="456.09" y1="126.65" x2="452.48" y2="352.35" xlink:href="#Безымянный_градиент_26"></linearGradient> <linearGradient id="Безымянный_градиент_26-36" x1="426.08" y1="126.17" x2="422.47" y2="351.87" xlink:href="#Безымянный_градиент_26"></linearGradient> <linearGradient id="Безымянный_градиент_26-37" x1="454.41" y1="126.62" x2="450.8" y2="352.33" xlink:href="#Безымянный_градиент_26"></linearGradient> <linearGradient id="Безымянный_градиент_26-38" x1="424.4" y1="126.14" x2="420.79" y2="351.85" xlink:href="#Безымянный_градиент_26"></linearGradient> <linearGradient id="Безымянный_градиент_26-39" x1="424.82" y1="126.15" x2="421.21" y2="351.85" xlink:href="#Безымянный_градиент_26"></linearGradient> <linearGradient id="Безымянный_градиент_26-40" x1="394.82" y1="125.67" x2="391.2" y2="351.37" xlink:href="#Безымянный_градиент_26"></linearGradient> <linearGradient id="Безымянный_градиент_26-41" x1="453.57" y1="126.61" x2="449.96" y2="352.31" xlink:href="#Безымянный_градиент_26"></linearGradient> <linearGradient id="Безымянный_градиент_26-42" x1="423.56" y1="126.13" x2="419.95" y2="351.83" xlink:href="#Безымянный_градиент_26"></linearGradient> <linearGradient id="Безымянный_градиент_26-43" x1="393.56" y1="125.65" x2="389.95" y2="351.35" xlink:href="#Безымянный_градиент_26"></linearGradient> <linearGradient id="Безымянный_градиент_26-44" x1="453.99" y1="126.61" x2="450.38" y2="352.32" xlink:href="#Безымянный_градиент_26"></linearGradient> <linearGradient id="Безымянный_градиент_26-45" x1="393.98" y1="125.65" x2="390.36" y2="351.36" xlink:href="#Безымянный_градиент_26"></linearGradient> </defs> <title>Род комитет</title> <g id="Слой_2" data-name="Слой 2"> <g id="Слой_12" data-name="Слой 12"> <path class="cls-1" d="M12.17,431.48l331,191.08c16.23,9.37,42.54,9.37,58.76,0l330.86-191c16.22-9.37,16.22-24.56,0-33.93l-331-191.07c-16.22-9.37-42.53-9.37-58.76,0l-330.85,191C-4.06,406.92-4.06,422.11,12.17,431.48Z"></path> <path class="cls-2" d="M12.17,414.52l331,191.08c16.23,9.36,42.54,9.36,58.76,0l330.86-191c16.22-9.37,16.22-24.56,0-33.93l-331-191.07c-16.22-9.37-42.53-9.37-58.76,0l-330.85,191C-4.06,390-4.06,405.15,12.17,414.52Z"></path> <g id="елка"> <polygon class="cls-3" points="309.74 145.75 377.82 283.75 301.79 324.52 309.74 145.75"></polygon> <polygon class="cls-4" points="309.74 145.75 301.79 324.52 265.16 270.43 309.74 145.75"></polygon> <polygon class="cls-5" points="303.16 294.6 358.28 244.09 346.41 220.21 305.28 245.38 303.16 294.6"></polygon> <polygon class="cls-4" points="322.42 96.93 269.18 223.01 329.68 260.26 322.42 96.93"></polygon> <polygon class="cls-6" points="322.42 96.93 329.68 260.26 354.18 201.88 322.42 96.93"></polygon> <polygon class="cls-5" points="326 176.89 347.06 178.72 339.45 153.46 326 176.89"></polygon> <polygon class="cls-7" points="269.18 223.01 326 176.89 295.78 160 269.18 223.01"></polygon> <polygon class="cls-4" points="320.39 47.39 277.22 149.6 331.18 179.8 320.39 47.39"></polygon> <polygon class="cls-6" points="320.39 47.39 331.18 179.8 346.14 132.47 320.39 47.39"></polygon> <polygon class="cls-7" points="265.16 270.43 305.28 245.38 279.8 229.56 265.16 270.43"></polygon> </g> <polygon class="cls-8" points="205.74 202.69 234.01 262.05 217.05 297.86 206.68 336.49 230.24 336.49 226.94 299.27 239.66 262.52 208.1 202.22 205.74 202.69"></polygon> <polygon class="cls-9" points="230.24 336.49 236.68 323.61 232.28 297.23 242.33 260.8 209.04 201.75 208.1 202.22 239.66 262.52 226.31 299.43 230.24 336.49"></polygon> <polyline class="cls-10" points="196.5 142.3 152.4 199.31 218.01 216.52 238.45 168.11 196.5 142.3"></polyline> <polyline class="cls-3" points="273.95 149.83 298.87 182.99 266.6 210.96 238.45 168.11 273.95 149.83"></polyline> <polyline class="cls-6" points="266.6 210.96 248.67 251.84 217.12 238.21 218.01 216.52 266.6 210.96"></polyline> <polygon class="cls-6" points="298.87 182.99 286.32 233.19 266.6 210.96 298.87 182.99"></polygon> <polygon class="cls-11" points="286.32 233.19 248.67 251.84 266.6 210.96 286.32 233.19"></polygon> <polyline class="cls-4" points="169.07 239.65 248.67 251.84 217.12 238.21 169.07 239.65"></polyline> <polygon class="cls-11" points="232.38 127.53 216.91 164.16 253.69 159.96 232.38 127.53"></polygon> <polygon class="cls-10" points="167.25 151.14 179.87 181.67 216.24 180.58 216.91 164.16 167.25 151.14"></polygon> <polygon class="cls-11" points="238.45 168.11 218.01 216.52 266.6 210.96 238.45 168.11"></polygon> <polygon class="cls-11" points="152.4 199.31 169.07 239.65 217.12 238.21 218.01 216.52 152.4 199.31"></polygon> <polyline class="cls-4" points="200.63 107.99 167.25 151.14 216.91 164.16 232.38 127.53 200.63 107.99"></polyline> <polygon class="cls-6" points="274.85 151.41 291.13 172.58 250.16 185.88 274.85 151.41"></polygon> <polyline class="cls-6" points="259.25 113.69 278.11 138.79 253.69 159.96 232.38 127.53 259.25 113.69"></polyline> <polyline class="cls-6" points="253.69 159.96 240.12 190.9 216.24 180.58 216.91 164.16 253.69 159.96"></polyline> <polygon class="cls-3" points="278.11 138.79 268.61 176.78 253.69 159.96 278.11 138.79"></polygon> <polygon class="cls-12" points="268.61 176.78 240.12 190.9 253.69 159.96 268.61 176.78"></polygon> <polyline class="cls-4" points="179.87 181.67 240.12 190.9 216.24 180.58 179.87 181.67"></polyline> <polygon class="cls-3" points="200.63 107.99 232.38 127.53 259.25 113.69 200.63 107.99"></polygon> <polygon class="cls-8" points="676.63 284.58 700.97 335.7 686.36 366.54 677.44 399.81 697.72 399.81 694.88 367.75 705.84 336.11 678.65 284.17 676.63 284.58"></polygon> <polygon class="cls-9" points="697.72 399.81 703.27 388.72 699.48 366 708.14 334.62 679.47 283.76 678.65 284.17 705.84 336.11 694.34 367.89 697.72 399.81"></polygon> <polyline class="cls-10" points="668.66 232.56 630.68 281.66 687.19 296.48 704.79 254.79 668.66 232.56"></polyline> <polyline class="cls-3" points="735.37 239.05 756.83 267.61 729.04 291.7 704.79 254.79 735.37 239.05"></polyline> <polyline class="cls-6" points="729.04 291.7 713.6 326.9 686.42 315.17 687.19 296.48 729.04 291.7"></polyline> <polygon class="cls-6" points="756.83 267.61 746.02 310.84 729.04 291.7 756.83 267.61"></polygon> <polygon class="cls-11" points="746.02 310.84 713.6 326.9 729.04 291.7 746.02 310.84"></polygon> <polyline class="cls-4" points="645.04 316.4 713.6 326.9 686.42 315.17 645.04 316.4"></polyline> <polygon class="cls-11" points="699.57 219.84 686.25 251.4 717.91 247.77 699.57 219.84"></polygon> <polygon class="cls-10" points="643.48 240.18 654.34 266.47 685.66 265.54 686.25 251.4 643.48 240.18"></polygon> <polygon class="cls-11" points="704.79 254.79 687.19 296.48 729.04 291.7 704.79 254.79"></polygon> <polygon class="cls-11" points="630.68 281.66 645.04 316.4 686.42 315.17 687.19 296.48 630.68 281.66"></polygon> <polyline class="cls-4" points="672.22 203.01 643.48 240.18 686.25 251.4 699.57 219.84 672.22 203.01"></polyline> <polygon class="cls-6" points="736.14 240.41 750.17 258.64 714.88 270.09 736.14 240.41"></polygon> <polyline class="cls-6" points="722.71 207.92 738.95 229.54 717.91 247.77 699.57 219.84 722.71 207.92"></polyline> <polyline class="cls-6" points="717.91 247.77 706.23 274.42 685.66 265.54 686.25 251.4 717.91 247.77"></polyline> <polygon class="cls-3" points="738.95 229.54 730.77 262.26 717.91 247.77 738.95 229.54"></polygon> <polygon class="cls-12" points="730.77 262.26 706.23 274.42 717.91 247.77 730.77 262.26"></polygon> <polyline class="cls-4" points="654.34 266.47 706.23 274.42 685.66 265.54 654.34 266.47"></polyline> <polygon class="cls-3" points="672.22 203.01 699.57 219.84 722.71 207.92 672.22 203.01"></polygon> <polygon class="cls-13" points="481.4 374.68 331.11 287.91 481.39 201.14 631.68 287.91 481.4 374.68"></polygon> <polygon class="cls-14" points="481.09 496.3 330.8 409.53 330.8 287.69 481.09 374.46 481.09 496.3"></polygon> <polygon class="cls-15" points="481.09 496.3 330.8 409.53 330.8 392.77 481.09 479.54 481.09 496.3"></polygon> <polygon class="cls-16" points="367.58 346.66 346.95 334.75 346.95 315.7 367.58 327.61 367.58 346.66"></polygon> <polygon class="cls-17" points="400.03 365.4 379.41 353.49 379.41 334.44 400.03 346.35 400.03 365.4"></polygon> <polygon class="cls-18" points="432.49 384.13 411.86 372.23 411.86 353.18 432.49 365.08 432.49 384.13"></polygon> <polygon class="cls-19" points="464.94 402.32 444.32 390.41 444.32 371.36 464.94 383.27 464.94 402.32"></polygon> <polygon class="cls-18" points="367.58 373.8 346.95 361.89 346.95 342.84 367.58 354.75 367.58 373.8"></polygon> <polygon class="cls-18" points="400.03 392.53 379.41 380.63 379.41 361.58 400.03 373.48 400.03 392.53"></polygon> <polygon class="cls-18" points="432.49 411.27 411.86 399.36 411.86 380.31 432.49 392.22 432.49 411.27"></polygon> <polygon class="cls-20" points="464.94 429.45 444.32 417.55 444.32 398.5 464.94 410.4 464.94 429.45"></polygon> <polygon class="cls-21" points="367.58 400.93 346.95 389.02 346.95 369.97 367.58 381.88 367.58 400.93"></polygon> <polygon class="cls-18" points="400.03 419.67 379.41 407.76 379.41 388.71 400.03 400.62 400.03 419.67"></polygon> <polygon class="cls-22" points="432.49 438.41 411.86 426.5 411.86 407.45 432.49 419.36 432.49 438.41"></polygon> <polygon class="cls-18" points="464.94 456.59 444.32 444.68 444.32 425.63 464.94 437.54 464.94 456.59"></polygon> <polygon class="cls-23" points="631.73 409.53 481.44 496.3 481.44 374.46 631.73 287.69 631.73 409.53"></polygon> <polygon class="cls-13" points="631.73 409.53 481.44 496.3 481.44 479.54 631.73 392.77 631.73 409.53"></polygon> <polygon class="cls-24" points="518.22 390.96 497.59 402.87 497.59 383.82 518.22 371.91 518.22 390.96"></polygon> <polygon class="cls-18" points="550.67 372.23 530.04 384.13 530.04 365.08 550.67 353.18 550.67 372.23"></polygon> <polygon class="cls-25" points="583.12 353.49 562.5 365.4 562.5 346.35 583.12 334.44 583.12 353.49"></polygon> <polygon class="cls-18" points="615.58 334.2 594.95 346.11 594.95 327.06 615.58 315.15 615.58 334.2"></polygon> <polygon class="cls-18" points="518.22 418.1 497.59 430.01 497.59 410.96 518.22 399.05 518.22 418.1"></polygon> <polygon class="cls-26" points="550.67 399.36 530.04 411.27 530.04 392.22 550.67 380.31 550.67 399.36"></polygon> <polygon class="cls-18" points="583.12 380.63 562.5 392.53 562.5 373.48 583.12 361.58 583.12 380.63"></polygon> <polygon class="cls-27" points="615.58 361.33 594.95 373.24 594.95 354.19 615.58 342.29 615.58 361.33"></polygon> <polygon class="cls-28" points="518.22 445.24 497.59 457.14 497.59 438.09 518.22 426.19 518.22 445.24"></polygon> <polygon class="cls-29" points="550.67 426.5 530.04 438.41 530.04 419.36 550.67 407.45 550.67 426.5"></polygon> <polygon class="cls-18" points="583.12 407.76 562.5 419.67 562.5 400.62 583.12 388.71 583.12 407.76"></polygon> <polygon class="cls-30" points="615.58 388.47 594.95 400.38 594.95 381.33 615.58 369.42 615.58 388.47"></polygon> <polygon class="cls-31" points="480.59 134 364.54 67 480.59 0 596.64 67 480.59 134"></polygon> <polygon class="cls-32" points="594.79 286.35 480.6 352.29 480.6 134 594.79 68.08 594.79 286.35"></polygon> <polygon class="cls-18" points="517.4 256.11 498.5 267.02 498.5 248.69 517.4 237.78 517.4 256.11"></polygon> <polygon class="cls-33" points="547.14 238.94 528.24 249.85 528.24 231.52 547.14 220.6 547.14 238.94"></polygon> <polygon class="cls-18" points="576.88 221.77 557.98 232.68 557.98 214.35 576.88 203.44 576.88 221.77"></polygon> <polygon class="cls-34" points="517.4 282.34 498.5 293.25 498.5 274.92 517.4 264 517.4 282.34"></polygon> <polygon class="cls-18" points="547.14 265.17 528.24 276.08 528.24 257.75 547.14 246.83 547.14 265.17"></polygon> <polygon class="cls-35" points="576.88 248 557.98 258.91 557.98 240.57 576.88 229.66 576.88 248"></polygon> <polygon class="cls-36" points="517.4 308.57 498.5 319.48 498.5 301.14 517.4 290.23 517.4 308.57"></polygon> <polygon class="cls-37" points="547.14 291.4 528.24 302.31 528.24 283.97 547.14 273.06 547.14 291.4"></polygon> <polygon class="cls-38" points="576.88 274.23 557.98 285.14 557.98 266.8 576.88 255.89 576.88 274.23"></polygon> <polygon class="cls-39" points="517.4 203.66 498.5 214.57 498.5 196.23 517.4 185.32 517.4 203.66"></polygon> <polygon class="cls-18" points="547.14 186.49 528.24 197.4 528.24 179.06 547.14 168.15 547.14 186.49"></polygon> <polygon class="cls-40" points="576.88 169.32 557.98 180.23 557.98 161.89 576.88 150.98 576.88 169.32"></polygon> <polygon class="cls-41" points="517.4 229.89 498.5 240.8 498.5 222.46 517.4 211.55 517.4 229.89"></polygon> <polygon class="cls-42" points="547.14 212.72 528.24 223.63 528.24 205.29 547.14 194.38 547.14 212.72"></polygon> <polygon class="cls-43" points="576.88 195.54 557.98 206.46 557.98 188.12 576.88 177.21 576.88 195.54"></polygon> <polygon class="cls-44" points="517.4 151.2 498.5 162.11 498.5 143.78 517.4 132.87 517.4 151.2"></polygon> <polygon class="cls-45" points="547.14 134.03 528.24 144.94 528.24 126.61 547.14 115.69 547.14 134.03"></polygon> <polygon class="cls-18" points="576.88 116.86 557.98 127.77 557.98 109.44 576.88 98.52 576.88 116.86"></polygon> <polygon class="cls-18" points="517.4 177.43 498.5 188.34 498.5 170 517.4 159.09 517.4 177.43"></polygon> <polygon class="cls-46" points="547.14 160.26 528.24 171.17 528.24 152.83 547.14 141.92 547.14 160.26"></polygon> <polygon class="cls-47" points="576.88 143.09 557.98 154 557.98 135.66 576.88 124.75 576.88 143.09"></polygon> <polygon class="cls-48" points="366.4 286.35 480.59 352.28 480.59 134 366.4 68.07 366.4 286.35"></polygon> <polygon class="cls-49" points="443.79 256.11 462.69 267.02 462.69 248.69 443.79 237.77 443.79 256.11"></polygon> <polygon class="cls-18" points="414.05 238.94 432.95 249.85 432.95 231.51 414.05 220.6 414.05 238.94"></polygon> <polygon class="cls-50" points="384.31 221.77 403.21 232.68 403.21 214.34 384.31 203.43 384.31 221.77"></polygon> <polygon class="cls-18" points="443.79 282.34 462.69 293.25 462.69 274.91 443.79 264 443.79 282.34"></polygon> <polygon class="cls-51" points="414.05 265.17 432.95 276.08 432.95 257.74 414.05 246.83 414.05 265.17"></polygon> <polygon class="cls-52" points="384.31 248 403.21 258.91 403.21 240.57 384.31 229.66 384.31 248"></polygon> <polygon class="cls-53" points="443.79 308.57 462.69 319.48 462.69 301.14 443.79 290.23 443.79 308.57"></polygon> <polygon class="cls-54" points="414.05 291.4 432.95 302.31 432.95 283.97 414.05 273.06 414.05 291.4"></polygon> <polygon class="cls-18" points="384.31 274.23 403.21 285.14 403.21 266.8 384.31 255.89 384.31 274.23"></polygon> <polygon class="cls-55" points="443.79 203.66 462.69 214.57 462.69 196.23 443.79 185.32 443.79 203.66"></polygon> <polygon class="cls-56" points="414.05 186.49 432.95 197.4 432.95 179.06 414.05 168.15 414.05 186.49"></polygon> <polygon class="cls-18" points="384.31 169.31 403.21 180.22 403.21 161.89 384.31 150.98 384.31 169.31"></polygon> <polygon class="cls-18" points="443.79 229.88 462.69 240.79 462.69 222.46 443.79 211.55 443.79 229.88"></polygon> <polygon class="cls-57" points="414.05 212.71 432.95 223.62 432.95 205.29 414.05 194.38 414.05 212.71"></polygon> <polygon class="cls-58" points="384.31 195.54 403.21 206.45 403.21 188.12 384.31 177.21 384.31 195.54"></polygon> <polygon class="cls-59" points="443.79 151.2 462.69 162.11 462.69 143.77 443.79 132.86 443.79 151.2"></polygon> <polygon class="cls-60" points="414.05 134.03 432.95 144.94 432.95 126.6 414.05 115.69 414.05 134.03"></polygon> <polygon class="cls-61" points="384.31 116.86 403.21 127.77 403.21 109.43 384.31 98.52 384.31 116.86"></polygon> <polygon class="cls-62" points="443.79 177.43 462.69 188.34 462.69 170 443.79 159.09 443.79 177.43"></polygon> <polygon class="cls-18" points="414.05 160.26 432.95 171.17 432.95 152.83 414.05 141.92 414.05 160.26"></polygon> <polygon class="cls-63" points="384.31 143.09 403.21 154 403.21 135.66 384.31 124.75 384.31 143.09"></polygon> <g id="елка-2" data-name="елка"> <polygon class="cls-6" points="373.6 420.14 426.98 528.35 367.37 560.31 373.6 420.14"></polygon> <polygon class="cls-4" points="373.6 420.14 367.37 560.31 338.64 517.9 373.6 420.14"></polygon> <polygon class="cls-5" points="368.44 536.85 411.66 497.25 402.35 478.53 370.1 498.26 368.44 536.85"></polygon> <polygon class="cls-4" points="383.54 381.86 341.79 480.72 389.24 509.93 383.54 381.86"></polygon> <polygon class="cls-6" points="383.54 381.86 389.24 509.93 408.45 464.15 383.54 381.86"></polygon> <polygon class="cls-5" points="386.35 444.56 402.86 445.99 396.9 426.19 386.35 444.56"></polygon> <polygon class="cls-7" points="341.79 480.72 386.35 444.56 362.65 431.31 341.79 480.72"></polygon> <polygon class="cls-4" points="381.95 343.02 348.1 423.16 390.41 446.84 381.95 343.02"></polygon> <polygon class="cls-6" points="381.95 343.02 390.41 446.84 402.14 409.73 381.95 343.02"></polygon> <polygon class="cls-7" points="338.64 517.9 370.1 498.26 350.12 485.85 338.64 517.9"></polygon> </g> </g> <g id="Слой_4" data-name="Слой 4"> <path class="cls-64" d="M279.76,423.76c-4.43-2.54-8.88-5-13.29-7.61-6.15-3.58-12.27-7.21-18.4-10.81.05-5,2.42-8.52,6.74-10.83a37.23,37.23,0,0,1,4.9-2.23,18,18,0,0,0,4.93-2.84,7.45,7.45,0,0,0,3.11-7.49,4,4,0,0,1,.16-2.64c.67-.49,1.21,0,1.74.27,7,4.1,14.07,8.11,21.11,12.15,5.77,3.3,11.52,6.63,17.28,9.94,1,.58,2.47.81,2.69,2.36-1.53,1.51-3.56,2.21-5.36,3.29-4.62,2.77-9.2,5.62-13.89,8.29-3,1.71-6,3.39-8.92,5.15C281.31,421.51,280.15,422.26,279.76,423.76Z"></path> <path class="cls-65" d="M310.58,404c-.53-1.15-1.72-1.49-2.67-2.05-6.39-3.75-12.83-7.41-19.26-11.1l-19.86-11.37a4.37,4.37,0,0,0-.75-.23,1.08,1.08,0,0,1-.37-.7,4.43,4.43,0,0,1,1.72-3.91c4-3.63,5-8.37,5.2-13.46a96.52,96.52,0,0,1,1.27-12.7.78.78,0,0,1,.48-.23c1.69.25,2.92,1.42,4.33,2.23q13.65,7.75,27.24,15.61a7,7,0,0,1,3.77,6.8c-.22,9.3-.12,18.6-.14,24.9,0-3.91,0-10.81,0-17.72,0-.6-.4-1.41.55-1.75l0,24.75C311.68,403.57,311.39,404.23,310.58,404Z"></path> <path class="cls-18" d="M227.09,396.17c-1.16-.83-.58-2-.53-3a6.47,6.47,0,0,1,.77-4.41,29,29,0,0,1,2.94-5.06c1.23-1.31,2.29-2.78,3.63-4,2.67-2,5.15-4.18,8.12-5.71,1.13-.15,2-.92,3-1.32a14.19,14.19,0,0,1,6.83-1c1.07.14,1.3-.28,1.16-1.23a8,8,0,0,1,.35-3.91,1.54,1.54,0,0,0-.78-2.12c-1.06-.6-2-1.37-3-2.06a21.09,21.09,0,0,0-2-2.62c-1.48-1.82-1.07-3.72-.23-5.63a23.09,23.09,0,0,1,1.24-2,17.65,17.65,0,0,0,2-7.66c.15-.5.19-1,.33-1.54.5-1.85,1.51-2.57,3.59-2.59a2.85,2.85,0,0,1,.7.28c.79.64,1.88.36,2.7.91a.47.47,0,0,1,0,.46,2.34,2.34,0,0,0-.6,3,2.13,2.13,0,0,0,2.32,1.26h2.67a5.5,5.5,0,0,0,2.64-.91,5.18,5.18,0,0,1,4.35-.57c.91.5,1.92.92,2.06,2.16-1.09.48-2.5.09-3.36,1.22-.85.75-1.15,1.92-2.06,2.61a8.56,8.56,0,0,0-1.83,5,16.22,16.22,0,0,0,.27,5.68,7.39,7.39,0,0,1-1.26,6.61,10.12,10.12,0,0,0-1.85,5.79,3.89,3.89,0,0,1-1.22,2.15c-1.09,1.36-2.18,2.72-3.25,4.08a6.36,6.36,0,0,1-2.26,1.93,3.75,3.75,0,0,0-1.84,1.67,25.88,25.88,0,0,1-2.37,4.7c-2.18,1.79-3.17,4.38-4.49,6.74-1.18,2.1-2.25,4.28-4.35,5.66-.76.08-1.24-.46-1.8-.81a9.93,9.93,0,0,0-2.87-1.78c-1.17-1.26-1.38.25-2,.67l-.14-.08c-.64-.65-.19-2-1.38-2.28-1.71-.48-3.39-1.09-5.21-.63C227.77,395.9,227.52,396.26,227.09,396.17Z"></path> <path class="cls-64" d="M230.61,383.75a51.83,51.83,0,0,0-3,5.34,16.53,16.53,0,0,0-1,4.08,4.3,4.3,0,0,0-2.4-1.55c-1.31-.07-2-1.3-3.22-1.63a8.82,8.82,0,0,1-2.71-1.85l-10.88-6.51a1.75,1.75,0,0,1-.06-3.21q14.69-8.66,29.38-17.27a5.94,5.94,0,0,1,.57-.27c2.56,1.57,5.24,2.94,7.67,4.7.12,1-.72,1.34-1.19,1.92q-2.35,2.87-4.65,5.78a23.38,23.38,0,0,1-5.49,4.68C231.56,379.37,231.13,381.58,230.61,383.75Z"></path> <path class="cls-65" d="M244.85,365.63c-2.68-1.35-5.43-2.59-7.61-4.75.59-.56.37-1.29.37-1.95q0-14.34,0-28.67A2.67,2.67,0,0,1,239,327.5a1.81,1.81,0,0,1,1.67.19c4.2,2.11,8.1,4.77,12.24,7a2.16,2.16,0,0,1,.78.78,13.4,13.4,0,0,1,1,5.08c-2.46.17-2.81.54-3.72,3.82a21.74,21.74,0,0,0-1.16,4.12c-.29,1.26-.6,2.52-.84,3.79-.84,1.38-1.89,2.64-1.9,4.41a3.65,3.65,0,0,0,.93,2.88c-.27,1.2-.2,2.49-1,3.56C246.35,364,246.31,365.44,244.85,365.63Z"></path> <path class="cls-66" d="M269.32,345c-2-.55-3.72.3-5.39,1.21a2.92,2.92,0,0,1-1.61.4c-.58-.31-.43-.75-.21-1.19a2.06,2.06,0,0,0,.45-1.11,8,8,0,0,0,.68-3.37,14.79,14.79,0,0,1,.91-3.5c.56-1.19-.42-2.17-.45-3.28,1-3.21-.67-6.32-4.25-8a9.17,9.17,0,0,0-3.28-1.11c-.37,0-.9,0-.84-.68,5.79-4.07,9.07-3.08,13.91-.42,2,1.09,2.7,3.22,3.14,5.31a23,23,0,0,1-1.85,14.18,1.77,1.77,0,0,1-.64,1.28A2.27,2.27,0,0,1,269.32,345Z"></path> <path class="cls-67" d="M237,398.05c1.31-.17,1.94.92,2.83,1.53a11.4,11.4,0,0,0,1.49,2c3.14,3.76,3.57,8,2.11,12.49-.26.8-.51,1.61-.83,2.39-1.78,4.43-1.85,5.51-.63,10.23.06.2.26-.09.08,0s-.13,0-.14-.07c0-1.1-.95-2.31.41-3.23.14,1.69-.25,3.4.29,5.08a3,3,0,0,0,1,1.52,6.34,6.34,0,0,1-2.13,5.18,28.73,28.73,0,0,1-2.89,2.4c-1.56,1.09-2.18,1-3.43-.53,1.8-4.26,3.4-8.54,2.71-13.33a65.07,65.07,0,0,1-.54-7.38c-.14-5.58-.85-11.13-.69-16.72C236.57,399.09,236.39,398.48,237,398.05Z"></path> <path class="cls-67" d="M227.09,396.17l.57-.71c1.82-.46,3,.06,4.14,1.73,2,2.89,3.32,5.82,3,9.41a19.41,19.41,0,0,1-1.47,5.48c-.43,1.08-.83,2.17-1.17,3.28a8.37,8.37,0,0,0,.94,7.4l.64,2.34a1.62,1.62,0,0,1-.15,1.92c-1.69,2.9-4.57,3.78-7.59,4.25-1,.15-1.84-.46-1.5-1.77,1.16-1.22,2.39-2.38,3.46-3.68,1-1.15.8-2.63.59-4a66.43,66.43,0,0,1-.46-7.57c-.23-5.64-.93-11.26-.73-16.92A2.09,2.09,0,0,0,227.09,396.17Z"></path> <path class="cls-68" d="M241.37,400.5c2.29-2.1,3.65-4.83,5.08-7.52.66-1.26,1.45-2.45,2.2-3.66a2,2,0,0,1,1.6-1.14c1.21-.45,2.55-.39,3.7-1.2a9.66,9.66,0,0,0,3.1-3.1,8.57,8.57,0,0,1,1.5-1.84c1.7-1.66,3.35-3.38,4.9-5.18.49-.57,1-1.32,1.93-1.17.75.59.44,1.51.71,2.24.5,6.89-1.4,8.92-5.79,11.36a46.35,46.35,0,0,0-8.74,6.28,17.07,17.07,0,0,0-5.07,7.73,2.07,2.07,0,0,1-.67,1.05l-.37,2.84c-.8-.06-.82-.77-.91-1.27a6.22,6.22,0,0,0-2.74-4.6A.93.93,0,0,1,241.37,400.5Z"></path> <path class="cls-69" d="M303,443.77c-2-.63-2.92-1.67-2.86-4.06.2-8.59.08-17.18.07-25.78,0-.63-.07-1.25-.11-1.88.95-1.47,2.09-1.94,3.34-1.38a3.8,3.8,0,0,1,.39,2.15q0,14,0,28C303.78,441.87,303.84,443,303,443.77Z"></path> <path class="cls-70" d="M283.6,453.89c-2.58-.74-2.79-1-2.79-3.48V425.67c0-.74-.06-1.47-.09-2.21,1.16-1.52,2.1-1.9,3.32-1.34a4.27,4.27,0,0,1,.38,2.31q0,13.35,0,26.7C284.42,452.12,284.51,453.16,283.6,453.89Z"></path> <path class="cls-71" d="M303,443.77a19.11,19.11,0,0,0,.33-4.71q0-13.32,0-26.63a3.48,3.48,0,0,0-.31-2,4,4,0,0,1,3.17-1.89q0,15.78,0,31.58C306.15,442.5,305.52,443.21,303,443.77Z"></path> <path class="cls-72" d="M283.6,453.89a8.63,8.63,0,0,0,.33-2.33q0-13.86,0-27.71a3.52,3.52,0,0,0-.31-2,3.53,3.53,0,0,1,3.16-1.9q0,15.24,0,30.48C286.78,452.75,286,453.59,283.6,453.89Z"></path> <path class="cls-73" d="M245.82,404.35c1-5,4.37-8.38,8.21-11.42a49.84,49.84,0,0,1,7.18-4.62c3.45-1.87,4.59-4.88,4.6-8.55,0-.58,0-1.16,0-1.74a2.7,2.7,0,0,1,2.23.63v.64c-.31,1.88.58,3.69.07,5.64a9.51,9.51,0,0,1-3.74,5.26c-2.51,1.93-5.55,2.76-8.32,4.13-4.09,2-7.11,4.83-7.45,9.73a4.3,4.3,0,0,1-.53,1.29C247.27,405.13,246.72,404.34,245.82,404.35Z"></path> <path class="cls-74" d="M221.05,389.74a8.94,8.94,0,0,1,3.11,1.88c0,7.75-.1,15.5.06,23.25,0,2.12-.67,3.22-2.55,3.8-.78-.06-.84-.71-1-1.26a9.6,9.6,0,0,1-.15-2.21c0-7.41,0-14.82,0-22.22A5.74,5.74,0,0,1,221.05,389.74Z"></path> <path class="cls-75" d="M221.05,389.74a7.07,7.07,0,0,1,0,2.34c0,8,0,15.95,0,23.92a3.45,3.45,0,0,0,.61,2.67c-1.41.42-3.47-.88-3.47-2.23q0-14.16,0-28.3A9.84,9.84,0,0,1,221.05,389.74Z"></path> <path class="cls-64" d="M312.11,378.36c-.42.51-.24,1.12-.24,1.68q0,10.47,0,20.93a2.69,2.69,0,0,1-.18,1.59c-.69-.46-.44-1.15-.44-1.72,0-8.88-.2-17.77.08-26.64.13-4.26-1.59-6.79-5.14-8.71-5.83-3.15-11.55-6.5-17.31-9.78-4.2-2.39-8.38-4.82-12.57-7.23-.35-.51-.32-.92.31-1.18q16.23,9.29,32.46,18.56a5.86,5.86,0,0,1,3.1,5.21C312.2,373.5,312.13,375.93,312.11,378.36Z"></path> <path class="cls-76" d="M255.33,324.35a19.69,19.69,0,0,1,4.13,1.32c2.32,1.28,4.3,2.83,4.93,5.62a3.26,3.26,0,0,1-.51,3,4.31,4.31,0,0,1-5.24-1.77c0-.08.3-.25,0-.21-2.34.25-3.38-1.73-4.93-2.84-.52-.83-1.39-1.46-1.45-2.56A8.58,8.58,0,0,1,255.33,324.35Z"></path> <path class="cls-77" d="M235.11,437.09c1.55,1.36,2.81.65,4.17-.44,2.1-1.7,4.07-3.4,3.88-6.44,0,0,.26-.12.4-.17a4.93,4.93,0,0,1,2,1.76c.93,1.57,1,3.2-.62,4-3.07,1.53-4.9,4.24-7.18,6.54a17.06,17.06,0,0,1-2.53,1.9c-.8.55-1.69.79-2.44,0a2.14,2.14,0,0,1-.32-2.63C233.26,440,234.5,438.75,235.11,437.09Z"></path> <path class="cls-77" d="M224.53,429.5c.33,1.4,1.16,1.74,2.48,1.26,2.41-.87,5-1.4,6.34-4a2.56,2.56,0,0,0,.42-1.65,3.71,3.71,0,0,1,2.08,3.91c-.16,1.76-1.65,2.51-3.25,2.71a9.55,9.55,0,0,0-5,2.17,14.08,14.08,0,0,1-5.41,2.49c-.89.23-1.86.33-2.38-.65a2.06,2.06,0,0,1,.48-2.72C221.71,431.83,223.13,430.67,224.53,429.5Z"></path> <path class="cls-78" d="M286.76,420a17.78,17.78,0,0,0-3.16,1.9l-2.88,1.61c-.32.09-.57.41-1,.3-.22-1.34.46-2.07,1.57-2.73,7.53-4.46,15.2-8.67,22.61-13.33,2.14-1.34,4.42-2.45,6.64-3.66.58-.18.83-.91,1.5-.93.4,1.32-.11,2.12-1.32,2.74-1.59.8-3.09,1.78-4.62,2.68L303,410.42l-2.91,1.63Z"></path> <path class="cls-79" d="M233.13,422.76c-.09.5-.21.53-.47.07a8.67,8.67,0,0,1-.89-7.56c.58-1.64,1.12-3.28,1.72-4.91,1.68-4.55,1.36-8.78-1.92-12.56a.94.94,0,0,1-.15-.28,3.05,3.05,0,0,0-3.76-2.06c2.3-.71,4.45,0,6.55.8,1.07.41.07,1.72.8,2.36a.21.21,0,0,1,.08.21c0,.08-.05.11-.07.11.17,1.84,1,3.54,1,5.44-.05,3.53-1,6.87-1.86,10.24A27.34,27.34,0,0,0,233.13,422.76Z"></path> <path class="cls-79" d="M241.37,400.5a6.92,6.92,0,0,1,3.61,5.57,1.32,1.32,0,0,0,.47,1.12c-.19,5.58-2.19,10.82-3.16,16.25-.63,1.08-.07,2.28-.35,3.36a9.9,9.9,0,0,1-.91-7.5c.91-2.67,2.2-5.22,2.58-8.08A11.5,11.5,0,0,0,241,401.9c-.56-.68-1.26-1.31-1.16-2.32Z"></path> <path class="cls-64" d="M253.43,335.46q-6.54-3.75-13.1-7.49a9.07,9.07,0,0,0-1.33-.47c.76-1.07,1.66-.87,2.63-.32,3.21,1.84,6.41,3.68,9.64,5.48.33.19.64.84,1.17.27.9,0,.87.85,1.23,1.35A1.12,1.12,0,0,1,253.43,335.46Z"></path> <path class="cls-80" d="M253.46,334.2c-.69-.14-.49-1-1-1.27-.88-2-1.37-4-.21-6l1.58,2.31a6.54,6.54,0,0,1,.9,1.93A3.59,3.59,0,0,1,253.46,334.2Z"></path> <path class="cls-81" d="M276.6,347.3a1.77,1.77,0,0,0-.31,1.18l-.31,0a19.24,19.24,0,0,1-6.35-3.82l.9-1.26c1.07,1.3,2.72,1.73,4.05,2.63C275.24,346.49,275.92,346.88,276.6,347.3Z"></path> <path class="cls-68" d="M235,398.94c0-.1,0-.21,0-.32.12-.57-.35-1.48.32-1.66a1.42,1.42,0,0,1,1.64,1.09c-.12.54.11,1.16-.38,1.61Z"></path> <path class="cls-82" d="M269.63,344.68c2.12,1.26,4.35,2.36,6.35,3.82-.43,5.76-.66,11.55-1.38,17.27a13.63,13.63,0,0,1-4.51,8.81c-1.2,1-2.24,2.28-2.06,4.07a3.61,3.61,0,0,1-2.23-.63c-.65-.62.07-1.61-.6-2.22-.23-.79.44-1.12.85-1.55,1.54-1.59,3.11-3.15,4.69-4.7A5.25,5.25,0,0,0,272.3,367c.16-5.46,0-10.91,0-16.36,0-1.39-1-2.41-1.13-3.74-.31-1-1.22-1.34-1.87-2Z"></path> <path class="cls-67" d="M272.51,367.58a3.1,3.1,0,0,1-1.16,1.83l-6.15,6.39c-2.84,2.94-5.92,5.65-8.32,9-1.56,2.2-3.65,3.77-6.63,3.36-.21-.36-1.09-.8,0-1.05.87-.21,1-.75,1.11-1.43a5.7,5.7,0,0,1,3.43-4.41,3,3,0,0,0,1.32-1.08c1.58-2.15,3.46-4.08,4.9-6.34.81-2,2.48-3.3,3.69-5a3.42,3.42,0,0,0,1-3.74,73.39,73.39,0,0,1-.68-11.94,4,4,0,0,1,.82-2.79c.67-.83.95-1.95,1.93-2.54,1.86-.12,2.71,1.14,3.4,2.54a13.61,13.61,0,0,1,1,4.76A72.35,72.35,0,0,1,272.51,367.58Z"></path> <path class="cls-67" d="M254.4,331a2.54,2.54,0,0,1-.59-1.83,23.07,23.07,0,0,0,3.3,2.42c1.05.54,1.95,1.26,3,1.84a6.84,6.84,0,0,0,3.81.81c.47,1,1.24,1.9.66,3.11a9.08,9.08,0,0,1-4.92,4c-.56.24-1.15.6-1.79.18-1,0-2,.17-2.79-.71.56-1.66-.3-3.33-.1-4.88C255.17,334.17,255.31,332.59,254.4,331Z"></path> <path class="cls-83" d="M244.85,365.63c.93-.62,1.21-1.74,1.93-2.52,1.32-.12,1.86.27,1.94,1.53a6.41,6.41,0,0,1-1.32,4.28c-.78,1.06-1.79,1.93-2.47,3.06a5.28,5.28,0,0,1-3,2.18L234.08,380a2.31,2.31,0,0,1-.66-2.33C238.34,374.73,241.09,369.7,244.85,365.63Z"></path> <path class="cls-68" d="M242,374.16l2.57-2.18c1.12-1.43,2.6-2.57,3.45-4.23a11.6,11.6,0,0,0,.9-3.62,2.71,2.71,0,0,1,.76-2c1.59.37,2.58,1.75,4,2.41.6.28.5,1,.28,1.57a8.54,8.54,0,0,0-.39,5.09c.18,1-.21,1.11-1,.95a13.53,13.53,0,0,0-9.21,1.8C242.92,374.19,242.52,374.81,242,374.16Z"></path> <path class="cls-68" d="M265.83,350.42c-.74,3.28-.38,6.58-.16,9.88.12,1.78.29,3.55.43,5.33a8.83,8.83,0,0,1-1.25,3.48,41,41,0,0,1-3.86,4.76,7,7,0,0,1,1.31-5.44c1.88-2.46,2.09-5,1.5-8-.64-3.29-.55-6.71,1.52-9.69C265.42,350.57,265.42,350.11,265.83,350.42Z"></path> <path class="cls-84" d="M257.83,341.53a13.64,13.64,0,0,0,6.71-4.15,16.33,16.33,0,0,0-1,5.18,3.47,3.47,0,0,1-.93,2.11c-1.19,1.17-2.6.95-3.94.47s-1.49-1.75-.88-3.32A.57.57,0,0,0,257.83,341.53Z"></path> <path class="cls-85" d="M272.51,367.58c.22-4.88-.47-9.71-1-14.54-.26-2.28-1.2-4.37-3.72-5.16a2.7,2.7,0,0,1,3.43-.95,5.68,5.68,0,0,1,1.62,4.44c0,4.9,0,9.81,0,14.71C272.79,366.59,272.94,367.14,272.51,367.58Z"></path> <path class="cls-84" d="M254.4,331a3.65,3.65,0,0,1,1,4.34,1.92,1.92,0,0,0,.29,2.28c.45.49,1,1.48-.2,2.07-.44.22-.45.67-.42,1.1l-.36-.27c-.72-1.62-.78-3.4-1.25-5.09l0-1.26C253.68,333.12,254.5,332.21,254.4,331Z"></path> <path class="cls-86" d="M249.65,362.15c-.41,4-1.62,7.48-5.11,9.83.43-1.36,1.67-2.1,2.47-3.19a7.38,7.38,0,0,0,1.34-3.62,1.6,1.6,0,0,0-1.57-2.06c.71-1.08.15-2.58,1.22-3.54C248.55,360.43,249.65,360.93,249.65,362.15Z"></path> <path class="cls-68" d="M257.82,341.82c0,.32,0,.63,0,.95.05,1.74.54,2.21,2.29,2.26a7,7,0,0,0,2.49-.36c.27.7-.88,1.15-.32,1.9-1.16,0-2.32,0-3.48,0a2.08,2.08,0,0,1-2-1.51,3.72,3.72,0,0,1,0-2.91C257,341.79,257.45,341.83,257.82,341.82Z"></path> <path class="cls-87" d="M233.42,377.68c.14.8.88,1.43.66,2.33-1.16,1.25-2.32,2.49-3.47,3.74-.87-1.06.1-1.9.41-2.76C231.48,379.68,231.87,378.24,233.42,377.68Z"></path> <path class="cls-88" d="M249,352.28c-.14-2.76.75-5.31,1.61-7.87.06-.17.24-.15.39,0A15.85,15.85,0,0,1,249,352.28Z"></path> <path class="cls-89" d="M264.85,369.11a8.83,8.83,0,0,1,1.25-3.48C266.81,367.19,265.89,368.17,264.85,369.11Z"></path> <path class="cls-90" d="M252.1,386.36a3.33,3.33,0,0,1,1.76-2.35A5.31,5.31,0,0,1,252.1,386.36Z"></path> <path class="cls-64" d="M112.81,410.32q12.87-7.47,25.76-14.92c.43-.25.94-1.22,1.62-.23.1.2.22.22.36,0a2.69,2.69,0,0,0,.28-1.28c0-1.15.06-2.3-.06-3.44a1.71,1.71,0,0,0-.14-.49,8.41,8.41,0,0,0-6.17-3.19c-5.07-.23-8.56-2.85-11.56-6.57-2.18-2.7-4.09-5.51-4.72-9a2.66,2.66,0,0,0-.54-1.3c-.74-.46-1.33,0-1.9.35-7.24,4.15-14.48,8.29-21.7,12.48-3.7,2.15-7.44,4.21-11.13,6.39-.57.34-1.3.56-1.38,1.4.28.78,1,1,1.64,1.39,9.19,5.38,18.33,10.84,27.55,16.16C111.72,408.66,111.91,409.78,112.81,410.32Z"></path> <path class="cls-91" d="M81.65,390.55c2.07-1.82,4.62-2.87,7-4.25,6.56-3.86,13.13-7.73,19.78-11.43,3-1.68,5.89-3.66,9.13-4.95a1.07,1.07,0,0,0,.38-.69c.23-6.93.14-13.84-1.49-20.64a8.91,8.91,0,0,0-.61-2c-1-2-1.92-2.42-4.07-1.67a21.09,21.09,0,0,1-6,1.33,23.7,23.7,0,0,0-14.08,5.48,26.73,26.73,0,0,1-7,4.24c-1.07.43-1.56,1.52-2.47,2.2-.17-.46.59-1.22-.15-1.36-.93-.18-1.14.69-1.3,1.43a11.38,11.38,0,0,0-.16,2.54q0,13.17,0,26.35a2.82,2.82,0,0,1-.42,2.11v.65C80.53,390.38,81,390.81,81.65,390.55Z"></path> <path class="cls-92" d="M140.49,390.22a22.39,22.39,0,0,0-.13,3.84c.12,2.28.07,4.57.16,6.86a9.53,9.53,0,0,0,1,4.08c2.5,4.85,2.64,10.11,2.53,15.4,0,1-.84,1.1-1.4,1.52,0,.88.68.75,1.17.78a9.17,9.17,0,0,0,2.44-.36c1-.28,1.93-.49,2.89-.75.54-.14,1.15-.22,1.39-.87a2.32,2.32,0,0,0,1.65-2.62c-.06-7.6,0-15.21,0-22.81.74-1.62.38-3.31.3-5-3.1-1.93-4.14-5.63-6.76-8a16.84,16.84,0,0,0-2-1.81,11.32,11.32,0,0,1-4.38-6.24,3.78,3.78,0,0,1,3.23-5.2,4.31,4.31,0,0,0,1.23-.23,17.51,17.51,0,0,1,3.54-2.71,7.45,7.45,0,0,1,1.3,3.34,7.06,7.06,0,0,0,3.13,4,3,3,0,0,1,1.14,1.27A5.39,5.39,0,0,0,154.6,376c1.35.89,1.39,1.22.24,2.18-.16.14-.35.24-.5.39-.29.32-.61.66-.35,1.12a.85.85,0,0,0,1.12.31c1.17-.49,2.54-.32,3.63-1.18-.22.63-.36,1.23-.53,1.82a2,2,0,0,1-1.77,1.59,3.07,3.07,0,0,0-1.07.31c-1,.51-1.06,1.05-.15,1.67a1,1,0,0,1,.49,1c-.09.71-.49.26-.8.24a.67.67,0,0,0-.74.82c.13,1.31-.3,2.8.24,3.92a17.14,17.14,0,0,1,1.74,5.26c.11.78,1.25,1.24,1.66,2.06.24.5.82,1.07-.38,1.13-.88,0-.85.64-.6,1.25a8.1,8.1,0,0,0,.87,1.51,1.93,1.93,0,0,1,.11,2.6,1.24,1.24,0,0,0-.29.73c-.05,2.17-.24,4.33-.09,6.49a1.21,1.21,0,0,0,2,1c1.09-.67,1.87-2,3.49-1.56a.66.66,0,0,0,.41-.08c.52-.13,1.09-.15,1.21-.84a11.85,11.85,0,0,0,.05-3.43c-1.21.59-.45,2-1.31,2.65a2.21,2.21,0,0,1-.49-2.33,4.7,4.7,0,0,0-.12-2.94,7.61,7.61,0,0,1-.1-4.23,6.5,6.5,0,0,0,0-3.25,6.66,6.66,0,0,1,.31-4.5,2.79,2.79,0,0,0-.14-3c-.63-.94-.27-2.06-.36-3.1s.24-2.26-1.56-1.48c-.58.25-.94-.21-.8-.78s0-1.45.23-2.55c1.08,1.4,1.31,3.6,3.57,2.88a.77.77,0,0,0-.08-1.13,16.5,16.5,0,0,1-2.36-3.88c-.7-1.42-2.19-2.25-3.55-3.05a25.87,25.87,0,0,1-6.47-5,7.27,7.27,0,0,1-2.1-5.59c.09-1.07.81-1.81,1.09-2.76a1.15,1.15,0,0,0-1.06-1.14c-1.11.4-1.29,1.77-2.34,2.24a22.06,22.06,0,0,1-7.5,3.19,41.78,41.78,0,0,1-9.93,1.62,2.61,2.61,0,0,0-1.07.2c-.85.77-.45,1.66-.16,2.48a14.36,14.36,0,0,0,4.52,6.36c1.68,1.36,3.29,2.8,4.93,4.21a8.53,8.53,0,0,1,1.9,2.7,2.91,2.91,0,0,0,1.26,1.56c1,.42.84,1.09.43,1.81A5,5,0,0,0,140.49,390.22Z"></path> <path class="cls-64" d="M149.28,361.35l1.06.89c.29.81,1,1.14,1.67,1.61,3.76,2.88,7.64,5.62,10.32,9.66a11.33,11.33,0,0,1,2.15,5.52c0,.35,0,.76.47.91l3.05-1.72c1.19,0,2-.91,3-1.37,1-.73,2.28-1.08,3-2.15,3.65-2.14,7.3-4.27,10.94-6.43a1.76,1.76,0,0,0,0-3.15q-14.55-8.58-29.12-17.13a3.41,3.41,0,0,0-.59-.2c-1.65.15-2.68,1.51-4.1,2.11a2.27,2.27,0,0,0,.94,2.22,39.84,39.84,0,0,1,5.19,6.39,3.4,3.4,0,0,0,2.88,1.66c1.88,0,2.88,1.64,4.31,2.48.06,0,.11.08,0,.27-.41.85-.35.87.49,1.85-.34-.24-.74-1.28-1.42-.74s.31,1.08.62,1.59a3.16,3.16,0,0,1,.44.94c-1.43-1-1.36-.08-1.12,1.16a6.6,6.6,0,0,0-1.45-1.86c-.32-.28-.64-.61-1.12-.48s0,.78-.53,1.23c-2.38-2.62-4.42-5.62-7.56-7.46a15.62,15.62,0,0,1-3-2.29c-.4-.34-.82-1.13-1.51-.32A10.33,10.33,0,0,0,149.28,361.35Z"></path> <path class="cls-91" d="M151.19,349.92c1.71,0,2.69-1.48,4.09-2.13-.81-.53-.67-1.36-.67-2.14,0-9.47,0-18.95,0-28.42a3.14,3.14,0,0,0-1.55-3.18c-1.46-.05-2.57.83-3.73,1.49-3.41,2-6.68,4.16-10.36,5.6a.47.47,0,0,0-.26.36c.36.65,1,.54,1.58.6a5.78,5.78,0,0,1,2.7.31c1.38.72,1.72,2.07,2,3.42.48,2.74,1.06,5.46,1.72,8.16.43,1.72,0,3.33-.18,5,1.58,2.71,2.12,5.81,3.23,8.7a4.58,4.58,0,0,0,1.2,2.17Z"></path> <path class="cls-67" d="M81,357.81A1.82,1.82,0,0,1,82,357c0,.66-.8,1.2-.19,1.92a15.67,15.67,0,0,0,2.67-2.61c.8-.7,1.1-1.84,2.11-2.36,2.33-2,5-3.69,7.34-5.67a9.9,9.9,0,0,0,1.92-1.85,1.25,1.25,0,0,1,1.89-.37,11.32,11.32,0,0,0,4.08-.64,11.08,11.08,0,0,0,3.21-5.95c.24-1.14.56-1.74,1.69-1.85.08-1.16-.36-1.89-1.61-1.95a43.67,43.67,0,0,1-7.91,3.54,16.47,16.47,0,0,0-6.58,4.19c-2.42,2.27-4.75,4.65-7.11,7a2.73,2.73,0,0,1-1.6.88c-1.67.28-4.84,3.42-5,4.75.23.15.37,0,.52-.16l.59-.48c-.06.77-.6,1-.88,1.4a1.44,1.44,0,0,0-.2,1.52c.81-.17.4-1.37,1.36-1.42-.37.87-.9,1.79-.23,2.9.67-.78.64-1.88,1.66-2.5-.13.81-.82,1.3-.7,2,0,.34-.19.85.28,1s.31-.59.65-.75C80.58,359.06,80.69,358.39,81,357.81Z"></path> <path class="cls-67" d="M136,321.4c.26-1,1.62-.95,1.83-2a2.76,2.76,0,0,0-.72-2.17,1.67,1.67,0,0,1-.21-2.28c.81-1.22-.06-2.22-.64-3.2-.38-.66-.77-1.2-.15-2,.42-.53.67-.57,1.11-.19,0-.26-.11-.58,0-.77,1.43-2.3-.06-4-1.18-5.76a5.73,5.73,0,0,1-.38-1c-.73-.79-1.58-.46-2.35-.18a19.1,19.1,0,0,0-5.57,3.29,3.09,3.09,0,0,0-1.26,3.39c.72,2,.21,4.12,1.08,6.14-1.27-.68-2.49-1.77-3.63,0a5.07,5.07,0,0,0,1.87,3.78,9.42,9.42,0,0,1,4.2,2.15,6.43,6.43,0,0,0,4.46,1.13c.46,0,.92.2,1.39,0A.33.33,0,0,0,136,321.4Z"></path> <path class="cls-93" d="M123.91,314.7c1.22-.69,2.37-1.12,3.13.62.17.4.51.24.81.11a.47.47,0,0,0,.21-.77c-1.16-1.85-.24-4.09-1.21-6a2.66,2.66,0,0,1,1-3,18.15,18.15,0,0,1,6.26-3.6,4.63,4.63,0,0,1,1.57,0c1.05-1.36.88-2.4-.75-4-.21.63-.09,1.56-.86,1.64a4,4,0,0,1-1.79-.27,10.37,10.37,0,0,0-9.67,1.21c-2.6,1.75-2.8,4.57-2.36,7.41A11.61,11.61,0,0,0,123.91,314.7Z"></path> <path class="cls-77" d="M165,379.94c0-3.49-1.73-6.27-3.94-8.78a55,55,0,0,0-10.67-8.92c-2.22,2.44-1.94,5.81.59,8.56A29,29,0,0,0,157.5,376c1.82,1.11,3.71,2.17,4.25,4.56.28,1.25,1.69,1.85,2.14,3.06.24,2.13.09,4.27.17,6.4,0,.66-.24,1.52.72,1.84Q164.87,385.87,165,379.94Z"></path> <path class="cls-94" d="M88.57,430.29a2.9,2.9,0,0,0,3.48-2.61q0-13.65,0-27.29c0-.53,0-1.05,0-1.58-1-1.51-2-1.93-3.25-1.37a4,4,0,0,0-.4,2.31q0,13.46,0,26.91C88.45,427.87,88.66,429.07,88.57,430.29Z"></path> <path class="cls-95" d="M108.63,440.72c2.05-.6,2.91-1.73,2.87-4.08-.16-8.81,0-17.62,0-26.44-.53-1.25-1.74-1.53-2.85-1.92-.37-.13-.53.24-.65.54a5.28,5.28,0,0,0-.16,1.58q0,14,0,27.9C107.82,439.18,107.71,440.13,108.63,440.72Z"></path> <path class="cls-72" d="M88.57,430.29a1,1,0,0,0,.66-1.14c-.63-3.62-.21-7.26-.26-10.89-.08-6.34,0-12.68,0-19a3.53,3.53,0,0,1,.31-2c-.51-1.51-1.71-1.89-3.13-1.91q0,16.37,0,32.75C86.09,429.73,87.65,429.66,88.57,430.29Z"></path> <path class="cls-96" d="M108.63,440.72a3.45,3.45,0,0,1-.31-2V408.34a2.69,2.69,0,0,0-2.83-1.61c0,10.47,0,20.94,0,31.4C105.47,440.18,107.34,440.14,108.63,440.72Z"></path> <path class="cls-97" d="M170.85,376.56,168,378.22q0,12.13.07,24.27a3.11,3.11,0,0,0,3.42,3,4.37,4.37,0,0,0,.22-1.56c0-8.36,0-16.71,0-25.07C171.67,378,172,377,170.85,376.56Z"></path> <path class="cls-98" d="M170.85,376.56c.56.51.33,1.19.33,1.79q0,12.56,0,25.12a3.62,3.62,0,0,0,.3,2c2-.52,2.65-1.77,2.62-3.89-.14-9-.07-17.92-.07-26.88Z"></path> <path class="cls-99" d="M105.13,335.64a3.27,3.27,0,0,1,1.57,1.89c0,.66-.25,1.39.67,1.65a4.55,4.55,0,0,1,1.9-.7,25,25,0,0,0,7.07-2.13c1.79-.94,2.79-2.17,2.61-4.23a1.61,1.61,0,0,0,0-.49c-.91-1.92-1.23-2.11-3-1.81a19.22,19.22,0,0,0-10.21,4.48A1.4,1.4,0,0,0,105.13,335.64Z"></path> <path class="cls-100" d="M164.78,391.81c-.56-2.21-.1-4.47-.27-6.7,0-.56.34-1.34-.62-1.54s-2.31,0-2.3-1.73a1.32,1.32,0,0,0-1.46-1.34c-.94.17-.82.94-.4,1.61a.59.59,0,0,1,0,.72c-.39.64-.54,1.36.15,1.83s1.4.15,2.11-.68c0,1.22,0,2.19,0,3.16s-.13,1.62.69,2.3c.54.44.32,1.24,0,1.9a7.1,7.1,0,0,0-.28,5.66,2,2,0,0,1,.15,1.37,8.18,8.18,0,0,0,0,6.26,2.16,2.16,0,0,1-.09,1.69c-.58,1-.16,1.82.13,2.71.12.35.2.78.65.77a1,1,0,0,0,.92-.93,5.21,5.21,0,0,1,.39-2.05v3a5.84,5.84,0,0,0,.24-2.49C164.8,402.13,164.78,397,164.78,391.81Z"></path> <path class="cls-65" d="M105.49,406.73l2.83,1.61,3.15,1.86c.46,0,.84.71,1.34.12-.15-1.78-1.58-2.46-2.86-3.2-5-2.94-10.18-5.72-15.16-8.77-4.34-2.66-8.79-5.15-13.14-7.8l-1.54-.62c-.36,1.28.22,2,1.33,2.59,1.6.85,3.13,1.86,4.69,2.8a9.17,9.17,0,0,1,3.13,1.91,12.73,12.73,0,0,1,2.84,1.58C96.6,401.39,101.15,403.89,105.49,406.73Z"></path> <path class="cls-84" d="M134.7,321.36a7,7,0,0,1-5.82-2.1,3,3,0,0,0-3.1-.78c.1,1.24.21,2.49.3,3.73a2.24,2.24,0,0,1-.32,1.65c-.32,3,.46,3.81,4,4.2a5.07,5.07,0,0,0,5.62-4.69A2.4,2.4,0,0,0,134.7,321.36Z"></path> <path class="cls-101" d="M142.6,422c1.48.23,2-.32,2-1.88,0-4.07-.08-8.12-1.3-12a15,15,0,0,0-1.74-4,6,6,0,0,1-.86-3.16c-.07-2.28.47-4.61-.3-6.86,0,.38,0,.76,0,1.14a14.46,14.46,0,0,0,0,4.05c-.15,5.87.43,11.7.85,17.54a26.65,26.65,0,0,0,.49,4.88C141.89,422.05,142.13,422.35,142.6,422Z"></path> <path class="cls-101" d="M152.68,395.06q.67,7.71,1.34,15.41a4.22,4.22,0,0,0,.36,1.68,2.56,2.56,0,0,0,2.76.14c.6-.84.05-1.74.14-2.62a28.18,28.18,0,0,0-3.4-16.94c-.26-.46-.41-1.18-1.24-.81A5.26,5.26,0,0,0,152.68,395.06Z"></path> <path class="cls-102" d="M116,329.82c1.54-.19,2.14.95,2.81,2,1.58,2,5.19,1.57,6.9-.15.9-.91,2.07-1.75,1.4-3.34-.88-1-1.84-1.88-2.67-2.9A24,24,0,0,0,116,329.82Z"></path> <path class="cls-103" d="M156.6,431.23c1.28-1.12,1.32-1.82.11-2.85-.55-.46-1.14-.87-1.71-1.3a2.15,2.15,0,0,0-1.22.25c-1.65.74-2,.66-3.21-.79s-2.33-2.61-4.26-2.7c-1.07.34-2.2-.09-3.27.22-.4,1,.52,1.22,1,1.36,2.33.62,3.9,2.23,5.44,3.9a6.87,6.87,0,0,0,3.89,2.19h0A4.74,4.74,0,0,0,156.6,431.23Z"></path> <path class="cls-104" d="M169.28,421.37c1.31-.82,1.21-1.71.13-2.63a4.27,4.27,0,0,0-1.62-1.2,1.26,1.26,0,0,0-1.35.06c-1.41.83-2.37.27-3.21-.92a8.33,8.33,0,0,0-3.56-2.78c-1.31.28-2.65.11-4,.34-.27,1.08.68,1.26,1.26,1.41a9.52,9.52,0,0,1,4.92,3.55,7.06,7.06,0,0,0,4.22,2.48h0C167.22,422.11,168.24,421.63,169.28,421.37Z"></path> <path class="cls-65" d="M81,357.81a2,2,0,0,0-.95,1.66q0,14,0,28.07c0,.58,0,1.16.06,1.74,1.21-.19.89-1.14.89-1.87q0-13.65,0-27.29A6,6,0,0,0,81,357.81Z"></path> <path class="cls-18" d="M124.44,325.42c0,1.53,1.41,2,2.3,2.89,4,3,8.82,1.5,10.14-3.2a3.24,3.24,0,0,0-1-3.43l-1.17-.32c.52,2.06.47,3.91-1.49,5.34-2.11,1.54-4.21.85-6.33.2-.6-.19-.72-.81-.76-1.44s.24-1.18-.36-1.6A3.53,3.53,0,0,0,124.44,325.42Z"></path> <path class="cls-102" d="M135.87,321.68a6.61,6.61,0,0,1,.68,3.44c-.08.62.39.85.81,1a9.83,9.83,0,0,0,4.16.61,1.65,1.65,0,0,0,1.56-1.52,3,3,0,0,0-1.37-3.11c-.42-.22-.92-.19-1.32-.45-.54-.08-1.13.18-1.59-.29-.31-.31-.65-.21-1-.06l-1.83.09A1,1,0,0,1,135.87,321.68Z"></path> <path class="cls-105" d="M146.41,424.2a4.86,4.86,0,0,1,3.41,2c2.2,2.53,2.19,2.55,5.18.88-1.88-1.39-2.15-3.87-3.73-5.47-1.3.41-2.4,1.24-3.68,1.7C147.19,423.59,146.44,423.43,146.41,424.2Z"></path> <path class="cls-105" d="M159.73,414.1a17.82,17.82,0,0,1,4,3.7,1.65,1.65,0,0,0,2.36.41,4.35,4.35,0,0,1,1.74-.67c-1.89-1.51-2.38-4-3.88-5.72A12.62,12.62,0,0,0,159.73,414.1Z"></path> <path class="cls-84" d="M137.2,309.58c-.42,0-.19-1.1-.75-.57s-1.69.79-1.19,1.91a14.32,14.32,0,0,0,1.09,1.73c.53.86.84,1.68-.09,2.54-.56.52-.32,1.12.1,1.69a8,8,0,0,1,1.45,2.53C139.09,316,140,312.7,137.2,309.58Z"></path> <path class="cls-106" d="M159.73,414.1c1.45-.65,3-1.07,4.18-2.28-.1-.44-.86-.57-.58-1.19l-.39-.06a13.08,13.08,0,0,0-3.49,1.29c-.47.49-1.06.22-1.6.28a.44.44,0,0,0-.64,0h-2.83c-.47.43-.27,1-.26,1.49a1.24,1.24,0,0,0,1.51.75A7.09,7.09,0,0,0,159.73,414.1Z"></path> <path class="cls-107" d="M137.81,321.31l1,.06c2.13,0,3.71-1.4,5.42-2.33,3-1.62,5.8-3.54,8.87-5a1.58,1.58,0,0,0-2.26-.29Z"></path> <path class="cls-108" d="M155.63,414.39l-1.51-.75a3.19,3.19,0,0,0,2.21,2.8,24.2,24.2,0,0,1,5.71,3.83,5.66,5.66,0,0,0,4.07,1.41,10.78,10.78,0,0,1-4.44-3.29,8.25,8.25,0,0,0-4.61-3.09A5.15,5.15,0,0,1,155.63,414.39Z"></path> <path class="cls-108" d="M153.41,431.51a11.65,11.65,0,0,1-4.66-3.55,8.35,8.35,0,0,0-4.27-2.76,3.24,3.24,0,0,1-1.55-1c-.25-.57-.56-1-1.28-.61a2.52,2.52,0,0,0,1.58,2.34c2.87,1.25,5.05,3.55,7.77,5A3.8,3.8,0,0,0,153.41,431.51Z"></path> <path class="cls-109" d="M141.65,423.6c.52,0,.86.4,1.28.61a7.44,7.44,0,0,0,3.48,0c.3-.49,1-.11,1.3-.6-.42-.54-.61-1.27-1.29-1.61-1.27-.22-2.54.84-3.82,0l-.91-.33C141.65,422.31,141.24,423,141.65,423.6Z"></path> <path class="cls-110" d="M146.42,422c.39.57.23,1.58,1.29,1.61,1.27-.53,2.63-.88,3.56-2l-.75-.89C149.21,421.33,147.7,421.28,146.42,422Z"></path> <path class="cls-111" d="M152.68,395.06l0-3.23a7.94,7.94,0,0,0-.18-4.4.37.37,0,0,0-.52,0,2.4,2.4,0,0,0,0,2.49c0,1.79.09,3.58.13,5.37Z"></path> <path class="cls-112" d="M140.35,399.25V395.2a.16.16,0,0,1-.16,0A19.21,19.21,0,0,0,140.35,399.25Z"></path> <path class="cls-108" d="M156.6,431.23l-3.19.28A2.76,2.76,0,0,0,156.6,431.23Z"></path> <path class="cls-108" d="M169.28,421.37l-3.17.31A3,3,0,0,0,169.28,421.37Z"></path> <path class="cls-73" d="M117.53,369.28v.64c.55,4.42,2.75,8,5.66,11.23,2,2.28,4.1,4.56,7.22,5.35,1.46.37,3,.39,4.49.71a13.14,13.14,0,0,1,5.44,2.73c.59-.6.2-1.19-.06-1.74a14.55,14.55,0,0,0-4-4.85,46.42,46.42,0,0,0-6-4.33c-4.18-2.48-7.43-5.69-8.74-10.53a1.2,1.2,0,0,0-1.85-.46A12.43,12.43,0,0,0,117.53,369.28Z"></path> <path class="cls-101" d="M121.3,368.64A14.7,14.7,0,0,0,128,377.9a73.36,73.36,0,0,1,8.11,5.8c1.92,1.71,3.9,3.43,4.27,6.24l.16.28c.61-.8.78-1.82,1.32-2.68s1-2-.77-2.12c-.4,0-.61-.41-.73-.76-.91-2.7-3.14-4.25-5.19-6-2.42-2-4.87-4-6.11-7.08a5.84,5.84,0,0,1-.67-3c0-.31-.22-.45-.47-.55a16.93,16.93,0,0,1-5.65-1.35.82.82,0,0,0-1,.11C120.8,367.44,121.13,368,121.3,368.64Z"></path> <path class="cls-82" d="M121.3,368.64l.12-1.83c-2.36-6.92-2.22-14.1-2.14-21.26a5.38,5.38,0,0,0-1.82-4.51c-.72-.48-1.4-.11-2.09.11a31.05,31.05,0,0,1-7,1.58,67.08,67.08,0,0,1-6.42,2.42l-4.44.64a.66.66,0,0,0-.44.16c-2.93,3.45-7.08,5.23-10.67,7.78a3.15,3.15,0,0,0-1.91,2.55c1.78.09,3-1.2,4.31-2,2.67-1.56,5-3.67,7.71-5.2a17.39,17.39,0,0,1,6.57-2c3.22-.39,6.47-.62,9.49-2a1.66,1.66,0,0,1,2.27.75c1.49,2.29,1.55,5,2,7.53.94,5.27.65,10.6.68,15.91a3.36,3.36,0,0,0,2.24-.88C120.45,367.87,120.87,368.08,121.3,368.64Z"></path> <path class="cls-113" d="M128,368.36l.34.23a41.11,41.11,0,0,0,13.46-2.21,14.17,14.17,0,0,0,5.58-2.78,15.5,15.5,0,0,0,1-4.79c.14-1.35.26-2.72.41-4.07a8.21,8.21,0,0,0-.82-4.25c-1.2-.17-1.36.74-1.57,1.54a4.12,4.12,0,0,1-1.1,2.56c.4-3.86,1.52-7.61,1.89-11.47a25.12,25.12,0,0,0-.51-3.67c-.72-4.79-1.52-9.56-2.37-14.33a7.72,7.72,0,0,0-1-3.13c-.91-.53-1.92-.27-2.88-.33,1.18.75,2.43,1.43,2.35,3.16,0,.92-.42,1.66-1.33,1.54-1.66-.2-3.48.1-4.86-1.24-1.33,4.39-4.77,4.75-8,3.77-.61-.18-1.2-.39-1.8-.58a1.63,1.63,0,0,1-.39,2.13c-2,2.21-3.92,3.16-7.54,1.37l-.07,0a7,7,0,0,0,.36,1.5,2.83,2.83,0,0,0,.57,1.05,9.45,9.45,0,0,1,2.19,3.43c.42,1.16.88,2,2.49,1.18-2,1.17-1.76,2.89-1.9,4.6-.26,3.1-.25,6.21-.28,9.31a34,34,0,0,0,.67,6.6A16.18,16.18,0,0,0,128,368.36Z"></path> <path class="cls-77" d="M152,389.92l.12-2.54c.84-1.27.21-2.52-.05-3.77a13.15,13.15,0,0,0-.83-2.19c-1.57-3.16-3.39-6.17-5.18-9.2a15.7,15.7,0,0,1-1.16-2.41c-.19-.49-.24-1.19-1.05-1.17a5.05,5.05,0,0,0-3,.61c-2.58,1.76-2.87,3.89-1.41,6.65a20.85,20.85,0,0,0,5.21,5.89,28,28,0,0,1,5.31,7A2,2,0,0,0,152,389.92Z"></path> <path class="cls-100" d="M152.47,387.39c.2,1.47-.26,3,.26,4.44,1.15,1.2,1.51,2.82,2.2,4.25a23,23,0,0,1,2,11.06c-.05,1.66-.36,3.38.28,5h.64V406c0-.83-.13-1.65.72-2.29a1.23,1.23,0,0,0,.06-1.62c-.45-.59-.72-1.27-1.13-1.87-.22-.34-.75-.63-.51-1.07.36-.66.67.17,1,.14,1-.08.91-.75.62-1.35a3.52,3.52,0,0,0-1.16-1.65c-1.44-.72-1.23-1.93-1.2-3.11,0-.79-.05-1.45-.88-1.85a1.37,1.37,0,0,1-.72-1.32,19.23,19.23,0,0,0-.24-4.36c.67.16.84,1.08,1.51.67.82-.51-.2-1.33.34-2,.24-.31-.57-.37-1-.44-.68-.11-.65-.41-.21-.81a.49.49,0,0,1,.27-.15c2.11-.16,3.41-1.08,3.56-3.39,0-.27,1-.46.24-1.16s-.85.22-1.26.44c-1,.55-2.23.33-3.27.89-.39.21-.64-.26-.3-.68a1.32,1.32,0,0,1,.62-.46,1.49,1.49,0,0,0,1.24-1.61c0-.85-.81-1.12-1.54-1.31-.13,1.25-1.07,2-1.87,2.76a3.72,3.72,0,0,0-1.52,2.92.58.58,0,0,0,.46.44c.45,0,.66-.44,1-.67a2.07,2.07,0,0,0-.74,1.54A15.9,15.9,0,0,1,152.47,387.39Z"></path> <path class="cls-101" d="M151.49,381.38c.17-1.82,1.65-2.71,2.75-3.86.55-.57,1-1.09.43-1.88l-1.58-1c-.58-1-1.71-1.37-2.52-2.13-1.53-1.43-2-3.3-2.53-5.16a9.3,9.3,0,0,0-.67-1.92c-1.09,1.14-2.84,1.54-3.49,3.17,1.79,4.09,4.35,7.75,6.38,11.7a9.1,9.1,0,0,0,.59.93C151,381.55,151.24,381.54,151.49,381.38Z"></path> <path class="cls-102" d="M148.33,354.67a26.64,26.64,0,0,1-.8,6.29,15.65,15.65,0,0,0-.15,2.64c.93-.5,1.25-1.52,1.9-2.25.1-1.74-.61-3.38-.61-5.11C149,355.61,149.31,355,148.33,354.67Z"></path> <path class="cls-100" d="M147.37,365.47c.42,2.93,1.15,5.71,3.48,7.8a9.93,9.93,0,0,0,2.24,1.41,1.16,1.16,0,0,0-.67-1.28c-2.7-1.2-3.42-3.71-4.08-6.24C148.16,366.49,148,365.84,147.37,365.47Z"></path> <path class="cls-112" d="M159.45,411.86c1.18-.38,2.59-.13,3.49-1.29-.39-.6-.69-1.23-1.41-.21C161,411.06,159.85,411,159.45,411.86Z"></path> <path class="cls-67" d="M152.78,359.44c3.3,2.05,5.21,5.58,8.3,8.06a2.69,2.69,0,0,0-.2-2,5.59,5.59,0,0,1,2.65,3.13c.69-.83.19-1.59.14-2.34a2.82,2.82,0,0,1,.32.17c.37.27.09,1.33.86,1,.59-.28.34-1.05,0-1.55s-.81-1.07-1.49-1.95a7.76,7.76,0,0,1,2.32,2.17c.39-1.49-1-1.85-1.46-2.81.54-.23.69.6,1.23.36-.05-1.3-1.27-1.55-2-2.21-1.1-1-2.25-1.94-3.91-1.68-.61.1-1-.33-1.32-.75a70.18,70.18,0,0,0-6.3-7.69,5.21,5.21,0,0,1-.74-1.38l-.05,0c-2.07-.41-3.11.58-2.65,2.5A13.26,13.26,0,0,0,152.78,359.44Z"></path> <path class="cls-84" d="M152.78,359.44c-.95-1.63-2.35-3-3.06-4.76-.15-.38-.39-.74-.53-1.13-1-2.67-.86-2.89,1.95-3.61-1.44-2.77-2-5.87-3.13-8.73a3.8,3.8,0,0,0-1.27-2.11.4.4,0,0,0-.33.36l.33,3.78a44.34,44.34,0,0,0,.44,5.87c.12.5.11,1,.54,1.42a12.41,12.41,0,0,1,.61,4.14c.47.45.2,1.05.34,1.57C150.07,357.27,151,358.87,152.78,359.44Z"></path> <path class="cls-18" d="M146.41,339.46l.33-.36c1.48-3,.06-5.89-.39-8.79-.29-1.92-.79-3.8-1.21-5.7a3.84,3.84,0,0,0-1.87-2.62q1.47,8.61,2.95,17.22C146.24,339.3,146.34,339.38,146.41,339.46Z"></path> <path class="cls-84" d="M102,345.15a11.39,11.39,0,0,0,6.36-2.21c.33-.82-.29-1.53-.27-2.31a2.39,2.39,0,0,0-.7-1.5c-.55-.39,0-1.23-.65-1.6-1.31-.34-2-.36-2,1.52s-1.24,3.54-2.27,5.13A1.8,1.8,0,0,0,102,345.15Z"></path> <path class="cls-114" d="M86.41,353.73c4.12-2.06,8.24-4.13,11.11-7.94-.4-1.12-1.11-.7-1.53-.16-2.35,3-5.75,4.73-8.6,7.11A3.09,3.09,0,0,0,86.41,353.73Z"></path> <path class="cls-115" d="M131.17,313.41c.41,0,.85.07,1.22-.2a1,1,0,0,0,.31-1.28c-.23-.51-.6,0-.9.09s-.55.27-.83.41-1.27-.37-1.16.52C129.88,313.56,130.67,313.36,131.17,313.41Z"></path> <path class="cls-18" d="M107.35,339.13l.34,1.58a2.79,2.79,0,0,0,2.69,1.62c4.32-.21,7.45-1.55,9-5.58.5-1.31.06-2.42,0-3.63.1-.58-.4-.87-.63-1.29-.54,1.13.12,2.73-1.39,3.48a25.54,25.54,0,0,1-3.1,1.54,24.62,24.62,0,0,1-5.83,1.3C107.72,338.2,107.3,338.36,107.35,339.13Z"></path> <path class="cls-116" d="M151.49,381.38l-.64-.11a14.93,14.93,0,0,1,1.3,6.11h.32c.39-1.72.64-3.43-.31-5.06a.71.71,0,0,0-.37-.64Z"></path> <path class="cls-117" d="M128,368.36c-.59-1.55-1.89-2.61-2.78-4a16.4,16.4,0,0,1-2.29-6.8,54.9,54.9,0,0,1-.28-10.25c.07-1.94.32-3.88.27-5.82,0-.91.67-1.22,1.26-1.67.43-.33,1.18-.74.84-1.35s-1.06-.1-1.45.19c-1,.79-1-.23-1.17-.7a8.21,8.21,0,0,0-2.64-4,.71.71,0,0,0-.15.72c.3,2.07,0,3.92-1.83,5.26-.31.23-.69.5-.58,1,2.15,2.3,1.63,5.16,1.57,7.89a69.6,69.6,0,0,0,1.3,15.17,4,4,0,0,0,1.35,2.73A13.69,13.69,0,0,0,128,368.36Z"></path> <path class="cls-68" d="M117.2,341c2.72-1.65,3.44-4,2.56-7l-.39-.91c-.39,1.26,0,2.56-.55,3.89a8.4,8.4,0,0,1-8.46,5,5.84,5.84,0,0,1-2.67-1.26,5,5,0,0,0,.63,2.23c1.06.56,2,0,3-.26C113.3,342.18,115.24,341.58,117.2,341Z"></path> <path class="cls-117" d="M147.72,350.53a42.72,42.72,0,0,0-1-7.29A106.09,106.09,0,0,1,144.69,354c-.12.51-.4,1.15.21,1.37s1-.31,1.29-.88a5.84,5.84,0,0,0,.56-2.11A1.92,1.92,0,0,1,147.72,350.53Z"></path> <path class="cls-118" d="M151.79,381.69c.12.21.25.42.37.64l1.74-2.17A2.92,2.92,0,0,0,151.79,381.69Z"></path> </g> </g> </svg> 