<svg width="40" height="40" viewBox="0 0 40 40" fill="none" xmlns="http://www.w3.org/2000/svg">
<path d="M34 0H6C2.68629 0 0 2.68629 0 6V34C0 37.3137 2.68629 40 6 40H34C37.3137 40 40 37.3137 40 34V6C40 2.68629 37.3137 0 34 0Z" fill="#3AB503"/>
<path d="M14 11V29C14 29.7956 13.6313 30.5587 12.9749 31.1213C12.3185 31.6839 11.4283 32 10.5 32C9.57174 32 8.6815 31.6839 8.02513 31.1213C7.36875 30.5587 7 29.7956 7 29V11H14Z" fill="white"/>
<path d="M29.7529 8.02071C30.6141 8.02071 31.44 8.33661 32.0489 8.89891C32.6579 9.46121 33 10.2239 33 11.0191V17.0158C33 17.811 32.6579 18.5736 32.0489 19.1359C31.44 19.6982 30.6141 20.0141 29.7529 20.0141C28.8917 20.0141 28.0658 19.6982 27.4568 19.1359C26.8478 18.5736 26.5057 17.811 26.5057 17.0158V11.0191C26.5057 10.2239 26.8478 9.46121 27.4568 8.89891C28.0658 8.33661 28.8917 8.02071 29.7529 8.02071ZM7.96572 8.89123C8.58379 8.32058 9.42204 8 10.2961 8C11.1701 8 12.0084 8.32058 12.6264 8.89123L32.0259 26.8014C32.6443 27.3725 32.9918 28.1471 32.9918 28.9547C32.9918 29.7624 32.6443 30.537 32.0259 31.1081C31.4074 31.6792 30.5685 32 29.6939 32C28.8192 32 27.9804 31.6792 27.3619 31.1081L7.96572 13.1959C7.65955 12.9133 7.41669 12.5777 7.25099 12.2084C7.08529 11.8391 7 11.4433 7 11.0436C7 10.6438 7.08529 10.248 7.25099 9.87868C7.41669 9.50938 7.65955 9.17384 7.96572 8.89123V8.89123Z" fill="white"/>
</svg>
