<?xml version="1.0" encoding="UTF-8"?> <svg xmlns="http://www.w3.org/2000/svg" viewBox="0 0 112.3 214.01"> <defs> <style>.cls-1{fill:#fff;opacity:0.55;}.cls-2{fill:#29abe2;}.cls-3{fill:#2e3192;}.cls-4{fill:#fcc142;}</style> </defs> <title>калькулятор</title> <g id="Слой_2" data-name="Слой 2"> <g id="Слой_12" data-name="Слой 12"> <path class="cls-1" d="M105.86,208.24,19.45,158.35C15.89,156.3,13,150.78,13,146V5.65C13,.9,15.89-1.28,19.45.77l86.41,49.89c3.56,2.06,6.44,7.57,6.44,12.32V203.37C112.3,208.11,109.42,210.3,105.86,208.24Z"></path> <path class="cls-2" d="M92.86,213.24,6.45,163.35C2.89,161.3,0,155.78,0,151V10.65C0,5.9,2.89,3.72,6.45,5.77L92.86,55.66C96.42,57.72,99.3,63.23,99.3,68V208.37C99.3,213.11,96.42,215.3,92.86,213.24Z"></path> <path class="cls-3" d="M84.47,93.57,13.1,52.36a5.78,5.78,0,0,1-2.42-4.62V28.86c0-1.78,1.08-2.6,2.42-1.83L84.47,68.24a5.78,5.78,0,0,1,2.42,4.62V91.74C86.89,93.52,85.81,94.34,84.47,93.57Z"></path> <path class="cls-3" d="M25.58,157.9,13.1,150.69a5.78,5.78,0,0,1-2.42-4.62V132.52c0-1.78,1.08-2.6,2.42-1.83l12.48,7.21A5.78,5.78,0,0,1,28,142.52v13.55C28,157.85,26.92,158.67,25.58,157.9Z"></path> <path class="cls-3" d="M45.21,169.23,32.73,162a5.78,5.78,0,0,1-2.42-4.62V143.85c0-1.78,1.08-2.59,2.42-1.82l12.48,7.21a5.76,5.76,0,0,1,2.42,4.61v13.56C47.63,169.19,46.55,170,45.21,169.23Z"></path> <path class="cls-3" d="M64.84,180.57l-12.48-7.21a5.78,5.78,0,0,1-2.42-4.62V155.19c0-1.78,1.08-2.6,2.42-1.83l12.48,7.21a5.78,5.78,0,0,1,2.42,4.62v13.55C67.26,180.52,66.18,181.34,64.84,180.57Z"></path> <path class="cls-3" d="M25.58,134.9,13.1,127.69a5.78,5.78,0,0,1-2.42-4.62V109.52c0-1.78,1.08-2.6,2.42-1.83l12.48,7.21A5.78,5.78,0,0,1,28,119.52v13.55C28,134.85,26.92,135.67,25.58,134.9Z"></path> <path class="cls-3" d="M45.21,146.24,32.73,139a5.78,5.78,0,0,1-2.42-4.62V120.86c0-1.78,1.08-2.6,2.42-1.83l12.48,7.21a5.78,5.78,0,0,1,2.42,4.62v13.55C47.63,146.19,46.55,147,45.21,146.24Z"></path> <path class="cls-3" d="M64.84,157.57l-12.48-7.21a5.78,5.78,0,0,1-2.42-4.62V132.19c0-1.78,1.08-2.6,2.42-1.83l12.48,7.21a5.78,5.78,0,0,1,2.42,4.62v13.55C67.26,157.52,66.18,158.34,64.84,157.57Z"></path> <path class="cls-3" d="M84.47,191.9,72,184.69a5.78,5.78,0,0,1-2.42-4.62V166.52c0-1.78,1.08-2.6,2.42-1.83l12.48,7.21a5.78,5.78,0,0,1,2.42,4.62v13.55C86.89,191.85,85.81,192.67,84.47,191.9Z"></path> <path class="cls-3" d="M84.47,168.9,72,161.69a5.78,5.78,0,0,1-2.42-4.62V143.52c0-1.78,1.08-2.6,2.42-1.83l12.48,7.21a5.78,5.78,0,0,1,2.42,4.62v13.55C86.89,168.85,85.81,169.67,84.47,168.9Z"></path> <path class="cls-3" d="M25.58,111.9,13.1,104.69a5.76,5.76,0,0,1-2.42-4.62V86.52c0-1.78,1.08-2.6,2.42-1.82l12.48,7.2A5.78,5.78,0,0,1,28,96.52v13.55C28,111.86,26.92,112.67,25.58,111.9Z"></path> <path class="cls-3" d="M45.21,123.24,32.73,116a5.78,5.78,0,0,1-2.42-4.62V97.86c0-1.78,1.08-2.6,2.42-1.83l12.48,7.21a5.78,5.78,0,0,1,2.42,4.62v13.55C47.63,123.19,46.55,124,45.21,123.24Z"></path> <path class="cls-3" d="M64.84,134.57l-12.48-7.21a5.78,5.78,0,0,1-2.42-4.62V109.19c0-1.78,1.08-2.6,2.42-1.83l12.48,7.21a5.78,5.78,0,0,1,2.42,4.62v13.55C67.26,134.52,66.18,135.34,64.84,134.57Z"></path> <path class="cls-3" d="M84.47,145.9,72,138.69a5.76,5.76,0,0,1-2.42-4.62V120.52c0-1.78,1.08-2.6,2.42-1.82l12.48,7.2a5.78,5.78,0,0,1,2.42,4.62v13.55C86.89,145.86,85.81,146.67,84.47,145.9Z"></path> <path class="cls-3" d="M25.58,88.9,13.1,81.7a5.79,5.79,0,0,1-2.42-4.62V63.52c0-1.78,1.08-2.6,2.42-1.82l12.48,7.2A5.78,5.78,0,0,1,28,73.52V87.08C28,88.86,26.92,89.67,25.58,88.9Z"></path> <path class="cls-3" d="M45.21,100.24,32.73,93a5.78,5.78,0,0,1-2.42-4.62V74.86c0-1.78,1.08-2.6,2.42-1.83l12.48,7.21a5.78,5.78,0,0,1,2.42,4.62V98.41C47.63,100.19,46.55,101,45.21,100.24Z"></path> <path class="cls-3" d="M64.84,111.57l-12.48-7.21a5.78,5.78,0,0,1-2.42-4.62V86.19c0-1.78,1.08-2.6,2.42-1.83l12.48,7.21a5.78,5.78,0,0,1,2.42,4.62v13.55C67.26,111.52,66.18,112.34,64.84,111.57Z"></path> <path class="cls-3" d="M84.47,122.9,72,115.7a5.79,5.79,0,0,1-2.42-4.62V97.52c0-1.78,1.08-2.6,2.42-1.82l12.48,7.2a5.78,5.78,0,0,1,2.42,4.62v13.56C86.89,122.86,85.81,123.67,84.47,122.9Z"></path> <path class="cls-4" d="M62,168.54l-6.53-3.77v-2.52L62,166Zm0,3.29-6.53-3.77v-2.52L62,169.31Z"></path> <path class="cls-4" d="M16.78,145.64a6.38,6.38,0,0,1-1-3.3,2.15,2.15,0,0,1,1-2.13,2.7,2.7,0,0,1,2.56.4,7.11,7.11,0,0,1,2.56,2.55,6.29,6.29,0,0,1,1,3.31,2.13,2.13,0,0,1-1,2.13,2.72,2.72,0,0,1-2.56-.42A7.15,7.15,0,0,1,16.78,145.64Zm3.34.15a.85.85,0,0,0,.3-.77,2.29,2.29,0,0,0-.3-1.09c-.41-.75-1.14-1.17-1.55-.9a.81.81,0,0,0-.31.75,2.2,2.2,0,0,0,.31,1.11C19,145.61,19.72,146.05,20.12,145.79Z"></path> <path class="cls-4" d="M21.15,125.31l-2.55-1.47v-4.09l-1.69-.18v-2.84l2,0,2.25,1.3Z"></path> <path class="cls-4" d="M42.2,137.46,36,133.9v-2.17a24.14,24.14,0,0,0,2.43,0,2.4,2.4,0,0,0,.63-.08c.2-.06.25-.14.25-.27s-.18-.44-.56-.66a4.58,4.58,0,0,0-2.46-.58v-2.62a4.56,4.56,0,0,1,2.73.77,6.7,6.7,0,0,1,2.07,1.85,3.93,3.93,0,0,1,.81,2.38,1.16,1.16,0,0,1-.72,1.2,2.68,2.68,0,0,1-1.74,0l2.72,1.57Z"></path> <path class="cls-4" d="M38.73,158.07l-2.1-1.21,1.13-4.25,2.63,1.52Z"></path> <path class="cls-4" d="M55.47,146.7V144a9.45,9.45,0,0,0,2.45,2.32c.77.44,1.28.35,1.28-.26a2,2,0,0,0-1.11-1.62,2.91,2.91,0,0,0-1.42-.48v-1.81l1.68-.58L55.67,140v-2.51l5.71,3.3v2.24l-1.47.61a5.72,5.72,0,0,1,1.89,4c0,1.05-.35,1.7-1,1.94a3.15,3.15,0,0,1-2.57-.52A9.39,9.39,0,0,1,55.47,146.7Z"></path> <path class="cls-4" d="M21.85,105l-2.61-1.5v-2.79L15.4,98.49v-2l3.88-2.94L21.85,95v5l1.1.64v2.24l-1.1-.64Zm-2.61-8.26-1.3,1,1.3.75Z"></path> <path class="cls-4" d="M36.08,112.6v-2.75a8,8,0,0,0,2.36,2.21c.84.48,1.26.39,1.26-.29a2.3,2.3,0,0,0-1.35-1.83,6.69,6.69,0,0,0-2-.79l.56-5.49,4.87,2.81V109l-3-1.71-.05.69.27.14a6.58,6.58,0,0,1,2.39,2.24,5.22,5.22,0,0,1,.92,2.93,2.33,2.33,0,0,1-.54,1.72c-.72.7-1.85.53-3.19-.25A8.84,8.84,0,0,1,36.08,112.6Z"></path> <path class="cls-4" d="M61.36,121.75a5.52,5.52,0,0,1,.76,2.84c0,1.08-.32,1.75-.93,2a2.54,2.54,0,0,1-2.35-.39,6.71,6.71,0,0,1-2.63-2.75,8.23,8.23,0,0,1-.92-3.88,4.87,4.87,0,0,1,.93-3.25c.64-.75,1.75-.8,3.16,0a6.7,6.7,0,0,1,2,1.76v2.62a5.51,5.51,0,0,0-1.73-1.62c-.92-.53-1.67-.46-1.78.44.36-.25.87-.18,1.53.2A5.2,5.2,0,0,1,61.36,121.75Zm-1.78,1.39a1.94,1.94,0,0,0-.89-1.57c-.38-.22-.8-.18-1,.13a2.35,2.35,0,0,0,.93,2C59.26,124.06,59.58,123.8,59.58,123.14Z"></path> <path class="cls-4" d="M19,80.38l-2.75-1.59,3.19-5.67-3.52-2v-2.5l6.39,3.69v2.34Z"></path> <path class="cls-4" d="M42.31,88.74a3.8,3.8,0,0,1,.41,1.62c0,1-.34,1.56-1,1.71a3.76,3.76,0,0,1-2.5-.66,8,8,0,0,1-2.51-2.24,4.8,4.8,0,0,1-1-2.88,1.6,1.6,0,0,1,.4-1.16,1.16,1.16,0,0,1,1-.36,4.36,4.36,0,0,1-1-2.52c0-.86.3-1.37.9-1.54a3,3,0,0,1,2.28.51,7.16,7.16,0,0,1,2.27,2.11,4.58,4.58,0,0,1,.91,2.59c0,.78-.44,1.34-1,1.34A5.56,5.56,0,0,1,42.31,88.74Zm-3.12-1.63c-.58-.34-1-.16-1,.38a1.93,1.93,0,0,0,1,1.49c.57.33,1,.17,1-.35A1.91,1.91,0,0,0,39.19,87.11Zm-.57-3.6c-.3.12-.3.66,0,1.12s.84.77,1.14.66.3-.65,0-1.12S38.92,83.4,38.62,83.51Z"></path> <path class="cls-4" d="M56,97a5.55,5.55,0,0,1-.75-2.83c0-1.08.32-1.75.93-2.05a2.52,2.52,0,0,1,2.35.37,6.71,6.71,0,0,1,2.62,2.76,8.35,8.35,0,0,1,.93,3.88,5.07,5.07,0,0,1-1,3.3c-.62.76-1.73.84-3.14,0a6.57,6.57,0,0,1-2-1.76V98.07a5.59,5.59,0,0,0,1.73,1.61c.91.53,1.67.41,1.78-.52-.36.25-.87.18-1.53-.2A5.32,5.32,0,0,1,56,97Zm1.79-1.47a2,2,0,0,0,.87,1.67c.42.25.75.24,1,0a2.39,2.39,0,0,0-1-2.17C58.09,94.65,57.77,94.86,57.77,95.51Z"></path> <path class="cls-4" d="M80.2,157.2l-4.08-2.36v-2.56l4.08,2.36Z"></path> <path class="cls-4" d="M75.37,126.84l2.15,1.24.64,1.7.63-1,2.15,1.24-1.62,1.83,1.7,3.89-2.18-1.26-.7-1.82-.71,1-2.15-1.24L77,130.54Z"></path> <path class="cls-4" d="M74.9,176.91v-2.57l2.16,1.25v-2.51l2.22,1.29v2.5l2.14,1.24v2.57l-2.14-1.24v2.49l-2.22-1.28v-2.5Z"></path> <path class="cls-4" d="M81.47,111.71l-6.62-3.83v-2.56l6.62,3.82Zm-4.34-8.45a1,1,0,0,1,1,.1,2.83,2.83,0,0,1,1,1.1,2.89,2.89,0,0,1,.44,1.45.9.9,0,0,1-1.47.85,3.26,3.26,0,0,1-1.48-2.55A1,1,0,0,1,77.13,103.26Zm0,6.92a1,1,0,0,1,1,.1,2.83,2.83,0,0,1,1,1.1,2.89,2.89,0,0,1,.44,1.45,1,1,0,0,1-.44,1,1.07,1.07,0,0,1-1-.12,3,3,0,0,1-1-1.1,2.88,2.88,0,0,1-.44-1.44A1,1,0,0,1,77.13,110.18Z"></path> </g> </g> </svg> 