<?xml version="1.0" encoding="UTF-8"?> <svg xmlns="http://www.w3.org/2000/svg" viewBox="0 0 319.65 184.55"> <defs> <style>.cls-1{fill:#00b28f;}.cls-2{fill:#fff;}.cls-3{fill:#db6952;}</style> </defs> <title>Спортплощадка зеленая</title> <g id="Слой_2" data-name="Слой 2"> <g id="Слой_12" data-name="Слой 12"> <polygon class="cls-1" points="319.65 119.22 206.5 184.55 0 65.33 113.15 0 319.65 119.22"></polygon> <path class="cls-2" d="M113.15,1.91l203.2,117.31L206.5,182.64,3.3,65.33,113.15,1.91m0-1.91L0,65.33,206.5,184.55l113.15-65.33L113.15,0Z"></path> <polygon class="cls-1" points="301.56 129.66 224.58 174.11 18.08 54.89 95.07 10.44 301.56 129.66"></polygon> <path class="cls-2" d="M95.07,12.35,298.26,129.66,224.58,172.2,21.38,54.89,95.07,12.35m0-1.91-77,44.45,206.5,119.22,77-44.45L95.07,10.44Z"></path> <polygon class="cls-1" points="261.61 106.59 184.62 151.04 58.04 77.96 135.03 33.51 261.61 106.59"></polygon> <path class="cls-2" d="M135,35.42,258.3,106.59l-73.68,42.54L61.34,78,135,35.42m0-1.91L58,78,184.62,151l77-44.45L135,33.51Z"></path> <line class="cls-3" x1="97.12" y1="56.07" x2="222.06" y2="128.2"></line> <polygon class="cls-2" points="222.88 127.73 221.23 128.68 96.3 56.55 97.95 55.6 222.88 127.73"></polygon> </g> </g> </svg> 