<?xml version="1.0" encoding="UTF-8"?> <svg xmlns="http://www.w3.org/2000/svg" viewBox="0 0 340 169.75"> <defs> <style>.cls-1{fill:#fff;}.cls-2{fill:#fcc142;}.cls-3{fill:#2e3192;}</style> </defs> <title>ФИНАНСОВЫЙ ЗАЛ</title> <g id="Слой_2" data-name="Слой 2"> <g id="Слой_8_копия3_" data-name="Слой 8 (копия3)"> <polygon class="cls-1" points="340 136 15.5 136 7.67 140 4 136 4 0 340 0 340 136"></polygon> <polygon class="cls-2" points="336 140 11.5 140 0 169.75 0 140 0 4 336 4 336 140"></polygon> <path class="cls-3" d="M34.94,64.88H27.63V62.22a12,12,0,0,1-8.19-3.36,10.11,10.11,0,0,1-3-7.31,10,10,0,0,1,3-7.28,12,12,0,0,1,8.19-3.36V38.83h7.31v2.08a11.88,11.88,0,0,1,8.2,3.36,10.1,10.1,0,0,1,3,7.28,10.24,10.24,0,0,1-3,7.31,11.88,11.88,0,0,1-8.2,3.36ZM27.63,47.09c-1.93.14-3.7,1.6-3.7,4.46s1.77,4.32,3.7,4.49ZM34.94,56c1.94-.17,3.71-1.67,3.71-4.49s-1.77-4.32-3.71-4.46Z"></path> <path class="cls-3" d="M57,63.79H50.75V40h7.08V51.82L67,40h6v23.8H66V52.06Z"></path> <path class="cls-3" d="M85.64,63.79H78.33V40h7.31v8.06h7.27V40h7.31v23.8H92.91V54.4H85.64Z"></path> <path class="cls-3" d="M111.31,63.79h-7.55l9.79-23.94h7l9.83,23.94h-7.86l-1.7-4.46H113Zm5.61-15.57-1.77,5.64h3.5Z"></path> <path class="cls-3" d="M141.16,63.79h-7.31V40h7.31v8.06h7.27V40h7.31v23.8h-7.31V54.4h-7.27Z"></path> <path class="cls-3" d="M164.25,60.83a11.44,11.44,0,0,1-3.88-8.94A11.43,11.43,0,0,1,164.21,43a14,14,0,0,1,9.72-3.47,13.09,13.09,0,0,1,6,1.26v6.9a12.07,12.07,0,0,0-5.81-1.56,6.28,6.28,0,0,0-4.49,1.66,5.67,5.67,0,0,0,.07,8.3,7,7,0,0,0,4.69,1.6,9.94,9.94,0,0,0,5.88-1.7v7A14,14,0,0,1,174,64.23,14.19,14.19,0,0,1,164.25,60.83Z"></path> <path class="cls-3" d="M188.08,43.15a13.27,13.27,0,0,1,18.26,0,12.45,12.45,0,0,1,0,17.51,13.42,13.42,0,0,1-18.26,0,12.41,12.41,0,0,1,0-17.48Zm9.14,14.45A5,5,0,0,0,201,56a5.91,5.91,0,0,0,1.49-4.11A5.75,5.75,0,0,0,201,47.81a5.19,5.19,0,0,0-7.55,0,5.76,5.76,0,0,0-1.5,4.08,5.92,5.92,0,0,0,1.5,4.11A4.93,4.93,0,0,0,197.22,57.6Z"></path> <path class="cls-3" d="M214.6,63.79V40h12.07a8.92,8.92,0,0,1,5.44,1.56,5.21,5.21,0,0,1,2.14,4.52A4.43,4.43,0,0,1,233.3,49a5.82,5.82,0,0,1-1.91,1.64,5.57,5.57,0,0,1,3,2,6.26,6.26,0,0,1,1.49,4.25,6,6,0,0,1-2.41,5,9.92,9.92,0,0,1-6.32,1.91Zm7.31-18.12v3.19h3.7a1.62,1.62,0,0,0,1.74-1.53,1.65,1.65,0,0,0-1.74-1.66Zm0,8.29v3.95h3.84A1.93,1.93,0,0,0,227.93,56a2,2,0,0,0-2.18-2Z"></path> <path class="cls-3" d="M240.17,63.79V40h7.31v6.87h2.61a10.35,10.35,0,0,1,7.14,2.41,8.21,8.21,0,0,1,0,12.17,10.51,10.51,0,0,1-7.18,2.35Zm7.31-11.22V57.7h2.14c1.77,0,3-1,3-2.51a2.7,2.7,0,0,0-3-2.62ZM269.3,63.79H262V40h7.27Z"></path> <path class="cls-3" d="M280.83,63.79h-6.22V40h7.07V51.82L290.86,40h6v23.8h-7V52.06Zm.27-26.59a5.91,5.91,0,0,1-1.94-4.52h4.63a1.72,1.72,0,0,0,2,1.84,1.7,1.7,0,0,0,1.94-1.84h4.69a5.91,5.91,0,0,1-1.9,4.52,7.58,7.58,0,0,1-9.39,0Z"></path> <path class="cls-3" d="M16.11,96V89.19a14.14,14.14,0,0,0,8.2,2.58c2.72,0,4.08-.68,4.08-2,0-1.12-1.06-1.49-3-1.49H21.86V82.73h3.91c1.53,0,2.31-.45,2.31-1.33s-1.15-1.53-3.43-1.53a16.86,16.86,0,0,0-7.75,1.77V75.42a18.56,18.56,0,0,1,8.5-1.91,11.82,11.82,0,0,1,7.27,2,5.93,5.93,0,0,1,2.69,5,4.8,4.8,0,0,1-2.86,4.76,5.82,5.82,0,0,1,3.44,5.34,6.62,6.62,0,0,1-2.89,5.47c-1.91,1.47-4.49,2.18-7.76,2.18A17,17,0,0,1,16.11,96Z"></path> <path class="cls-3" d="M46,97.79H38.42l9.79-23.94h7L65,97.79H57.15l-1.7-4.46H47.7Zm5.61-15.57-1.77,5.64h3.5Z"></path> <path class="cls-3" d="M66.71,91a4.27,4.27,0,0,0,1.66.44,2.86,2.86,0,0,0,1.87-.51c.82-.71,1.43-3.3,1.5-9l.1-8H90.61v23.8H83.33V80.28H78.47l0,2.85c-.07,5.82-.89,9.8-2.42,12a6.51,6.51,0,0,1-6,3,6.78,6.78,0,0,1-3.33-.61Z"></path> </g> </g> </svg> 