<?xml version="1.0" encoding="UTF-8"?> <svg xmlns="http://www.w3.org/2000/svg" xmlns:xlink="http://www.w3.org/1999/xlink" viewBox="0 0 365.63 484.19"> <defs> <style>.cls-1{fill:#29abe2;}.cls-1,.cls-2,.cls-3,.cls-5,.cls-6{opacity:0.5;}.cls-2{fill:url(#Безымянный_градиент_85);}.cls-3{fill:#ff8383;}.cls-4,.cls-7{fill:#fff;}.cls-4{opacity:0.25;}.cls-5{fill:#00f4c5;}.cls-10,.cls-6{fill:aqua;}.cls-8{fill:#4dd1ff;}.cls-9{fill:#fcc142;}.cls-10{opacity:0.3;}.cls-11{fill:#ff6464;}</style> <linearGradient id="Безымянный_градиент_85" y1="350.07" x2="357.22" y2="350.07" gradientUnits="userSpaceOnUse"> <stop offset="0" stop-color="#191c78"></stop> <stop offset="1" stop-color="#6165d9"></stop> </linearGradient> </defs> <title>Карточки</title> <g id="Слой_2" data-name="Слой 2"> <g id="Макетирование"> <g id="Слой_14" data-name="Слой 14"> <path class="cls-1" d="M352.72,367.55l-197.53,114c-6.68,3.85-18.34,3.37-26.05-1.08L6.38,409.63c-7.71-4.45-8.55-11.18-1.87-15L202,280.55c6.68-3.85,18.34-3.37,26.05,1.08l122.77,70.88C358.56,357,359.39,363.69,352.72,367.55Z"></path> <path class="cls-2" d="M352.72,336.55l-197.53,114c-6.68,3.85-18.34,3.37-26.05-1.08L6.38,378.63c-7.71-4.45-8.55-11.18-1.87-15L202,249.55c6.68-3.85,18.34-3.37,26.05,1.08l122.77,70.88C358.56,326,359.39,332.69,352.72,336.55Z"></path> <path class="cls-3" d="M352.72,305.55l-197.53,114c-6.68,3.85-18.34,3.37-26.05-1.08L6.38,347.63c-7.71-4.45-8.55-11.18-1.87-15L202,218.55c6.68-3.85,18.34-3.37,26.05,1.08l122.77,70.88C358.56,295,359.39,301.69,352.72,305.55Z"></path> <path class="cls-4" d="M352.72,274.55l-197.53,114c-6.68,3.85-18.34,3.37-26.05-1.08L6.38,316.63c-7.71-4.45-8.55-11.18-1.87-15L202,187.55c6.68-3.85,18.34-3.37,26.05,1.08l122.77,70.88C358.56,264,359.39,270.69,352.72,274.55Z"></path> <path class="cls-5" d="M352.72,243.55l-197.53,114c-6.68,3.85-18.34,3.37-26.05-1.08L6.38,285.63c-7.71-4.45-8.55-11.18-1.87-15L202,156.55c6.68-3.85,18.34-3.37,26.05,1.08l122.77,70.88C358.56,233,359.39,239.69,352.72,243.55Z"></path> <path class="cls-6" d="M313.86,234,147.22,330.17A5.79,5.79,0,0,1,142,330l-8.27-4.78c-1.54-.89-1.71-2.24-.37-3L300,226a5.76,5.76,0,0,1,5.21.21l8.27,4.78C315,231.85,315.19,233.19,313.86,234Z"></path> <polygon class="cls-7" points="179.12 468.06 176.21 469.73 176.21 345.65 179.12 343.98 179.12 468.06"></polygon> <polygon class="cls-8" points="101.92 464.9 104.82 466.58 104.82 342.5 101.92 340.82 101.92 464.9"></polygon> <polygon class="cls-7" points="23.38 419.54 26.29 421.22 26.29 297.14 23.38 295.46 23.38 419.54"></polygon> <polygon class="cls-7" points="253.99 424.64 251.09 426.32 251.09 302.24 253.99 300.56 253.99 424.64"></polygon> <polygon class="cls-9" points="266.62 417.35 263.71 419.02 263.71 294.95 266.62 293.27 266.62 417.35"></polygon> <polygon class="cls-7" points="304.36 395.56 301.45 397.23 301.45 273.15 304.36 271.48 304.36 395.56"></polygon> <path class="cls-7" d="M104.2,255.49a13.41,13.41,0,0,1,12.12,0L136.24,267c3.34,1.93,3.34,5.07,0,7L101,294.32a13.41,13.41,0,0,1-12.12,0L69,282.82c-3.34-1.93-3.34-5.07,0-7l35.22-20.33m-1.73-1L67.25,274.82c-4.31,2.48-4.31,6.51,0,9l19.92,11.5a17.26,17.26,0,0,0,15.59,0L138,275c4.31-2.49,4.31-6.52,0-9l-19.91-11.5a17.2,17.2,0,0,0-15.59,0Z"></path> <path class="cls-10" d="M141.2,199.63l0,0c.08-1.68-1-3.38-3.21-4.66l-19.92-11.5a17.2,17.2,0,0,0-15.59,0L67.24,203.82c-2.21,1.27-3.27,3-3.22,4.63l.08,69.93,0,.05c-.46,1.91.57,3.92,3.11,5.39l19.92,11.5a17.26,17.26,0,0,0,15.59,0L138,275c2.34-1.36,3.39-3.16,3.19-4.93l0,0ZM69,204.82l35.22-20.33a13.43,13.43,0,0,1,12.13,0L136.23,196c3.35,1.93,3.35,5.07,0,7L101,223.32a13.43,13.43,0,0,1-12.13,0L69,211.82C65.63,209.89,65.63,206.75,69,204.82Z"></path> <path class="cls-9" d="M104.2,184.49a13.41,13.41,0,0,1,12.12,0L136.24,196c3.34,1.93,3.34,5.07,0,7L101,223.32a13.41,13.41,0,0,1-12.12,0L69,211.82c-3.34-1.93-3.34-5.07,0-7l35.22-20.33m-1.73-1L67.25,203.82c-4.31,2.48-4.31,6.51,0,9l19.92,11.5a17.26,17.26,0,0,0,15.59,0L138,204c4.31-2.49,4.31-6.52,0-9l-19.91-11.5a17.2,17.2,0,0,0-15.59,0Z"></path> <path class="cls-3" d="M104.2,173.49a13.41,13.41,0,0,1,12.12,0L136.24,185c3.34,1.93,3.34,5.07,0,7L101,212.32a13.41,13.41,0,0,1-12.12,0L69,200.82c-3.34-1.93-3.34-5.07,0-7l35.22-20.33m-1.73-1L67.25,192.82c-4.31,2.48-4.31,6.51,0,9l19.92,11.5a17.26,17.26,0,0,0,15.59,0L138,193c4.31-2.49,4.31-6.52,0-9l-19.91-11.5a17.2,17.2,0,0,0-15.59,0Z"></path> <polygon class="cls-11" points="349.79 7.6 284.99 119.83 266.68 109.26 225.41 180.75 210.82 172.33 162.34 256.3 175.5 248.7 210.82 187.54 225.41 195.96 266.68 124.47 284.99 135.04 362.96 0 349.79 7.6"></polygon> <polygon class="cls-9" points="352.46 9.6 287.66 121.83 269.35 111.26 228.07 182.75 213.49 174.33 165 258.3 178.17 250.7 213.49 189.54 228.07 197.96 269.35 126.47 287.66 137.04 365.63 2 352.46 9.6"></polygon> </g> </g> </g> </svg> 