<?xml version="1.0" encoding="UTF-8"?> <svg xmlns="http://www.w3.org/2000/svg" xmlns:xlink="http://www.w3.org/1999/xlink" viewBox="0 0 415.03 339.65"> <defs> <style>.cls-1{fill:#e03f3f;}.cls-2{fill:#ff6464;}.cls-3{fill:#ff9e88;}.cls-4{fill:url(#Безымянный_градиент_64);}.cls-5{fill:#6ed2f4;}</style> <linearGradient id="Безымянный_градиент_64" x1="-162.71" y1="-285.36" x2="-134.99" y2="-285.36" gradientTransform="matrix(0.49, -0.87, -0.87, -0.49, 33.17, -95.51)" gradientUnits="userSpaceOnUse"> <stop offset="0" stop-color="#ff6464"></stop> <stop offset="0.62" stop-color="#e03f3f"></stop> <stop offset="0.99" stop-color="#ba2727"></stop> </linearGradient> </defs> <title>штанга кр</title> <g id="Слой_2" data-name="Слой 2"> <g id="Слой_12" data-name="Слой 12"> <ellipse class="cls-1" cx="73.07" cy="94.35" rx="103.33" ry="59.66" transform="translate(-45.17 110.45) rotate(-60)"></ellipse> <ellipse class="cls-2" cx="85.98" cy="102.31" rx="103.33" ry="59.66" transform="translate(-45.62 125.61) rotate(-60)"></ellipse> <path class="cls-3" d="M118.62,20.88c8,0,14.43,3,19.11,8.83,5.5,6.89,8.4,17.41,8.4,30.42,0,20.3-7,43.58-19.67,65.55S97.11,165.35,79.52,175.5c-9.34,5.39-18.4,8.25-26.17,8.25-8,0-14.44-3-19.12-8.83-5.5-6.89-8.4-17.41-8.4-30.42,0-20.31,7-43.59,19.67-65.56S74.85,39.28,92.44,29.13c9.34-5.4,18.4-8.25,26.18-8.25h0m0-12.91c-9.82,0-20.9,3.2-32.63,10-40.35,23.3-73.07,80-73.07,126.56,0,33.05,16.46,52.16,40.44,52.16,9.82,0,20.9-3.21,32.63-10,40.36-23.3,73.07-80,73.07-126.55C159.05,27.07,142.59,8,118.61,8Z"></path> <path class="cls-1" d="M116.54,42.76q-8.15-3.06-23.77,6L65.34,64.56v46.66l-8.51,4.91v17.11l8.51-4.91v4.84l-8.51,4.92V155.2l8.51-4.92v13.45l18.21-10.51V139.77l21.8-12.59V110.07l-21.8,12.59v-4.72l7.81-4.51q16-9.23,24.65-22.71a53.43,53.43,0,0,0,8.67-29.49Q124.68,45.84,116.54,42.76Zm-14.42,43.4a36.35,36.35,0,0,1-12,10.72l-6.62,3.82V71.27l8.28-4.78q7.47-4.3,11-2.8t3.5,8.9A23.93,23.93,0,0,1,102.12,86.16Z"></path> <path class="cls-3" d="M110.43,41.12q-7.49,0-19.15,6.73L63.85,63.7v46.66l-8.52,4.91v17.11l8.52-4.91v4.84l-8.52,4.92v17.11l8.52-4.92v13.45l18.21-10.51V138.91l21.8-12.59V109.21L82.06,121.8v-4.72l7.81-4.51q16-9.22,24.65-22.71a53.44,53.44,0,0,0,8.66-29.49q0-15.4-8.13-18.47a13,13,0,0,0-4.62-.78ZM82.06,99.84V70.41l8.28-4.78C94,63.5,97,62.44,99.22,62.44a5.25,5.25,0,0,1,2.08.39q3.49,1.52,3.5,8.9a23.94,23.94,0,0,1-4.18,13.57A36.31,36.31,0,0,1,88.68,96l-6.62,3.82Z"></path> <path class="cls-4" d="M78.37,115.87a7.94,7.94,0,0,1-1.7-5.25c-.08-6.25,4.2-13.91,9.57-17.11a8,8,0,0,1,5.37-1.3,13.74,13.74,0,0,1,2.6,1.11h0L346.42,234.42l-13.53,24.19L80.72,117.53h0Z"></path> <ellipse class="cls-5" cx="339.66" cy="246.51" rx="13.86" ry="8" transform="translate(-41.31 422.59) rotate(-60.78)"></ellipse> <ellipse class="cls-1" cx="329.05" cy="237.34" rx="103.33" ry="59.66" transform="translate(-41.02 403.63) rotate(-60)"></ellipse> <ellipse class="cls-2" cx="341.97" cy="245.31" rx="103.33" ry="59.66" transform="translate(-41.46 418.79) rotate(-60)"></ellipse> <path class="cls-3" d="M374.6,163.87c8,0,14.44,3,19.11,8.83,5.5,6.89,8.41,17.41,8.41,30.42,0,20.3-7,43.59-19.67,65.56s-29.36,39.66-46.94,49.81c-9.35,5.4-18.4,8.25-26.18,8.25-8,0-14.44-3-19.11-8.83-5.5-6.89-8.41-17.41-8.41-30.42,0-20.3,7-43.59,19.67-65.56s29.36-39.66,46.94-49.81c9.35-5.4,18.4-8.25,26.18-8.25h0m0-12.91c-9.82,0-20.91,3.21-32.63,10-40.36,23.3-73.07,80-73.07,126.55,0,33.06,16.46,52.16,40.43,52.16,9.82,0,20.91-3.21,32.64-10,40.35-23.3,73.06-80,73.06-126.55C415,170.06,398.57,151,374.6,151Z"></path> <path class="cls-1" d="M372.52,185.75q-8.13-3.06-23.76,6l-27.44,15.84v46.66l-8.51,4.92v17.11l8.51-4.92v4.84l-8.51,4.92v17.11l8.51-4.92v13.46l18.22-10.52V282.76l21.8-12.59V253.06l-21.8,12.59v-4.71l7.81-4.52q16-9.23,24.64-22.7a53.46,53.46,0,0,0,8.67-29.5Q380.66,188.83,372.52,185.75Zm-14.42,43.4a36.3,36.3,0,0,1-11.94,10.72l-6.62,3.83V214.26l8.28-4.78q7.46-4.3,11-2.8t3.49,8.91A23.92,23.92,0,0,1,358.1,229.15Z"></path> <path class="cls-3" d="M366.42,184.12q-7.49,0-19.15,6.73l-27.44,15.84v46.66l-8.51,4.91v17.11l8.51-4.91v4.84l-8.51,4.92v17.11l8.51-4.92v13.46L338,295.35V281.9l21.8-12.59V252.2L338,264.79v-4.72l7.82-4.51q16-9.23,24.64-22.71a53.4,53.4,0,0,0,8.67-29.49q0-15.39-8.14-18.47a12.92,12.92,0,0,0-4.61-.77ZM338,242.84V213.4l8.29-4.78q5.52-3.19,8.87-3.19a5.18,5.18,0,0,1,2.08.39q3.5,1.52,3.5,8.91a23.92,23.92,0,0,1-4.17,13.56A36.24,36.24,0,0,1,344.66,239L338,242.84Z"></path> </g> </g> </svg> 