<?xml version="1.0" encoding="UTF-8"?> <svg xmlns="http://www.w3.org/2000/svg" xmlns:xlink="http://www.w3.org/1999/xlink" viewBox="0 0 981.28 785.34"> <defs> <style>.cls-1{fill:#ea990a;}.cls-2{fill:#fcc142;}.cls-3{fill:#ffd47d;}.cls-4{fill:url(#Безымянный_градиент_36);}.cls-5{fill:#6ed2f4;}</style> <linearGradient id="Безымянный_градиент_36" x1="710.07" y1="305.05" x2="773.33" y2="305.05" gradientTransform="translate(581.86 1196.85) rotate(-119.22)" gradientUnits="userSpaceOnUse"> <stop offset="0" stop-color="#fcc142"></stop> <stop offset="0.62" stop-color="#eb9a0c"></stop> <stop offset="0.99" stop-color="#bf7a00"></stop> </linearGradient> </defs> <title>штанга</title> <g id="Слой_2" data-name="Слой 2"> <g id="Слой_12" data-name="Слой 12"> <ellipse class="cls-1" cx="811.54" cy="219.18" rx="138.59" ry="240.05" transform="translate(-0.86 435.16) rotate(-30)"></ellipse> <ellipse class="cls-2" cx="784.71" cy="239.18" rx="138.59" ry="240.05" transform="translate(-14.45 424.42) rotate(-30)"></ellipse> <path class="cls-3" d="M708.9,20V50C727,50,748,56.63,769.71,69.16,790.08,80.92,810,97.1,828.9,117.26a377.37,377.37,0,0,1,83.5,144.61c8,26.45,12.05,51.79,12.05,75.31,0,30.22-6.75,54.66-19.53,70.66-10.86,13.61-25.8,20.51-44.4,20.51-18.07,0-39.09-6.62-60.81-19.16-20.37-11.76-40.28-27.94-59.19-48.09a367,367,0,0,1-49.85-67.63,367.24,367.24,0,0,1-33.65-77c-8-26.46-12-51.8-12-75.31,0-30.23,6.75-54.67,19.53-70.67C675.36,56.9,690.3,50,708.9,50V20m0,0C653.21,20,615,64.39,615,141.18c0,108.24,76,239.87,169.74,294,27.25,15.73,53,23.18,75.81,23.18,55.69,0,93.93-44.39,93.93-121.17,0-108.25-76-239.87-169.74-294C757.46,27.45,731.72,20,708.9,20Z"></path> <path class="cls-1" d="M736.75,96.09v108.4L717,193.07v39.75l19.77,11.42v11.25L717,244.07v39.75l19.77,11.42v31.25l42.31,24.43V319.67l50.65,29.24V309.16l-50.65-29.24V269l18.16,10.48q27,15.57,45,15.57a32.61,32.61,0,0,0,12.29-2.22q20.13-8.07,20.13-45.26,0-35.78-18.9-64.73t-55.21-49.92l-63.74-36.8Zm80.55,149.6q-8.77,0-22.86-7.89l-15.38-8.88V160.55l19.25,11.11q17.33,10,25.45,22.89t8.12,30.06q0,17-9.69,20.33a15,15,0,0,1-4.89.75Z"></path> <path class="cls-3" d="M733.29,90.09v108.4l-19.77-11.42v39.75l19.77,11.42v11.25l-19.77-11.42v39.75l19.77,11.42v31.25l42.31,24.43V313.67l50.64,29.24V303.16L775.6,273.92V263l18.15,10.48q27,15.57,45,15.57a32.86,32.86,0,0,0,12.3-2.21q20.13-8.08,20.13-45.27,0-35.78-18.91-64.73T797,126.89l-63.74-36.8Zm80.54,149.6q-8.76,0-22.85-7.89l-15.38-8.88V154.55l19.24,11.11q17.34,10,25.46,22.89t8.12,30.06q0,17-9.69,20.33a15.13,15.13,0,0,1-4.9.75Z"></path> <path class="cls-4" d="M785.33,268.61c2.36-2.7,3.79-6.76,3.86-12,.19-14.26-9.58-31.74-21.84-39-4.51-2.69-8.71-3.59-12.25-3a31.89,31.89,0,0,0-5.94,2.56h0l0,0h0l-575.53,322,30.88,55.21L780,272.39l0,0h0l0,0h0Z"></path> <ellipse class="cls-5" cx="188.97" cy="566.77" rx="18.26" ry="31.63" transform="translate(-252.65 164.39) rotate(-29.22)"></ellipse> <ellipse class="cls-1" cx="196.57" cy="546.16" rx="138.59" ry="240.05" transform="matrix(0.87, -0.5, 0.5, 0.87, -246.75, 171.47)"></ellipse> <ellipse class="cls-2" cx="169.74" cy="566.16" rx="138.59" ry="240.05" transform="translate(-260.35 160.73) rotate(-30)"></ellipse> <path class="cls-3" d="M93.93,377c18.07,0,39.1,6.63,60.81,19.17,20.37,11.76,40.28,27.94,59.19,48.09a367.07,367.07,0,0,1,49.86,67.63,367.72,367.72,0,0,1,33.64,77c8,26.46,12.05,51.8,12.05,75.31,0,30.23-6.75,54.66-19.53,70.67-10.86,13.61-25.8,20.51-44.4,20.51-18.07,0-39.09-6.63-60.81-19.16-20.36-11.76-40.28-27.94-59.19-48.1A377.18,377.18,0,0,1,42.06,543.47C34.06,517,30,491.68,30,468.16c0-30.23,6.75-54.66,19.53-70.66C60.39,383.89,75.33,377,93.93,377h0m0-30C38.24,347,0,391.38,0,468.16,0,576.41,76,708,169.74,762.16c27.25,15.73,53,23.18,75.81,23.18,55.69,0,93.93-44.4,93.93-121.18,0-108.24-76-239.87-169.74-294-27.25-15.73-53-23.19-75.81-23.19Z"></path> <path class="cls-1" d="M121.79,423.07V531.48L102,520.06v39.75l19.78,11.41v11.25L102,571.06v39.75l19.78,11.41v31.25l42.3,24.43V646.65l50.65,29.24V636.14L164.09,606.9V596l18.16,10.48q27,15.57,45,15.57a32.8,32.8,0,0,0,12.29-2.21q20.13-8.07,20.13-45.27,0-35.78-18.9-64.73t-55.21-49.92l-63.73-36.8Zm80.54,149.6q-8.78,0-22.86-7.89l-15.38-8.88V487.53l19.25,11.11q17.32,10,25.45,22.89t8.12,30.06q0,17-9.69,20.33a15,15,0,0,1-4.89.75Z"></path> <path class="cls-3" d="M118.32,417.07V525.48L98.55,514.06v39.75l19.77,11.41v11.25L98.55,565.06v39.75l19.77,11.41v31.25l42.31,24.43V640.65l50.64,29.24V630.14L160.63,600.9V590l18.15,10.48q27,15.57,45,15.57a32.86,32.86,0,0,0,12.3-2.21q20.13-8.07,20.13-45.27,0-35.78-18.9-64.73t-55.21-49.92l-63.74-36.8Zm80.54,149.6q-8.76,0-22.85-7.89l-15.38-8.88V481.53l19.24,11.11q17.34,10,25.46,22.89t8.12,30.06q0,17-9.69,20.33a15.09,15.09,0,0,1-4.9.75Z"></path> </g> </g> </svg> 