<svg width="734" height="622" viewBox="0 0 734 622" fill="none" xmlns="http://www.w3.org/2000/svg">
<path d="M323.612 140.192C323.612 140.192 -50.5892 148.006 6.71697 349.228C64.0231 550.451 480.369 637.815 537.237 619.237C594.105 600.642 737.606 166.753 323.612 140.192Z" fill="#B19EFF"/>
<path d="M622.821 355.958H297.822C295.033 355.958 292.773 353.313 292.773 350.059V94.7465C292.773 91.4919 295.033 88.8646 297.822 88.8646H622.821C625.608 88.8646 627.868 91.4919 627.868 94.7465V350.059C627.868 353.313 625.608 355.958 622.821 355.958Z" fill="#7796FE"/>
<path d="M622.821 114.443H297.822C295.033 114.443 292.773 111.816 292.773 108.544V94.7466C292.773 91.492 295.033 88.8647 297.822 88.8647H622.821C625.608 88.8647 627.868 91.492 627.868 94.7466V108.544C627.868 111.816 625.608 114.443 622.821 114.443Z" fill="#004D54"/>
<path d="M406.626 291.308H323.611V140.192H406.626V291.308Z" fill="#A2B7FD"/>
<path d="M606.342 148.701H429.865V140.191H606.342V148.701Z" fill="#698BFD"/>
<path d="M606.342 167.991H429.865V158.176H606.342V167.991Z" fill="#698BFD"/>
<path d="M528.085 110.019H305.309V96.0179H528.085V110.019Z" fill="white"/>
<path d="M592.151 107.866C592.151 109.07 591.325 110.019 590.306 110.019C589.287 110.019 588.461 109.07 588.461 107.866C588.461 106.68 589.287 105.714 590.306 105.714C591.325 105.714 592.151 106.68 592.151 107.866Z" fill="white"/>
<path d="M596.621 107.866C596.621 109.07 595.795 110.019 594.776 110.019C593.757 110.019 592.931 109.07 592.931 107.866C592.931 106.68 593.757 105.714 594.776 105.714C595.795 105.714 596.621 106.68 596.621 107.866Z" fill="white"/>
<path d="M601.091 107.866C601.091 109.07 600.265 110.019 599.246 110.019C598.227 110.019 597.401 109.07 597.401 107.866C597.401 106.68 598.227 105.714 599.246 105.714C600.265 105.714 601.091 106.68 601.091 107.866Z" fill="white"/>
<path d="M519.27 101.001C519.27 99.4588 520.295 98.1876 521.553 98.1876C522.812 98.1876 523.835 99.4588 523.835 101.001C523.835 102.544 522.812 103.815 521.553 103.815C520.295 103.815 519.27 102.544 519.27 101.001ZM525.149 107.51L523.377 103.934C524.094 103.256 524.558 102.205 524.558 101.001C524.558 98.9503 523.214 97.3061 521.553 97.3061C519.893 97.3061 518.547 98.9503 518.547 101.001C518.547 103.052 519.893 104.697 521.553 104.697C521.965 104.697 522.359 104.595 522.716 104.408L523.969 108.239L524.018 108.358C524.21 108.748 524.616 108.866 524.928 108.629C525.24 108.392 525.339 107.9 525.149 107.51Z" fill="#121841"/>
<path d="M556.065 109.29H537.237V96.0178H556.065V109.29Z" fill="#F57408"/>
<path d="M599.246 344.363H444.2V182.246H599.246V344.363Z" fill="#E4EDFF"/>
<path d="M521.723 276.577H460.321V208.045H521.723V276.577Z" fill="white"/>
<path d="M596.621 344.363H535.219V287.409H596.621V344.363Z" fill="white"/>
<path d="M560.903 197.722H485.865V190.349H560.903V197.722Z" fill="#F57408"/>
<path d="M596.622 211.724H532.503V208.045H596.622V211.724Z" fill="#698BFD"/>
<path d="M596.622 218.114H532.503V214.419H596.622V218.114Z" fill="#698BFD"/>
<path d="M596.622 224.488H532.503V220.809H596.622V224.488Z" fill="#698BFD"/>
<path d="M596.622 230.878H532.503V227.2H596.622V230.878Z" fill="#698BFD"/>
<path d="M596.622 237.268H532.503V233.59H596.622V237.268Z" fill="#698BFD"/>
<path d="M596.622 243.659H532.503V239.964H596.622V243.659Z" fill="#698BFD"/>
<path d="M596.622 250.05H532.503V246.354H596.622V250.05Z" fill="#698BFD"/>
<path d="M596.622 256.423H532.503V252.745H596.622V256.423Z" fill="#698BFD"/>
<path d="M596.622 262.813H532.503V259.135H596.622V262.813Z" fill="#698BFD"/>
<path d="M596.622 269.204H532.503V265.526H596.622V269.204Z" fill="#698BFD"/>
<path d="M596.622 275.594H532.503V271.899H596.622V275.594Z" fill="#698BFD"/>
<path d="M728.42 533.754H403.421C400.632 533.754 398.373 531.11 398.373 527.855V272.56C398.373 269.305 400.632 266.661 403.421 266.661H728.42C731.208 266.661 733.467 269.305 733.467 272.56V527.855C733.467 531.11 731.208 533.754 728.42 533.754Z" fill="#D5DFFE"/>
<path d="M728.42 292.24H403.421C400.632 292.24 398.373 289.612 398.373 286.358V272.56C398.373 269.305 400.632 266.661 403.421 266.661H728.42C731.208 266.661 733.467 269.305 733.467 272.56V286.358C733.467 289.612 731.208 292.24 728.42 292.24Z" fill="#004D54"/>
<path d="M512.227 469.104H429.211V318.005H512.227V469.104Z" fill="#698BFD"/>
<path d="M711.941 326.497H535.464V318.005H711.941V326.497Z" fill="#698BFD"/>
<path d="M711.941 345.804H535.464V335.973H711.941V345.804Z" fill="#698BFD"/>
<path d="M633.686 287.833H410.908V273.831H633.686V287.833Z" fill="white"/>
<path d="M697.751 285.663C697.751 286.867 696.925 287.833 695.905 287.833C694.886 287.833 694.06 286.867 694.06 285.663C694.06 284.476 694.886 283.51 695.905 283.51C696.925 283.51 697.751 284.476 697.751 285.663Z" fill="white"/>
<path d="M702.221 285.663C702.221 286.867 701.395 287.833 700.376 287.833C699.357 287.833 698.531 286.867 698.531 285.663C698.531 284.476 699.357 283.51 700.376 283.51C701.395 283.51 702.221 284.476 702.221 285.663Z" fill="white"/>
<path d="M706.692 285.663C706.692 286.867 705.866 287.833 704.847 287.833C703.826 287.833 703.002 286.867 703.002 285.663C703.002 284.476 703.826 283.51 704.847 283.51C705.866 283.51 706.692 284.476 706.692 285.663Z" fill="white"/>
<path d="M624.869 278.798C624.869 277.255 625.894 275.984 627.152 275.984C628.411 275.984 629.434 277.255 629.434 278.798C629.434 280.357 628.411 281.612 627.152 281.612C625.894 281.612 624.869 280.357 624.869 278.798ZM630.748 285.307L628.976 281.73C629.694 281.069 630.159 280.001 630.159 278.798C630.159 276.764 628.813 275.103 627.152 275.103C625.493 275.103 624.146 276.764 624.146 278.798C624.146 280.849 625.493 282.51 627.152 282.51C627.565 282.51 627.958 282.391 628.315 282.222L629.569 286.036L629.617 286.155C629.809 286.544 630.215 286.663 630.529 286.426C630.841 286.188 630.938 285.697 630.748 285.307Z" fill="#121841"/>
<path d="M661.663 287.087H642.836V273.832H661.663V287.087Z" fill="#F57408"/>
<path d="M704.847 522.177H549.799V360.043H704.847V522.177Z" fill="#E4EDFF"/>
<path d="M627.322 454.374H565.919V385.842H627.322V454.374Z" fill="white"/>
<path d="M702.221 522.177H640.818V465.222H702.221V522.177Z" fill="white"/>
<path d="M666.502 375.519H591.465V368.145H666.502V375.519Z" fill="#F57408"/>
<path d="M702.221 389.52H638.103V385.842H702.221V389.52Z" fill="#698BFD"/>
<path d="M702.221 395.911H638.103V392.232H702.221V395.911Z" fill="#698BFD"/>
<path d="M702.221 402.301H638.103V398.606H702.221V402.301Z" fill="#698BFD"/>
<path d="M702.221 408.675H638.103V404.996H702.221V408.675Z" fill="#698BFD"/>
<path d="M702.221 415.065H638.103V411.387H702.221V415.065Z" fill="#698BFD"/>
<path d="M702.221 421.455H638.103V417.777H702.221V421.455Z" fill="#698BFD"/>
<path d="M702.221 427.846H638.103V424.151H702.221V427.846Z" fill="#698BFD"/>
<path d="M702.221 434.236H638.103V430.541H702.221V434.236Z" fill="#698BFD"/>
<path d="M702.221 440.61H638.103V436.931H702.221V440.61Z" fill="#698BFD"/>
<path d="M702.221 447H638.103V443.322H702.221V447Z" fill="#698BFD"/>
<path d="M702.221 453.391H638.103V449.712H702.221V453.391Z" fill="#698BFD"/>
<path d="M371.987 582.555C371.987 592.777 306.369 601.066 225.423 601.066C144.478 601.066 78.8601 592.777 78.8601 582.555C78.8601 572.317 144.478 564.028 225.423 564.028C306.369 564.028 371.987 572.317 371.987 582.555Z" fill="#417A41"/>
<path d="M248.728 583.962H254.541L277.696 467.528L269.268 467.002L248.728 583.962Z" fill="#1F1A15"/>
<path d="M343.079 586.064H337.264L314.11 469.629L322.539 469.104L343.079 586.064Z" fill="#1F1A15"/>
<path d="M187.457 573.504H181.643L158.49 457.052L166.918 456.543L187.457 573.504Z" fill="#1F1A15"/>
<path d="M110.211 581.403H116.026L139.178 464.968L130.75 464.442L110.211 581.403Z" fill="#1F1A15"/>
<path d="M114.52 377.35V463.002C114.52 469.765 120.043 475.24 126.856 475.24H316.26C323.073 475.24 328.595 469.765 328.595 463.002V377.35C328.595 370.586 323.073 365.111 316.26 365.111H126.856C120.043 365.111 114.52 370.586 114.52 377.35Z" fill="#450000"/>
<path d="M126.856 365.111C133.667 365.111 139.19 370.586 139.19 377.35V430.88C139.19 437.643 144.711 443.119 151.523 443.119H226.523C233.072 443.119 238.428 438.05 238.833 431.66C238.866 357.229 238.855 382.91 238.858 377.35C238.858 370.586 244.38 365.111 251.192 365.111H316.26C323.073 365.111 328.595 370.586 328.595 377.35V463.002C328.595 469.765 323.073 475.24 316.26 475.24H126.856C120.043 475.24 114.52 469.765 114.52 463.002V377.35C114.52 370.586 120.043 365.111 126.856 365.111Z" fill="url(#paint0_linear)"/>
<path d="M238.833 431.66C238.85 392.588 238.856 381.096 238.858 378.197V378.163V377.994V377.96V377.943V377.926V377.74V377.672V377.485V377.417V377.35C238.858 370.586 244.38 365.111 251.192 365.111H316.26C323.073 365.111 328.595 370.586 328.595 377.35V463.002C328.595 469.765 323.073 475.24 316.26 475.24H227.175L226.523 443.119C233.072 443.119 238.428 438.05 238.833 431.66Z" fill="#FABF44"/>
<path d="M279.048 475.24H316.26C323.073 475.24 328.595 469.765 328.595 463.002V377.35C328.595 370.586 323.073 365.111 316.26 365.111H279.048C272.237 365.111 266.713 370.586 266.713 377.35V463.002C266.713 469.765 272.237 475.24 279.048 475.24Z" fill="#F15A24"/>
<path d="M221.932 204.367C221.932 204.367 201.986 200.384 195.011 216.47C188.035 232.556 188.692 268.933 198.187 278.357C207.681 287.765 206.102 311.903 214.42 319.022C222.736 326.158 243.931 329.362 243.931 312.598C243.931 312.598 233.603 314.632 230.987 304.19C230.987 304.19 245.81 312.31 253.055 299.919C260.298 287.545 244.737 286.392 244.737 286.392C244.737 286.392 250.851 289.901 241.729 288.053C232.607 286.222 238.562 283.561 238.562 274.56C238.562 265.559 244.2 271.916 242.59 255.372C240.981 238.828 228.73 203.791 221.932 204.367Z" fill="#0E1B29"/>
<path d="M173.781 559.451L171.846 575.216C171.846 575.216 168.245 587.132 168.245 588.878C168.245 590.048 169.939 599.438 174.446 601.032C176.757 601.845 186.219 589.776 187.476 584.335C188.946 577.962 185.349 558.045 185.349 558.045L173.781 559.451Z" fill="#FC7575"/>
<path d="M204.853 556.654C204.853 556.654 202.285 579.775 202.285 583.284C202.285 586.776 201.877 591.81 203.57 593.794C205.261 595.76 220.457 589.929 220.457 583.623C220.457 577.318 217.157 556.654 217.157 556.654H204.853Z" fill="#FC7575"/>
<path d="M237.682 349.872C237.682 334.074 237.121 282.713 237.121 282.713C237.121 282.713 229.127 276.391 213.119 276.391C207.971 276.391 203.239 275.374 198.115 276.459C187.304 278.747 177.477 284.154 177.477 284.154C177.477 284.154 180.792 332.6 175.607 365.687C174.693 371.535 178.603 376.892 183.691 376.892H234.266C237.676 376.892 240.269 373.315 239.711 369.383C238.519 361.009 237.682 353.974 237.682 349.872Z" fill="#FFDA88"/>
<path d="M180.72 375.875C172.52 383.299 170.767 385.842 168.433 389.181C150.218 415.302 155.463 450.746 163.742 449.407C172.022 448.085 189.132 444.627 202.38 447.848C215.627 451.068 245.434 450.102 248.193 437.525C250.032 429.151 240.232 400.03 234.93 376.892L180.72 375.875Z" fill="#464A7F"/>
<path d="M208.482 408.522L202.285 419.879C199.237 428.032 201.015 447.543 201.015 447.543L173.781 445.932L172.486 415.963L208.482 408.522Z" fill="#35385F"/>
<path d="M203.76 419.167C203.76 419.167 219.216 417.235 225.011 423.998C230.807 430.761 219.767 522.94 221.148 528.093C222.527 533.246 229.151 532.602 225.287 537.11C221.424 541.619 220.457 544.687 222.251 546.772C224.045 548.874 224.735 551.942 223.079 553.875C221.424 555.807 220.871 560.96 220.871 560.96H202.372C202.372 560.96 201.001 547.739 201.001 545.484C201.001 543.23 198.793 536.788 198.793 536.788C198.793 536.788 205.681 532.602 202.372 528.737C199.064 524.872 202.372 519.058 202.372 510.684C202.372 502.311 192.169 420.777 203.76 419.167Z" fill="#6B6E98"/>
<path d="M156.926 418.913C162.274 412.658 170.917 411.878 179.473 418.913C188.029 425.93 184.992 443.339 184.992 459.12C184.992 474.918 184.107 513.905 185.516 518.736C186.924 523.584 191.34 528.414 189.685 533.568C188.029 538.721 187.199 537.653 190.051 540.975C192.903 544.314 191.34 546.772 191.34 550.332C191.34 553.875 189.961 564.825 189.961 564.825H172.298C172.298 564.825 171.469 545.162 167.054 537.432C162.638 529.703 165.95 512.938 165.95 510.362C165.95 507.785 160.429 504.565 160.429 493.276C160.429 482.003 154.02 422.303 156.926 418.913Z" fill="#6B6E98"/>
<path d="M178.329 284.154C178.329 284.154 175.186 290.562 170.77 305.072C166.354 319.564 173.781 377.044 173.781 386.706C173.781 396.385 184.165 408.522 184.165 408.522L192.996 396.928L187.2 355.025L178.329 284.154Z" fill="#FD5E5A"/>
<path d="M237.122 282.713C237.122 282.713 249.851 286.392 253.736 307.004C257.622 327.633 260.776 375.976 259.562 381.774C258.349 387.571 226.336 405.522 226.336 405.522L223.632 399.182C223.632 399.182 247.909 374.688 247.909 371.145C247.909 367.603 237.518 323.226 237.518 323.226L237.122 282.713Z" fill="#FD5E5A"/>
<path d="M139.178 356.314L146.355 415.777L235.775 412.064L234.004 352.449L139.178 356.314Z" fill="#241145"/>
<path d="M186.982 585.861C178.647 592.031 172.448 591.387 168.25 589.031C168.361 590.658 170.09 599.489 174.446 601.032C176.559 601.777 184.651 591.76 186.982 585.861Z" fill="#ED1E79"/>
<path d="M220.457 583.623C220.457 582.233 220.294 580.114 220.04 577.673C215.231 582.725 208.809 586.047 202.597 578.64C202.407 580.826 202.285 582.521 202.285 583.284C202.285 586.776 201.877 591.81 203.57 593.794C205.261 595.76 220.457 589.929 220.457 583.623Z" fill="#ED1E79"/>
<path d="M222.183 252.507C222.183 252.507 221.491 254.287 220.437 257.067C216.786 266.746 219.108 281.578 219.293 284.154C219.662 289.324 217.29 299.918 217.29 299.918C217.29 299.918 199.948 285.765 198.967 276.459L208.372 242.828L222.183 252.507Z" fill="#FC7575"/>
<path d="M208.372 242.828L222.183 252.507C222.183 252.507 221.488 254.287 220.437 257.067C215.575 255.507 208.151 252.643 206.542 249.371L208.372 242.828Z" fill="#FD5E5A"/>
<path d="M211.712 215.385L232.572 228.827C232.572 228.827 236.901 228.946 236.901 223.318C236.901 217.69 231.588 212.181 226.176 208.961C220.765 205.74 213.977 204.35 213.977 204.35L211.712 215.385Z" fill="#0E1B29"/>
<path d="M219.288 209.3C219.288 209.3 227.356 210.91 229.522 215.385C231.685 219.877 232.277 230.556 234.442 233.082C236.606 235.607 238.492 236.167 238.492 236.167C238.492 236.167 239.065 237.336 236.901 238.591C234.737 239.862 236.375 241.235 237.721 241.235C239.065 241.235 237.934 244.235 236.901 244.574C236.901 244.574 238.229 245.032 237.984 246.524C237.737 248.015 237.098 248.303 237.098 248.303C237.098 248.303 237.032 250.27 237.721 252.1C238.409 253.931 236.738 259.389 226.176 256.982C226.176 256.982 210.48 252.677 209.545 247.507C208.613 242.337 201.629 223.538 207.579 216.589C213.531 209.639 219.288 209.3 219.288 209.3Z" fill="#FC7575"/>
<path d="M212.007 204.062C212.007 204.062 213.974 201.079 223.814 204.35C233.654 207.622 236.497 220.623 236.497 220.623C236.497 220.623 230.161 215.622 226.176 215.622C222.19 215.622 213.175 213.86 211.712 212.148C210.249 210.436 212.007 204.062 212.007 204.062Z" fill="#1B3753"/>
<path d="M214.045 203.011C215.421 203.011 223.372 214.588 221.01 223.199C218.648 231.827 213.042 227.979 209.499 230.268C205.955 232.573 210.184 243.201 209.545 247.507C208.908 251.812 198.967 276.459 198.967 276.459C198.967 276.459 190.606 224.352 195.676 214.707C200.745 205.062 214.045 203.011 214.045 203.011Z" fill="#1B3753"/>
<path d="M223.754 238.981C223.754 240.252 225.603 241.303 227.885 241.303C230.165 241.303 232.015 240.252 232.015 238.981C232.015 237.692 230.165 236.641 227.885 236.641C225.603 236.641 223.754 237.692 223.754 238.981Z" fill="#FD5E5A"/>
<path d="M233.681 228.827C233.681 228.827 232.325 232.014 226.802 231.861L233.681 228.827Z" fill="#1B3753"/>
<path d="M232.015 227.284C232.015 227.284 229.965 225.844 228.374 225.844C226.783 225.844 225.315 226.589 225.315 227.284C225.315 227.284 227.059 226.318 228.435 226.556C229.811 226.81 230.454 228.047 231.006 228.047C231.556 228.047 232.015 227.284 232.015 227.284Z" fill="#1B3753"/>
<path d="M209.093 238.879C209.093 238.879 216.744 259.593 201.378 282.714C186.012 305.851 165.164 296.495 162.358 287.121C159.551 277.764 169.369 274.56 169.369 274.56C169.369 274.56 167.497 285.154 172.486 284.646C177.477 284.154 179.197 282.781 177.192 271.373C175.188 259.966 182.437 264.542 186.426 257.067C190.414 249.609 186.426 243.913 186.426 235.082C186.426 226.267 195.676 214.707 195.676 214.707L209.093 238.879Z" fill="#1B3753"/>
<path d="M210.576 231.302C210.576 231.302 207.726 224.064 206.398 225.623C205.07 227.166 204.408 237.845 209.094 238.879C213.778 239.913 210.576 231.302 210.576 231.302Z" fill="#FC7575"/>
<path d="M210.37 232.183C210.37 232.183 208.902 228.234 208.106 229.166C207.311 230.098 208.167 236.319 209.237 236.319C210.309 236.319 210.629 234.167 210.37 232.183Z" fill="#FD5E5A"/>
<path d="M232.223 232.099C232.223 232.844 231.931 233.438 231.571 233.438C231.211 233.438 230.92 232.844 230.92 232.099C230.92 231.37 231.211 230.759 231.571 230.759C231.931 230.759 232.223 231.37 232.223 232.099Z" fill="#1B3753"/>
<path d="M88.5833 280.256H153.177C156.11 280.256 158.49 284.375 158.49 289.46V310.886C158.49 315.954 156.11 320.09 153.177 320.09H150.252L158.49 349.228L132.72 320.09H88.5833C85.6495 320.09 83.2703 315.954 83.2703 310.886V289.46C83.2703 284.375 85.6495 280.256 88.5833 280.256Z" fill="#85FF87"/>
<path d="M391.028 59.845C390.569 59.845 390.104 59.6924 389.69 59.3873C387.66 57.8618 385.561 56.3362 383.457 54.8615C382.284 54.0309 381.908 52.2511 382.612 50.8951C383.316 49.5221 384.837 49.0813 386.009 49.8949C388.158 51.4205 390.299 52.963 392.371 54.5225C393.521 55.387 393.852 57.1838 393.111 58.5229C392.637 59.3874 391.841 59.845 391.028 59.845Z" fill="#99D7FF"/>
<path d="M462.935 84.9321L390 33.334L372.142 54.6072L462.935 84.9321Z" fill="#509E4F"/>
<path d="M389.989 96.8824L391.03 56.9633L462.935 84.9321L389.989 96.8824Z" fill="#85FF87"/>
<path d="M389.912 0.297028L462.935 84.9321L390 33.334L389.912 0.297028Z" fill="#85FF87"/>
<path d="M372.142 54.6072L391.03 56.9634L390.879 62.7606L372.142 54.6072Z" fill="#417A41"/>
<defs>
<linearGradient id="paint0_linear" x1="109.947" y1="396.724" x2="340.071" y2="432.188" gradientUnits="userSpaceOnUse">
<stop stop-color="#F57939"/>
<stop offset="1" stop-color="#FFFB4D"/>
</linearGradient>
</defs>
</svg>
