<svg width="630" height="562" viewBox="0 0 630 562" fill="none" xmlns="http://www.w3.org/2000/svg">
<path d="M245.906 208.64C231.859 210.32 218.27 212.44 205.415 215.04C119.643 232.333 119.614 260.04 119.562 261.467C119.555 262.627 119.431 326.253 119.432 326.093C119.407 339.373 119.391 347.933 119.37 359.76C119.43 333.16 174.895 314.693 245.906 306.547V208.64Z" fill="#B19EFF"/>
<path d="M519.164 236.947C501.511 226.92 477.138 220.173 457.391 215.987C405.738 205.04 339.607 201.387 278.254 205.613V303.627C367.151 297.627 469.724 306.72 518.978 334.693C533.618 343.013 540.538 351.813 540.524 360.453C540.524 360.04 540.524 359.613 540.524 359.187C540.551 349.48 540.698 266.56 540.711 264.28C540.724 251.427 530.338 243.307 519.164 236.947Z" fill="#B19EFF"/>
<path d="M376.404 214.226C360.818 213.213 344.831 212.667 328.751 212.667C314.722 212.667 300.723 213.066 287.027 213.853V294.293C301.527 293.493 316.282 293.093 331.012 293.093C346.671 293.093 361.831 293.52 376.404 294.36V214.226Z" fill="#7F65D8"/>
<path d="M452.058 223.867C436.564 220.72 419.551 218.187 401.618 216.333V296.28C419.684 297.987 436.551 300.4 452.058 303.427V223.867Z" fill="#7F65D8"/>
<path d="M514.818 244.573C508.218 240.826 500.551 237.56 492.631 234.746V313.826C504.364 317.746 514.684 322.16 523.311 327.067C526.418 328.827 529.258 330.64 531.804 332.507L531.938 264.267C531.938 257.28 526.831 251.4 514.818 244.573Z" fill="#7F65D8"/>
<path d="M628.098 175.547H511.978C510.978 175.547 510.164 174.747 510.164 173.747V95.6264C510.164 94.6264 510.978 93.8264 511.978 93.8264H628.098C629.084 93.8264 629.898 94.6264 629.898 95.6264V173.747C629.898 174.747 629.084 175.547 628.098 175.547Z" fill="#B0C2FE"/>
<path d="M604.178 160.44H534.111C531.151 160.44 528.764 158.04 528.764 155.08V114.947C528.764 111.987 531.151 109.6 534.111 109.6H604.178C607.124 109.6 609.524 111.987 609.524 114.947V155.08C609.524 158.04 607.124 160.44 604.178 160.44Z" fill="#95A9FE"/>
<path d="M601.138 114.133H538.244L569.164 143.346L601.138 114.133Z" fill="white"/>
<path d="M569.111 151.04L532.951 116.893V155.893H605.324V117.96L569.111 151.04Z" fill="white"/>
<path d="M389.778 131.666C389.778 131.666 398.751 135.293 403.098 139.826C407.444 144.346 409.431 153.36 408.551 160.48C407.684 167.6 405.818 168.893 405.818 168.893C405.818 168.893 409.938 178.866 408.684 187.413C407.431 195.96 398.111 204.12 392.018 205.28C392.018 205.28 400.471 195.186 399.351 189.88C399.351 189.88 393.258 198.546 387.164 201.92C381.084 205.28 351.618 234.853 332.552 213.72C332.552 213.72 348.124 206.706 343.031 192.72C337.935 178.733 351.978 166.053 351.978 166.053C351.978 166.053 341.043 172.133 335.324 163.973C329.604 155.826 339.427 149.48 339.924 149.986C340.422 150.506 336.07 157.893 341.167 159.826C346.271 161.773 347.444 153.946 355.471 145.586C363.484 137.24 385.924 127.653 389.778 131.666Z" fill="#170F33"/>
<path d="M477.284 549.747C477.284 555.64 420.818 560.413 351.178 560.413C281.53 560.413 225.07 555.64 225.07 549.747C225.07 543.866 281.53 539.093 351.178 539.093C420.818 539.093 477.284 543.866 477.284 549.747Z" fill="#235893"/>
<path d="M405.391 528.307L409.324 544.573L421.311 541.08C421.311 541.08 420.498 534.627 419.018 524.507L405.391 528.307Z" fill="#FC7575"/>
<path d="M331.699 524.147L331.728 540.88L344.191 540.28C344.191 540.28 344.911 533.827 345.844 523.627L331.699 524.147Z" fill="#FC7575"/>
<path d="M387.298 205.667L392.058 174.453L375.991 173.307L371.231 199.067C374.684 202.36 380.938 208.973 387.298 205.667Z" fill="#FC7575"/>
<path d="M389.978 188.093L392.058 174.453L375.991 173.307L374.111 183.44C374.311 183.68 374.511 183.92 374.724 184.16C377.684 187.467 384.324 192.773 389.978 188.093Z" fill="#FD5E5A"/>
<path d="M394.391 138.987C394.391 138.987 400.964 141.333 400.964 150.28C400.964 150.28 400.244 170.76 392.058 180.987C386.071 188.493 378.071 182.853 374.724 179.507C369.844 174.627 371.231 168 371.231 159.067C371.231 150.12 385.391 132.64 394.391 138.987Z" fill="#FC7575"/>
<path d="M383.591 160.653C383.591 161.68 382.817 162.52 381.884 162.52C380.937 162.52 380.177 161.68 380.177 160.653C380.177 159.613 380.937 158.786 381.884 158.786C382.817 158.786 383.591 159.613 383.591 160.653Z" fill="#2D1E66"/>
<path d="M397.364 162.36C397.364 163.386 396.604 164.226 395.658 164.226C394.724 164.226 393.951 163.386 393.951 162.36C393.951 161.333 394.724 160.493 395.658 160.493C396.604 160.493 397.364 161.333 397.364 162.36Z" fill="#2D1E66"/>
<path d="M377.098 160.12C377.098 160.12 380.351 157.987 382.751 158.587C385.151 159.2 385.471 160.64 385.471 160.64C385.471 160.64 383.511 159.133 380.911 159.56C378.298 159.987 377.098 160.12 377.098 160.12Z" fill="#2D1E66"/>
<path d="M400.898 163.36C400.898 163.36 398.298 160.48 395.831 160.453C393.351 160.426 392.671 161.746 392.671 161.746C392.671 161.746 394.951 160.786 397.364 161.867C399.764 162.933 400.898 163.36 400.898 163.36Z" fill="#2D1E66"/>
<path d="M390.564 164.587C390.858 166.36 391.378 168.08 391.964 169.76C391.271 170.32 389.831 170.733 388.964 170.987C391.764 171.093 392.551 169.987 392.671 169.933C392.671 169.933 391.658 166.693 390.564 164.587Z" fill="#2D1E66"/>
<path d="M383.871 166.986C383.871 168.426 381.991 169.6 379.671 169.6C377.364 169.6 375.484 168.426 375.484 166.986C375.484 165.533 377.364 164.373 379.671 164.373C381.991 164.373 383.871 165.533 383.871 166.986Z" fill="#FD5E5A"/>
<path d="M397.951 165.586C396.204 165.586 394.778 166.693 394.778 168.04C394.778 169.253 395.911 170.253 397.391 170.467C397.911 168.867 398.364 167.253 398.751 165.667C398.498 165.613 398.231 165.586 397.951 165.586Z" fill="#FD5E5A"/>
<path d="M399.204 137.107C399.204 137.107 400.351 149.453 389.471 150.253C378.578 151.053 371.671 156.467 371.671 156.467L366.818 170.986C366.818 170.986 364.471 159.786 364.791 151.56C365.111 143.347 376.844 131.907 384.631 130.867C392.418 129.813 399.204 137.107 399.204 137.107Z" fill="#2D1E66"/>
<path d="M373.151 158.427C373.151 158.427 372.391 155.707 370.004 156.307C367.618 156.893 368.791 163.92 370.004 165.133C371.218 166.36 375.511 165.4 373.151 158.427Z" fill="#FC7575"/>
<path d="M372.538 159.773C372.538 159.773 371.124 156.454 370.004 157.573C368.884 158.693 370.231 163.56 371.204 163.56C372.178 163.56 372.538 159.773 372.538 159.773Z" fill="#FD5E5A"/>
<path d="M383.071 174.826C382.791 174.626 382.871 174.546 382.671 174.826C382.071 175.64 383.098 178.28 384.844 178.84C387.111 179.56 390.351 177.973 390.351 176.666C390.351 176.24 387.391 177.88 383.071 174.826Z" fill="#2D1E66"/>
<path d="M378.258 155.853C378.258 155.853 382.271 154.413 383.871 154.413C385.471 154.413 387.658 156.253 387.244 157.333C386.831 158.427 384.911 155.533 383.591 155.533C382.271 155.533 378.258 155.853 378.258 155.853Z" fill="#2D1E66"/>
<path d="M399.244 159.36C399.244 159.36 398.284 157.026 396.751 156.56C395.231 156.093 392.591 157.213 392.671 158.373C392.764 159.52 395.431 157.333 396.698 157.707C397.964 158.093 399.244 159.36 399.244 159.36Z" fill="#2D1E66"/>
<path d="M352.018 199.133C344.378 189.106 326.71 162.773 325.148 131.813C322.874 86.6932 329.735 72.3733 329.735 72.3733C329.735 72.3733 334.828 68.3866 336.675 65.4533C338.522 62.5199 342.36 59.6533 340.546 58.5199C338.73 57.3733 336.182 60.9066 335.39 62.1599C335.112 62.5999 334.698 62.6667 334.274 62.5733C333.166 62.32 332.544 61.12 332.875 60.04C333.211 58.9333 333.991 57.16 335.746 54.3733C339.439 48.5067 342.282 42.9733 340.462 43.3867C338.64 43.8 332.679 54.36 331.36 56.4533C330.042 58.5466 334.776 46.84 336.524 41.8933C338.272 36.9466 335.234 38.2534 334.438 41.0667C333.64 43.8801 328.952 55.5467 328.184 55.0667C327.416 54.5734 332.268 41.0667 330.383 39.88C328.498 38.6934 328.954 41.7733 328.247 43.92C327.54 46.08 327.019 53.68 325.047 54.1334C325.047 54.1334 324.311 43.7733 323.439 44.76C323.004 45.2533 321.73 56.2933 321.654 60.9599C321.474 71.9599 306.436 130.573 309.98 145.986C313.436 161.026 317.975 204.186 330.044 212.866C344.231 213.386 345.444 209.586 352.018 199.133Z" fill="#FC7575"/>
<path d="M325.322 134.453C319.118 134.92 313.79 137.093 309.44 139.76C309.439 142.253 309.606 144.36 309.98 145.987C310.92 150.08 311.94 156.253 313.171 163.253L329.272 155.147C327.331 148.627 325.9 141.68 325.322 134.453Z" fill="#FD5E5A"/>
<path d="M408.964 223.12C419.284 230.347 446.338 246.92 477.338 247.2C522.498 247.6 536.524 240.16 536.524 240.16C536.524 240.16 540.298 234.907 543.151 232.933C546.004 230.973 548.711 227.013 549.938 228.787C551.151 230.547 547.724 233.24 546.498 234.08C546.071 234.373 546.018 234.8 546.138 235.213C546.431 236.307 547.658 236.88 548.724 236.507C549.818 236.12 551.564 235.28 554.271 233.4C559.978 229.467 565.391 226.4 565.058 228.24C564.724 230.08 554.404 236.467 552.364 237.867C550.324 239.28 561.844 234.067 566.711 232.107C571.578 230.16 570.404 233.253 567.618 234.16C564.844 235.08 553.378 240.24 553.898 240.987C554.404 241.733 567.711 236.333 568.978 238.16C570.244 240 567.138 239.667 565.018 240.467C562.898 241.267 555.324 242.093 554.951 244.08C554.951 244.08 565.338 244.387 564.378 245.307C563.898 245.76 552.924 247.493 548.258 247.76C537.298 248.387 479.351 265.84 463.791 262.933C448.631 260.107 405.311 257.347 396.138 245.653C395.044 231.493 398.791 230.133 408.964 223.12Z" fill="#FC7575"/>
<path d="M457.511 244.893C449.631 243.186 442.258 240.667 435.671 237.88C434.244 241.867 434.938 251.12 436.951 259.133C443.231 260.067 449.311 260.826 454.444 261.52C456.751 255.413 457.391 249.2 457.511 244.893Z" fill="#FD5E5A"/>
<path d="M332.238 284.773C332.238 284.773 315.003 323.693 315.003 335.853C315.003 348.013 324.048 525.547 324.048 525.547L352.298 526.747C352.298 526.747 351.084 360.773 355.338 356.52C359.591 352.266 363.857 352.866 363.857 352.866L400.231 529.373L426.591 527.373C426.591 527.373 412.484 358.946 405.191 340.706C397.897 322.48 382.098 284.773 382.098 284.773H332.238Z" fill="#DFB866"/>
<path d="M358.098 306.44C342.172 306.44 330.206 298.227 330.04 298.107L331.426 296.133C331.639 296.28 353.271 311.093 376.578 299.773L377.631 301.947C370.831 305.24 364.178 306.44 358.098 306.44Z" fill="#ECD4A3"/>
<path d="M357.778 297.987C357.778 299.573 356.484 300.853 354.898 300.853C353.311 300.853 352.018 299.573 352.018 297.987C352.018 296.4 353.311 295.107 354.898 295.107C356.484 295.107 357.778 296.4 357.778 297.987Z" fill="#ECD4A3"/>
<path d="M348.284 304.08L345.884 303.826L347.498 287.867L349.898 288.107L348.284 304.08Z" fill="#ECD4A3"/>
<path d="M300.859 156.92C300.859 156.92 309.896 214.253 317.647 214.253C317.647 214.253 303.512 270.04 332.239 284.773C360.964 299.52 392.191 286.107 402.004 276.293C411.818 266.48 421.604 266.24 433.471 271.253C445.324 276.267 453.524 250.867 453.524 238.027C453.524 225.2 407.324 209.453 384.071 199.8C360.818 190.16 352.751 191 344.098 177.773C335.431 164.56 335.431 140.387 326.311 144.04C317.191 147.68 300.859 156.92 300.859 156.92Z" fill="#8937DC"/>
<path d="M384.071 199.8C366.978 192.707 358.098 191.293 351.151 185.787C350.058 196.507 349.484 217.427 360.351 224.76C372.964 233.293 401.951 222.707 414.111 211.853C400.711 205.907 394.471 204.12 384.071 199.8Z" fill="#FC7575"/>
<path d="M394.778 141.533C394.778 141.533 375.098 153.28 373.151 158.426C371.204 163.56 364.404 170.92 368.924 187.48C373.431 204.026 356.244 211.106 350.031 205.906C343.818 200.706 345.084 189.693 350.031 190.506C350.031 190.506 352.404 195.533 356.257 191.666C360.124 187.8 356.751 173.666 356.098 164.586C355.431 155.493 378.258 118.96 394.778 141.533Z" fill="#2D1E66"/>
<path d="M344.418 536.866C344.418 536.866 343.658 544.68 343.151 550C342.632 555.32 344.578 559.76 337.892 560.227C331.215 560.68 324.41 558.133 324.059 554.627C323.71 551.12 330.967 543.613 331.3 540.173C331.632 536.733 333.646 535.506 334.635 536.706C335.626 537.906 344.418 536.866 344.418 536.866Z" fill="#70A3FF"/>
<path d="M342.355 558.187C341.108 559.347 339.464 559.387 337.67 559.307C333.844 559.133 325.526 558.147 324.059 554.627C323.874 555.56 324.306 556.547 324.88 557.32C329.139 562.667 341.363 562.493 342.355 558.187Z" fill="#385280"/>
<path d="M331.752 543.613C331.361 548 337.28 549.853 339.491 546.053L339.595 545.866C343.084 539.733 343.471 538 344.191 536.6C345.004 535.053 346.057 532.92 342.767 531.027C339.475 529.133 334.448 528.813 334.296 530.387C334.196 531.426 332.337 537.026 331.752 543.613Z" fill="#385280"/>
<path d="M342.767 531.027C346.058 532.92 345.004 535.053 344.191 536.6C343.471 538 343.084 539.733 339.595 545.867L339.491 546.053C339.291 546.4 339.062 546.693 338.81 546.947L338.983 546.667L339.088 546.48C342.583 540.347 342.964 538.613 343.684 537.213C344.498 535.667 345.551 533.533 342.259 531.64C339.558 530.08 335.687 529.6 334.303 530.333C334.546 528.827 339.507 529.147 342.767 531.027Z" fill="white"/>
<path d="M338.723 547.026C338.723 547.026 339.387 537.333 340.806 537.08C342.224 536.813 344.418 536.866 344.418 536.866C344.418 536.866 342.768 546.546 340.97 548.026C339.171 549.506 338.723 547.026 338.723 547.026Z" fill="#5491FF"/>
<path d="M331.54 539.267L331.67 539.6C335.326 542.893 341.034 540.493 341.274 540.387C341.476 540.307 341.57 540.067 341.483 539.867C341.396 539.667 341.163 539.573 340.963 539.667C340.908 539.68 335.476 541.96 332.199 539.013C332.036 538.867 331.786 538.88 331.639 539.04L331.54 539.267Z" fill="white"/>
<path d="M330.936 543.12L331.056 543.44C333.308 545.586 340.061 544.173 340.347 544.107C340.56 544.067 340.696 543.854 340.652 543.64C340.605 543.427 340.395 543.294 340.182 543.334C338.344 543.734 333.222 544.413 331.603 542.867C331.444 542.721 331.194 542.721 331.043 542.881L330.936 543.12Z" fill="white"/>
<path d="M330.403 545.881L330.492 546.174C332.246 548.306 339.41 547.333 340.22 547.213C340.436 547.187 340.587 546.987 340.555 546.774C340.524 546.547 340.323 546.4 340.106 546.44C338.024 546.734 332.351 547.187 331.104 545.667C330.964 545.507 330.715 545.481 330.546 545.614L330.403 545.881Z" fill="white"/>
<path d="M339.958 551.013C339.958 551.013 341.158 556.186 340.098 557.066C339.038 557.933 326.522 556.546 326.731 554.386C326.939 552.213 330.178 548.213 331.327 548C332.476 547.773 339.958 551.013 339.958 551.013Z" fill="#5491FF"/>
<path d="M424.178 530.2C424.178 530.2 417.271 531.333 417.084 535.92C416.911 540.506 422.618 546.693 422.618 546.693L427.964 543.066C427.964 543.066 425.618 540.533 425.124 536.213C424.631 531.906 424.178 530.2 424.178 530.2Z" fill="#5491FF"/>
<path d="M407.538 555.826C407.538 555.826 414.484 555.986 419.338 556.093C424.204 556.2 431.951 556.96 434.378 557.013C436.804 557.08 445.738 551.546 445.204 549.653C444.671 547.773 436.671 548.066 432.551 545.866C428.431 543.666 421.351 538.386 419.871 537.853C417.578 537.013 411.578 539.093 410.164 540.453C408.738 541.826 406.351 554.573 407.538 555.826Z" fill="#547ABF"/>
<path d="M409.351 552.667C428.804 550.04 423.138 555.826 442.231 550.96C437.578 552.72 430.698 554.426 425.831 553.347C423.178 552.76 420.391 552.693 417.644 552.613C414.884 552.56 412.111 552.6 409.351 552.667Z" fill="#385280"/>
<path d="M422.511 547.76C422.764 548.08 423.244 548.133 423.564 547.867C424.684 546.96 427.151 545.133 429.511 543.907C429.071 543.6 428.618 543.267 428.164 542.933C425.338 544.493 422.791 546.56 422.618 546.693C422.298 546.96 422.258 547.44 422.511 547.76Z" fill="white"/>
<path d="M421.684 544.653C422.031 544.866 422.498 544.746 422.698 544.386C422.724 544.346 424.817 541.533 426.591 539.826C426.417 539.253 426.218 538.746 425.831 538.453C424.031 540.226 421.497 543.48 421.417 543.613C421.204 543.973 421.324 544.44 421.684 544.653Z" fill="white"/>
<path d="M321.159 518.4L353.831 519.24V526.693L321.159 526.186V518.4Z" fill="#ECD4A3"/>
<path d="M400.231 529.373L363.858 352.867L400.231 529.373L405.551 528.973L400.231 529.373Z" fill="#FFE8E2"/>
<path d="M405.551 528.973L413.018 528.413L405.551 528.973Z" fill="#FC6B67"/>
<path d="M400.231 529.373L363.858 352.867L373.471 340.653L413.018 528.413L405.551 528.973L400.231 529.373Z" fill="#DFA85A"/>
<path d="M396.524 523.346L429.511 521.213V527.373L398.031 530.2L396.524 523.346Z" fill="#ECD4A3"/>
<path d="M304.755 319.893C208.372 316.48 119.487 296.146 119.55 262.026L119.37 359.76C119.308 392.653 207.61 414.227 304.755 417.88V319.893Z" fill="#B19EFF"/>
<path d="M115.655 385.026V397.147C115.592 431.253 204.478 451.587 300.859 455.013V442.893C204.478 439.48 115.592 419.146 115.655 385.026Z" fill="#B19EFF"/>
<path d="M115.495 483.653L115.474 494.88C115.472 495.187 115.48 495.48 115.495 495.773L115.516 484.04C115.508 483.907 115.5 483.787 115.495 483.653Z" fill="#DAE6FF"/>
<path d="M122.068 429.453L122.052 437.667C121.992 470.56 210.295 492.133 307.439 495.773V486.787C211.063 483.173 123.391 461.907 122.068 429.453Z" fill="#B19EFF"/>
<path d="M128.27 291.04L128.142 359.787C128.118 372.187 152.847 386.12 196.559 396.107V316.467C169.794 310.88 144.383 302.773 128.27 291.04Z" fill="#977EEA"/>
<path d="M203.87 317.933V327.093C239.616 333.92 276.491 336.52 295.983 337.467V328.307C276.491 327.36 239.616 324.76 203.87 317.933Z" fill="#977EEA"/>
<path d="M203.87 345.413C239.616 352.24 276.491 354.84 295.983 355.787V346.627C276.491 345.68 239.616 343.08 203.87 336.253V345.413Z" fill="#977EEA"/>
<path d="M203.87 363.733C239.616 370.56 276.491 373.16 295.983 374.107V364.947C276.491 364 239.616 361.4 203.87 354.573V363.733Z" fill="#977EEA"/>
<path d="M203.87 382.053C239.616 388.88 276.491 391.48 295.983 392.427V383.267C276.491 382.32 239.616 379.72 203.87 372.893V382.053Z" fill="#977EEA"/>
<path d="M203.87 397.693C229.187 402.973 260.196 406.96 295.983 408.72V401.587C276.491 400.64 239.616 398.04 203.87 391.213V397.693Z" fill="#977EEA"/>
<path d="M540.711 262.72C540.698 272.133 531.911 279.413 532.484 278.867C521.164 289.787 501.724 298.44 477.284 304.973V402.253C485.671 399.947 493.578 397.387 500.911 394.547C516.058 388.72 540.098 377 540.524 360.84C540.524 360.733 540.484 378.787 540.711 262.72Z" fill="#B19EFF"/>
<path d="M486.058 311.627C505.604 305.893 520.951 298.92 531.884 290.813C531.884 290.813 531.764 357.2 531.751 360.653C531.498 368.547 518.484 378.387 497.764 386.36C494.071 387.787 490.151 389.173 486.058 390.493V311.627Z" fill="#977EEA"/>
<path d="M220.952 8.02659C264.556 7.79992 299.978 20.8667 300.066 37.2134C300.11 45.3867 291.314 52.8401 277.054 58.2668L284.543 86.6401L257.539 63.7467C246.686 65.9201 234.354 67.1734 221.272 67.2401C177.667 67.4801 142.247 54.4134 142.159 38.0667C142.07 21.72 177.347 8.26659 220.952 8.02659Z" fill="#B0C2FE"/>
<path d="M535.724 0.00012207H418.844C413.191 0.00012207 408.604 4.57335 408.604 10.2267V45.4533C408.604 51.1067 413.191 55.68 418.844 55.68H457.111L437.844 110.947L471.724 55.68H535.724C541.377 55.68 545.964 51.1067 545.964 45.4533V10.2267C545.964 4.57335 541.377 0.00012207 535.724 0.00012207Z" fill="#FF9999"/>
<path d="M24.6389 111.626H141.529C147.18 111.626 151.762 116.213 151.762 121.853V157.08C151.762 162.733 147.18 167.306 141.529 167.306H103.254L122.527 222.573L88.6508 167.306H24.6389C18.9882 167.306 14.4082 162.733 14.4082 157.08V121.853C14.4082 116.213 18.9882 111.626 24.6389 111.626Z" fill="#FF9999"/>
<path d="M607.071 482.6L520.858 479.32C516.684 479.16 513.431 475.653 513.591 471.493L514.578 445.507C514.738 441.347 518.244 438.093 522.418 438.253L550.644 439.32L537.978 398.026L561.418 439.733L608.631 441.533C612.804 441.693 616.044 445.2 615.884 449.36L614.898 475.346C614.738 479.506 611.231 482.76 607.071 482.6Z" fill="#FF9999"/>
<path d="M414.111 237.28C409.991 251.693 399.858 265.306 386.644 271.067C370.938 278.853 351.444 273.293 346.138 272.507C345.778 272.333 325.139 267 320.838 252.28C327.459 268.6 352.471 274.2 371.924 272.88C392.418 270.893 407.378 255.426 414.111 237.28Z" fill="#DAE6FF"/>
<path d="M418.871 147.573C418.444 147.573 418.018 147.453 417.631 147.213C415.778 146.013 413.844 144.813 411.911 143.64C410.831 143 410.484 141.6 411.138 140.533C411.778 139.453 413.178 139.106 414.258 139.746C416.231 140.933 418.191 142.16 420.098 143.386C421.151 144.066 421.458 145.48 420.778 146.533C420.338 147.213 419.604 147.573 418.871 147.573Z" fill="#99D7FF"/>
<path d="M236.772 100.84H236.72C232.37 100.746 228.112 100.693 224.066 100.693H223.342C222.086 100.693 221.068 99.6797 221.068 98.4263C221.068 97.1597 222.086 96.1464 223.342 96.1464H224.066C228.144 96.1464 232.438 96.1997 236.822 96.293C238.078 96.3197 239.071 97.3597 239.046 98.613C239.016 99.8531 238.004 100.84 236.772 100.84ZM190.53 101.933C189.358 101.933 188.362 101.04 188.267 99.853C188.166 98.5997 189.1 97.4931 190.351 97.3998C194.703 97.0531 199.24 96.7731 203.843 96.5731C205.072 96.5064 206.158 97.493 206.215 98.7464C206.27 99.9997 205.296 101.053 204.042 101.106C199.495 101.306 195.01 101.586 190.715 101.933H190.53ZM269.57 102.453H269.384C265.01 102.106 260.519 101.8 256.035 101.56C254.78 101.493 253.82 100.413 253.888 99.1597C253.956 97.9063 254.998 96.9731 256.283 97.0131C260.804 97.2664 265.335 97.5597 269.748 97.9197C271 98.0264 271.934 99.1198 271.832 100.373C271.738 101.56 270.742 102.453 269.57 102.453ZM302.182 106.226L301.834 106.2C297.486 105.533 293.03 104.92 288.595 104.386C287.348 104.24 286.462 103.106 286.612 101.853C286.766 100.613 287.907 99.7331 289.146 99.8664C293.626 100.413 298.127 101.04 302.523 101.706C303.764 101.906 304.616 103.066 304.426 104.306C304.254 105.426 303.284 106.226 302.182 106.226ZM157.998 106.293C156.932 106.293 155.982 105.546 155.768 104.453C155.528 103.226 156.332 102.026 157.566 101.786C161.891 100.946 166.384 100.186 170.926 99.5331C172.158 99.3731 173.319 100.226 173.498 101.466C173.675 102.706 172.812 103.866 171.568 104.04C167.104 104.68 162.686 105.426 158.436 106.253C158.29 106.28 158.143 106.293 157.998 106.293ZM334.386 112.56C334.21 112.56 334.03 112.533 333.85 112.493C329.606 111.466 325.222 110.493 320.822 109.586C319.592 109.333 318.798 108.133 319.05 106.906C319.299 105.68 320.499 104.88 321.731 105.133C326.186 106.04 330.624 107.026 334.92 108.08C336.142 108.373 336.891 109.6 336.595 110.826C336.342 111.866 335.412 112.56 334.386 112.56ZM126.35 114.893C125.416 114.893 124.543 114.32 124.21 113.386C123.786 112.2 124.4 110.906 125.582 110.48C129.754 108.986 134.104 107.586 138.511 106.333C139.719 105.986 140.976 106.693 141.32 107.893C141.664 109.106 140.966 110.36 139.758 110.706C135.448 111.933 131.195 113.293 127.118 114.76C126.863 114.853 126.604 114.893 126.35 114.893ZM365.844 121.88C365.604 121.88 365.338 121.84 365.084 121.746C360.951 120.28 356.698 118.88 352.431 117.573C351.231 117.213 350.551 115.933 350.924 114.733C351.284 113.533 352.564 112.853 353.764 113.226C358.084 114.546 362.418 115.973 366.604 117.466C367.791 117.88 368.418 119.186 367.991 120.36C367.658 121.293 366.791 121.88 365.844 121.88ZM96.6404 128.72C95.8617 128.72 95.1043 128.333 94.679 127.6C94.043 126.52 94.4043 125.133 95.4857 124.493C99.343 122.226 103.379 120.066 107.48 118.066C108.612 117.52 109.97 118 110.519 119.12C111.066 120.253 110.596 121.613 109.467 122.16C105.472 124.106 101.546 126.2 97.7923 128.413C97.4296 128.626 97.0324 128.72 96.6404 128.72ZM396.071 134.64C395.738 134.64 395.391 134.573 395.058 134.413C391.151 132.466 387.084 130.573 382.991 128.786C381.844 128.293 381.311 126.946 381.818 125.8C382.311 124.653 383.658 124.12 384.804 124.626C388.978 126.426 393.111 128.36 397.084 130.333C398.218 130.893 398.671 132.266 398.111 133.386C397.711 134.186 396.911 134.64 396.071 134.64ZM70.239 148.133C69.6203 148.133 69.003 147.88 68.555 147.386C67.711 146.453 67.7816 145.013 68.7123 144.173C72.067 141.133 75.587 138.2 79.171 135.453C80.171 134.693 81.5963 134.893 82.359 135.88C83.1216 136.88 82.931 138.306 81.9337 139.066C78.4483 141.733 75.0297 144.586 71.767 147.546C71.331 147.933 70.7857 148.133 70.239 148.133ZM47.8777 172.133C47.383 172.133 46.8817 171.96 46.4643 171.64C45.4817 170.853 45.319 169.426 46.1003 168.44C48.9083 164.906 51.8643 161.426 54.8843 158.093C55.727 157.16 57.167 157.093 58.0977 157.933C59.0283 158.773 59.099 160.213 58.2577 161.146C55.3004 164.413 52.407 167.813 49.659 171.266C49.211 171.84 48.547 172.133 47.8777 172.133ZM29.479 199.28C29.0976 199.28 28.7096 199.186 28.3536 198.986C27.263 198.36 26.883 196.973 27.5057 195.88C29.7337 191.973 32.1217 188.08 34.599 184.306C35.2897 183.266 36.703 182.973 37.7483 183.653C38.7976 184.346 39.0897 185.76 38.4003 186.813C35.9723 190.493 33.6363 194.306 31.455 198.133C31.0363 198.866 30.2683 199.28 29.479 199.28ZM15.4764 228.933C15.207 228.933 14.935 228.893 14.6684 228.786C13.495 228.346 12.9056 227.026 13.351 225.853C14.947 221.653 16.7083 217.44 18.579 213.333C19.1003 212.186 20.4443 211.68 21.591 212.2C22.7337 212.72 23.2363 214.066 22.7163 215.213C20.8857 219.24 19.1644 223.36 17.6017 227.48C17.2577 228.386 16.3924 228.933 15.4764 228.933ZM6.28431 260.426C6.13098 260.426 5.97635 260.4 5.82168 260.373C4.59102 260.12 3.80035 258.92 4.05502 257.693C4.96435 253.293 6.035 248.853 7.24434 244.493C7.579 243.28 8.831 242.573 10.0417 242.906C11.251 243.24 11.9617 244.493 11.6257 245.706C10.4443 249.973 9.39503 254.32 8.50703 258.613C8.2857 259.68 7.33898 260.426 6.28431 260.426ZM2.275 292.96H2.18568C0.931013 292.906 -0.0463049 291.853 0.00169505 290.6C0.177695 286.12 0.51633 281.56 1.003 277.053C1.13766 275.813 2.25903 274.906 3.50703 275.04C4.75637 275.173 5.65765 276.293 5.52298 277.546C5.04698 281.946 4.71767 286.4 4.54701 290.773C4.49767 292 3.48967 292.96 2.275 292.96ZM3.74564 325.72C2.62031 325.72 1.64432 324.893 1.49499 323.746C1.35899 322.72 1.23234 321.68 1.11367 320.653C0.716341 317.2 0.409661 313.693 0.200328 310.213C0.125661 308.96 1.07899 307.893 2.33366 307.813C3.57233 307.746 4.663 308.693 4.739 309.946C4.943 313.333 5.24433 316.76 5.63099 320.133C5.74699 321.146 5.871 322.146 6.003 323.16C6.16566 324.4 5.28967 325.546 4.04434 325.706L3.74564 325.72ZM10.9283 357.706C9.96699 357.706 9.07499 357.093 8.76432 356.133C7.38032 351.84 6.14031 347.44 5.07897 343.04C4.78431 341.826 5.53502 340.586 6.75502 340.293C7.97902 340 9.20436 340.76 9.49903 341.973C10.5337 346.253 11.743 350.546 13.0923 354.733C13.4763 355.933 12.819 357.213 11.6244 357.6C11.3924 357.68 11.159 357.706 10.9283 357.706ZM23.7617 387.88C22.9497 387.88 22.1643 387.453 21.755 386.68C19.619 382.693 17.607 378.586 15.7777 374.48C15.2683 373.333 15.783 371.986 16.9297 371.48C18.075 370.96 19.423 371.48 19.9324 372.626C21.7177 376.64 23.679 380.64 25.7643 384.533C26.3577 385.64 25.939 387.026 24.8324 387.613C24.491 387.8 24.123 387.88 23.7617 387.88ZM41.6244 415.373C40.9444 415.373 40.271 415.066 39.8244 414.493C37.0457 410.893 34.3723 407.2 31.879 403.48C31.1776 402.44 31.455 401.026 32.4964 400.333C33.5377 399.626 34.951 399.906 35.6536 400.946C38.091 404.573 40.7056 408.2 43.4203 411.706C44.1896 412.706 44.007 414.133 43.0123 414.893C42.6003 415.213 42.1097 415.373 41.6244 415.373ZM63.5723 439.733C63.0057 439.733 62.439 439.52 61.9977 439.093C58.727 435.96 55.5323 432.706 52.4977 429.426C51.643 428.506 51.6977 427.066 52.619 426.213C53.5363 425.36 54.979 425.413 55.831 426.333C58.807 429.546 61.9403 432.733 65.147 435.813C66.0523 436.693 66.0816 438.133 65.2123 439.026C64.7656 439.493 64.1683 439.733 63.5723 439.733ZM88.6497 460.866C88.179 460.866 87.7043 460.72 87.2977 460.413C83.6457 457.706 80.0537 454.906 76.627 452.093C75.6563 451.293 75.5163 449.853 76.3123 448.893C77.1096 447.92 78.5416 447.773 79.5123 448.573C82.883 451.346 86.4137 454.106 90.0057 456.76C91.0137 457.52 91.2257 458.933 90.4777 459.946C90.031 460.546 89.3457 460.866 88.6497 460.866ZM116.612 478.12C116.247 478.12 115.878 478.026 115.534 477.853C110.651 475.213 106.666 473.013 103.692 471.333C102.599 470.72 102.214 469.333 102.831 468.24C103.452 467.146 104.84 466.76 105.93 467.386C108.879 469.053 112.836 471.226 117.695 473.84C118.799 474.44 119.212 475.826 118.615 476.92C118.204 477.693 117.42 478.12 116.612 478.12Z" fill="#99D7FF"/>
<path d="M484.911 167.307L417.924 126.72L401.524 143.453L484.911 167.307Z" fill="#0A4CFE"/>
<path d="M417.911 176.706L418.871 145.306L484.911 167.306L417.911 176.706Z" fill="#99D7FF"/>
<path d="M417.844 100.733L484.911 167.307L417.924 126.72L417.844 100.733Z" fill="#99D7FF"/>
<path d="M401.524 143.453L418.871 145.307L418.724 149.867L401.524 143.453Z" fill="#0033BF"/>
</svg>
