<svg width="525" height="500" viewBox="0 0 525 500" fill="none" xmlns="http://www.w3.org/2000/svg">
<path d="M525 487.237C525 492.271 436.456 496.35 327.245 496.35C218.007 496.35 129.476 492.271 129.476 487.237C129.476 482.19 218.007 478.111 327.245 478.111C436.456 478.111 525 482.19 525 487.237Z" fill="#235893"/>
<path d="M302.971 303.544C280.969 301.236 258.98 297.768 236.992 295.46C217.788 293.343 202.228 278.45 202.228 260.395C202.228 198.4 202.228 136.405 202.228 74.4231C202.228 56.3296 217.788 41.309 236.992 42.6733C258.98 44.1525 280.969 46.8046 302.971 48.2709C322.161 49.6353 337.721 64.2478 337.721 82.6983C337.721 145.943 337.721 209.187 337.721 272.444C337.721 290.933 322.161 305.66 302.971 303.544Z" fill="#977EEA"/>
<path d="M236.974 281.779C224.254 280.434 213.906 270.162 213.906 258.165C213.906 196.068 213.906 133.958 213.906 71.8616C213.906 59.8638 224.254 50.2402 236.974 51.1289C258.961 52.6397 280.962 55.3186 302.963 56.8167C315.683 57.7055 326.031 67.7863 326.031 79.9999C326.031 143.138 326.031 206.276 326.031 269.413C326.031 281.627 315.683 291.06 302.963 289.714C280.962 287.467 258.961 284.027 236.974 281.779Z" fill="#B19EFF"/>
<path d="M265.302 120.335C255.256 119.291 245.197 118.273 235.151 117.519C231.112 117.217 227.825 113.924 227.825 110.09C227.825 99.2808 227.825 88.4711 227.825 77.6615C227.825 73.8404 231.112 70.9117 235.151 71.1882C245.197 71.8796 255.256 72.8222 265.302 73.8027C269.341 74.1923 272.615 77.6363 272.615 81.4825C272.615 92.3676 272.615 103.253 272.615 114.138C272.615 117.984 269.341 120.762 265.302 120.335Z" fill="#EFEBFF"/>
<path d="M322.464 83.1289C308.836 82.7027 295.209 81.5619 281.569 80.2581C281.569 78.9042 281.569 77.5502 281.569 76.1963C295.209 77.4875 308.836 78.6158 322.464 79.0421C322.464 80.396 322.464 81.7624 322.464 83.1289Z" fill="#EFEBFF"/>
<path d="M322.462 93.6743C308.827 93.2249 295.204 92.0639 281.569 90.7407C281.569 88.7683 281.569 86.8083 281.569 84.8484C295.204 86.1592 308.827 87.3077 322.462 87.7446C322.462 89.717 322.462 91.6894 322.462 93.6743Z" fill="#EFEBFF"/>
<path d="M319.355 121.746C305.725 121.142 292.094 119.862 278.464 118.458C278.464 116.5 278.464 114.53 278.464 112.572C292.094 113.963 305.725 115.232 319.355 115.823C319.355 117.805 319.355 119.776 319.355 121.746Z" fill="#EFEBFF"/>
<path d="M267.076 134.793C253.429 133.337 239.795 131.918 226.173 131.098C226.173 129.153 226.173 127.207 226.173 125.262C239.795 126.069 253.429 127.476 267.076 128.92C267.076 130.878 267.076 132.836 267.076 134.793Z" fill="#EFEBFF"/>
<path d="M319.349 229.067C300.773 227.949 282.223 225.57 263.647 223.359C263.647 202.62 263.647 181.868 263.647 161.117C282.223 163.16 300.773 165.359 319.349 166.308C319.349 187.227 319.349 208.147 319.349 229.067Z" fill="#EFEBFF"/>
<path d="M245.187 218.815C245.187 218.815 246.524 216.76 249.259 217.005C251.712 217.227 253.453 219.61 253.503 222.202C253.576 225.204 251.356 228.52 245.457 231.078C239.422 227.493 237.03 223.802 236.981 220.801C236.92 218.22 238.564 216.118 241.004 216.316C243.752 216.526 245.187 218.815 245.187 218.815Z" fill="#EFEBFF"/>
<path d="M411.476 257.526C396.601 255.974 381.726 253.622 366.863 252.07C353.88 250.632 343.368 240.559 343.368 228.36C343.368 186.444 343.368 144.515 343.368 102.599C343.368 90.3625 353.88 80.2151 366.863 81.141C381.726 82.142 396.601 83.9312 411.476 84.9322C424.446 85.8456 434.972 95.7302 434.972 108.205C434.972 150.972 434.972 193.738 434.972 236.493C434.972 249.005 424.446 258.965 411.476 257.526Z" fill="#977EEA"/>
<path d="M366.856 242.808C358.248 241.897 351.265 234.949 351.265 226.84C351.265 184.848 351.265 142.857 351.265 100.865C351.265 92.7436 358.248 86.2439 366.856 86.8427C381.727 87.8657 396.597 89.6746 411.481 90.6851C420.076 91.2964 427.072 98.1079 427.072 106.366C427.072 149.057 427.072 191.747 427.072 234.437C427.072 242.708 420.076 249.083 411.481 248.173C396.597 246.651 381.727 244.33 366.856 242.808Z" fill="#B19EFF"/>
<path d="M386.013 133.645C379.221 132.926 372.415 132.245 365.623 131.737C362.891 131.526 360.666 129.296 360.666 126.719C360.666 119.409 360.666 112.086 360.666 104.776C360.666 102.199 362.891 100.217 365.623 100.403C372.415 100.874 379.221 101.505 386.013 102.174C388.745 102.435 390.97 104.764 390.97 107.366C390.97 114.725 390.97 122.085 390.97 129.445C390.97 132.046 388.745 133.93 386.013 133.645Z" fill="#EFEBFF"/>
<path d="M424.677 108.477C415.455 108.193 406.233 107.413 397.024 106.535C397.024 105.62 397.024 104.705 397.024 103.789C406.233 104.667 415.455 105.434 424.677 105.719C424.677 106.634 424.677 107.549 424.677 108.477Z" fill="#EFEBFF"/>
<path d="M424.68 115.601C415.459 115.293 406.238 114.503 397.03 113.615C397.03 112.284 397.03 110.964 397.03 109.632C406.238 110.52 415.459 111.297 424.68 111.593C424.68 112.925 424.68 114.257 424.68 115.601Z" fill="#EFEBFF"/>
<path d="M422.566 134.594C413.354 134.179 404.129 133.311 394.904 132.371C394.904 131.039 394.904 129.72 394.904 128.388C404.129 129.329 413.354 130.184 422.566 130.587C422.566 131.919 422.566 133.262 422.566 134.594Z" fill="#EFEBFF"/>
<path d="M387.216 143.413C377.993 142.427 368.782 141.466 359.559 140.919C359.559 139.605 359.559 138.279 359.559 136.966C368.782 137.513 377.993 138.462 387.216 139.435C387.216 140.761 387.216 142.087 387.216 143.413Z" fill="#EFEBFF"/>
<path d="M422.565 207.154C410.012 206.4 397.46 204.797 384.894 203.303C384.894 189.273 384.894 175.244 384.894 161.214C397.46 162.587 410.012 164.081 422.565 164.725C422.565 178.864 422.565 193.015 422.565 207.154Z" fill="#EFEBFF"/>
<path d="M372.422 200.227C372.422 200.227 373.32 198.837 375.181 199.003C376.828 199.146 378.002 200.762 378.039 202.51C378.089 204.543 376.591 206.789 372.596 208.525C368.527 206.088 366.904 203.591 366.866 201.571C366.816 199.823 367.94 198.397 369.588 198.528C371.448 198.682 372.422 200.227 372.422 200.227Z" fill="#EFEBFF"/>
<path d="M448.265 217.379C439.398 216.45 430.545 215.052 421.679 214.123C413.956 213.269 407.69 207.278 407.69 199.999C407.69 175.044 407.69 150.076 407.69 125.109C407.69 117.818 413.956 111.777 421.679 112.322C430.545 112.916 439.398 113.993 448.265 114.587C455.987 115.131 462.253 121.011 462.253 128.438C462.253 153.914 462.253 179.389 462.253 204.852C462.253 212.303 455.987 218.233 448.265 217.379Z" fill="#977EEA"/>
<path d="M421.691 208.601C416.567 208.07 412.39 203.932 412.39 199.103C412.39 174.092 412.39 149.081 412.39 124.07C412.39 119.241 416.567 115.362 421.691 115.72C430.55 116.326 439.41 117.413 448.269 118.018C453.38 118.376 457.544 122.427 457.544 127.343C457.544 152.774 457.544 178.205 457.544 203.624C457.544 208.552 453.38 212.344 448.269 211.8C439.41 210.899 430.55 209.515 421.691 208.601Z" fill="#B19EFF"/>
<path d="M433.083 143.598C429.045 143.182 424.993 142.778 420.929 142.471C419.322 142.349 417.997 141.014 417.997 139.484C417.997 135.124 417.997 130.777 417.997 126.418C417.997 124.875 419.322 123.699 420.929 123.809C424.993 124.091 429.045 124.471 433.083 124.862C434.716 125.022 436.028 126.405 436.028 127.961C436.028 132.344 436.028 136.728 436.028 141.112C436.028 142.655 434.716 143.77 433.083 143.598Z" fill="#EFEBFF"/>
<path d="M456.117 128.613C450.621 128.44 445.138 127.983 439.642 127.453C439.642 126.91 439.642 126.367 439.642 125.823C445.138 126.342 450.621 126.799 456.117 126.959C456.117 127.514 456.117 128.057 456.117 128.613Z" fill="#EFEBFF"/>
<path d="M456.117 132.859C450.621 132.674 445.138 132.205 439.642 131.674C439.642 130.884 439.642 130.094 439.642 129.304C445.138 129.835 450.621 130.291 456.117 130.464C456.117 131.267 456.117 132.056 456.117 132.859Z" fill="#EFEBFF"/>
<path d="M454.867 144.163C449.374 143.916 443.881 143.398 438.388 142.83C438.388 142.041 438.388 141.251 438.388 140.462C443.881 141.017 449.374 141.535 454.867 141.769C454.867 142.571 454.867 143.361 454.867 144.163Z" fill="#EFEBFF"/>
<path d="M433.801 149.422C428.312 148.836 422.822 148.262 417.333 147.932C417.333 147.151 417.333 146.369 417.333 145.588C422.822 145.905 428.312 146.479 433.801 147.053C433.801 147.847 433.801 148.628 433.801 149.422Z" fill="#EFEBFF"/>
<path d="M454.867 187.373C447.392 186.917 439.917 185.967 432.442 185.079C432.442 176.715 432.442 168.364 432.442 160.013C439.917 160.827 447.392 161.715 454.867 162.098C454.867 170.523 454.867 178.948 454.867 187.373Z" fill="#EFEBFF"/>
<path d="M424.992 183.264C424.992 183.264 425.529 182.436 426.629 182.533C427.614 182.618 428.318 183.581 428.33 184.628C428.369 185.834 427.473 187.174 425.094 188.198C422.663 186.748 421.704 185.262 421.678 184.056C421.653 183.02 422.318 182.168 423.303 182.253C424.416 182.338 424.992 183.264 424.992 183.264Z" fill="#EFEBFF"/>
<path d="M487.937 273.672C479.076 272.752 470.216 271.352 461.356 270.419C453.635 269.574 447.358 263.571 447.358 256.308C447.358 231.339 447.358 206.37 447.358 181.402C447.358 174.126 453.635 168.073 461.356 168.627C470.216 169.22 479.076 170.292 487.937 170.885C495.658 171.427 501.922 177.316 501.922 184.743C501.922 210.217 501.922 235.677 501.922 261.15C501.922 268.603 495.658 274.53 487.937 273.672Z" fill="#977EEA"/>
<path d="M461.366 264.898C456.239 264.357 452.089 260.217 452.089 255.385C452.089 230.383 452.089 205.368 452.089 180.366C452.089 175.534 456.239 171.658 461.366 172.023C470.22 172.627 479.074 173.697 487.942 174.301C493.056 174.666 497.232 178.717 497.232 183.637C497.232 209.067 497.232 234.497 497.232 259.915C497.232 264.835 493.056 268.635 487.942 268.094C479.074 267.188 470.22 265.804 461.366 264.898Z" fill="#B19EFF"/>
<path d="M472.767 199.903C468.711 199.479 464.655 199.068 460.613 198.769C458.99 198.645 457.669 197.312 457.669 195.78C457.669 191.42 457.669 187.072 457.669 182.712C457.669 181.18 458.99 179.997 460.613 180.109C464.655 180.383 468.711 180.769 472.767 181.155C474.376 181.317 475.697 182.7 475.697 184.257C475.697 188.642 475.697 193.027 475.697 197.399C475.697 198.956 474.376 200.077 472.767 199.903Z" fill="#EFEBFF"/>
<path d="M495.786 184.912C490.292 184.736 484.798 184.283 479.318 183.755C479.318 183.214 479.318 182.661 479.318 182.12C484.798 182.636 490.292 183.101 495.786 183.265C495.786 183.818 495.786 184.359 495.786 184.912Z" fill="#EFEBFF"/>
<path d="M495.786 189.149C490.292 188.973 484.798 188.508 479.318 187.967C479.318 187.188 479.318 186.396 479.318 185.604C484.798 186.132 490.292 186.597 495.786 186.76C495.786 187.565 495.786 188.357 495.786 189.149Z" fill="#EFEBFF"/>
<path d="M494.535 200.463C489.058 200.212 483.567 199.696 478.077 199.131C478.077 198.339 478.077 197.548 478.077 196.756C483.567 197.321 489.058 197.837 494.535 198.075C494.535 198.867 494.535 199.659 494.535 200.463Z" fill="#EFEBFF"/>
<path d="M473.47 205.717C467.981 205.132 462.492 204.559 457.003 204.236C457.003 203.452 457.003 202.668 457.003 201.884C462.492 202.208 467.981 202.768 473.47 203.353C473.47 204.149 473.47 204.933 473.47 205.717Z" fill="#EFEBFF"/>
<path d="M494.535 243.669C487.065 243.217 479.581 242.261 472.111 241.369C472.111 233.025 472.111 224.667 472.111 216.31C479.581 217.127 487.065 218.019 494.535 218.396C494.535 226.816 494.535 235.249 494.535 243.669Z" fill="#EFEBFF"/>
<path d="M464.661 239.556C464.661 239.556 465.195 238.737 466.304 238.824C467.294 238.923 467.985 239.879 468.011 240.921C468.037 242.125 467.138 243.466 464.765 244.496C462.328 243.044 461.389 241.567 461.35 240.363C461.324 239.32 461.989 238.476 462.979 238.55C464.074 238.637 464.661 239.556 464.661 239.556Z" fill="#EFEBFF"/>
<path d="M456.195 379.503C324.152 245.294 192.108 492.123 60.0774 357.914C60.0774 343.942 60.0774 329.969 60.0774 315.996C192.108 435.813 324.152 174.591 456.195 294.408C456.195 322.773 456.195 351.138 456.195 379.503Z" fill="#FD9090"/>
<path d="M310.906 293.094C271.214 309.394 231.51 334.865 191.817 348.797C191.817 347.027 191.817 345.257 191.817 343.475C231.51 329.13 271.214 303.256 310.906 286.542C310.906 288.726 310.906 290.91 310.906 293.094Z" fill="#9173F1"/>
<path d="M310.907 304.325C278.952 316.877 247.022 335.372 215.068 349.004C215.068 347.59 215.068 346.176 215.068 344.774C247.022 330.877 278.952 312.141 310.907 299.336C310.907 301.003 310.907 302.669 310.907 304.325Z" fill="#9173F1"/>
<path d="M362.456 334.428C349.647 334.841 336.813 337.13 324.003 340.621C324.003 319.719 324.003 298.806 324.003 277.892C336.813 273.162 349.647 269.635 362.456 267.984C362.456 290.136 362.456 312.288 362.456 334.428Z" fill="white"/>
<path d="M310.907 318.371C297.277 323.417 283.648 329.555 270.019 335.934C270.019 334.325 270.019 332.727 270.019 331.118C283.648 324.624 297.277 318.382 310.907 313.221C310.907 314.934 310.907 316.658 310.907 318.371Z" fill="#9173F1"/>
<path d="M357.063 325.668C348.649 326.385 340.235 327.868 331.821 329.938C331.821 313.986 331.821 298.034 331.821 282.082C340.235 279.411 348.649 277.306 357.063 275.976C357.063 292.54 357.063 309.104 357.063 325.668Z" fill="#A98FFF"/>
<path d="M180.466 393.045C167.639 395.75 154.823 397.04 142.007 396.218C142.007 381.185 142.007 366.14 142.007 351.106C154.823 350.672 167.639 348.15 180.466 344.211C180.466 360.489 180.466 376.767 180.466 393.045Z" fill="white"/>
<path d="M175.06 387.475C166.644 389.095 158.228 390.054 149.824 390.18C149.824 378.651 149.824 367.121 149.824 355.592C158.228 354.862 166.644 353.286 175.06 351.06C175.06 363.195 175.06 375.34 175.06 387.475Z" fill="#A98FFF"/>
<path d="M451.701 307.984C425.066 284.939 398.419 277.056 371.784 278.066C371.784 275.664 371.784 273.274 371.784 270.885C398.419 269.604 425.066 277.216 451.701 299.978C451.701 302.651 451.701 305.323 451.701 307.984Z" fill="#A98FFF"/>
<path d="M449.884 321.089C423.246 298.224 396.609 290.372 369.984 291.283C369.984 288.895 369.984 286.508 369.984 284.12C396.609 282.939 423.246 290.52 449.884 313.114C449.884 315.773 449.884 318.431 449.884 321.089Z" fill="#A98FFF"/>
<path d="M136.241 379.929C132.788 375.466 129.336 370.946 125.883 366.334C126.962 366.505 128.029 366.642 129.108 366.768C132.297 367.156 134.886 365.352 134.886 362.955C134.886 361.38 134.886 359.804 134.886 358.218C134.886 355.809 132.297 353.8 129.108 353.515C110.574 351.871 92.0515 345.33 73.5174 331.792C70.3284 329.474 67.7389 328.995 67.7389 331.05C67.7389 332.397 67.7389 333.744 67.7389 335.091C67.7389 337.122 70.3284 340.992 73.5174 343.424C82.3528 350.124 91.1883 355.25 100.012 359.005C112.084 368 124.169 374.781 136.241 379.929Z" fill="#CDBDFF"/>
<path d="M308.32 329.336C308.32 329.336 309.821 326.741 312.801 325.692C315.453 324.757 317.257 326.28 317.257 328.759C317.257 331.63 314.775 335.77 308.32 340.89C301.877 340.245 299.382 337.984 299.382 335.194C299.382 332.795 301.223 329.993 303.851 328.978C306.83 327.836 308.32 329.336 308.32 329.336Z" fill="#A98FFF"/>
<path d="M521.992 88.8631C422.034 -12.7514 322.076 174.116 222.104 72.5153C222.104 61.934 222.104 51.3528 222.104 40.785C322.076 131.483 422.034 -66.2743 521.992 24.4371C521.992 45.908 521.992 67.3788 521.992 88.8631Z" fill="#FD9090"/>
<path d="M411.992 23.4606C381.937 35.797 351.882 55.0814 321.827 65.626C321.827 64.2853 321.827 62.9447 321.827 61.5912C351.882 50.7373 381.937 31.1434 411.992 18.4977C411.992 20.1477 411.992 21.8106 411.992 23.4606Z" fill="#9173F1"/>
<path d="M412.007 31.9452C387.804 41.4534 363.628 55.4525 339.452 65.769C339.452 64.704 339.452 63.639 339.452 62.5612C363.628 52.0522 387.804 37.8605 412.007 28.1727C412.007 29.4302 412.007 30.6878 412.007 31.9452Z" fill="#9173F1"/>
<path d="M451.028 54.73C441.325 55.0414 431.621 56.7804 421.917 59.4148C421.917 43.5956 421.917 27.7635 421.917 11.9313C431.621 8.34962 441.325 5.67635 451.028 4.43054C451.028 21.197 451.028 37.9635 451.028 54.73Z" fill="white"/>
<path d="M412 42.5793C401.676 46.4095 391.351 51.0568 381.027 55.8828C381.027 54.6699 381.027 53.4442 381.027 52.2313C391.351 47.3159 401.676 42.5921 412 38.6853C412 39.9876 412 41.2771 412 42.5793Z" fill="#9173F1"/>
<path d="M446.914 48.1129C440.554 48.6564 434.18 49.7822 427.82 51.3479C427.82 39.275 427.82 27.2021 427.82 15.1163C434.18 13.0976 440.554 11.506 446.914 10.4967C446.914 23.0354 446.914 35.5742 446.914 48.1129Z" fill="#A98FFF"/>
<path d="M313.242 99.1213C303.524 101.166 293.82 102.138 284.116 101.52C284.116 90.1336 284.116 78.7474 284.116 67.3613C293.82 67.0457 303.524 65.127 313.242 62.1479C313.242 74.4682 313.242 86.8011 313.242 99.1213Z" fill="white"/>
<path d="M309.149 94.8957C302.788 96.1171 296.414 96.8474 290.054 96.9355C290.054 88.2098 290.054 79.484 290.054 70.7582C296.414 70.2042 302.788 69.008 309.149 67.3208C309.149 76.5124 309.149 85.7041 309.149 94.8957Z" fill="#A98FFF"/>
<path d="M518.591 34.7233C498.405 17.2791 478.246 11.3002 458.086 12.0654C458.086 10.2496 458.086 8.44679 458.086 6.63104C478.246 5.65831 498.405 11.4169 518.591 28.6665C518.591 30.6768 518.591 32.7 518.591 34.7233Z" fill="#A98FFF"/>
<path d="M517.209 44.6494C497.038 27.3403 476.867 21.39 456.709 22.0741C456.709 20.267 456.709 18.46 456.709 16.6529C476.867 15.7623 497.038 21.4932 517.209 38.6087C517.209 40.6223 517.209 42.6358 517.209 44.6494Z" fill="#A98FFF"/>
<path d="M279.756 89.1941C277.143 85.8176 274.53 82.3903 271.931 78.8995C272.731 79.0138 273.544 79.128 274.357 79.2295C276.77 79.5215 278.743 78.1506 278.743 76.3354C278.743 75.1422 278.743 73.9489 278.743 72.7557C278.743 70.9278 276.77 69.4046 274.357 69.1889C260.333 67.9449 246.308 62.9943 232.284 52.7505C229.857 50.9861 227.911 50.6307 227.911 52.1793C227.911 53.1948 227.911 54.2229 227.911 55.2384C227.911 56.7871 229.857 59.7066 232.284 61.5472C238.963 66.6247 245.655 70.4963 252.334 73.3524C261.479 80.1562 270.624 85.2971 279.756 89.1941Z" fill="white"/>
<path d="M410.022 50.8885C410.022 50.9012 411.171 48.9305 413.414 48.1296C415.403 47.4303 416.792 48.5872 416.792 50.4562C416.792 52.6302 414.923 55.7705 410.022 59.6482C405.149 59.1524 403.266 57.4487 403.266 55.3255C403.266 53.5074 404.642 51.3969 406.644 50.6214C408.888 49.7569 410.022 50.8885 410.022 50.8885Z" fill="#A98FFF"/>
<path d="M307.485 127.87C307.485 127.87 286.87 129.922 291.295 139.773C295.733 149.636 301.151 150.263 294.249 152.879C287.36 155.495 282.562 157.682 287.502 162.386C292.443 167.09 304.015 165.137 297.706 171.156C291.385 177.175 298.764 185.945 310.168 185.945C321.572 185.945 337.607 188.942 348.972 178.108C360.35 167.275 364.749 183.12 355.886 186.326C355.886 186.326 369.328 185.54 370.747 177.089C372.192 168.638 371.663 165.518 359.318 162.386C346.998 159.254 354.571 158.898 357.318 147.806C360.066 136.727 347.875 134.724 339.98 132.501C332.085 130.266 324.191 117.54 307.485 127.87Z" fill="#380047"/>
<path d="M261.964 181.771C263.477 182.485 266.452 185.317 269.052 187.96C269.702 188.186 270.377 188.459 271.002 188.769C269.264 186.043 267.389 182.806 267.402 181.58C267.427 179.724 272.389 187.948 274.214 191.018C277.051 194.458 273.264 201.301 273.214 205.538C273.214 206.169 273.364 207.204 273.639 208.537C271.552 210.084 269.189 211.191 266.689 212.108C266.777 204.027 268.427 194.993 268.427 194.993C268.427 194.993 266.339 190.364 264.902 189.007C263.652 187.805 263.977 187.257 265.102 187.198C262.552 183.913 260.652 181.14 261.964 181.771Z" fill="#FC7575"/>
<path d="M306.853 180.472C303.464 181.853 292.799 198.64 289.235 210.224C287.172 216.927 283.284 223.844 280.996 225.654C279.47 226.475 277.72 226.654 277.144 223.892C276.069 218.701 275.181 211.462 274.819 207.462C271.443 207.283 268.179 206.271 264.828 206.521C265.128 221.689 266.879 243.25 272.893 243.952C276.019 244.322 282.596 241.143 287.522 235.547C293.762 228.463 299.001 219.653 299.001 219.653L310.179 185.937C310.179 185.937 310.241 179.091 306.853 180.472Z" fill="#005953"/>
<path d="M301.986 181.372C300.412 181.372 287.03 195.399 285.481 204.321C283.906 213.232 282.832 224.368 279.47 221.168C276.097 217.967 280.807 214.172 275.572 214.172C270.349 214.172 257.767 211.043 256.555 219.062C255.318 227.081 261.478 262.522 280.945 253.837C300.412 245.152 311.932 191.425 310.17 185.952C308.408 180.468 301.986 181.372 301.986 181.372Z" fill="#005757"/>
<path d="M329.615 484.088H338.961C338.949 483.924 338.937 483.748 338.937 483.56C338.949 479.557 352.881 418.756 350.699 409.904C348.516 401.053 346.975 399.996 347.012 389.465C347.037 378.935 327.643 380.731 327.643 380.731C327.643 380.731 329.27 401.205 331.909 407.322C333.881 411.888 331.748 458.284 329.615 484.088Z" fill="#FC7575"/>
<path d="M273.052 478.101L280.686 478.147C285.968 464.165 302.531 432.669 304.942 422.909C307.778 411.407 304.47 404.6 303.464 396.178C302.459 387.756 318.137 359.307 318.137 359.307L294.825 360.83C294.825 360.83 287.555 375.551 285.617 383.407C283.666 391.252 284.817 391.321 284.769 403.25C284.732 415.099 275.985 466.311 273.052 478.101Z" fill="#FD5E5A"/>
<path d="M303.464 396.178C302.458 387.756 318.137 359.307 318.137 359.307L294.825 360.83C294.825 360.83 287.555 375.551 285.617 383.407C284.187 389.164 284.429 390.733 284.635 395.867C289.094 396.778 296.025 398.117 303.936 399.328C303.755 398.301 303.597 397.251 303.464 396.178Z" fill="#E80300"/>
<path d="M347.019 389.457C347.056 378.927 327.656 380.73 327.656 380.73C327.656 380.73 328.702 393.779 330.461 402.154C337.03 402.447 343.23 402.33 348.347 401.522C347.511 398.441 347.007 395.524 347.019 389.457Z" fill="#FD5E5A"/>
<path d="M400.998 374.252C400.998 374.252 407.089 382.969 371.914 380.618C371.914 380.618 365.456 385.332 346.146 388.599C346.146 388.599 318.1 401.536 281.165 388.599C281.165 388.599 256.804 394.676 248.168 386.453C248.168 386.453 307.844 304.421 299.094 260.113L328.774 259.161C328.774 259.161 378.814 325.435 400.998 374.252Z" fill="#C6001F"/>
<path d="M306.841 180.485C306.841 180.485 314.096 175.165 338.702 180.45C339.354 180.593 339.98 206.003 339.98 206.003C339.98 206.003 328.567 248.533 330.734 259.15C330.734 259.15 317.691 269.636 298.234 260.51C298.234 260.51 300.752 227.107 298.998 219.663C297.219 212.23 293.699 205.478 298.71 197.76C303.722 190.041 306.841 180.485 306.841 180.485Z" fill="#E40071"/>
<path d="M339.819 269.52C340.212 269.145 343.705 264.251 344.455 264.965C345.205 265.668 341.368 270.176 341.368 270.176C341.368 270.176 345.82 265.902 346.693 266.733C347.566 267.565 340.741 273.349 340.04 273.349C339.315 273.349 339.819 269.52 339.819 269.52Z" fill="#FD5E5A"/>
<path d="M333.802 264.687C333.802 264.687 331.922 267.424 333.31 268.735C334.686 270.057 333.949 271.425 334.895 272.314C335.829 273.215 340.043 273.355 340.043 273.355C340.043 273.355 340.325 269.495 342.414 265.061C342.795 264.243 344.023 262.64 345.768 260.522C343.913 259.353 341.947 258.3 339.969 257.352C336.492 261.657 333.863 264.582 333.802 264.687Z" fill="#FC7575"/>
<path d="M338.684 180.489C338.684 180.489 336.235 198.948 338.684 204.042C341.059 208.993 354.945 214.693 357.32 224.726C359.095 232.211 347.509 248.016 339.972 257.358C341.847 259.155 344.909 262.131 346.759 263.297C354.445 253.99 371.194 232.057 371.681 226.927C372.281 220.608 348.996 179.835 338.684 180.489Z" fill="#005953"/>
<path d="M336.61 219.487C336.61 219.487 343.152 215.818 347.305 217.224C351.446 218.629 339.299 238.116 339.299 245.155C339.299 252.195 348.168 255.947 348.168 255.947C348.168 255.947 351.871 258.734 357.325 257.34C362.78 255.947 370.06 233.768 375.602 228.492C381.144 223.203 360.703 182.789 338.699 180.478C316.682 178.179 336.61 219.487 336.61 219.487Z" fill="#009287"/>
<path d="M311.938 162.503C311.938 162.503 315.317 167.215 314.899 172.626C314.671 175.542 314.089 179.217 313.165 181.35C312.216 183.592 312.874 185.484 315.203 186.376C316.633 186.93 318.342 187.171 320.139 186.508C322.999 185.46 327.353 183.52 328.669 180.483C329.555 178.446 321.556 155.405 321.556 155.405L311.938 162.503Z" fill="#FC7575"/>
<path d="M301.975 185.658C301.975 185.658 324.71 194.663 343.199 181.496C343.199 181.496 320.226 175.556 307.111 179.456C294.008 183.356 301.975 185.658 301.975 185.658Z" fill="#FC7575"/>
<path d="M311.938 162.502L321.556 155.404C321.556 155.404 322.493 158.116 323.695 161.755C321.442 165.009 318.443 168.142 314.735 169.371C314.051 165.455 311.938 162.502 311.938 162.502Z" fill="#FD5E5A"/>
<path d="M305.174 131.532C305.174 131.532 302.059 133.533 301.098 137.5C300.137 141.466 302.572 146.165 302.316 149.546C302.072 152.927 307.366 169.513 315.787 166.303C324.195 163.093 326.157 150.547 326.375 147.801C326.567 145.042 321.658 135.511 316.992 132.935C312.326 130.36 305.174 131.532 305.174 131.532Z" fill="#FC7575"/>
<path d="M308.289 151.2C308.225 152.589 308.01 154.267 307.756 155.644C308.225 155.861 308.834 155.994 309.392 155.897C308.504 156.259 307.553 155.789 307.49 155.776C307.654 154.629 307.794 153.108 308.289 151.2Z" fill="#49005E"/>
<path d="M312.163 144.897C312.163 144.897 313.819 143.673 315.754 143.455C317.703 143.237 320.39 145.382 320.39 145.382C320.39 145.382 317.435 143.77 316.136 143.964C314.863 144.158 313.589 144.982 313.589 144.982L312.163 144.897Z" fill="#49005E"/>
<path d="M307.106 146.076C307.106 146.076 305.961 144.791 304.714 144.489C303.466 144.186 301.977 146.185 301.977 146.185C301.977 146.185 303.683 144.731 304.51 144.973C305.35 145.228 306.228 146.1 306.228 146.1L307.106 146.076Z" fill="#49005E"/>
<path d="M303.456 149.597C303.621 150.25 304.231 150.661 304.828 150.516C305.425 150.383 305.755 149.742 305.59 149.089C305.437 148.448 304.815 148.037 304.231 148.182C303.621 148.315 303.291 148.956 303.456 149.597Z" fill="#49005E"/>
<path d="M313.13 148.407C313.296 149.06 313.906 149.472 314.491 149.327C315.088 149.181 315.444 148.552 315.266 147.898C315.101 147.257 314.478 146.845 313.893 146.991C313.308 147.124 312.953 147.765 313.13 148.407Z" fill="#49005E"/>
<path d="M318.109 146.769C312.345 144.855 312.612 148.586 311.556 149.47C312.548 148.974 312.994 147.217 314.202 146.902C315.195 146.636 316.951 146.733 318.109 146.769Z" fill="#3F004A"/>
<path d="M307.37 149.911C304.343 145.917 302.677 148.822 301.507 149.028C302.436 149.088 303.618 147.963 304.623 148.265C305.424 148.507 306.582 149.366 307.37 149.911Z" fill="#3F004A"/>
<path d="M313.809 154.099C314.24 154.896 315.712 155.005 317.12 154.328C318.515 153.652 319.327 152.456 318.896 151.659C318.465 150.85 316.993 150.753 315.598 151.429C314.177 152.106 313.39 153.302 313.809 154.099Z" fill="#FD5E5A"/>
<path d="M339.996 159.363C333.828 157.014 345.418 156.316 345.418 148.988C345.418 146.957 344.712 145.966 343.645 145.574C338.827 143.764 336.167 139.946 334.83 134.942C333.957 131.713 329.961 127.357 324.641 126.219C321.03 125.448 317.343 125.828 313.693 125.962C306.511 126.244 304.468 131.358 304.609 131.884C304.725 131.896 305.072 131.774 305.65 131.664C310.674 130.991 317.15 134.465 318.306 139.335C318.576 141.317 320.08 146.088 322.38 146.027C323.33 146.003 323.292 143.311 323.703 143.03C328.252 147.373 325.271 153.649 323.639 157.356C323.279 158.164 322.906 158.947 322.354 159.644C317.934 165.199 322.508 177.042 325.887 178.84C329.395 180.725 338.505 177.91 334.445 174.032C330.385 170.166 348.99 171.683 351.329 166.055C353.667 160.427 346.138 161.712 339.996 159.363Z" fill="#49005E"/>
<path d="M322.342 145.102C322.342 145.102 322.725 141.692 325.579 142.638C328.422 143.597 327.236 151.873 324.726 151.072C322.215 150.259 322.342 145.102 322.342 145.102Z" fill="#FC7575"/>
<path d="M322.97 146.749C322.97 146.749 323.314 143.05 324.728 144.032C326.154 145.014 326.294 148.628 324.804 148.859C323.34 149.077 322.97 146.749 322.97 146.749Z" fill="#FD5E5A"/>
<path d="M310.291 160.555H310.139C310.013 160.543 309.911 160.423 309.924 160.303C309.937 160.17 310.038 160.074 310.19 160.086C310.202 160.086 312.06 160.218 315.434 158.305C315.561 158.233 315.712 158.269 315.788 158.377C315.851 158.486 315.813 158.63 315.687 158.702C312.679 160.411 310.821 160.555 310.291 160.555Z" fill="#49005E"/>
<path d="M312.594 161.627C312.418 161.627 312.329 161.591 312.279 161.567C312.152 161.519 312.102 161.375 312.152 161.254C312.216 161.146 312.354 161.098 312.481 161.134C312.506 161.146 313.061 161.29 314.349 160.389C314.463 160.317 314.614 160.341 314.703 160.449C314.766 160.558 314.74 160.702 314.639 160.774C313.604 161.483 312.96 161.627 312.594 161.627Z" fill="#49005E"/>
<path d="M277.993 491.889C277.993 491.889 271.986 489.686 267.79 488.145C263.594 486.603 256.701 484.629 254.603 483.864C252.493 483.088 246.799 475.576 247.925 474.229C249.052 472.871 255.79 475.782 260.094 475.371C264.398 474.96 273.185 471.832 273.761 473.088C274.348 474.355 280.426 476.878 281.158 478.476C281.889 480.063 279.455 491.261 277.993 491.889Z" fill="#FD9A00"/>
<path d="M277.081 490.393C264.589 480.496 265.836 487.174 254.675 475.725C257.121 478.955 261.161 483.031 265.117 484.206C267.275 484.846 269.265 485.93 271.243 486.98C273.221 488.053 275.151 489.218 277.081 490.393Z" fill="#FFF7CF"/>
<path d="M268.018 480.279C267.682 480.462 267.263 480.348 267.083 480.028C266.448 478.898 264.973 476.592 263.379 474.801C263.87 474.686 264.374 474.572 264.877 474.447C266.759 476.672 268.198 479.206 268.294 479.377C268.474 479.708 268.354 480.108 268.018 480.279Z" fill="#FFF7CF"/>
<path d="M269.996 478.088C269.625 478.145 269.277 477.894 269.217 477.529C269.217 477.494 268.929 475.679 268.006 473.682C268.486 473.568 268.941 473.454 269.385 473.351C270.284 475.394 270.572 477.198 270.584 477.335C270.644 477.689 270.38 478.031 269.996 478.088Z" fill="#FFF7CF"/>
<path d="M269.972 488.944C265.992 487.448 261.784 485.77 260.489 484.971C257.924 483.384 250.755 474.184 249.22 473.864H249.076C248.537 473.864 248.129 473.967 247.925 474.229C246.799 475.576 252.493 483.088 254.603 483.864C256.701 484.629 263.594 486.604 267.79 488.145C268.486 488.396 269.217 488.67 269.972 488.944Z" fill="#DE680A"/>
<path d="M342.446 497.856C342.446 497.856 336.003 498.254 331.499 498.534C326.996 498.814 319.841 499.773 317.583 499.913C315.325 500.053 306.833 495.508 307.25 493.813C307.68 492.131 315.116 492.084 318.847 489.981C322.578 487.889 329.205 481.509 330.272 482.432C331.364 483.344 338.028 483.203 339.402 484.36C340.765 485.529 343.501 496.7 342.446 497.856Z" fill="#FD9A00"/>
<path d="M340.629 495.134C322.48 493.547 327.958 498.435 310.054 494.854C314.441 496.242 320.887 497.49 325.372 496.359C327.799 495.74 330.384 495.577 332.933 495.402C335.482 495.239 338.068 495.18 340.629 495.134Z" fill="#FFF7CF"/>
<path d="M328.223 491.281C328.004 491.582 327.565 491.64 327.261 491.42C326.189 490.654 323.826 489.135 321.573 488.149C321.963 487.848 322.377 487.546 322.791 487.222C325.483 488.509 327.919 490.237 328.089 490.353C328.394 490.573 328.454 490.991 328.223 491.281Z" fill="#FFF7CF"/>
<path d="M329.069 488.487C328.74 488.695 328.313 488.602 328.106 488.301C328.081 488.266 327.021 486.723 325.303 485.273C325.669 484.982 326.046 484.692 326.4 484.426C328.13 485.922 329.178 487.454 329.251 487.57C329.471 487.872 329.373 488.289 329.069 488.487Z" fill="#FFF7CF"/>
<path d="M135.392 446.58C105.832 443.498 76.2707 438.826 46.6969 435.731C20.9079 432.885 0 412.853 0 388.596C0 305.273 0 221.938 0 138.615C0 114.296 20.9079 94.1143 46.6969 95.9535C76.2707 97.9293 105.832 101.496 135.392 103.472C161.194 105.311 182.102 124.946 182.102 149.75C182.102 234.763 182.102 319.775 182.102 404.776C182.102 429.642 161.194 449.438 135.392 446.58Z" fill="#977EEA"/>
<path d="M46.7002 417.317C29.6135 415.513 15.7056 401.702 15.7056 385.581C15.7056 302.109 15.7056 218.637 15.7056 135.165C15.7056 119.031 29.6135 106.097 46.7002 107.295C76.2678 109.321 105.835 112.916 135.403 114.93C152.49 116.128 166.398 129.68 166.398 146.097C166.398 230.965 166.398 315.833 166.398 400.689C166.398 417.119 152.49 429.794 135.403 427.99C105.835 424.951 76.2678 420.343 46.7002 417.317Z" fill="#B19EFF"/>
<path d="M84.7807 200.323C71.2692 198.91 57.7578 197.545 44.2463 196.534C38.8213 196.12 34.4071 191.685 34.4071 186.544C34.4071 172.022 34.4071 157.488 34.4071 142.954C34.4071 137.812 38.8213 133.877 44.2463 134.255C57.7578 135.169 71.2692 136.436 84.7807 137.764C90.2185 138.287 94.6073 142.917 94.6073 148.095C94.6073 162.714 94.6073 177.346 94.6073 191.978C94.6073 197.156 90.2185 200.884 84.7807 200.323Z" fill="#EFEBFF"/>
<path d="M161.621 150.307C143.287 149.737 124.967 148.195 106.659 146.447C106.659 144.626 106.659 142.806 106.659 140.985C124.967 142.721 143.287 144.25 161.621 144.809C161.621 146.642 161.621 148.474 161.621 150.307Z" fill="#EFEBFF"/>
<path d="M161.618 164.464C143.291 163.873 124.964 162.304 106.65 160.53C106.65 157.887 106.65 155.257 106.65 152.614C124.964 154.376 143.291 155.92 161.618 156.5C161.618 159.155 161.618 161.809 161.618 164.464Z" fill="#EFEBFF"/>
<path d="M157.442 202.22C139.114 201.403 120.787 199.674 102.459 197.792C102.459 195.163 102.459 192.523 102.459 189.883C120.787 191.753 139.114 193.458 157.442 194.263C157.442 196.916 157.442 199.568 157.442 202.22Z" fill="#EFEBFF"/>
<path d="M87.1508 219.759C68.8248 217.8 50.4988 215.899 32.1729 214.796C32.1729 212.179 32.1729 209.562 32.1729 206.945C50.4988 208.025 68.8248 209.914 87.1508 211.85C87.1508 214.49 87.1508 217.119 87.1508 219.759Z" fill="#EFEBFF"/>
<path d="M157.426 346.466C132.474 344.967 107.509 341.776 82.5571 338.801C82.5571 310.913 82.5571 283.024 82.5571 255.136C107.509 257.881 132.474 260.833 157.426 262.114C157.426 290.231 157.426 318.348 157.426 346.466Z" fill="#EFEBFF"/>
<path d="M57.7405 332.682C57.7405 332.682 59.5387 329.931 63.2311 330.251C66.528 330.547 68.8537 333.755 68.9376 337.237C69.0215 341.278 66.0364 345.741 58.112 349.177C49.9958 344.337 46.795 339.383 46.7111 335.353C46.6271 331.883 48.833 329.052 52.1178 329.315C55.8103 329.611 57.7405 332.682 57.7405 332.682Z" fill="#EFEBFF"/>
<path d="M129.479 417.143C123.605 417.143 118.822 412.588 118.822 406.995V371.208C118.822 366.791 122.586 363.206 127.214 363.206C131.853 363.206 135.618 366.791 135.618 371.208V402.646C135.618 405.99 132.764 408.707 129.252 408.707C125.739 408.707 122.874 405.99 122.874 402.646V375.409C122.874 374.245 124.72 374.245 124.72 375.409V402.646C124.72 405.02 126.758 406.949 129.252 406.949C131.745 406.949 133.771 405.02 133.771 402.646V371.208C133.771 367.761 130.834 364.964 127.214 364.964C123.605 364.964 120.668 367.761 120.668 371.208V406.995C120.668 411.629 124.624 415.385 129.479 415.385C134.335 415.385 138.291 411.629 138.291 406.995V374.564C138.291 373.4 140.137 373.4 140.137 374.564V406.995C140.137 412.588 135.354 417.143 129.479 417.143Z" fill="#6F7FBF"/>
<path d="M308.008 182.163C308.008 182.163 315.262 176.842 339.869 182.127C340.521 182.27 341.147 207.681 341.147 207.681C341.147 207.681 329.733 250.21 331.901 260.827C331.901 260.827 318.858 271.314 299.401 262.187C299.401 262.187 295.955 226.589 294.189 219.145C292.41 211.701 292.735 205.259 296.018 196.741C297.91 191.874 300.415 190.12 302.032 186.875C303.886 183.153 308.008 182.163 308.008 182.163Z" fill="#009287"/>
</svg>
