<svg width="518" height="511" viewBox="0 0 518 511" fill="none" xmlns="http://www.w3.org/2000/svg">
<path d="M503.965 496.376C503.965 503.955 419.744 510.091 315.86 510.091C211.971 510.091 127.754 503.955 127.754 496.376C127.754 488.785 211.971 482.648 315.86 482.648C419.744 482.648 503.965 488.785 503.965 496.376Z" fill="#977EEA"/>
<path d="M428.494 117.611H261.375C259.941 117.611 258.778 116.453 258.778 115.022V2.5894C258.778 1.15872 259.941 0 261.375 0H428.494C429.936 0 431.095 1.15872 431.095 2.5894V115.022C431.095 116.453 429.936 117.611 428.494 117.611Z" fill="#B19EFF"/>
<path d="M344.935 100.313H282.552V14.1648H344.935V100.313Z" fill="#ECF2FF"/>
<path d="M363.025 98.1489C368.523 98.1489 372.981 99.828 372.981 101.885C372.981 102.926 371.87 103.86 370.072 104.534L370.995 108.117L367.601 105.208C366.23 105.48 364.669 105.622 363.025 105.622C357.515 105.622 353.058 103.955 353.058 101.885C353.058 99.828 357.515 98.1489 363.025 98.1489Z" fill="#ECF2FF"/>
<path d="M421.506 18.0076H353.058V14.165H421.506V18.0076Z" fill="#ECF2FF"/>
<path d="M421.506 26.355H353.058V22.5002H421.506V26.355Z" fill="#ECF2FF"/>
<path d="M421.506 34.7026H353.058V30.8484H421.506V34.7026Z" fill="#ECF2FF"/>
<path d="M421.506 43.0386H353.058V39.1958H421.506V43.0386Z" fill="#ECF2FF"/>
<path d="M328.843 51.9891C328.843 62.5951 321.843 71.2029 313.2 71.2029C304.557 71.2029 297.557 62.5951 297.557 51.9891C297.557 41.3713 304.557 32.7754 313.2 32.7754C321.843 32.7754 328.843 41.3713 328.843 51.9891Z" fill="#D7E0FE"/>
<path d="M297.167 51.9891C297.167 50.9132 297.238 49.8608 297.38 48.844C295.547 49.3524 294.187 51.1969 294.187 53.3961C294.187 55.82 295.842 57.8182 297.959 58.0547C297.45 56.1511 297.167 54.1056 297.167 51.9891Z" fill="#D7E0FE"/>
<path d="M329.008 48.7852C329.15 49.8256 329.233 50.9016 329.233 51.9894C329.233 54.1177 328.949 56.1632 328.429 58.0786C330.675 57.9722 332.449 55.9149 332.449 53.3964C332.449 51.0908 330.971 49.1872 329.008 48.7852Z" fill="#D7E0FE"/>
<path d="M313.2 71.5932C312.171 71.5932 311.166 71.4632 310.185 71.2385V89.2578H318.13V70.6355C316.582 71.2503 314.914 71.5932 313.2 71.5932Z" fill="#D7E0FE"/>
<path d="M313.2 32.3855C320.838 32.3855 327.258 38.9714 328.843 47.7329C331.314 42.0574 322.588 27.1593 322.588 27.1593C322.588 27.1593 321.985 30.7656 318.851 29.8079C315.73 28.8383 316.688 22.5007 316.688 22.5007L313.743 27.0411L311.639 21.6257L310.185 27.1593L307.063 22.5007C307.063 22.5007 308.624 25.835 307.063 28.3653C305.49 30.8838 300.075 32.3382 298.999 36.4293C298.313 39.0069 298.881 40.9578 299.378 42.0574C302.18 36.2756 307.323 32.3855 313.2 32.3855Z" fill="#D7E0FE"/>
<path d="M337.025 99.3081H292.023V94.1293C292.023 89.0452 296.138 84.9187 301.222 84.9187H327.814C332.91 84.9187 337.025 89.0452 337.025 94.1293V99.3081Z" fill="#D7E0FE"/>
<path d="M421.388 91.623C421.033 91.623 420.678 91.5166 420.359 91.3156C418.798 90.3105 417.202 89.3173 415.582 88.3477C414.683 87.8038 414.4 86.6331 414.944 85.7463C415.476 84.8476 416.646 84.552 417.545 85.0959C419.188 86.0892 420.82 87.1061 422.404 88.123C423.291 88.6906 423.54 89.873 422.972 90.748C422.617 91.3156 422.002 91.623 421.388 91.623Z" fill="#99D7FF"/>
<path d="M269.582 52.6511H269.546C265.916 52.5802 262.368 52.5329 258.995 52.5329H258.39C257.345 52.5329 256.495 51.6816 256.495 50.6411C256.495 49.5887 257.345 48.7493 258.39 48.7493H258.995C262.395 48.7493 265.975 48.7847 269.629 48.8675C270.669 48.8911 271.509 49.7543 271.485 50.8066C271.462 51.8353 270.61 52.6511 269.582 52.6511ZM231.038 53.5734C230.062 53.5734 229.231 52.8285 229.151 51.8353C229.069 50.783 229.847 49.8726 230.889 49.7898C234.517 49.4942 238.301 49.2696 242.136 49.0922C243.161 49.0449 244.067 49.8607 244.113 50.9131C244.159 51.9536 243.348 52.8403 242.302 52.8876C238.511 53.0531 234.774 53.2778 231.193 53.5734H231.038ZM296.93 54.0109L296.776 53.9991C293.123 53.7035 289.387 53.4552 285.65 53.2542C284.598 53.195 283.794 52.3083 283.853 51.256C283.912 50.2155 284.787 49.4351 285.851 49.4705C289.623 49.6715 293.395 49.9316 297.072 50.2272C298.124 50.31 298.893 51.2205 298.81 52.261C298.739 53.2542 297.9 54.0109 296.93 54.0109ZM324.113 57.156L323.829 57.1324C320.199 56.5767 316.487 56.0682 312.786 55.6189C311.745 55.4889 311.012 54.543 311.131 53.5025C311.261 52.462 312.218 51.7407 313.247 51.8471C316.983 52.3083 320.732 52.8167 324.397 53.3842C325.437 53.5379 326.147 54.5075 325.981 55.548C325.839 56.4821 325.035 57.156 324.113 57.156ZM203.919 57.2033C203.031 57.2033 202.239 56.5767 202.061 55.678C201.861 54.6494 202.531 53.6443 203.559 53.4434C207.165 52.7457 210.911 52.1191 214.697 51.5752C215.723 51.4333 216.691 52.1427 216.842 53.1832C216.988 54.2237 216.268 55.1814 215.232 55.3233C211.51 55.8554 207.827 56.4821 204.285 57.1678C204.163 57.1915 204.041 57.2033 203.919 57.2033ZM350.965 62.4294C350.811 62.4294 350.658 62.4058 350.516 62.3703C346.98 61.519 343.315 60.7032 339.65 59.9464C338.633 59.7455 337.959 58.7404 338.172 57.7118C338.384 56.6831 339.378 56.0328 340.406 56.2338C344.119 56.9905 347.82 57.8181 351.402 58.6931C352.419 58.9414 353.046 59.9583 352.798 60.9751C352.585 61.8501 351.816 62.4294 350.965 62.4294ZM177.537 64.3685C176.76 64.3685 176.031 63.8956 175.753 63.1152C175.399 62.1338 175.912 61.0461 176.897 60.6913C180.375 59.4498 184.002 58.2793 187.675 57.2388C188.682 56.955 189.731 57.5344 190.017 58.5394C190.304 59.5444 189.721 60.5967 188.714 60.8805C185.122 61.9092 181.577 63.0443 178.178 64.2621C177.965 64.3331 177.75 64.3685 177.537 64.3685ZM377.19 70.1977C376.977 70.1977 376.765 70.1622 376.552 70.0912C373.111 68.8616 369.564 67.691 366.005 66.6032C365 66.3076 364.444 65.2435 364.74 64.2385C365.047 63.2453 366.111 62.6778 367.116 62.9852C370.723 64.0848 374.317 65.2672 377.817 66.5087C378.81 66.8634 379.33 67.9512 378.976 68.9326C378.704 69.7129 377.971 70.1977 377.19 70.1977ZM152.771 75.9086C152.122 75.9086 151.49 75.5657 151.135 74.9745C150.606 74.0641 150.907 72.9054 151.808 72.3733C155.024 70.4815 158.388 68.6842 161.806 67.0289C162.751 66.5678 163.883 66.9579 164.34 67.9039C164.797 68.838 164.404 69.9731 163.463 70.4342C160.133 72.0541 156.861 73.804 153.731 75.6485C153.428 75.8258 153.098 75.9086 152.771 75.9086ZM402.387 80.8392C402.103 80.8392 401.807 80.78 401.535 80.6381C398.272 79.0183 394.89 77.4457 391.485 75.9559C390.516 75.5421 390.078 74.4188 390.492 73.4611C390.918 72.5033 392.029 72.0659 392.987 72.4797C396.463 73.9931 399.904 75.6012 403.226 77.2447C404.16 77.7176 404.55 78.8527 404.078 79.7868C403.746 80.4489 403.073 80.8392 402.387 80.8392ZM130.762 92.0836C130.246 92.0836 129.732 91.8708 129.358 91.4569C128.655 90.6765 128.714 89.4823 129.488 88.7847C132.287 86.2426 135.221 83.7951 138.208 81.5131C139.042 80.8746 140.229 81.0401 140.865 81.8678C141.501 82.6955 141.342 83.8897 140.511 84.5282C137.607 86.751 134.755 89.1277 132.036 91.587C131.673 91.9181 131.218 92.0836 130.762 92.0836ZM112.122 112.089C111.708 112.089 111.292 111.948 110.944 111.676C110.123 111.025 109.989 109.831 110.64 109.003C112.98 106.071 115.444 103.163 117.963 100.384C118.665 99.6035 119.866 99.5444 120.641 100.242C121.416 100.951 121.475 102.146 120.774 102.926C118.309 105.646 115.897 108.495 113.607 111.368C113.232 111.841 112.678 112.089 112.122 112.089ZM96.7838 134.72C96.4657 134.72 96.1428 134.637 95.8461 134.472C94.9368 133.952 94.62 132.793 95.1391 131.883C96.9966 128.631 98.9865 125.379 101.052 122.234C101.628 121.371 102.806 121.123 103.678 121.702C104.551 122.27 104.797 123.452 104.221 124.327C102.197 127.401 100.25 130.582 98.4319 133.763C98.082 134.377 97.4412 134.72 96.7838 134.72ZM85.1112 159.444C84.8866 159.444 84.6596 159.408 84.4374 159.326C83.4595 158.947 82.9676 157.848 83.3389 156.878C84.6703 153.366 86.1375 149.855 87.6971 146.438C88.1322 145.48 89.2531 145.066 90.2085 145.492C91.1603 145.929 91.5801 147.053 91.1474 147.998C89.6221 151.356 88.1866 154.797 86.8836 158.226C86.5951 158.983 85.875 159.444 85.1112 159.444ZM77.4483 185.681C77.3206 185.681 77.1916 185.669 77.0616 185.645C76.0364 185.433 75.3779 184.428 75.5896 183.411C76.3475 179.745 77.2413 176.045 78.2487 172.403C78.5277 171.398 79.5718 170.807 80.5804 171.09C81.5902 171.362 82.1825 172.403 81.9011 173.42C80.9174 176.979 80.0424 180.597 79.301 184.179C79.1166 185.066 78.3279 185.681 77.4483 185.681ZM74.1069 212.817H74.0311C72.9847 212.769 72.1713 211.894 72.2115 210.842C72.3581 207.106 72.6395 203.31 73.045 199.55C73.1585 198.51 74.0938 197.765 75.1343 197.871C76.1748 197.99 76.9268 198.924 76.8133 199.964C76.4172 203.63 76.1429 207.342 75.9998 210.996C75.9596 212.013 75.119 212.817 74.1069 212.817ZM75.333 240.118C74.3942 240.118 73.5794 239.432 73.4553 238.474C73.343 237.611 73.2366 236.76 73.1384 235.897C72.8074 233.012 72.5509 230.091 72.3771 227.194C72.3144 226.154 73.1101 225.255 74.1541 225.196C75.1875 225.137 76.098 225.929 76.1607 226.97C76.3298 229.796 76.5804 232.657 76.9044 235.459C77.0002 236.311 77.1041 237.15 77.2141 237.978C77.3501 239.018 76.6194 239.976 75.5813 240.106L75.333 240.118ZM81.3194 266.792C80.5177 266.792 79.7739 266.272 79.515 265.468C78.361 261.897 77.3288 258.22 76.4444 254.555C76.1984 253.538 76.824 252.521 77.8408 252.273C78.8612 252.024 79.8828 252.651 80.1287 253.668C80.9907 257.239 81.9993 260.821 83.1225 264.309C83.4441 265.314 82.8967 266.379 81.9 266.698C81.7072 266.757 81.5121 266.792 81.3194 266.792ZM92.0175 291.942C91.3412 291.942 90.6874 291.575 90.3457 290.937C88.565 287.614 86.8883 284.197 85.363 280.768C84.9374 279.81 85.3666 278.687 86.322 278.261C87.2774 277.836 88.4006 278.261 88.8251 279.219C90.3137 282.565 91.949 285.911 93.6871 289.151C94.1813 290.073 93.8336 291.22 92.9102 291.717C92.6264 291.871 92.3202 291.942 92.0175 291.942ZM106.908 314.856C106.342 314.856 105.78 314.608 105.408 314.123C103.092 311.132 100.863 308.034 98.7843 304.948C98.2003 304.085 98.4319 302.902 99.2998 302.323C100.166 301.732 101.346 301.968 101.931 302.831C103.963 305.858 106.142 308.873 108.407 311.806C109.046 312.633 108.895 313.828 108.066 314.466C107.722 314.726 107.313 314.856 106.908 314.856ZM125.205 335.158C124.733 335.158 124.26 334.992 123.892 334.637C121.167 332.013 118.502 329.305 115.973 326.574C115.261 325.805 115.307 324.611 116.074 323.901C116.839 323.192 118.041 323.227 118.751 323.996C121.233 326.68 123.845 329.329 126.518 331.894C127.273 332.627 127.296 333.822 126.571 334.578C126.2 334.969 125.702 335.158 125.205 335.158ZM146.11 352.775C145.718 352.775 145.322 352.657 144.982 352.409C141.939 350.15 138.944 347.809 136.087 345.468C135.277 344.794 135.161 343.6 135.826 342.796C136.49 341.992 137.683 341.874 138.493 342.536C141.303 344.841 144.246 347.147 147.241 349.358C148.08 349.985 148.256 351.179 147.634 352.018C147.262 352.515 146.69 352.775 146.11 352.775ZM169.42 367.165C169.115 367.165 168.807 367.094 168.521 366.94C164.45 364.741 161.128 362.908 158.649 361.513C157.737 360.993 157.416 359.834 157.932 358.924C158.448 358.013 159.606 357.694 160.515 358.214C162.973 359.598 166.272 361.418 170.322 363.606C171.243 364.102 171.587 365.249 171.089 366.172C170.746 366.798 170.094 367.165 169.42 367.165Z" fill="#8DD1C5"/>
<path d="M518 124.138L462.156 90.3103L448.488 104.25L518 124.138Z" fill="#6D80BF"/>
<path d="M462.144 131.978L462.948 105.8L518 124.139L462.144 131.978Z" fill="#C8EDEA"/>
<path d="M462.085 68.6372L518 124.138L462.156 90.3101L462.085 68.6372Z" fill="#C8EDEA"/>
<path d="M448.488 104.25L462.948 105.799L462.83 109.594L448.488 104.25Z" fill="#3B487F"/>
<path d="M27.5104 217.842C27.754 218.09 27.9313 218.421 28.0046 218.788C28.3629 220.597 28.7578 222.453 29.1787 224.286C29.414 225.303 28.7767 226.32 27.7563 226.556C26.7359 226.792 25.7191 226.154 25.485 225.137C25.0558 223.257 24.6502 221.377 24.286 219.521C24.0827 218.492 24.7507 217.499 25.777 217.298C26.4344 217.168 27.0788 217.393 27.5104 217.842Z" fill="#99D7FF"/>
<path d="M104.875 354.123L104.904 354.158C107.365 356.819 109.801 359.408 112.143 361.832L112.562 362.27C113.289 363.026 113.267 364.22 112.514 364.954C111.761 365.675 110.561 365.651 109.834 364.894L109.415 364.469C107.054 362.021 104.599 359.42 102.119 356.724C101.408 355.956 101.457 354.761 102.225 354.052C102.984 353.354 104.162 353.39 104.875 354.123ZM132.303 381.235C132.98 381.933 133.017 383.056 132.358 383.801C131.665 384.581 130.466 384.652 129.682 383.966C126.955 381.554 124.16 379 121.375 376.352C120.622 375.654 120.585 374.436 121.305 373.668C122.027 372.911 123.225 372.887 123.986 373.609C126.737 376.222 129.498 378.74 132.19 381.128L132.303 381.235ZM86.8625 333.514L86.9654 333.632C89.2876 336.458 91.7055 339.331 94.1554 342.157C94.84 342.949 94.7526 344.144 93.9604 344.829C93.1694 345.515 92.0071 345.432 91.287 344.64C88.8182 341.779 86.3777 338.882 84.0354 336.033C83.3709 335.229 83.4891 334.034 84.2979 333.372C85.0664 332.734 86.1838 332.816 86.8625 333.514ZM70.2489 311.77L70.4345 311.995C72.5521 314.986 74.7631 318.013 77.0073 320.981C77.6375 321.82 77.4709 323.015 76.6349 323.641C75.799 324.268 74.6154 324.09 73.9805 323.263C71.7138 320.26 69.4791 317.209 67.339 314.182C66.7348 313.319 66.937 312.137 67.793 311.534C68.5663 310.99 69.6116 311.108 70.2489 311.77ZM153.746 398.226C154.363 398.864 154.462 399.869 153.934 400.626C153.334 401.477 152.152 401.69 151.294 401.087C148.284 398.982 145.228 396.724 142.211 394.383C141.395 393.744 141.238 392.55 141.879 391.723C142.523 390.895 143.714 390.741 144.54 391.392C147.506 393.697 150.51 395.92 153.468 397.989L153.746 398.226ZM55.4029 288.785C55.5057 288.891 55.5968 289.009 55.6761 289.139C57.5147 292.284 59.4655 295.477 61.4732 298.646C62.0336 299.521 61.7747 300.691 60.8915 301.259C60.0071 301.826 58.8365 301.554 58.2749 300.679C56.2412 297.475 54.2666 294.235 52.4043 291.055C51.8746 290.156 52.1797 288.997 53.0819 288.465C53.8528 288.016 54.8093 288.17 55.4029 288.785ZM177.224 412.237C177.763 412.793 177.924 413.656 177.559 414.389C177.095 415.323 175.96 415.713 175.021 415.252C171.708 413.608 168.352 411.811 165.049 409.896C164.143 409.364 163.834 408.205 164.359 407.306C164.884 406.396 166.044 406.089 166.95 406.609C170.181 408.489 173.461 410.25 176.7 411.847C176.901 411.953 177.076 412.083 177.224 412.237ZM42.7809 264.522C42.9264 264.664 43.0517 264.841 43.1428 265.042C44.6562 268.377 46.2797 271.747 47.9669 275.057C48.441 275.991 48.0709 277.126 47.138 277.611C46.2051 278.084 45.0618 277.718 44.5888 276.772C42.8767 273.414 41.2285 269.997 39.6926 266.615C39.2586 265.669 39.6808 264.546 40.6326 264.108C41.3834 263.765 42.2394 263.955 42.7809 264.522ZM202.718 422.051C203.17 422.512 203.368 423.198 203.182 423.871C202.9 424.877 201.856 425.468 200.848 425.184C197.252 424.191 193.621 423.02 190.052 421.708C189.07 421.353 188.566 420.265 188.924 419.284C189.286 418.291 190.374 417.794 191.357 418.149C194.83 419.426 198.365 420.561 201.863 421.542C202.201 421.637 202.491 421.814 202.718 422.051ZM32.9471 238.995C33.1434 239.196 33.2983 239.456 33.3893 239.74C34.4866 243.216 35.7032 246.751 37.005 250.227C37.3704 251.209 36.8738 252.308 35.8936 252.663C34.9122 253.029 33.8197 252.533 33.4543 251.563C32.1289 248.004 30.8909 244.422 29.7748 240.886C29.4591 239.881 30.0136 238.817 31.0115 238.51C31.721 238.273 32.4635 238.498 32.9471 238.995ZM229.64 426.65C229.998 427.028 230.205 427.537 230.168 428.093C230.099 429.145 229.194 429.925 228.15 429.866C224.382 429.606 220.585 429.192 216.869 428.636C215.832 428.471 215.122 427.501 215.277 426.473C215.436 425.432 216.402 424.723 217.436 424.888C221.051 425.432 224.739 425.834 228.403 426.083C228.891 426.106 229.324 426.331 229.64 426.65ZM256.979 426.177C257.267 426.473 257.46 426.863 257.501 427.312C257.601 428.353 256.837 429.275 255.796 429.381C252.052 429.736 248.254 429.984 244.502 430.103C243.455 430.138 242.581 429.31 242.547 428.27C242.514 427.218 243.335 426.343 244.382 426.307C248.053 426.189 251.772 425.953 255.433 425.61C256.033 425.55 256.592 425.775 256.979 426.177ZM283.924 421.495C284.137 421.731 284.302 422.015 284.397 422.346C284.645 423.363 284.042 424.392 283.025 424.652C279.384 425.574 275.671 426.39 271.97 427.088C270.942 427.289 269.948 426.603 269.759 425.574C269.57 424.545 270.244 423.564 271.273 423.363C274.891 422.689 278.532 421.885 282.091 420.975C282.765 420.797 283.463 421.022 283.924 421.495ZM309.818 412.733C309.972 412.887 310.102 413.076 310.197 413.301C310.61 414.259 310.161 415.382 309.192 415.784C305.751 417.262 302.204 418.645 298.657 419.899C297.675 420.253 296.587 419.733 296.233 418.752C295.89 417.759 296.41 416.683 297.391 416.328C300.868 415.098 304.332 413.75 307.702 412.308C308.447 411.989 309.286 412.178 309.818 412.733ZM334.022 400.023C334.104 400.117 334.187 400.212 334.258 400.33C334.826 401.217 334.554 402.388 333.667 402.943C330.51 404.942 327.223 406.869 323.912 408.666C322.99 409.163 321.843 408.832 321.335 407.909C320.838 406.987 321.181 405.84 322.103 405.332C325.343 403.57 328.559 401.69 331.645 399.739C332.425 399.254 333.407 399.384 334.022 400.023ZM355.86 383.588L355.919 383.647C356.617 384.427 356.546 385.622 355.766 386.319C352.963 388.814 350.043 391.25 347.063 393.555C346.236 394.206 345.041 394.052 344.403 393.224C343.753 392.397 343.906 391.202 344.734 390.564C347.654 388.306 350.516 385.929 353.235 383.493C354.004 382.807 355.163 382.867 355.86 383.588ZM374.66 363.747C375.31 364.421 375.381 365.486 374.778 366.242C374.246 366.916 373.702 367.59 373.147 368.264C371.302 370.499 369.375 372.71 367.412 374.85C366.714 375.619 365.508 375.666 364.74 374.956C363.983 374.259 363.912 373.053 364.622 372.284C366.537 370.203 368.417 368.04 370.214 365.852C370.758 365.19 371.29 364.54 371.822 363.878C372.473 363.062 373.667 362.92 374.483 363.582L374.66 363.747ZM389.7 340.916C390.256 341.495 390.397 342.382 390.007 343.127C388.222 346.449 386.307 349.736 384.285 352.917C383.717 353.804 382.546 354.064 381.672 353.508C380.785 352.941 380.525 351.77 381.08 350.883C383.055 347.785 384.935 344.581 386.661 341.341C387.158 340.419 388.305 340.076 389.227 340.561C389.404 340.667 389.558 340.786 389.7 340.916ZM400.365 315.755C400.838 316.239 401.027 316.973 400.814 317.658C399.656 321.241 398.355 324.835 396.948 328.312C396.558 329.281 395.446 329.742 394.477 329.352C393.507 328.962 393.034 327.85 393.436 326.881C394.808 323.487 396.073 319.999 397.196 316.5C397.527 315.495 398.591 314.951 399.585 315.27C399.892 315.365 400.164 315.542 400.365 315.755ZM406.525 289.128C406.915 289.541 407.116 290.121 407.034 290.724C406.49 294.472 405.816 298.208 405.035 301.862C404.811 302.879 403.806 303.529 402.777 303.316C401.76 303.091 401.11 302.086 401.323 301.058C402.091 297.499 402.742 293.833 403.285 290.168C403.439 289.139 404.397 288.418 405.437 288.572C405.863 288.631 406.241 288.832 406.525 289.128ZM408.429 261.862C408.76 262.205 408.961 262.666 408.961 263.174C408.973 266.958 408.866 270.753 408.653 274.466C408.594 275.518 407.708 276.311 406.655 276.251C405.615 276.204 404.811 275.305 404.87 274.253C405.071 270.611 405.177 266.887 405.165 263.186C405.165 262.134 406.017 261.282 407.057 261.282C407.601 261.282 408.086 261.507 408.429 261.862ZM406.584 234.584C406.856 234.868 407.045 235.235 407.105 235.66C407.589 239.42 407.991 243.192 408.287 246.881C408.37 247.922 407.589 248.832 406.549 248.915C405.497 249.009 404.586 248.229 404.503 247.177C404.22 243.559 403.829 239.846 403.345 236.145C403.214 235.105 403.948 234.159 404.976 234.017C405.603 233.946 406.182 234.171 406.584 234.584ZM400.755 207.827C400.968 208.04 401.122 208.324 401.216 208.631C402.458 213.089 403.451 216.742 404.16 219.497C404.432 220.514 403.818 221.555 402.801 221.815C401.784 222.075 400.755 221.46 400.495 220.455C399.786 217.712 398.804 214.082 397.563 209.648C397.279 208.643 397.87 207.602 398.875 207.319C399.573 207.118 400.282 207.342 400.755 207.827Z" fill="#8DD1C5"/>
<path d="M1.11368 166.799L15.5458 230.482L35.0776 230.635L1.11368 166.799Z" fill="#91AAFE"/>
<path d="M45.5358 201.549L26.1447 219.154L1.11368 166.798L45.5358 201.549Z" fill="#92DAD6"/>
<path d="M0 245.569L1.11379 166.799L15.546 230.482L0 245.569Z" fill="#92DAD6"/>
<path d="M35.0777 230.635L26.1448 219.154L28.9612 216.6L35.0777 230.635Z" fill="#49557F"/>
<path d="M318.331 373.431H221.531C220.7 373.431 220.027 372.757 220.027 371.93V306.804C220.027 305.976 220.7 305.302 221.531 305.302H318.331C319.159 305.302 319.833 305.976 319.833 306.804V371.93C319.833 372.757 319.159 373.431 318.331 373.431Z" fill="#8DD1C5"/>
<path d="M298.385 360.827H239.986C237.522 360.827 235.524 358.829 235.524 356.369V322.908C235.524 320.448 237.522 318.45 239.986 318.45H298.385C300.856 318.45 302.854 320.448 302.854 322.908V356.369C302.854 358.829 300.856 360.827 298.385 360.827Z" fill="#95A9FE"/>
<path d="M295.866 322.234H243.436L269.215 346.579L295.866 322.234Z" fill="white"/>
<path d="M269.168 352.988L239.023 324.528V357.044H299.354V325.414L269.168 352.988Z" fill="white"/>
<path d="M385.585 217.192C376.032 216.861 352.1 214.579 333.194 200.626C305.632 180.289 300.536 169.388 300.536 169.388C300.536 169.388 300.643 164.481 299.815 161.998C298.976 159.503 299.141 155.873 297.592 156.393C296.055 156.902 296.907 160.094 297.261 161.158C297.38 161.537 297.226 161.809 296.966 162.01C296.28 162.542 295.287 162.329 294.802 161.619C294.317 160.886 293.655 159.574 292.863 157.209C291.196 152.231 289.316 147.904 288.677 149.169C288.05 150.434 291.385 159.006 291.976 160.792C292.579 162.565 287.98 154.159 285.922 150.765C283.853 147.36 283.167 149.772 284.432 151.593C285.698 153.402 290.285 161.761 289.635 161.974C288.985 162.199 283.38 152.858 281.784 153.39C280.188 153.934 282.21 155.14 283.132 156.594C284.054 158.049 288.263 161.998 287.578 163.369C287.578 163.369 281.157 158.829 281.311 159.822C281.394 160.307 287.258 166.361 289.966 168.643C296.315 174.035 323.475 210.996 334.222 216.329C344.698 221.519 372.189 239.598 383.078 236.689C390.196 228.614 388.553 226.071 385.585 217.192Z" fill="#FD5E5A"/>
<path d="M310.22 287.141H98.737C96.9209 287.141 95.4512 285.675 95.4512 283.854V141.59C95.4512 139.769 96.9209 138.303 98.737 138.303H310.22C312.041 138.303 313.507 139.769 313.507 141.59V283.854C313.507 285.675 312.041 287.141 310.22 287.141Z" fill="#B19EFF"/>
<path d="M310.22 152.562H98.737C96.9209 152.562 95.4512 151.084 95.4512 149.275V141.59C95.4512 139.769 96.9209 138.303 98.737 138.303H310.22C312.041 138.303 313.507 139.769 313.507 141.59V149.275C313.507 151.084 312.041 152.562 310.22 152.562Z" fill="#004D54"/>
<path d="M169.538 251.126H115.518V166.905H169.538V251.126Z" fill="#698BFD"/>
<path d="M299.496 171.646H184.661V166.905H299.496V171.646Z" fill="#698BFD"/>
<path d="M299.496 182.406H184.661V176.932H299.496V182.406Z" fill="#698BFD"/>
<path d="M248.577 150.091H103.608V142.288H248.577V150.091Z" fill="white"/>
<path d="M290.262 148.897C290.262 149.559 289.73 150.091 289.067 150.091C288.405 150.091 287.861 149.559 287.861 148.897C287.861 148.235 288.405 147.691 289.067 147.691C289.73 147.691 290.262 148.235 290.262 148.897Z" fill="white"/>
<path d="M293.17 148.897C293.17 149.559 292.638 150.091 291.976 150.091C291.314 150.091 290.77 149.559 290.77 148.897C290.77 148.235 291.314 147.691 291.976 147.691C292.638 147.691 293.17 148.235 293.17 148.897Z" fill="white"/>
<path d="M296.079 148.897C296.079 149.559 295.547 150.091 294.885 150.091C294.222 150.091 293.679 149.559 293.679 148.897C293.679 148.235 294.222 147.691 294.885 147.691C295.547 147.691 296.079 148.235 296.079 148.897Z" fill="white"/>
<path d="M242.84 145.066C242.84 144.203 243.506 143.493 244.325 143.493C245.144 143.493 245.81 144.203 245.81 145.066C245.81 145.929 245.144 146.627 244.325 146.627C243.506 146.627 242.84 145.929 242.84 145.066ZM246.665 148.696L245.512 146.698C245.979 146.331 246.282 145.728 246.282 145.066C246.282 143.931 245.406 142.997 244.325 142.997C243.244 142.997 242.369 143.931 242.369 145.066C242.369 146.201 243.244 147.123 244.325 147.123C244.593 147.123 244.849 147.076 245.082 146.97L245.897 149.098L245.929 149.169C246.053 149.382 246.318 149.453 246.522 149.311C246.725 149.181 246.789 148.909 246.665 148.696Z" fill="#121841"/>
<path d="M266.779 149.689H254.531V142.287H266.779V149.689Z" fill="#F57408"/>
<path d="M294.885 280.685H193.989V190.34H294.885V280.685Z" fill="#E4EDFF"/>
<path d="M244.436 242.908H204.48V204.718H244.436V242.908Z" fill="white"/>
<path d="M293.17 280.685H253.219V248.95H293.17V280.685Z" fill="white"/>
<path d="M269.936 198.959H221.102V194.856H269.936V198.959Z" fill="#F57408"/>
<path d="M293.17 206.762H251.451V204.718H293.17V206.762Z" fill="#698BFD"/>
<path d="M293.17 210.322H251.451V208.277H293.17V210.322Z" fill="#698BFD"/>
<path d="M293.17 213.881H251.451V211.836H293.17V213.881Z" fill="#698BFD"/>
<path d="M293.17 217.439H251.451V215.395H293.17V217.439Z" fill="#698BFD"/>
<path d="M293.17 221.011H251.451V218.954H293.17V221.011Z" fill="#698BFD"/>
<path d="M293.17 224.569H251.451V222.513H293.17V224.569Z" fill="#698BFD"/>
<path d="M293.17 228.129H251.451V226.072H293.17V228.129Z" fill="#698BFD"/>
<path d="M293.17 231.687H251.451V229.631H293.17V231.687Z" fill="#698BFD"/>
<path d="M293.17 235.246H251.451V233.19H293.17V235.246Z" fill="#698BFD"/>
<path d="M293.17 238.806H251.451V236.749H293.17V238.806Z" fill="#698BFD"/>
<path d="M293.17 242.364H251.451V240.308H293.17V242.364Z" fill="#698BFD"/>
<path d="M367.92 170.96C367.92 170.96 378.408 170.393 382.038 180.183C385.68 189.973 385.242 210.251 380.3 215.974C375.346 221.708 376.173 236.393 371.834 240.721C367.506 245.06 356.463 247.023 356.463 236.807C356.463 236.807 361.843 238.049 363.203 231.699C363.203 231.699 355.482 236.63 351.698 229.098C347.926 221.566 356.037 220.869 356.037 220.869C356.037 220.869 352.124 226.047 356.877 224.924C361.63 223.813 364.385 219.521 364.385 214.046C364.385 208.572 356.321 212.06 357.161 201.998C358 191.924 364.385 170.606 367.92 170.96Z" fill="#001429"/>
<path d="M386.259 218.811C386.259 218.811 384.675 255.146 387.844 268.471C391.001 281.785 392.348 284.043 392.348 284.043C392.348 284.043 370.687 298.48 361.205 295.548C361.205 295.548 345.632 258.539 342.476 250.404C339.319 242.281 354.039 214.945 354.039 214.945C354.039 214.945 382.192 220.171 386.259 218.811Z" fill="#C0B4FE"/>
<path d="M360.519 200.532L354.737 218.953C354.737 218.953 343.019 232.149 350.705 235.247C358.39 238.332 372.626 220.006 372.626 220.006L369.907 196.217L360.519 200.532Z" fill="#FD5E5A"/>
<path d="M412.78 413.644C412.78 413.644 422.818 434.123 406.513 478.309L403.51 486.455L395.174 484.232C395.174 484.232 395.683 425.657 391.615 419.911C387.56 414.153 412.78 413.644 412.78 413.644Z" fill="#FD5E5A"/>
<path d="M485.295 321.206C485.295 321.206 464.072 365.912 460.347 369.637C456.623 373.361 453.915 345.433 453.915 345.433L464.355 333.467C464.355 333.467 478.958 315.979 480.152 315.979C481.334 315.979 485.295 318.155 485.295 321.206Z" fill="#FC7575"/>
<path d="M464.355 328.501C464.355 328.501 450.131 343.174 443.581 341.814C437.042 340.466 423.504 288.323 392.348 284.043C392.348 284.043 367.306 298.929 361.204 295.548C361.204 295.548 383.48 410.558 380.997 426.13C380.997 426.13 404.314 431.191 416.28 416.742C428.234 402.305 464.355 399.822 464.355 386.733C464.355 373.644 464.355 328.501 464.355 328.501Z" fill="#006282"/>
<path d="M378.668 180.443L382.038 180.183C382.038 180.183 390.267 193.212 400.164 196.263C410.06 199.302 411.964 209.281 407.211 215.607C402.446 221.944 413.679 220.608 412.721 227.466C411.775 234.312 402.919 250.652 392.786 234.123C382.641 217.593 378.668 180.443 378.668 180.443Z" fill="#001429"/>
<path d="M368.003 177.144L352.656 185.61C352.656 185.61 349.475 185.681 349.475 182.146C349.475 178.599 353.389 175.122 357.362 173.089C361.346 171.067 366.336 170.192 366.336 170.192L368.003 177.144Z" fill="#001429"/>
<path d="M362.434 173.313C362.434 173.313 356.499 174.33 354.902 177.144C353.306 179.97 352.88 186.698 351.284 188.294C349.688 189.89 348.305 190.233 348.305 190.233C348.305 190.233 347.879 190.966 349.475 191.77C351.071 192.562 350.764 193.934 349.771 193.934C348.778 193.934 349.18 195.778 349.936 195.991C349.936 195.991 349.085 196.334 349.262 197.28C349.44 198.214 350.279 198.782 349.771 199.94C349.262 201.099 349.594 204.871 357.362 203.346C357.362 203.346 368.914 200.638 369.599 197.375C370.285 194.123 375.417 182.275 371.042 177.9C366.667 173.526 362.434 173.313 362.434 173.313Z" fill="#FC7575"/>
<path d="M368.05 170.05C368.05 170.05 365.981 168.489 358.733 170.547C351.497 172.616 349.771 180.443 349.771 180.443C349.771 180.443 354.323 175.063 357.255 175.063C360.176 175.063 366.927 176.175 368.003 175.099C369.079 174.023 368.05 170.05 368.05 170.05Z" fill="#001429"/>
<path d="M367.01 169.766C365.993 169.766 359.431 176.636 361.169 182.063C362.895 187.502 367.022 185.066 369.635 186.521C372.236 187.963 369.126 194.655 369.599 197.375C370.06 200.094 377.379 215.607 377.379 215.607C377.379 215.607 383.528 182.796 379.803 176.719C376.067 170.641 367.01 169.766 367.01 169.766Z" fill="#001429"/>
<path d="M368.842 187.171C368.842 187.171 370.935 182.607 371.905 183.588C372.886 184.57 373.371 191.298 369.93 191.948C366.478 192.598 368.842 187.171 368.842 187.171Z" fill="#FC7575"/>
<path d="M368.985 187.726C368.985 187.726 370.072 185.243 370.652 185.823C371.243 186.414 370.604 190.327 369.824 190.327C369.032 190.327 368.795 188.98 368.985 187.726Z" fill="#FD5E5A"/>
<path d="M354.039 191.652C354.039 192.385 355.328 192.977 356.924 192.977C358.509 192.977 359.797 192.385 359.797 191.652C359.797 190.919 358.509 190.328 356.924 190.328C355.328 190.328 354.039 190.919 354.039 191.652Z" fill="#FD5E5A"/>
<path d="M383.185 221.011C374.234 217.664 353.507 210.57 339.993 191.333C320.318 163.31 318.934 151.356 318.934 151.356C318.934 151.356 320.59 146.745 320.59 144.108C320.59 141.483 321.89 138.102 320.27 138.102C318.639 138.102 318.426 141.389 318.426 142.512C318.426 142.914 318.189 143.127 317.882 143.233C317.066 143.517 316.191 142.997 315.967 142.169C315.73 141.33 315.517 139.875 315.517 137.381C315.517 132.119 315.103 127.425 314.098 128.418C313.093 129.423 313.543 138.61 313.543 140.49C313.543 142.358 311.852 132.935 310.977 129.057C310.102 125.178 308.671 127.236 309.298 129.364C309.925 131.492 311.627 140.869 310.941 140.869C310.256 140.869 307.903 130.239 306.224 130.239C304.533 130.239 306.07 132.036 306.484 133.703C306.898 135.37 309.641 140.455 308.553 141.543C308.553 141.543 303.894 135.193 303.741 136.186C303.658 136.683 307.3 144.274 309.132 147.301C313.46 154.419 327.495 198.096 335.996 206.55C344.285 214.803 364.633 240.662 375.878 241.359C385.183 235.956 383.185 230.363 383.185 221.011Z" fill="#FC7575"/>
<path d="M369.93 191.948C369.93 191.948 364.74 193.934 368.925 205.214C374.033 218.977 380.737 221.496 374.116 228.129C367.495 234.75 375.239 265.031 399.017 258.551C399.017 258.551 386.188 257.192 389.002 249.577C391.816 241.974 402.623 250.133 402.623 241.49C402.623 232.846 397.574 236.926 395.659 227.076C393.732 217.227 399.254 221.732 397.823 211.552C396.38 201.372 379.803 176.719 379.803 176.719L369.93 191.948Z" fill="#001429"/>
<path d="M357.787 186.639C357.787 186.639 355.564 184.121 354.808 184.121C354.063 184.121 354.039 184.854 354.039 184.854L357.787 186.639Z" fill="#001429"/>
<path d="M352.739 184.984C352.739 184.984 354.938 186.048 355.872 186.97C356.794 187.904 356.735 188.306 356.735 188.306C356.735 188.306 354.512 186.485 353.661 186.19C352.81 185.882 352.739 184.984 352.739 184.984Z" fill="#001429"/>
<path d="M353.531 187.408C353.531 188.01 353.755 188.507 354.039 188.507C354.323 188.507 354.548 188.01 354.548 187.408C354.548 186.793 354.323 186.297 354.039 186.297C353.755 186.297 353.531 186.793 353.531 187.408Z" fill="#001429"/>
<path d="M488.169 304.286C488.169 304.286 493.111 309.618 496.563 313.343C500.028 317.067 505.987 322.601 507.713 324.457C509.451 326.325 511.308 337.144 509.463 338.043C507.619 338.929 502.298 332.474 497.722 330.771C493.135 329.08 482.588 328.063 482.659 326.42C482.73 324.788 477.87 319.089 477.953 317.02C478.047 314.951 486.359 304.239 488.169 304.286Z" fill="#FDB647"/>
<path d="M486.939 307.904C498.396 324.942 498.987 316.5 508.411 334.814C506.566 329.943 503.137 323.393 498.916 320.319C496.611 318.652 494.636 316.523 492.662 314.431C490.699 312.314 488.819 310.115 486.939 307.904Z" fill="#FFF7CF"/>
<path d="M492.236 321.607C492.673 321.584 493.04 321.915 493.052 322.352C493.111 323.866 493.395 327.058 494.08 329.766C493.525 329.636 492.957 329.506 492.378 329.388C491.645 326.089 491.491 322.66 491.479 322.435C491.467 321.998 491.81 321.631 492.236 321.607Z" fill="#FFF7CF"/>
<path d="M489.079 322.967C489.493 323.097 489.717 323.535 489.587 323.948C489.575 323.984 488.902 326.065 488.807 328.654C488.263 328.536 487.743 328.43 487.246 328.323C487.388 325.687 488.038 323.641 488.098 323.475C488.228 323.062 488.665 322.837 489.079 322.967Z" fill="#FFF7CF"/>
<path d="M407.731 502.335C407.731 502.335 400.483 502.063 395.399 501.874C390.315 501.684 382.192 501.992 379.65 501.897C377.107 501.803 368.133 495.465 368.807 493.538C369.493 491.599 377.817 492.403 382.251 490.357C386.685 488.324 394.879 481.584 395.978 482.79C397.09 483.996 404.551 484.599 405.958 486.113C407.353 487.638 409.055 501.093 407.731 502.335Z" fill="#FDB647"/>
<path d="M406.04 498.918C385.904 494.968 391.45 501.354 371.834 495.075C376.575 497.203 383.646 499.415 388.801 498.599C391.603 498.149 394.512 498.256 397.385 498.35C400.27 498.457 403.155 498.681 406.04 498.918Z" fill="#FFF7CF"/>
<path d="M392.608 492.97C392.325 493.289 391.828 493.313 391.509 493.017C390.397 491.989 387.938 489.931 385.538 488.512C386.022 488.205 386.519 487.897 387.016 487.566C389.865 489.387 392.396 491.693 392.561 491.847C392.88 492.142 392.904 492.651 392.608 492.97Z" fill="#FFF7CF"/>
<path d="M393.886 489.778C393.495 489.979 393.034 489.825 392.833 489.435C392.81 489.399 391.816 487.46 390.055 485.556C390.516 485.261 390.965 484.965 391.403 484.693C393.152 486.656 394.146 488.572 394.217 488.713C394.418 489.104 394.264 489.577 393.886 489.778Z" fill="#FFF7CF"/>
<path d="M163.506 38.4385C199.856 38.2375 229.383 49.1273 229.457 62.7603C229.493 69.5826 222.16 75.7902 210.274 80.3188L216.515 103.967L194.004 84.8828C184.958 86.6918 174.678 87.7442 163.772 87.8033C127.423 88.0043 97.8953 77.1027 97.822 63.4815C97.7487 49.8486 127.156 38.6395 163.506 38.4385Z" fill="#8DD1C5"/>
<path d="M390.882 100.691C390.882 100.691 392.041 99.3081 394.335 99.3081C396.392 99.3081 397.799 100.727 397.799 102.394C397.799 104.321 395.872 106.591 390.882 108.566C385.893 106.591 383.965 104.321 383.965 102.394C383.965 100.727 385.372 99.3081 387.43 99.3081C389.723 99.3081 390.882 100.691 390.882 100.691Z" fill="#ECF2FF"/>
</svg>
