<svg width="804" height="2085" viewBox="0 0 804 2085" fill="none" xmlns="http://www.w3.org/2000/svg">
<path d="M0 203.386C0 203.386 79.537 177.657 99.9301 135.417C120.326 93.1623 145.477 51.8194 178.788 74.7844C212.098 97.7495 257.645 -15.8748 310.67 1.89529C363.693 19.6653 401.082 72.1797 443.911 101.96C486.737 131.741 471.102 189.61 501.694 199.71C532.285 209.811 566.275 203.386 566.275 203.386C566.275 203.386 484.019 207.973 473.821 262.166C463.625 316.373 419.437 331.061 394.963 280.544C370.492 230.027 345.339 225.425 332.422 268.606C319.507 311.772 282.797 435.786 252.885 365.965C222.975 296.158 220.256 219.912 185.586 250.228C150.916 280.544 135.28 421.995 104.689 354.026C74.0986 286.057 42.8274 185.934 0 203.386Z" fill="#B19EFF"/>
<path d="M241.199 286.964C241.199 286.964 239.634 286.031 244.697 280.099C249.762 274.167 257.527 259.031 257.527 259.031L262.039 273.132L248.012 288.728L241.199 286.964Z" fill="#713045"/>
<path d="M373.932 438.849L317.236 388.691L275.872 411.699L370.135 480.999L443.654 416.03C441.433 412.151 436.138 402.775 433.403 399.499L373.932 438.849Z" fill="#495FD8"/>
<path d="M445.263 400.936L436.394 405.699C439.059 408.894 441.606 412.224 443.769 416.007L450.107 410.4L445.263 400.936Z" fill="#FC7575"/>
<path d="M547.941 291.853H393.835C392.512 291.853 391.44 290.596 391.44 289.046V167.567C391.44 166.017 392.512 164.761 393.835 164.761H547.941C549.263 164.761 550.335 166.017 550.335 167.567V289.046C550.335 290.596 549.263 291.853 547.941 291.853Z" fill="#8DD1C5"/>
<path d="M487.866 186.829H407.968V213.878H419.454L413.852 228.296L427.855 213.878H487.866V186.829Z" fill="white"/>
<path d="M467.888 235.734H535.357V262.778H525.658L530.388 277.205L518.565 262.778H467.888V235.734Z" fill="white"/>
<path d="M321.989 496.671L315.782 428.243C315.782 428.243 317.905 424.078 323.021 414.294C328.139 404.509 308.29 388.691 308.29 388.691L275.872 403.995L292.482 526.011L395.498 537.514C395.955 532.196 396.96 521.22 397.675 515.901L321.989 496.671Z" fill="#6D7FE0"/>
<path d="M414.614 520.162L397.671 515.851C396.956 521.196 396.519 526.541 396.062 531.886L414.614 535.631V520.162Z" fill="#FC7575"/>
<path d="M424.294 635.952C424.294 638.803 381.68 641.126 329.11 641.126C276.541 641.126 233.926 638.803 233.926 635.952C233.926 633.088 276.541 630.764 329.11 630.764C381.68 630.764 424.294 633.088 424.294 635.952Z" fill="#235893"/>
<path d="M444.522 381.156C444.522 381.156 452.357 384.795 457.84 387.342C463.325 389.889 472.326 393.214 475.068 394.494C477.811 395.762 485.259 407.67 483.798 409.74C482.337 411.823 473.529 407.042 467.919 407.532C462.309 408.021 451.261 413.818 450.5 411.823C449.74 409.84 441.574 406.314 440.614 403.805C439.653 401.283 442.62 382.085 444.522 381.156Z" fill="#1AA5C2"/>
<path d="M471.96 398.11L443.654 384.705C444.172 382.742 444.7 381.383 445.164 381.156C445.164 381.156 452.872 384.806 458.266 387.361C463.662 389.916 472.516 393.251 475.213 394.535C477.911 395.806 485.239 407.75 483.801 409.827C483.34 410.494 482.135 410.456 480.528 410.117C479.247 407.222 475.692 399.884 471.96 398.11Z" fill="#C2D6FF"/>
<path d="M451.975 396.227C451.975 396.227 465.655 405.854 466.936 407.281C468.218 408.707 457.858 411.297 457.858 411.297C457.858 411.297 447.717 403.001 447.687 400.999C447.657 398.996 450.082 397.198 451.975 396.227Z" fill="#C2D6FF"/>
<path d="M447.695 400.832C447.507 398.186 450.679 396.192 452.029 395.285C454.907 397.381 463.649 403.529 467.046 407.53C465.501 406.251 458.843 401.752 451.958 396.192C450.298 397.048 447.885 398.697 447.695 400.832Z" fill="#0D5361"/>
<path d="M309.085 273.135C309.085 273.135 321.7 278.659 321.7 306.492C321.7 324.726 314.21 370.133 314.21 370.133L331.462 390.335C331.462 390.335 287.526 416.721 263.183 421.406C263.183 421.406 271.141 396.455 271.141 383.288C271.141 370.133 267.197 307.533 279.764 292.321C289.211 280.893 309.085 273.135 309.085 273.135Z" fill="#F57408"/>
<path d="M303.151 249.184C303.151 249.184 308.684 257.738 309.083 273.139C309.48 288.553 311.879 288.411 308.593 290.299C304.062 292.92 291.11 292.573 288.534 287.487C288.534 287.487 294.711 269.414 291.567 261.707L303.151 249.184Z" fill="#FC7575"/>
<path d="M303.151 249.184C303.151 249.184 305.499 252.806 307.246 259.601C302.64 266.408 296.745 269.53 292.398 269.375C292.573 266.447 292.389 263.724 291.567 261.707L303.151 249.184Z" fill="#FD5E5A"/>
<path d="M301.817 217.153C296.771 217.453 290.372 220.44 287.824 228.893C287.369 230.393 288.354 235.376 287.935 236.759C286.007 243.151 283.137 244.43 283.137 244.43L286.591 246.125C286.591 246.125 286.022 250.678 286.038 255.27C286.05 258.57 286.227 261.844 287.77 263.723C291.465 268.21 304.613 265.419 310.52 251.813C316.428 238.207 312.093 216.553 301.817 217.153Z" fill="#FC7575"/>
<path d="M305.472 210.673L305.791 209.613C307.304 210.673 308.756 212.767 309.048 214.979C309.387 217.44 308.458 219.128 307.175 221.13L306.985 220.921C307.041 220.829 308.101 219.115 308.296 218.107C308.86 216.314 308.58 214.246 307.278 212.453C306.596 211.472 305.673 210.83 305.587 210.752L305.472 210.673Z" fill="#052F43"/>
<path d="M290.222 236.076C290.317 236.904 290.86 237.486 291.435 237.395C292.011 237.305 292.401 236.568 292.306 235.753C292.21 234.938 291.667 234.343 291.093 234.433C290.515 234.524 290.127 235.261 290.222 236.076Z" fill="#052F43"/>
<path d="M295.871 233.254C295.871 233.254 293.779 231.27 291.796 231.14C289.814 231.01 289.138 231.296 289.138 231.296L289.091 229.882C289.091 229.882 294.02 229.286 295.871 233.254Z" fill="#052F43"/>
<path d="M303.903 210.576L289.084 212.669L289.823 216.384L287.054 213.048L281.966 215.56C281.966 215.56 288.599 220.962 289.926 224.207C289.926 224.207 299.314 223.853 300.569 226.928C301.823 230.002 298.428 240.009 301.252 241.173C304.076 242.351 305.547 243.463 306.21 245.085C306.873 246.707 306.813 258.009 306.813 258.009L307.248 259.592C307.248 259.592 316.431 243.24 317.293 235.561C318.156 227.869 315.172 213.493 315.172 213.493L309.972 211.334L308.354 214.317L303.903 210.576Z" fill="#052F43"/>
<path d="M303.833 240.338C303.833 240.338 307.257 233.401 308.665 236.856C310.074 240.312 307.152 246.575 305.89 246.058C304.628 245.54 302.476 244.841 303.833 240.338Z" fill="#FC7575"/>
<path d="M304.313 241.121C304.313 241.121 306.645 237.557 307.338 239.262C308.03 240.953 307.324 244.802 305.85 244.195C304.376 243.575 303.898 242.503 304.313 241.121Z" fill="#FD5E5A"/>
<path d="M299.405 244.048C299.405 245.169 297.582 246.084 295.334 246.084C293.084 246.084 291.261 245.169 291.261 244.048C291.261 242.914 293.084 241.999 295.334 241.999C297.582 241.999 299.405 242.914 299.405 244.048Z" fill="#FD5E5A"/>
<path d="M288.534 255.278C288.253 255.278 288.012 255.034 287.985 254.701C287.957 254.341 288.178 254.02 288.481 253.995C288.517 253.982 292.061 253.558 293.104 251.107C293.242 250.786 293.572 250.657 293.845 250.811C294.119 250.978 294.228 251.363 294.092 251.684C292.774 254.778 288.757 255.265 288.586 255.278H288.534Z" fill="#052F43"/>
<path d="M346.261 400.936L346.161 400.924C345.967 400.847 345.856 400.619 345.912 400.391C349.826 384.463 349.38 371.261 344.586 361.167C339.044 349.5 329.472 346.241 329.376 346.203C329.183 346.139 329.07 345.911 329.124 345.683C329.178 345.455 329.376 345.315 329.572 345.378C329.671 345.416 339.518 348.764 345.215 360.736C350.114 371.046 350.583 384.463 346.612 400.632C346.565 400.809 346.42 400.936 346.261 400.936Z" fill="#2846A6"/>
<path d="M428.511 511.275C428.511 511.275 430.562 520.936 431.997 527.709C433.432 534.471 436.399 545.069 437.116 548.449C437.834 551.83 433.795 565.96 431.457 565.77C429.12 565.593 427.303 554.324 423.635 549.209C419.967 544.106 409.326 536.876 410.288 534.977C411.25 533.091 408.919 523.177 410.135 520.771C411.349 518.378 426.73 509.983 428.511 511.275Z" fill="#1AA5C2"/>
<path d="M432.634 547.359L426.898 527.087C425.681 522.795 425.075 518.299 425.102 513.766L425.113 511.867C426.803 511.234 428.081 510.955 428.523 511.272C428.523 511.272 430.571 520.933 432.004 527.707C433.437 534.469 436.399 545.067 437.116 548.448C437.833 551.829 433.799 565.96 431.465 565.77C430.717 565.719 430.022 564.516 429.302 562.744C430.572 559.806 433.625 552.044 432.634 547.359Z" fill="#C2D6FF"/>
<path d="M422.182 526.894C422.182 526.894 422.914 545.481 422.604 547.539C422.294 549.598 414.614 541.528 414.614 541.528C414.614 541.528 414.913 527.044 416.339 525.802C417.765 524.559 420.421 525.727 422.182 526.894Z" fill="#C2D6FF"/>
<path d="M416.228 525.972C418.065 524.277 421.482 526.086 422.968 526.832C423.172 530.727 423.96 542.412 423.08 547.875C423.083 545.7 422.35 536.898 422.252 527.287C420.615 526.225 417.921 524.922 416.228 525.972Z" fill="#0D5361"/>
<path d="M436.376 529.897C433.814 521.033 430.173 509.747 428.504 511.282C425.509 514.034 430.219 523.836 431.184 526.752C433.304 533.181 434.746 539.915 435.455 546.762C436.129 553.267 432.686 556.412 431.124 562.233C430.823 563.348 430.678 564.807 431.49 565.492C432.445 566.29 433.726 565.238 434.457 564.147C436.126 561.675 437.22 558.733 438.296 555.816C439.352 552.963 440.429 550.008 440.427 546.889C440.425 544.467 439.77 542.121 439.122 539.826C438.888 539.002 437.799 534.817 436.376 529.897Z" fill="#0D5361"/>
<path d="M403.888 150.944H242.739C241.357 150.944 240.237 149.632 240.237 148.006V20.9832C240.237 19.3573 241.357 18.0452 242.739 18.0452H403.888C405.271 18.0452 406.392 19.3573 406.392 20.9832V148.006C406.392 149.632 405.271 150.944 403.888 150.944Z" fill="#8DD1C5"/>
<path d="M323.314 131.392H263.159V34.054H323.314V131.392Z" fill="#ECF2FF"/>
<path d="M340.749 128.958C346.057 128.958 350.359 130.845 350.359 133.181C350.359 134.35 349.284 135.409 347.544 136.17L348.436 140.217L345.165 136.93C343.843 137.229 342.342 137.406 340.749 137.406C335.442 137.406 331.14 135.518 331.14 133.181C331.14 130.845 335.442 128.958 340.749 128.958Z" fill="#ECF2FF"/>
<path d="M397.145 38.4021H331.139V34.054H397.145V38.4021Z" fill="#ECF2FF"/>
<path d="M397.148 47.8157H331.142V43.4702H397.148V47.8157Z" fill="#ECF2FF"/>
<path d="M397.145 57.2627H331.139V52.9077H397.145V57.2627Z" fill="#ECF2FF"/>
<path d="M397.147 66.6755H331.142V62.3245H397.147V66.6755Z" fill="#ECF2FF"/>
<path d="M307.796 76.7904C307.796 88.7766 301.042 98.5032 292.712 98.5032C284.38 98.5032 277.625 88.7766 277.625 76.7904C277.625 64.8042 284.38 55.0776 292.712 55.0776C301.042 55.0776 307.796 64.8042 307.796 76.7904Z" fill="#D7E0FE"/>
<path d="M277.252 76.7997C277.252 75.5882 277.322 74.3908 277.454 73.2351C275.685 73.806 274.375 75.8946 274.375 78.3871C274.375 81.1301 275.97 83.3858 278.014 83.6504C277.521 81.4921 277.252 79.1946 277.252 76.7997Z" fill="#D7E0FE"/>
<path d="M307.957 73.1741C308.094 74.3576 308.166 75.5691 308.166 76.7944C308.166 79.2033 307.896 81.5148 307.4 83.687C309.557 83.5617 311.275 81.2364 311.275 78.3819C311.275 75.7919 309.846 73.6336 307.957 73.1741Z" fill="#D7E0FE"/>
<path d="M292.711 98.9363C291.719 98.9363 290.749 98.7986 289.81 98.5507V118.893H297.469V97.8621C295.969 98.5645 294.37 98.9363 292.711 98.9363Z" fill="#D7E0FE"/>
<path d="M292.709 54.653C300.081 54.653 306.263 62.0904 307.798 71.9976C310.175 65.5762 301.76 48.7397 301.76 48.7397C301.76 48.7397 301.181 52.8183 298.162 51.7317C295.147 50.645 296.074 43.4897 296.074 43.4897L293.236 48.6128L291.2 42.4878L289.808 48.7397L286.791 43.4897C286.791 43.4897 288.299 47.2438 286.791 50.1087C285.283 52.9595 280.061 54.5824 279.017 59.2114C278.358 62.1328 278.899 64.3343 279.389 65.5762C282.08 59.042 287.043 54.653 292.709 54.653Z" fill="#D7E0FE"/>
<path d="M315.688 130.251H272.289V124.399C272.289 118.656 276.264 113.993 281.167 113.993H306.812C311.713 113.993 315.688 118.656 315.688 124.399V130.251Z" fill="#D7E0FE"/>
<path d="M192.674 169.854C192.674 169.854 192.787 182.152 194.608 183.019C196.428 183.872 196.081 168.774 196.081 168.774L192.674 169.854Z" fill="#FD5E5A"/>
<path d="M249.976 250.704C240.447 228.905 211.697 195.433 211.697 195.433C211.697 195.433 210.327 183.126 209.13 179.154C207.934 175.169 203.719 165.784 202.524 161.812C201.327 157.84 194.367 148.159 193.042 148.711C191.717 149.25 198.144 158.379 198.555 161.92C198.952 165.34 201.314 171.924 201.483 172.395C201.319 171.938 199.086 165.865 197.739 165.111C196.665 164.505 194.497 165.192 194.277 166.727C192.945 166.74 191.845 168.558 191.845 170.281C191.845 170.281 188.899 170.497 188.899 172.557C188.899 174.604 191.762 184.204 192.862 184.204C193.963 184.204 192.49 176.004 192.49 176.004L198.357 187.731C198.736 188.58 199.162 189.468 199.637 190.37C202.383 195.568 206.562 201.263 206.562 201.263C206.562 201.263 223.945 242.195 229.412 251.714C234.879 261.247 237.444 263.751 240.593 274.227C241.713 277.956 246.385 285.456 252.358 293.562C257.179 285.9 260.59 276.704 263.786 268.76C257.883 263.132 252.778 257.113 249.976 250.704Z" fill="#FC7575"/>
<path d="M293.148 292.576C290.512 283.806 271.708 272.556 257.527 259.031C256.485 274.052 248.75 283.832 241.199 286.964C252.025 301.653 272.04 315.153 278.145 314.897C288.943 314.45 296.879 304.99 293.148 292.576Z" fill="#FFCB57"/>
<path d="M397.028 121.557C396.688 121.557 396.345 121.461 396.038 121.215C394.54 120.094 392.992 118.959 391.436 117.865C390.571 117.249 390.292 115.936 390.813 114.924C391.333 113.912 392.456 113.584 393.321 114.199C394.908 115.307 396.49 116.47 398.018 117.618C398.866 118.261 399.112 119.588 398.564 120.586C398.215 121.215 397.626 121.557 397.028 121.557Z" fill="#7452FF"/>
<path d="M250.659 77.5475H250.617C247.119 77.4639 243.697 77.4221 240.443 77.4221H239.863C238.853 77.4221 238.035 76.4614 238.035 75.2778C238.035 74.0942 238.853 73.1333 239.863 73.1333H240.443C243.723 73.1333 247.174 73.1751 250.698 73.2726C251.707 73.3004 252.506 74.2751 252.485 75.4588C252.462 76.6284 251.649 77.5475 250.659 77.5475ZM213.487 78.5918C212.546 78.5918 211.745 77.7424 211.669 76.6145C211.588 75.4448 212.339 74.4144 213.345 74.3169C216.843 73.9827 220.491 73.7182 224.189 73.5372C225.178 73.4676 226.051 74.4004 226.096 75.584C226.14 76.7537 225.357 77.7563 224.348 77.812C220.694 77.993 217.09 78.2575 213.637 78.5778L213.487 78.5918ZM277.021 79.0792H276.873C273.355 78.745 269.745 78.4525 266.141 78.2297C265.134 78.1601 264.362 77.1576 264.417 75.974C264.471 74.7904 265.308 73.9131 266.341 73.9549C269.975 74.1777 273.617 74.4701 277.165 74.8043C278.172 74.9017 278.921 75.9321 278.839 77.1157C278.763 78.2297 277.964 79.0792 277.021 79.0792ZM303.235 82.63L302.956 82.6021C299.459 81.9755 295.877 81.4046 292.314 80.8894C291.312 80.7502 290.599 79.6918 290.72 78.5082C290.842 77.3385 291.761 76.517 292.756 76.6424C296.357 77.1576 299.976 77.7423 303.51 78.3689C304.507 78.55 305.192 79.6501 305.039 80.8198C304.9 81.8781 304.122 82.63 303.235 82.63ZM187.34 82.6996C186.482 82.6996 185.719 81.9894 185.548 80.959C185.354 79.8033 186 78.6754 186.993 78.4526C190.467 77.6589 194.081 76.9348 197.731 76.336C198.72 76.1689 199.654 76.9765 199.798 78.1462C199.939 79.3159 199.246 80.402 198.247 80.5692C194.658 81.1679 191.107 81.8781 187.691 82.6579C187.574 82.6857 187.455 82.6996 187.34 82.6996ZM329.121 88.5897C328.978 88.5897 328.835 88.5757 328.688 88.534C325.277 87.5592 321.755 86.6403 318.217 85.7909C317.229 85.5542 316.59 84.4262 316.792 83.2704C316.993 82.1147 317.958 81.3628 318.949 81.5995C322.529 82.4489 326.097 83.3819 329.55 84.3706C330.533 84.649 331.135 85.8047 330.896 86.9605C330.693 87.9352 329.944 88.5897 329.121 88.5897ZM161.901 90.7898C161.15 90.7898 160.447 90.2467 160.179 89.3694C159.839 88.2555 160.333 87.0302 161.282 86.6403C164.637 85.2199 168.133 83.9111 171.676 82.7275C172.646 82.4072 173.658 83.0616 173.934 84.2034C174.21 85.3313 173.648 86.5289 172.677 86.8491C169.215 88.0049 165.795 89.286 162.517 90.6646C162.313 90.7481 162.104 90.7898 161.901 90.7898ZM354.411 97.3762C354.208 97.3762 354.001 97.3345 353.801 97.2509C350.477 95.8724 347.052 94.5495 343.625 93.3241C342.66 92.976 342.116 91.7785 342.412 90.6367C342.707 89.5088 343.729 88.8682 344.695 89.2163C348.172 90.4695 351.646 91.8064 355.021 93.2127C355.973 93.6026 356.471 94.828 356.133 95.9419C355.867 96.8192 355.162 97.3762 354.411 97.3762ZM138.019 103.823C137.393 103.823 136.785 103.447 136.444 102.765C135.932 101.749 136.222 100.44 137.091 99.8409C140.192 97.6964 143.436 95.6635 146.732 93.7836C147.643 93.2684 148.733 93.7141 149.175 94.7723C149.615 95.8445 149.237 97.1255 148.329 97.6408C145.12 99.4649 141.963 101.442 138.945 103.531C138.653 103.726 138.336 103.823 138.019 103.823ZM378.705 109.393C378.432 109.393 378.154 109.324 377.892 109.17C374.746 107.346 371.482 105.564 368.192 103.879C367.268 103.406 366.841 102.152 367.245 101.066C367.648 99.9801 368.724 99.4788 369.649 99.9522C372.998 101.665 376.319 103.475 379.519 105.341C380.423 105.87 380.792 107.151 380.341 108.21C380.023 108.962 379.375 109.393 378.705 109.393ZM116.799 122.092C116.301 122.092 115.805 121.856 115.444 121.396C114.767 120.519 114.824 119.168 115.57 118.375C118.268 115.506 121.097 112.749 123.979 110.159C124.782 109.449 125.926 109.63 126.541 110.563C127.154 111.496 126.999 112.847 126.197 113.571C123.397 116.077 120.648 118.751 118.026 121.55C117.676 121.912 117.237 122.092 116.799 122.092ZM98.8247 144.706C98.4255 144.706 98.0226 144.553 97.6875 144.233C96.8973 143.495 96.7666 142.158 97.3952 141.225C99.6518 137.897 102.028 134.625 104.456 131.478C105.133 130.601 106.291 130.531 107.038 131.325C107.787 132.118 107.844 133.483 107.167 134.36C104.79 137.438 102.464 140.64 100.255 143.899C99.8954 144.428 99.3618 144.706 98.8247 144.706ZM84.034 170.272C83.7275 170.272 83.4161 170.188 83.1297 169.993C82.254 169.409 81.9474 168.1 82.4489 167.069C84.2408 163.393 86.1587 159.731 88.1515 156.18C88.7064 155.192 89.8412 154.913 90.6826 155.568C91.5251 156.208 91.7603 157.545 91.2066 158.533C89.2554 162.001 87.3767 165.593 85.624 169.2C85.2865 169.896 84.6686 170.272 84.034 170.272ZM72.7785 198.219C72.5622 198.219 72.3436 198.163 72.1297 198.08C71.1862 197.648 70.7121 196.423 71.0721 195.309C72.3543 191.354 73.7696 187.385 75.2727 183.514C75.6922 182.442 76.7736 181.955 77.6945 182.456C78.613 182.943 79.0182 184.211 78.6 185.283C77.1277 189.07 75.7445 192.955 74.4885 196.84C74.2104 197.69 73.5164 198.219 72.7785 198.219ZM65.3921 227.865C65.2673 227.865 65.1425 227.851 65.0189 227.823C64.0291 227.586 63.3934 226.444 63.5989 225.289C64.3297 221.153 65.1913 216.975 66.1633 212.868C66.4318 211.726 67.4383 211.057 68.4103 211.364C69.3836 211.684 69.9551 212.868 69.6854 213.996C68.7347 218.02 67.8922 222.114 67.1781 226.152C66.9987 227.168 66.2393 227.865 65.3921 227.865ZM62.1694 258.513H62.0957C61.0869 258.471 60.3014 257.469 60.3418 256.299C60.4832 252.066 60.7542 247.777 61.1451 243.53C61.2532 242.36 62.1564 241.511 63.1593 241.636C64.1634 241.761 64.8882 242.82 64.7801 243.989C64.3963 248.139 64.1325 252.33 63.9946 256.466C63.9542 257.608 63.145 258.513 62.1694 258.513ZM63.3494 289.37C62.4463 289.37 61.6608 288.59 61.5408 287.518C61.4327 286.543 61.3305 285.568 61.2354 284.594C60.9158 281.349 60.6686 278.035 60.5011 274.777C60.4404 273.593 61.2081 272.577 62.2146 272.507C63.2116 272.438 64.0885 273.329 64.1491 274.512C64.3131 277.701 64.5543 280.932 64.8657 284.106C64.9584 285.067 65.0594 286.014 65.1639 286.961C65.2958 288.131 64.5923 289.203 63.5906 289.356L63.3494 289.37ZM69.1233 319.503C68.3509 319.503 67.6332 318.932 67.3837 318.013C66.2714 313.975 65.2744 309.825 64.4224 305.69C64.186 304.534 64.7896 303.378 65.7688 303.1C66.7527 302.821 67.739 303.531 67.9754 304.687C68.8072 308.711 69.7781 312.763 70.863 316.704C71.1719 317.832 70.6443 319.043 69.6842 319.405C69.4976 319.475 69.3087 319.503 69.1233 319.503ZM79.4389 347.923C78.7865 347.923 78.1555 347.519 77.8264 346.795C76.1093 343.036 74.492 339.165 73.0221 335.294C72.6122 334.221 73.0257 332.954 73.9478 332.467C74.8687 331.98 75.9513 332.467 76.36 333.553C77.7967 337.327 79.3735 341.1 81.049 344.776C81.5255 345.821 81.1905 347.116 80.3004 347.673C80.0247 347.84 79.73 347.923 79.4389 347.923ZM93.7983 373.823C93.2516 373.823 92.7098 373.531 92.3497 372.988C90.1181 369.604 87.9685 366.109 85.9638 362.614C85.4006 361.639 85.624 360.316 86.4605 359.648C87.2983 358.993 88.4343 359.244 88.9975 360.233C90.957 363.644 93.058 367.056 95.242 370.37C95.8588 371.303 95.7126 372.654 94.9141 373.378C94.5813 373.67 94.1868 373.823 93.7983 373.823ZM111.44 396.757C110.985 396.757 110.528 396.562 110.173 396.158C107.546 393.206 104.977 390.143 102.538 387.052C101.851 386.188 101.895 384.838 102.636 384.03C103.374 383.236 104.531 383.278 105.217 384.141C107.61 387.177 110.128 390.171 112.705 393.081C113.434 393.889 113.456 395.253 112.759 396.103C112.399 396.548 111.919 396.757 111.44 396.757ZM131.597 416.67C131.219 416.67 130.837 416.53 130.509 416.252C127.574 413.69 124.688 411.058 121.932 408.398C121.152 407.646 121.04 406.296 121.68 405.391C122.321 404.471 123.472 404.346 124.253 405.098C126.961 407.702 129.799 410.292 132.688 412.812C133.497 413.509 133.668 414.859 133.067 415.806C132.708 416.363 132.156 416.67 131.597 416.67ZM154.073 432.92C153.779 432.92 153.482 432.836 153.206 432.669C149.281 430.177 146.078 428.116 143.688 426.528C142.808 425.943 142.499 424.648 142.996 423.618C143.495 422.588 144.611 422.226 145.487 422.81C147.856 424.37 151.038 426.431 154.943 428.896C155.83 429.453 156.162 430.761 155.683 431.792C155.352 432.516 154.723 432.92 154.073 432.92Z" fill="#7452FF"/>
<path d="M467.89 153.989L418.86 107.709L404.003 121.271L467.89 153.989Z" fill="#7452FF"/>
<path d="M413.508 154.368L417.627 125.171L467.89 153.987L413.508 154.368Z" fill="#DBF1FF"/>
<path d="M421.575 83.4302L467.891 153.985L418.86 107.702L421.575 83.4302Z" fill="#DBF1FF"/>
<path d="M404.007 121.26L417.629 125.158L417.031 129.397L404.007 121.26Z" fill="#0033BF"/>
<path d="M185.005 313.038H22.6116C21.2183 313.038 20.0889 311.724 20.0889 310.091V182.072C20.0889 180.439 21.2183 179.112 22.6116 179.112H185.005C186.398 179.112 187.527 180.439 187.527 182.072V310.091C187.527 311.724 186.398 313.038 185.005 313.038Z" fill="#8DD1C5"/>
<path d="M185.005 191.948H22.6116C21.2183 191.948 20.0889 190.62 20.0889 188.988V182.072C20.0889 180.439 21.2183 179.111 22.6116 179.111H185.005C186.398 179.111 187.527 180.439 187.527 182.072V188.988C187.527 190.62 186.398 191.948 185.005 191.948Z" fill="#004D54"/>
<path d="M76.9775 280.638H35.4965V204.864H76.9775V280.638Z" fill="#F2F0F9"/>
<path d="M176.77 209.127H88.5884V204.864H176.77V209.127Z" fill="#698BFD"/>
<path d="M176.772 218.796H88.5894V213.872H176.772V218.796Z" fill="#698BFD"/>
<path d="M137.668 189.738H26.3512V182.714H137.668V189.738Z" fill="white"/>
<path d="M169.679 188.65C169.679 189.245 169.267 189.721 168.759 189.721C168.25 189.721 167.837 189.245 167.837 188.65C167.837 188.056 168.25 187.566 168.759 187.566C169.267 187.566 169.679 188.056 169.679 188.65Z" fill="white"/>
<path d="M171.913 188.65C171.913 189.245 171.502 189.721 170.992 189.721C170.483 189.721 170.07 189.245 170.07 188.65C170.07 188.056 170.483 187.566 170.992 187.566C171.502 187.566 171.913 188.056 171.913 188.65Z" fill="white"/>
<path d="M174.146 188.65C174.146 189.245 173.735 189.721 173.225 189.721C172.716 189.721 172.303 189.245 172.303 188.65C172.303 188.056 172.716 187.566 173.225 187.566C173.735 187.566 174.146 188.056 174.146 188.65Z" fill="white"/>
<path d="M133.263 185.204C133.263 184.422 133.775 183.799 134.403 183.799C135.032 183.799 135.544 184.422 135.544 185.204C135.544 185.985 135.032 186.608 134.403 186.608C133.775 186.608 133.263 185.985 133.263 185.204ZM136.2 188.463L135.315 186.674C135.672 186.343 135.905 185.8 135.905 185.204C135.905 184.183 135.234 183.349 134.403 183.349C133.575 183.349 132.901 184.183 132.901 185.204C132.901 186.224 133.575 187.058 134.403 187.058C134.609 187.058 134.806 187.005 134.985 186.913L135.611 188.834L135.635 188.9C135.731 189.086 135.934 189.152 136.09 189.033C136.247 188.913 136.295 188.662 136.2 188.463Z" fill="#121841"/>
<path d="M151.647 189.367H142.24V182.715H151.647V189.367Z" fill="#F57408"/>
<path d="M173.224 307.249H95.7515V225.949H173.224V307.249Z" fill="#E4EDFF"/>
<path d="M134.487 273.247H103.807V238.887H134.487V273.247Z" fill="white"/>
<path d="M171.913 307.239H141.232V278.683H171.913V307.239Z" fill="white"/>
<path d="M154.066 233.697H116.573V230.003H154.066V233.697Z" fill="#F57408"/>
<path d="M171.912 243.923H139.875V242.082H171.912V243.923Z" fill="#698BFD"/>
<path d="M171.911 240.733H139.874V238.887H171.911V240.733Z" fill="#698BFD"/>
<path d="M171.913 247.127H139.876V245.274H171.913V247.127Z" fill="#698BFD"/>
<path d="M171.912 250.338H139.875V248.488H171.912V250.338Z" fill="#698BFD"/>
<path d="M171.914 253.529H139.876V251.682H171.914V253.529Z" fill="#698BFD"/>
<path d="M171.912 256.74H139.874V254.896H171.912V256.74Z" fill="#698BFD"/>
<path d="M171.914 259.931H139.876V258.09H171.914V259.931Z" fill="#698BFD"/>
<path d="M171.912 263.154H139.874V261.303H171.912V263.154Z" fill="#698BFD"/>
<path d="M171.913 266.345H139.875V264.497H171.913V266.345Z" fill="#698BFD"/>
<path d="M171.911 269.556H139.873V267.711H171.911V269.556Z" fill="#698BFD"/>
<path d="M171.912 272.747H139.875V270.904H171.912V272.747Z" fill="#698BFD"/>
<path d="M182.947 135.498H89.6071C88.8058 135.498 88.1576 134.741 88.1576 133.802V60.2125C88.1576 59.2736 88.8058 58.5168 89.6071 58.5168H182.947C183.747 58.5168 184.397 59.2736 184.397 60.2125V133.802C184.397 134.741 183.747 135.498 182.947 135.498Z" fill="#8DD1C5"/>
<path d="M163.72 121.24H107.403C105.029 121.24 103.101 118.985 103.101 116.2V78.3986C103.101 75.614 105.029 73.3584 107.403 73.3584H163.72C166.096 73.3584 168.021 75.614 168.021 78.3986V116.2C168.021 118.985 166.096 121.24 163.72 121.24Z" fill="#7452FF"/>
<path d="M161.285 77.6362H110.73L135.585 105.139L161.285 77.6362Z" fill="white"/>
<path d="M135.537 112.399L106.474 80.2368V116.979H164.647V81.2501L135.537 112.399Z" fill="white"/>
<path d="M367.619 131.822C367.619 131.822 368.741 130.247 370.953 130.247C372.927 130.247 374.288 131.863 374.288 133.736C374.288 135.908 372.434 138.473 367.619 140.713C362.805 138.473 360.95 135.908 360.95 133.736C360.95 131.863 362.312 130.247 364.285 130.247C366.499 130.247 367.619 131.822 367.619 131.822Z" fill="#ECF2FF"/>
</svg>
