<svg width="514" height="526" viewBox="0 0 514 526" fill="none" xmlns="http://www.w3.org/2000/svg">
<path d="M479.361 456.417C477.57 456.417 476.092 454.958 476.092 453.15V84.8603L360.397 214.556C359.21 215.906 357.139 216.026 355.796 214.823C354.453 213.622 354.33 211.557 355.539 210.216L482.63 67.7205V453.15C482.63 454.958 481.174 456.417 479.361 456.417Z" fill="#7FCDFF"/>
<path d="M126.471 468.485L112.141 461.077C103.035 446.538 95.9641 429.477 95.3484 411.046C95.3484 411.046 108.844 410.192 124.137 412.525L133.79 423.995L134.555 414.621C142.042 416.537 149.342 419.397 155.121 423.677L156.164 442.407L162.142 430.679C163.274 432.258 164.238 433.976 165.012 435.813C176.929 464.215 185.747 500.959 185.747 500.959L156.114 508.605C156.114 508.605 137.762 495.308 121.218 474.016L126.471 468.485Z" fill="#AD2500"/>
<path d="M152.152 496.549C160.255 498.247 165.399 496.956 167.207 496.331C154.903 486.718 142.996 473.58 133.274 461.484C132.837 461.613 132.4 461.742 131.963 461.851C123.889 463.937 116.689 462.159 111.228 459.607C110.92 459.101 110.612 458.584 110.314 458.078C115.925 460.988 123.76 463.252 132.628 460.67C129.788 457.115 127.037 453.54 124.346 449.905C117.335 450.779 109.589 448.405 104.038 446.092C103.829 445.655 103.631 445.208 103.442 444.761C108.824 447.085 116.679 449.696 123.681 449.011C109.986 430.451 100.423 415.068 100.324 414.899L97.6821 411.572L100.711 413.578C100.88 413.876 108.705 426.329 119.679 441.762C121.267 433.499 114.733 415.992 112.886 411.294C113.234 411.314 113.591 411.344 113.959 411.374C116.123 416.895 122.678 434.751 120.423 442.814C127.385 452.546 135.826 463.54 144.992 473.748C146.511 469.359 136.114 446.151 140.573 434.79C143.294 427.859 142.112 420.907 140.712 416.448C141.089 416.568 141.466 416.707 141.834 416.836C143.175 421.463 144.158 428.296 141.476 435.138C136.978 446.588 148.229 470.392 145.677 474.523C147.475 476.509 149.292 478.456 151.139 480.362C152.46 456.737 152.172 455.992 148.994 447.581C147.157 442.745 145.429 438.177 147.912 433.996C150.057 430.371 149.54 424.413 148.617 419.716C148.984 419.904 149.361 420.093 149.729 420.292C150.583 425.019 150.94 430.778 148.736 434.483C144.793 441.146 152.748 449.16 152.778 459.14C152.797 468.187 152.162 479.449 152.053 481.296C155.816 485.149 159.67 488.803 163.562 492.11C164.486 490.819 168.17 484.732 164.158 474.95C160.891 467.015 165.906 454.552 169.511 447.283C169.67 447.71 169.829 448.137 169.987 448.574C166.512 455.804 162.083 467.373 165.052 474.593C169.342 485.02 165.3 491.405 164.307 492.736C168.994 496.678 173.721 500.124 178.429 502.845L177.118 503.193C176.284 502.696 175.449 502.17 174.625 501.634C171.259 503.719 165.439 504.583 158.736 501.872C154.674 500.224 150.93 500.839 148.001 502.051C147.743 501.822 147.475 501.594 147.196 501.356C150.374 499.936 154.545 499.131 159.103 500.978C166.72 504.057 171.984 501.952 173.711 501.038C171.835 499.797 169.968 498.456 168.101 497.026C163.582 498.933 156.899 498.525 151.953 497.493C148.766 496.827 145.737 497.046 143.085 497.671C142.807 497.413 142.529 497.155 142.241 496.887C145.161 496.122 148.557 495.804 152.152 496.549Z" fill="#A7CBD3"/>
<path d="M159.61 435.645H162.142V430.679H159.61V435.645Z" fill="#B1C8CD"/>
<path d="M185.747 500.958C185.747 500.958 174.258 486.162 165.648 459.577C166.591 456.399 167.822 453.291 169.044 450.6C176.313 475.585 185.747 500.958 185.747 500.958ZM165.121 457.919C163.016 451.196 161.099 443.757 159.61 435.644L162.142 430.679C163.274 432.258 164.237 433.976 165.012 435.813C165.022 435.833 165.032 435.853 165.032 435.872C166.104 440.163 167.326 444.631 168.617 449.14C167.415 451.712 166.134 454.751 165.121 457.919Z" fill="#7B3925"/>
<path d="M165.648 459.577C165.469 459.03 165.29 458.474 165.121 457.918C166.134 454.75 167.415 451.711 168.617 449.139C168.756 449.616 168.905 450.113 169.044 450.599C167.823 453.29 166.591 456.399 165.648 459.577Z" fill="#77A6B0"/>
<path d="M277.086 452.624C276.857 452.683 276.052 452.605 274.759 452.515C268.972 452.128 253.23 451.751 232.786 464.054C207.737 479.129 191.856 499.388 191.856 499.388C191.856 499.388 224.413 497.362 251.609 485.376C278.786 473.4 277.086 452.624 277.086 452.624Z" fill="#004A58"/>
<path d="M194.516 496.341C209.174 479.528 233.176 459.736 256.226 454.185C254.915 469.012 250.972 480.571 239.621 489.975C220.465 496.361 201.329 498.675 194.467 499.35C194.467 498.416 194.476 497.413 194.516 496.341Z" fill="#003842"/>
<path d="M163.83 380.33L178.627 389.556L167.445 365.206C169.829 356.973 172.838 349.128 176.442 342.077C186.393 322.613 205.589 292.562 205.589 292.562C214.517 302.9 221.498 313.367 226.821 323.824L217.208 340.508L231.955 335.096C265.302 418.077 201.885 496.798 201.885 496.798L185.747 500.958C185.747 500.958 160.464 432.933 160.782 409.983C160.911 400.34 161.944 390.241 163.83 380.33Z" fill="#E0AA1A"/>
<path d="M161.407 418.166C161.209 416.736 161.05 415.376 160.941 414.095C166.76 422.566 181.567 442.725 192.868 446.102C192.967 445.069 193.066 444.046 193.176 443.023C182.5 441.941 168.399 419.864 160.861 406.627C160.901 405.425 160.96 404.214 161.03 402.992C169.104 417.541 183.702 440.242 193.384 441.116C194.308 433.132 195.748 425.217 197.932 418.027C199.72 412.118 201.09 404.283 202.123 395.405C192.053 391.175 178.587 365.613 171.993 351.908C172.311 351.124 172.629 350.349 172.957 349.575C179.054 362.365 192.798 388.712 202.352 393.399C203.057 386.875 203.603 379.854 204.02 372.654C194.109 363.815 185.906 341.799 182.351 331.113C182.778 330.359 183.215 329.594 183.652 328.819C186.691 338.144 194.665 360.489 204.149 370.121C206.046 334.083 205.37 295.124 205.341 294.529L205.718 293.049L206.066 294.459C206.086 295.134 208.31 344.113 205.231 383.141C220.336 384.173 233.047 370.469 239.572 361.72C239.731 362.614 239.88 363.488 240.009 364.371C238.36 366.507 236.384 368.84 234.13 371.164C227.456 378.046 220.495 382.455 213.623 384.233C210.753 384.968 207.893 385.256 205.083 385.057C204.189 395.624 202.947 405.356 201.219 413.052C214.864 414.164 231.836 404.631 241.081 398.573C241.012 399.407 240.922 400.241 240.843 401.076C234.11 405.395 224.09 411.006 213.98 413.618C209.502 414.77 205.003 415.336 200.773 414.939C200.455 416.22 200.127 417.441 199.78 418.583C190.385 449.538 194.844 494.355 195.281 498.496L193.394 498.993C193.265 497.811 190.643 473.57 192.699 448.048C181.805 445.089 168.349 427.938 161.407 418.166Z" fill="#CFD5F1"/>
<path d="M186.899 500.661L191.845 499.39L186.899 500.661ZM215.45 476.231C223.573 462.08 233.266 441.523 238.271 417.49C233.266 441.503 223.593 462.05 215.48 476.211C215.47 476.211 215.46 476.221 215.45 476.231ZM238.271 417.481C238.281 417.451 238.291 417.421 238.291 417.391C238.291 417.421 238.281 417.451 238.271 417.481ZM238.311 417.332C238.311 417.302 238.321 417.272 238.321 417.242C238.321 417.272 238.311 417.302 238.311 417.332ZM238.34 417.153C238.34 417.143 238.35 417.133 238.35 417.123C238.35 417.133 238.34 417.143 238.34 417.153Z" fill="#BCC0D7"/>
<path d="M191.845 499.389L193.493 498.962L194.466 498.713L191.845 499.389Z" fill="#2D5B79"/>
<path d="M194.467 498.713L195.281 498.495L201.885 496.797C201.885 496.797 208.012 489.2 215.45 476.231C215.46 476.221 215.47 476.211 215.48 476.211C208.33 488.674 202.401 496.191 201.925 496.787L194.467 498.713Z" fill="#2D516D"/>
<path d="M186.899 500.661C186.88 500.572 184.466 483.699 191.964 463.48C191.617 482.587 193.285 498.049 193.394 498.993L193.493 498.963L191.845 499.39L186.899 500.661ZM195.281 498.496C195.013 495.993 193.285 478.605 194.03 458.406C196.949 451.871 200.961 445.098 206.453 438.534L211.498 443.232L209.869 434.691C211.319 433.152 212.858 431.623 214.487 430.123L221.975 439.805L220.346 425.158C225.709 420.957 231.905 417.005 239.065 413.429C238.837 414.671 238.599 415.902 238.35 417.124C238.35 417.134 238.34 417.144 238.34 417.153C238.34 417.183 238.331 417.213 238.321 417.243C238.321 417.273 238.311 417.302 238.311 417.332C238.301 417.352 238.301 417.372 238.291 417.392C238.291 417.422 238.281 417.451 238.271 417.481V417.491C233.266 441.523 223.574 462.08 215.45 476.231C208.012 489.201 201.885 496.798 201.885 496.798L195.281 498.496Z" fill="#AA9157"/>
<path d="M193.394 498.993C193.285 498.049 191.616 482.587 191.964 463.481C192.58 461.812 193.275 460.114 194.03 458.406C193.285 478.605 195.013 495.994 195.281 498.496L194.466 498.715L193.493 498.963L193.394 498.993Z" fill="#A1A9CF"/>
<path d="M122.678 457.105L129.401 470.183L130.622 459.24C135.21 460.67 139.798 462.428 144.247 464.622L147.137 471.246L150.206 467.879C162.361 475.248 172.838 486.32 178.26 502.895L153.314 509.33C153.314 509.33 95.8251 508.337 79.8466 454.145C79.8466 454.145 100.155 451.901 122.678 457.105Z" fill="#469AA8"/>
<path d="M168.657 505.367L164.486 506.45C131.049 498.148 85.8843 458.703 83.9081 456.965L81.068 454.363L85.1892 455.525C85.6858 455.962 135.488 499.459 168.657 505.367Z" fill="#A7CBD3"/>
<path d="M208.628 446.34L212.948 450.362L211.547 443.043C212.789 441.722 214.11 440.421 215.51 439.13L221.915 447.422L220.535 434.87C227.794 429.189 236.861 424.015 248.152 419.825C248.152 419.825 254.388 454.334 243.266 473.103C232.144 491.882 208.082 495.358 208.082 495.358L191.865 499.538C191.865 499.538 187.773 471.256 208.628 446.34Z" fill="#E0AA1A"/>
<path d="M206.274 495.824L203.821 496.45C233.226 462.675 246.057 422.664 246.186 422.257L247.785 420.658L247.566 422.684C247.447 423.091 234.924 462.149 206.274 495.824Z" fill="#F3DDA3"/>
<path d="M191.359 499.25C191.359 499.25 204.674 461.573 222.798 445.376C240.922 429.189 277.588 429.576 277.588 429.576C277.588 429.576 274.18 437.292 268.357 447.541L254.734 449.487L264.303 454.403C254.734 469.964 240.813 488.316 225.243 495.118C196.218 507.799 191.359 499.25 191.359 499.25Z" fill="#AD2500"/>
<path d="M191.358 499.25C191.358 499.24 191.527 498.763 192.073 497.303C196.741 491.742 211.915 473.956 226.463 459.716C226.9 455.436 223.703 450.45 220.992 447.074C221.389 446.687 221.796 446.299 222.203 445.922C224.755 449.09 227.774 453.698 228.122 458.107C228.797 457.452 233.742 453.023 235.55 451.612C236.146 447.253 232.898 443.092 229.939 440.291C230.445 439.994 230.952 439.715 231.468 439.437C234.259 442.168 237.169 446.031 237.268 450.311C239.036 448.991 240.833 447.759 242.611 446.607C245.252 442.724 244.329 437.998 243.067 434.681C243.604 434.512 244.14 434.353 244.676 434.194C245.788 437.143 246.633 441.136 245.302 444.919C246.901 443.946 248.48 443.042 250.039 442.198C252.978 436.687 253.147 433.658 252.869 432.168C253.415 432.059 253.961 431.95 254.498 431.85C254.815 433.529 254.627 436.359 252.531 440.877C263.713 435.118 272.76 431.989 272.909 431.95L276.355 430.977L273.048 433.876C272.82 433.946 251.578 440.192 234.04 454.959C241.657 453.906 250.714 459.001 255.948 461.94C256.821 462.427 257.755 462.953 258.49 463.33C258.182 463.787 257.864 464.244 257.546 464.701C256.901 464.363 256.116 463.926 255.143 463.38C249.324 460.103 238.559 454.065 231.18 457.471C230.297 458.296 225.927 462.556 224.884 463.599C232.402 462.844 245.222 469.031 251.717 472.487C251.369 472.923 251.012 473.36 250.664 473.797C242.084 469.259 227.734 462.903 222.551 465.962C206.92 481.931 191.358 499.25 191.358 499.25Z" fill="#DE9C8C"/>
<path d="M122.787 313.844C106.222 313.844 92.7465 300.368 92.7465 283.794C92.7465 267.229 106.222 253.753 122.787 253.753C139.351 253.753 152.837 267.229 152.837 283.794C152.837 300.368 139.351 313.844 122.787 313.844Z" fill="white"/>
<path d="M479.348 106.333C462.787 106.333 449.315 92.8573 449.315 76.2941C449.315 59.7298 462.787 46.2437 479.348 46.2437C495.932 46.2437 509.403 59.7298 509.403 76.2941C509.403 92.8573 495.932 106.333 479.348 106.333Z" fill="white"/>
<path d="M226.195 104.982C225.977 104.982 225.758 104.902 225.56 104.734C224.606 103.899 223.613 103.065 222.61 102.261C222.054 101.814 221.875 100.851 222.213 100.106C222.551 99.3609 223.266 99.1127 223.822 99.5695C224.835 100.384 225.858 101.238 226.831 102.082C227.377 102.559 227.536 103.532 227.188 104.257C226.96 104.724 226.583 104.982 226.195 104.982Z" fill="#99D7FF"/>
<path d="M132.31 72.6375H132.291C130.046 72.5779 127.852 72.5381 125.766 72.5381H125.389C124.743 72.5381 124.217 71.8331 124.217 70.9691C124.217 70.0952 124.743 69.3901 125.389 69.3901H125.766C127.861 69.3901 130.076 69.4299 132.34 69.4894C132.986 69.5093 133.502 70.2342 133.482 71.0982C133.472 71.9622 132.946 72.6375 132.31 72.6375ZM108.477 73.4021C107.871 73.4021 107.355 72.7765 107.305 71.9522C107.255 71.0883 107.732 70.3335 108.377 70.264C110.622 70.0157 112.965 69.8271 115.339 69.688C115.965 69.6384 116.531 70.3236 116.56 71.1876C116.59 72.0615 116.084 72.7963 115.438 72.8261C113.095 72.9651 110.781 73.1638 108.566 73.3922L108.477 73.4021ZM149.222 73.7596H149.123C146.869 73.5114 144.555 73.3028 142.241 73.134C141.596 73.0843 141.099 72.3495 141.139 71.4756C141.169 70.6116 141.715 69.9661 142.37 69.9959C144.704 70.1647 147.038 70.3733 149.312 70.6216C149.957 70.691 150.444 71.4458 150.394 72.3098C150.345 73.134 149.828 73.7596 149.222 73.7596ZM166.035 76.3714L165.856 76.3515C163.612 75.8947 161.318 75.4677 159.034 75.1003C158.388 74.9911 157.932 74.2065 158.011 73.3425C158.091 72.4786 158.676 71.8728 159.312 71.9721C161.626 72.3495 163.95 72.7765 166.214 73.2432C166.849 73.3723 167.296 74.1767 167.197 75.0407C167.108 75.8153 166.611 76.3714 166.035 76.3714ZM91.6939 76.4211C91.1477 76.4211 90.6611 75.8947 90.5519 75.14C90.4228 74.2959 90.8398 73.4617 91.4754 73.3028C93.7098 72.7169 96.0237 72.1906 98.3674 71.7437C99.0029 71.6245 99.5987 72.2203 99.6881 73.0744C99.7775 73.9384 99.3405 74.7328 98.695 74.8619C96.3911 75.2989 94.117 75.8153 91.9223 76.3913L91.6939 76.4211ZM182.639 80.7508C182.55 80.7508 182.461 80.7409 182.361 80.7012C180.176 79.9961 177.922 79.3208 175.648 78.6952C175.012 78.5164 174.605 77.6922 174.734 76.8382C174.864 75.9841 175.479 75.4379 176.115 75.6167C178.419 76.2423 180.703 76.9275 182.917 77.6425C183.543 77.851 183.93 78.7051 183.781 79.5492C183.652 80.2642 183.166 80.7508 182.639 80.7508ZM75.3778 82.3695C74.9011 82.3695 74.4542 81.9624 74.2754 81.3268C74.0569 80.5025 74.3748 79.6088 74.9806 79.3109C77.1355 78.2781 79.3798 77.3148 81.6539 76.4409C82.2696 76.2026 82.9251 76.6892 83.1039 77.5234C83.2727 78.3575 82.9151 79.2315 82.2895 79.4698C80.075 80.3139 77.8803 81.2573 75.775 82.2702C75.6459 82.3397 75.5168 82.3695 75.3778 82.3695ZM198.866 87.1958C198.737 87.1958 198.598 87.1661 198.469 87.1065C196.344 86.0936 194.149 85.1203 191.944 84.2166C191.329 83.9684 190.981 83.0845 191.17 82.2603C191.358 81.4261 192.014 80.9594 192.629 81.2077C194.864 82.1312 197.088 83.1143 199.253 84.1372C199.869 84.4351 200.187 85.3289 199.968 86.1531C199.799 86.7986 199.343 87.1958 198.866 87.1958ZM60.0646 91.9328C59.6575 91.9328 59.2701 91.6646 59.0517 91.1582C58.724 90.4134 58.9127 89.4501 59.4688 89.0131C61.4549 87.4342 63.5403 85.9446 65.6556 84.5642C66.2316 84.1868 66.9367 84.5145 67.2147 85.2891C67.5027 86.0737 67.2544 87.0171 66.6784 87.3945C64.6128 88.7351 62.597 90.1949 60.6605 91.7242C60.4718 91.8633 60.2632 91.9328 60.0646 91.9328ZM211.031 94.7332C210.852 94.7332 210.674 94.6836 210.505 94.5743C208.489 93.2238 206.394 91.9129 204.278 90.6815C203.692 90.334 203.414 89.4104 203.672 88.6159C203.931 87.8215 204.626 87.4541 205.222 87.8016C207.367 89.0529 209.492 90.3836 211.547 91.754C212.123 92.1413 212.362 93.0847 212.074 93.8593C211.875 94.4155 211.458 94.7332 211.031 94.7332ZM46.4496 105.369C46.1318 105.369 45.8141 105.19 45.5857 104.853C45.1487 104.207 45.1884 103.214 45.6651 102.628C47.393 100.523 49.2103 98.4871 51.0575 96.6002C51.5739 96.064 52.3087 96.203 52.696 96.8882C53.0933 97.5834 52.9939 98.5665 52.4775 99.0928C50.6801 100.94 48.9224 102.906 47.2341 104.952C47.0157 105.23 46.7376 105.369 46.4496 105.369ZM34.9201 121.973C34.6619 121.973 34.4037 121.854 34.1951 121.626C33.6887 121.089 33.5993 120.096 34.0064 119.421C35.4563 116.978 36.9758 114.565 38.5349 112.251C38.9718 111.605 39.7066 111.566 40.1932 112.142C40.6699 112.728 40.7097 113.721 40.2728 114.366C38.7534 116.63 37.2538 118.984 35.8436 121.377C35.6053 121.765 35.2676 121.973 34.9201 121.973ZM25.4362 140.762C25.2376 140.762 25.039 140.692 24.8603 140.553C24.2942 140.126 24.0956 139.163 24.4134 138.408C25.5654 135.707 26.7967 133.006 28.0778 130.394C28.4353 129.669 29.1603 129.471 29.6966 129.947C30.2427 130.424 30.3917 131.397 30.0341 132.132C28.7829 134.684 27.5813 137.316 26.4591 139.968C26.2406 140.474 25.8434 140.762 25.4362 140.762ZM18.2166 161.279C18.0776 161.279 17.9385 161.249 17.7995 161.179C17.1937 160.872 16.8859 159.958 17.1242 159.144C17.9386 156.244 18.8522 153.324 19.8155 150.484C20.0836 149.69 20.7788 149.342 21.3647 149.7C21.9605 150.057 22.2187 150.991 21.9506 151.785C21.0072 154.566 20.1134 157.426 19.309 160.266C19.1302 160.891 18.6834 161.279 18.2166 161.279ZM13.4796 183.067L13.2414 183.027C12.6058 182.858 12.1986 182.024 12.3277 181.17C12.7945 178.131 13.3505 175.063 13.9762 172.044C14.145 171.2 14.7905 170.713 15.4161 170.941C16.0418 171.18 16.4092 172.044 16.2305 172.878C15.6247 175.837 15.0785 178.836 14.6217 181.806C14.5124 182.55 14.0159 183.067 13.4796 183.067ZM11.4141 205.58H11.3644C10.7189 205.55 10.2125 204.815 10.2423 203.951C10.3317 200.843 10.5004 197.685 10.7487 194.576C10.8182 193.712 11.4042 193.087 12.0497 193.176C12.6852 193.275 13.1519 194.05 13.0824 194.914C12.8342 197.953 12.6654 201.041 12.576 204.07C12.5561 204.914 12.0397 205.58 11.4141 205.58ZM12.1689 228.251C11.583 228.251 11.0864 227.675 11.007 226.881C10.9374 226.166 10.8679 225.461 10.8083 224.736C10.6097 222.353 10.4508 219.919 10.3416 217.526C10.3019 216.652 10.7884 215.908 11.4439 215.858C12.0794 215.808 12.6455 216.464 12.6753 217.328C12.7845 219.681 12.9434 222.045 13.1421 224.378C13.2016 225.083 13.2612 225.779 13.3307 226.474C13.4201 227.338 12.9633 228.122 12.3178 228.241L12.1689 228.251ZM15.873 250.387C15.3765 250.387 14.9197 249.96 14.7509 249.294C14.0458 246.315 13.4002 243.276 12.854 240.238C12.7051 239.384 13.0924 238.54 13.718 238.331C14.3536 238.132 14.9792 238.649 15.1381 239.493C15.6644 242.452 16.2901 245.431 16.9853 248.331C17.1839 249.155 16.8462 250.039 16.2305 250.307C16.1113 250.357 15.9922 250.387 15.873 250.387ZM22.4868 271.261C22.0697 271.261 21.6626 270.963 21.4541 270.427C20.3518 267.676 19.319 264.826 18.3756 261.986C18.1074 261.191 18.3755 260.258 18.9614 259.91C19.5573 259.553 20.2525 259.91 20.5107 260.705C21.4342 263.475 22.4471 266.256 23.5196 268.947C23.8275 269.712 23.609 270.665 23.043 271.072C22.8642 271.202 22.6755 271.261 22.4868 271.261ZM31.6926 290.288C31.345 290.288 30.9975 290.08 30.7691 289.673C29.339 287.19 27.9587 284.628 26.6677 282.056C26.3102 281.341 26.4591 280.358 26.9954 279.871C27.5316 279.394 28.2566 279.583 28.6141 280.298C29.8753 282.811 31.2259 285.313 32.6261 287.746C33.0233 288.441 32.924 289.424 32.4175 289.951C32.199 290.179 31.9508 290.288 31.6926 290.288ZM43.0136 307.141C42.7256 307.141 42.4277 306.992 42.1993 306.704C40.521 304.529 38.8725 302.275 37.3034 300.01C36.8665 299.375 36.8863 298.382 37.363 297.786C37.8397 297.2 38.5845 297.23 39.0214 297.875C40.5607 300.09 42.1695 302.304 43.8279 304.43C44.2947 305.035 44.3046 306.028 43.8577 306.654C43.6293 306.982 43.3214 307.141 43.0136 307.141ZM55.9434 321.759C55.705 321.759 55.4568 321.659 55.2482 321.451C53.3614 319.574 51.5142 317.637 49.7466 315.691C49.2401 315.135 49.1706 314.142 49.5777 313.477C49.9948 312.801 50.7297 312.712 51.2362 313.258C52.9741 315.175 54.7914 317.081 56.6385 318.928C57.1649 319.445 57.2741 320.428 56.8868 321.123C56.6584 321.54 56.3009 321.759 55.9434 321.759ZM70.3628 333.705C70.1741 333.705 69.9854 333.646 69.8066 333.517C67.2842 331.689 65.2285 330.17 63.6992 329.008C63.1332 328.581 62.9346 327.618 63.2523 326.863C63.5801 326.108 64.2951 325.84 64.8512 326.267C66.3706 327.419 68.4163 328.929 70.9189 330.746C71.4849 331.153 71.7034 332.106 71.3955 332.871C71.177 333.397 70.7799 333.705 70.3628 333.705Z" fill="#99D7FF"/>
<path d="M448.734 508.635C448.734 518.148 348.284 525.864 224.367 525.864C100.45 525.864 0 518.148 0 508.635C0 499.12 100.45 491.404 224.367 491.404C348.284 491.404 448.734 499.12 448.734 508.635Z" fill="#235893"/>
<path d="M479.348 334.302C462.787 334.302 449.315 320.826 449.315 304.262C449.315 287.688 462.787 274.212 479.348 274.212C495.932 274.212 509.403 287.688 509.403 304.262C509.403 320.826 495.932 334.302 479.348 334.302Z" fill="white"/>
<path d="M505.745 304.261C505.745 318.829 493.932 330.647 479.354 330.647C464.787 330.647 452.974 318.829 452.974 304.261C452.974 289.682 464.787 277.865 479.354 277.865C493.932 277.865 505.745 289.682 505.745 304.261Z" fill="#99D7FF"/>
<path d="M479.359 298.54C476.989 298.54 475.058 296.613 475.058 294.23C475.058 291.847 476.989 289.92 479.359 289.92C481.751 289.92 483.671 291.847 483.671 294.23C483.671 296.613 481.751 298.54 479.359 298.54ZM479.516 287.328C474.541 287.328 470.521 291.35 470.521 296.315C470.521 301.28 479.516 321.182 479.516 321.182C479.516 321.182 488.489 301.28 488.489 296.315C488.489 291.35 484.469 287.328 479.516 287.328Z" fill="white"/>
<path d="M122.787 218.45C106.222 218.45 92.7465 204.974 92.7465 188.409C92.7465 171.845 106.222 158.359 122.787 158.359C139.351 158.359 152.837 171.845 152.837 188.409C152.837 204.974 139.351 218.45 122.787 218.45Z" fill="white"/>
<path d="M149.173 189.085C149.173 203.653 137.355 215.47 122.787 215.47C108.219 215.47 96.401 203.653 96.401 189.085C96.401 174.506 108.219 162.699 122.787 162.699C137.355 162.699 149.173 174.506 149.173 189.085Z" fill="#99D7FF"/>
<path d="M108.03 175.867C109.192 178.389 115.389 191.399 121.426 194.368C121.675 194.497 127.852 195.321 128.11 195.451C134.863 198.658 135.3 198.539 135.3 199.125C135.3 199.612 135.508 200.337 134.853 200.535C133.671 200.893 129.778 201.647 118.904 201.161C118.686 201.151 118.477 201.022 118.378 200.823C113.353 191.051 107.841 187.635 107.841 189.81C107.841 201.042 108.1 201.32 107.206 201.32C106.759 201.25 105.656 201.588 105.587 200.744C105.349 197.933 104.276 185.778 103.204 184.705C102.022 183.523 100.939 176.552 107.355 175.509C107.633 175.459 107.911 175.608 108.03 175.867Z" fill="white"/>
<path d="M113.184 194.934C113.75 200.366 113.492 200.734 114.296 200.734C114.723 200.654 115.925 201.012 115.925 200.098V199.105C115.091 197.675 114.157 196.235 113.184 194.934Z" fill="white"/>
<path d="M136.024 194.805C129.351 193.782 129.679 193.862 129.52 193.782C123.472 190.813 117.275 177.804 116.123 175.281C116.004 175.023 115.726 174.874 115.448 174.914C112.747 175.361 111.376 176.85 110.781 178.509C112.628 182.133 114.892 185.917 117.186 188.797C118.864 189.542 120.552 191.26 122.022 193.157C130.235 194.398 126.65 193.325 134.843 197.179C135.846 197.268 136.63 198.102 136.63 199.125C136.6 199.77 136.71 200.118 136.471 200.684C140.394 200.545 142.201 200.168 142.946 199.949C143.602 199.751 143.403 198.976 143.393 198.539C143.393 197.864 136.193 194.835 136.024 194.805Z" fill="white"/>
<path d="M505.745 76.291C505.745 90.8593 493.932 102.677 479.354 102.677C464.787 102.677 452.974 90.8593 452.974 76.291C452.974 61.7125 464.787 49.9058 479.354 49.9058C493.932 49.9058 505.745 61.7125 505.745 76.291Z" fill="#99D7FF"/>
<path d="M149.173 283.267C149.173 297.836 137.355 309.653 122.787 309.653C108.219 309.653 96.401 297.836 96.401 283.267C96.401 268.689 108.219 256.881 122.787 256.881C137.355 256.881 149.173 268.689 149.173 283.267Z" fill="#99D7FF"/>
<path d="M122.827 281.4C122.052 280.477 122.181 279.106 123.105 278.342C124.028 277.567 125.399 277.696 126.163 278.62C126.928 279.543 126.809 280.914 125.885 281.679C124.962 282.453 123.591 282.324 122.827 281.4ZM129.997 281.142L124.376 274.399C123.005 272.761 120.572 272.532 118.934 273.903L101.118 288.749L111.684 301.431L129.5 286.584C131.139 285.214 131.357 282.781 129.997 281.142Z" fill="white"/>
<path d="M125.329 278.769C125.419 278.749 133.87 277.12 137.028 274.489C139.758 272.215 139.957 267.627 134.853 268.173C130.86 268.6 127.524 274.638 126.273 277.21C125.855 278.073 124.554 277.438 124.972 276.574C126.65 273.108 130.155 267.22 134.704 266.733C141.079 266.058 141.963 272.264 137.961 275.601C134.515 278.471 125.965 280.119 125.597 280.189C124.654 280.367 124.386 278.947 125.329 278.769Z" fill="white"/>
<path d="M479.348 219.127C462.787 219.127 449.315 205.651 449.315 189.086C449.315 172.522 462.787 159.036 479.348 159.036C495.932 159.036 509.403 172.522 509.403 189.086C509.403 205.651 495.932 219.127 479.348 219.127Z" fill="white"/>
<path d="M505.745 189.085C505.745 203.654 493.932 215.47 479.354 215.47C464.787 215.47 452.974 203.654 452.974 189.085C452.974 174.507 464.787 162.699 479.354 162.699C493.932 162.699 505.745 174.507 505.745 189.085Z" fill="#99D7FF"/>
<path d="M372.577 141.905H234.422C215.703 141.905 200.546 157.068 200.546 175.779V466.241C200.546 484.95 215.703 500.124 234.422 500.124H372.577C391.285 500.124 406.453 484.95 406.453 466.241V175.779C406.453 157.068 391.285 141.905 372.577 141.905Z" fill="#977EEA"/>
<path d="M234.417 490.948C220.801 490.948 209.714 480.064 209.714 466.687V181.48C209.714 168.103 220.801 157.219 234.417 157.219H372.572C386.188 157.219 397.275 168.103 397.275 181.48V466.687C397.275 480.064 386.188 490.948 372.572 490.948H234.417Z" fill="#B19EFF"/>
<path d="M368.327 154.924H237.162C234.194 154.924 231.805 152.53 231.805 149.571C231.805 146.612 234.194 144.218 237.162 144.218H368.327C371.285 144.218 373.675 146.612 373.675 149.571C373.675 152.53 371.285 154.924 368.327 154.924Z" fill="#190B3D"/>
<path d="M369.903 149.67C369.903 152.073 367.96 154.019 365.555 154.019C363.149 154.019 361.206 152.073 361.206 149.67C361.206 147.267 363.149 145.321 365.555 145.321C367.96 145.321 369.903 147.267 369.903 149.67Z" fill="#331579"/>
<path d="M347.057 151.535H270.049C269.022 151.535 268.192 150.69 268.192 149.668C268.192 148.634 269.022 147.801 270.049 147.801H347.057C348.094 147.801 348.924 148.634 348.924 149.668C348.924 150.69 348.094 151.535 347.057 151.535Z" fill="#0E061E"/>
<path d="M382.853 420.698H224.371V187.813H382.853V420.698Z" fill="white"/>
<path d="M373.675 292.97H294.908V197.754H373.675V292.97Z" fill="#8DD1C5"/>
<path d="M373.675 402.059H294.908V306.833H373.675V402.059Z" fill="#8DD1C5"/>
<path d="M285.73 213.812H235.628V204.259H285.73V213.812Z" fill="#8DD1C5"/>
<path d="M285.73 233.316H235.628V223.763H285.73V233.316Z" fill="#8DD1C5"/>
<path d="M285.73 252.82H235.628V243.266H285.73V252.82Z" fill="#8DD1C5"/>
<path d="M499.218 507.836H449.116V498.273H499.218V507.836Z" fill="#FFF7CF"/>
<path d="M285.73 338.481H235.628V328.918H285.73V338.481Z" fill="#8DD1C5"/>
<path d="M285.73 357.986H235.628V348.422H285.73V357.986Z" fill="#8DD1C5"/>
<path d="M291.363 433.848C291.363 435.407 290.091 436.668 288.548 436.668C286.984 436.668 285.722 435.407 285.722 433.848C285.722 432.288 286.984 431.026 288.548 431.026C290.091 431.026 291.363 432.288 291.363 433.848Z" fill="#331579"/>
<path d="M301.885 433.847C301.885 435.406 300.614 436.668 299.061 436.668C297.508 436.668 296.247 435.406 296.247 433.847C296.247 432.288 297.508 431.026 299.061 431.026C300.614 431.026 301.885 432.288 301.885 433.847Z" fill="#331579"/>
<path d="M312.407 433.846C312.407 435.405 311.138 436.667 309.585 436.667C308.032 436.667 306.763 435.405 306.763 433.846C306.763 432.288 308.032 431.026 309.585 431.026C311.138 431.026 312.407 432.288 312.407 433.846Z" fill="#331579"/>
<path d="M366.645 182.272C366.645 183.702 367.812 184.864 369.232 184.864C370.662 184.864 371.829 183.702 371.829 182.272C371.829 180.842 370.662 179.68 369.232 179.68C367.812 179.68 366.645 180.842 366.645 182.272Z" fill="#331579"/>
<path d="M367.826 182.273C367.826 183.048 368.456 183.674 369.234 183.674C370.001 183.674 370.631 183.048 370.631 182.273C370.631 181.5 370.001 180.874 369.234 180.874C368.456 180.874 367.826 181.5 367.826 182.273Z" fill="#270F5B"/>
<path d="M355.382 182.271C355.382 183.701 356.542 184.863 357.973 184.863C359.404 184.863 360.563 183.701 360.563 182.271C360.563 180.841 359.404 179.68 357.973 179.68C356.542 179.68 355.382 180.841 355.382 182.271Z" fill="#331579"/>
<path d="M356.568 182.273C356.568 183.047 357.194 183.673 357.967 183.673C358.739 183.673 359.365 183.047 359.365 182.273C359.365 181.498 358.739 180.873 357.967 180.873C357.194 180.873 356.568 181.498 356.568 182.273Z" fill="#270F5B"/>
<path d="M356.357 175.411L351.517 167.059C351.285 166.662 351.306 166.196 351.581 165.808C351.834 165.431 352.299 165.202 352.806 165.202H372.017C372.292 165.202 372.514 165.39 372.514 165.629C372.514 165.867 372.292 166.056 372.017 166.056H352.806C352.574 166.056 352.447 166.196 352.415 166.264C352.363 166.324 352.278 166.483 352.394 166.672L357.223 175.023C357.308 175.163 357.466 175.252 357.646 175.252H370.221L373.391 164.08C373.772 162.769 374.987 161.856 376.339 161.856H379.89C380.154 161.856 380.376 162.074 380.376 162.342C380.376 162.61 380.154 162.829 379.89 162.829H376.339C375.42 162.829 374.585 163.454 374.342 164.348L370.168 178.966H356.537C356.262 178.966 356.05 178.747 356.05 178.48C356.05 178.201 356.262 177.983 356.537 177.983H369.428L369.967 176.116H357.646C357.097 176.116 356.6 175.847 356.357 175.411Z" fill="#331579"/>
<path d="M341.09 172.847C341.09 178.05 336.867 182.27 331.673 182.27C326.468 182.27 322.255 178.05 322.255 172.847C322.255 167.653 326.468 163.433 331.673 163.433C336.867 163.433 341.09 167.653 341.09 172.847Z" fill="#FD5E5A"/>
<path d="M329.701 170.196H328.692C329.423 166.948 332.943 167.127 334.065 168.954C334.703 170.007 334.569 171.397 333.159 172.232C334.795 172.897 335.505 174.764 334.528 176.442C333.241 178.666 329.053 178.905 328.353 175.141H329.33C330.349 179.014 335.382 176.492 333.674 173.84C333.108 172.956 332.181 172.817 331.111 172.768V171.854C332.222 171.854 333.396 171.318 333.396 170.205C333.396 168.795 331.543 168.16 330.483 168.975C330.174 169.212 329.917 169.62 329.701 170.196Z" fill="white"/>
<path d="M382.853 448.613H263.928V443.26H382.853V448.613Z" fill="#8D75BB"/>
<path d="M382.853 460.57H263.928V455.208H382.853V460.57Z" fill="#8D75BB"/>
<path d="M122.787 218.45C106.222 218.45 92.7465 204.974 92.7465 188.409C92.7465 171.845 106.222 158.359 122.787 158.359C139.351 158.359 152.837 171.845 152.837 188.409C152.837 204.974 139.351 218.45 122.787 218.45ZM122.787 153.771C103.66 153.771 88.1486 169.283 88.1486 188.409C88.1486 207.536 103.66 223.048 122.787 223.048C141.913 223.048 157.425 207.536 157.425 188.409C157.425 169.283 141.913 153.771 122.787 153.771Z" fill="#7FCDFF"/>
<path d="M479.361 219.124C462.793 219.124 449.322 205.649 449.322 189.084C449.322 172.52 462.793 159.033 479.361 159.033C495.94 159.033 509.411 172.52 509.411 189.084C509.411 205.649 495.94 219.124 479.361 219.124ZM479.361 154.445C460.231 154.445 444.733 169.958 444.733 189.084C444.733 208.21 460.231 223.722 479.361 223.722C498.491 223.722 514 208.21 514 189.084C514 169.958 498.491 154.445 479.361 154.445Z" fill="#7FCDFF"/>
<path d="M479.361 106.331C462.793 106.331 449.322 92.8555 449.322 76.2909C449.322 59.7262 462.793 46.2394 479.361 46.2394C495.94 46.2394 509.411 59.7262 509.411 76.2909C509.411 92.8555 495.94 106.331 479.361 106.331ZM479.361 41.6516C460.231 41.6516 444.733 57.1641 444.733 76.2909C444.733 95.4176 460.231 110.929 479.361 110.929C498.491 110.929 514 95.4176 514 76.2909C514 57.1641 498.491 41.6516 479.361 41.6516Z" fill="#7FCDFF"/>
<path d="M479.361 334.301C462.793 334.301 449.322 320.825 449.322 304.261C449.322 287.686 462.793 274.21 479.361 274.21C495.94 274.21 509.411 287.686 509.411 304.261C509.411 320.825 495.94 334.301 479.361 334.301ZM479.361 269.622C460.231 269.622 444.733 285.124 444.733 304.261C444.733 323.387 460.231 338.889 479.361 338.889C498.491 338.889 514 323.387 514 304.261C514 285.124 498.491 269.622 479.361 269.622Z" fill="#7FCDFF"/>
<path d="M122.787 313.844C106.222 313.844 92.7465 300.368 92.7465 283.794C92.7465 267.23 106.222 253.754 122.787 253.754C139.351 253.754 152.837 267.23 152.837 283.794C152.837 300.368 139.351 313.844 122.787 313.844ZM122.787 249.166C103.66 249.166 88.1486 264.668 88.1486 283.794C88.1486 302.92 103.66 318.432 122.787 318.432C141.913 318.432 157.425 302.92 157.425 283.794C157.425 264.668 141.913 249.166 122.787 249.166Z" fill="#7FCDFF"/>
<path d="M240.376 224.458C240.088 224.458 239.79 224.418 239.502 224.339L154.754 201.161C152.966 200.664 151.894 198.777 152.37 196.94C152.857 195.113 154.694 194.021 156.482 194.507L241.24 217.685C243.028 218.172 244.09 220.059 243.614 221.896C243.216 223.435 241.856 224.458 240.376 224.458Z" fill="#7FCDFF"/>
<path d="M248.321 296.416H248.311L155.618 296.108C153.751 296.098 152.251 294.559 152.261 292.652C152.271 290.755 153.771 289.226 155.628 289.226H155.638L248.331 289.533C250.188 289.543 251.697 291.083 251.687 292.99C251.677 294.887 250.178 296.416 248.321 296.416Z" fill="#7FCDFF"/>
<path d="M125.955 352.325L91.4157 325.88L82.9547 336.784L125.955 352.325Z" fill="#0A4CFE"/>
<path d="M91.4058 358.453L91.9023 337.996L125.955 352.326L91.4058 358.453Z" fill="#99D7FF"/>
<path d="M91.3661 308.948L125.955 352.325L91.4158 325.88L91.3661 308.948Z" fill="#99D7FF"/>
<path d="M82.9547 336.784L91.9023 337.995L91.8228 340.965L82.9547 336.784Z" fill="#0033BF"/>
<path d="M469.979 196.998C470.159 196.989 472.08 197.058 472.08 197.177C472.08 190.445 472.08 183.732 472.08 176.988C477.696 176.075 483.279 175.171 488.919 174.257C488.919 174.495 488.919 174.684 488.919 174.863C488.919 182.042 488.862 189.223 488.941 196.403C488.975 199.401 486.942 200.713 484.897 201.081C480.965 201.785 478.651 198.389 480.92 195.946C482.549 194.188 484.391 193.89 486.649 194.387C486.649 189.829 486.649 185.291 486.649 180.682C482.56 181.427 478.483 182.171 474.371 182.926C474.371 183.135 474.326 193.999 474.304 199.243C474.293 202.063 472.406 203.771 469.754 203.9C463.599 204.198 464.688 197.207 469.979 196.998Z" fill="white"/>
<path d="M237.03 217.169H233.047L217.208 148.945L222.978 148.647L237.03 217.169Z" fill="#1F1A15"/>
<path d="M260.615 0.9095C260.615 0.9095 246.964 -1.42397 242.187 8.00081C237.41 17.4246 237.87 38.7355 244.365 44.2569C250.861 49.7792 249.772 63.9099 255.468 68.0811C261.154 72.2624 275.655 74.1391 275.655 64.3176C275.655 64.3176 268.589 65.5088 266.801 59.3919C266.801 59.3919 276.934 65.8766 281.891 58.6174C286.847 51.3682 276.204 48.9648 276.204 48.9648C276.204 48.9648 280.392 51.0204 274.146 49.9471C267.91 48.8648 271.977 47.3059 271.977 42.0334C271.977 36.7598 275.845 40.4844 274.745 30.7918C273.636 21.0992 265.262 0.571724 260.615 0.9095Z" fill="#0E1B29"/>
<path d="M227.675 208.936L226.344 218.172C226.344 218.172 223.881 225.153 223.881 226.186C223.881 226.861 225.043 232.363 228.122 233.296C229.701 233.773 236.176 226.712 237.04 223.515C238.043 219.781 235.58 208.122 235.58 208.122L227.675 208.936Z" fill="#FC7575"/>
<path d="M248.927 207.298C248.927 207.298 247.169 220.843 247.169 222.899C247.169 224.954 246.891 227.894 248.043 229.056C249.205 230.218 259.602 226.802 259.602 223.107C259.602 219.403 257.348 207.298 257.348 207.298H248.927Z" fill="#FC7575"/>
<path d="M271.38 86.153C271.38 76.9075 271.002 46.8176 271.002 46.8176C271.002 46.8176 265.531 43.1035 254.577 43.1035C251.062 43.1035 247.824 42.5077 244.319 43.1432C236.92 44.4839 230.197 47.6518 230.197 47.6518C230.197 47.6518 232.471 76.0436 228.916 95.4183C228.291 98.8444 230.972 101.992 234.448 101.992H269.046C271.38 101.992 273.157 99.8871 272.77 97.5832C271.956 92.6775 271.38 88.5562 271.38 86.153Z" fill="#FFDA88"/>
<path d="M232.415 101.384C226.823 105.734 225.619 107.224 224.017 109.19C211.559 124.483 215.151 145.248 220.813 144.463C226.474 143.688 238.176 141.663 247.241 143.55C256.306 145.436 276.694 144.87 278.585 137.512C279.838 132.607 273.132 115.535 269.51 101.99L232.415 101.384Z" fill="#464A7F"/>
<path d="M251.409 120.513L247.169 127.177C245.083 131.944 246.305 143.374 246.305 143.374L227.675 142.43L226.781 124.873L251.409 120.513Z" fill="#35385F"/>
<path d="M248.182 126.75C248.182 126.75 258.748 125.618 262.72 129.58C266.683 133.542 259.125 187.546 260.069 190.564C261.022 193.583 265.551 193.206 262.909 195.848C260.257 198.489 259.602 200.287 260.824 201.518C262.055 202.74 262.522 204.537 261.39 205.669C260.257 206.801 259.88 209.82 259.88 209.82H247.228C247.228 209.82 246.295 202.084 246.295 200.763C246.295 199.433 244.776 195.659 244.776 195.659C244.776 195.659 249.493 193.206 247.228 190.942C244.964 188.678 247.228 185.281 247.228 180.366C247.228 175.46 240.247 127.693 248.182 126.75Z" fill="#6B6E98"/>
<path d="M216.135 126.601C219.8 122.936 225.709 122.48 231.568 126.601C237.417 130.712 235.341 140.911 235.341 150.157C235.341 159.412 234.736 182.253 235.699 185.093C236.662 187.923 239.681 190.753 238.549 193.772C237.417 196.791 236.851 196.166 238.797 198.112C240.754 200.068 239.681 201.518 239.681 203.594C239.681 205.669 238.738 212.084 238.738 212.084H226.652C226.652 212.084 226.086 200.575 223.067 196.036C220.048 191.508 222.312 181.687 222.312 180.177C222.312 178.668 218.539 176.781 218.539 170.177C218.539 163.563 214.149 128.587 216.135 126.601Z" fill="#6B6E98"/>
<path d="M230.783 47.6519C230.783 47.6519 228.628 51.4057 225.609 59.9063C222.59 68.4069 227.675 102.072 227.675 107.732C227.675 113.402 234.775 120.513 234.775 120.513L240.813 113.72L236.851 89.1717L230.783 47.6519Z" fill="#FD5E5A"/>
<path d="M271.004 46.8186C271.004 46.8186 279.711 48.9636 282.359 61.0491C285.018 73.1246 287.187 101.447 286.357 104.843C285.518 108.25 263.618 118.757 263.618 118.757L261.779 115.043C261.779 115.043 278.381 100.692 278.381 98.617C278.381 96.5409 271.264 70.5528 271.264 70.5528L271.004 46.8186Z" fill="#FD5E5A"/>
<path d="M204 89.9267L208.906 124.773L270.079 122.599L268.867 87.6724L204 89.9267Z" fill="#241145"/>
<path d="M236.702 224.408C231.002 228.023 226.761 227.646 223.881 226.265C223.961 227.219 225.143 232.402 228.122 233.296C229.572 233.733 235.103 227.864 236.702 224.408Z" fill="#ED1E79"/>
<path d="M259.602 223.107C259.602 222.283 259.493 221.042 259.314 219.622C256.027 222.581 251.628 224.527 247.387 220.178C247.248 221.459 247.169 222.452 247.169 222.899C247.169 224.954 246.891 227.894 248.043 229.056C249.205 230.218 259.602 226.802 259.602 223.107Z" fill="#ED1E79"/>
<path d="M260.784 29.1111C260.784 29.1111 260.307 30.1538 259.582 31.7924C257.09 37.4529 258.679 46.1423 258.808 47.6517C259.056 50.6806 257.437 56.8972 257.437 56.8972C257.437 56.8972 245.57 48.5951 244.895 43.1432L251.33 23.4407L260.784 29.1111Z" fill="#FC7575"/>
<path d="M251.33 23.4407L260.784 29.1112C260.784 29.1112 260.307 30.1539 259.582 31.7925C256.265 30.8689 251.181 29.1906 250.079 27.274L251.33 23.4407Z" fill="#FD5E5A"/>
<path d="M253.614 7.3725L267.894 15.2475C267.894 15.2475 270.854 15.3071 270.854 12.0101C270.854 8.71311 267.219 5.48568 263.515 3.59886C259.811 1.71204 255.163 0.897705 255.163 0.897705L253.614 7.3725Z" fill="#0E1B29"/>
<path d="M258.798 3.79761C258.798 3.79761 264.319 4.74102 265.799 7.37266C267.278 9.99437 267.686 16.2507 269.165 17.7304C270.645 19.22 271.936 19.5378 271.936 19.5378C271.936 19.5378 272.333 20.223 270.853 20.9678C269.374 21.7027 270.486 22.517 271.41 22.517C272.333 22.517 271.559 24.2648 270.853 24.4634C270.853 24.4634 271.757 24.7315 271.588 25.6054C271.42 26.4893 270.983 26.6481 270.983 26.6481C270.983 26.6481 270.943 27.8001 271.41 28.8727C271.886 29.9551 270.734 33.1528 263.515 31.7327C263.515 31.7327 252.77 29.2103 252.134 26.1814C251.499 23.1526 246.722 12.1394 250.793 8.06781C254.865 3.99622 258.798 3.79761 258.798 3.79761Z" fill="#FC7575"/>
<path d="M253.822 0.729117C253.822 0.729117 255.501 -1.01875 262.234 0.897966C268.967 2.81468 270.575 10.4319 270.575 10.4319C270.575 10.4319 266.236 7.50219 263.515 7.50219C260.784 7.50219 254.617 6.46935 253.614 5.4663C252.621 4.46325 253.822 0.729117 253.822 0.729117Z" fill="#1B3753"/>
<path d="M254.706 0.282227C255.64 0.282227 261.598 6.8961 259.979 11.9409C258.361 16.9956 254.527 14.7413 252.104 16.082C249.681 17.4325 252.571 23.6591 252.134 26.1815C251.697 28.7039 244.895 43.1431 244.895 43.1431C244.895 43.1431 239.184 12.6261 242.65 6.96561C246.116 1.31504 254.706 0.282227 254.706 0.282227Z" fill="#1B3753"/>
<path d="M261.856 21.1868C261.856 21.9417 263.117 22.5476 264.677 22.5476C266.246 22.5476 267.507 21.9417 267.507 21.1868C267.507 20.432 266.246 19.8162 264.677 19.8162C263.117 19.8162 261.856 20.432 261.856 21.1868Z" fill="#FD5E5A"/>
<path d="M268.649 15.249C268.649 15.249 267.725 17.1047 263.942 17.0254L268.649 15.249Z" fill="#1B3753"/>
<path d="M267.507 14.3345C267.507 14.3345 266.107 13.4912 265.014 13.4912C263.932 13.4912 262.929 13.9377 262.929 14.3345C262.929 14.3345 264.12 13.769 265.064 13.9179C265.997 14.0568 266.444 14.781 266.822 14.781C267.189 14.781 267.507 14.3345 267.507 14.3345Z" fill="#1B3753"/>
<path d="M251.826 21.1367C251.826 21.1367 257.06 33.262 246.553 46.8172C236.037 60.3625 221.776 54.8808 219.85 49.3892C217.933 43.9075 224.656 42.0307 224.656 42.0307C224.656 42.0307 223.375 48.2372 226.781 47.9493C230.197 47.6513 231.379 46.847 229.999 40.1637C228.628 33.4904 233.594 36.1617 236.315 31.7922C239.046 27.4129 236.315 24.0762 236.315 18.9023C236.315 13.7384 242.65 6.96582 242.65 6.96582L251.826 21.1367Z" fill="#1B3753"/>
<path d="M252.839 16.688C252.839 16.688 250.893 12.4478 249.979 13.3614C249.076 14.265 248.619 20.5309 251.826 21.1366C255.034 21.7423 252.839 16.688 252.839 16.688Z" fill="#FC7575"/>
<path d="M252.7 17.2041C252.7 17.2041 251.697 14.9001 251.151 15.4364C250.605 15.9826 251.191 19.6272 251.926 19.6272C252.66 19.6272 252.879 18.3759 252.7 17.2041Z" fill="#FD5E5A"/>
<path d="M267.646 17.1649C267.646 17.5919 267.447 17.9495 267.209 17.9495C266.961 17.9495 266.762 17.5919 266.762 17.1649C266.762 16.7279 266.961 16.3804 267.209 16.3804C267.447 16.3804 267.646 16.7279 267.646 17.1649Z" fill="#1B3753"/>
<path d="M431.559 349.326C431.559 349.326 419.296 353.218 417.501 356.128C415.695 359.037 409.22 378.254 407.555 379.902C405.912 381.561 394.215 382.534 391.506 383.15L397.708 393.915C397.708 393.915 410.33 394.173 413.867 393.915C417.392 393.646 431.559 349.326 431.559 349.326Z" fill="#50284C"/>
<path d="M452.183 351.887C452.183 351.887 471.622 370.678 468.607 391.899C468.607 391.899 464.245 384.422 455.967 385.901C455.967 385.901 452.083 377.748 450.948 372.634C449.791 367.519 452.183 351.887 452.183 351.887Z" fill="#885E83"/>
<path d="M437.039 522.131H441.023L456.86 453.917L451.088 453.609L437.039 522.131Z" fill="#1F1A15"/>
<path d="M501.601 523.361H497.619L481.784 455.147L487.552 454.84L501.601 523.361Z" fill="#1F1A15"/>
<path d="M395.122 516.004H391.147L375.31 447.781L381.076 447.482L395.122 516.004Z" fill="#1F1A15"/>
<path d="M342.278 520.632H346.261L362.101 452.418L356.33 452.111L342.278 520.632Z" fill="#1F1A15"/>
<path d="M345.226 401.087V451.266C345.226 455.228 349.006 458.437 353.674 458.437H483.241C487.909 458.437 491.678 455.228 491.678 451.266V401.087C491.678 397.124 487.909 393.916 483.241 393.916H353.674C349.006 393.916 345.226 397.124 345.226 401.087Z" fill="#450000"/>
<path d="M353.674 393.916C358.332 393.916 362.101 397.124 362.101 401.087V432.447C362.101 436.41 365.881 439.618 370.538 439.618H421.861C426.338 439.618 429.994 436.658 430.276 432.904C430.298 389.299 430.287 404.343 430.287 401.087C430.287 397.124 434.067 393.916 438.724 393.916H483.241C487.909 393.916 491.678 397.124 491.678 401.087V451.266C491.678 455.228 487.909 458.437 483.241 458.437H353.674C349.006 458.437 345.226 455.228 345.226 451.266V401.087C345.226 397.124 349.006 393.916 353.674 393.916Z" fill="url(#paint0_linear)"/>
<path d="M329.824 501.028C329.824 501.028 328.573 501.962 328.316 504.157C328.131 505.745 328.911 508.258 328.911 510.353C328.911 515.329 327.773 516.858 327.773 516.858C327.773 516.858 298.294 516.669 298.294 515.329C298.294 513.988 309.197 506.331 313.608 506.331C318.008 506.331 321.454 496.192 321.454 496.192L328.911 499.45L329.824 501.028Z" fill="#2F3453"/>
<path d="M330.346 519.687C330.346 519.687 323.374 519.568 318.497 519.489C313.609 519.399 305.816 519.856 303.383 519.816C300.939 519.777 292.201 513.868 292.817 512.002C293.433 510.125 301.442 510.73 305.662 508.694C309.882 506.649 317.604 500.025 318.692 501.157C319.77 502.289 326.947 502.716 328.323 504.156C329.689 505.586 331.588 518.476 330.346 519.687Z" fill="#3A758D"/>
<path d="M328.659 516.44C309.245 513.034 314.698 519.06 295.746 513.421C300.348 515.377 307.165 517.352 312.105 516.469C314.79 515.983 317.578 516.033 320.346 516.062C323.103 516.112 325.881 516.271 328.659 516.44Z" fill="#ACFCDD"/>
<path d="M315.655 510.988C315.38 511.305 314.902 511.336 314.597 511.067C313.509 510.094 311.098 508.177 308.779 506.847C309.236 506.549 309.704 506.24 310.172 505.923C312.949 507.601 315.411 509.776 315.584 509.926C315.889 510.203 315.919 510.679 315.655 510.988Z" fill="#ACFCDD"/>
<path d="M316.812 507.9C316.446 508.098 315.988 507.969 315.805 507.602C315.784 507.562 314.776 505.725 313.056 503.927C313.494 503.629 313.911 503.342 314.329 503.073C316.049 504.92 317.047 506.738 317.108 506.877C317.311 507.244 317.169 507.701 316.812 507.9Z" fill="#ACFCDD"/>
<path d="M411.217 413.896L399.359 412.357C399.359 412.357 357.013 390.002 349.939 398.196C343.983 405.097 344.873 407.342 352.348 414.8C359.812 422.268 373.19 429.626 373.19 429.626L383.28 433.033L362.948 414.145L392.459 426.906H426.396L411.217 413.896Z" fill="#202857"/>
<path d="M435.328 426.907C435.328 426.907 435.557 433.868 431.5 437.929C427.444 441.99 377.528 437.77 377.528 437.77L334.658 504.991L318.201 499.231C318.201 499.231 350.82 435.436 362.598 426.907C374.387 418.375 413.997 417.641 413.997 417.641L435.328 426.907Z" fill="#3F50AE"/>
<path d="M331.296 501.267L330.423 500.78C330.423 500.78 331.05 499.678 332.139 497.742L333.013 498.229C331.923 500.165 331.296 501.267 331.296 501.267Z" fill="#9CABFC"/>
<path d="M381.186 433.539C377.547 433.36 375.316 433.34 374.233 433.489L374.103 432.496C375.262 432.338 377.493 432.357 381.23 432.546L381.186 433.539ZM395.224 434.482L393.816 434.383C391.877 434.234 389.992 434.105 388.194 433.975L388.259 432.983C390.057 433.112 391.953 433.241 393.881 433.38L395.289 433.479L395.224 434.482ZM409.272 435.406C407.008 435.287 404.636 435.138 402.242 434.969L402.318 433.975C404.701 434.135 407.073 434.283 409.337 434.413L409.272 435.406ZM419.258 435.743C418.337 435.743 417.363 435.723 416.334 435.704L416.355 434.701C419.193 434.77 421.63 434.74 423.341 434.611L423.417 435.604C422.291 435.694 420.894 435.743 419.258 435.743ZM365.611 443.916L364.777 443.361C366.315 441.076 367.691 439.13 368.86 437.57L369.651 438.167C368.492 439.716 367.127 441.643 365.611 443.916ZM358.018 455.764L357.163 455.237C358.441 453.172 359.697 451.166 360.91 449.269L361.755 449.805C360.542 451.702 359.286 453.698 358.018 455.764ZM350.696 467.79L349.841 467.284C351.043 465.257 352.267 463.242 353.48 461.245L354.325 461.762C353.123 463.758 351.91 465.774 350.696 467.79ZM343.548 479.925L342.681 479.419C343.829 477.452 345.021 475.407 346.245 473.342L347.101 473.848C345.877 475.913 344.685 477.949 343.548 479.925ZM336.497 492.12L335.63 491.624C336.681 489.787 337.861 487.731 339.15 485.516L340.006 486.013C338.728 488.227 337.547 490.283 336.497 492.12Z" fill="#9CABFC"/>
<path d="M430.042 433.271L429.574 432.377C431.872 431.186 432.558 430.719 432.569 430.709L433.146 431.524C433.113 431.543 432.416 432.03 430.042 433.271Z" fill="#9CABFC"/>
<path d="M379.838 424.622C379.838 424.622 384.491 432.109 384.491 432.943C384.491 433.778 385.912 437.352 384.491 438.773C383.081 440.183 353.197 430.778 353.197 430.778C353.197 430.778 362.526 428.455 366.522 428.455C370.509 428.455 373.095 425.207 371.685 423.787C370.265 422.377 379.838 424.622 379.838 424.622Z" fill="#095270"/>
<path d="M383.807 441.602C383.807 441.602 381.6 442.595 372.521 438.761C363.452 434.937 348.114 435.037 348.04 431.6C347.977 428.165 359.177 427.361 365.764 428.95C372.362 430.539 380.54 433.021 383.69 436.06C386.851 439.089 383.807 441.602 383.807 441.602Z" fill="#653870"/>
<path d="M348.031 431.603C347.457 427.381 363.909 424.413 379.947 432.764C386.568 436.33 386.323 439.776 383.794 441.603C390.266 434.253 363.835 429.189 357.979 428.951C355.29 428.892 348.254 428.941 348.031 431.603Z" fill="#CDFDEB"/>
<path d="M438.78 345.375C438.78 345.375 450.938 349.377 452.941 352.814C461.149 366.885 455.087 427.8 435.329 434.949C425.339 438.565 399.353 412.357 399.353 412.357C399.353 412.357 418.403 396.945 419.642 373.32C420.804 350.788 438.78 345.375 438.78 345.375Z" fill="#6A3565"/>
<path d="M399.349 412.356C409.553 404.641 418.02 392.247 420.347 378.076C420.959 373.09 420.249 353.627 438.779 345.374C432.256 347.252 426.433 351.849 422.926 357.877C414.797 371.661 423.177 381.582 405.948 404.72C403.948 407.421 401.752 409.964 399.349 412.356Z" fill="#EDEEFF"/>
<path d="M353.198 398.145C353.198 398.145 371.364 409.526 376.777 417.143C382.179 424.759 384.552 429 384.552 429L364.066 425.971C364.066 425.971 347.7 415.623 345.846 409.278C343.982 402.943 349.67 395.841 353.198 398.145Z" fill="#546BE8"/>
<path d="M353.673 400.965C352.194 399.803 351.307 399.128 351.297 399.128L351.899 398.333C351.899 398.333 352.807 399.009 354.296 400.18L353.673 400.965ZM358.32 404.748C357.496 404.064 356.725 403.418 356.007 402.842L356.641 402.068C357.359 402.653 358.141 403.288 358.965 403.985L358.32 404.748ZM362.851 408.652C362.091 407.976 361.33 407.311 360.602 406.685L361.256 405.931C361.985 406.566 362.746 407.222 363.517 407.907L362.851 408.652ZM367.256 412.713C366.527 412.018 365.809 411.333 365.069 410.667L365.756 409.932C366.474 410.608 367.213 411.293 367.953 411.988L367.256 412.713ZM371.459 416.954C370.794 416.239 370.097 415.514 369.389 414.809L370.097 414.103C370.804 414.818 371.512 415.544 372.188 416.268L371.459 416.954ZM375.357 421.463C374.786 420.728 374.142 419.963 373.455 419.169L374.216 418.513C374.913 419.318 375.568 420.101 376.138 420.847L375.357 421.463ZM378.631 426.368C378.219 425.573 377.712 424.73 377.11 423.845L377.944 423.29C378.557 424.193 379.095 425.077 379.518 425.902L378.631 426.368Z" fill="#98A6F1"/>
<path d="M437.894 325.442L433.041 346.814C432.777 347.975 433.579 352.941 434.37 353.844C436.181 355.939 440.321 357.767 444.109 355.88C447.403 354.242 447.633 327.28 447.633 327.28C447.633 327.28 442.121 325.422 437.894 325.442Z" fill="#FC7575"/>
<path d="M447.622 327.281C447.622 327.281 447.633 328.166 447.611 329.635C447.007 331.602 445.964 334.61 444.745 336.746C443.109 339.606 437.883 343.826 433.831 343.309L437.883 325.444C442.11 325.425 447.622 327.281 447.622 327.281Z" fill="#FD5E5A"/>
<path d="M452.841 301.353C454.209 304.491 454.981 308.612 451.86 309.972C455.289 308.969 455.047 304.302 454.021 300.896L452.841 301.353Z" fill="#132759"/>
<path d="M437.726 309.474C437.726 309.474 433.133 309.116 431.492 314.668C429.862 320.219 429.366 336.436 433.541 338.79C437.715 341.143 444.081 336.813 445.81 333.934C447.617 330.944 448.85 325.91 448.85 325.91C448.85 325.91 453.234 305.541 437.726 309.474Z" fill="#FC7575"/>
<path d="M451.708 334.619C451.708 334.619 450.404 335.652 449.553 333.785C449.553 333.785 447.587 329.465 450.515 327.091C453.442 324.708 457.784 321.52 458.215 316.177C458.657 310.835 452.382 309.603 452.382 309.603C452.382 309.603 453 301.41 443.676 302.284C443.676 302.284 442.384 300.218 437.214 299.394C432.043 298.58 432.695 301.629 429.845 300.556C426.984 299.484 427.05 297.091 428.464 296.446C428.464 296.446 422.94 297.736 421.449 301.669C419.969 305.602 427.724 307.398 427.724 307.398C427.724 307.398 421.272 306.942 425.503 310.586C429.757 314.221 432.088 314.658 435.623 312.394C439.158 310.129 440.87 309.762 442.295 310.745C443.721 311.729 442.461 315.075 444.726 315.929C446.991 316.783 447.234 323.277 447.234 323.277C447.234 323.277 449.178 323.039 448.195 327.359C447.211 331.689 446.085 334.241 448.648 335.204C451.211 336.167 451.708 334.619 451.708 334.619Z" fill="#132759"/>
<path d="M449.525 318.519C450.936 318.629 454.043 320.327 450.385 324.121C446.738 327.915 445.261 322.859 445.955 321.002C446.66 319.155 448.446 318.43 449.525 318.519Z" fill="#FC7575"/>
<path d="M435.098 322.077C434.88 324.758 434.356 327.29 434.4 329.852C435 329.98 435.589 330.13 436.189 330.319C435.087 330.448 434.225 330.438 433.811 330.448C433.811 330.309 433.462 326.763 435.098 322.077Z" fill="#132759"/>
<path d="M436.308 321.532C436.45 321.591 436.626 321.522 436.702 321.373C436.724 321.333 437.228 320.33 438.686 320.061C439.935 319.823 442.642 321.134 443.584 321.651C443.738 321.741 443.924 321.681 444.011 321.532C444.088 321.383 444.033 321.184 443.891 321.105C443.738 321.026 440.308 319.109 438.565 319.435C436.79 319.774 436.155 321.045 436.133 321.095C436.056 321.254 436.122 321.442 436.286 321.522L436.308 321.532Z" fill="#132759"/>
<path d="M439.151 332.237C439.151 332.237 434.365 332.803 431.917 331.671C431.917 331.671 431.972 333.796 433.37 334.66C434.769 335.523 438.026 335.226 439.151 332.237Z" fill="white"/>
<path d="M450.746 321.62C450.746 321.62 449.866 324.648 448.359 324.31C446.852 323.974 446.961 321.6 448.216 320.667C449.47 319.733 451.065 320.766 450.746 321.62Z" fill="#FD5E5A"/>
<path d="M437.105 322.971C437.062 323.587 437.411 324.113 437.892 324.152C438.384 324.192 438.81 323.725 438.854 323.109C438.908 322.494 438.559 321.968 438.078 321.929C437.586 321.899 437.149 322.356 437.105 322.971Z" fill="#132759"/>
<path d="M430.869 322.156C430.825 322.771 431.174 323.298 431.664 323.337C432.154 323.377 432.578 322.91 432.622 322.305C432.676 321.689 432.328 321.154 431.838 321.123C431.359 321.084 430.923 321.551 430.869 322.156Z" fill="#132759"/>
<path d="M433.479 320.836C433.567 320.985 433.512 321.183 433.371 321.263L433.098 321.292L432.946 321.153C432.695 320.726 431.889 319.575 431.192 319.307C431.018 319.247 430.843 319.187 430.669 319.148C430.702 318.93 430.712 318.721 430.745 318.513C430.963 318.572 431.192 318.632 431.41 318.721C432.466 319.119 433.436 320.766 433.479 320.836Z" fill="#132759"/>
<path d="M430.276 432.904C430.287 410.015 430.287 403.281 430.287 401.583V401.562V401.465V401.444V401.434V401.315V401.276V401.175V401.165V401.126V401.087C430.287 397.124 434.067 393.916 438.724 393.916H483.241C487.909 393.916 491.678 397.124 491.678 401.087V451.266C491.678 455.228 487.909 458.437 483.241 458.437H422.299L421.861 439.618C426.338 439.618 429.994 436.658 430.276 432.904Z" fill="#FABF44"/>
<path d="M391.498 383.152L367.06 389.209C367.06 389.209 360.687 393.807 357.836 394.711C354.975 395.625 351.473 398.782 352.156 399.755C352.85 400.718 356.437 397.431 357.025 397.53C357.612 397.63 354.911 401.523 354.473 404.075C354.035 406.637 353.16 409.11 354.622 408.911C356.085 408.713 357.142 402.962 357.142 402.962C357.142 402.962 359.395 398.613 359.758 399.12C360.11 399.636 358.263 402.625 358.263 402.625C358.263 402.625 357.815 405.852 357.622 406.985C357.473 407.829 358.252 410.372 358.914 409.437C359.299 408.891 359.117 406.796 359.576 405.594C360.505 403.142 362.021 401.196 362.021 401.196C362.021 401.196 360.398 408.544 361.412 408.722C362.437 408.902 363.494 402.803 363.494 402.803C363.494 402.803 365.993 397.73 367.082 397.272C368.17 396.826 371.171 394.889 373.477 394.085C375.793 393.28 384.911 394.681 389.181 394.73C393.452 394.79 398.149 393.915 398.149 393.915C398.149 393.915 395.576 382.079 391.498 383.152Z" fill="#FD5E5A"/>
<path d="M463.133 316.337C463.277 316.337 463.422 316.248 463.489 316.108C471.768 297.419 449.802 280.984 449.568 280.825C449.401 280.696 449.167 280.736 449.034 280.905C448.911 281.083 448.945 281.321 449.112 281.45C449.334 281.61 470.811 297.677 462.777 315.791C462.688 315.989 462.777 316.218 462.977 316.307L463.133 316.337Z" fill="#411AC0"/>
<path d="M419.354 424.352H381.143V420.647L419.354 421.929V424.352Z" fill="#0F1D5B"/>
<path d="M353.777 375.295L381.137 420.649V424.353L351.736 375.295H353.777Z" fill="url(#paint1_linear)"/>
<path d="M325.138 385.037L351.737 375.295L381.137 424.353L348.523 423.439L325.138 385.037Z" fill="#0F1D5B"/>
<path d="M316.404 329.843H363.308C365.437 329.843 367.167 332.614 367.167 336.05V350.489C367.167 353.925 365.437 356.706 363.308 356.706H361.18L367.167 376.368L348.45 356.706H316.404C314.265 356.706 312.535 353.925 312.535 350.489V336.05C312.535 332.614 314.265 329.843 316.404 329.843Z" fill="#ED4790"/>
<path d="M482.621 65.3987C472.147 65.3987 463.653 69.0532 463.653 73.5719C463.653 75.8262 465.768 77.8621 469.206 79.3416L467.453 87.1868L473.9 80.8312C476.513 81.4069 479.488 81.735 482.621 81.735C493.095 81.735 501.601 78.0804 501.601 73.5719C501.601 69.0532 493.095 65.3987 482.621 65.3987Z" fill="white"/>
<path d="M490.081 75.6438C490.081 76.5086 490.779 77.2034 491.646 77.2034C492.502 77.2034 493.2 76.5086 493.2 75.6438C493.2 74.7802 492.502 74.0854 491.646 74.0854C490.779 74.0854 490.081 74.7802 490.081 75.6438Z" fill="#99D7FF"/>
<path d="M485.949 75.6464C485.949 76.5103 486.645 77.2046 487.51 77.2046C488.364 77.2046 489.072 76.5103 489.072 75.6464C489.072 74.7825 488.364 74.0872 487.51 74.0872C486.645 74.0872 485.949 74.7825 485.949 75.6464Z" fill="#99D7FF"/>
<path d="M481.828 75.6474C481.828 76.5116 482.523 77.2065 483.386 77.2065C484.238 77.2065 484.944 76.5116 484.944 75.6474C484.944 74.7843 484.238 74.0894 483.386 74.0894C482.523 74.0894 481.828 74.7843 481.828 75.6474Z" fill="#99D7FF"/>
<defs>
<linearGradient id="paint0_linear" x1="565.849" y1="379.238" x2="742.704" y2="411.063" gradientUnits="userSpaceOnUse">
<stop stop-color="#F57939"/>
<stop offset="1" stop-color="#FFFB4D"/>
</linearGradient>
<linearGradient id="paint1_linear" x1="492.384" y1="382.877" x2="461.085" y2="382.877" gradientUnits="userSpaceOnUse">
<stop stop-color="#A9A5DE"/>
<stop offset="1" stop-color="#BDB9F2"/>
</linearGradient>
</defs>
</svg>
