<svg width="377" height="377" viewBox="0 0 377 377" fill="none" xmlns="http://www.w3.org/2000/svg">
<circle cx="375.5" cy="239.5" r="1.5" transform="rotate(-180 375.5 239.5)" fill="#EE1B3B"/>
<circle cx="375.5" cy="205.5" r="1.5" transform="rotate(-180 375.5 205.5)" fill="#EE1B3B"/>
<circle cx="375.5" cy="171.5" r="1.5" transform="rotate(-180 375.5 171.5)" fill="#EE1B3B"/>
<circle cx="375.5" cy="137.5" r="1.5" transform="rotate(-180 375.5 137.5)" fill="#EE1B3B"/>
<circle cx="341.5" cy="239.5" r="1.5" transform="rotate(-180 341.5 239.5)" fill="#EE1B3B"/>
<circle cx="341.5" cy="205.5" r="1.5" transform="rotate(-180 341.5 205.5)" fill="#EE1B3B"/>
<circle cx="341.5" cy="171.5" r="1.5" transform="rotate(-180 341.5 171.5)" fill="#EE1B3B"/>
<circle cx="341.5" cy="137.5" r="1.5" transform="rotate(-180 341.5 137.5)" fill="#EE1B3B"/>
<circle cx="307.5" cy="239.5" r="1.5" transform="rotate(-180 307.5 239.5)" fill="#EE1B3B"/>
<circle cx="307.5" cy="205.5" r="1.5" transform="rotate(-180 307.5 205.5)" fill="#EE1B3B"/>
<circle cx="307.5" cy="171.5" r="1.5" transform="rotate(-180 307.5 171.5)" fill="#EE1B3B"/>
<circle cx="307.5" cy="137.5" r="1.5" transform="rotate(-180 307.5 137.5)" fill="#EE1B3B"/>
<circle cx="273.5" cy="239.5" r="1.5" transform="rotate(-180 273.5 239.5)" fill="#EE1B3B"/>
<circle cx="273.5" cy="205.5" r="1.5" transform="rotate(-180 273.5 205.5)" fill="#EE1B3B"/>
<circle cx="273.5" cy="171.5" r="1.5" transform="rotate(-180 273.5 171.5)" fill="#EE1B3B"/>
<circle cx="273.5" cy="137.5" r="1.5" transform="rotate(-180 273.5 137.5)" fill="#EE1B3B"/>
<circle cx="239.5" cy="239.5" r="1.5" transform="rotate(-180 239.5 239.5)" fill="#EE1B3B"/>
<circle cx="239.5" cy="205.5" r="1.5" transform="rotate(-180 239.5 205.5)" fill="#EE1B3B"/>
<circle cx="239.5" cy="171.5" r="1.5" transform="rotate(-180 239.5 171.5)" fill="#EE1B3B"/>
<circle cx="239.5" cy="137.5" r="1.5" transform="rotate(-180 239.5 137.5)" fill="#EE1B3B"/>
<circle cx="205.5" cy="239.5" r="1.5" transform="rotate(-180 205.5 239.5)" fill="#EE1B3B"/>
<circle cx="205.5" cy="205.5" r="1.5" transform="rotate(-180 205.5 205.5)" fill="#EE1B3B"/>
<circle cx="205.5" cy="171.5" r="1.5" transform="rotate(-180 205.5 171.5)" fill="#EE1B3B"/>
<circle cx="205.5" cy="137.5" r="1.5" transform="rotate(-180 205.5 137.5)" fill="#EE1B3B"/>
<circle cx="171.5" cy="239.5" r="1.5" transform="rotate(-180 171.5 239.5)" fill="#EE1B3B"/>
<circle cx="171.5" cy="205.5" r="1.5" transform="rotate(-180 171.5 205.5)" fill="#EE1B3B"/>
<circle cx="171.5" cy="171.5" r="1.5" transform="rotate(-180 171.5 171.5)" fill="#EE1B3B"/>
<circle cx="171.5" cy="137.5" r="1.5" transform="rotate(-180 171.5 137.5)" fill="#EE1B3B"/>
<circle cx="137.5" cy="239.5" r="1.5" transform="rotate(-180 137.5 239.5)" fill="#EE1B3B"/>
<circle cx="137.5" cy="205.5" r="1.5" transform="rotate(-180 137.5 205.5)" fill="#EE1B3B"/>
<circle cx="137.5" cy="171.5" r="1.5" transform="rotate(-180 137.5 171.5)" fill="#EE1B3B"/>
<circle cx="137.5" cy="137.5" r="1.5" transform="rotate(-180 137.5 137.5)" fill="#EE1B3B"/>
<circle cx="375.5" cy="103.5" r="1.5" transform="rotate(-180 375.5 103.5)" fill="#EE1B3B"/>
<circle cx="375.5" cy="69.5" r="1.5" transform="rotate(-180 375.5 69.5)" fill="#EE1B3B"/>
<circle cx="375.5" cy="35.5" r="1.5" transform="rotate(-180 375.5 35.5)" fill="#FD5E5A" fill-opacity="0.6"/>
<circle cx="375.5" cy="1.5" r="1.5" transform="rotate(-180 375.5 1.5)" fill="#FD5E5A" fill-opacity="0.35"/>
<circle cx="341.5" cy="103.5" r="1.5" transform="rotate(-180 341.5 103.5)" fill="#EE1B3B"/>
<circle cx="341.5" cy="69.5" r="1.5" transform="rotate(-180 341.5 69.5)" fill="#EE1B3B"/>
<circle cx="341.5" cy="35.5" r="1.5" transform="rotate(-180 341.5 35.5)" fill="#FD5E5A" fill-opacity="0.6"/>
<circle cx="341.5" cy="1.5" r="1.5" transform="rotate(-180 341.5 1.5)" fill="#FD5E5A" fill-opacity="0.35"/>
<circle cx="307.5" cy="103.5" r="1.5" transform="rotate(-180 307.5 103.5)" fill="#EE1B3B"/>
<circle cx="307.5" cy="69.5" r="1.5" transform="rotate(-180 307.5 69.5)" fill="#EE1B3B"/>
<circle cx="307.5" cy="35.5" r="1.5" transform="rotate(-180 307.5 35.5)" fill="#FD5E5A" fill-opacity="0.6"/>
<circle cx="307.5" cy="1.5" r="1.5" transform="rotate(-180 307.5 1.5)" fill="#FD5E5A" fill-opacity="0.35"/>
<circle cx="273.5" cy="103.5" r="1.5" transform="rotate(-180 273.5 103.5)" fill="#EE1B3B"/>
<circle cx="273.5" cy="69.5" r="1.5" transform="rotate(-180 273.5 69.5)" fill="#EE1B3B"/>
<circle cx="273.5" cy="35.5" r="1.5" transform="rotate(-180 273.5 35.5)" fill="#FD5E5A" fill-opacity="0.6"/>
<circle cx="273.5" cy="1.5" r="1.5" transform="rotate(-180 273.5 1.5)" fill="#FD5E5A" fill-opacity="0.35"/>
<circle cx="239.5" cy="103.5" r="1.5" transform="rotate(-180 239.5 103.5)" fill="#EE1B3B"/>
<circle cx="239.5" cy="69.5" r="1.5" transform="rotate(-180 239.5 69.5)" fill="#EE1B3B"/>
<circle cx="239.5" cy="35.5" r="1.5" transform="rotate(-180 239.5 35.5)" fill="#FD5E5A" fill-opacity="0.6"/>
<circle cx="239.5" cy="1.5" r="1.5" transform="rotate(-180 239.5 1.5)" fill="#FD5E5A" fill-opacity="0.35"/>
<circle cx="205.5" cy="103.5" r="1.5" transform="rotate(-180 205.5 103.5)" fill="#EE1B3B"/>
<circle cx="205.5" cy="69.5" r="1.5" transform="rotate(-180 205.5 69.5)" fill="#EE1B3B"/>
<circle cx="205.5" cy="35.5" r="1.5" transform="rotate(-180 205.5 35.5)" fill="#FD5E5A" fill-opacity="0.6"/>
<circle cx="205.5" cy="1.5" r="1.5" transform="rotate(-180 205.5 1.5)" fill="#FD5E5A" fill-opacity="0.35"/>
<circle cx="171.5" cy="103.5" r="1.5" transform="rotate(-180 171.5 103.5)" fill="#EE1B3B"/>
<circle cx="171.5" cy="69.5" r="1.5" transform="rotate(-180 171.5 69.5)" fill="#EE1B3B"/>
<circle cx="171.5" cy="35.5" r="1.5" transform="rotate(-180 171.5 35.5)" fill="#FD5E5A" fill-opacity="0.6"/>
<circle cx="171.5" cy="1.5" r="1.5" transform="rotate(-180 171.5 1.5)" fill="#FD5E5A" fill-opacity="0.35"/>
<circle cx="137.5" cy="103.5" r="1.5" transform="rotate(-180 137.5 103.5)" fill="#EE1B3B"/>
<circle cx="137.5" cy="69.5" r="1.5" transform="rotate(-180 137.5 69.5)" fill="#EE1B3B"/>
<circle cx="137.5" cy="35.5" r="1.5" transform="rotate(-180 137.5 35.5)" fill="#FD5E5A" fill-opacity="0.6"/>
<circle cx="137.5" cy="1.5" r="1.5" transform="rotate(-180 137.5 1.5)" fill="#FD5E5A" fill-opacity="0.35"/>
<circle cx="103.5" cy="2.5" r="1.5" transform="rotate(90 103.5 2.5)" fill="#FD5E5A" fill-opacity="0.35"/>
<circle cx="69.5" cy="2.5" r="1.5" transform="rotate(90 69.5 2.5)" fill="#FD5E5A" fill-opacity="0.35"/>
<circle cx="35.5" cy="2.5" r="1.5" transform="rotate(90 35.5 2.5)" fill="#FD5E5A" fill-opacity="0.35"/>
<circle cx="1.5" cy="2.5" r="1.5" transform="rotate(90 1.5 2.5)" fill="#FD5E5A" fill-opacity="0.35"/>
<circle cx="103.5" cy="36.5" r="1.5" transform="rotate(90 103.5 36.5)" fill="#FD5E5A" fill-opacity="0.6"/>
<circle cx="69.5" cy="36.5" r="1.5" transform="rotate(90 69.5 36.5)" fill="#FD5E5A" fill-opacity="0.6"/>
<circle cx="35.5" cy="36.5" r="1.5" transform="rotate(90 35.5 36.5)" fill="#FD5E5A" fill-opacity="0.6"/>
<circle cx="1.5" cy="36.5" r="1.5" transform="rotate(90 1.5 36.5)" fill="#FD5E5A" fill-opacity="0.35"/>
<circle cx="103.5" cy="70.5" r="1.5" transform="rotate(90 103.5 70.5)" fill="#EE1B3B"/>
<circle cx="69.5" cy="70.5" r="1.5" transform="rotate(90 69.5 70.5)" fill="#EE1B3B"/>
<circle cx="35.5" cy="70.5" r="1.5" transform="rotate(90 35.5 70.5)" fill="#FD5E5A" fill-opacity="0.6"/>
<circle cx="1.5" cy="70.5" r="1.5" transform="rotate(90 1.5 70.5)" fill="#FD5E5A" fill-opacity="0.35"/>
<circle cx="103.5" cy="104.5" r="1.5" transform="rotate(90 103.5 104.5)" fill="#EE1B3B"/>
<circle cx="69.5" cy="104.5" r="1.5" transform="rotate(90 69.5 104.5)" fill="#EE1B3B"/>
<circle cx="35.5" cy="104.5" r="1.5" transform="rotate(90 35.5 104.5)" fill="#FD5E5A" fill-opacity="0.6"/>
<circle cx="1.5" cy="104.5" r="1.5" transform="rotate(90 1.5 104.5)" fill="#FD5E5A" fill-opacity="0.35"/>
<circle cx="103.5" cy="138.5" r="1.5" transform="rotate(90 103.5 138.5)" fill="#EE1B3B"/>
<circle cx="69.5" cy="138.5" r="1.5" transform="rotate(90 69.5 138.5)" fill="#EE1B3B"/>
<circle cx="35.5" cy="138.5" r="1.5" transform="rotate(90 35.5 138.5)" fill="#FD5E5A" fill-opacity="0.6"/>
<circle cx="1.5" cy="138.5" r="1.5" transform="rotate(90 1.5 138.5)" fill="#FD5E5A" fill-opacity="0.35"/>
<circle cx="103.5" cy="172.5" r="1.5" transform="rotate(90 103.5 172.5)" fill="#EE1B3B"/>
<circle cx="69.5" cy="172.5" r="1.5" transform="rotate(90 69.5 172.5)" fill="#EE1B3B"/>
<circle cx="35.5" cy="172.5" r="1.5" transform="rotate(90 35.5 172.5)" fill="#FD5E5A" fill-opacity="0.6"/>
<circle cx="1.5" cy="172.5" r="1.5" transform="rotate(90 1.5 172.5)" fill="#FD5E5A" fill-opacity="0.35"/>
<circle cx="103.5" cy="206.5" r="1.5" transform="rotate(90 103.5 206.5)" fill="#EE1B3B"/>
<circle cx="69.5" cy="206.5" r="1.5" transform="rotate(90 69.5 206.5)" fill="#EE1B3B"/>
<circle cx="35.5" cy="206.5" r="1.5" transform="rotate(90 35.5 206.5)" fill="#FD5E5A" fill-opacity="0.6"/>
<circle cx="1.5" cy="206.5" r="1.5" transform="rotate(90 1.5 206.5)" fill="#FD5E5A" fill-opacity="0.35"/>
<circle cx="103.5" cy="240.5" r="1.5" transform="rotate(90 103.5 240.5)" fill="#EE1B3B"/>
<circle cx="69.5" cy="240.5" r="1.5" transform="rotate(90 69.5 240.5)" fill="#EE1B3B"/>
<circle cx="35.5" cy="240.5" r="1.5" transform="rotate(90 35.5 240.5)" fill="#FD5E5A" fill-opacity="0.6"/>
<circle cx="1.5" cy="240.5" r="1.5" transform="rotate(90 1.5 240.5)" fill="#FD5E5A" fill-opacity="0.35"/>
<circle cx="103.5" cy="273.5" r="1.5" transform="rotate(90 103.5 273.5)" fill="#EE1B3B"/>
<circle cx="69.5" cy="273.5" r="1.5" transform="rotate(90 69.5 273.5)" fill="#EE1B3B"/>
<circle cx="35.5" cy="273.5" r="1.5" transform="rotate(90 35.5 273.5)" fill="#FD5E5A" fill-opacity="0.6"/>
<circle cx="1.5" cy="273.5" r="1.5" transform="rotate(90 1.5 273.5)" fill="#FD5E5A" fill-opacity="0.35"/>
<circle cx="103.5" cy="307.5" r="1.5" transform="rotate(90 103.5 307.5)" fill="#EE1B3B"/>
<circle cx="69.5" cy="307.5" r="1.5" transform="rotate(90 69.5 307.5)" fill="#EE1B3B"/>
<circle cx="35.5" cy="307.5" r="1.5" transform="rotate(90 35.5 307.5)" fill="#FD5E5A" fill-opacity="0.6"/>
<circle cx="1.5" cy="307.5" r="1.5" transform="rotate(90 1.5 307.5)" fill="#FD5E5A" fill-opacity="0.35"/>
<circle cx="103.5" cy="341.5" r="1.5" transform="rotate(90 103.5 341.5)" fill="#FD5E5A" fill-opacity="0.6"/>
<circle cx="69.5" cy="341.5" r="1.5" transform="rotate(90 69.5 341.5)" fill="#FD5E5A" fill-opacity="0.6"/>
<circle cx="35.5" cy="341.5" r="1.5" transform="rotate(90 35.5 341.5)" fill="#FD5E5A" fill-opacity="0.6"/>
<circle cx="1.5" cy="341.5" r="1.5" transform="rotate(90 1.5 341.5)" fill="#FD5E5A" fill-opacity="0.35"/>
<circle cx="103.5" cy="375.5" r="1.5" transform="rotate(90 103.5 375.5)" fill="#FD5E5A" fill-opacity="0.35"/>
<circle cx="69.5" cy="375.5" r="1.5" transform="rotate(90 69.5 375.5)" fill="#FD5E5A" fill-opacity="0.35"/>
<circle cx="35.5" cy="375.5" r="1.5" transform="rotate(90 35.5 375.5)" fill="#FD5E5A" fill-opacity="0.35"/>
<circle cx="1.5" cy="375.5" r="1.5" transform="rotate(90 1.5 375.5)" fill="#FD5E5A" fill-opacity="0.35"/>
<circle cx="375.5" cy="375.5" r="1.5" transform="rotate(-180 375.5 375.5)" fill="#FD5E5A" fill-opacity="0.35"/>
<circle cx="375.5" cy="341.5" r="1.5" transform="rotate(-180 375.5 341.5)" fill="#FD5E5A" fill-opacity="0.6"/>
<circle cx="375.5" cy="307.5" r="1.5" transform="rotate(-180 375.5 307.5)" fill="#EE1B3B"/>
<circle cx="375.5" cy="273.5" r="1.5" transform="rotate(-180 375.5 273.5)" fill="#EE1B3B"/>
<circle cx="341.5" cy="375.5" r="1.5" transform="rotate(-180 341.5 375.5)" fill="#FD5E5A" fill-opacity="0.35"/>
<circle cx="341.5" cy="341.5" r="1.5" transform="rotate(-180 341.5 341.5)" fill="#FD5E5A" fill-opacity="0.6"/>
<circle cx="341.5" cy="307.5" r="1.5" transform="rotate(-180 341.5 307.5)" fill="#EE1B3B"/>
<circle cx="341.5" cy="273.5" r="1.5" transform="rotate(-180 341.5 273.5)" fill="#EE1B3B"/>
<circle cx="307.5" cy="375.5" r="1.5" transform="rotate(-180 307.5 375.5)" fill="#FD5E5A" fill-opacity="0.35"/>
<circle cx="307.5" cy="341.5" r="1.5" transform="rotate(-180 307.5 341.5)" fill="#FD5E5A" fill-opacity="0.6"/>
<circle cx="307.5" cy="307.5" r="1.5" transform="rotate(-180 307.5 307.5)" fill="#EE1B3B"/>
<circle cx="307.5" cy="273.5" r="1.5" transform="rotate(-180 307.5 273.5)" fill="#EE1B3B"/>
<circle cx="273.5" cy="375.5" r="1.5" transform="rotate(-180 273.5 375.5)" fill="#FD5E5A" fill-opacity="0.35"/>
<circle cx="273.5" cy="341.5" r="1.5" transform="rotate(-180 273.5 341.5)" fill="#FD5E5A" fill-opacity="0.6"/>
<circle cx="273.5" cy="307.5" r="1.5" transform="rotate(-180 273.5 307.5)" fill="#EE1B3B"/>
<circle cx="273.5" cy="273.5" r="1.5" transform="rotate(-180 273.5 273.5)" fill="#EE1B3B"/>
<circle cx="239.5" cy="375.5" r="1.5" transform="rotate(-180 239.5 375.5)" fill="#FD5E5A" fill-opacity="0.35"/>
<circle cx="239.5" cy="341.5" r="1.5" transform="rotate(-180 239.5 341.5)" fill="#FD5E5A" fill-opacity="0.6"/>
<circle cx="239.5" cy="307.5" r="1.5" transform="rotate(-180 239.5 307.5)" fill="#EE1B3B"/>
<circle cx="239.5" cy="273.5" r="1.5" transform="rotate(-180 239.5 273.5)" fill="#EE1B3B"/>
<circle cx="205.5" cy="375.5" r="1.5" transform="rotate(-180 205.5 375.5)" fill="#FD5E5A" fill-opacity="0.35"/>
<circle cx="205.5" cy="341.5" r="1.5" transform="rotate(-180 205.5 341.5)" fill="#FD5E5A" fill-opacity="0.6"/>
<circle cx="205.5" cy="307.5" r="1.5" transform="rotate(-180 205.5 307.5)" fill="#EE1B3B"/>
<circle cx="205.5" cy="273.5" r="1.5" transform="rotate(-180 205.5 273.5)" fill="#EE1B3B"/>
<circle cx="171.5" cy="375.5" r="1.5" transform="rotate(-180 171.5 375.5)" fill="#FD5E5A" fill-opacity="0.35"/>
<circle cx="171.5" cy="341.5" r="1.5" transform="rotate(-180 171.5 341.5)" fill="#FD5E5A" fill-opacity="0.6"/>
<circle cx="171.5" cy="307.5" r="1.5" transform="rotate(-180 171.5 307.5)" fill="#EE1B3B"/>
<circle cx="171.5" cy="273.5" r="1.5" transform="rotate(-180 171.5 273.5)" fill="#EE1B3B"/>
<circle cx="137.5" cy="375.5" r="1.5" transform="rotate(-180 137.5 375.5)" fill="#FD5E5A" fill-opacity="0.35"/>
<circle cx="137.5" cy="341.5" r="1.5" transform="rotate(-180 137.5 341.5)" fill="#FD5E5A" fill-opacity="0.6"/>
<circle cx="137.5" cy="307.5" r="1.5" transform="rotate(-180 137.5 307.5)" fill="#EE1B3B"/>
<circle cx="137.5" cy="273.5" r="1.5" transform="rotate(-180 137.5 273.5)" fill="#EE1B3B"/>
</svg>
