<svg width="307" height="342" viewBox="0 0 307 342" fill="none" xmlns="http://www.w3.org/2000/svg">
<circle cx="-0.5" cy="137.5" r="1.5" fill="#71A7DA"/>
<circle cx="-0.5" cy="171.5" r="1.5" fill="#71A7DA"/>
<circle cx="-0.5" cy="205.5" r="1.5" fill="#71A7DA"/>
<circle cx="-0.5" cy="239.5" r="1.5" fill="#71A7DA"/>
<circle cx="33.5" cy="137.5" r="1.5" fill="#71A7DA"/>
<circle cx="33.5" cy="171.5" r="1.5" fill="#71A7DA"/>
<circle cx="33.5" cy="205.5" r="1.5" fill="#71A7DA"/>
<circle cx="33.5" cy="239.5" r="1.5" fill="#71A7DA"/>
<circle cx="67.5" cy="137.5" r="1.5" fill="#71A7DA"/>
<circle cx="67.5" cy="171.5" r="1.5" fill="#71A7DA"/>
<circle cx="67.5" cy="205.5" r="1.5" fill="#71A7DA"/>
<circle cx="67.5" cy="239.5" r="1.5" fill="#71A7DA"/>
<circle cx="101.5" cy="137.5" r="1.5" fill="#71A7DA"/>
<circle cx="101.5" cy="171.5" r="1.5" fill="#71A7DA"/>
<circle cx="101.5" cy="205.5" r="1.5" fill="#71A7DA"/>
<circle cx="101.5" cy="239.5" r="1.5" fill="#71A7DA"/>
<circle cx="135.5" cy="137.5" r="1.5" fill="#71A7DA"/>
<circle cx="135.5" cy="171.5" r="1.5" fill="#71A7DA"/>
<circle cx="135.5" cy="205.5" r="1.5" fill="#71A7DA"/>
<circle cx="135.5" cy="239.5" r="1.5" fill="#71A7DA"/>
<circle cx="169.5" cy="137.5" r="1.5" fill="#71A7DA"/>
<circle cx="169.5" cy="171.5" r="1.5" fill="#71A7DA"/>
<circle cx="169.5" cy="205.5" r="1.5" fill="#71A7DA"/>
<circle cx="169.5" cy="239.5" r="1.5" fill="#71A7DA"/>
<circle cx="-0.5" cy="273.5" r="1.5" fill="#71A7DA"/>
<circle cx="-0.5" cy="307.5" r="1.5" fill="#71A7DA"/>
<circle cx="-0.5" cy="341.5" r="1.5" fill="#71A7DA" fill-opacity="0.6"/>
<circle cx="33.5" cy="273.5" r="1.5" fill="#71A7DA"/>
<circle cx="33.5" cy="307.5" r="1.5" fill="#71A7DA"/>
<circle cx="33.5" cy="341.5" r="1.5" fill="#71A7DA" fill-opacity="0.6"/>
<circle cx="67.5" cy="273.5" r="1.5" fill="#71A7DA"/>
<circle cx="67.5" cy="307.5" r="1.5" fill="#71A7DA"/>
<circle cx="67.5" cy="341.5" r="1.5" fill="#71A7DA" fill-opacity="0.6"/>
<circle cx="101.5" cy="273.5" r="1.5" fill="#71A7DA"/>
<circle cx="101.5" cy="307.5" r="1.5" fill="#71A7DA"/>
<circle cx="101.5" cy="341.5" r="1.5" fill="#71A7DA" fill-opacity="0.6"/>
<circle cx="135.5" cy="273.5" r="1.5" fill="#71A7DA"/>
<circle cx="135.5" cy="307.5" r="1.5" fill="#71A7DA"/>
<circle cx="135.5" cy="341.5" r="1.5" fill="#71A7DA" fill-opacity="0.6"/>
<circle cx="169.5" cy="273.5" r="1.5" fill="#71A7DA"/>
<circle cx="169.5" cy="307.5" r="1.5" fill="#71A7DA"/>
<circle cx="169.5" cy="341.5" r="1.5" fill="#71A7DA" fill-opacity="0.6"/>
<circle cx="203.5" cy="340.5" r="1.5" transform="rotate(-90 203.5 340.5)" fill="#71A7DA" fill-opacity="0.6"/>
<circle cx="237.5" cy="340.5" r="1.5" transform="rotate(-90 237.5 340.5)" fill="#71A7DA" fill-opacity="0.6"/>
<circle cx="271.5" cy="340.5" r="1.5" transform="rotate(-90 271.5 340.5)" fill="#71A7DA" fill-opacity="0.6"/>
<circle cx="305.5" cy="340.5" r="1.5" transform="rotate(-90 305.5 340.5)" fill="#71A7DA" fill-opacity="0.35"/>
<circle cx="203.5" cy="306.5" r="1.5" transform="rotate(-90 203.5 306.5)" fill="#71A7DA"/>
<circle cx="237.5" cy="306.5" r="1.5" transform="rotate(-90 237.5 306.5)" fill="#71A7DA"/>
<circle cx="271.5" cy="306.5" r="1.5" transform="rotate(-90 271.5 306.5)" fill="#71A7DA" fill-opacity="0.6"/>
<circle cx="305.5" cy="306.5" r="1.5" transform="rotate(-90 305.5 306.5)" fill="#71A7DA" fill-opacity="0.35"/>
<circle cx="203.5" cy="272.5" r="1.5" transform="rotate(-90 203.5 272.5)" fill="#71A7DA"/>
<circle cx="237.5" cy="272.5" r="1.5" transform="rotate(-90 237.5 272.5)" fill="#71A7DA"/>
<circle cx="271.5" cy="272.5" r="1.5" transform="rotate(-90 271.5 272.5)" fill="#71A7DA" fill-opacity="0.6"/>
<circle cx="305.5" cy="272.5" r="1.5" transform="rotate(-90 305.5 272.5)" fill="#71A7DA" fill-opacity="0.35"/>
<circle cx="203.5" cy="238.5" r="1.5" transform="rotate(-90 203.5 238.5)" fill="#71A7DA"/>
<circle cx="237.5" cy="238.5" r="1.5" transform="rotate(-90 237.5 238.5)" fill="#71A7DA"/>
<circle cx="271.5" cy="238.5" r="1.5" transform="rotate(-90 271.5 238.5)" fill="#71A7DA" fill-opacity="0.6"/>
<circle cx="305.5" cy="238.5" r="1.5" transform="rotate(-90 305.5 238.5)" fill="#71A7DA" fill-opacity="0.35"/>
<circle cx="203.5" cy="204.5" r="1.5" transform="rotate(-90 203.5 204.5)" fill="#71A7DA"/>
<circle cx="237.5" cy="204.5" r="1.5" transform="rotate(-90 237.5 204.5)" fill="#71A7DA"/>
<circle cx="271.5" cy="204.5" r="1.5" transform="rotate(-90 271.5 204.5)" fill="#71A7DA" fill-opacity="0.6"/>
<circle cx="305.5" cy="204.5" r="1.5" transform="rotate(-90 305.5 204.5)" fill="#71A7DA" fill-opacity="0.35"/>
<circle cx="203.5" cy="170.5" r="1.5" transform="rotate(-90 203.5 170.5)" fill="#71A7DA"/>
<circle cx="237.5" cy="170.5" r="1.5" transform="rotate(-90 237.5 170.5)" fill="#71A7DA"/>
<circle cx="271.5" cy="170.5" r="1.5" transform="rotate(-90 271.5 170.5)" fill="#71A7DA" fill-opacity="0.6"/>
<circle cx="305.5" cy="170.5" r="1.5" transform="rotate(-90 305.5 170.5)" fill="#71A7DA" fill-opacity="0.35"/>
<circle cx="203.5" cy="136.5" r="1.5" transform="rotate(-90 203.5 136.5)" fill="#71A7DA"/>
<circle cx="237.5" cy="136.5" r="1.5" transform="rotate(-90 237.5 136.5)" fill="#71A7DA"/>
<circle cx="271.5" cy="136.5" r="1.5" transform="rotate(-90 271.5 136.5)" fill="#71A7DA" fill-opacity="0.6"/>
<circle cx="305.5" cy="136.5" r="1.5" transform="rotate(-90 305.5 136.5)" fill="#71A7DA" fill-opacity="0.35"/>
<circle cx="203.5" cy="103.5" r="1.5" transform="rotate(-90 203.5 103.5)" fill="#71A7DA"/>
<circle cx="237.5" cy="103.5" r="1.5" transform="rotate(-90 237.5 103.5)" fill="#71A7DA"/>
<circle cx="271.5" cy="103.5" r="1.5" transform="rotate(-90 271.5 103.5)" fill="#71A7DA" fill-opacity="0.6"/>
<circle cx="305.5" cy="103.5" r="1.5" transform="rotate(-90 305.5 103.5)" fill="#71A7DA" fill-opacity="0.35"/>
<circle cx="203.5" cy="69.5" r="1.5" transform="rotate(-90 203.5 69.5)" fill="#71A7DA"/>
<circle cx="237.5" cy="69.5" r="1.5" transform="rotate(-90 237.5 69.5)" fill="#71A7DA"/>
<circle cx="271.5" cy="69.5" r="1.5" transform="rotate(-90 271.5 69.5)" fill="#71A7DA" fill-opacity="0.6"/>
<circle cx="305.5" cy="69.5" r="1.5" transform="rotate(-90 305.5 69.5)" fill="#71A7DA" fill-opacity="0.35"/>
<circle cx="203.5" cy="35.5" r="1.5" transform="rotate(-90 203.5 35.5)" fill="#71A7DA" fill-opacity="0.6"/>
<circle cx="237.5" cy="35.5" r="1.5" transform="rotate(-90 237.5 35.5)" fill="#71A7DA" fill-opacity="0.6"/>
<circle cx="271.5" cy="35.5" r="1.5" transform="rotate(-90 271.5 35.5)" fill="#71A7DA" fill-opacity="0.6"/>
<circle cx="305.5" cy="35.5" r="1.5" transform="rotate(-90 305.5 35.5)" fill="#71A7DA" fill-opacity="0.35"/>
<circle cx="203.5" cy="1.5" r="1.5" transform="rotate(-90 203.5 1.5)" fill="#71A7DA" fill-opacity="0.35"/>
<circle cx="237.5" cy="1.5" r="1.5" transform="rotate(-90 237.5 1.5)" fill="#71A7DA" fill-opacity="0.35"/>
<circle cx="271.5" cy="1.5" r="1.5" transform="rotate(-90 271.5 1.5)" fill="#71A7DA" fill-opacity="0.35"/>
<circle cx="305.5" cy="1.5" r="1.5" transform="rotate(-90 305.5 1.5)" fill="#71A7DA" fill-opacity="0.35"/>
<circle cx="-0.5" cy="1.5" r="1.5" fill="#71A7DA" fill-opacity="0.35"/>
<circle cx="-0.5" cy="35.5" r="1.5" fill="#71A7DA" fill-opacity="0.6"/>
<circle cx="-0.5" cy="69.5" r="1.5" fill="#71A7DA"/>
<circle cx="-0.5" cy="103.5" r="1.5" fill="#71A7DA"/>
<circle cx="33.5" cy="1.5" r="1.5" fill="#71A7DA" fill-opacity="0.35"/>
<circle cx="33.5" cy="35.5" r="1.5" fill="#71A7DA" fill-opacity="0.6"/>
<circle cx="33.5" cy="69.5" r="1.5" fill="#71A7DA"/>
<circle cx="33.5" cy="103.5" r="1.5" fill="#71A7DA"/>
<circle cx="67.5" cy="1.5" r="1.5" fill="#71A7DA" fill-opacity="0.35"/>
<circle cx="67.5" cy="35.5" r="1.5" fill="#71A7DA" fill-opacity="0.6"/>
<circle cx="67.5" cy="69.5" r="1.5" fill="#71A7DA"/>
<circle cx="67.5" cy="103.5" r="1.5" fill="#71A7DA"/>
<circle cx="101.5" cy="1.5" r="1.5" fill="#71A7DA" fill-opacity="0.35"/>
<circle cx="101.5" cy="35.5" r="1.5" fill="#71A7DA" fill-opacity="0.6"/>
<circle cx="101.5" cy="69.5" r="1.5" fill="#71A7DA"/>
<circle cx="101.5" cy="103.5" r="1.5" fill="#71A7DA"/>
<circle cx="135.5" cy="1.5" r="1.5" fill="#71A7DA" fill-opacity="0.35"/>
<circle cx="135.5" cy="35.5" r="1.5" fill="#71A7DA" fill-opacity="0.6"/>
<circle cx="135.5" cy="69.5" r="1.5" fill="#71A7DA"/>
<circle cx="135.5" cy="103.5" r="1.5" fill="#71A7DA"/>
<circle cx="169.5" cy="1.5" r="1.5" fill="#71A7DA" fill-opacity="0.35"/>
<circle cx="169.5" cy="35.5" r="1.5" fill="#71A7DA" fill-opacity="0.6"/>
<circle cx="169.5" cy="69.5" r="1.5" fill="#71A7DA"/>
<circle cx="169.5" cy="103.5" r="1.5" fill="#71A7DA"/>
</svg>
