<svg width="377" height="294" viewBox="0 0 377 294" fill="none" xmlns="http://www.w3.org/2000/svg">
<circle cx="375.5" cy="156.5" r="1.5" transform="rotate(-180 375.5 156.5)" fill="#E391FF"/>
<circle cx="375.5" cy="122.5" r="1.5" transform="rotate(-180 375.5 122.5)" fill="#E391FF"/>
<circle cx="375.5" cy="88.5" r="1.5" transform="rotate(-180 375.5 88.5)" fill="#E391FF"/>
<circle cx="375.5" cy="54.5" r="1.5" transform="rotate(-180 375.5 54.5)" fill="#E391FF"/>
<circle cx="341.5" cy="156.5" r="1.5" transform="rotate(-180 341.5 156.5)" fill="#E391FF"/>
<circle cx="341.5" cy="122.5" r="1.5" transform="rotate(-180 341.5 122.5)" fill="#E391FF"/>
<circle cx="341.5" cy="88.5" r="1.5" transform="rotate(-180 341.5 88.5)" fill="#E391FF"/>
<circle cx="341.5" cy="54.5" r="1.5" transform="rotate(-180 341.5 54.5)" fill="#E391FF"/>
<circle cx="307.5" cy="156.5" r="1.5" transform="rotate(-180 307.5 156.5)" fill="#E391FF"/>
<circle cx="307.5" cy="122.5" r="1.5" transform="rotate(-180 307.5 122.5)" fill="#E391FF"/>
<circle cx="307.5" cy="88.5" r="1.5" transform="rotate(-180 307.5 88.5)" fill="#E391FF"/>
<circle cx="307.5" cy="54.5" r="1.5" transform="rotate(-180 307.5 54.5)" fill="#E391FF"/>
<circle cx="273.5" cy="156.5" r="1.5" transform="rotate(-180 273.5 156.5)" fill="#E391FF"/>
<circle cx="273.5" cy="122.5" r="1.5" transform="rotate(-180 273.5 122.5)" fill="#E391FF"/>
<circle cx="273.5" cy="88.5" r="1.5" transform="rotate(-180 273.5 88.5)" fill="#E391FF"/>
<circle cx="273.5" cy="54.5" r="1.5" transform="rotate(-180 273.5 54.5)" fill="#E391FF"/>
<circle cx="239.5" cy="156.5" r="1.5" transform="rotate(-180 239.5 156.5)" fill="#E391FF"/>
<circle cx="239.5" cy="122.5" r="1.5" transform="rotate(-180 239.5 122.5)" fill="#E391FF"/>
<circle cx="239.5" cy="88.5" r="1.5" transform="rotate(-180 239.5 88.5)" fill="#E391FF"/>
<circle cx="239.5" cy="54.5" r="1.5" transform="rotate(-180 239.5 54.5)" fill="#E391FF"/>
<circle cx="205.5" cy="156.5" r="1.5" transform="rotate(-180 205.5 156.5)" fill="#E391FF"/>
<circle cx="205.5" cy="122.5" r="1.5" transform="rotate(-180 205.5 122.5)" fill="#E391FF"/>
<circle cx="205.5" cy="88.5" r="1.5" transform="rotate(-180 205.5 88.5)" fill="#E391FF"/>
<circle cx="205.5" cy="54.5" r="1.5" transform="rotate(-180 205.5 54.5)" fill="#E391FF"/>
<circle cx="171.5" cy="156.5" r="1.5" transform="rotate(-180 171.5 156.5)" fill="#E391FF"/>
<circle cx="171.5" cy="122.5" r="1.5" transform="rotate(-180 171.5 122.5)" fill="#E391FF"/>
<circle cx="171.5" cy="88.5" r="1.5" transform="rotate(-180 171.5 88.5)" fill="#E391FF"/>
<circle cx="171.5" cy="54.5" r="1.5" transform="rotate(-180 171.5 54.5)" fill="#E391FF"/>
<circle cx="137.5" cy="156.5" r="1.5" transform="rotate(-180 137.5 156.5)" fill="#E391FF"/>
<circle cx="137.5" cy="122.5" r="1.5" transform="rotate(-180 137.5 122.5)" fill="#E391FF"/>
<circle cx="137.5" cy="88.5" r="1.5" transform="rotate(-180 137.5 88.5)" fill="#E391FF"/>
<circle cx="137.5" cy="54.5" r="1.5" transform="rotate(-180 137.5 54.5)" fill="#E391FF"/>
<circle cx="375.5" cy="20.5" r="1.5" transform="rotate(-180 375.5 20.5)" fill="#E391FF"/>
<circle cx="341.5" cy="20.5" r="1.5" transform="rotate(-180 341.5 20.5)" fill="#E391FF"/>
<circle cx="307.5" cy="20.5" r="1.5" transform="rotate(-180 307.5 20.5)" fill="#E391FF"/>
<circle cx="273.5" cy="20.5" r="1.5" transform="rotate(-180 273.5 20.5)" fill="#E391FF"/>
<circle cx="239.5" cy="20.5" r="1.5" transform="rotate(-180 239.5 20.5)" fill="#E391FF"/>
<circle cx="205.5" cy="20.5" r="1.5" transform="rotate(-180 205.5 20.5)" fill="#E391FF"/>
<circle cx="171.5" cy="20.5" r="1.5" transform="rotate(-180 171.5 20.5)" fill="#E391FF"/>
<circle cx="137.5" cy="20.5" r="1.5" transform="rotate(-180 137.5 20.5)" fill="#E391FF"/>
<circle cx="103.5" cy="21.5" r="1.5" transform="rotate(90 103.5 21.5)" fill="#E391FF"/>
<circle cx="69.5" cy="21.5" r="1.5" transform="rotate(90 69.5 21.5)" fill="#E391FF"/>
<circle cx="35.5" cy="21.5" r="1.5" transform="rotate(90 35.5 21.5)" fill="#E391FF" fill-opacity="0.6"/>
<circle cx="1.5" cy="21.5" r="1.5" transform="rotate(90 1.5 21.5)" fill="#E391FF" fill-opacity="0.35"/>
<circle cx="103.5" cy="55.5" r="1.5" transform="rotate(90 103.5 55.5)" fill="#E391FF"/>
<circle cx="69.5" cy="55.5" r="1.5" transform="rotate(90 69.5 55.5)" fill="#E391FF"/>
<circle cx="35.5" cy="55.5" r="1.5" transform="rotate(90 35.5 55.5)" fill="#E391FF" fill-opacity="0.6"/>
<circle cx="1.5" cy="55.5" r="1.5" transform="rotate(90 1.5 55.5)" fill="#E391FF" fill-opacity="0.35"/>
<circle cx="103.5" cy="89.5" r="1.5" transform="rotate(90 103.5 89.5)" fill="#E391FF"/>
<circle cx="69.5" cy="89.5" r="1.5" transform="rotate(90 69.5 89.5)" fill="#E391FF"/>
<circle cx="35.5" cy="89.5" r="1.5" transform="rotate(90 35.5 89.5)" fill="#E391FF" fill-opacity="0.6"/>
<circle cx="1.5" cy="89.5" r="1.5" transform="rotate(90 1.5 89.5)" fill="#E391FF" fill-opacity="0.35"/>
<circle cx="103.5" cy="123.5" r="1.5" transform="rotate(90 103.5 123.5)" fill="#E391FF"/>
<circle cx="69.5" cy="123.5" r="1.5" transform="rotate(90 69.5 123.5)" fill="#E391FF"/>
<circle cx="35.5" cy="123.5" r="1.5" transform="rotate(90 35.5 123.5)" fill="#E391FF" fill-opacity="0.6"/>
<circle cx="1.5" cy="123.5" r="1.5" transform="rotate(90 1.5 123.5)" fill="#E391FF" fill-opacity="0.35"/>
<circle cx="103.5" cy="157.5" r="1.5" transform="rotate(90 103.5 157.5)" fill="#E391FF"/>
<circle cx="69.5" cy="157.5" r="1.5" transform="rotate(90 69.5 157.5)" fill="#E391FF"/>
<circle cx="35.5" cy="157.5" r="1.5" transform="rotate(90 35.5 157.5)" fill="#E391FF" fill-opacity="0.6"/>
<circle cx="1.5" cy="157.5" r="1.5" transform="rotate(90 1.5 157.5)" fill="#E391FF" fill-opacity="0.35"/>
<circle cx="103.5" cy="190.5" r="1.5" transform="rotate(90 103.5 190.5)" fill="#E391FF"/>
<circle cx="69.5" cy="190.5" r="1.5" transform="rotate(90 69.5 190.5)" fill="#E391FF"/>
<circle cx="35.5" cy="190.5" r="1.5" transform="rotate(90 35.5 190.5)" fill="#E391FF" fill-opacity="0.6"/>
<circle cx="1.5" cy="190.5" r="1.5" transform="rotate(90 1.5 190.5)" fill="#E391FF" fill-opacity="0.35"/>
<circle cx="103.5" cy="224.5" r="1.5" transform="rotate(90 103.5 224.5)" fill="#E391FF"/>
<circle cx="69.5" cy="224.5" r="1.5" transform="rotate(90 69.5 224.5)" fill="#E391FF"/>
<circle cx="35.5" cy="224.5" r="1.5" transform="rotate(90 35.5 224.5)" fill="#E391FF" fill-opacity="0.6"/>
<circle cx="1.5" cy="224.5" r="1.5" transform="rotate(90 1.5 224.5)" fill="#E391FF" fill-opacity="0.35"/>
<circle cx="103.5" cy="258.5" r="1.5" transform="rotate(90 103.5 258.5)" fill="#E391FF" fill-opacity="0.6"/>
<circle cx="69.5" cy="258.5" r="1.5" transform="rotate(90 69.5 258.5)" fill="#E391FF" fill-opacity="0.6"/>
<circle cx="35.5" cy="258.5" r="1.5" transform="rotate(90 35.5 258.5)" fill="#E391FF" fill-opacity="0.6"/>
<circle cx="1.5" cy="258.5" r="1.5" transform="rotate(90 1.5 258.5)" fill="#E391FF" fill-opacity="0.35"/>
<circle cx="103.5" cy="292.5" r="1.5" transform="rotate(90 103.5 292.5)" fill="#E391FF" fill-opacity="0.35"/>
<circle cx="69.5" cy="292.5" r="1.5" transform="rotate(90 69.5 292.5)" fill="#E391FF" fill-opacity="0.35"/>
<circle cx="35.5" cy="292.5" r="1.5" transform="rotate(90 35.5 292.5)" fill="#E391FF" fill-opacity="0.35"/>
<circle cx="1.5" cy="292.5" r="1.5" transform="rotate(90 1.5 292.5)" fill="#E391FF" fill-opacity="0.35"/>
<circle cx="375.5" cy="292.5" r="1.5" transform="rotate(-180 375.5 292.5)" fill="#E391FF" fill-opacity="0.35"/>
<circle cx="375.5" cy="258.5" r="1.5" transform="rotate(-180 375.5 258.5)" fill="#E391FF" fill-opacity="0.6"/>
<circle cx="375.5" cy="224.5" r="1.5" transform="rotate(-180 375.5 224.5)" fill="#E391FF"/>
<circle cx="375.5" cy="190.5" r="1.5" transform="rotate(-180 375.5 190.5)" fill="#E391FF"/>
<circle cx="341.5" cy="292.5" r="1.5" transform="rotate(-180 341.5 292.5)" fill="#E391FF" fill-opacity="0.35"/>
<circle cx="341.5" cy="258.5" r="1.5" transform="rotate(-180 341.5 258.5)" fill="#E391FF" fill-opacity="0.6"/>
<circle cx="341.5" cy="224.5" r="1.5" transform="rotate(-180 341.5 224.5)" fill="#E391FF"/>
<circle cx="341.5" cy="190.5" r="1.5" transform="rotate(-180 341.5 190.5)" fill="#E391FF"/>
<circle cx="307.5" cy="292.5" r="1.5" transform="rotate(-180 307.5 292.5)" fill="#E391FF" fill-opacity="0.35"/>
<circle cx="307.5" cy="258.5" r="1.5" transform="rotate(-180 307.5 258.5)" fill="#E391FF" fill-opacity="0.6"/>
<circle cx="307.5" cy="224.5" r="1.5" transform="rotate(-180 307.5 224.5)" fill="#E391FF"/>
<circle cx="307.5" cy="190.5" r="1.5" transform="rotate(-180 307.5 190.5)" fill="#E391FF"/>
<circle cx="273.5" cy="292.5" r="1.5" transform="rotate(-180 273.5 292.5)" fill="#E391FF" fill-opacity="0.35"/>
<circle cx="273.5" cy="258.5" r="1.5" transform="rotate(-180 273.5 258.5)" fill="#E391FF" fill-opacity="0.6"/>
<circle cx="273.5" cy="224.5" r="1.5" transform="rotate(-180 273.5 224.5)" fill="#E391FF"/>
<circle cx="273.5" cy="190.5" r="1.5" transform="rotate(-180 273.5 190.5)" fill="#E391FF"/>
<circle cx="239.5" cy="292.5" r="1.5" transform="rotate(-180 239.5 292.5)" fill="#E391FF" fill-opacity="0.35"/>
<circle cx="239.5" cy="258.5" r="1.5" transform="rotate(-180 239.5 258.5)" fill="#E391FF" fill-opacity="0.6"/>
<circle cx="239.5" cy="224.5" r="1.5" transform="rotate(-180 239.5 224.5)" fill="#E391FF"/>
<circle cx="239.5" cy="190.5" r="1.5" transform="rotate(-180 239.5 190.5)" fill="#E391FF"/>
<circle cx="205.5" cy="292.5" r="1.5" transform="rotate(-180 205.5 292.5)" fill="#E391FF" fill-opacity="0.35"/>
<circle cx="205.5" cy="258.5" r="1.5" transform="rotate(-180 205.5 258.5)" fill="#E391FF" fill-opacity="0.6"/>
<circle cx="205.5" cy="224.5" r="1.5" transform="rotate(-180 205.5 224.5)" fill="#E391FF"/>
<circle cx="205.5" cy="190.5" r="1.5" transform="rotate(-180 205.5 190.5)" fill="#E391FF"/>
<circle cx="171.5" cy="292.5" r="1.5" transform="rotate(-180 171.5 292.5)" fill="#E391FF" fill-opacity="0.35"/>
<circle cx="171.5" cy="258.5" r="1.5" transform="rotate(-180 171.5 258.5)" fill="#E391FF" fill-opacity="0.6"/>
<circle cx="171.5" cy="224.5" r="1.5" transform="rotate(-180 171.5 224.5)" fill="#E391FF"/>
<circle cx="171.5" cy="190.5" r="1.5" transform="rotate(-180 171.5 190.5)" fill="#E391FF"/>
<circle cx="137.5" cy="292.5" r="1.5" transform="rotate(-180 137.5 292.5)" fill="#E391FF" fill-opacity="0.35"/>
<circle cx="137.5" cy="258.5" r="1.5" transform="rotate(-180 137.5 258.5)" fill="#E391FF" fill-opacity="0.6"/>
<circle cx="137.5" cy="224.5" r="1.5" transform="rotate(-180 137.5 224.5)" fill="#E391FF"/>
<circle cx="137.5" cy="190.5" r="1.5" transform="rotate(-180 137.5 190.5)" fill="#E391FF"/>
</svg>
