<svg width="221" height="37" viewBox="0 0 221 37" fill="none" xmlns="http://www.w3.org/2000/svg">
<path d="M34.3872 11.4508H31.6082C31.8196 11.4508 31.3407 10.3252 31.3407 9.87887V1.97458C31.3407 0.636489 30.8613 0 29.5232 0H2.77114C1.43278 0 0 0.636489 0 1.97458V9.87887C0 11.2161 1.43278 12.6571 2.77114 12.6571H5.55042C5.33853 13.2594 4.82169 13.0795 4.82169 13.5266V21.4306C4.82169 21.8775 5.33853 22.9033 5.55042 23.5053H3.37914C2.04105 23.5053 0.602847 23.74 0.602847 25.0784V32.9829C0.602847 34.3205 2.04105 36.1627 3.37914 36.1627H30.1312C31.4693 36.1627 31.9438 34.3205 31.9438 32.9829V25.0784C31.9438 24.6315 32.4278 24.7113 32.2159 24.7113H34.3872C35.725 24.7113 36.1627 22.7687 36.1627 21.4304V13.5263C36.1627 12.188 35.725 11.4508 34.3872 11.4508ZM2.95075 3.61626L1.20515 5.12311V3.61626H2.95075ZM30.1355 6.02711H28.6854L30.2123 3.61653H30.1355V6.02711ZM27.2637 6.02711H25.6454L27.1723 3.61653H28.7901L27.2637 6.02711ZM24.2243 6.02711H22.3018L23.8284 3.61653H25.7507L24.2243 6.02711ZM20.8799 6.02711H19.2615L20.7882 3.61653H22.406L20.8799 6.02711ZM17.8399 6.02711H15.9174L17.4443 3.61653H19.3662L17.8399 6.02711ZM14.496 6.02711H12.5735L14.1004 3.61653H16.0224L14.496 6.02711ZM11.1518 6.02711H9.22936L10.756 3.61653H12.6782L11.1518 6.02711ZM7.80825 6.02711H6.18989L7.71627 3.61653H9.33435L7.80825 6.02711ZM4.76797 6.02711H2.84548L4.3724 3.61653H6.29408L4.76797 6.02711ZM4.3724 9.64365L2.84548 7.23199H4.76797L6.29408 9.64365H4.3724ZM2.9502 9.64365H1.20515V6.73088L2.9502 9.64365ZM7.71627 9.64365L6.18989 7.23199H7.80825L9.33435 9.64365H7.71627ZM10.756 9.64365L9.22936 7.23199H11.1518L12.6782 9.64365H10.756ZM14.1002 9.64365L12.5735 7.23199H14.496L16.0224 9.64365H14.1002ZM17.4443 9.64365L15.9176 7.23199H17.8399L19.3662 9.64365H17.4443ZM20.7884 9.64365L19.2618 7.23199H20.8801L22.4062 9.64365H20.7884ZM23.8284 9.64365L22.3018 7.23199H24.2243L25.7504 9.64365H23.8284ZM27.1723 9.64365L25.6454 7.23199H27.2637L28.7901 9.64365H27.1723ZM30.2121 9.64365L28.6854 7.23199H30.1355V9.64365H30.2121ZM2.77114 1.20542H29.5232C30.0929 1.20542 30.5688 1.80827 30.7031 2.41057H1.59095C1.72498 1.808 2.20139 1.20542 2.77114 1.20542ZM1.59095 10.8488H30.7028C30.5688 11.4511 30.0927 11.4511 29.5229 11.4511H7.63542H2.77114C2.20139 11.4508 1.72498 11.4508 1.59095 10.8488ZM29.5232 12.6571H34.3872C34.9572 12.6571 35.4328 13.2594 35.5669 13.8619H6.45496C6.58953 13.2591 7.0654 12.6571 7.63542 12.6571H29.5232ZM35.0763 21.0947L33.5494 18.6839H34.9572V21.0947H35.0763ZM30.5094 17.4782L32.0363 15.0674H33.6544L32.1278 17.4782H30.5094ZM29.088 17.4782H27.1655L28.6925 15.0674H30.6144L29.088 17.4782ZM25.7442 17.4782H24.1258L25.6524 15.0674H27.2705L25.7442 17.4782ZM22.7039 17.4782H20.7814L22.308 15.0674H24.23L22.7039 17.4782ZM19.36 17.4782H17.4375L18.9642 15.0674H20.8864L19.36 17.4782ZM16.0159 17.4782H14.0934L15.6206 15.0674H17.5422L16.0159 17.4782ZM12.672 17.4782H11.0534L12.5803 15.0674H14.1984L12.672 17.4782ZM9.63171 17.4782H7.70949L9.23614 15.0674H11.1581L9.63171 17.4782ZM6.02711 16.6746V15.0674H7.81449L6.02711 16.6746ZM6.02711 18.2824L7.81449 21.0947H6.02711V18.2824ZM9.23641 21.0947L7.70976 18.6839H9.63198L11.1584 21.0947H9.23641ZM12.5803 21.0947L11.0534 18.6839H12.672L14.1984 21.0947H12.5803ZM15.6206 21.0947L14.0934 18.6839H16.0159L17.5422 21.0947H15.6206ZM18.9642 21.0947L17.4375 18.6839H19.36L20.8864 21.0947H18.9642ZM22.308 21.0947L20.7814 18.6839H22.7039L24.23 21.0947H22.308ZM25.6524 21.0947L24.1258 18.6839H25.7442L27.2705 21.0947H25.6524ZM28.6922 21.0947L27.1653 18.6839H29.0878L30.6139 21.0947H28.6922ZM32.0363 21.0947L30.5094 18.6839H32.1275L33.6541 21.0947H32.0363ZM33.5494 17.4782L35.0763 15.0674H34.9572V17.4782H33.5494ZM30.8203 32.5458L29.2934 30.135H30.7384V32.5458H30.8203ZM4.98013 32.5458L3.45348 30.135H5.37624L6.90235 32.5458H4.98013ZM3.55875 32.5458H1.80827V29.8341L3.55875 32.5458ZM8.32454 32.5458L6.79789 30.135H8.41625L9.94263 32.5458H8.32454ZM11.3643 32.5458L9.83763 30.135H11.7598L13.2862 32.5458H11.3643ZM14.7084 32.5458L13.1815 30.135H15.1037L16.6301 32.5458H14.7084ZM18.0526 32.5458L16.5256 30.135H18.4481L19.9742 32.5458H18.0526ZM21.3962 32.5458L19.8692 30.135H21.4879L23.014 32.5458H21.3962ZM24.4362 32.5458L22.9095 30.135H24.832L26.3584 32.5458H24.4362ZM27.7803 32.5458L26.2534 30.135H27.872L29.3984 32.5458H27.7803ZM29.2934 28.9301L30.8201 26.5185H30.7384V28.9301H29.2934ZM27.8717 28.9301H26.2531L27.78 26.5185H29.3981L27.8717 28.9301ZM24.832 28.9301H22.9095L24.4362 26.5185H26.3581L24.832 28.9301ZM21.4881 28.9301H19.8695L21.3964 26.5185H23.0142L21.4881 28.9301ZM18.4481 28.9301H16.5259L18.0526 26.5185H19.9742L18.4481 28.9301ZM15.1037 28.9301H13.1815L14.7082 26.5185H16.6304L15.1037 28.9301ZM11.7598 28.9301H9.83763L11.3643 26.5185H13.2862L11.7598 28.9301ZM8.41625 28.9301H6.79789L8.32454 26.5185H9.94263L8.41625 28.9301ZM5.37624 28.9301H3.45348L4.98013 26.5185H6.90208L5.37624 28.9301ZM1.80827 28.2258V26.5185H3.55848L1.80827 28.2258ZM30.1312 34.957H3.37914C2.8094 34.957 2.33325 34.3541 2.19895 33.7518H31.3111C31.1771 34.3541 30.7007 34.957 30.1312 34.957ZM31.3111 25.3136H2.19895C2.33298 24.7113 2.8094 24.7113 3.37914 24.7113H7.63542H30.1312C30.7007 24.7113 31.1771 24.7113 31.3111 25.3136ZM34.3872 23.5053H30.1309H7.63542C7.0654 23.5053 6.5898 22.903 6.45496 22.2999H35.5669C35.4328 22.903 34.9572 23.5053 34.3872 23.5053Z" fill="url(#paint0_linear)"/>
<path d="M44.5501 5.03003V22.2651H47.4043V5.03003H50.2305V22.2651H53.0847V5.03003H55.9109V24.759H41.7236V5.03003H44.5501Z" fill="#333333"/>
<path d="M64.75 24.759V11.9573H64.6944L60.9813 24.759H58.155V5.03003H60.9813V17.8594H61.0366L64.7497 5.03003H67.5759V24.759H64.75Z" fill="#333333"/>
<path d="M69.8203 24.759V5.03003H72.6465V13.4813H76.138V5.03003H78.9642V24.759H76.138V15.9751H72.6465V24.759H69.8203Z" fill="#333333"/>
<path d="M79.9343 24.759L84.3401 5.03003H86.6953L91.1011 24.759H88.2749L87.4436 20.5196H83.5921L82.7608 24.759H79.9343ZM86.917 17.8594L85.5317 10.7104H85.4763L84.0908 17.8594H86.917Z" fill="#333333"/>
<path d="M96.8087 24.759V5.03003H100.937C101.842 5.03003 102.614 5.1684 103.251 5.44567C103.889 5.72295 104.41 6.09247 104.817 6.55397C105.223 7.01601 105.514 7.54723 105.69 8.14736C105.865 8.74777 105.953 9.37123 105.953 10.0178V10.7384C105.953 11.2745 105.911 11.7267 105.828 12.096C105.745 12.4658 105.621 12.7886 105.454 13.0659C105.14 13.5833 104.66 14.0266 104.013 14.3959C104.678 14.71 105.167 15.1715 105.482 15.7812C105.796 16.3908 105.953 17.2221 105.953 18.275V19.3833C105.953 21.1197 105.532 22.4499 104.692 23.3734C103.851 24.2972 102.507 24.7587 100.66 24.7587H96.8087V24.759ZM99.6349 7.69021V13.1212H100.91C101.852 13.1212 102.484 12.8858 102.808 12.4148C103.13 11.9438 103.292 11.2557 103.292 10.3504C103.292 9.46374 103.112 8.79877 102.752 8.35518C102.392 7.91186 101.741 7.69021 100.799 7.69021H99.6349ZM99.6349 15.6148V21.9328H100.854C101.427 21.9328 101.875 21.8495 102.198 21.6832C102.521 21.5172 102.766 21.2863 102.933 20.9905C103.099 20.6951 103.2 20.344 103.238 19.9376C103.274 19.5314 103.293 19.0879 103.293 18.6076C103.293 18.1087 103.265 17.6749 103.21 17.3051C103.154 16.9358 103.043 16.6219 102.877 16.3631C102.692 16.1046 102.443 15.9155 102.129 15.795C101.815 15.6751 101.399 15.6148 100.882 15.6148H99.6349Z" fill="#333333"/>
<path d="M122.799 7.69021C122.54 7.69021 122.328 7.72276 122.162 7.78706C121.996 7.85191 121.839 7.96721 121.691 8.13325C121.543 8.29956 121.441 8.50304 121.386 8.74288C121.331 8.98326 121.284 9.25131 121.247 9.5465L120.998 11.8464C120.979 12.0868 120.952 12.3084 120.915 12.5114C120.877 12.6964 120.841 12.8855 120.804 13.0795C120.767 13.2735 120.711 13.4444 120.638 13.5922C120.527 13.8511 120.393 14.0771 120.236 14.2711C120.079 14.465 119.926 14.6172 119.779 14.7282L122.716 24.759H119.834L117.341 15.9751H115.761V24.759H112.935V5.03003H115.761V13.4813H116.703C117.036 13.4813 117.303 13.4354 117.507 13.3426C117.71 13.2504 117.876 13.121 118.006 12.9547C118.135 12.7884 118.227 12.5993 118.283 12.3865C118.338 12.1744 118.384 11.9389 118.421 11.6801L118.698 9.32484C118.716 9.25131 118.74 9.09884 118.768 8.86768C118.795 8.6368 118.846 8.37363 118.92 8.0779C118.994 7.78272 119.095 7.47777 119.225 7.16333C119.354 6.84942 119.52 6.5537 119.724 6.27669C120.075 5.83337 120.504 5.51459 121.012 5.32087C121.52 5.12689 122.116 5.03003 122.8 5.03003V7.69021H122.799Z" fill="#333333"/>
<path d="M123.991 24.759V5.03003H128.23C129.006 5.03003 129.689 5.13177 130.281 5.33471C130.872 5.53819 131.407 5.89849 131.888 6.41533C132.368 6.93271 132.7 7.53746 132.885 8.23011C133.07 8.92276 133.162 9.86067 133.162 11.0428C133.162 11.9294 133.111 12.6774 133.01 13.287C132.908 13.8966 132.691 14.4694 132.359 15.0049C131.971 15.6517 131.453 16.155 130.807 16.515C130.16 16.8753 129.311 17.0555 128.258 17.0555H126.817V24.7587H123.991V24.759ZM126.817 7.69021V14.3959H128.175C128.747 14.3959 129.19 14.3126 129.505 14.1465C129.819 13.9802 130.049 13.7496 130.198 13.4539C130.345 13.1769 130.433 12.8353 130.461 12.4286C130.489 12.0224 130.502 11.5696 130.502 11.071C130.502 10.6095 130.493 10.1705 130.474 9.75459C130.456 9.33894 130.373 8.97458 130.225 8.66013C130.077 8.34623 129.855 8.10612 129.56 7.93981C129.264 7.7735 128.84 7.69048 128.285 7.69048H126.817V7.69021Z" fill="#333333"/>
<path d="M132.553 24.759L136.959 5.03003H139.314L143.72 24.759H140.894L140.062 20.5196H136.211L135.38 24.759H132.553ZM139.536 17.8594L138.151 10.7104H138.095L136.71 17.8594H139.536Z" fill="#333333"/>
<path d="M153.668 19.1342V20.3532C153.668 20.9629 153.552 21.5405 153.321 22.0853C153.09 22.6303 152.771 23.1151 152.366 23.5397C151.959 23.9649 151.483 24.3019 150.939 24.5515C150.393 24.8008 149.807 24.9253 149.179 24.9253C148.643 24.9253 148.098 24.8515 147.544 24.7039C146.99 24.5563 146.491 24.2978 146.048 23.9283C145.604 23.559 145.24 23.0831 144.953 22.5009C144.667 21.9189 144.524 21.1756 144.524 20.2705V9.40839C144.524 8.76187 144.635 8.16146 144.856 7.60718C145.078 7.05317 145.392 6.57295 145.799 6.16626C146.205 5.76012 146.69 5.4416 147.253 5.21044C147.817 4.97956 148.44 4.86426 149.124 4.86426C150.454 4.86426 151.535 5.29862 152.366 6.16653C152.772 6.59167 153.091 7.09468 153.322 7.67664C153.553 8.25859 153.668 8.89155 153.668 9.57471V10.683H150.841V9.74075C150.841 9.18647 150.684 8.70652 150.371 8.29983C150.056 7.89368 149.631 7.6902 149.096 7.6902C148.394 7.6902 147.927 7.90752 147.697 8.34134C147.465 8.7757 147.35 9.32484 147.35 9.99008V20.0762C147.35 20.649 147.475 21.1294 147.725 21.5174C147.974 21.9054 148.422 22.0994 149.068 22.0994C149.253 22.0994 149.451 22.0674 149.664 22.0025C149.876 21.9379 150.075 21.8319 150.26 21.6837C150.426 21.5361 150.565 21.3332 150.675 21.0741C150.786 20.8158 150.841 20.4921 150.841 20.1044V19.1348H153.668V19.1342Z" fill="#333333"/>
<path d="M155.551 24.759V5.03003H158.378V13.4813H161.869V5.03003H164.695V24.759H161.869V15.9751H158.378V24.759H155.551Z" fill="#333333"/>
<path d="M166.774 9.68519C166.774 8.89134 166.912 8.18892 167.189 7.57929C167.466 6.96966 167.836 6.46178 168.298 6.05536C168.741 5.66739 169.244 5.37193 169.808 5.16845C170.371 4.96551 170.939 4.86377 171.512 4.86377C172.084 4.86377 172.652 4.96551 173.216 5.16845C173.779 5.37193 174.292 5.66712 174.754 6.05536C175.197 6.46205 175.557 6.96966 175.834 7.57929C176.111 8.18892 176.25 8.89107 176.25 9.68519V20.104C176.25 20.9352 176.111 21.6466 175.834 22.2375C175.557 22.829 175.197 23.3181 174.754 23.7061C174.292 24.1125 173.779 24.4175 173.216 24.6204C172.652 24.8234 172.084 24.9251 171.512 24.9251C170.939 24.9251 170.371 24.8234 169.808 24.6204C169.244 24.4175 168.741 24.1125 168.298 23.7061C167.836 23.3181 167.466 22.829 167.189 22.2375C166.912 21.6463 166.774 20.9352 166.774 20.104V9.68519ZM169.6 20.104C169.6 20.7877 169.789 21.2912 170.168 21.6141C170.547 21.9372 170.995 22.0989 171.512 22.0989C172.029 22.0989 172.477 21.9372 172.856 21.6141C173.234 21.2912 173.424 20.7874 173.424 20.104V9.68519C173.424 9.00203 173.234 8.49848 172.856 8.17509C172.477 7.85223 172.029 7.69026 171.512 7.69026C170.995 7.69026 170.546 7.85223 170.168 8.17509C169.789 8.49848 169.6 9.00203 169.6 9.68519V20.104Z" fill="#333333"/>
<path d="M179.215 24.759V27.8069H176.777V22.2651H178.218C178.384 21.9143 178.541 21.5125 178.689 21.0597C178.837 20.6072 178.966 20.1316 179.077 19.6326C179.188 19.134 179.289 18.6212 179.382 18.0949C179.474 17.5685 179.548 17.0558 179.603 16.5571C179.64 16.1691 179.673 15.7353 179.7 15.2548C179.728 14.7746 179.751 14.2805 179.769 13.7724C179.788 13.2645 179.801 12.7566 179.811 12.2482C179.82 11.7403 179.825 11.2555 179.825 10.7934V5.03003H187.944V22.2651H189.551V27.8069H187.113V24.759H179.215ZM182.485 7.52389V10.766C182.485 11.0249 182.475 11.399 182.457 11.8882C182.438 12.3779 182.411 12.9091 182.374 13.4815C182.336 14.0543 182.3 14.6316 182.263 15.2133C182.226 15.7953 182.18 16.3078 182.124 16.7514C182.087 17.1209 182.027 17.5409 181.944 18.0119C181.861 18.4828 181.764 18.9677 181.653 19.4666C181.542 19.9653 181.422 20.4596 181.293 20.949C181.164 21.4387 181.016 21.8772 180.85 22.2654H185.117V7.52389H182.485Z" fill="#333333"/>
<path d="M189.578 24.759L193.984 5.03003H196.339L200.745 24.759H197.919L197.087 20.5196H193.236L192.405 24.759H189.578ZM196.561 17.8594L195.175 10.7104H195.12L193.735 17.8594H196.561Z" fill="#333333"/>
<path d="M201.715 24.759V5.03003H205.954C206.73 5.03003 207.413 5.13177 208.005 5.33471C208.596 5.53819 209.131 5.89849 209.612 6.41533C210.092 6.93271 210.425 7.53746 210.61 8.23011C210.794 8.92276 210.887 9.86067 210.887 11.0428C210.887 11.9294 210.836 12.6774 210.734 13.287C210.632 13.8966 210.415 14.4694 210.083 15.0049C209.695 15.6517 209.178 16.155 208.531 16.515C207.884 16.8753 207.035 17.0555 205.982 17.0555H204.541V24.7587H201.715V24.759ZM204.541 7.69021V14.3959H205.899C206.471 14.3959 206.915 14.3126 207.229 14.1465C207.543 13.9802 207.774 13.7496 207.922 13.4539C208.069 13.1769 208.157 12.8353 208.185 12.4286C208.213 12.0224 208.226 11.5696 208.226 11.071C208.226 10.6095 208.217 10.1705 208.198 9.75459C208.18 9.33894 208.097 8.97458 207.949 8.66013C207.801 8.34623 207.58 8.10612 207.284 7.93981C206.988 7.7735 206.564 7.69048 206.01 7.69048H204.541V7.69021Z" fill="#333333"/>
<path d="M212.577 24.759V5.03003H221V7.69021H215.403V13.4813H220.28V16.1414H215.403V21.9328H221V24.759H212.577Z" fill="#333333"/>
<path d="M220.935 30.1975H41.3292V32.0967H220.935V30.1975Z" fill="url(#paint1_linear)"/>
<defs>
<linearGradient id="paint0_linear" x1="12.0117" y1="-2.43255" x2="20.6482" y2="32.2063" gradientUnits="userSpaceOnUse">
<stop stop-color="#8CC63F"/>
<stop offset="1" stop-color="#39B54A"/>
</linearGradient>
<linearGradient id="paint1_linear" x1="41.3292" y1="31.1471" x2="220.935" y2="31.1471" gradientUnits="userSpaceOnUse">
<stop stop-color="#8CC63F"/>
<stop offset="1" stop-color="#39B54A"/>
</linearGradient>
</defs>
</svg>
