<svg width="329" height="329" viewBox="0 0 329 329" fill="none" xmlns="http://www.w3.org/2000/svg">
<path d="M194.641 164.77L322.748 36.6597C331.084 28.3266 331.084 14.8533 322.748 6.52027C314.415 -1.81275 300.941 -1.81275 292.608 6.52027L164.498 134.63L36.3921 6.52027C28.0552 -1.81275 14.5857 -1.81275 6.25269 6.52027C-2.08423 14.8533 -2.08423 28.3266 6.25269 36.6597L134.359 164.77L6.25269 292.88C-2.08423 301.213 -2.08423 314.686 6.25269 323.019C10.4055 327.176 15.8659 329.264 21.3224 329.264C26.7789 329.264 32.2353 327.176 36.3921 323.019L164.498 194.909L292.608 323.019C296.765 327.176 302.221 329.264 307.678 329.264C313.134 329.264 318.591 327.176 322.748 323.019C331.084 314.686 331.084 301.213 322.748 292.88L194.641 164.77Z" fill="#8DD1C5"/>
</svg>
