<svg width="43" height="43" viewBox="0 0 43 43" fill="none" xmlns="http://www.w3.org/2000/svg">
<g clip-path="url(#clip0)">
<path d="M21.5224 0C9.62019 0 0 9.62019 0 21.5224C0 33.3798 9.62019 43.0447 21.5224 43.0447C33.4246 43.0447 43.0447 33.4246 43.0447 21.5224C43 9.62019 33.3798 0 21.5224 0ZM21.5224 40.8075C10.873 40.8075 2.23725 32.1717 2.23725 21.5224C2.23725 10.873 10.873 2.23725 21.5224 2.23725C32.1717 2.23725 40.8075 10.873 40.8075 21.5224C40.8075 32.1717 32.1717 40.8075 21.5224 40.8075Z" fill="#F5F5F5"/>
<path d="M29.9344 4.69824H25.5494C20.6274 4.69824 17.4953 7.96463 17.4953 12.9761V16.7794H13.1103C12.7523 16.7794 12.4391 17.0926 12.4391 17.4506V22.999C12.4391 23.3569 12.7523 23.6701 13.1103 23.6701H17.4953V37.6306C17.4953 37.9886 17.8085 38.3018 18.1665 38.3018H23.8938C24.2518 38.3018 24.565 37.9886 24.565 37.6306V23.6701H29.7107C30.0686 23.6701 30.3819 23.3569 30.3819 22.999V17.4506C30.3819 17.2716 30.2924 17.0926 30.2029 16.9584C30.0686 16.8242 29.8897 16.7794 29.7107 16.7794H24.565V13.5578C24.565 11.9917 24.923 11.231 26.9812 11.231H29.9344C30.2924 11.231 30.6056 10.9178 30.6056 10.5598V5.36942C30.6056 5.01146 30.2924 4.69824 29.9344 4.69824Z" fill="#9AD0C7"/>
</g>
<defs>
<clipPath id="clip0">
<rect width="43" height="43" fill="white"/>
</clipPath>
</defs>
</svg>
