<svg width="20" height="40" viewBox="0 0 20 40" fill="none" xmlns="http://www.w3.org/2000/svg">
<path d="M7.65625 40C3.77922 40 0.625 36.8458 0.625 32.9688V9.375C0.625 4.20563 4.83063 0 10 0C15.1694 0 19.375 4.20563 19.375 9.375V32.9688H17.0312V9.375C17.0312 5.49797 13.877 2.34375 10 2.34375C6.12297 2.34375 2.96875 5.49797 2.96875 9.375V32.9688C2.96875 35.5534 5.07156 37.6562 7.65625 37.6562C10.2409 37.6562 12.3438 35.5534 12.3438 32.9688V14.0625C12.3438 12.7702 11.2923 11.7188 10 11.7188C8.70766 11.7188 7.65625 12.7702 7.65625 14.0625V32.9688H5.3125V14.0625C5.3125 11.4778 7.41531 9.375 10 9.375C12.5847 9.375 14.6875 11.4778 14.6875 14.0625V32.9688C14.6875 36.8458 11.5333 40 7.65625 40Z" fill="#5A5670"/>
</svg>
