<svg width="43" height="43" viewBox="0 0 43 43" fill="none" xmlns="http://www.w3.org/2000/svg">
<path d="M21.3822 11.2422C15.3824 11.2422 10.5186 16.106 10.5186 22.1058C10.5186 28.1056 15.3824 32.9694 21.3822 32.9694C27.382 32.9694 32.2458 28.1056 32.2458 22.1058C32.2458 16.106 27.382 11.2422 21.3822 11.2422ZM21.3822 29.149C17.4945 29.149 14.3389 25.9935 14.3389 22.1058C14.3389 18.2181 17.4945 15.0625 21.3822 15.0625C25.2698 15.0625 28.4254 18.2181 28.4254 22.1058C28.4254 25.9935 25.2698 29.149 21.3822 29.149Z" fill="#9ACFC6"/>
<path d="M35.2078 10.8132C35.2078 12.21 34.0718 13.346 32.675 13.346C31.2781 13.346 30.1421 12.21 30.1421 10.8132C30.1421 9.41628 31.2781 8.28027 32.675 8.28027C34.0718 8.28027 35.2078 9.40787 35.2078 10.8132Z" fill="#9ACFC6"/>
<path d="M42.554 12.9756C42.453 10.7289 42.0912 9.18053 41.5695 7.84257C41.0309 6.42046 40.2063 5.14981 39.1207 4.08954C38.0605 3.01243 36.7814 2.17936 35.3761 1.64922C34.0297 1.1275 32.4898 0.765662 30.243 0.664683C27.9879 0.57212 27.2642 0.546875 21.5252 0.546875C15.7863 0.546875 15.0626 0.57212 12.8074 0.673098C10.5607 0.774077 9.01232 1.13592 7.67436 1.65764C6.25224 2.19619 4.9816 3.02085 3.92132 4.10637C2.85263 5.14981 2.01956 6.43729 1.48943 7.83415C0.967703 9.18053 0.605864 10.7205 0.504885 12.9672C0.403907 15.2308 0.378662 15.9461 0.378662 21.6934C0.378662 27.4408 0.403907 28.1561 0.504885 30.4113C0.605864 32.658 0.967703 34.2064 1.48943 35.5443C2.02798 36.9664 2.86105 38.2371 3.93815 39.2974C4.99843 40.3745 6.27749 41.2075 7.68277 41.7377C9.02915 42.2594 10.5691 42.6212 12.8158 42.7222C15.071 42.8232 15.7863 42.8484 21.5337 42.8484C27.281 42.8484 27.9963 42.8232 30.2515 42.7222C32.4982 42.6212 34.0466 42.2594 35.3845 41.7377C38.2288 40.6353 40.4755 38.3886 41.5695 35.5527C42.0912 34.2064 42.453 32.6664 42.554 30.4197C42.655 28.1645 42.6802 27.4492 42.6802 21.7019C42.6802 15.9545 42.6466 15.2308 42.554 12.9756ZM40.5092 29.5698C40.4166 31.5978 40.0884 32.9862 39.6172 34.2064C38.6243 36.7729 36.5963 38.8093 34.0213 39.8023C32.8096 40.2735 31.4127 40.6017 29.3847 40.6942C27.3483 40.7868 26.7004 40.8036 21.5084 40.8036C16.3164 40.8036 15.6685 40.7784 13.6321 40.6942C11.6041 40.6017 10.2156 40.2735 8.99549 39.8023C7.72485 39.3226 6.57201 38.5737 5.61271 37.5976C4.645 36.6383 3.88766 35.4938 3.3996 34.2064C2.92837 32.9946 2.60019 31.5978 2.50762 29.5698C2.41506 27.5334 2.39823 26.8854 2.39823 21.6934C2.39823 16.5015 2.42348 15.8535 2.51604 13.8087C2.6086 11.7807 2.93678 10.3923 3.40802 9.17212C3.88766 7.90147 4.63659 6.74864 5.61271 5.78934C6.57201 4.81322 7.71643 4.06429 9.00391 3.57623C10.2156 3.105 11.6125 2.77682 13.6405 2.68425C15.6769 2.59169 16.3248 2.57486 21.5168 2.57486C26.7088 2.57486 27.3567 2.6001 29.4016 2.69267C31.4295 2.78523 32.818 3.11341 34.0382 3.58464C35.3088 4.06429 36.4616 4.81322 37.4209 5.78934C38.3971 6.74864 39.146 7.89306 39.634 9.18053C40.1053 10.3923 40.4335 11.7891 40.526 13.8171C40.6186 15.8535 40.627 16.5015 40.627 21.6934C40.627 26.8854 40.6018 27.5334 40.5092 29.5698Z" fill="#F5F5F5"/>
</svg>
