<svg width="48" height="48" viewBox="0 0 48 48" fill="none" xmlns="http://www.w3.org/2000/svg">
<path d="M14.3406 27.3454C15.548 28.9784 16.9237 30.4134 18.7151 31.4427C20.734 32.6007 22.9113 32.9471 25.2173 32.8382C26.2862 32.7887 26.6128 32.5116 26.6623 31.4328C26.692 30.7005 26.781 29.9681 27.1373 29.3149C27.4936 28.6716 28.028 28.5429 28.6516 28.9487C28.9584 29.1565 29.2256 29.404 29.4631 29.6811C30.0668 30.3442 30.6507 31.0271 31.2841 31.6605C32.0759 32.4621 33.0062 32.9372 34.174 32.8382H38.7167C39.4491 32.7887 39.8252 31.8881 39.4095 31.0765C39.1126 30.5025 38.7266 29.9978 38.3208 29.5029C37.3905 28.3846 36.3019 27.4345 35.2627 26.4349C34.3324 25.5244 34.273 24.9998 35.0252 23.9508C35.8466 22.8027 36.7274 21.7042 37.5489 20.566C38.3208 19.4971 39.1126 18.4382 39.5085 17.1615C39.7658 16.3499 39.5382 15.9936 38.7068 15.8452C38.5584 15.8254 38.4099 15.8254 38.2713 15.8254L33.3328 15.8155C32.7291 15.8056 32.3926 16.0728 32.1749 16.6072C31.8878 17.3396 31.581 18.0621 31.2346 18.7648C30.4528 20.3582 29.572 21.9021 28.3447 23.2085C28.0775 23.4955 27.7707 23.8617 27.3155 23.7132C26.7513 23.5054 26.5831 22.5751 26.593 22.2584V16.5578C26.4841 15.7462 26.306 15.38 25.4944 15.2217H20.3678C19.685 15.2217 19.3386 15.4889 18.9724 15.9145C18.7645 16.1619 18.6953 16.3202 19.1307 16.4093C19.9819 16.5677 20.4668 17.1219 20.5856 17.973C20.7934 19.3388 20.7736 20.7046 20.6549 22.0802C20.6252 22.4761 20.5559 22.8819 20.3975 23.2481C20.1501 23.832 19.7443 23.9508 19.2198 23.5945C18.7448 23.2679 18.4083 22.8027 18.0817 22.3475C16.8544 20.6056 15.8746 18.7351 15.073 16.7656C14.8454 16.1916 14.4396 15.8551 13.8359 15.8452C12.3513 15.8254 10.8668 15.8155 9.39217 15.8452C8.50145 15.865 8.23424 16.2905 8.60042 17.1021C10.1938 20.6749 11.9951 24.1685 14.3406 27.3454Z" fill="#9AD0C7"/>
<path d="M24.01 1.14795C11.3716 1.14795 1.11841 11.3912 1.11841 24.0296C1.11841 36.6679 11.3617 46.9211 24.01 46.9211C36.6582 46.9211 46.9015 36.6778 46.9015 24.0296C46.9015 11.4011 36.6483 1.14795 24.01 1.14795ZM24.01 44.5657C12.6681 44.5657 3.48377 35.3714 3.48377 24.0395C3.48377 12.7075 12.678 3.51331 24.01 3.51331C35.3419 3.51331 44.5361 12.6976 44.5361 24.0395C44.5361 35.3813 35.3518 44.5657 24.01 44.5657Z" fill="#F5F5F5"/>
</svg>
