<svg width="40" height="41" viewBox="0 0 40 41" fill="none" xmlns="http://www.w3.org/2000/svg">
<path d="M29.6372 21.4819L22.2637 28.8554L20.8661 27.506L26.6011 21.7711H9.44446V19.8434H26.6011L20.8661 14.1084L22.2637 12.759L29.6372 20.1325L30.2637 20.8072L29.6372 21.4819Z" fill="white"/>
<path fill-rule="evenodd" clip-rule="evenodd" d="M20 41C31.0361 41 40 31.9398 40 20.8072C40 9.6747 31.0361 0.614456 20 0.614456C8.96386 0.614456 0 9.6747 0 20.8072C0 31.9398 8.96386 41 20 41ZM19.9512 39.0723C10.0234 39.0723 1.92706 30.8795 1.92706 20.8072C1.92706 10.7349 10.0234 2.54214 19.9994 2.54214C29.9753 2.54214 38.0234 10.7349 38.0234 20.8072C38.0234 30.8795 29.9271 39.0723 19.9512 39.0723Z" fill="white"/>
</svg>
