<svg width="43" height="40" viewBox="0 0 43 40" fill="none" xmlns="http://www.w3.org/2000/svg">
<g clip-path="url(#clip0)">
<path d="M32.2536 17.7904H10.0131C9.71801 17.7904 9.43503 17.6732 9.22639 17.4645C9.01775 17.2559 8.90057 16.9729 8.90057 16.6778C8.90057 16.3828 9.01775 16.0998 9.22639 15.8912C9.43503 15.6825 9.71801 15.5653 10.0131 15.5653H32.2536C32.5487 15.5653 32.8317 15.6825 33.0403 15.8912C33.249 16.0998 33.3662 16.3828 33.3662 16.6778C33.3662 16.9729 33.249 17.2559 33.0403 17.4645C32.8317 17.6732 32.5487 17.7904 32.2536 17.7904Z" fill="#FF671B"/>
<path d="M25.5784 24.4759H10.0131C9.71801 24.4759 9.43503 24.3587 9.22639 24.1501C9.01775 23.9414 8.90057 23.6584 8.90057 23.3634C8.90057 23.0683 9.01775 22.7853 9.22639 22.5767C9.43503 22.3681 9.71801 22.2509 10.0131 22.2509H25.5784C25.8735 22.2509 26.1564 22.3681 26.3651 22.5767C26.5737 22.7853 26.6909 23.0683 26.6909 23.3634C26.6909 23.6584 26.5737 23.9414 26.3651 24.1501C26.1564 24.3587 25.8735 24.4759 25.5784 24.4759Z" fill="#FF671B"/>
<path d="M32.2536 11.146H10.0131C9.71801 11.146 9.43503 11.0288 9.22639 10.8202C9.01775 10.6115 8.90057 10.3286 8.90057 10.0335C8.90057 9.73842 9.01775 9.45545 9.22639 9.24681C9.43503 9.03816 9.71801 8.92096 10.0131 8.92096H32.2536C32.5487 8.92096 32.8317 9.03816 33.0403 9.24681C33.249 9.45545 33.3662 9.73842 33.3662 10.0335C33.3662 10.3286 33.249 10.6115 33.0403 10.8202C32.8317 11.0288 32.5487 11.146 32.2536 11.146Z" fill="#FF671B"/>
<path d="M1.11256 40C0.960209 39.9989 0.809552 39.9674 0.669551 39.9073C0.469921 39.8192 0.30031 39.6749 0.181396 39.4919C0.0624809 39.309 -0.000547368 39.0953 3.58133e-06 38.8771V4.40896C3.58133e-06 3.23963 0.464536 2.11818 1.29138 1.29134C2.11822 0.464502 3.2396 0 4.40893 0H37.8573C39.0267 0 40.1481 0.464502 40.9749 1.29134C41.8018 2.11818 42.2663 3.23963 42.2663 4.40896V28.9982C42.2663 30.1675 41.8018 31.289 40.9749 32.1158C40.1481 32.9426 39.0267 33.4072 37.8573 33.4072H8.69431L1.87485 39.7425C1.66686 39.9336 1.39501 40.0401 1.11256 40.0412V40ZM4.36775 2.21478C3.78855 2.21478 3.23305 2.44487 2.8235 2.85443C2.41394 3.26398 2.18388 3.81945 2.18388 4.39865V36.3327L7.45814 31.4293C7.66388 31.2346 7.9372 31.1275 8.22043 31.1306H37.8161C38.3953 31.1306 38.9508 30.9005 39.3603 30.4909C39.7699 30.0814 40 29.5259 40 28.9467V4.40896C40 3.82976 39.7699 3.27426 39.3603 2.86471C38.9508 2.45515 38.3953 2.22509 37.8161 2.22509L4.36775 2.21478Z" fill="#7C7D7F"/>
</g>
<defs>
<clipPath id="clip0">
<rect width="42.256" height="40" fill="white"/>
</clipPath>
</defs>
</svg>
