<svg width="43" height="40" viewBox="0 0 43 40" fill="none" xmlns="http://www.w3.org/2000/svg">
<g clip-path="url(#clip0)">
<path d="M24.3783 18.9469H17.7377C17.4584 18.9469 17.1905 18.8359 16.993 18.6384C16.7955 18.4409 16.6846 18.173 16.6846 17.8937C16.6846 17.6144 16.7955 17.3465 16.993 17.149C17.1905 16.9515 17.4584 16.8406 17.7377 16.8406H24.3783C24.6576 16.8406 24.9255 16.9515 25.123 17.149C25.3205 17.3465 25.4315 17.6144 25.4315 17.8937C25.4315 18.173 25.3205 18.4409 25.123 18.6384C24.9255 18.8359 24.6576 18.9469 24.3783 18.9469Z" fill="#7C7D7F"/>
<path d="M24.3783 23.1887H17.7377C17.4584 23.1887 17.1905 23.0777 16.993 22.8802C16.7955 22.6827 16.6846 22.4149 16.6846 22.1356C16.6846 21.8562 16.7955 21.5884 16.993 21.3909C17.1905 21.1934 17.4584 21.0824 17.7377 21.0824H24.3783C24.6576 21.0824 24.9255 21.1934 25.123 21.3909C25.3205 21.5884 25.4315 21.8562 25.4315 22.1356C25.4315 22.4149 25.3205 22.6827 25.123 22.8802C24.9255 23.0777 24.6576 23.1887 24.3783 23.1887Z" fill="#7C7D7F"/>
<path d="M31.5844 23.686C30.855 23.686 30.142 23.4696 29.5356 23.0641C28.9292 22.6587 28.4568 22.0824 28.1781 21.4083C27.8994 20.7342 27.827 19.9926 27.97 19.2773C28.113 18.562 28.465 17.9053 28.9815 17.3902C29.498 16.8751 30.1557 16.5248 30.8713 16.3836C31.587 16.2425 32.3284 16.3169 33.0018 16.5974C33.6751 16.8779 34.2501 17.3518 34.654 17.9593C35.0578 18.5667 35.2724 19.2803 35.2705 20.0098C35.2679 20.9857 34.8784 21.9207 34.1874 22.6098C33.4964 23.299 32.5603 23.686 31.5844 23.686ZM31.5844 18.43C31.272 18.43 30.9666 18.5227 30.7068 18.6963C30.447 18.8699 30.2446 19.1166 30.125 19.4052C30.0054 19.6939 29.9741 20.0115 30.0351 20.3179C30.096 20.6244 30.2465 20.9059 30.4674 21.1268C30.6883 21.3477 30.9698 21.4982 31.2762 21.5591C31.5827 21.6201 31.9003 21.5888 32.1889 21.4692C32.4776 21.3497 32.7243 21.1472 32.8979 20.8874C33.0715 20.6276 33.1641 20.3222 33.1641 20.0098C33.1641 19.5908 32.9977 19.189 32.7014 18.8927C32.4052 18.5965 32.0034 18.43 31.5844 18.43Z" fill="#7C7D7F"/>
<path d="M10.5705 23.686C9.84066 23.6879 9.12665 23.4731 8.519 23.0689C7.91135 22.6646 7.43737 22.089 7.15718 21.4151C6.87699 20.7412 6.8032 19.9992 6.94512 19.2833C7.08703 18.5674 7.43827 17.9097 7.95436 17.3936C8.47044 16.8775 9.12811 16.5263 9.84404 16.3843C10.56 16.2424 11.3019 16.3163 11.9758 16.5965C12.6498 16.8767 13.2254 17.3506 13.6296 17.9583C14.0339 18.5659 14.2487 19.2799 14.2468 20.0098C14.2468 20.9848 13.8594 21.9198 13.17 22.6092C12.4806 23.2987 11.5455 23.686 10.5705 23.686ZM10.5705 18.43C10.2581 18.43 9.95264 18.5227 9.69286 18.6963C9.43308 18.8698 9.23058 19.1166 9.11102 19.4052C8.99145 19.6939 8.96019 20.0115 9.02115 20.3179C9.0821 20.6244 9.23255 20.9059 9.45348 21.1268C9.67441 21.3477 9.95589 21.4982 10.2623 21.5591C10.5688 21.6201 10.8864 21.5888 11.175 21.4692C11.4637 21.3497 11.7104 21.1472 11.884 20.8874C12.0576 20.6276 12.1502 20.3222 12.1502 20.0098C12.1515 19.8019 12.1115 19.5959 12.0326 19.4037C11.9537 19.2114 11.8374 19.0368 11.6904 18.8898C11.5435 18.7429 11.3688 18.6266 11.1766 18.5477C10.9843 18.4687 10.7783 18.4287 10.5705 18.43Z" fill="#7C7D7F"/>
<path d="M30.0732 8.42517C32.7087 8.43289 35.2341 9.48328 37.0978 11.3469C38.9614 13.2105 40.0118 15.736 40.0195 18.3715V27.9571C40.0118 30.5927 38.9614 33.1181 37.0978 34.9817C35.2341 36.8454 32.7087 37.8957 30.0732 37.9035H12.0527C9.41714 37.8957 6.89173 36.8454 5.02809 34.9817C3.16446 33.1181 2.11404 30.5927 2.10632 27.9571V18.3715C2.11404 15.736 3.16446 13.2105 5.02809 11.3469C6.89173 9.48328 9.41714 8.43289 12.0527 8.42517H30.0732ZM30.0732 6.31888H12.0527C8.85772 6.32404 5.79507 7.59553 3.53587 9.85472C1.27668 12.1139 0.00515736 15.1765 0 18.3715V27.9571C0.00515736 31.1521 1.27668 34.2147 3.53587 36.4739C5.79507 38.7331 8.85772 40.0046 12.0527 40.0098H30.0732C33.2689 40.0072 36.3331 38.7365 38.5928 36.4768C40.8526 34.217 42.1232 31.1529 42.1258 27.9571V18.3715C42.1232 15.1758 40.8526 12.1116 38.5928 9.85186C36.3331 7.59211 33.2689 6.32146 30.0732 6.31888Z" fill="#7C7D7F"/>
<path d="M10.5704 8.56168C10.2911 8.56168 10.0233 8.45073 9.82575 8.25323C9.62825 8.05572 9.51727 7.78786 9.51727 7.50854V1.05316C9.51727 0.77385 9.62825 0.505982 9.82575 0.308479C10.0233 0.110976 10.2911 0 10.5704 0C10.8497 0 11.1176 0.110976 11.3151 0.308479C11.5126 0.505982 11.6236 0.77385 11.6236 1.05316V7.50854C11.6236 7.64685 11.5964 7.78379 11.5434 7.91157C11.4905 8.03934 11.4129 8.15543 11.3151 8.25323C11.2173 8.35102 11.1012 8.42858 10.9734 8.48151C10.8457 8.53443 10.7087 8.56168 10.5704 8.56168Z" fill="#7C7D7F"/>
<path d="M31.5847 8.56168C31.3053 8.56168 31.0375 8.45073 30.84 8.25323C30.6425 8.05572 30.5315 7.78786 30.5315 7.50854V1.05316C30.5315 0.91486 30.5587 0.777912 30.6117 0.650139C30.6646 0.522366 30.7422 0.406273 30.84 0.308479C30.9378 0.210685 31.0539 0.133096 31.1817 0.08017C31.3094 0.0272445 31.4464 0 31.5847 0C31.723 0 31.8599 0.0272445 31.9877 0.08017C32.1155 0.133096 32.2315 0.210685 32.3293 0.308479C32.4271 0.406273 32.5047 0.522366 32.5576 0.650139C32.6106 0.777912 32.6378 0.91486 32.6378 1.05316V7.50854C32.6378 7.78786 32.5268 8.05572 32.3293 8.25323C32.1318 8.45073 31.864 8.56168 31.5847 8.56168Z" fill="#7C7D7F"/>
<path d="M21.0434 34.0224C19.3384 34.0268 17.6495 33.693 16.0744 33.0402C14.4993 32.3874 13.0694 31.4286 11.8674 30.2194C11.6872 30.0194 11.5904 29.7579 11.597 29.4888C11.6036 29.2197 11.713 28.9633 11.9027 28.7723C12.0925 28.5813 12.3482 28.4702 12.6172 28.4619C12.8863 28.4535 13.1483 28.5486 13.3495 28.7275C14.3594 29.7388 15.5587 30.5411 16.8789 31.0885C18.199 31.6359 19.6142 31.9176 21.0434 31.9176C22.4725 31.9176 23.8877 31.6359 25.2079 31.0885C26.528 30.5411 27.7274 29.7388 28.7372 28.7275C28.833 28.6211 28.9496 28.5353 29.0797 28.4755C29.2098 28.4157 29.3508 28.383 29.494 28.3795C29.6371 28.376 29.7795 28.4017 29.9124 28.4551C30.0452 28.5085 30.1659 28.5885 30.2668 28.6901C30.3677 28.7917 30.4469 28.9128 30.4994 29.046C30.5519 29.1793 30.5767 29.3218 30.5723 29.4649C30.5679 29.6081 30.5343 29.7488 30.4736 29.8786C30.4129 30.0083 30.3264 30.1243 30.2194 30.2194C29.0174 31.4286 27.5874 32.3874 26.0124 33.0402C24.4373 33.693 22.7484 34.0268 21.0434 34.0224Z" fill="#FF671B"/>
</g>
<defs>
<clipPath id="clip0">
<rect width="42.1063" height="40" fill="white"/>
</clipPath>
</defs>
</svg>
