<svg width="30" height="30" viewBox="0 0 30 30" fill="none" xmlns="http://www.w3.org/2000/svg">
<path d="M22.2305 15.5012L16.7004 20.9785L15.6522 19.9761L19.9534 15.716H7.08594V14.284H19.9534L15.6522 10.0239L16.7004 9.02147L22.2305 14.4988L22.7004 15L22.2305 15.5012Z" fill="#FF671B"/>
<path fill-rule="evenodd" clip-rule="evenodd" d="M15 30C23.2771 30 30 23.2697 30 15C30 6.73031 23.2771 0 15 0C6.72289 0 0 6.73031 0 15C0 23.2697 6.72289 30 15 30ZM14.9634 28.568C7.5176 28.568 1.44531 22.4821 1.44531 15C1.44531 7.51787 7.5176 1.43196 14.9995 1.43196C22.4815 1.43196 28.5176 7.51787 28.5176 15C28.5176 22.4821 22.4453 28.568 14.9634 28.568Z" fill="#FF671B"/>
</svg>
