<svg width="44" height="39" viewBox="0 0 44 39" fill="none" xmlns="http://www.w3.org/2000/svg">
<g clip-path="url(#clip0)">
<path d="M42.11 20.51H24.83C24.5436 20.51 24.2689 20.3962 24.0663 20.1937C23.8638 19.9911 23.75 19.7164 23.75 19.43C23.75 19.1436 23.8638 18.8689 24.0663 18.6663C24.2689 18.4638 24.5436 18.35 24.83 18.35H42.11C42.3964 18.35 42.6711 18.4638 42.8736 18.6663C43.0762 18.8689 43.19 19.1436 43.19 19.43C43.19 19.7164 43.0762 19.9911 42.8736 20.1937C42.6711 20.3962 42.3964 20.51 42.11 20.51Z" fill="#7C7D7F"/>
<path d="M18.32 20.51H1.08001C0.793576 20.51 0.518877 20.3962 0.316338 20.1937C0.113798 19.9911 -7.62939e-06 19.7164 -7.62939e-06 19.43C-7.62939e-06 19.1436 0.113798 18.8689 0.316338 18.6663C0.518877 18.4638 0.793576 18.35 1.08001 18.35H18.32C18.6064 18.35 18.8811 18.4638 19.0837 18.6663C19.2862 18.8689 19.4 19.1436 19.4 19.43C19.4 19.7164 19.2862 19.9911 19.0837 20.1937C18.8811 20.3962 18.6064 20.51 18.32 20.51Z" fill="#7C7D7F"/>
<path d="M30.23 8.63C29.9751 8.63086 29.7282 8.54067 29.5339 8.37567C29.3396 8.21067 29.2105 7.9817 29.17 7.73001L28.24 2.14999H14.94L14.02 7.69C13.9982 7.8304 13.9486 7.96505 13.8742 8.08609C13.7998 8.20713 13.7021 8.31214 13.5866 8.39499C13.4712 8.47784 13.3404 8.53687 13.2019 8.56863C13.0634 8.6004 12.92 8.60427 12.78 8.58002C12.4977 8.53342 12.2453 8.37666 12.0784 8.14416C11.9116 7.91167 11.8438 7.62242 11.89 7.33999L12.82 1.75C12.9051 1.24931 13.1646 0.79489 13.5526 0.467253C13.9407 0.139616 14.4322 -0.040094 14.94 -0.0400104H28.25C28.7579 -0.040094 29.2494 0.139616 29.6374 0.467253C30.0254 0.79489 30.285 1.24931 30.37 1.75L31.3 7.33999C31.3462 7.62242 31.2785 7.91167 31.1116 8.14416C30.9447 8.37666 30.6924 8.53342 30.41 8.58002H30.23" fill="#FF671B"/>
<path d="M39.97 38.86H3.22002C2.36776 38.86 1.55023 38.5221 0.946648 37.9204C0.343067 37.3187 0.00263916 36.5023 -7.62939e-06 35.65V11.83C0.00263561 10.4119 0.56713 9.05264 1.56988 8.04989C2.57262 7.04715 3.93193 6.48265 5.35003 6.48001H37.84C39.2581 6.48265 40.6174 7.04715 41.6201 8.04989C42.6229 9.05264 43.1874 10.4119 43.19 11.83V35.69C43.1873 36.5423 42.8469 37.3587 42.2433 37.9604C41.6398 38.5621 40.8223 38.9 39.97 38.9V38.86ZM5.32 8.63C4.47304 8.63265 3.66167 8.97097 3.06371 9.5708C2.46576 10.1706 2.12999 10.9831 2.13 11.83V35.69C2.14551 35.9659 2.26813 36.2248 2.47173 36.4116C2.67533 36.5983 2.94385 36.6983 3.22002 36.69H39.97C40.2494 36.69 40.5175 36.5797 40.716 36.3831C40.9145 36.1865 41.0274 35.9194 41.03 35.64V11.83C41.03 10.9831 40.6943 10.1706 40.0963 9.5708C39.4984 8.97097 38.687 8.63265 37.84 8.63H5.32Z" fill="#7C7D7F"/>
<path d="M21.6 23.32C20.852 23.322 20.1202 23.102 19.4972 22.6878C18.8743 22.2737 18.3883 21.684 18.1006 20.9935C17.813 20.303 17.7367 19.5426 17.8814 18.8087C18.0261 18.0748 18.3854 17.4003 18.9136 16.8707C19.4419 16.3411 20.1153 15.98 20.8489 15.8334C21.5824 15.6867 22.3429 15.761 23.0342 16.0468C23.7255 16.3326 24.3164 16.8171 24.7322 17.4389C25.148 18.0607 25.37 18.792 25.37 19.54C25.37 20.5408 24.9731 21.5008 24.2664 22.2094C23.5597 22.918 22.6008 23.3174 21.6 23.32ZM21.6 17.92C21.2796 17.92 20.9664 18.015 20.7 18.193C20.4336 18.371 20.2259 18.624 20.1033 18.92C19.9807 19.2161 19.9486 19.5418 20.0111 19.856C20.0736 20.1703 20.2279 20.459 20.4545 20.6855C20.681 20.9121 20.9697 21.0664 21.2839 21.1289C21.5982 21.1914 21.9239 21.1593 22.22 21.0367C22.516 20.9141 22.7689 20.7064 22.9469 20.44C23.125 20.1736 23.22 19.8604 23.22 19.54C23.22 19.1104 23.0493 18.6983 22.7455 18.3945C22.4417 18.0907 22.0297 17.92 21.6 17.92Z" fill="#FF671B"/>
</g>
<defs>
<clipPath id="clip0">
<rect width="43.18" height="38.86" fill="white"/>
</clipPath>
</defs>
</svg>
