<svg width="40" height="40" viewBox="0 0 40 40" fill="none" xmlns="http://www.w3.org/2000/svg">
<g clip-path="url(#clip0)">
<path d="M27.5553 40C26.5223 39.9985 25.4905 39.9263 24.4673 39.7838C18.385 38.8414 12.7724 35.952 8.47148 31.5492C4.07088 27.2425 1.18207 21.6273 0.236789 15.543C-0.52492 9.98455 0.772056 4.85846 3.78801 1.46165C4.18646 1.00463 4.68091 0.641254 5.23608 0.39748C5.79125 0.153705 6.39341 0.0355541 6.99953 0.0514672C7.72415 0.142143 8.42046 0.388771 9.04062 0.774371C9.66077 1.15997 10.19 1.6754 10.5919 2.28514C12.3521 4.53939 13.8858 6.6804 15.1828 8.52291C15.5051 8.90971 15.7438 9.3591 15.8837 9.84276C16.0237 10.3264 16.0619 10.8338 15.9959 11.333C15.8188 11.9139 15.5284 12.4541 15.1415 12.9223C14.7546 13.3904 14.2789 13.7774 13.7417 14.0607L9.99487 16.49C11.0908 19.6155 12.9109 22.4373 15.3063 24.7247C17.5907 27.1212 20.4137 28.9385 23.541 30.0257L25.9599 26.2892C26.2449 25.7514 26.6336 25.2753 27.1035 24.8884C27.5734 24.5015 28.1153 24.2114 28.6979 24.035C29.198 23.9674 29.7066 24.0039 30.192 24.142C30.6773 24.2802 31.1288 24.5171 31.5183 24.8379C33.4432 26.2069 35.5122 27.6789 37.6943 29.4287C38.3032 29.8316 38.8178 30.3611 39.2033 30.9811C39.5888 31.601 39.836 32.2969 39.928 33.0211C39.9454 33.6289 39.828 34.2331 39.5842 34.7901C39.3404 35.3472 38.9762 35.8434 38.5178 36.2429C35.4314 38.7891 31.5237 40.1246 27.5245 40H27.5553ZM10.0258 29.9743C19.0839 39.0324 31.3022 39.6706 37.0459 34.596C37.2635 34.4128 37.4407 34.1865 37.5665 33.9314C37.6923 33.6763 37.7638 33.3979 37.7766 33.1137C37.691 32.7087 37.5248 32.325 37.2878 31.9855C37.0508 31.6459 36.748 31.3576 36.3974 31.1374C34.1946 29.4184 32.1462 27.9568 30.2214 26.6083C29.9066 26.3421 29.5113 26.1898 29.0993 26.176C28.7597 26.2378 28.3376 26.6598 27.8127 27.4627L24.9512 31.8786C24.8328 32.0609 24.663 32.2042 24.4634 32.2903C24.2637 32.3764 24.043 32.4015 23.8292 32.3623C23.6233 32.3623 18.8986 31.4256 13.7314 26.2481C8.58469 21.1014 7.66859 16.3664 7.62741 16.1709C7.58714 15.9544 7.61266 15.7308 7.70073 15.529C7.7888 15.3271 7.93536 15.1563 8.12148 15.0386L12.5168 12.1153C13.3094 11.5903 13.7314 11.1683 13.7931 10.8286C13.7854 10.4185 13.6322 10.0245 13.3608 9.71695C12.0742 7.89502 10.561 5.77459 8.83172 3.54093C8.61057 3.19219 8.32172 2.89134 7.98225 2.65619C7.64279 2.42104 7.25964 2.25635 6.85541 2.1719C6.5705 2.18086 6.29083 2.25071 6.03516 2.37677C5.77949 2.50283 5.55376 2.68216 5.37317 2.90272C0.298539 8.64641 0.936727 20.8646 10.0052 29.9228L10.0258 29.9743Z" fill="#7C7D7F"/>
<path d="M34.6782 14.4313H25.5582C25.2634 14.4313 24.9807 14.3142 24.7722 14.1057C24.5637 13.8972 24.4466 13.6145 24.4466 13.3196V4.19968C24.4466 3.90485 24.5637 3.62209 24.7722 3.41361C24.9807 3.20513 25.2634 3.08801 25.5582 3.08801C25.8531 3.08801 26.1358 3.20513 26.3443 3.41361C26.5528 3.62209 26.6699 3.90485 26.6699 4.19968V12.2079H34.6782C34.9731 12.2079 35.2558 12.325 35.4643 12.5335C35.6728 12.742 35.7899 13.0248 35.7899 13.3196C35.7899 13.6145 35.6728 13.8972 35.4643 14.1057C35.2558 14.3142 34.9731 14.4313 34.6782 14.4313Z" fill="#FF671B"/>
<path d="M26.166 13.824C26.0203 13.8235 25.8761 13.7942 25.7418 13.7377C25.6076 13.6811 25.4858 13.5985 25.3837 13.4946C25.2791 13.3929 25.196 13.2713 25.1392 13.1369C25.0825 13.0025 25.0532 12.8581 25.0532 12.7123C25.0532 12.5664 25.0825 12.422 25.1392 12.2877C25.196 12.1533 25.2791 12.0317 25.3837 11.93L36.5829 0.730824C36.6845 0.62624 36.8062 0.543105 36.9405 0.486338C37.0749 0.429571 37.2193 0.40033 37.3652 0.40033C37.511 0.40033 37.6554 0.429571 37.7898 0.486338C37.9242 0.543105 38.0458 0.62624 38.1475 0.730824C38.2508 0.833223 38.3328 0.955067 38.3888 1.08934C38.4448 1.22361 38.4735 1.36766 38.4735 1.51313C38.4735 1.6586 38.4448 1.80262 38.3888 1.93689C38.3328 2.07116 38.2508 2.193 38.1475 2.2954L26.9277 13.4946C26.8256 13.5985 26.7038 13.6811 26.5695 13.7377C26.4352 13.7942 26.2911 13.8235 26.1454 13.824" fill="#FF671B"/>
</g>
<defs>
<clipPath id="clip0">
<rect width="40" height="40" fill="white"/>
</clipPath>
</defs>
</svg>
