<svg width="15" height="18" viewBox="0 0 15 18" fill="none" xmlns="http://www.w3.org/2000/svg">
<path fill-rule="evenodd" clip-rule="evenodd" d="M10.3611 9.702C11.8253 8.766 12.7991 7.128 12.7991 5.2668C12.7991 2.3616 10.4333 0 7.52292 0C4.61257 0 2.24678 2.3616 2.24678 5.2668C2.24678 7.1316 3.22411 8.766 4.6883 9.7056C2.31169 10.9008 0 13.2444 0 15.2928C0 17.7372 5.21844 18 7.46161 18C9.70478 18 14.9268 17.7372 14.9268 15.2928C14.9304 13.2084 12.7017 10.89 10.3611 9.702ZM7.52313 1.79278C9.44173 1.79278 11.0033 3.35158 11.0033 5.26678C11.0033 7.18198 9.44173 8.74078 7.52313 8.74078C5.60453 8.74078 4.04297 7.18198 4.04297 5.26678C4.04297 3.35158 5.60453 1.79278 7.52313 1.79278ZM1.80005 15.2244C2.12823 15.5844 4.0324 16.2072 7.46568 16.2072C10.9026 16.2072 12.8067 15.5844 13.1349 15.2244C13.0448 13.3776 9.43116 10.6992 7.52338 10.6992C5.57593 10.6992 1.89381 13.3776 1.80005 15.2244Z" fill="#FF671B"/>
</svg>
