<?xml version="1.0" encoding="UTF-8"?> <svg xmlns="http://www.w3.org/2000/svg" xmlns:xlink="http://www.w3.org/1999/xlink" viewBox="0 0 35.61 97.5"> <defs> <style>.cls-1{opacity:0.14;}.cls-2{fill:#fcc142;}.cls-3{fill:#4a3b39;}.cls-4{fill:#2e3192;}.cls-5{fill:#f9cfad;}.cls-6{fill:#f9cfac;}.cls-7{fill:#facbaa;}.cls-8{fill:#553a31;}.cls-9{fill:#ea990a;}.cls-10{fill:#2f313f;}.cls-11{fill:#f9cca8;}.cls-12{fill:url(#Безымянный_градиент_16);}.cls-13{fill:url(#Безымянный_градиент_16-2);}.cls-14{fill:#dad3be;}</style> <linearGradient id="Безымянный_градиент_16" x1="11.69" y1="61" x2="19.55" y2="61" gradientUnits="userSpaceOnUse"> <stop offset="0" stop-color="#10afba"></stop> <stop offset="1" stop-color="#29abe2"></stop> </linearGradient> <linearGradient id="Безымянный_градиент_16-2" x1="13.07" y1="52.34" x2="17.17" y2="52.34" xlink:href="#Безымянный_градиент_16"></linearGradient> </defs> <title>женщина право желтая</title> <g id="Слой_2" data-name="Слой 2"> <g id="Слой_11" data-name="Слой 11"> <ellipse class="cls-1" cx="17.81" cy="88.53" rx="17.81" ry="8.97"></ellipse> <path class="cls-2" d="M24.14,59.39a5.62,5.62,0,0,0,1.58-7.1,66.58,66.58,0,0,1-2.11-6.87,18.83,18.83,0,0,1-.14-11.71c1.47-4.36-.13-8.49-.6-12.71a15.62,15.62,0,0,0-.81-1.44c-.88-.92-1.66-2.25-3.16-.83.05,2-1.33,2-2.71,2s-1,2.35-2.62,1.75C12.24,21.87,11,21,9.42,21.62a1.07,1.07,0,0,0-.5.55,1.09,1.09,0,0,0,.28,1c3.06,1.93,3.71,5.92,1.61,10-.23.44-.6.79-.82,1.24a1.59,1.59,0,0,0,0,.78c.71,2.52.31,5.11.38,7.66a7.65,7.65,0,0,0,2.11,5.65,42.17,42.17,0,0,1,3.84,3.84,8.84,8.84,0,0,1,2.14,5.38A4.68,4.68,0,0,0,20,61.52C22,62,23.14,60.85,24.14,59.39Z"></path> <path class="cls-3" d="M23.2,5.48a8,8,0,0,0-4.87-5,6.47,6.47,0,0,0-9,5.58A50.83,50.83,0,0,1,6.79,19.9a6,6,0,0,0,0,4.14c1.85.51,1.7-1.27,2.38-2.1h0a5.54,5.54,0,0,1,2.94-.08c1.34-.21,1.8-1.34,2.42-2.32a2.6,2.6,0,0,0,.19-.74,59.45,59.45,0,0,1-.34-6.12c.18-4.81,3.24-6.74,7.64-4.77a1.91,1.91,0,0,0,.94.22C23.68,7.32,23.33,6.39,23.2,5.48Z"></path> <path class="cls-4" d="M9.12,48.44c-2.61,3.66-3,8.12-4.34,12.21A2.14,2.14,0,0,0,6,63.5a18.85,18.85,0,0,1,4.65,2.81,1.8,1.8,0,0,0,1,.46c.33.06-.08,0,.25,0,3.77.68,4.38.24,4.28-3.69-.07-2.94.79-6-.57-8.82-1.15-.93-1.11-2.59-2.19-3.55A2.14,2.14,0,0,1,11,49.51C10.47,49,10.21,48,9.12,48.44Z"></path> <path class="cls-5" d="M11.69,66.25l-1,.06a13.46,13.46,0,0,0-.49,5c0,2.46.35,4.21.44,6.31.13,3,.06,6.1.08,9.15,1.67,1.92,2.42,2,4.43.47,0-3.49-.34-8.82-.09-12.48a58.36,58.36,0,0,1,.91-7C14.73,66.52,13.34,66.68,11.69,66.25Z"></path> <path class="cls-6" d="M24.14,59.39c-1.34.64-2.43,1.85-4.06,1.87a1,1,0,0,0-1.06,0c-.79,1.78.11,3.89-1.08,5.59.45,2.36,1,4,1.42,6.32.14.81.25,3.15.42,4.23.25,2.41.2,2.6.47,4.45,1.34,1.15,2.65,1.7,3.85-.17,0-1.64-.67-6.69-.65-8.33a49,49,0,0,1,.26-9.58C23.83,62.35,24,60.85,24.14,59.39Z"></path> <path class="cls-7" d="M9.12,48.44l1.54,1.45a1.73,1.73,0,0,0,2.28-.11c.44-.43.65-.9.21-1.45a7.06,7.06,0,0,1-2-5.61c.06-2,0-3.95,0-5.92,0-.78.28-1.74-1-1.84a3.08,3.08,0,0,0-2.89.36A22.15,22.15,0,0,0,8.75,46,6.37,6.37,0,0,1,9.12,48.44Z"></path> <path class="cls-8" d="M22.15,17.92c-.35-1.63-.75-3.25,0-4.89.18-.54-.17-.64-.59-.67a28.19,28.19,0,0,0-3.46,1.88c-1.18.71-1.87,1.71-.58,3,1.37.75,3.19.49,4.29,1.88C22.45,18.87,22.43,18.44,22.15,17.92Z"></path> <path class="cls-9" d="M7.28,35.32c1,0,2,.35,2.89-.36l0-.51C7.41,32,8.05,28.86,8.45,25.8c.12-1,.89-1.78.73-2.84l-.06-1C8,22.21,8,23.91,6.74,24A38.86,38.86,0,0,0,7.28,35.32Z"></path> <path class="cls-8" d="M21.64,12.55l.5.48c1-2.42,2.09-4.84,1.06-7.55-.34.8.45,1.84-.54,2.5A5.16,5.16,0,0,0,21.64,12.55Z"></path> <path class="cls-8" d="M22.15,17.92c-.12.37,0,.83-.5,1-.39.53.16.73.36,1.06s-.31,1.41.86,1C23.18,19.85,22.58,18.9,22.15,17.92Z"></path> <path class="cls-10" d="M15.14,87.21c-1.53.31-3.06.62-4.43-.47.13,3.57,2.9,5.84,6.62,5.48.6-.06,1.24-.08,1.46-.69s-.26-1.09-.69-1.46C17.06,89.17,15.68,88.62,15.14,87.21Z"></path> <path class="cls-10" d="M24.1,81.67c-1.24.94-2.55.48-3.85.17.49,3.46,2.83,5.33,6.31,5,.55,0,1.24.08,1.41-.68s-.33-1.06-.82-1.39A8.47,8.47,0,0,1,24.1,81.67Z"></path> <path class="cls-11" d="M21.64,12.55a10,10,0,0,0,1-4.57c-1.12-2.21-3.07-1.9-4.92-1.46a4.87,4.87,0,0,0-4,4.69,26.57,26.57,0,0,0,.53,7.85,2,2,0,0,0,1.94,1.87c1,.12,2,1,3,.09.71-.67.23-1.33-.11-2a2.48,2.48,0,0,0-1.33-2.11c-1-1.31-.33-2,.95-2.31A4.79,4.79,0,0,0,21.64,12.55Z"></path> <path class="cls-9" d="M8.71,22.18C5.29,25.7,7,30,7.14,33.94c0,1.49,1.61,1.23,2.71,1.29.37-.06.86,0,1.08-.21,2.05-2,2.29-9.62.53-11.88C10.68,22.15,9.72,22.22,8.71,22.18Z"></path> <path class="cls-9" d="M13.15,48.33c-.06.41-.1.82-.54,1a.78.78,0,0,0,.27,1.23c1.77.83,2.75,2.42,3.8,3.94a35.11,35.11,0,0,1,.86,4.53c.19,1,.2,2.17,1.62,2.33l.92-.13a8.3,8.3,0,0,1-.84-2.55C19.39,53.93,16.41,51.07,13.15,48.33Z"></path> <path class="cls-2" d="M17.71,16.93,19,19c1.61-1.56,1.88,1,3,1-.13-.36-.25-.71-.37-1.06C21,17,19.26,17.13,17.71,16.93Z"></path> <path class="cls-2" d="M16.18,20.93c-.64-.63-1.29-1.25-1.94-1.87-.05.17-.11.33-.17.49-.63.9-.24,1.92-.36,2.88a3.27,3.27,0,0,0-.14.62c.62.39,1.26,1.31,1.64-.25A9.25,9.25,0,0,1,16.18,20.93Z"></path> <path class="cls-2" d="M12,21.55c-1,.1-2-.51-2.89.39,1.62-.2,3,.57,4.43,1.11l.11-.12C13.83,21.63,12.78,21.77,12,21.55Z"></path> <path class="cls-3" d="M12,21.55l1.65,1.38c2-.91,0-2.28.39-3.38C13.09,19.91,13.09,21.26,12,21.55Z"></path> <path class="cls-12" d="M19.16,61.39c-1.48-1.76-.79-4-1.45-6-.18-.51,0-1.15-.54-1.53a1.36,1.36,0,0,0-2,.52c1,4.21.54,8.38-.19,12.57-1.19-.18-2-1.42-3.26-.68a17.31,17.31,0,0,0,4,2.18l2.52-1.74C20.73,65.33,18.88,63.16,19.16,61.39Z"></path> <path class="cls-13" d="M15.14,54.36l2-.52c-1.22-1.3-2.15-2.93-4-3.51-.17.23-.13.4.12.53C13.92,52,13.42,53.78,15.14,54.36Z"></path> <path class="cls-14" d="M13.29,50.86l-.12-.53-.56-1a3.27,3.27,0,0,1-1.95.53C11.35,50.72,11.55,52.88,13.29,50.86Z"></path> </g> </g> </svg> 