<?xml version="1.0" encoding="UTF-8"?> <svg xmlns="http://www.w3.org/2000/svg" viewBox="0 0 43.37 104.33"> <defs> <style>.cls-1{opacity:0.14;}.cls-2{fill:#00b28f;}.cls-3{fill:#2e3192;}.cls-4{fill:#edd3ad;}.cls-5{fill:#755847;}.cls-6{fill:#326f83;}</style> </defs> <title>мужчина лево зеленый</title> <g id="Слой_2" data-name="Слой 2"> <g id="Слой_11" data-name="Слой 11"> <ellipse class="cls-1" cx="21.68" cy="93.42" rx="21.68" ry="10.92"></ellipse> <path class="cls-2" d="M36.08,25.61l.21,1.59c.06,1.06.13,2.13.19,3.2.1,1.93.75,3.91-.39,5.76a18.09,18.09,0,0,1-3.74.1c-2-.35-2.23.54-2,2.17.4,2.91.47,5.89,1.11,8.75.7,3.11,0,6.16.18,9.22-5.81,1.15-11.44,1.06-16.57-2.47a24.86,24.86,0,0,0-2.32-1.28,14.21,14.21,0,0,1-.92-4.36c.55-6.41,1.13-12.82,1.62-19.24.11-1.35.58-3-1.36-3.61H12c-.3-5.08,2.59-9.11,7.38-10.25,1.3.23.94.86.51,1.69a2.81,2.81,0,0,0,.53,3.66c1.12.94,2.44.73,3.78.19,1.87-.77,2.67-2.52,3.9-3.88C31.43,19.18,35.25,21,36.08,25.61Z"></path> <path class="cls-3" d="M12.74,52.65a24.86,24.86,0,0,1,2.32,1.28c5.13,3.53,10.76,3.62,16.57,2.47.55.84.47,2,1.32,2.67.87,4.44.45,8.85-.23,13.26a9.13,9.13,0,0,1-7.27.91c-1.36-1-2.08-2.06-1.22-3.84a1.6,1.6,0,0,0-.77-2.29c.86-1.84.36-3.67-.09-5.49-.19-.78-1.18-1.46-1.37-.59-.45,2-1.76,4.16-.08,6.23L20,71.05c-2.07.1-4.13.1-6-1.06-1.22-1.37-.15-3.11-.75-4.58l0-.23C13.58,61,12.76,56.83,12.74,52.65Z"></path> <path class="cls-4" d="M25.45,73.24a9.13,9.13,0,0,0,7.27-.91,46,46,0,0,1-.15,11.24,3,3,0,0,0,.39,2c0,1.35,0,2.69,0,4C33,95,31.52,93,29.41,93.13c-2.39.2-2.74-1.46-2.9-3.29-.18-2.13-.75-4.22-.56-6.39C25.78,80.05,25.61,76.64,25.45,73.24Z"></path> <path class="cls-4" d="M28.12,16.86c-1.23,1.36-2,3.11-3.9,3.88-1.34.54-2.66.75-3.78-.19a2.81,2.81,0,0,1-.53-3.66c.43-.83.79-1.46-.51-1.69-.76.09-1.49-.69-2-1.56a8.82,8.82,0,0,1-1.6-6.07c2.53.78,5.43-.74,7.78,1.23a.47.47,0,0,0,.48-.07c1.82-2.29,2.28-.71,2.86.93.15.4.81.63,1.24.93-.3,1.08-.64,2.16-.88,3.25s-.53,2.23.54,2.78C28,16.71,28,16.74,28.12,16.86Z"></path> <path class="cls-5" d="M28.16,10.59c-.43-.3-1.09-.53-1.24-.93-.58-1.64-1-3.22-2.86-.93a.47.47,0,0,1-.48.07c-2.35-2-5.25-.45-7.78-1.23-1.17-2.05-.17-3.6,1.2-5A7.25,7.25,0,0,1,24.57.31C29.26,1.65,31.25,7.46,28.16,10.59Z"></path> <path class="cls-4" d="M33,59.07c-.85-.69-.77-1.83-1.32-2.67-.2-3.06.52-6.11-.18-9.22-.64-2.86-.71-5.84-1.11-8.75-.22-1.63,0-2.52,2-2.17a18.09,18.09,0,0,0,3.74-.1c-.52,4.82,0,9.71-.6,14.48-.36,2.74.51,5.82-1.49,8.3Z"></path> <path class="cls-4" d="M14.05,70c1.85,1.16,3.91,1.16,6,1.06L19,82.9c-.27,1.25.41,2.64-.6,3.77-1.43,1-3,.6-4.5.32-.11-.82.08-1.68,0-2.51-.09-3.72-.15-4.46-.28-6.78-.07-1.09,0-2,0-3V73.21Z"></path> <path class="cls-4" d="M12,25.41c1.94.63,1.51,2.29,1.4,3.64-.49,6.42-1.07,12.83-1.62,19.24-3.14-.29-2.61-3-2.13-4.43,1.76-5.12.83-10.45,1.73-15.6.15-.71.28-1,.43-1.62C11.93,26.24,12,25.81,12,25.41Z"></path> <path class="cls-6" d="M24.92,100c-1.59,0-2.05-.22-2.45-1.13a2.18,2.18,0,0,1,.87-2.42c2-1.54,2.7-5.87,6-4.93.54.16,3.05,1,3.54,1.9s-1,2.57-1.7,3.2C29.14,98.37,27,99.84,24.92,100Z"></path> <path class="cls-6" d="M10.91,94.34c-1.6,0-2.06-.21-2.45-1.12a2.17,2.17,0,0,1,.86-2.42c2-1.54,2.7-5.87,6-4.93.54.15,3.06,1,3.55,1.9s-1,2.57-1.7,3.2C15.13,92.75,12.94,94.22,10.91,94.34Z"></path> <path class="cls-6" d="M23.46,67.11l-1.54.15C20.24,65.19,21.55,63,22,61c.19-.87,1.18-.19,1.37.59C23.82,63.44,24.32,65.27,23.46,67.11Z"></path> </g> </g> </svg> 