<?xml version="1.0" encoding="UTF-8"?> <svg xmlns="http://www.w3.org/2000/svg" viewBox="0 0 46.06 34.44"> <defs> <style>.cls-1{fill:#198e4d;}.cls-2{fill:#128450;}.cls-3{fill:#0c7552;}.cls-4{fill:#3aa559;}.cls-5{fill:#46bc64;}.cls-6{fill:#209951;}</style> </defs> <title>Куст 1</title> <g id="Слой_2" data-name="Слой 2"> <g id="Слой_4" data-name="Слой 4"> <g id="куст"> <polygon class="cls-1" points="27.06 8.12 20.63 23.34 35.91 21.59 27.06 8.12"></polygon> <polygon class="cls-2" points="0 17.93 5.24 30.61 20.35 30.16 20.63 23.34 0 17.93"></polygon> <polyline class="cls-3" points="13.87 0 0 17.93 20.63 23.34 27.06 8.12 13.87 0"></polyline> <polyline class="cls-4" points="38.22 2.37 46.06 12.8 35.91 21.59 27.06 8.12 38.22 2.37"></polyline> <polyline class="cls-4" points="35.91 21.59 30.27 34.44 20.35 30.16 20.63 23.34 35.91 21.59"></polyline> <polygon class="cls-5" points="46.06 12.8 42.11 28.58 35.91 21.59 46.06 12.8"></polygon> <polygon class="cls-6" points="42.11 28.58 30.27 34.44 35.91 21.59 42.11 28.58"></polygon> <polyline class="cls-3" points="5.24 30.61 30.27 34.44 20.35 30.16 5.24 30.61"></polyline> <polygon class="cls-5" points="13.87 0 27.06 8.12 38.22 2.37 13.87 0"></polygon> </g> </g> </g> </svg> 