<?xml version="1.0" encoding="UTF-8"?> <svg xmlns="http://www.w3.org/2000/svg" viewBox="0 0 315 129.75"> <defs> <style>.cls-1{fill:#fff;}.cls-2{fill:#fcc142;}.cls-3{fill:#2e3192;}</style> </defs> <title>университет</title> <g id="Слой_2" data-name="Слой 2"> <g id="Слой_8_копия3_" data-name="Слой 8 (копия3)"> <polygon class="cls-1" points="315 96 15.5 96 7.67 100 4 96 4 0 315 0 315 96"></polygon> <polygon class="cls-2" points="311 100 11.5 100 0 129.75 0 100 0 4 311 4 311 100"></polygon> <path class="cls-3" d="M17.07,59V52.84a6.8,6.8,0,0,0,3.33.75,3.38,3.38,0,0,0,3.19-1.81L15.13,35.67h7.95l4.12,9.11,3.7-9.11h7.65l-8.5,18.49a9.59,9.59,0,0,1-4.42,4.9,10,10,0,0,1-3.91.85A9.72,9.72,0,0,1,17.07,59Z"></path> <path class="cls-3" d="M49.13,59.47H41.82V35.67h7.31v8.06H56.4V35.67h7.31v23.8H56.4V50.08H49.13Z"></path> <path class="cls-3" d="M75.24,59.47H69V35.67h7.07V47.5l9.18-11.83h6v23.8h-7V47.74Z"></path> <path class="cls-3" d="M96.59,59.47V35.67h12.07a8.92,8.92,0,0,1,5.44,1.56,5.18,5.18,0,0,1,2.14,4.52,4.38,4.38,0,0,1-.95,2.89,5.9,5.9,0,0,1-1.9,1.64,5.51,5.51,0,0,1,3,2,6.21,6.21,0,0,1,1.5,4.25,6.05,6.05,0,0,1-2.42,5,9.9,9.9,0,0,1-6.32,1.91Zm7.31-18.12v3.19h3.71A1.62,1.62,0,0,0,109.34,43a1.64,1.64,0,0,0-1.73-1.66Zm0,8.29v4h3.84a1.93,1.93,0,0,0,2.18-1.94,2,2,0,0,0-2.18-2Z"></path> <path class="cls-3" d="M141,59.47H122.16V35.67h18.66V42H129.47v2.11h8.91v5.78h-8.91v3.33H141Z"></path> <path class="cls-3" d="M145.48,35.67h11A9.42,9.42,0,0,1,163,37.84,7.52,7.52,0,0,1,163,49a9.42,9.42,0,0,1-6.53,2.17h-3.64v8.3h-7.31Zm7.31,10.2h2.65a2.16,2.16,0,1,0,0-4.25h-2.65Z"></path> <path class="cls-3" d="M172.51,56.51a11.46,11.46,0,0,1-3.87-8.94,11.43,11.43,0,0,1,3.84-8.91,14,14,0,0,1,9.72-3.47,13.12,13.12,0,0,1,6,1.26v6.9a12.1,12.1,0,0,0-5.81-1.56,6.27,6.27,0,0,0-4.49,1.66,5.67,5.67,0,0,0,.07,8.3,6.94,6.94,0,0,0,4.69,1.6,10,10,0,0,0,5.88-1.7v7a14,14,0,0,1-6.29,1.26A14.23,14.23,0,0,1,172.51,56.51Z"></path> <path class="cls-3" d="M199.64,59.47h-6.22V35.67h7.07V47.5l9.18-11.83h6v23.8h-7V47.74Z"></path> <path class="cls-3" d="M219.94,42V35.67h20.91V42H234V59.47h-7.31V42Z"></path> <path class="cls-3" d="M264,59.47H245.1V35.67h18.67V42H252.41v2.11h8.91v5.78h-8.91v3.33H264Z"></path> <path class="cls-3" d="M267.37,42V35.67h20.91V42h-6.83V59.47h-7.31V42Z"></path> </g> </g> </svg> 