<?xml version="1.0" encoding="UTF-8"?> <svg xmlns="http://www.w3.org/2000/svg" xmlns:xlink="http://www.w3.org/1999/xlink" viewBox="0 0 1384.47 1094.89"> <defs> <style>.cls-1{fill:url(#Безымянный_градиент_5);}.cls-2{fill:#2e3192;}.cls-3{fill:#4d4d4d;}.cls-4{fill:#3aa559;}.cls-5{fill:url(#Безымянный_градиент_85);}.cls-6{fill:#736357;}.cls-7{fill:#a67c52;}.cls-8{fill:#128450;}.cls-9{fill:#46bc64;}.cls-10{fill:#198e4d;}.cls-11{fill:#0c7552;}.cls-12{fill:#209951;}.cls-13,.cls-14{fill:#0d6042;}.cls-13{opacity:0.38;}.cls-15{fill:#bde5f4;}.cls-16{fill:#20245b;}.cls-17{fill:#63b3c9;}.cls-18{fill:#999;}.cls-19{fill:#e6e6e6;}.cls-20{fill:#e03f3f;}.cls-21{fill:#ea990a;}.cls-22{fill:#e1f5ff;}.cls-23{fill:#5158a8;}.cls-24{fill:#7fceea;}.cls-25{fill:#ff6464;}.cls-26{fill:#fcc142;}.cls-27{fill:url(#Безымянный_градиент_95);}.cls-28{fill:#ccc;}.cls-29{fill:#b3b3b3;}.cls-30{fill:#fff;}.cls-31{fill:#66cc5a;}</style> <linearGradient id="Безымянный_градиент_5" x1="511.15" y1="381.59" x2="873.31" y2="1008.87" gradientUnits="userSpaceOnUse"> <stop offset="0" stop-color="#2e3192"></stop> <stop offset="1" stop-color="#29abe2"></stop> </linearGradient> <linearGradient id="Безымянный_градиент_85" x1="155.03" y1="789.95" x2="880.71" y2="789.95" gradientUnits="userSpaceOnUse"> <stop offset="0" stop-color="#191c78"></stop> <stop offset="1" stop-color="#6165d9"></stop> </linearGradient> <linearGradient id="Безымянный_градиент_95" x1="745" y1="703.05" x2="780.58" y2="55.51" gradientUnits="userSpaceOnUse"> <stop offset="0" stop-color="#6dc7b7"></stop> <stop offset="1" stop-color="#2ba672"></stop> </linearGradient> </defs> <title>Университет</title> <g id="Слой_2" data-name="Слой 2"> <g id="Макетирование"> <g id="Слой_14" data-name="Слой 14"> <path class="cls-1" d="M22.62,726.7l615.1,355.13c30.16,17.41,79,17.42,109.21,0l614.92-355c30.16-17.41,30.16-45.64,0-63L746.74,308.63c-30.15-17.41-79-17.41-109.2,0l-614.92,355C-7.54,681.06-7.54,709.29,22.62,726.7Z"></path> <path class="cls-2" d="M22.62,695.18l615.1,355.13c30.16,17.41,79,17.41,109.21,0l614.92-355c30.16-17.41,30.16-45.64,0-63L746.74,277.1c-30.15-17.41-79-17.41-109.2,0l-614.92,355C-7.54,649.54-7.54,677.77,22.62,695.18Z"></path> <path class="cls-3" d="M1162.57,607.75,1037,535.23c-1.13-.65-1-1.79.32-2.55l35-20.19a4.93,4.93,0,0,1,4.43-.18l125.6,72.52c1.13.65,1,1.79-.32,2.55l-35,20.19A4.93,4.93,0,0,1,1162.57,607.75Z"></path> <path class="cls-4" d="M1162.57,604.69,1037,532.18c-1.13-.66-1-1.8.32-2.56l35-20.18a4.93,4.93,0,0,1,4.43-.19l125.6,72.52c1.13.65,1,1.8-.32,2.55l-35,20.19A4.9,4.9,0,0,1,1162.57,604.69Z"></path> <path class="cls-3" d="M1281.23,676.28l-125.6-72.52c-1.13-.65-1-1.8.32-2.55l35-20.19a4.9,4.9,0,0,1,4.43-.18l125.6,72.51c1.13.66,1,1.8-.32,2.56l-35,20.19A5,5,0,0,1,1281.23,676.28Z"></path> <path class="cls-4" d="M1281.23,673.22l-125.6-72.52c-1.13-.65-1-1.79.32-2.55l35-20.19a5,5,0,0,1,4.43-.18l125.6,72.52c1.13.65,1,1.8-.32,2.55l-35,20.19A4.93,4.93,0,0,1,1281.23,673.22Z"></path> <path class="cls-3" d="M1129,627.11,1003.4,554.6c-1.13-.66-1-1.8.32-2.56l35-20.18a4.93,4.93,0,0,1,4.43-.19l125.6,72.52c1.13.65,1,1.8-.32,2.55l-35,20.19A4.9,4.9,0,0,1,1129,627.11Z"></path> <path class="cls-4" d="M1129,624.06l-125.6-72.52c-1.13-.65-1-1.8.32-2.55l35-20.19a4.9,4.9,0,0,1,4.43-.18l125.6,72.51c1.13.66,1,1.8-.32,2.56l-35,20.18A4.93,4.93,0,0,1,1129,624.06Z"></path> <path class="cls-3" d="M1247.66,695.64l-125.6-72.52c-1.14-.65-1-1.79.32-2.55l35-20.19a4.94,4.94,0,0,1,4.42-.18l125.61,72.52c1.13.65,1,1.8-.32,2.55l-35,20.19A4.93,4.93,0,0,1,1247.66,695.64Z"></path> <path class="cls-4" d="M1247.66,692.58l-125.6-72.51c-1.14-.66-1-1.8.32-2.56l35-20.18a4.91,4.91,0,0,1,4.42-.19l125.61,72.52c1.13.66,1,1.8-.32,2.55l-35,20.19A4.9,4.9,0,0,1,1247.66,692.58Z"></path> <polygon class="cls-5" points="574.25 798.89 803.75 653.59 751.08 627.26 518.84 767.28 199.51 585.12 155.03 606.19 840.91 994.78 880.71 973.71 574.25 798.89"></polygon> <polygon class="cls-6" points="500 297.19 523.34 346.19 509.33 375.76 500.78 407.65 520.22 407.65 517.5 376.92 528 346.58 501.94 296.8 500 297.19"></polygon> <polygon class="cls-7" points="520.22 407.65 525.54 397.02 521.91 375.24 530.21 345.16 502.72 296.41 501.94 296.8 528 346.58 516.98 377.05 520.22 407.65"></polygon> <polyline class="cls-8" points="492.37 247.32 455.96 294.39 510.13 308.6 527 268.64 492.37 247.32"></polyline> <polyline class="cls-9" points="556.31 253.54 576.88 280.92 550.24 304.01 527 268.64 556.31 253.54"></polyline> <polyline class="cls-4" points="550.24 304.01 535.44 337.76 509.39 326.51 510.13 308.6 550.24 304.01"></polyline> <polygon class="cls-4" points="576.88 280.92 566.52 322.37 550.24 304.01 576.88 280.92"></polygon> <polygon class="cls-10" points="566.52 322.37 535.44 337.76 550.24 304.01 566.52 322.37"></polygon> <polyline class="cls-11" points="469.72 327.69 535.44 337.76 509.39 326.51 469.72 327.69"></polyline> <polygon class="cls-10" points="521.99 235.13 509.22 265.38 539.58 261.9 521.99 235.13"></polygon> <polygon class="cls-8" points="468.22 254.62 478.64 279.83 508.66 278.93 509.22 265.38 468.22 254.62"></polygon> <polygon class="cls-10" points="527 268.64 510.13 308.6 550.24 304.01 527 268.64"></polygon> <polygon class="cls-10" points="455.96 294.39 469.72 327.69 509.39 326.51 510.13 308.6 455.96 294.39"></polygon> <polyline class="cls-11" points="495.78 219 468.22 254.62 509.22 265.38 521.99 235.13 495.78 219"></polyline> <polygon class="cls-4" points="557.06 254.85 570.5 272.32 536.67 283.3 557.06 254.85"></polygon> <polyline class="cls-4" points="544.17 223.7 559.75 244.43 539.58 261.9 521.99 235.13 544.17 223.7"></polyline> <polyline class="cls-4" points="539.58 261.9 528.38 287.45 508.66 278.93 509.22 265.38 539.58 261.9"></polyline> <polygon class="cls-9" points="559.75 244.43 551.9 275.8 539.58 261.9 559.75 244.43"></polygon> <polygon class="cls-12" points="551.9 275.8 528.38 287.45 539.58 261.9 551.9 275.8"></polygon> <polyline class="cls-11" points="478.64 279.83 528.38 287.45 508.66 278.93 478.64 279.83"></polyline> <polygon class="cls-9" points="495.78 219 521.99 235.13 544.17 223.7 495.78 219"></polygon> <polygon class="cls-6" points="598.69 201.32 622.02 250.33 608.02 279.89 599.46 311.78 618.91 311.78 616.19 281.06 626.69 250.72 600.63 200.93 598.69 201.32"></polygon> <polygon class="cls-7" points="618.91 311.78 624.23 301.15 620.6 279.37 628.89 249.29 601.41 200.54 600.63 200.93 626.69 250.72 615.67 281.19 618.91 311.78"></polygon> <polyline class="cls-8" points="591.05 151.45 554.64 198.52 608.82 212.73 625.69 172.77 591.05 151.45"></polyline> <polyline class="cls-9" points="655 157.67 675.57 185.05 648.93 208.15 625.69 172.77 655 157.67"></polyline> <polyline class="cls-4" points="648.93 208.15 634.13 241.89 608.08 230.64 608.82 212.73 648.93 208.15"></polyline> <polygon class="cls-4" points="675.57 185.05 665.21 226.5 648.93 208.15 675.57 185.05"></polygon> <polygon class="cls-10" points="665.21 226.5 634.13 241.89 648.93 208.15 665.21 226.5"></polygon> <polyline class="cls-11" points="568.41 231.83 634.13 241.89 608.08 230.64 568.41 231.83"></polyline> <polygon class="cls-10" points="620.68 139.26 607.91 169.51 638.27 166.04 620.68 139.26"></polygon> <polygon class="cls-8" points="566.91 158.75 577.33 183.96 607.35 183.06 607.91 169.51 566.91 158.75"></polygon> <polygon class="cls-10" points="625.69 172.77 608.82 212.73 648.93 208.15 625.69 172.77"></polygon> <polygon class="cls-10" points="554.64 198.52 568.41 231.83 608.08 230.64 608.82 212.73 554.64 198.52"></polygon> <polyline class="cls-11" points="594.47 123.13 566.91 158.75 607.91 169.51 620.68 139.26 594.47 123.13"></polyline> <polygon class="cls-4" points="655.75 158.98 669.19 176.45 635.36 187.43 655.75 158.98"></polygon> <polyline class="cls-4" points="642.86 127.83 658.43 148.56 638.27 166.04 620.68 139.26 642.86 127.83"></polyline> <polyline class="cls-4" points="638.27 166.04 627.07 191.58 607.35 183.06 607.91 169.51 638.27 166.04"></polyline> <polygon class="cls-9" points="658.43 148.56 650.59 179.93 638.27 166.04 658.43 148.56"></polygon> <polygon class="cls-12" points="650.59 179.93 627.07 191.58 638.27 166.04 650.59 179.93"></polygon> <polyline class="cls-11" points="577.33 183.96 627.07 191.58 607.35 183.06 577.33 183.96"></polyline> <polygon class="cls-9" points="594.47 123.13 620.68 139.26 642.86 127.83 594.47 123.13"></polygon> <polygon class="cls-6" points="1206.39 533.41 1229.73 582.42 1215.73 611.98 1207.17 643.88 1226.62 643.88 1223.9 613.15 1234.4 582.81 1208.34 533.02 1206.39 533.41"></polygon> <polygon class="cls-7" points="1226.62 643.88 1231.93 633.25 1228.3 611.46 1236.6 581.38 1209.12 532.63 1208.34 533.02 1234.4 582.81 1223.38 613.28 1226.62 643.88"></polygon> <polyline class="cls-8" points="1198.76 483.55 1162.35 530.62 1216.53 544.83 1233.4 504.86 1198.76 483.55"></polyline> <polyline class="cls-9" points="1262.71 489.76 1283.28 517.15 1256.64 540.24 1233.4 504.86 1262.71 489.76"></polyline> <polyline class="cls-4" points="1256.64 540.24 1241.84 573.99 1215.79 562.74 1216.53 544.83 1256.64 540.24"></polyline> <polygon class="cls-4" points="1283.28 517.15 1272.92 558.59 1256.64 540.24 1283.28 517.15"></polygon> <polygon class="cls-10" points="1272.92 558.59 1241.84 573.99 1256.64 540.24 1272.92 558.59"></polygon> <polyline class="cls-11" points="1176.12 563.92 1241.84 573.99 1215.79 562.74 1176.12 563.92"></polyline> <polygon class="cls-10" points="1228.39 471.36 1215.62 501.6 1245.98 498.13 1228.39 471.36"></polygon> <polygon class="cls-8" points="1174.61 490.85 1185.03 516.05 1215.06 515.16 1215.62 501.6 1174.61 490.85"></polygon> <polygon class="cls-10" points="1233.4 504.86 1216.53 544.83 1256.64 540.24 1233.4 504.86"></polygon> <polygon class="cls-10" points="1162.35 530.62 1176.12 563.92 1215.79 562.74 1216.53 544.83 1162.35 530.62"></polygon> <polyline class="cls-11" points="1202.17 455.22 1174.61 490.85 1215.62 501.6 1228.39 471.36 1202.17 455.22"></polyline> <polygon class="cls-4" points="1263.45 491.07 1276.89 508.55 1243.06 519.53 1263.45 491.07"></polygon> <polyline class="cls-4" points="1250.57 459.93 1266.14 480.65 1245.98 498.13 1228.39 471.36 1250.57 459.93"></polyline> <polyline class="cls-4" points="1245.98 498.13 1234.77 523.67 1215.06 515.16 1215.62 501.6 1245.98 498.13"></polyline> <polygon class="cls-9" points="1266.14 480.65 1258.3 512.02 1245.98 498.13 1266.14 480.65"></polygon> <polygon class="cls-12" points="1258.3 512.02 1234.77 523.67 1245.98 498.13 1258.3 512.02"></polygon> <polyline class="cls-11" points="1185.03 516.05 1234.77 523.67 1215.06 515.16 1185.03 516.05"></polyline> <polygon class="cls-9" points="1202.17 455.22 1228.39 471.36 1250.57 459.93 1202.17 455.22"></polygon> <polygon class="cls-6" points="382.1 354.85 409.19 411.73 392.94 446.04 383 483.05 405.57 483.05 402.42 447.39 414.6 412.18 384.36 354.4 382.1 354.85"></polygon> <polygon class="cls-7" points="405.57 483.05 411.74 470.71 407.53 445.44 417.16 410.53 385.26 353.95 384.36 354.4 414.6 412.18 401.81 447.54 405.57 483.05"></polygon> <polyline class="cls-8" points="373.25 296.98 330.99 351.61 393.86 368.1 413.44 321.72 373.25 296.98"></polyline> <polyline class="cls-9" points="447.46 304.19 471.33 335.98 440.41 362.77 413.44 321.72 447.46 304.19"></polyline> <polyline class="cls-4" points="440.41 362.77 423.24 401.94 393 388.88 393.86 368.1 440.41 362.77"></polyline> <polygon class="cls-4" points="471.33 335.98 459.31 384.07 440.41 362.77 471.33 335.98"></polygon> <polygon class="cls-10" points="459.31 384.07 423.24 401.94 440.41 362.77 459.31 384.07"></polygon> <polyline class="cls-11" points="346.96 390.26 423.24 401.94 393 388.88 346.96 390.26"></polyline> <polygon class="cls-10" points="407.63 282.83 392.81 317.93 428.04 313.9 407.63 282.83"></polygon> <polygon class="cls-8" points="345.22 305.45 357.31 334.7 392.15 333.67 392.81 317.93 345.22 305.45"></polygon> <polygon class="cls-10" points="413.44 321.72 393.86 368.1 440.41 362.77 413.44 321.72"></polygon> <polygon class="cls-10" points="330.99 351.61 346.96 390.26 393 388.88 393.86 368.1 330.99 351.61"></polygon> <polyline class="cls-11" points="377.2 264.11 345.22 305.45 392.81 317.93 407.63 282.83 377.2 264.11"></polyline> <polygon class="cls-4" points="448.32 305.71 463.92 325.99 424.66 338.74 448.32 305.71"></polygon> <polyline class="cls-4" points="433.37 269.57 451.44 293.62 428.04 313.9 407.63 282.83 433.37 269.57"></polyline> <polyline class="cls-4" points="428.04 313.9 415.04 343.55 392.15 333.67 392.81 317.93 428.04 313.9"></polyline> <polygon class="cls-9" points="451.44 293.62 442.34 330.02 428.04 313.9 451.44 293.62"></polygon> <polygon class="cls-12" points="442.34 330.02 415.04 343.55 428.04 313.9 442.34 330.02"></polygon> <polyline class="cls-11" points="357.31 334.7 415.04 343.55 392.15 333.67 357.31 334.7"></polyline> <polygon class="cls-9" points="377.2 264.11 407.63 282.83 433.37 269.57 377.2 264.11"></polygon> <polygon class="cls-4" points="730.09 103.59 801.79 248.91 721.72 291.85 730.09 103.59"></polygon> <polygon class="cls-11" points="730.09 103.59 721.72 291.85 683.15 234.89 730.09 103.59"></polygon> <polygon class="cls-13" points="723.16 260.34 781.21 207.15 768.72 182 725.4 208.51 723.16 260.34"></polygon> <polygon class="cls-11" points="743.45 52.17 687.38 184.95 751.09 224.18 743.45 52.17"></polygon> <polygon class="cls-4" points="743.45 52.17 751.09 224.18 776.9 162.7 743.45 52.17"></polygon> <polygon class="cls-13" points="747.21 136.39 769.39 138.31 761.39 111.7 747.21 136.39"></polygon> <polygon class="cls-14" points="687.38 184.95 747.21 136.39 715.39 118.59 687.38 184.95"></polygon> <polygon class="cls-11" points="741.31 0 695.85 107.64 752.67 139.45 741.31 0"></polygon> <polygon class="cls-4" points="741.31 0 752.67 139.45 768.42 89.6 741.31 0"></polygon> <polygon class="cls-14" points="683.15 234.89 725.4 208.51 698.56 191.84 683.15 234.89"></polygon> <polygon class="cls-15" points="906.76 456.25 666.42 317.49 666.42 590.27 906.76 729.03 906.76 456.25"></polygon> <polygon class="cls-16" points="906.59 728.95 666.42 590.28 666.42 562.44 906.59 701.11 906.59 728.95"></polygon> <polygon class="cls-17" points="701.96 433.33 677.61 419.27 677.61 392.68 701.96 406.74 701.96 433.33"></polygon> <polygon class="cls-17" points="730.11 449.58 705.75 435.52 705.75 408.93 730.11 422.99 730.11 449.58"></polygon> <polygon class="cls-17" points="701.96 550.74 677.61 536.68 677.61 510.1 701.96 524.15 701.96 550.74"></polygon> <polygon class="cls-17" points="730.11 566.99 705.75 552.93 705.75 526.35 730.11 540.41 730.11 566.99"></polygon> <polygon class="cls-17" points="701.96 385.1 677.61 371.04 677.61 344.45 701.96 358.51 701.96 385.1"></polygon> <polygon class="cls-17" points="730.11 401.35 705.75 387.29 705.75 360.7 730.11 374.76 730.11 401.35"></polygon> <polygon class="cls-17" points="764.62 469.5 740.26 455.44 740.26 428.86 764.62 442.92 764.62 469.5"></polygon> <polygon class="cls-17" points="701.96 503.88 677.61 489.81 677.61 440 701.96 454.06 701.96 503.88"></polygon> <polygon class="cls-17" points="730.11 520.13 705.75 506.07 705.75 456.25 730.11 470.31 730.11 520.13"></polygon> <polygon class="cls-17" points="764.62 540.05 740.26 525.99 740.26 476.18 764.62 490.24 764.62 540.05"></polygon> <polygon class="cls-17" points="832.82 508.88 808.47 494.82 808.47 468.23 832.82 482.29 832.82 508.88"></polygon> <polygon class="cls-18" points="764.62 586.91 740.26 572.86 740.26 546.27 764.62 560.33 764.62 586.91"></polygon> <polygon class="cls-18" points="832.82 626.29 808.47 612.23 808.47 585.65 832.82 599.71 832.82 626.29"></polygon> <polygon class="cls-17" points="764.62 421.27 740.26 407.21 740.26 380.63 764.62 394.69 764.62 421.27"></polygon> <polygon class="cls-17" points="832.82 460.65 808.47 446.59 808.47 420 832.82 434.06 832.82 460.65"></polygon> <polygon class="cls-17" points="799.95 489.9 775.6 475.84 775.6 449.26 799.95 463.32 799.95 489.9"></polygon> <polygon class="cls-17" points="799.95 441.67 775.6 427.61 775.6 401.03 799.95 415.09 799.95 441.67"></polygon> <polygon class="cls-18" points="832.82 578.22 808.47 564.16 808.47 516.42 832.82 530.48 832.82 578.22"></polygon> <polygon class="cls-17" points="866.3 528.21 841.95 514.15 841.95 487.56 866.3 501.62 866.3 528.21"></polygon> <polygon class="cls-18" points="866.3 598.76 841.95 584.7 841.95 534.89 866.3 548.95 866.3 598.76"></polygon> <polygon class="cls-18" points="894.45 544.46 870.1 530.4 870.1 503.81 894.45 517.88 894.45 544.46"></polygon> <polygon class="cls-18" points="866.3 645.62 841.95 631.56 841.95 604.98 866.3 619.04 866.3 645.62"></polygon> <polygon class="cls-18" points="894.45 661.87 870.1 647.81 870.1 621.23 894.45 635.29 894.45 661.87"></polygon> <polygon class="cls-17" points="866.3 479.98 841.95 465.92 841.95 439.33 866.3 453.39 866.3 479.98"></polygon> <polygon class="cls-17" points="894.45 496.23 870.1 482.17 870.1 455.58 894.45 469.64 894.45 496.23"></polygon> <polygon class="cls-18" points="894.45 613.8 870.1 599.74 870.1 552 894.45 566.06 894.45 613.8"></polygon> <polygon class="cls-19" points="906.59 690.43 666.42 551.76 666.42 530.22 906.59 668.88 906.59 690.43"></polygon> <polygon class="cls-20" points="906.59 642.4 666.42 503.73 666.42 482.19 906.59 620.85 906.59 642.4"></polygon> <polygon class="cls-19" points="906.59 573.02 666.42 434.35 666.42 412.81 906.59 551.47 906.59 573.02"></polygon> <polygon class="cls-21" points="906.59 524.84 666.42 386.17 666.42 364.63 906.59 503.29 906.59 524.84"></polygon> <polygon class="cls-19" points="906.59 477.79 666.42 339.13 666.42 317.58 906.59 456.25 906.59 477.79"></polygon> <polygon class="cls-22" points="1187.84 730.47 859.16 920.23 859.16 647.45 1187.84 457.69 1187.84 730.47"></polygon> <polygon class="cls-23" points="1187.84 730.47 859.16 920.23 859.16 892.38 1187.84 702.62 1187.84 730.47"></polygon> <polygon class="cls-24" points="894.9 722.12 870.54 736.18 870.54 709.59 894.9 695.53 894.9 722.12"></polygon> <polygon class="cls-24" points="923.04 705.87 898.69 719.93 898.69 693.34 923.04 679.28 923.04 705.87"></polygon> <polygon class="cls-24" points="894.9 839.53 870.54 853.59 870.54 827.01 894.9 812.95 894.9 839.53"></polygon> <polygon class="cls-24" points="923.04 823.28 898.69 837.34 898.69 810.76 923.04 796.7 923.04 823.28"></polygon> <polygon class="cls-24" points="894.9 673.89 870.54 687.95 870.54 661.36 894.9 647.3 894.9 673.89"></polygon> <polygon class="cls-24" points="923.04 657.64 898.69 671.7 898.69 645.11 923.04 631.05 923.04 657.64"></polygon> <polygon class="cls-24" points="957.55 685.95 933.2 700 933.2 673.42 957.55 659.36 957.55 685.95"></polygon> <polygon class="cls-24" points="894.9 791.88 870.54 805.94 870.54 757.03 894.9 742.97 894.9 791.88"></polygon> <polygon class="cls-24" points="923.04 775.63 898.69 789.69 898.69 740.78 923.04 726.72 923.04 775.63"></polygon> <polygon class="cls-24" points="957.55 755.7 933.2 769.76 933.2 720.86 957.55 706.8 957.55 755.7"></polygon> <polygon class="cls-24" points="985.7 669.69 961.35 683.75 961.35 657.17 985.7 643.11 985.7 669.69"></polygon> <polygon class="cls-24" points="957.55 803.36 933.2 817.42 933.2 790.83 957.55 776.77 957.55 803.36"></polygon> <polygon class="cls-24" points="985.7 787.11 961.35 801.17 961.35 774.58 985.7 760.52 985.7 787.11"></polygon> <polygon class="cls-24" points="957.55 637.71 933.2 651.77 933.2 625.19 957.55 611.13 957.55 637.71"></polygon> <polygon class="cls-24" points="985.7 621.46 961.35 635.52 961.35 608.94 985.7 594.88 985.7 621.46"></polygon> <polygon class="cls-24" points="985.7 739.03 961.35 753.09 961.35 705.36 985.7 691.29 985.7 739.03"></polygon> <polygon class="cls-24" points="1019.18 650.36 994.83 664.42 994.83 637.84 1019.18 623.78 1019.18 650.36"></polygon> <polygon class="cls-24" points="1047.33 634.11 1022.98 648.17 1022.98 621.59 1047.33 607.53 1047.33 634.11"></polygon> <polygon class="cls-24" points="1019.18 767.78 994.83 781.84 994.83 755.25 1019.18 741.19 1019.18 767.78"></polygon> <polygon class="cls-24" points="1047.33 751.53 1022.98 765.59 1022.98 739 1047.33 724.94 1047.33 751.53"></polygon> <polygon class="cls-24" points="1019.18 602.13 994.83 616.19 994.83 589.61 1019.18 575.55 1019.18 602.13"></polygon> <polygon class="cls-24" points="1047.33 585.88 1022.98 599.94 1022.98 573.36 1047.33 559.3 1047.33 585.88"></polygon> <polygon class="cls-24" points="1081.84 614.19 1057.48 628.25 1057.48 601.66 1081.84 587.6 1081.84 614.19"></polygon> <polygon class="cls-24" points="1019.18 720.12 994.83 734.18 994.83 685.28 1019.18 671.22 1019.18 720.12"></polygon> <polygon class="cls-24" points="1047.33 703.87 1022.98 717.93 1022.98 669.03 1047.33 654.97 1047.33 703.87"></polygon> <polygon class="cls-24" points="1081.84 683.95 1057.48 698.01 1057.48 649.1 1081.84 635.04 1081.84 683.95"></polygon> <polygon class="cls-24" points="1109.98 597.94 1085.63 612 1085.63 585.41 1109.98 571.35 1109.98 597.94"></polygon> <polygon class="cls-24" points="1081.84 731.6 1057.48 745.66 1057.48 719.08 1081.84 705.02 1081.84 731.6"></polygon> <polygon class="cls-24" points="1109.98 715.35 1085.63 729.41 1085.63 702.83 1109.98 688.77 1109.98 715.35"></polygon> <polygon class="cls-24" points="1081.84 565.96 1057.48 580.02 1057.48 553.43 1081.84 539.37 1081.84 565.96"></polygon> <polygon class="cls-24" points="1109.98 549.71 1085.63 563.77 1085.63 537.18 1109.98 523.12 1109.98 549.71"></polygon> <polygon class="cls-24" points="1109.98 667.28 1085.63 681.34 1085.63 633.6 1109.98 619.54 1109.98 667.28"></polygon> <polygon class="cls-24" points="1174.28 560.82 1149.92 574.88 1149.92 548.29 1174.28 534.23 1174.28 560.82"></polygon> <polygon class="cls-24" points="1174.28 678.23 1149.92 692.29 1149.92 665.71 1174.28 651.65 1174.28 678.23"></polygon> <polygon class="cls-24" points="1174.28 512.59 1149.92 526.65 1149.92 500.06 1174.28 486 1174.28 512.59"></polygon> <polygon class="cls-24" points="1174.28 630.58 1149.92 644.64 1149.92 595.73 1174.28 581.67 1174.28 630.58"></polygon> <polygon class="cls-19" points="1187.84 691.95 859.16 881.71 859.16 860.16 1187.84 670.4 1187.84 691.95"></polygon> <polygon class="cls-25" points="1187.84 643.91 859.16 833.68 859.16 812.13 1187.84 622.37 1187.84 643.91"></polygon> <polygon class="cls-19" points="1187.84 574.53 859.16 764.3 859.16 742.75 1187.84 552.99 1187.84 574.53"></polygon> <polygon class="cls-26" points="1187.84 526.35 859.16 716.12 859.16 694.57 1187.84 504.81 1187.84 526.35"></polygon> <polygon class="cls-19" points="1187.84 479.31 859.16 669.07 859.16 647.53 1187.84 457.76 1187.84 479.31"></polygon> <polygon class="cls-15" points="859.16 920.23 717.42 838.39 717.42 565.61 859.16 647.45 859.16 920.23"></polygon> <polygon class="cls-16" points="859.16 920.23 717.42 838.39 717.42 810.55 859.16 892.38 859.16 920.23"></polygon> <polygon class="cls-17" points="753.16 681.55 728.8 667.49 728.8 640.9 753.16 654.96 753.16 681.55"></polygon> <polygon class="cls-17" points="781.3 697.8 756.95 683.74 756.95 657.15 781.3 671.21 781.3 697.8"></polygon> <polygon class="cls-17" points="847.78 736.18 811.85 715.43 811.85 688.85 847.78 709.59 847.78 736.18"></polygon> <polygon class="cls-17" points="753.16 750.33 728.8 736.27 728.8 688.93 753.16 702.99 753.16 750.33"></polygon> <polygon class="cls-17" points="781.3 766.59 756.95 752.52 756.95 705.18 781.3 719.24 781.3 766.59"></polygon> <polygon class="cls-17" points="847.78 804.97 811.85 784.22 811.85 736.88 847.78 757.62 847.78 804.97"></polygon> <polygon class="cls-17" points="753.16 798.96 728.8 784.9 728.8 758.31 753.16 772.37 753.16 798.96"></polygon> <polygon class="cls-17" points="781.3 815.21 756.95 801.15 756.95 774.56 781.3 788.63 781.3 815.21"></polygon> <polygon class="cls-17" points="847.78 853.59 811.85 832.85 811.85 806.26 847.78 827 847.78 853.59"></polygon> <polygon class="cls-17" points="753.16 633.32 728.8 619.26 728.8 592.67 753.16 606.73 753.16 633.32"></polygon> <polygon class="cls-17" points="781.3 649.57 756.95 635.51 756.95 608.92 781.3 622.98 781.3 649.57"></polygon> <polygon class="cls-17" points="847.78 687.95 811.85 667.2 811.85 640.62 847.78 661.36 847.78 687.95"></polygon> <polygon class="cls-19" points="859.16 881.71 717.42 799.87 717.42 778.33 859.16 860.16 859.16 881.71"></polygon> <polygon class="cls-20" points="859.16 833.68 717.42 751.84 717.42 730.29 859.16 812.13 859.16 833.68"></polygon> <polygon class="cls-19" points="859.16 764.29 717.42 682.46 717.42 660.91 859.16 742.75 859.16 764.29"></polygon> <polygon class="cls-21" points="859.16 716.11 717.42 634.28 717.42 612.73 859.16 694.57 859.16 716.11"></polygon> <polygon class="cls-19" points="859.16 669.07 717.42 587.23 717.42 565.69 859.16 647.52 859.16 669.07"></polygon> <polygon class="cls-15" points="476.97 699.58 335.23 617.75 335.23 344.97 476.97 426.8 476.97 699.58"></polygon> <polygon class="cls-16" points="476.97 699.58 335.23 617.75 335.23 589.9 476.97 671.74 476.97 699.58"></polygon> <polygon class="cls-17" points="370.97 460.9 346.61 446.84 346.61 420.26 370.97 434.32 370.97 460.9"></polygon> <polygon class="cls-17" points="399.11 477.15 374.76 463.09 374.76 436.51 399.11 450.57 399.11 477.15"></polygon> <polygon class="cls-17" points="465.59 515.53 429.66 494.79 429.66 468.2 465.59 488.95 465.59 515.53"></polygon> <polygon class="cls-17" points="370.97 529.69 346.61 515.63 346.61 468.29 370.97 482.35 370.97 529.69"></polygon> <polygon class="cls-17" points="399.11 545.94 374.76 531.88 374.76 484.54 399.11 498.6 399.11 545.94"></polygon> <polygon class="cls-17" points="465.59 584.32 429.66 563.58 429.66 516.24 465.59 536.98 465.59 584.32"></polygon> <polygon class="cls-17" points="370.97 578.32 346.61 564.25 346.61 537.67 370.97 551.73 370.97 578.32"></polygon> <polygon class="cls-17" points="399.11 594.57 374.76 580.51 374.76 553.92 399.11 567.98 399.11 594.57"></polygon> <polygon class="cls-17" points="465.59 632.95 429.66 612.2 429.66 585.62 465.59 606.36 465.59 632.95"></polygon> <polygon class="cls-17" points="370.97 412.67 346.61 398.61 346.61 372.02 370.97 386.09 370.97 412.67"></polygon> <polygon class="cls-17" points="399.11 428.92 374.76 414.86 374.76 388.28 399.11 402.34 399.11 428.92"></polygon> <polygon class="cls-17" points="465.59 467.3 429.66 446.56 429.66 419.97 465.59 440.72 465.59 467.3"></polygon> <polygon class="cls-19" points="476.97 661.06 335.23 579.23 335.23 557.68 476.97 639.52 476.97 661.06"></polygon> <polygon class="cls-20" points="476.97 613.03 335.23 531.2 335.23 509.65 476.97 591.49 476.97 613.03"></polygon> <polygon class="cls-19" points="476.97 543.65 335.23 461.81 335.23 440.27 476.97 522.11 476.97 543.65"></polygon> <polygon class="cls-21" points="476.97 495.47 335.23 413.63 335.23 392.09 476.97 473.92 476.97 495.47"></polygon> <polygon class="cls-19" points="476.97 448.43 335.23 366.59 335.23 345.04 476.97 426.88 476.97 448.43"></polygon> <polygon class="cls-27" points="664 155.25 335.32 345.01 477.07 426.85 666.42 317.52 906.77 456.29 717.42 565.61 859.16 647.45 1187.83 457.69 664 155.25"></polygon> <polygon class="cls-28" points="664 167.1 355.87 345 355.87 356.86 664 178.96 664 167.1"></polygon> <polygon class="cls-29" points="1167.28 457.69 663.99 167.12 663.99 178.97 1167.28 469.55 1167.28 457.69"></polygon> <polygon class="cls-28" points="927.32 468.15 737.96 577.47 737.96 565.61 927.32 456.29 927.32 468.15"></polygon> <path class="cls-30" d="M1167.29,457.69,859.16,635.59l-121.2-70L917,462.22l10.27-5.93L917,450.36,676.69,311.59l-10.27-5.93-10.27,5.93L477.07,415l-121.2-70L664,167.11l503.29,290.58m20.54,0L664,155.25,335.32,345l141.75,81.84L666.42,317.52,906.77,456.29,717.42,565.61l141.74,81.84,328.67-189.76Z"></path> <polygon class="cls-22" points="666.38 590.31 477.02 699.63 477.02 426.86 666.38 317.53 666.38 590.31"></polygon> <polygon class="cls-23" points="666.38 590.33 477.01 699.66 477.01 671.81 666.38 562.48 666.38 590.33"></polygon> <polygon class="cls-24" points="512.75 501.55 488.39 515.61 488.39 489.02 512.75 474.96 512.75 501.55"></polygon> <polygon class="cls-24" points="540.89 485.3 516.54 499.36 516.54 472.77 540.89 458.71 540.89 485.3"></polygon> <polygon class="cls-24" points="512.75 618.96 488.39 633.02 488.39 606.43 512.75 592.37 512.75 618.96"></polygon> <polygon class="cls-24" points="540.89 602.71 516.54 616.77 516.54 590.18 540.89 576.12 540.89 602.71"></polygon> <polygon class="cls-24" points="512.75 453.32 488.39 467.38 488.39 440.79 512.75 426.73 512.75 453.32"></polygon> <polygon class="cls-24" points="540.89 437.06 516.54 451.13 516.54 424.54 540.89 410.48 540.89 437.06"></polygon> <polygon class="cls-24" points="575.4 465.37 551.05 479.43 551.05 452.85 575.4 438.79 575.4 465.37"></polygon> <polygon class="cls-24" points="512.75 573.53 488.39 587.59 488.39 536.42 512.75 522.36 512.75 573.53"></polygon> <polygon class="cls-24" points="540.89 557.28 516.54 571.34 516.54 520.17 540.89 506.11 540.89 557.28"></polygon> <polygon class="cls-24" points="575.4 537.36 551.05 551.42 551.05 500.25 575.4 486.19 575.4 537.36"></polygon> <polygon class="cls-24" points="603.55 449.12 579.2 463.18 579.2 436.6 603.55 422.54 603.55 449.12"></polygon> <polygon class="cls-24" points="575.4 582.79 551.05 596.85 551.05 570.26 575.4 556.2 575.4 582.79"></polygon> <polygon class="cls-24" points="603.55 566.53 579.2 580.6 579.2 554.01 603.55 539.95 603.55 566.53"></polygon> <polygon class="cls-24" points="575.4 417.14 551.05 431.2 551.05 404.62 575.4 390.56 575.4 417.14"></polygon> <polygon class="cls-24" points="603.55 400.89 579.2 414.95 579.2 388.37 603.55 374.31 603.55 400.89"></polygon> <polygon class="cls-24" points="648.33 423.27 623.97 437.33 623.97 410.74 648.33 396.68 648.33 423.27"></polygon> <polygon class="cls-24" points="603.55 518.46 579.2 532.52 579.2 484.78 603.55 470.72 603.55 518.46"></polygon> <polygon class="cls-24" points="648.33 492.61 623.97 506.67 623.97 458.93 648.33 444.87 648.33 492.61"></polygon> <polygon class="cls-24" points="648.33 540.68 623.97 554.74 623.97 528.16 648.33 514.1 648.33 540.68"></polygon> <polygon class="cls-24" points="648.33 375.04 623.97 389.1 623.97 362.51 648.33 348.45 648.33 375.04"></polygon> <polygon class="cls-19" points="666.38 551.81 477.01 661.14 477.01 639.59 666.38 530.26 666.38 551.81"></polygon> <polygon class="cls-25" points="666.38 503.77 477.01 613.11 477.01 591.56 666.38 482.23 666.38 503.77"></polygon> <polygon class="cls-19" points="666.38 434.39 477.01 543.73 477.01 522.18 666.38 412.85 666.38 434.39"></polygon> <polygon class="cls-26" points="666.38 386.21 477.01 495.54 477.01 474 666.38 364.67 666.38 386.21"></polygon> <polygon class="cls-19" points="666.38 339.17 477.01 448.5 477.01 426.95 666.38 317.62 666.38 339.17"></polygon> <polygon class="cls-7" points="285.38 598.47 244.85 683.59 269.17 734.93 284.03 790.33 250.25 790.33 254.98 736.96 236.74 684.26 282 597.79 285.38 598.47"></polygon> <polygon class="cls-6" points="250.25 790.33 241.02 771.86 247.33 734.03 232.91 681.79 280.65 597.12 282 597.79 236.74 684.26 255.88 737.18 250.25 790.33"></polygon> <polyline class="cls-9" points="298.63 511.87 361.88 593.62 267.79 618.29 238.48 548.88 298.63 511.87"></polyline> <polyline class="cls-10" points="187.58 522.66 151.84 570.22 198.12 610.33 238.48 548.88 187.58 522.66"></polyline> <polyline class="cls-11" points="198.12 610.33 223.82 668.94 269.07 649.4 267.79 618.29 198.12 610.33"></polyline> <polygon class="cls-11" points="151.84 570.22 169.84 642.2 198.12 610.33 151.84 570.22"></polygon> <polygon class="cls-10" points="169.84 642.2 223.82 668.94 198.12 610.33 169.84 642.2"></polygon> <polyline class="cls-11" points="337.97 651.46 223.82 668.94 269.07 649.4 337.97 651.46"></polyline> <polygon class="cls-10" points="247.18 490.69 269.36 543.22 216.63 537.19 247.18 490.69"></polygon> <polygon class="cls-8" points="340.58 524.54 322.48 568.32 270.34 566.76 269.36 543.22 340.58 524.54"></polygon> <polygon class="cls-10" points="238.48 548.88 267.79 618.29 198.12 610.33 238.48 548.88"></polygon> <polygon class="cls-10" points="361.88 593.62 337.97 651.46 269.07 649.4 267.79 618.29 361.88 593.62"></polygon> <polyline class="cls-9" points="292.71 462.67 340.58 524.54 269.36 543.22 247.18 490.69 292.71 462.67"></polyline> <polygon class="cls-4" points="186.28 524.93 162.93 555.28 221.69 574.35 186.28 524.93"></polygon> <polyline class="cls-10" points="208.66 470.84 181.61 506.84 216.63 537.19 247.18 490.69 208.66 470.84"></polyline> <polyline class="cls-4" points="216.63 537.19 236.09 581.55 270.34 566.76 269.36 543.22 216.63 537.19"></polyline> <polygon class="cls-11" points="181.61 506.84 195.23 561.32 216.63 537.19 181.61 506.84"></polygon> <polygon class="cls-12" points="195.23 561.32 236.09 581.55 216.63 537.19 195.23 561.32"></polygon> <polyline class="cls-11" points="322.48 568.32 236.09 581.55 270.34 566.76 322.48 568.32"></polyline> <polygon class="cls-31" points="292.71 462.67 247.18 490.69 208.66 470.84 292.71 462.67"></polygon> <path class="cls-2" d="M675.06,261.66l8.69,5-2-15.34,14,8.09,2,15.35L709,281.28l2.15,16.14-11.44-6.61,1.63,12.27,11.27,6.51,2.15,16.14-11.35-6.56,1.89,15.3-14-8.09-1.9-15.3-8.69-5,1.9,15.3-14-8.1L666.8,298l-11.53-6.65-2-16,11.36,6.55-1.55-12.22-11.36-6.55L649.59,247l11.53,6.65-2.07-15.4,14,8.1ZM687.36,295l-1.64-12.27-8.69-5L678.67,290Z"></path> <path class="cls-2" d="M754,291.71a61.85,61.85,0,0,1,15.91,12.86V325A47,47,0,0,0,755,311.48c-4.82-2.78-8.77-3.48-11.87-2.19s-4.65,4.57-4.65,9.54a27.55,27.55,0,0,0,4.48,14.6,31.54,31.54,0,0,0,11.35,11.42A26.43,26.43,0,0,0,769,348.78v20.16c-4.21.05-9.29-1.68-15.22-5.11a69.71,69.71,0,0,1-24.61-24.34c-6.45-10.38-9.72-21-9.72-31.64s3.27-17.48,9.81-20.46S744.05,286,754,291.71Z"></path> <path class="cls-2" d="M823,337.41a61.73,61.73,0,0,1,20.73,21.8c5,8.94,7.48,17.43,7.48,25.68s-2.49,13.86-7.48,16.94-11.87,2.38-20.73-2.14v6.06l-18.5-10.68V389a62.3,62.3,0,0,1-20.73-21.8c-5.08-8.89-7.57-17.39-7.57-25.63s2.49-13.86,7.57-17,11.95-2.33,20.73,2.14V319L823,329.66Zm-18.5,7.4c-4.9-2.34-9.38-.55-9.38,7.7s4.48,15.19,9.38,18.42Zm18.5,36.8c4.9,2.43,9.37.75,9.37-7.6A22.89,22.89,0,0,0,823,355.49Z"></path> <path class="cls-2" d="M903.73,384.05a61.76,61.76,0,0,1,20.74,21.8c5,8.94,7.48,17.44,7.48,25.68s-2.5,13.86-7.48,16.94-11.88,2.38-20.74-2.14v6.06l-18.49-10.68v-6.06a62.42,62.42,0,0,1-20.74-21.8c-5.07-8.89-7.57-17.39-7.57-25.63s2.5-13.86,7.57-17,12-2.33,20.74,2.14v-7.75l18.49,10.68Zm-18.49,7.4c-4.91-2.34-9.38-.55-9.38,7.7s4.47,15.2,9.38,18.42Zm18.49,36.8c4.91,2.44,9.38.75,9.38-7.6a22.87,22.87,0,0,0-9.38-18.52Z"></path> </g> </g> </g> </svg> 