<?xml version="1.0" encoding="UTF-8"?> <svg xmlns="http://www.w3.org/2000/svg" xmlns:xlink="http://www.w3.org/1999/xlink" viewBox="0 0 704.51 422.01"> <defs> <style>.cls-1{fill:#29abe2;}.cls-2{fill:url(#Безымянный_градиент_26);}</style> <linearGradient id="Безымянный_градиент_26" x1="358.1" y1="16.2" x2="344.36" y2="455.82" gradientUnits="userSpaceOnUse"> <stop offset="0" stop-color="#191c78"></stop> <stop offset="1" stop-color="#6165d9"></stop> </linearGradient> </defs> <title>Площадка квадрат</title> <g id="Слой_2" data-name="Слой 2"> <g id="Слой_2-2" data-name="Слой 2"> <path class="cls-1" d="M313.36,417.82,7.26,241.09c-10.75-6.2-9.4-17,3-24.21L349.21,21.19c12.41-7.17,31.19-7.94,41.94-1.74l306.1,176.73c10.75,6.21,9.4,17-3,24.21L355.29,416.08C342.88,423.25,324.11,424,313.36,417.82Z"></path> <path class="cls-2" d="M313.36,402.56,7.26,225.83c-10.75-6.21-9.4-17.05,3-24.21L349.21,5.93C361.62-1.24,380.4-2,391.15,4.19l306.1,176.73c10.75,6.2,9.4,17-3,24.21L355.29,400.82C342.88,408,324.11,408.76,313.36,402.56Z"></path> </g> </g> </svg> 