<?xml version="1.0" encoding="UTF-8"?> <svg xmlns="http://www.w3.org/2000/svg" xmlns:xlink="http://www.w3.org/1999/xlink" viewBox="0 0 372.59 310.03"> <defs> <style>.cls-1{fill:none;}.cls-2{fill:#bde5f4;}.cls-3{fill:#2e3192;}.cls-4{fill:#63b3c9;}.cls-5{fill:#e6e6e6;}.cls-6{fill:#e03f3f;}.cls-7{fill:#ea990a;}.cls-8{fill:url(#Безымянный_градиент_95);}.cls-9{fill:#ccc;}.cls-10{fill:#b3b3b3;}.cls-11{fill:#e1f5ff;}.cls-12{fill:#5158a8;}.cls-13{fill:#7fceea;}.cls-14{fill:#ff6464;}.cls-15{fill:#fcc142;}.cls-16,.cls-24{opacity:0.71;}.cls-16{fill:url(#Безымянный_градиент_16);}.cls-17{clip-path:url(#clip-path);}.cls-18,.cls-26{fill:#fff;}.cls-19{fill:#595959;}.cls-20{fill:#727272;}.cls-21{fill:#494949;}.cls-22{opacity:0.94;fill:url(#Безымянный_градиент_24);}.cls-23{clip-path:url(#clip-path-2);}.cls-24{fill:url(#Безымянный_градиент_16-2);}.cls-25{clip-path:url(#clip-path-3);}.cls-26{opacity:0.21;}</style> <linearGradient id="Безымянный_градиент_95" x1="30.58" y1="141.22" x2="71.12" y2="-24.96" gradientTransform="matrix(-1, 0, 0, 1, 180.13, 0)" gradientUnits="userSpaceOnUse"> <stop offset="0" stop-color="#6dc7b7"></stop> <stop offset="1" stop-color="#2ba672"></stop> </linearGradient> <linearGradient id="Безымянный_градиент_16" x1="-192.46" y1="255.25" x2="-31.58" y2="255.25" gradientTransform="matrix(-1, 0, 0, 1, 180.13, 0)" gradientUnits="userSpaceOnUse"> <stop offset="0" stop-color="#10afba"></stop> <stop offset="1" stop-color="#29abe2"></stop> </linearGradient> <clipPath id="clip-path"> <polygon class="cls-1" points="211.71 234.14 328.72 301.69 372.59 276.36 255.59 208.81 211.71 234.14"></polygon> </clipPath> <linearGradient id="Безымянный_градиент_24" x1="-148.58" y1="254.41" x2="-31.57" y2="254.41" gradientTransform="matrix(-1, 0, 0, 1, 180.13, 0)" gradientUnits="userSpaceOnUse"> <stop offset="0" stop-color="#14d6e3"></stop> <stop offset="1" stop-color="#6bc5eb"></stop> </linearGradient> <clipPath id="clip-path-2"> <polygon class="cls-1" points="211.7 234.14 328.71 301.69 328.71 274.67 211.7 207.12 211.7 234.14"></polygon> </clipPath> <linearGradient id="Безымянный_градиент_16-2" x1="-192.46" y1="228.23" x2="-31.58" y2="228.23" xlink:href="#Безымянный_градиент_16"></linearGradient> <clipPath id="clip-path-3"> <polygon class="cls-1" points="211.71 207.12 328.72 274.67 372.59 249.34 255.59 181.79 211.71 207.12"></polygon> </clipPath> </defs> <title>Универ 2я часть</title> <g id="Слой_2" data-name="Слой 2"> <g id="Слой_4" data-name="Слой 4"> <polygon class="cls-2" points="187.24 310.03 267.97 263.42 267.97 108.05 187.24 154.66 187.24 310.03"></polygon> <polygon class="cls-3" points="187.24 310.03 267.97 263.42 267.97 247.56 187.24 294.17 187.24 310.03"></polygon> <polygon class="cls-4" points="247.62 174.08 261.49 166.07 261.49 150.93 247.62 158.94 247.62 174.08"></polygon> <polygon class="cls-4" points="231.58 183.34 245.46 175.33 245.46 160.18 231.58 168.19 231.58 183.34"></polygon> <polygon class="cls-4" points="193.72 205.19 214.19 193.38 214.19 178.24 193.72 190.05 193.72 205.19"></polygon> <polygon class="cls-4" points="247.62 213.26 261.49 205.25 261.49 178.29 247.62 186.29 247.62 213.26"></polygon> <polygon class="cls-4" points="231.58 222.51 245.46 214.51 245.46 187.54 231.58 195.55 231.58 222.51"></polygon> <polygon class="cls-4" points="193.72 244.38 214.19 232.56 214.19 205.6 193.72 217.41 193.72 244.38"></polygon> <polygon class="cls-4" points="247.62 240.96 261.49 232.95 261.49 217.8 247.62 225.81 247.62 240.96"></polygon> <polygon class="cls-4" points="231.58 250.21 245.46 242.2 245.46 227.06 231.58 235.07 231.58 250.21"></polygon> <polygon class="cls-4" points="193.72 272.07 214.19 260.26 214.19 245.11 193.72 256.93 193.72 272.07"></polygon> <polygon class="cls-4" points="247.62 146.61 261.49 138.6 261.49 123.46 247.62 131.47 247.62 146.61"></polygon> <polygon class="cls-4" points="231.58 155.86 245.46 147.85 245.46 132.71 231.58 140.72 231.58 155.86"></polygon> <polygon class="cls-4" points="193.72 177.72 214.19 165.91 214.19 150.77 193.72 162.58 193.72 177.72"></polygon> <polygon class="cls-5" points="187.24 288.09 267.97 241.47 267.97 229.2 187.24 275.81 187.24 288.09"></polygon> <polygon class="cls-6" points="187.24 260.73 267.97 214.12 267.97 201.84 187.24 248.46 187.24 260.73"></polygon> <polygon class="cls-5" points="187.24 221.21 267.97 174.6 267.97 162.33 187.24 208.94 187.24 221.21"></polygon> <polygon class="cls-7" points="187.24 193.77 267.97 147.16 267.97 134.88 187.24 181.5 187.24 193.77"></polygon> <polygon class="cls-5" points="187.24 166.97 267.97 120.36 267.97 108.09 187.24 154.7 187.24 166.97"></polygon> <polygon class="cls-8" points="0 46.61 187.21 154.7 267.94 108.09 80.73 0 0 46.61"></polygon> <polygon class="cls-9" points="80.72 13.51 256.24 114.84 256.24 108.08 80.72 6.75 80.72 13.51"></polygon> <polygon class="cls-10" points="5.84 56.74 80.72 13.51 80.72 6.75 5.84 49.99 5.84 56.74"></polygon> <path class="cls-5" d="M80.73,6.76,256.24,108.09l-69,39.85L11.7,46.61l69-39.85m0-6.76L0,46.61,187.21,154.7l80.73-46.61L80.73,0Z"></path> <polygon class="cls-11" points="0.03 201.94 187.24 310.03 187.24 154.66 0.03 46.57 0.03 201.94"></polygon> <polygon class="cls-12" points="0.03 201.94 187.24 310.03 187.24 294.17 0.03 186.08 0.03 201.94"></polygon> <polygon class="cls-13" points="166.88 197.19 180.75 205.2 180.75 190.05 166.88 182.04 166.88 197.19"></polygon> <polygon class="cls-13" points="150.85 187.93 164.72 195.94 164.72 180.8 150.85 172.79 150.85 187.93"></polygon> <polygon class="cls-13" points="166.88 264.06 180.75 272.07 180.75 256.93 166.88 248.92 166.88 264.06"></polygon> <polygon class="cls-13" points="150.85 254.81 164.72 262.82 164.72 247.67 150.85 239.66 150.85 254.81"></polygon> <polygon class="cls-13" points="166.88 169.72 180.75 177.72 180.75 162.58 166.88 154.57 166.88 169.72"></polygon> <polygon class="cls-13" points="150.85 160.46 164.72 168.47 164.72 153.33 150.85 145.32 150.85 160.46"></polygon> <polygon class="cls-13" points="131.2 176.58 145.07 184.59 145.07 169.45 131.2 161.44 131.2 176.58"></polygon> <polygon class="cls-13" points="166.88 236.92 180.75 244.93 180.75 217.07 166.88 209.07 166.88 236.92"></polygon> <polygon class="cls-13" points="150.85 227.66 164.72 235.67 164.72 207.82 150.85 199.81 150.85 227.66"></polygon> <polygon class="cls-13" points="131.2 216.32 145.07 224.32 145.07 196.47 131.2 188.46 131.2 216.32"></polygon> <polygon class="cls-13" points="115.16 167.33 129.03 175.34 129.03 160.19 115.16 152.19 115.16 167.33"></polygon> <polygon class="cls-13" points="131.2 243.46 145.07 251.47 145.07 236.33 131.2 228.32 131.2 243.46"></polygon> <polygon class="cls-13" points="115.16 234.2 129.03 242.21 129.03 227.07 115.16 219.06 115.16 234.2"></polygon> <polygon class="cls-13" points="131.2 149.11 145.07 157.12 145.07 141.98 131.2 133.97 131.2 149.11"></polygon> <polygon class="cls-13" points="115.16 139.86 129.03 147.87 129.03 132.72 115.16 124.71 115.16 139.86"></polygon> <polygon class="cls-13" points="115.16 206.82 129.03 214.83 129.03 187.64 115.16 179.63 115.16 206.82"></polygon> <polygon class="cls-13" points="96.09 156.32 109.97 164.33 109.97 149.18 96.09 141.18 96.09 156.32"></polygon> <polygon class="cls-13" points="80.06 147.06 93.93 155.07 93.93 139.93 80.06 131.92 80.06 147.06"></polygon> <polygon class="cls-13" points="96.09 223.19 109.97 231.2 109.97 216.06 96.09 208.05 96.09 223.19"></polygon> <polygon class="cls-13" points="80.06 213.94 93.93 221.95 93.93 206.8 80.06 198.79 80.06 213.94"></polygon> <polygon class="cls-13" points="96.09 128.85 109.97 136.85 109.97 121.71 96.09 113.7 96.09 128.85"></polygon> <polygon class="cls-13" points="80.06 119.59 93.93 127.6 93.93 112.46 80.06 104.45 80.06 119.59"></polygon> <polygon class="cls-13" points="60.41 135.71 74.28 143.72 74.28 128.58 60.41 120.57 60.41 135.71"></polygon> <polygon class="cls-13" points="96.09 196.05 109.97 204.06 109.97 176.2 96.09 168.2 96.09 196.05"></polygon> <polygon class="cls-13" points="80.06 186.79 93.93 194.8 93.93 166.95 80.06 158.94 80.06 186.79"></polygon> <polygon class="cls-13" points="60.41 175.45 74.28 183.46 74.28 155.6 60.41 147.59 60.41 175.45"></polygon> <polygon class="cls-13" points="44.38 126.46 58.25 134.47 58.25 119.32 44.38 111.31 44.38 126.46"></polygon> <polygon class="cls-13" points="60.41 202.59 74.28 210.6 74.28 195.46 60.41 187.45 60.41 202.59"></polygon> <polygon class="cls-13" points="44.38 193.33 58.25 201.34 58.25 186.2 44.38 178.19 44.38 193.33"></polygon> <polygon class="cls-13" points="60.41 108.24 74.28 116.25 74.28 101.11 60.41 93.1 60.41 108.24"></polygon> <polygon class="cls-13" points="44.38 98.99 58.25 107 58.25 91.85 44.38 83.84 44.38 98.99"></polygon> <polygon class="cls-13" points="44.38 165.95 58.25 173.96 58.25 146.77 44.38 138.76 44.38 165.95"></polygon> <polygon class="cls-13" points="7.75 105.31 21.63 113.32 21.63 98.18 7.75 90.17 7.75 105.31"></polygon> <polygon class="cls-13" points="7.75 172.19 21.63 180.2 21.63 165.06 7.75 157.05 7.75 172.19"></polygon> <polygon class="cls-13" points="7.75 77.84 21.63 85.85 21.63 70.71 7.75 62.7 7.75 77.84"></polygon> <polygon class="cls-13" points="7.75 145.05 21.63 153.06 21.63 125.2 7.75 117.19 7.75 145.05"></polygon> <polygon class="cls-5" points="0.03 180 187.24 288.09 187.24 275.82 0.03 167.73 0.03 180"></polygon> <polygon class="cls-14" points="0.03 152.64 187.24 260.73 187.24 248.46 0.03 140.37 0.03 152.64"></polygon> <polygon class="cls-5" points="0.03 113.13 187.24 221.21 187.24 208.94 0.03 100.85 0.03 113.13"></polygon> <polygon class="cls-15" points="0.03 85.68 187.24 193.77 187.24 181.5 0.03 73.41 0.03 85.68"></polygon> <polygon class="cls-5" points="0.03 58.89 187.24 166.97 187.24 154.7 0.03 46.62 0.03 58.89"></polygon> <polygon class="cls-16" points="211.71 234.14 328.72 301.69 372.59 276.36 255.59 208.81 211.71 234.14"></polygon> <g class="cls-17"> <path class="cls-18" d="M243.69,247.58l-8.46.17.06,1,9-.18h.44l29.67-.6-.35,8.08-12.63,7.51,1.19.66L274,257.41l-.57,13.13,47.57-.37h.88l38.19-.29.91,12.31-54.88,7.08.36.93,56.23-7.26-1-14-39.2.3,10.2-17-1.56-.31-10.4,17.33-7.12,0L293,229.49l-1.59.28,20.48,39.52-36.73.28.57-13.17,0-.38.35-8.13h0l0-.39,1.18-27.33-11-.25-1.19,0-29.25-.67-.07,1,28.59.65Zm1.84,0,20.65-26.67,9.43.21L274.48,247Z"></path> <polygon class="cls-18" points="222.38 240.41 220.74 240.3 223.66 226.29 225.31 226.41 222.38 240.41"></polygon> </g> <polygon class="cls-19" points="217.99 230.56 335 298.11 368.93 278.52 251.92 210.97 217.99 230.56"></polygon> <polygon class="cls-20" points="217.99 237.31 335 304.86 335 298.11 217.99 230.55 217.99 237.31"></polygon> <polygon class="cls-21" points="218.26 230.46 218.26 203.34 251.92 183.91 251.92 210.97 218.26 230.46"></polygon> <polygon class="cls-22" points="211.7 234.14 328.71 301.69 328.71 274.67 211.7 207.12 211.7 234.14"></polygon> <g class="cls-23"> <polygon class="cls-18" points="211.01 219.27 222 211.77 222.87 213.19 212.59 220.19 223.02 239.84 236.08 237.39 236.05 237.32 237.01 237.12 237.05 237.2 247 235.33 235.29 221.05 235.85 220.2 248.1 235.13 248.41 235.51 256.64 245.53 262.44 235.56 263.49 236.77 257.66 246.78 278.14 271.74 288.99 267.99 272.99 242.62 273.76 242.05 289.92 267.67 307.52 261.57 329.54 302.22 328.67 302.63 316.11 279.43 304.91 288.96 304 287.58 315.31 277.96 307.39 263.34 290.31 269.26 289.89 269.41 278.26 273.43 248.15 236.74 237.71 238.7 243.91 252.8 242.95 253 236.74 238.88 222.82 241.5 211.01 219.27"></polygon> </g> <polygon class="cls-24" points="211.71 207.12 328.72 274.67 372.59 249.34 255.59 181.79 211.71 207.12"></polygon> <g class="cls-25"> <path class="cls-18" d="M243.69,220.56l-8.46.17.06,1,9-.18h.44l29.67-.6-.35,8.08-12.63,7.51,1.19.66L274,230.39l-.57,13.13,47.57-.37h.88l38.19-.3.91,12.31-54.88,7.09.36.93,56.23-7.26-1-14-39.2.3,10.2-17-1.56-.32-10.4,17.34-7.12.05L293,202.47l-1.59.28,20.48,39.51-36.73.29.57-13.17,0-.38.35-8.13h0l0-.4,1.18-27.32-11-.25-1.19,0-29.25-.66-.07,1,28.59.64Zm1.84,0,20.65-26.68,9.43.22-1.13,25.87Z"></path> <polygon class="cls-18" points="222.38 213.39 220.74 213.28 223.66 199.27 225.31 199.38 222.38 213.39"></polygon> </g> <polygon class="cls-26" points="252.54 230.88 285.65 249.79 289.36 278.84 255.92 259.93 252.54 230.88"></polygon> </g> </g> </svg> 