<?xml version="1.0" encoding="UTF-8"?> <svg xmlns="http://www.w3.org/2000/svg" viewBox="0 0 50.97 125.39"> <defs> <style>.cls-1{fill:#53b75e;}.cls-2{fill:#0c7552;}.cls-3,.cls-5{fill:#0d6042;}.cls-3{opacity:0.38;}.cls-4{fill:#3aa559;}</style> </defs> <title>Дерево 4</title> <g id="Слой_2" data-name="Слой 2"> <g id="Слой_4" data-name="Слой 4"> <g id="елка"> <polygon class="cls-1" points="20.17 44.51 50.98 106.94 16.57 125.39 20.17 44.51"></polygon> <polygon class="cls-2" points="20.17 44.51 16.57 125.39 0 100.92 20.17 44.51"></polygon> <polygon class="cls-3" points="17.19 111.86 42.13 89 36.76 78.2 18.15 89.59 17.19 111.86"></polygon> <polygon class="cls-2" points="25.91 22.41 1.82 79.46 29.19 96.32 25.91 22.41"></polygon> <polygon class="cls-4" points="25.91 22.41 29.19 96.32 40.28 69.9 25.91 22.41"></polygon> <polygon class="cls-3" points="27.53 58.6 37.05 59.42 33.62 47.99 27.53 58.6"></polygon> <polygon class="cls-5" points="1.82 79.46 27.53 58.6 13.85 50.95 1.82 79.46"></polygon> <polygon class="cls-2" points="24.99 0 5.46 46.25 29.87 59.91 24.99 0"></polygon> <polygon class="cls-4" points="24.99 0 29.87 59.91 36.64 38.5 24.99 0"></polygon> <polygon class="cls-5" points="0 100.92 18.15 89.59 6.62 82.43 0 100.92"></polygon> </g> </g> </g> </svg> 