<?xml version="1.0" encoding="UTF-8"?> <svg xmlns="http://www.w3.org/2000/svg" viewBox="0 0 59.69 93.12"> <defs> <style>.cls-1{fill:#736357;}.cls-2{fill:#a67c52;}.cls-3{fill:#128450;}.cls-4{fill:#46bc64;}.cls-5{fill:#3aa559;}.cls-6{fill:#198e4d;}.cls-7{fill:#0c7552;}.cls-8{fill:#209951;}</style> </defs> <title>Дерево 3</title> <g id="Слой_2" data-name="Слой 2"> <g id="Слой_4" data-name="Слой 4"> <polygon class="cls-1" points="21.74 38.59 33.26 62.79 26.35 77.38 22.12 93.12 31.72 93.12 30.38 77.95 35.56 62.98 22.7 38.4 21.74 38.59"></polygon> <polygon class="cls-2" points="31.72 93.12 34.35 87.88 32.56 77.12 36.65 62.27 23.08 38.21 22.7 38.4 35.56 62.98 30.12 78.02 31.72 93.12"></polygon> <polyline class="cls-3" points="17.97 13.98 0 37.22 26.74 44.23 35.07 24.5 17.97 13.98"></polyline> <polyline class="cls-4" points="49.54 17.05 59.69 30.57 46.54 41.97 35.07 24.5 49.54 17.05"></polyline> <polyline class="cls-5" points="46.54 41.97 39.23 58.62 26.38 53.07 26.74 44.23 46.54 41.97"></polyline> <polygon class="cls-5" points="59.69 30.57 54.58 51.02 46.54 41.97 59.69 30.57"></polygon> <polygon class="cls-6" points="54.58 51.02 39.23 58.62 46.54 41.97 54.58 51.02"></polygon> <polyline class="cls-7" points="6.79 53.66 39.23 58.62 26.38 53.07 6.79 53.66"></polyline> <polygon class="cls-6" points="32.6 7.96 26.29 22.89 41.28 21.18 32.6 7.96"></polygon> <polygon class="cls-3" points="6.05 17.59 11.2 30.03 26.02 29.59 26.29 22.89 6.05 17.59"></polygon> <polygon class="cls-6" points="35.07 24.5 26.74 44.23 46.54 41.97 35.07 24.5"></polygon> <polygon class="cls-6" points="0 37.22 6.79 53.66 26.38 53.07 26.74 44.23 0 37.22"></polygon> <polyline class="cls-7" points="19.66 0 6.05 17.59 26.29 22.89 32.6 7.96 19.66 0"></polyline> <polygon class="cls-5" points="49.91 17.7 56.54 26.32 39.84 31.74 49.91 17.7"></polygon> <polyline class="cls-5" points="43.55 2.32 51.23 12.55 41.28 21.18 32.6 7.96 43.55 2.32"></polyline> <polyline class="cls-5" points="41.28 21.18 35.75 33.79 26.02 29.59 26.29 22.89 41.28 21.18"></polyline> <polygon class="cls-4" points="51.23 12.55 47.36 28.04 41.28 21.18 51.23 12.55"></polygon> <polygon class="cls-8" points="47.36 28.04 35.75 33.79 41.28 21.18 47.36 28.04"></polygon> <polyline class="cls-7" points="11.2 30.03 35.75 33.79 26.02 29.59 11.2 30.03"></polyline> <polygon class="cls-4" points="19.66 0 32.6 7.96 43.55 2.32 19.66 0"></polygon> </g> </g> </svg> 