<?xml version="1.0" encoding="UTF-8"?> <svg xmlns="http://www.w3.org/2000/svg" viewBox="0 0 345.34 203.59"> <defs> <style>.cls-1{fill:#4d4d4d;}.cls-2{fill:#3aa559;}</style> </defs> <title>Газон 3</title> <g id="Слой_2" data-name="Слой 2"> <g id="Слой_1-2" data-name="Слой 1"> <path class="cls-1" d="M154.84,196.49l26.23-85.81c.3-1,1.64-1.76,3.34-1.93L333,93.61c4-.41,6.49,2.38,3.63,4L161.82,198.58C159,200.23,154.14,198.78,154.84,196.49Z"></path> <path class="cls-1" d="M8.68,110.17,183.52,9.22c2.85-1.65,7.68-.19,7,2.1l-26.23,85.8c-.3,1-1.64,1.76-3.34,1.93L12.31,114.2C8.34,114.6,5.83,111.81,8.68,110.17Z"></path> <path class="cls-1" d="M158.93,114.59l-26.6,87c-.58,1.9-4.62,2.64-7,1.27L1.21,131.22c-2.36-1.36-1.08-3.69,2.2-4l150.74-15.36C157,111.55,159.43,113,158.93,114.59Z"></path> <path class="cls-1" d="M186.41,93.21l26.6-87c.58-1.9,4.62-2.63,7-1.27L344.13,76.58c2.36,1.36,1.09,3.69-2.2,4L191.19,96C188.37,96.26,185.91,94.84,186.41,93.21Z"></path> <path class="cls-2" d="M154.84,192.28l26.23-85.81c.3-1,1.64-1.76,3.34-1.93L333,89.4c4-.41,6.49,2.38,3.63,4L161.82,194.37C159,196,154.14,194.57,154.84,192.28Z"></path> <path class="cls-2" d="M8.68,106,183.52,5c2.85-1.65,7.68-.19,7,2.1l-26.23,85.8c-.3,1-1.64,1.76-3.34,1.93L12.31,110C8.34,110.39,5.83,107.6,8.68,106Z"></path> <path class="cls-2" d="M158.93,110.38l-26.6,87c-.58,1.9-4.62,2.64-7,1.27L1.21,127c-2.36-1.36-1.08-3.69,2.2-4l150.74-15.36C157,107.34,159.43,108.76,158.93,110.38Z"></path> <path class="cls-2" d="M186.41,89,213,2c.58-1.9,4.62-2.63,7-1.27L344.13,72.37c2.36,1.36,1.09,3.69-2.2,4L191.19,91.76C188.37,92.05,185.91,90.63,186.41,89Z"></path> </g> </g> </svg> 