<?xml version="1.0" encoding="UTF-8"?> <svg xmlns="http://www.w3.org/2000/svg" viewBox="0 0 35.19 96.35"> <defs> <style>.cls-1{opacity:0.14;}.cls-2{fill:#ff6464;}.cls-3{fill:#4a3b39;}.cls-4{fill:#29abe2;}.cls-5{fill:#f9cfad;}.cls-6{fill:#f9cfac;}.cls-7{fill:#facbaa;}.cls-8{fill:#553a31;}.cls-9{fill:#e03f3f;}.cls-10{fill:#6a5248;}.cls-11{fill:#6b5249;}.cls-12{fill:#f9cca8;}.cls-13{fill:#fd7161;}.cls-14{fill:#008dab;}.cls-15{fill:#dad3be;}</style> </defs> <title>женщина лево красная</title> <g id="Слой_2" data-name="Слой 2"> <g id="Слой_11" data-name="Слой 11"> <ellipse class="cls-1" cx="17.6" cy="87.49" rx="17.6" ry="8.86"></ellipse> <path class="cls-2" d="M11.33,58.69a5.57,5.57,0,0,1-1.56-7,65.63,65.63,0,0,0,2.09-6.78A18.71,18.71,0,0,0,12,33.31c-1.45-4.31.13-8.39.6-12.56.3-.45.44-1,.79-1.42.87-.91,1.64-2.22,3.13-.82-.06,1.95,1.31,1.94,2.67,1.93s.95,2.33,2.59,1.74c1.31-.57,2.57-1.4,4.1-.81a1.05,1.05,0,0,1,.5.54,1.09,1.09,0,0,1-.27,1c-3,1.9-3.67,5.84-1.6,9.87.23.43.59.78.81,1.22a1.54,1.54,0,0,1,0,.77c-.7,2.5-.3,5.05-.37,7.58A7.56,7.56,0,0,1,22.84,48a41.08,41.08,0,0,0-3.79,3.79,8.74,8.74,0,0,0-2.12,5.32,4.59,4.59,0,0,1-1.49,3.72C13.49,61.22,12.32,60.14,11.33,58.69Z"></path> <path class="cls-3" d="M12.26,5.42A7.91,7.91,0,0,1,17.08.51,6.41,6.41,0,0,1,26,6a49.74,49.74,0,0,0,2.53,13.64,6,6,0,0,1,.05,4.08c-1.84.51-1.69-1.24-2.36-2.06h0a5.39,5.39,0,0,0-2.9-.07c-1.33-.21-1.79-1.34-2.4-2.3a2.62,2.62,0,0,1-.19-.73,55.48,55.48,0,0,0,.34-6c-.18-4.75-3.2-6.66-7.54-4.72a1.81,1.81,0,0,1-.93.23C11.79,7.23,12.14,6.31,12.26,5.42Z"></path> <path class="cls-4" d="M26.18,47.87c2.58,3.61,2.93,8,4.29,12.07a2.1,2.1,0,0,1-1.24,2.81,18.39,18.39,0,0,0-4.59,2.78,1.84,1.84,0,0,1-1,.46c-.32.05.08,0-.25,0-3.72.66-4.33.23-4.23-3.66.08-2.9-.78-5.89.57-8.71,1.13-.92,1.09-2.56,2.17-3.51a2.1,2.1,0,0,0,2.41-1.2C24.84,48.44,25.1,47.42,26.18,47.87Z"></path> <path class="cls-5" d="M23.64,65.47l1,.06a13.35,13.35,0,0,1,.48,4.91c0,2.43-.34,4.16-.43,6.24-.13,3-.06,6-.08,9-1.65,1.9-2.4,2-4.37.46-.06-3.45.33-8.72.08-12.33a57,57,0,0,0-.9-6.89C20.63,65.73,22,65.89,23.64,65.47Z"></path> <path class="cls-6" d="M11.33,58.69c1.34.63,2.41,1.82,4,1.85a1,1,0,0,1,1,0c.78,1.76-.11,3.85,1.07,5.54-.45,2.32-1,3.9-1.41,6.23-.13.81-.25,3.12-.41,4.19-.25,2.38-.2,2.57-.47,4.4-1.32,1.13-2.62,1.68-3.8-.17,0-1.62.66-6.61.64-8.23A49.38,49.38,0,0,0,11.77,63C11.65,61.61,11.5,60.13,11.33,58.69Z"></path> <path class="cls-7" d="M26.18,47.87,24.65,49.3a1.72,1.72,0,0,1-2.25-.11c-.43-.42-.64-.88-.2-1.43a7,7,0,0,0,2-5.54c-.07-1.95,0-3.9,0-5.85,0-.78-.28-1.73,1-1.82A3,3,0,0,1,28,34.9a21.8,21.8,0,0,1-1.46,10.57A6.4,6.4,0,0,0,26.18,47.87Z"></path> <path class="cls-8" d="M13.3,17.71c.35-1.61.75-3.22,0-4.83-.18-.54.16-.63.57-.66a24.57,24.57,0,0,1,3.42,1.86c1.17.69,1.85,1.68.58,3-1.36.74-3.15.48-4.24,1.85C13,18.65,13,18.22,13.3,17.71Z"></path> <path class="cls-9" d="M28,34.9c-1,0-2,.35-2.86-.35V34c2.74-2.41,2.1-5.52,1.71-8.55-.12-.94-.88-1.76-.72-2.8l.06-1c1.16.26,1.08,1.93,2.36,2.06A38.61,38.61,0,0,1,28,34.9Z"></path> <path class="cls-8" d="M13.81,12.4l-.49.48c-1-2.4-2.07-4.78-1.06-7.46.34.79-.44,1.82.54,2.47A5.1,5.1,0,0,1,13.81,12.4Z"></path> <path class="cls-8" d="M13.3,17.71c.12.36.06.82.5,1,.38.53-.16.73-.36,1.05s.31,1.4-.84,1C12.29,19.61,12.88,18.68,13.3,17.71Z"></path> <path class="cls-10" d="M20.24,86.18c1.5.3,3,.62,4.37-.46-.13,3.52-2.87,5.77-6.55,5.41-.58-.06-1.22-.08-1.44-.68s.26-1.07.69-1.44C18.34,88.12,19.7,87.58,20.24,86.18Z"></path> <path class="cls-11" d="M11.38,80.71c1.23.92,2.52.47,3.8.17-.48,3.42-2.8,5.26-6.23,4.94-.54,0-1.23.07-1.39-.67s.32-1.06.8-1.38A8.36,8.36,0,0,0,11.38,80.71Z"></path> <path class="cls-12" d="M13.81,12.4a9.79,9.79,0,0,1-1-4.51c1.11-2.18,3-1.88,4.86-1.45a4.8,4.8,0,0,1,4,4.64,26.3,26.3,0,0,1-.52,7.76,1.92,1.92,0,0,1-1.92,1.84c-1,.12-1.95,1-2.93.09-.71-.66-.23-1.32.1-1.95a2.46,2.46,0,0,1,1.33-2.09c1-1.29.32-2-.95-2.28A4.7,4.7,0,0,1,13.81,12.4Z"></path> <path class="cls-9" d="M26.58,21.92C30,25.4,28.25,29.6,28.14,33.54c0,1.48-1.6,1.22-2.68,1.28-.36-.07-.85,0-1.06-.21-2-2-2.27-9.5-.53-11.74C24.64,21.89,25.58,22,26.58,21.92Z"></path> <path class="cls-9" d="M22.2,47.76c.06.4.1.81.53,1A.76.76,0,0,1,22.47,50c-1.75.82-2.72,2.4-3.76,3.9a35.93,35.93,0,0,0-.85,4.47c-.19,1-.2,2.15-1.6,2.3l-.91-.12A8.1,8.1,0,0,0,16.18,58C16,53.3,19,50.46,22.2,47.76Z"></path> <path class="cls-2" d="M17.7,16.73l-1.33,2.09c-1.59-1.55-1.85,1-2.93,1l.36-1.05C14.47,16.84,16.16,16.93,17.7,16.73Z"></path> <path class="cls-2" d="M19.2,20.68l1.92-1.84c.05.16.11.32.17.48.62.89.23,1.9.36,2.84a4.56,4.56,0,0,1,.13.62c-.61.38-1.24,1.3-1.62-.25A8.36,8.36,0,0,0,19.2,20.68Z"></path> <path class="cls-13" d="M23.3,21.3c1,.09,2-.51,2.86.38-1.6-.2-3,.57-4.38,1.1l-.11-.12C21.53,21.38,22.56,21.51,23.3,21.3Z"></path> <path class="cls-3" d="M23.3,21.3l-1.63,1.36c-2-.9,0-2.25-.38-3.34C22.26,19.68,22.26,21,23.3,21.3Z"></path> <path class="cls-14" d="M16.26,60.66c1.46-1.74.78-4,1.44-5.94.17-.51,0-1.14.53-1.51a1.33,1.33,0,0,1,2,.51c-1,4.16-.54,8.28.19,12.42,1.17-.18,2-1.4,3.22-.67a17.68,17.68,0,0,1-3.93,2.16l-2.49-1.72C14.71,64.56,16.53,62.42,16.26,60.66Z"></path> <path class="cls-14" d="M20.23,53.72l-2-.51c1.2-1.29,2.12-2.9,3.95-3.47.16.22.13.39-.12.52C21.44,51.41,21.93,53.14,20.23,53.72Z"></path> <path class="cls-15" d="M22.06,50.26l.12-.52.55-1a3.21,3.21,0,0,0,1.92.52C24,50.13,23.78,52.26,22.06,50.26Z"></path> </g> </g> </svg> 