<svg width="40" height="40" viewBox="0 0 40 40" fill="none" xmlns="http://www.w3.org/2000/svg">
<g clip-path="url(#clip0)">
<path d="M36.4842 14.1405H3.51566C2.86791 14.1405 2.34375 14.6646 2.34375 15.3124V36.4067C2.34375 37.0545 2.86791 37.5786 3.51566 37.5786H36.4842C37.132 37.5786 37.6561 37.0545 37.6561 36.4067V15.3124C37.6561 14.6646 37.132 14.1405 36.4842 14.1405ZM11.7972 11.7966C12.4449 11.7966 12.9691 11.2725 12.9691 10.6247C12.9691 9.97697 12.4449 9.45282 11.7972 9.45282C10.5039 9.45282 9.45333 8.40107 9.45333 7.109C9.45333 5.81693 10.5039 4.76518 11.7972 4.76518C12.4449 4.76518 13.0469 5.02269 13.4955 5.49418L19.1514 11.4327C19.7284 12.043 20.5272 11.7739 20.8497 11.4327L26.5078 5.49192C26.9542 5.02269 27.5561 4.76518 28.2039 4.76518C29.4971 4.76518 30.5477 5.81693 30.5477 7.109C30.5477 8.40107 29.4971 9.45282 28.2039 9.45282C27.5561 9.45282 27.032 9.97697 27.032 10.6247C27.032 11.2725 27.5561 11.7966 28.2039 11.7966C30.788 11.7966 32.8915 9.69431 32.8915 7.109C32.8915 4.52369 30.788 2.42136 28.2039 2.42136C26.9244 2.42136 25.6884 2.95239 24.8118 3.87593C20.7453 8.14372 20.0946 8.82663 20.0107 8.91475C20.0102 8.91522 20.0097 8.91577 20.0093 8.91624C20.009 8.91655 20.0087 8.91679 20.0085 8.91702C20.0075 8.91804 20.0061 8.91944 20.0046 8.92116C20.0051 8.92054 20.0057 8.91999 20.0062 8.91944C20.0053 8.92038 20.0046 8.92124 20.0039 8.92194C20.0041 8.92171 20.0043 8.92139 20.0046 8.92116C20.0043 8.92147 20.004 8.92186 20.0036 8.92218C20.0033 8.92257 20.0029 8.92296 20.0025 8.92343C20.0027 8.92319 20.0029 8.92288 20.0033 8.92264C20.0021 8.92382 20.0012 8.92483 20.0006 8.92538C20.0003 8.92507 20.0001 8.92491 19.9999 8.9246C20.0001 8.92483 20.0004 8.92514 20.0006 8.9253C20.0002 8.92491 19.9997 8.92429 19.999 8.92358C19.9988 8.92343 19.9986 8.92319 19.9984 8.92304C19.9985 8.92311 19.9986 8.92319 19.9986 8.92327C19.9981 8.92264 19.9973 8.92186 19.9965 8.921C19.9966 8.92108 19.9967 8.92116 19.9967 8.92116C19.9963 8.92077 19.996 8.92038 19.9956 8.92007C19.9955 8.91999 19.9954 8.91983 19.9953 8.91975L19.9954 8.91983C19.9947 8.91913 19.9947 8.91913 19.9942 8.91858C19.9947 8.91905 19.9948 8.91921 19.9953 8.91975C19.994 8.91843 19.9925 8.91686 19.9908 8.91499C19.9907 8.91491 19.9905 8.91475 19.9904 8.9146L19.9904 8.91468C19.9903 8.91444 19.9902 8.91444 19.9902 8.91444C19.9064 8.82647 19.2574 8.14512 15.1915 3.87695C14.3126 2.95223 13.0743 2.4212 11.7972 2.4212C9.21301 2.4212 7.10952 4.52353 7.10952 7.10884C7.10952 9.69415 9.21301 11.7966 11.7972 11.7966Z" fill="url(#paint0_linear)"/>
<path d="M22.9075 20.4693C21.6188 20.4693 20.6666 21.0575 20.0006 21.7968C19.3346 21.0575 18.3823 20.4693 17.0937 20.4693C14.8071 20.4693 13.0149 22.3702 13.0149 24.7965C13.0149 27.3451 14.9971 29.0195 17.7415 31.3347C18.2107 31.7306 18.7097 32.1518 19.2338 32.605C19.4536 32.7961 19.726 32.8911 20.0006 32.8911C20.2752 32.8911 20.5476 32.7961 20.7673 32.605C21.2961 32.1461 21.7974 31.7227 22.2665 31.3256C25.1093 28.9222 26.9862 27.3349 26.9862 24.7965C26.9863 22.3702 25.1941 20.4693 22.9075 20.4693ZM38.8281 9.45288H1.17191C0.524156 9.45288 0 9.97704 0 10.6248V15.3124C0 15.9602 0.524156 16.4843 1.17191 16.4843H38.8281C39.4758 16.4843 40 15.9602 40 15.3124V10.6248C40 9.97704 39.4758 9.45288 38.8281 9.45288Z" fill="url(#paint1_linear)"/>
</g>
<defs>
<linearGradient id="paint0_linear" x1="20" y1="37.5786" x2="20" y2="2.42136" gradientUnits="userSpaceOnUse">
<stop stop-color="#A93AFF"/>
<stop offset="1" stop-color="#FF81FF"/>
</linearGradient>
<linearGradient id="paint1_linear" x1="20" y1="32.8911" x2="20" y2="9.45288" gradientUnits="userSpaceOnUse">
<stop stop-color="#FFBEF9"/>
<stop offset="1" stop-color="#FFF1FF"/>
</linearGradient>
<clipPath id="clip0">
<rect width="40" height="40" fill="white"/>
</clipPath>
</defs>
</svg>
