<svg width="40" height="40" viewBox="0 0 40 40" fill="none" xmlns="http://www.w3.org/2000/svg">
<path d="M27.0312 0H12.9688C11.0302 0 9.45312 1.57711 9.45312 3.51562V36.4844C9.45312 38.4229 11.0302 40 12.9688 40H27.0312C28.9698 40 30.5469 38.4229 30.5469 36.4844V3.51562C30.5469 1.57711 28.9698 0 27.0312 0Z" fill="url(#paint0_linear)"/>
<path d="M18.8281 7.03125H21.1719C21.8191 7.03125 22.3438 6.50656 22.3438 5.85938C22.3438 5.21219 21.8191 4.6875 21.1719 4.6875H18.8281C18.1809 4.6875 17.6563 5.21219 17.6563 5.85938C17.6563 6.50656 18.1809 7.03125 18.8281 7.03125ZM21.1719 32.9688H18.8281C18.1809 32.9688 17.6563 33.4934 17.6563 34.1406C17.6563 34.7878 18.1809 35.3125 18.8281 35.3125H21.1719C21.8191 35.3125 22.3438 34.7878 22.3438 34.1406C22.3438 33.4934 21.8191 32.9688 21.1719 32.9688ZM22.9071 14.2188C21.7752 14.2188 20.7794 14.6792 20 15.5566C19.2206 14.6792 18.2248 14.2188 17.0929 14.2188C14.8056 14.2188 13.0139 16.1197 13.0139 18.5464C13.0139 21.0938 14.9945 22.7653 17.7356 25.0789C18.2138 25.4826 18.7084 25.9 19.2326 26.3543C19.4528 26.5452 19.7264 26.6406 20.0001 26.6406C20.2738 26.6406 20.5474 26.5452 20.7676 26.3543C21.2944 25.8977 21.7879 25.4805 22.2651 25.0769C25.1081 22.6729 26.9863 21.0847 26.9863 18.5463C26.9862 16.1197 25.1945 14.2188 22.9071 14.2188Z" fill="url(#paint1_linear)"/>
<defs>
<linearGradient id="paint0_linear" x1="20" y1="40" x2="20" y2="0" gradientUnits="userSpaceOnUse">
<stop stop-color="#5558FF"/>
<stop offset="1" stop-color="#00C0FF"/>
</linearGradient>
<linearGradient id="paint1_linear" x1="20" y1="35.3125" x2="20" y2="4.6875" gradientUnits="userSpaceOnUse">
<stop stop-color="#ADDCFF"/>
<stop offset="0.5028" stop-color="#EAF6FF"/>
<stop offset="1" stop-color="#EAF6FF"/>
</linearGradient>
</defs>
</svg>
