<svg width="40" height="40" viewBox="0 0 40 40" fill="none" xmlns="http://www.w3.org/2000/svg">
<path d="M37.8259 31.7824C39.2505 29.6495 39.9998 27.2116 39.9998 24.6875C39.9998 18.4956 35.5899 13.1686 29.5141 12.0212C29.1716 11.9564 28.8174 12.0478 28.5488 12.2704C28.2802 12.4931 28.1248 12.8238 28.1248 13.1727V22.3438C28.1248 22.9899 27.5991 23.5156 26.9529 23.5156H15.3904C14.7432 23.5156 14.2185 24.0403 14.2185 24.6875C14.2185 31.7954 20.0012 37.5781 27.1091 37.5781C29.6333 37.5781 32.0711 36.8289 34.204 35.4042L38.3037 37.4544C38.4703 37.5377 38.6496 37.5781 38.8276 37.5781C39.1316 37.5781 39.4315 37.4599 39.6565 37.2349C40.0131 36.8781 40.1016 36.3332 39.876 35.882L37.8259 31.7824ZM16.7691 20.9509C17.2924 20.4974 17.7821 20.0832 18.2558 19.6827C21.2377 17.1612 23.3921 15.3394 23.3921 12.2573C23.3921 9.17345 21.0856 6.75775 18.1412 6.75775C17.068 6.75775 16.0807 7.07736 15.2341 7.69134C14.3876 7.07736 13.4002 6.75775 12.327 6.75775C9.38266 6.75775 7.07617 9.17345 7.07617 12.2573C7.07617 15.349 9.34344 17.2626 12.2152 19.6864C12.6902 20.0873 13.1812 20.5019 13.6992 20.9507C14.1252 21.3199 14.6704 21.5233 15.2342 21.5233C15.798 21.5233 16.3431 21.3201 16.7691 20.9509Z" fill="url(#paint0_linear)"/>
<path d="M26.9531 2.42188H3.51562C1.57711 2.42188 0 3.99898 0 5.9375V22.3438C0 24.2823 1.57711 25.8594 3.51562 25.8594H4.6875V29.375C4.6875 29.849 4.97305 30.2763 5.41094 30.4577C5.55594 30.5177 5.7082 30.5469 5.85914 30.5469C6.16414 30.5469 6.46391 30.4278 6.68805 30.2036L11.0323 25.8594H26.9531C28.8916 25.8594 30.4688 24.2823 30.4688 22.3438V5.9375C30.4688 3.99898 28.8916 2.42188 26.9531 2.42188ZM17.4994 18.7878C17.0221 19.1914 16.5287 19.6087 16.0019 20.0652C15.7816 20.2561 15.508 20.3516 15.2344 20.3516C14.9607 20.3516 14.6871 20.2562 14.4669 20.0652C13.9427 19.6109 13.448 19.1935 12.9698 18.7898C10.2288 16.4762 8.2482 14.8047 8.2482 12.2573C8.2482 9.83062 10.0399 7.92969 12.3272 7.92969C13.4591 7.92969 14.4549 8.39016 15.2343 9.26758C16.0138 8.39016 17.0095 7.92969 18.1414 7.92969C20.4287 7.92969 22.2204 9.83062 22.2204 12.2573C22.2205 14.7956 20.3423 16.3838 17.4994 18.7878Z" fill="url(#paint1_linear)"/>
<defs>
<linearGradient id="paint0_linear" x1="23.538" y1="37.5781" x2="23.538" y2="6.75783" gradientUnits="userSpaceOnUse">
<stop stop-color="#FFE59A"/>
<stop offset="1" stop-color="#FFFFD5"/>
</linearGradient>
<linearGradient id="paint1_linear" x1="15.2344" y1="30.5469" x2="15.2344" y2="2.42188" gradientUnits="userSpaceOnUse">
<stop stop-color="#FD5900"/>
<stop offset="1" stop-color="#FFDE00"/>
</linearGradient>
</defs>
</svg>
