<svg width="25" height="16" viewBox="0 0 25 16" fill="none" xmlns="http://www.w3.org/2000/svg">
<path d="M23.0487 0.122554C21.9615 -0.317552 20.7489 0.531223 20.038 1.0342C18.4073 2.22877 17.0274 3.61196 15.4801 4.8694C13.7657 6.25259 12.1767 7.63578 10.4205 8.98758C9.4169 9.74205 8.32971 10.5594 7.66066 11.5025C6.15531 10.4022 4.85903 9.20759 3.18642 8.23312C1.97378 7.54152 -0.0333597 7.03855 0.00845558 8.70466C0.0920862 10.8738 2.64282 13.2001 4.52451 14.6775C5.319 15.3062 6.36439 15.9664 7.57703 15.9978C9.04057 16.0607 10.5459 14.7404 11.424 14.0174C12.9713 12.7599 14.2257 11.3452 15.6474 10.0564C17.4873 8.35886 19.369 6.6927 21.167 4.96371C22.296 3.89489 25.8503 1.2542 23.0487 0.122554ZM1.84826 8.57891C1.80645 8.57891 1.76463 8.57891 1.681 8.6103C1.51374 8.57891 1.38829 8.54743 1.22103 8.48456C1.34648 8.42168 1.55555 8.45312 1.84826 8.57891Z" fill="white"/>
</svg>
