<svg width="40" height="40" viewBox="0 0 40 40" fill="none" xmlns="http://www.w3.org/2000/svg">
<g clip-path="url(#clip0)">
<path d="M7.95672 19.7465C8.97844 22.5087 10.959 24.9538 13.6406 26.5048L15.3125 29.2952L20 30.5469L24.2009 29.4251L26.3594 26.5049C29.037 24.9561 31.0201 22.5127 32.0433 19.7466C33.9291 19.1165 35.2344 17.3528 35.2344 15.3125C35.2344 13.3022 33.9539 11.545 32.1038 10.8955C30.8364 7.42483 28.1285 4.59522 24.7534 3.25186H15.2466C11.8715 4.59514 9.16359 7.42476 7.89617 10.8955C6.04609 11.545 4.76562 13.3022 4.76562 15.3125C4.76562 17.3528 6.07086 19.1165 7.95672 19.7465ZM4.76562 38.8281C4.76562 39.4753 5.29031 40 5.9375 40H20L11.7969 27.2782C7.62641 29.4284 4.76562 33.7984 4.76562 38.8281ZM28.2031 27.2782L20 40H34.0625C34.7097 40 35.2344 39.4753 35.2344 38.8281C35.2344 33.7984 32.3736 29.4284 28.2031 27.2782Z" fill="url(#paint0_linear)"/>
<path d="M20 28.2031C17.7384 28.2031 15.5681 27.6198 13.6405 26.5049C13.0029 26.7158 12.3865 26.9742 11.7969 27.2783V31.7188C11.7969 36.2851 15.4768 40 20 40C24.5232 40 28.2031 36.2851 28.2031 31.7188V27.2782C27.6134 26.9742 26.997 26.7157 26.3594 26.5048C24.4319 27.6198 22.2616 28.2031 20 28.2031ZM24.6875 18.8281C24.6875 16.2434 22.5847 14.1406 20 14.1406C17.4153 14.1406 15.3125 16.2434 15.3125 18.8281C15.3125 21.4128 17.4153 23.5156 20 23.5156C22.5847 23.5156 24.6875 21.4128 24.6875 18.8281ZM30.0452 0.504375C29.8262 0.188437 29.4664 0 29.082 0C29.082 0 25.2163 0 25.2119 7.8125e-05C23.5874 0.0182812 22.4316 0.325 20 2.06289C17.5626 0.321172 16.402 0.0151563 14.769 7.8125e-05C14.7654 0 10.918 0 10.918 0C10.5336 0 10.1737 0.188437 9.95476 0.504375C9.73585 0.820312 9.68578 1.22344 9.8207 1.58336L12.4574 8.61461C12.6289 9.07195 13.0662 9.375 13.5547 9.375C15.2915 9.375 17.5056 7.96242 20 5.27602C22.4944 7.96242 24.7086 9.375 26.4453 9.375C26.9338 9.375 27.3711 9.07195 27.5426 8.61461L30.1793 1.58336C30.3142 1.22344 30.2641 0.820312 30.0452 0.504375Z" fill="url(#paint1_linear)"/>
</g>
<defs>
<linearGradient id="paint0_linear" x1="20" y1="40" x2="20" y2="3.25194" gradientUnits="userSpaceOnUse">
<stop stop-color="#FFC2CC"/>
<stop offset="1" stop-color="#FFF2F4"/>
</linearGradient>
<linearGradient id="paint1_linear" x1="20" y1="40" x2="20" y2="0" gradientUnits="userSpaceOnUse">
<stop stop-color="#FD3A84"/>
<stop offset="1" stop-color="#FFA68D"/>
</linearGradient>
<clipPath id="clip0">
<rect width="40" height="40" fill="white"/>
</clipPath>
</defs>
</svg>
