<svg width="40" height="40" viewBox="0 0 40 40" fill="none" xmlns="http://www.w3.org/2000/svg">
<g clip-path="url(#clip0)">
<path d="M13.5208 4.9756L11.7184 6.77798C11.2605 7.23588 11.2605 7.97688 11.7184 8.4347C12.1763 8.8926 12.9173 8.8926 13.3751 8.4347L15.1775 6.63232C15.6354 6.17442 15.6354 5.43342 15.1775 4.9756C14.7196 4.51778 13.9787 4.51778 13.5208 4.9756ZM18.2548 6.86857L16.4524 8.67095C15.9945 9.12885 15.9945 9.86986 16.4524 10.3277C16.9103 10.7856 17.6513 10.7856 18.1091 10.3277L19.9115 8.5253C20.3694 8.0674 20.3694 7.32639 19.9115 6.86857C19.4537 6.41068 18.7127 6.41068 18.2548 6.86857ZM33.1655 21.7793C33.6234 21.3214 33.6234 20.5804 33.1655 20.1225C32.7076 19.6646 31.9666 19.6646 31.5088 20.1225L29.7064 21.9249C29.2485 22.3828 29.2485 23.1238 29.7064 23.5816C30.1643 24.0395 30.9053 24.0395 31.3631 23.5816L33.1655 21.7793ZM35.0585 24.8565C34.6006 24.3986 33.8596 24.3986 33.4017 24.8565L31.5994 26.6589C31.1415 27.1168 31.1415 27.8578 31.5994 28.3156C32.0573 28.7735 32.7983 28.7735 33.2561 28.3156L35.0585 26.5133C35.5163 26.0554 35.5163 25.3144 35.0585 24.8565Z" fill="url(#paint0_linear)"/>
<path d="M29.522 17.0575C41.624 4.69662 40.3097 1.31936 39.5186 0.528214C38.7274 -0.262934 35.2721 -1.65529 22.9113 10.4467L8.2327 4.57447C7.79831 4.40054 7.3016 4.50246 6.96991 4.83415L3.65646 8.1476C3.11133 8.69274 3.22777 9.60853 3.91614 10.0009L16.5763 17.034C13.6762 20.2188 11.0293 23.3576 8.99886 26.0288H2.82782C2.51722 26.0288 2.21935 26.1522 1.99974 26.3718L0.34301 28.0285C0.0558381 28.3157 -0.0614674 28.7307 0.0315491 29.1263C0.123785 29.5195 0.415799 29.839 0.800829 29.9685L5.3973 31.5006C4.8278 32.6817 4.52688 33.8692 5.31319 34.6555C6.09949 35.4418 7.287 35.1409 8.46809 34.5714L10.0003 39.1679C10.1277 39.5502 10.446 39.8448 10.8423 39.9372C11.2379 40.0302 11.6529 39.9129 11.9401 39.6257L13.5968 37.969C13.8164 37.7494 13.9398 37.4515 13.9398 37.1409V30.9699C16.611 28.9393 19.7497 26.2925 22.9346 23.3924L29.9676 36.0526C30.3682 36.7527 31.2852 36.848 31.8209 36.3122L35.1345 32.9988C35.4662 32.6671 35.5681 32.1704 35.3942 31.736L29.522 17.0575Z" fill="url(#paint1_linear)"/>
</g>
<defs>
<linearGradient id="paint0_linear" x1="21.7034" y1="18.3928" x2="26.5823" y2="13.5139" gradientUnits="userSpaceOnUse">
<stop stop-color="#C3FFE8"/>
<stop offset="0.9973" stop-color="#F0FFF4"/>
</linearGradient>
<linearGradient id="paint1_linear" x1="5.36022" y1="34.6707" x2="39.5214" y2="0.509531" gradientUnits="userSpaceOnUse">
<stop stop-color="#00B59C"/>
<stop offset="1" stop-color="#9CFFAC"/>
</linearGradient>
<clipPath id="clip0">
<rect width="40" height="40" fill="white"/>
</clipPath>
</defs>
</svg>
