<svg width="40" height="40" viewBox="0 0 40 40" fill="none" xmlns="http://www.w3.org/2000/svg">
<path d="M32.9641 15.4991C32.9664 15.4373 32.9688 15.3755 32.9688 15.3125C32.9688 12.7273 30.8653 10.625 28.2812 10.625C26.9583 10.625 25.7086 11.1927 24.832 12.1402L19.3686 8.04211C17.533 6.66531 15.3471 5.9375 13.0469 5.9375C7.23102 5.9375 2.5 10.6685 2.5 16.4844C2.5 19.794 4.03125 22.7523 6.42531 24.6875H3.51562C1.57703 24.6875 0 26.2645 0 28.2031C0 30.1417 1.57703 31.7188 3.51562 31.7188H13.0469C13.6923 31.7188 14.2188 32.2441 14.2188 32.8906C14.2188 33.5384 14.7429 34.0625 15.3906 34.0625C16.0384 34.0625 16.5625 33.5384 16.5625 32.8906C16.5625 30.952 14.9855 29.375 13.0469 29.375H3.51562C2.87016 29.375 2.34375 28.8497 2.34375 28.2031C2.34375 27.5566 2.87016 27.0312 3.51562 27.0312H33.9048C35.5711 26.9992 40 26.9168 40 23.5156C40 20.6649 36.0953 16.4329 32.9641 15.4991Z" fill="url(#paint0_linear)"/>
<path d="M31.7969 22.3438C32.4441 22.3438 32.9688 21.8191 32.9688 21.1719C32.9688 20.5247 32.4441 20 31.7969 20C31.1497 20 30.625 20.5247 30.625 21.1719C30.625 21.8191 31.1497 22.3438 31.7969 22.3438Z" fill="url(#paint1_linear)"/>
<defs>
<linearGradient id="paint0_linear" x1="20" y1="34.0625" x2="20" y2="5.9375" gradientUnits="userSpaceOnUse">
<stop stop-color="#5558FF"/>
<stop offset="1" stop-color="#00C0FF"/>
</linearGradient>
<linearGradient id="paint1_linear" x1="31.7969" y1="22.3438" x2="31.7969" y2="20" gradientUnits="userSpaceOnUse">
<stop stop-color="#ADDCFF"/>
<stop offset="0.5028" stop-color="#EAF6FF"/>
<stop offset="1" stop-color="#EAF6FF"/>
</linearGradient>
</defs>
</svg>
