<svg width="40" height="40" viewBox="0 0 40 40" fill="none" xmlns="http://www.w3.org/2000/svg">
<path d="M17.0726 28.2738C16.5211 27.1307 15.1521 26.602 13.9026 27.2026C12.6973 27.8317 12.312 29.282 12.8818 30.3359L15.2255 35.0223C15.7478 36.0728 16.978 36.6883 18.3864 36.0786C19.5171 35.488 19.9771 34.0816 19.4072 32.9441L17.0726 28.2738ZM26.0768 27.1923C24.918 26.6172 23.4845 27.1159 22.9366 28.2566L20.5928 32.9441C20.0229 34.0817 20.483 35.4881 21.6983 36.1188C22.9597 36.6517 24.2292 36.1187 24.7745 35.0235L27.0999 30.3703C27.6927 29.2727 27.3144 27.8373 26.0768 27.1923ZM20 9.55125C20.6477 9.55125 21.1719 9.02711 21.1719 8.37937V5.85938C21.1719 3.92078 22.7489 2.34375 24.6875 2.34375C25.3352 2.34375 25.8594 1.81961 25.8594 1.17188C25.8594 0.524141 25.3352 0 24.6875 0C21.4557 0 18.8281 2.62867 18.8281 5.85938V8.37937C18.8281 9.02711 19.3523 9.55125 20 9.55125ZM25.2528 10.5297C24.7745 10.3157 24.2045 10.4507 23.8704 10.8638C23.2273 11.6569 22.227 12.5027 20.9613 13.5727C20.6523 13.8313 20.3319 14.1025 20 14.3875C19.6864 14.1186 19.382 13.8622 19.0913 13.6162C17.8027 12.5267 16.7865 11.6661 16.1365 10.8478C15.8023 10.4301 15.2278 10.2894 14.7426 10.5079C10.1055 12.5736 7.10938 17.1891 7.10938 22.2656C7.10938 22.6891 7.13453 23.1399 7.18945 23.5634C7.2375 23.941 7.46641 24.2717 7.80289 24.4503C8.13703 24.6266 8.53758 24.63 8.88094 24.4606L10.6273 23.5771L14.7884 25.6577C15.118 25.8224 15.5071 25.8224 15.8367 25.6577L20 23.5759L24.1634 25.6577C24.493 25.8224 24.8824 25.8223 25.2116 25.6577L29.3727 23.5771L31.1191 24.4606C31.4579 24.63 31.8584 24.6266 32.1972 24.4503C32.5337 24.2718 32.7625 23.941 32.8106 23.5634C32.8655 23.1399 32.8906 22.6891 32.8906 22.2656C32.8906 17.1764 29.8923 12.5691 25.2528 10.5297Z" fill="url(#paint0_linear)"/>
<path d="M35.1639 24.2343C35.07 23.9296 34.8595 23.6953 34.5779 23.5547L29.9139 21.2109C29.5625 21.0469 29.1872 21.0469 28.8593 21.2109L24.6874 23.2969L20.5154 21.2109C20.1875 21.0469 19.8122 21.0469 19.4843 21.2109L15.3124 23.2969L11.1404 21.2109C10.8125 21.0469 10.4372 21.0469 10.0858 21.2109L5.42176 23.5547C5.1402 23.6953 4.92965 23.9296 4.83583 24.2343C4.71856 24.539 4.742 24.8437 4.88278 25.1249L11.914 39.3437C12.1249 39.7422 12.5235 40 12.9686 40H27.0311C27.4763 40 27.8749 39.7422 28.0857 39.3437L35.117 25.1249C35.2577 24.8437 35.2812 24.539 35.1639 24.2343ZM17.8438 35.0391C17.1766 35.3244 16.5532 35.0595 16.2731 34.4999L13.9293 29.8124C13.625 29.2499 13.8593 28.5469 14.4452 28.2421C15.0311 27.9609 15.7341 28.1952 16.0156 28.7811L18.3593 33.4686C18.6404 34.0312 18.4297 34.7344 17.8438 35.0391ZM26.0704 29.8124L23.7267 34.4999C23.451 35.0507 22.833 35.3287 22.156 35.0391C21.57 34.7344 21.3595 34.0311 21.6404 33.4686L23.9842 28.7811C24.2657 28.1952 24.9922 27.9609 25.5546 28.2421C26.1405 28.5469 26.3748 29.2499 26.0704 29.8124ZM17.5783 15.4049C18.0911 15.8398 18.6449 16.3067 19.2286 16.8183C19.4483 17.0117 19.7252 17.109 19.9999 17.109C20.2746 17.109 20.5515 17.0117 20.7712 16.8183C21.3754 16.2907 21.9431 15.8089 22.4718 15.3626C23.8337 14.2136 24.9094 13.3049 25.7197 12.3105C26.5825 11.2313 26.9854 10.1864 26.9854 9.02375C26.9854 6.59187 25.1932 4.68758 22.9067 4.68758C21.6204 4.68758 20.6659 5.27922 19.9999 6.02195C19.3339 5.27914 18.3794 4.6875 17.0931 4.6875C14.8065 4.6875 13.0144 6.5918 13.0144 9.02367C13.0144 10.167 13.4241 11.2118 14.3007 12.3081C15.0972 13.306 16.1913 14.233 17.5783 15.4049Z" fill="url(#paint1_linear)"/>
<defs>
<linearGradient id="paint0_linear" x1="20" y1="36.3272" x2="20" y2="0" gradientUnits="userSpaceOnUse">
<stop stop-color="#FFBEF9"/>
<stop offset="1" stop-color="#FFF1FF"/>
</linearGradient>
<linearGradient id="paint1_linear" x1="19.9999" y1="40" x2="19.9999" y2="4.6875" gradientUnits="userSpaceOnUse">
<stop stop-color="#A93AFF"/>
<stop offset="1" stop-color="#FF81FF"/>
</linearGradient>
</defs>
</svg>
