<svg width="40" height="40" viewBox="0 0 40 40" fill="none" xmlns="http://www.w3.org/2000/svg">
<path d="M20 0C12.2455 0 5.9375 6.30797 5.9375 14.0625C5.9375 23.7556 18.5672 38.9495 19.1051 39.5846C19.3271 39.8478 19.6544 40 20 40C20.3456 40 20.6729 39.8478 20.8949 39.5846C21.4328 38.9495 34.0625 23.7556 34.0625 14.0625C34.0625 6.30797 27.7545 0 20 0Z" fill="url(#paint0_linear)"/>
<path d="M22.9069 8.67236C21.6183 8.67236 20.6661 9.26057 20.0001 9.99987C19.3341 9.26057 18.3819 8.67236 17.0933 8.67236C14.8068 8.67236 13.0146 10.5732 13.0146 12.9994C13.0146 15.548 14.9968 17.2223 17.7411 19.5375C18.2103 19.9334 18.7093 20.3546 19.2334 20.8078C19.4532 20.9989 19.7255 21.0939 20.0001 21.0939C20.2725 21.0939 20.5471 20.9989 20.7668 20.8078C21.2864 20.358 21.7808 19.9414 22.2454 19.5489C24.8276 17.3702 26.9856 15.6338 26.9856 12.9995C26.9856 10.5732 25.1935 8.67236 22.9069 8.67236Z" fill="url(#paint1_linear)"/>
<defs>
<linearGradient id="paint0_linear" x1="20" y1="40" x2="20" y2="0" gradientUnits="userSpaceOnUse">
<stop stop-color="#FD3A84"/>
<stop offset="1" stop-color="#FFA68D"/>
</linearGradient>
<linearGradient id="paint1_linear" x1="20.0001" y1="21.0938" x2="20.0001" y2="8.67236" gradientUnits="userSpaceOnUse">
<stop stop-color="#FFC2CC"/>
<stop offset="1" stop-color="#FFF2F4"/>
</linearGradient>
</defs>
</svg>
