<svg width="40" height="40" viewBox="0 0 40 40" fill="none" xmlns="http://www.w3.org/2000/svg">
<path d="M9.22391 28.2762C8.78445 26.8343 7.4432 25.7814 5.85938 25.7814C4.27555 25.7814 2.9343 26.8343 2.49484 28.2762C1.05289 28.7145 0 30.0569 0 31.6407C0 33.5793 1.57703 35.1564 3.51562 35.1564H8.20312C10.1417 35.1564 11.7188 33.5793 11.7188 31.6407C11.7188 30.0569 10.6659 28.7145 9.22391 28.2762ZM20 26.1647C19.3523 26.1647 18.8281 26.6889 18.8281 27.3366V31.6407C18.8281 32.2885 19.3523 32.8126 20 32.8126C20.6477 32.8126 21.1719 32.2885 21.1719 31.6407V27.3366C21.1719 26.6889 20.6477 26.1647 20 26.1647ZM11.4375 18.63C11.1995 18.0268 10.5174 17.7362 9.91773 17.9697C9.31578 18.2077 9.02055 18.8886 9.25852 19.4906L14.223 32.0711C14.4566 32.6669 15.1302 32.9685 15.7427 32.7314C16.3447 32.4933 16.6399 31.8124 16.402 31.2104L11.4375 18.63ZM30.0159 18.1688C29.423 17.9296 28.7318 18.2249 28.4961 18.8268L23.598 31.2093C23.36 31.8113 23.6552 32.4922 24.2573 32.7303C24.8472 32.9672 25.5381 32.6801 25.777 32.0722L30.6751 19.6897C30.913 19.0877 30.6178 18.4068 30.0159 18.1688ZM37.5052 30.62C37.0657 29.178 35.7245 28.1251 34.1406 28.1251C32.5568 28.1251 31.2155 29.178 30.7761 30.62C29.3341 31.0582 28.2812 32.4007 28.2812 33.9845C28.2812 35.9231 29.8583 37.5001 31.7969 37.5001H36.4844C38.423 37.5001 40 35.9231 40 33.9845C40 32.4007 38.9471 31.0582 37.5052 30.62Z" fill="url(#paint0_linear)"/>
<path d="M27.6058 0C24.4999 0 21.8608 1.65367 20.0001 3.30508C18.1393 1.65367 15.5002 0 12.3943 0C7.391 0 3.6167 4.05352 3.6167 9.42875C3.6167 11.0778 4.01498 12.6377 4.83436 14.1998C6.63568 17.6353 10.3641 20.7584 15.086 24.7112C16.457 25.859 17.9241 27.087 19.4668 28.4248C19.6865 28.6159 19.9589 28.7109 20.2335 28.7109C20.5081 28.7109 20.7805 28.6159 21.0002 28.4248L22.2934 27.3044C25.6763 24.3781 28.3473 22.0664 30.6453 19.8669C32.8357 17.7715 34.2181 16.0674 35.1268 14.3428C35.9714 12.7384 36.3833 11.1305 36.3833 9.42875C36.3834 4.05352 32.6091 0 27.6058 0V0ZM24.7651 30.4688H15.3901C14.7423 30.4688 14.2182 30.9929 14.2182 31.6406V36.4844C14.2182 38.423 15.7952 40 17.7338 40H22.4213C24.3599 40 25.9369 38.423 25.9369 36.4844V31.6406C25.9369 30.9929 25.4128 30.4688 24.7651 30.4688Z" fill="url(#paint1_linear)"/>
<defs>
<linearGradient id="paint0_linear" x1="20" y1="37.5001" x2="20" y2="17.8891" gradientUnits="userSpaceOnUse">
<stop stop-color="#9BFF9D"/>
<stop offset="0.9973" stop-color="#E2FFEA"/>
<stop offset="1" stop-color="#E2FFEA"/>
</linearGradient>
<linearGradient id="paint1_linear" x1="20.0001" y1="40" x2="20.0001" y2="0" gradientUnits="userSpaceOnUse">
<stop stop-color="#00B59C"/>
<stop offset="1" stop-color="#9CFFAC"/>
</linearGradient>
</defs>
</svg>
