<svg width="21" height="25" viewBox="0 0 21 25" fill="none" xmlns="http://www.w3.org/2000/svg">
<path d="M10.5 0C4.70014 0 0 4.63464 0 10.3494C0 16.0642 4.70014 20.6988 10.5 20.6988V25L17.6782 17.9015C19.7227 16.0139 21 13.3285 21 10.3494C21.0005 4.63464 16.2984 0 10.5 0ZM10.4644 13.5315C9.62696 13.5315 8.8627 13.218 8.28709 12.7028H8.28565L8.09073 12.5121L8.06571 12.486L5.85569 10.3385H7.22492C7.22492 8.57526 8.67548 7.14598 10.4639 7.14598C12.2543 7.14598 13.7043 8.57574 13.7043 10.3385C13.7048 12.1018 12.2547 13.5315 10.4644 13.5315Z" fill="url(#paint0_linear)"/>
<defs>
<linearGradient id="paint0_linear" x1="10.5002" y1="-8.06436e-05" x2="10.5002" y2="25" gradientUnits="userSpaceOnUse">
<stop offset="0.0882" stop-color="white"/>
<stop offset="1" stop-color="#C3C1C0"/>
</linearGradient>
</defs>
</svg>
