<svg width="18" height="18" viewBox="0 0 18 18" fill="none" xmlns="http://www.w3.org/2000/svg">
<path d="M0 18L1.27142 13.3782C0.487156 12.0254 0.0746368 10.491 0.0752131 8.91896C0.0772303 4.00107 4.09753 0 9.03768 0C11.435 0.00100404 13.6852 0.929877 15.3773 2.61579C17.0693 4.3017 18.0009 6.5427 18 8.92613C17.9978 13.8439 13.977 17.8455 9.03768 17.8455C9.03739 17.8455 9.03782 17.8455 9.03768 17.8455H9.03379C7.53385 17.8449 6.06013 17.4704 4.75111 16.7597L0 18ZM4.97113 15.1451L5.24331 15.3056C6.38678 15.9812 7.69782 16.3385 9.0348 16.3392H9.03768C13.1433 16.3392 16.4849 13.0133 16.4867 8.92556C16.4874 6.9446 15.7133 5.08184 14.3069 3.68064C12.9003 2.27944 11.0302 1.50734 9.04042 1.50648C4.9315 1.50648 1.58999 4.83198 1.58841 8.91953C1.58783 10.3203 1.98148 11.6844 2.72727 12.8648L2.90449 13.1454L2.15179 15.8809L4.97113 15.1451Z" fill="white"/>
<path fill-rule="evenodd" clip-rule="evenodd" d="M6.79855 5.19023C6.63083 4.81903 6.45418 4.81157 6.29453 4.80511C6.16399 4.79952 6.01457 4.79981 5.86544 4.79981C5.71617 4.79981 5.47353 4.85575 5.26835 5.07878C5.06303 5.30182 4.48438 5.84113 4.48438 6.93797C4.48438 8.03494 5.28694 9.09477 5.39889 9.24365C5.51085 9.39239 6.94811 11.7151 9.22424 12.6087C11.1159 13.3514 11.5008 13.2037 11.9114 13.1665C12.3221 13.1294 13.2363 12.6272 13.4229 12.1067C13.6096 11.5862 13.6096 11.1401 13.5536 11.0468C13.4975 10.9539 13.3483 10.8982 13.1244 10.7867C12.9005 10.6753 11.7995 10.1358 11.5942 10.0615C11.3888 9.98707 11.2396 9.95006 11.0903 10.1732C10.9409 10.3961 10.5121 10.8982 10.3814 11.0468C10.2507 11.1958 10.12 11.2144 9.89611 11.1028C9.6722 10.9911 8.95091 10.7559 8.09532 9.99639C7.42964 9.40559 6.98009 8.6758 6.84941 8.45262C6.71887 8.22972 6.84725 8.11957 6.94782 7.99779C7.12893 7.77848 7.43281 7.38419 7.50745 7.23559C7.58209 7.08671 7.54477 6.95661 7.48886 6.84502C7.43281 6.73357 6.99753 5.63115 6.79855 5.19023Z" fill="white"/>
</svg>
