<svg width="20" height="20" viewBox="0 0 20 20" fill="none" xmlns="http://www.w3.org/2000/svg">
<path d="M0 20L1.41269 14.8646C0.541285 13.3616 0.0829298 11.6567 0.0835701 9.90996C0.0858115 4.44563 4.55281 0 10.0419 0C12.7055 0.0011156 15.2058 1.0332 17.0859 2.90643C18.9659 4.77967 20.001 7.26967 20 9.91792C19.9976 15.3821 15.53 19.8284 10.0419 19.8284C10.0415 19.8284 10.042 19.8284 10.0419 19.8284H10.0375C8.37094 19.8277 6.73348 19.4116 5.27901 18.6219L0 20ZM5.52347 16.8279L5.8259 17.0062C7.09642 17.7569 8.55313 18.1539 10.0387 18.1547H10.0419C14.6036 18.1547 18.3166 14.4592 18.3185 9.91729C18.3193 7.71623 17.4593 5.64649 15.8966 4.0896C14.3337 2.53271 12.2558 1.67482 10.0449 1.67386C5.47945 1.67386 1.76666 5.36886 1.7649 9.91059C1.76426 11.467 2.20164 12.9826 3.0303 14.2942L3.22722 14.606L2.39087 17.6455L5.52347 16.8279Z" fill="white"/>
<path fill-rule="evenodd" clip-rule="evenodd" d="M7.55323 5.76694C7.36688 5.35449 7.1706 5.3462 6.99322 5.33903C6.84817 5.33281 6.68215 5.33313 6.51645 5.33313C6.35059 5.33313 6.08099 5.39529 5.85302 5.64311C5.62488 5.89093 4.98193 6.49016 4.98193 7.70886C4.98193 8.92773 5.87367 10.1053 5.99806 10.2707C6.12246 10.436 7.71941 13.0168 10.2484 14.0097C12.3503 14.8349 12.778 14.6708 13.2342 14.6295C13.6905 14.5882 14.7063 14.0303 14.9136 13.4519C15.1211 12.8736 15.1211 12.3779 15.0588 12.2742C14.9966 12.1711 14.8307 12.1091 14.5819 11.9852C14.3331 11.8614 13.1098 11.262 12.8817 11.1795C12.6536 11.0968 12.4877 11.0556 12.3218 11.3036C12.1558 11.5513 11.6794 12.1091 11.5342 12.2742C11.389 12.4398 11.2438 12.4605 10.995 12.3365C10.7462 12.2123 9.94475 11.951 8.9941 11.1071C8.25445 10.4507 7.75495 9.63979 7.60975 9.39181C7.4647 9.14415 7.60735 9.02175 7.71909 8.88645C7.92033 8.64277 8.25798 8.20466 8.34091 8.03956C8.42383 7.87413 8.38237 7.72958 8.32025 7.60559C8.25798 7.48176 7.77433 6.25684 7.55323 5.76694Z" fill="white"/>
</svg>
