<?xml version="1.0" encoding="UTF-8"?> <svg xmlns="http://www.w3.org/2000/svg" viewBox="0 0 566.97 116.49"> <defs> <style>.cls-1{fill:#fff;}</style> </defs> <title>Облако 1</title> <g id="Слой_2" data-name="Слой 2"> <g id="Слой_12" data-name="Слой 12"> <path class="cls-1" d="M112.74,116.49,530.88,108c14.09-.29,31.75-3.19,35.48-16.79,3.89-14.09-11.53-26.09-25.71-29.62C503,52.26,463.46,70,424.9,65.64a48.18,48.18,0,0,1-21.37-6.75C395.42,53.5,390.36,44.71,385,36.62c-9-13.34-20-25.95-34.7-32.49S316.74-1.6,305.19,9.57c-7.08,6.85-10.65,16.54-17.08,24a41,41,0,0,1-43.46,11.59c-6.15-2.24-12.38-5.88-18.72-4.49-5.68,1.33-9.52,6.4-14.15,9.93-20.23,15.42-48,.14-71.91-8.38-45.19-16.16-99.33-3.53-132.59,31C3.82,76.76.5,80.87.05,85.59c-.9,10.47,11.41,16.59,21.59,19.19a360.38,360.38,0,0,0,100,11.24Z"></path> </g> </g> </svg> 