<?xml version="1.0" encoding="UTF-8"?> <svg xmlns="http://www.w3.org/2000/svg" viewBox="0 0 310 169.75"> <defs> <style>.cls-1{fill:#fff;}.cls-2{fill:#fcc142;}.cls-3{fill:#2e3192;}</style> </defs> <title>ПОСОЛЬСТВО ЗНАНИЙ</title> <g id="Слой_2" data-name="Слой 2"> <g id="Слой_8_копия3_" data-name="Слой 8 (копия3)"> <polygon class="cls-1" points="310 136 15.5 136 7.67 140 4 136 4 0 310 0 310 136"></polygon> <polygon class="cls-2" points="306 140 11.5 140 0 169.75 0 140 0 4 306 4 306 140"></polygon> <path class="cls-3" d="M24.44,63.79H17.13V40H38.72v23.8H31.44V46.28h-7Z"></path> <path class="cls-3" d="M47,43.16a12.39,12.39,0,0,1,9.14-3.64,12.32,12.32,0,0,1,9.11,3.64,12.41,12.41,0,0,1,0,17.5,12.27,12.27,0,0,1-9.11,3.57A12.4,12.4,0,0,1,47,60.63a12.37,12.37,0,0,1,0-17.47ZM56.09,57.6A5,5,0,0,0,59.87,56a5.92,5.92,0,0,0,1.49-4.12,5.79,5.79,0,0,0-1.49-4.08,5.19,5.19,0,0,0-7.55,0,5.75,5.75,0,0,0-1.5,4.08A5.88,5.88,0,0,0,52.32,56,4.94,4.94,0,0,0,56.09,57.6Z"></path> <path class="cls-3" d="M76.66,60.83a11.46,11.46,0,0,1-3.87-8.94A11.41,11.41,0,0,1,76.63,43a13.92,13.92,0,0,1,9.72-3.47,13.12,13.12,0,0,1,6,1.26v6.9a12,12,0,0,0-5.81-1.57,6.28,6.28,0,0,0-4.49,1.67,5.66,5.66,0,0,0,.07,8.29,6.89,6.89,0,0,0,4.69,1.6A10,10,0,0,0,92.71,56v7a14.16,14.16,0,0,1-6.29,1.25A14.23,14.23,0,0,1,76.66,60.83Z"></path> <path class="cls-3" d="M100.5,43.16a13.26,13.26,0,0,1,18.25,0,12.41,12.41,0,0,1,0,17.5,12.27,12.27,0,0,1-9.11,3.57,12.4,12.4,0,0,1-9.14-3.6,12.37,12.37,0,0,1,0-17.47Zm9.14,14.44A4.94,4.94,0,0,0,113.41,56a5.88,5.88,0,0,0,1.5-4.12,5.75,5.75,0,0,0-1.5-4.08,5.17,5.17,0,0,0-7.54,0,5.75,5.75,0,0,0-1.5,4.08,5.88,5.88,0,0,0,1.5,4.12A4.94,4.94,0,0,0,109.64,57.6Z"></path> <path class="cls-3" d="M125.21,57a4.14,4.14,0,0,0,1.67.44,2.86,2.86,0,0,0,1.87-.51c.82-.71,1.43-3.29,1.5-9l.1-8h18.76v23.8h-7.27V46.28H137l0,2.86c-.07,5.81-.88,9.79-2.41,12a6.54,6.54,0,0,1-6,3,6.82,6.82,0,0,1-3.34-.61Z"></path> <path class="cls-3" d="M154.42,63.79V40h7.28v6.87h3.36a10.39,10.39,0,0,1,7.17,2.42,8.17,8.17,0,0,1,0,12.17,10.54,10.54,0,0,1-7.17,2.34Zm7.28-11.22v5.14h2.92c1.77,0,3-1,3-2.52a2.7,2.7,0,0,0-3-2.62Z"></path> <path class="cls-3" d="M182,60.83a11.44,11.44,0,0,1-3.88-8.94A11.41,11.41,0,0,1,182,43a13.94,13.94,0,0,1,9.73-3.47,13.08,13.08,0,0,1,6,1.26v6.9a12,12,0,0,0-5.81-1.57,6.29,6.29,0,0,0-4.49,1.67,5.68,5.68,0,0,0,.07,8.29,6.93,6.93,0,0,0,4.69,1.6,9.92,9.92,0,0,0,5.88-1.7v7a16,16,0,0,1-16-2.15Z"></path> <path class="cls-3" d="M201.88,46.28V40h20.91v6.29H216V63.79h-7.31V46.28Z"></path> <path class="cls-3" d="M227,63.79V40h12.07a8.86,8.86,0,0,1,5.44,1.57,5.17,5.17,0,0,1,2.14,4.52,4.4,4.4,0,0,1-.95,2.89,5.75,5.75,0,0,1-1.9,1.63,5.62,5.62,0,0,1,3,2,6.21,6.21,0,0,1,1.5,4.25,6.09,6.09,0,0,1-2.41,5,9.94,9.94,0,0,1-6.33,1.9Zm7.31-18.12v3.2h3.71a1.62,1.62,0,0,0,1.73-1.53,1.64,1.64,0,0,0-1.73-1.67Zm0,8.3v3.94h3.84A1.93,1.93,0,0,0,240.37,56a2,2,0,0,0-2.18-2Z"></path> <path class="cls-3" d="M255.53,43.16a13.27,13.27,0,0,1,18.26,0,12.43,12.43,0,0,1,0,17.5,12.27,12.27,0,0,1-9.11,3.57,12.44,12.44,0,0,1-9.15-3.6,12.4,12.4,0,0,1,0-17.47Zm9.15,14.44A4.94,4.94,0,0,0,268.45,56a5.88,5.88,0,0,0,1.5-4.12,5.75,5.75,0,0,0-1.5-4.08,5.17,5.17,0,0,0-7.54,0,5.75,5.75,0,0,0-1.5,4.08,5.88,5.88,0,0,0,1.5,4.12A4.94,4.94,0,0,0,264.68,57.6Z"></path> <path class="cls-3" d="M16.12,96V89.19a14,14,0,0,0,8.19,2.58c2.72,0,4.08-.68,4.08-2,0-1.12-1.06-1.5-3-1.5H21.86V82.73h3.91c1.53,0,2.31-.44,2.31-1.32s-1.15-1.53-3.43-1.53a16.85,16.85,0,0,0-7.75,1.76V75.42a18.56,18.56,0,0,1,8.5-1.9,11.89,11.89,0,0,1,7.27,2,5.94,5.94,0,0,1,2.69,5,4.81,4.81,0,0,1-2.86,4.76,5.81,5.81,0,0,1,3.44,5.33,6.64,6.64,0,0,1-2.89,5.48,12.46,12.46,0,0,1-7.76,2.17A16.93,16.93,0,0,1,16.12,96Z"></path> <path class="cls-3" d="M47.5,97.79H40.19V74H47.5v8.06h7.27V74h7.31v23.8H54.77V88.41H47.5Z"></path> <path class="cls-3" d="M73.17,97.79H65.62l9.79-23.93h7L92.2,97.79H84.35l-1.7-4.45H74.9Zm5.61-15.57L77,87.87h3.5Z"></path> <path class="cls-3" d="M103,97.79H95.71V74H103v8.06h7.27V74h7.31v23.8h-7.31V88.41H103Z"></path> <path class="cls-3" d="M129.13,97.79h-6.22V74H130V85.83L139.16,74h6v23.8h-7V86.06Z"></path> <path class="cls-3" d="M156.7,97.79h-6.22V74h7.07V85.83L166.73,74h6v23.8h-7V86.06ZM157,71.21A5.89,5.89,0,0,1,155,66.69h4.62a1.72,1.72,0,0,0,2,1.83,1.69,1.69,0,0,0,1.94-1.83h4.69a5.86,5.86,0,0,1-1.9,4.52,7.56,7.56,0,0,1-9.38,0Z"></path> </g> </g> </svg> 