<?xml version="1.0" encoding="UTF-8"?> <svg xmlns="http://www.w3.org/2000/svg" xmlns:xlink="http://www.w3.org/1999/xlink" viewBox="0 0 767.49 550.12"> <defs> <style>.cls-1{fill:url(#Безымянный_градиент_17);}.cls-2{fill:#2e3192;}.cls-3{fill:#4d4d4d;}.cls-4{fill:#3ba38f;}.cls-5{fill:#736357;}.cls-6{fill:#a67c52;}.cls-7{fill:#128450;}.cls-8{fill:#3aa559;}.cls-9{fill:#198e4d;}.cls-10{fill:#0c7552;}.cls-11{fill:#46bc64;}.cls-12{fill:#209951;}.cls-13{fill:url(#Безымянный_градиент_103);}.cls-14{fill:url(#Безымянный_градиент_103-2);}.cls-15{fill:#c0dee2;}.cls-16{fill:#70b6b7;}.cls-17{fill:url(#Безымянный_градиент_124);}.cls-18{fill:url(#Безымянный_градиент_108);}.cls-19{fill:#daf0f2;}.cls-20{fill:#fff;}.cls-21{fill:url(#Безымянный_градиент_129);}.cls-22{fill:#9b0a67;}.cls-23{fill:#fcc142;}.cls-24{fill:#ec008c;}</style> <linearGradient id="Безымянный_градиент_17" x1="275.35" y1="13666.34" x2="470.42" y2="13328.49" gradientTransform="matrix(1, 0, 0, -1, 0, 13832.25)" gradientUnits="userSpaceOnUse"> <stop offset="0" stop-color="#2e3192"></stop> <stop offset="1" stop-color="#29abe2"></stop> </linearGradient> <linearGradient id="Безымянный_градиент_103" x1="271.51" y1="411.34" x2="399.51" y2="221.34" gradientUnits="userSpaceOnUse"> <stop offset="0" stop-color="#29abe2"></stop> <stop offset="1" stop-color="#ec008c"></stop> </linearGradient> <linearGradient id="Безымянный_градиент_103-2" x1="508.94" y1="13379.17" x2="508.94" y2="13616.18" gradientTransform="matrix(1, 0, 0, -1, 0, 13832.25)" xlink:href="#Безымянный_градиент_103"></linearGradient> <linearGradient id="Безымянный_градиент_124" x1="401.08" y1="13507.17" x2="419.87" y2="13538.5" gradientTransform="matrix(1, 0, 0, -1, 0, 13832.25)" gradientUnits="userSpaceOnUse"> <stop offset="0" stop-color="#c6b28d" stop-opacity="0"></stop> <stop offset="0.61" stop-color="#168285" stop-opacity="0.3"></stop> </linearGradient> <linearGradient id="Безымянный_градиент_108" x1="461.2" y1="13499.51" x2="445.1" y2="13557.73" gradientTransform="matrix(1, 0, 0, -1, 0, 13832.25)" gradientUnits="userSpaceOnUse"> <stop offset="0" stop-color="#e5d9c1" stop-opacity="0"></stop> <stop offset="0.61" stop-color="#70b6b7" stop-opacity="0.3"></stop> </linearGradient> <linearGradient id="Безымянный_градиент_129" x1="418.16" y1="13633.77" x2="354.4" y2="13756.88" gradientTransform="matrix(1, 0, 0, -1, 0, 13832.25)" gradientUnits="userSpaceOnUse"> <stop offset="0" stop-color="#daf0f2" stop-opacity="0"></stop> <stop offset="1" stop-color="#70b6b7"></stop> </linearGradient> </defs> <title>посольство 1</title> <g id="Слой_2" data-name="Слой 2"> <g id="Слой_12" data-name="Слой 12"> <g id="Слой_2-2" data-name="Слой 2"> <g id="Слой_1-2" data-name="Слой 1-2"> <path class="cls-1" d="M12.18,351.8l331.3,191.28c16.24,9.38,42.57,9.38,58.82,0L733.58,351.82c16.25-9.38,16.25-24.59,0-34L402.29,126.59c-16.25-9.38-42.58-9.38-58.82,0L12.18,317.85C-4.06,327.23-4.06,342.43,12.18,351.8Z"></path> <path class="cls-2" d="M12.18,334.83,343.48,526.1c16.24,9.38,42.57,9.38,58.82,0L733.58,334.83c16.25-9.37,16.25-24.57,0-33.95L402.29,109.6c-16.25-9.37-42.58-9.37-58.82,0L12.18,300.87C-4.06,310.25-4.06,325.46,12.18,334.83Z"></path> <path class="cls-3" d="M185.3,283.17,273.91,232c.8-.47.7-1.24-.22-1.81L249,216a3.5,3.5,0,0,0-3.12-.13L157.32,267c-.81.47-.7,1.24.22,1.81l24.67,14.25A3.53,3.53,0,0,0,185.3,283.17Z"></path> <path class="cls-4" d="M185.3,281l88.61-51.15c.8-.47.7-1.24-.22-1.81L249,213.8a3.47,3.47,0,0,0-3.12-.12l-88.54,51.16c-.81.47-.7,1.24.22,1.8l24.67,14.25A3.47,3.47,0,0,0,185.3,281Z"></path> <path class="cls-3" d="M101.58,331.51l88.61-51.15c.81-.46.71-1.24-.22-1.81l-24.66-14.23a3.49,3.49,0,0,0-3.13-.14L73.56,315.35c-.8.46-.7,1.24.23,1.8l24.66,14.24A3.43,3.43,0,0,0,101.58,331.51Z"></path> <path class="cls-4" d="M101.58,329.36l88.61-51.16c.81-.46.71-1.24-.22-1.81l-24.66-14.23a3.49,3.49,0,0,0-3.13-.14L73.56,313.19c-.8.46-.7,1.24.23,1.8l24.66,14.25A3.49,3.49,0,0,0,101.58,329.36Z"></path> <path class="cls-3" d="M209,296.83l88.62-51.16c.79-.47.69-1.23-.23-1.8L272.7,229.62a3.47,3.47,0,0,0-3.12-.12L181,280.65c-.79.48-.69,1.24.23,1.81l24.67,14.25A3.47,3.47,0,0,0,209,296.83Z"></path> <path class="cls-4" d="M209,294.68l88.62-51.16c.79-.47.69-1.24-.23-1.81L272.7,227.47a3.47,3.47,0,0,0-3.12-.13L181,278.5c-.79.47-.69,1.24.23,1.81l24.67,14.24A3.5,3.5,0,0,0,209,294.68Z"></path> <path class="cls-3" d="M125.26,345.18,213.87,294c.81-.46.71-1.24-.22-1.81L189,278a3.47,3.47,0,0,0-3.12-.14L97.25,329c-.8.46-.7,1.24.23,1.8l24.66,14.24A3.44,3.44,0,0,0,125.26,345.18Z"></path> <path class="cls-4" d="M125.26,343l88.61-51.16c.81-.47.71-1.23-.22-1.8L189,275.81a3.47,3.47,0,0,0-3.12-.12L97.25,326.85c-.8.47-.7,1.23.23,1.8l24.66,14.25A3.47,3.47,0,0,0,125.26,343Z"></path> <path class="cls-3" d="M645.36,332.62l-88.69-51.17c-.79-.46-.69-1.24.23-1.8l24.67-14.24a3.44,3.44,0,0,1,3.12-.13l88.61,51.16c.81.47.71,1.24-.22,1.81l-24.66,14.23A3.47,3.47,0,0,1,645.36,332.62Z"></path> <path class="cls-4" d="M645.36,330.46l-88.69-51.17c-.79-.46-.69-1.24.23-1.79l24.67-14.25a3.43,3.43,0,0,1,3.12-.12l88.61,51.15c.81.46.71,1.24-.22,1.81l-24.66,14.24A3.5,3.5,0,0,1,645.36,330.46Z"></path> <path class="cls-3" d="M629,342l-88.61-51.16c-.8-.47-.7-1.23.22-1.8l24.67-14.25a3.47,3.47,0,0,1,3.12-.12L657,325.88c.81.47.71,1.24-.22,1.81l-24.68,14.24A3.46,3.46,0,0,1,629,342Z"></path> <path class="cls-4" d="M629,339.88l-88.61-51.16c-.8-.47-.7-1.24.22-1.81l24.67-14.29a3.47,3.47,0,0,1,3.12-.13L657,323.65c.81.47.71,1.24-.22,1.81L632.09,339.7A3.47,3.47,0,0,1,629,339.88Z"></path> <path class="cls-3" d="M207.79,394.51l-88.61-51.17c-.81-.45-.71-1.23.22-1.79l24.67-14.25a3.49,3.49,0,0,1,3.13-.12l88.61,51.16c.79.46.7,1.24-.22,1.79l-24.68,14.25A3.5,3.5,0,0,1,207.79,394.51Z"></path> <path class="cls-4" d="M207.79,392.36l-88.61-51.17c-.81-.46-.71-1.24.22-1.8l24.67-14.24a3.49,3.49,0,0,1,3.13-.14l88.61,51.17c.79.46.7,1.24-.22,1.8l-24.68,14.24A3.47,3.47,0,0,1,207.79,392.36Z"></path> </g> <g id="Слой_4" data-name="Слой 4"> <polygon class="cls-5" points="107.97 178.07 138.2 241.56 120.07 279.86 108.98 321.18 134.18 321.18 130.65 281.37 144.26 242.06 110.49 177.56 107.97 178.07"></polygon> <polygon class="cls-6" points="134.18 321.18 141.06 307.41 136.36 279.18 147.11 240.21 111.5 177.05 110.49 177.56 144.26 242.06 129.98 281.53 134.18 321.18"></polygon> <polyline class="cls-7" points="98.08 113.46 50.91 174.44 121.1 192.84 142.96 141.07 98.08 113.46"></polyline> <polyline class="cls-8" points="173.07 186.91 153.88 230.62 120.14 216.06 121.1 192.84 173.07 186.91"></polyline> <polygon class="cls-9" points="194.17 210.68 153.88 230.62 173.07 186.91 194.17 210.68"></polygon> <polyline class="cls-10" points="68.74 217.59 153.88 230.62 120.14 216.06 68.74 217.59"></polyline> <polygon class="cls-9" points="136.47 97.65 119.92 136.84 159.26 132.35 136.47 97.65"></polygon> <polygon class="cls-7" points="66.79 122.91 80.3 155.57 119.19 154.41 119.92 136.84 66.79 122.91"></polygon> <polygon class="cls-9" points="142.96 141.07 121.1 192.84 173.07 186.91 142.96 141.07"></polygon> <polygon class="cls-9" points="50.91 174.44 68.74 217.59 120.14 216.06 121.1 192.84 50.91 174.44"></polygon> <polyline class="cls-10" points="102.5 76.75 66.79 122.91 119.92 136.84 136.47 97.65 102.5 76.75"></polyline> <polyline class="cls-8" points="165.21 82.85 185.38 109.7 159.26 132.35 136.47 97.65 165.21 82.85"></polyline> <polyline class="cls-8" points="159.26 132.35 144.74 165.44 119.19 154.41 119.92 136.84 159.26 132.35"></polyline> <polygon class="cls-11" points="185.38 109.7 175.23 150.34 159.26 132.35 185.38 109.7"></polygon> <polygon class="cls-12" points="175.23 150.34 144.74 165.44 159.26 132.35 175.23 150.34"></polygon> <polyline class="cls-10" points="80.3 155.57 144.74 165.44 119.19 154.41 80.3 155.57"></polyline> <polygon class="cls-11" points="102.5 76.75 136.47 97.65 165.21 82.85 102.5 76.75"></polygon> <g id="куст"> <polygon class="cls-9" points="152.77 316.55 145.82 333.03 162.36 331.13 152.77 316.55"></polygon> <polygon class="cls-7" points="123.49 327.17 129.16 340.9 145.51 340.41 145.82 333.03 123.49 327.17"></polygon> <polyline class="cls-10" points="138.5 307.76 123.49 327.17 145.82 333.03 152.77 316.55 138.5 307.76"></polyline> <polyline class="cls-8" points="164.86 310.32 173.34 321.62 162.36 331.13 152.77 316.55 164.86 310.32"></polyline> <polyline class="cls-8" points="162.36 331.13 156.25 345.05 145.51 340.41 145.82 333.03 162.36 331.13"></polyline> <polygon class="cls-11" points="173.34 321.62 169.07 338.7 162.36 331.13 173.34 321.62"></polygon> <polygon class="cls-12" points="169.07 338.7 156.25 345.05 162.36 331.13 169.07 338.7"></polygon> <polyline class="cls-10" points="129.16 340.9 156.25 345.05 145.51 340.41 129.16 340.9"></polyline> <polygon class="cls-11" points="138.5 307.76 152.77 316.55 164.86 310.32 138.5 307.76"></polygon> </g> <polygon class="cls-5" points="611.95 239.37 628.41 273.95 618.54 294.8 612.5 317.31 626.22 317.31 624.3 295.63 631.71 274.23 613.33 239.1 611.95 239.37"></polygon> <polygon class="cls-6" points="626.22 317.31 629.98 309.81 627.41 294.44 633.27 273.22 613.87 238.82 613.33 239.1 631.71 274.23 623.93 295.72 626.22 317.31"></polygon> <polyline class="cls-7" points="606.56 204.19 580.87 237.4 619.1 247.42 631 219.23 606.56 204.19"></polyline> <polyline class="cls-11" points="651.68 208.57 666.19 227.9 647.4 244.19 631 219.23 651.68 208.57"></polyline> <polyline class="cls-8" points="647.4 244.19 636.96 268 618.58 260.07 619.1 247.42 647.4 244.19"></polyline> <polygon class="cls-8" points="666.19 227.9 658.89 257.13 647.4 244.19 666.19 227.9"></polygon> <polygon class="cls-9" points="658.89 257.13 636.96 268 647.4 244.19 658.89 257.13"></polygon> <polyline class="cls-10" points="590.59 260.9 636.96 268 618.58 260.07 590.59 260.9"></polyline> <polygon class="cls-9" points="627.47 195.59 618.46 216.92 639.87 214.48 627.47 195.59"></polygon> <polygon class="cls-7" points="589.53 209.34 596.88 227.13 618.06 226.5 618.46 216.92 589.53 209.34"></polygon> <polygon class="cls-9" points="631 219.23 619.1 247.42 647.4 244.19 631 219.23"></polygon> <polygon class="cls-9" points="580.87 237.4 590.59 260.9 618.58 260.07 619.1 247.42 580.87 237.4"></polygon> <polyline class="cls-10" points="608.98 184.21 589.53 209.34 618.46 216.92 627.47 195.59 608.98 184.21"></polyline> <polygon class="cls-8" points="652.21 209.5 661.68 221.83 637.82 229.57 652.21 209.5"></polygon> <polyline class="cls-8" points="643.12 187.53 654.1 202.15 639.87 214.48 627.47 195.59 643.12 187.53"></polyline> <polyline class="cls-8" points="639.87 214.48 631.97 232.51 618.06 226.5 618.46 216.92 639.87 214.48"></polyline> <polygon class="cls-11" points="654.1 202.15 648.57 224.28 639.87 214.48 654.1 202.15"></polygon> <polygon class="cls-12" points="648.57 224.28 631.97 232.51 639.87 214.48 648.57 224.28"></polygon> <polyline class="cls-10" points="596.88 227.13 631.97 232.51 618.06 226.5 596.88 227.13"></polyline> <polygon class="cls-11" points="608.98 184.21 627.47 195.59 643.12 187.53 608.98 184.21"></polygon> <polyline class="cls-11" points="180.93 121.51 207.59 156.98 173.07 186.91 142.96 141.07 180.93 121.51"></polyline> <polygon class="cls-8" points="207.59 156.98 194.17 210.68 173.07 186.91 207.59 156.98"></polygon> <polygon class="cls-8" points="181.89 123.2 199.32 145.85 155.48 160.07 181.89 123.2"></polygon> <polygon class="cls-13" points="432.21 453.08 232.29 337.67 232.29 189.29 432.21 304.7 432.21 453.08"></polygon> <polygon class="cls-14" points="585.69 364.46 432.18 453.08 432.18 304.7 585.69 216.07 585.69 364.46"></polygon> <polygon class="cls-15" points="512.81 431.63 521.28 426.75 521.28 253.63 512.81 258.51 512.81 431.63"></polygon> <polygon class="cls-16" points="504.35 426.73 512.82 431.63 512.82 258.51 504.35 253.61 504.35 426.73"></polygon> <polygon class="cls-15" points="553.14 408.07 561.6 403.17 561.6 230.05 553.14 234.95 553.14 408.07"></polygon> <polygon class="cls-16" points="544.68 403.17 553.14 408.05 553.14 234.93 544.68 230.05 544.68 403.17"></polygon> <polygon class="cls-15" points="299.43 401.13 307.89 396.24 307.89 223.12 299.43 228.01 299.43 401.13"></polygon> <polygon class="cls-16" points="290.97 396.24 299.43 401.12 299.43 228 290.97 223.12 290.97 396.24"></polygon> <polygon class="cls-15" points="260.28 378.04 268.74 373.16 268.74 200.04 260.28 204.92 260.28 378.04"></polygon> <polygon class="cls-16" points="251.8 373.15 260.28 378.04 260.28 204.92 251.8 200.03 251.8 373.15"></polygon> <polygon class="cls-15" points="342.71 426.41 351.17 421.52 351.17 248.4 342.71 253.29 342.71 426.41"></polygon> <polygon class="cls-16" points="334.25 421.52 342.71 426.4 342.71 253.28 334.25 248.4 334.25 421.52"></polygon> <polygon class="cls-16" points="432.22 477.82 385.75 451 385.75 277.88 432.22 304.7 432.22 477.82"></polygon> <polygon class="cls-17" points="432.22 345.91 385.75 319.09 385.75 277.88 432.22 304.7 432.22 345.91"></polygon> <polygon class="cls-15" points="478.67 451 432.21 477.82 432.21 304.7 478.67 277.88 478.67 451"></polygon> <polygon class="cls-18" points="478.67 319.09 432.21 345.91 432.21 304.7 478.67 277.88 478.67 319.09"></polygon> <polygon class="cls-15" points="384.9 497.93 393.37 493.05 393.37 423.79 384.9 428.67 384.9 497.93"></polygon> <polygon class="cls-16" points="376.43 493.04 384.9 497.93 384.9 428.67 376.43 423.77 376.43 493.04"></polygon> <polygon class="cls-15" points="304.13 451.31 312.59 446.42 312.59 377.15 304.13 382.04 304.13 451.31"></polygon> <polygon class="cls-16" points="295.65 446.42 304.11 451.3 304.11 382.03 295.65 377.15 295.65 446.42"></polygon> <polygon class="cls-19" points="384.9 416.3 295.65 364.79 342.05 337.99 431.3 389.51 384.9 416.3"></polygon> <polygon class="cls-15" points="384.9 428.68 431.3 401.88 431.3 389.51 384.9 416.3 384.9 428.68"></polygon> <polygon class="cls-16" points="384.9 428.68 295.65 377.15 295.65 364.79 384.9 416.3 384.9 428.68"></polygon> <path class="cls-20" d="M602.09,195.61,596,189.55C530.77,124.25,459.13,82.9,393.91,72.86l-6-.91L218,170l214.2,123.63,160.36-92.6,9.52,5.49Z"></path> <path class="cls-21" d="M602.09,195.61,596,189.55C530.77,124.25,459.13,82.9,393.91,72.86l-6-.91L218,170l214.2,123.63,160.36-92.6,9.52,5.49Z"></path> <path class="cls-16" d="M426.11,287.64C360.88,222.35,289.25,181,224,171l-6-.93v11L432.21,304.7v-11Z"></path> <path class="cls-15" d="M245.11,186.15l-4.73-.73,169.46,97.86-4.79-4.81C353.41,226.78,296.74,194.09,245.11,186.15Z"></path> <polygon class="cls-15" points="602.1 195.62 432.21 293.71 432.21 304.7 602.1 206.61 602.1 195.62"></polygon> <g id="куст-2"> <polygon class="cls-9" points="197.38 255.86 190.41 272.33 206.95 270.44 197.38 255.86"></polygon> <polygon class="cls-7" points="168.08 266.47 173.75 280.21 190.1 279.71 190.41 272.33 168.08 266.47"></polygon> <polyline class="cls-10" points="183.09 247.06 168.08 266.47 190.41 272.33 197.38 255.86 183.09 247.06"></polyline> <polyline class="cls-8" points="209.45 249.63 217.94 260.92 206.95 270.44 197.38 255.86 209.45 249.63"></polyline> <polyline class="cls-8" points="206.95 270.44 200.84 284.36 190.1 279.71 190.41 272.33 206.95 270.44"></polyline> <polygon class="cls-11" points="217.94 260.92 213.66 278 206.95 270.44 217.94 260.92"></polygon> <polygon class="cls-12" points="213.66 278 200.84 284.36 206.95 270.44 213.66 278"></polygon> <polyline class="cls-10" points="173.75 280.21 200.84 284.36 190.1 279.71 173.75 280.21"></polyline> <polygon class="cls-11" points="183.09 247.06 197.38 255.86 209.45 249.63 183.09 247.06"></polygon> </g> </g> </g> <path d="M405.37,175.25c-.57,1-1.16,2-1.69,2.94a32.45,32.45,0,0,0-4,14.94,33,33,0,0,0,4.44,17.38,42,42,0,0,0,15.08,15c10.26,6.26,22.81,9.7,37.79,10.09a82.1,82.1,0,0,0,12.07-.56l.94-.1c-.27.18-.42.3-.59.39-4.59,2.66-9.19,5.3-13.76,8a2.41,2.41,0,0,1-1.39.3,91.61,91.61,0,0,1-30.53-6.12c-11.92-4.74-20.24-11.16-25.95-18.76a40,40,0,0,1-7-34.64,1.67,1.67,0,0,1,.92-1c4.3-2.46,8.57-4.94,12.86-7.41l.67-.39Z"></path> <path d="M386.3,186.19c-.17,1.18-.36,2.27-.48,3.37a40.84,40.84,0,0,0,5.39,25.61A49.55,49.55,0,0,0,405,230.29c10.32,7.64,23.43,12.82,40,14.85,2,.25,4.12.4,6.27.61-.15.11-.27.21-.42.3q-5.84,3.38-11.67,6.75a1.82,1.82,0,0,1-1.3.19,102.51,102.51,0,0,1-25.83-7.2,8.38,8.38,0,0,1-2.12-1.64Q394.57,230.61,379.24,217a2.44,2.44,0,0,1-.56-.83,45.63,45.63,0,0,1-4.59-17.76c-.08-1.58,0-3.16,0-4.74a.93.93,0,0,1,.47-.75c3.72-2.18,7.48-4.34,11.23-6.5C385.9,186.38,386.05,186.31,386.3,186.19Z"></path> <path d="M494.67,213.17c-1-.88-2-1.71-2.92-2.55-.49-.44-1.3-.88-1.32-1.33s.79-.89,1.22-1.35c4.33-4.47,6.48-9.29,6.84-14.39a20.91,20.91,0,0,0-5.06-15.34c-3.74-4.53-9.12-8.24-17-10.51a53.67,53.67,0,0,0-31.67.43l-.61.2-.24,0-4.87-4.3c1.33-.47,2.56-1,3.88-1.38a63,63,0,0,1,41.41,1.12,35.45,35.45,0,0,1,14.89,10.28,26.52,26.52,0,0,1,6.63,16c.38,6.42-1.71,12.57-6.5,18.38-1.27,1.54-2.89,3-4.35,4.48Z"></path> <path d="M404.32,199.75l8.52,7.49,1.67-1c3,5.5,7.71,10.32,15,14.26l-.94.62,10.1,8.84.68-.4c1.86-1.07,3.72-2.13,5.55-3.22a1.59,1.59,0,0,1,1.21-.16,69.16,69.16,0,0,0,37.6-3.39c.41-.15.82-.32,1.32-.52.87.77,1.73,1.52,2.55,2.28.07.08-.07.29-.22.38q-5.49,3.18-11,6.34a4.49,4.49,0,0,1-1.22.36,79.41,79.41,0,0,1-30.84.38c-9.93-1.76-18.05-5.11-24.63-9.72-7.74-5.43-12.17-11.74-14.46-18.59-.44-1.31-.73-2.64-1.1-4Z"></path> <path d="M450.3,174l-4.22-3.73c.57-.19,1.07-.38,1.61-.53,11-3.1,21.5-2.54,31.32,1.6,6.8,2.87,10.94,6.88,13.27,11.49,3.91,7.71,3.12,15.27-2.76,22.6-.45.57-1,1.12-1.61,1.77a29.39,29.39,0,0,0-2.78-2.41c-1.24-.85-1-1.55-.29-2.54,5.37-7.09,5.43-14.24-.35-21.25-5.12-6.21-16.35-9.44-27.72-8.22-1.11.12-2.21.3-3.28.5S451.43,173.76,450.3,174Z"></path> <path d="M481.41,153.82,477.65,156l4.94,4.39c-15.86-4.3-31-3.86-45.71,1.77-.85-.75-1.73-1.51-2.59-2.28s-1-.87.28-1.59c2.17-1.25,4.32-2.51,6.5-3.74a5.62,5.62,0,0,1,1.41-.57,81.39,81.39,0,0,1,38.2-.35Z"></path> <path d="M494.09,146.51,486.33,151a5.24,5.24,0,0,1-1.9,1,7.69,7.69,0,0,1-2.32-.48,89.65,89.65,0,0,0-32.54-1.31l-1.1.15a4.71,4.71,0,0,1,.46-.34q7.23-4.17,14.46-8.34a2.68,2.68,0,0,1,1.13-.25,96.84,96.84,0,0,1,29,4.82l.36.14C493.9,146.39,494,146.43,494.09,146.51Z"></path> <path d="M467.66,139.22c.31-.2.48-.33.68-.44q6.06-3.5,12.1-7a2,2,0,0,1,1.44-.23,108.37,108.37,0,0,1,25,7c.16.07.3.15.5.26l-10.37,6A101.85,101.85,0,0,0,467.66,139.22Z"></path> <path d="M421.27,166c1.14,1,2.23,2,3.27,2.93.11.1,0,.35-.16.47a39.58,39.58,0,0,0-7.58,7.84,27.12,27.12,0,0,0-5.42,15.87c0,.89-.41,1.52-1.56,2.13-2,1-3.81,2.17-5.78,3.31a2.05,2.05,0,0,1-.14-.38c-1.26-9.46,1.41-18.5,8.87-27a4.39,4.39,0,0,1,1.06-.85c2.23-1.31,4.48-2.6,6.73-3.89Z"></path> <path d="M499.81,217.73c-.88-.78-1.69-1.51-2.54-2.23-.3-.24-.16-.4.1-.61a34.74,34.74,0,0,0,10.86-14.72,25.72,25.72,0,0,0,.54-16,.91.91,0,0,1,0-.63c.52.44,1,.89,1.54,1.34q3.44,3,6.85,6.07a1,1,0,0,1,.34.65c.06,7.12-2.63,13.89-7.81,20.34a2.08,2.08,0,0,1-.51.46q-4.5,2.61-9,5.2C500.08,217.62,500,217.65,499.81,217.73Z"></path> <path d="M516.56,174A44,44,0,0,0,502,159.52l8.7-5c1.12.81,2.25,1.59,3.31,2.4a51.52,51.52,0,0,1,11.07,11.5c.27.37.21.61-.31.9C522,170.83,519.37,172.38,516.56,174Z"></path> <path d="M452.48,175.94a29,29,0,0,1,6.85-1.07c9.42-.33,16.66,1.9,21.09,6.64,6,6.43,5.62,13.11,1,20l-1.17-1c-.69-.6-1.36-1.21-2.06-1.81a.47.47,0,0,1-.13-.74c2.18-3.4,2.68-6.87,1-10.38s-4.93-6.1-10.54-7.7a27.38,27.38,0,0,0-11.47-.7,1.27,1.27,0,0,1-1.26-.29C454.71,177.88,453.62,177,452.48,175.94Z"></path> <path d="M448.52,224.3l8.2-4.72a1.81,1.81,0,0,1,.76-.16,56.1,56.1,0,0,0,20.33-3c.12-.05.26-.07.46-.13l4.63,4.11C472.48,224.75,461.18,226.16,448.52,224.3Z"></path> <path d="M507,179.49c-2.78-5.55-7.22-10.51-14.26-14.64l6.49-3.74c1.52,1.12,3.08,2.18,4.48,3.3a39.07,39.07,0,0,1,9.49,11c.19.34.11.54-.32.79-1.76,1-3.47,2-5.2,3Z"></path> <path d="M438.79,215.2l-6.43,3.71c-.25-.13-.52-.24-.76-.38a33.83,33.83,0,0,1-11.55-10.09,39.46,39.46,0,0,1-2.14-3.62.45.45,0,0,1,.17-.57c1.84-1.1,3.73-2.17,5.74-3.33C426.33,206.57,430.91,211.44,438.79,215.2Z"></path> <path d="M415.48,191.89c.39-7.57,4-14.52,11.57-20.82l2.93,2.57c.48.42,1,.83,1.41,1.27a.38.38,0,0,1,0,.51,26.15,26.15,0,0,0-8.16,11.74.8.8,0,0,1-.33.45C420.43,189,418,190.46,415.48,191.89Z"></path> <path d="M535,163.32l-6.59,3.81a55.89,55.89,0,0,0-15-14.25l5.82-3.36Z"></path> <path d="M446.84,210.55l-5.26,3c-1.23-.66-2.52-1.28-3.66-2-5.58-3.42-8.86-7.52-10.59-12.07-.16-.41,0-.67.51-1,1.48-.81,2.89-1.65,4.46-2.56C433.76,202,437.8,207.11,446.84,210.55Z"></path> <path d="M446.05,189l4.95,4.32c3.27,2.88,6.52,5.75,9.82,8.62.37.31.28.47-.15.7a18.4,18.4,0,0,0-1.91,1.11,2,2,0,0,1-1.53.24c-4.15-.6-7.16-2.07-9.21-4.17-3.29-3.37-3.69-7-2.13-10.68A.9.9,0,0,1,446.05,189Z"></path> <path d="M475,195.84l-16.55-14.62c.76-.05,1.4-.12,2-.12,5.73,0,9.88,1.57,12.7,4.34a8.41,8.41,0,0,1,2,10.27A.83.83,0,0,1,475,195.84Z"></path> <path d="M441.32,190.81a10.63,10.63,0,0,0,1.07,7.19c1.83,3.35,5.15,6,10.83,7.55.5.13,1,.24,1.64.39l-3.66,2.12c-1.53.88-1.51.87-3.26.15-4.76-2-7.84-4.63-9.8-7.77a14.54,14.54,0,0,1-2.09-6.06c-.05-.37.13-.62.59-.88C438.16,192.66,439.64,191.78,441.32,190.81Z"></path> <path d="M372.32,210.94,360.9,200.86l9.18-5.3A54.2,54.2,0,0,0,372.32,210.94Z"></path> <path d="M503.22,134.26c-3.12-.89-6.13-1.84-9.26-2.63s-6.32-1.42-9.5-2.12l8.09-4.67Z"></path> <path d="M516.63,208a33.58,33.58,0,0,0,4.68-13.47l7.36,6.52Z"></path> <path d="M435.38,255l-8,4.62-10-8.84A133.53,133.53,0,0,0,435.38,255Z"></path> <path d="M476.13,214.39A48.4,48.4,0,0,1,461,217.16l11.08-6.4Z"></path> <path d="M428.61,184.31a20.82,20.82,0,0,1,5.41-7.09c.89.78,1.73,1.5,2.51,2.23.09.07,0,.29-.16.37Z"></path> </g> <g id="Слой_4-2" data-name="Слой 4"> <rect class="cls-22" x="392.84" y="92.79" width="6.67" height="42.67"></rect> <rect class="cls-23" x="350.5" width="416.99" height="96.2" rx="13.9" ry="13.9"></rect> <rect class="cls-24" x="345.5" y="5" width="416.99" height="96.2" rx="13.9" ry="13.9"></rect> <path class="cls-20" d="M729.22,71.31c-.1.34-.18.7-.31,1a4.47,4.47,0,0,1-4.28,3c-2.34.11-4.69,0-7.08,0V59.13l.36,0c2,0,4,0,6,0a4.76,4.76,0,0,1,4,1.85c1.5,2,.92,4.52-1.4,6l.67.32a3.74,3.74,0,0,1,1.94,2.6c0,.12.08.23.12.35Zm-8.11,1.08h2.4a2.52,2.52,0,0,0,.54-.08,1.8,1.8,0,0,0,1.52-1.81,1.75,1.75,0,0,0-1.59-1.8c-.94-.09-1.89,0-2.87,0Zm0-6.82c.82,0,1.62.05,2.41,0A1.62,1.62,0,0,0,725.09,64a1.47,1.47,0,0,0-1.17-1.73,23.82,23.82,0,0,0-2.81-.19Z"></path> <path class="cls-20" d="M399.2,47.85H380V31.63h3.59V44.37h4.18V31.61h3.66V44.36h4.14V31.63h3.63Z"></path> <path class="cls-20" d="M605.14,75.4h-9.88v3.38h-3.64V72a1.82,1.82,0,0,1,.52,0,1,1,0,0,0,1.25-.8,17.16,17.16,0,0,0,.79-3.35c.21-2.64.26-5.3.38-7.95,0-.22,0-.44.05-.69H606.5V71.89h2.24v6.88h-3.6Zm-2.35-12.88c-1.44,0-2.81,0-4.19,0-.41,0-.52.13-.53.54-.13,3,.06,6-1.06,8.82h5.78Z"></path> <path class="cls-20" d="M441.93,59.12h11.88V71.91h2.28v6.85h-3.6V75.42h-9.88v3.35H439V71.91a3.23,3.23,0,0,1,.54,0c.62.11.94-.24,1.19-.74a9.94,9.94,0,0,0,.88-4.05C441.72,64.48,441.82,61.83,441.93,59.12Zm8.19,12.75V62.55h-4.65c-.28,3.13.07,6.3-1.15,9.32Z"></path> <path class="cls-20" d="M393.62,71.9h2.28v6.88h-3.61V75.41h-9.86v3.35h-3.66V72a2.08,2.08,0,0,1,.41,0,1.18,1.18,0,0,0,1.45-1,20.72,20.72,0,0,0,.74-3.53c.2-2.66.25-5.34.36-8,0-.07,0-.14,0-.25h11.87Zm-8.33-9.36c-.27,3.15.07,6.32-1.14,9.34h5.79V62.54Z"></path> <path class="cls-20" d="M518.48,59.09V75.35h-3.6V65l-.11,0-1.57,2.49c-1.58,2.51-3.17,5-4.73,7.54a.8.8,0,0,1-.79.43c-1.1,0-2.19,0-3.32,0V59.14H508V69.48l.13,0c.09-.12.18-.23.26-.35,2-3.2,4-6.4,6-9.62a.86.86,0,0,1,.87-.48C516.28,59.11,517.36,59.09,518.48,59.09Z"></path> <path class="cls-20" d="M533.37,59.13V69.54l.1,0c.11-.15.22-.29.32-.45l6-9.62a.79.79,0,0,1,.78-.44c1.09,0,2.19,0,3.33,0V75.35h-3.58V65l-.12-.06-.34.5c-2,3.16-4,6.32-6,9.49a.8.8,0,0,1-.79.43c-1.08,0-2.17,0-3.29,0V59.13Z"></path> <path class="cls-20" d="M552.73,47.87V31.62h3.61V42.21c.19-.29.3-.43.39-.57,2-3.22,4-6.44,6-9.67a.69.69,0,0,1,.69-.39c1.11,0,2.23,0,3.38,0V47.83h-3.59V37.36c-.19.25-.28.36-.36.49q-3,4.78-6,9.59a.77.77,0,0,1-.77.44C555,47.85,553.86,47.87,552.73,47.87Z"></path> <path class="cls-20" d="M571.65,47.87V31.62h3.62V42.21c.2-.3.32-.45.42-.61,2-3.19,4-6.38,5.94-9.57a.79.79,0,0,1,.83-.45c1.07,0,2.15,0,3.26,0V47.83h-3.56V37.51l-.14,0-.84,1.32c-1.81,2.88-3.63,5.76-5.43,8.65a.79.79,0,0,1-.79.43C573.88,47.86,572.8,47.87,571.65,47.87Z"></path> <path class="cls-20" d="M635.13,58.75a8.48,8.48,0,1,1-8.44,8.66C626.68,62.36,630.18,58.76,635.13,58.75Zm-4.65,8.1a4.85,4.85,0,0,0,1.65,4.2,4.7,4.7,0,0,0,5.07.61,4.39,4.39,0,0,0,2.61-4.18,4.69,4.69,0,0,0-1.48-4,4.57,4.57,0,0,0-5.22-.74A4.33,4.33,0,0,0,630.48,66.85Z"></path> <path class="cls-20" d="M581,58.75a8.48,8.48,0,1,1-8.49,8.46A8.23,8.23,0,0,1,581,58.75Zm4.66,8.48a5,5,0,0,0-1.36-3.6,4.82,4.82,0,0,0-6.61,0,5.37,5.37,0,0,0-.14,7.06,4.89,4.89,0,0,0,5.32,1.08A4.64,4.64,0,0,0,585.68,67.23Z"></path> <path class="cls-20" d="M657.4,39.43a8.3,8.3,0,0,1,9.31-8.17c4.72.35,8,4.36,7.59,9.35a8.48,8.48,0,0,1-16.9-1.18Zm3.8-.09c0,2.13.59,3.62,2.14,4.55a4.7,4.7,0,0,0,7.2-4.52,4.53,4.53,0,0,0-1.65-3.51,4.64,4.64,0,0,0-5.11-.58A4.34,4.34,0,0,0,661.2,39.34Z"></path> <path class="cls-20" d="M696.74,67.23a8.47,8.47,0,1,1,8.35,8.48A8.24,8.24,0,0,1,696.74,67.23Zm13.14.17a4.71,4.71,0,0,0-2.09-4.35,4.65,4.65,0,0,0-4.86-.17,4.48,4.48,0,0,0-2.4,4.16,4.57,4.57,0,0,0,2.14,4.35,4.67,4.67,0,0,0,4.87.13A4.46,4.46,0,0,0,709.88,67.4Z"></path> <path class="cls-20" d="M624.41,39.73a8.47,8.47,0,1,1,16.94.26,8.47,8.47,0,0,1-16.94-.26Zm8.49,4.86a4.57,4.57,0,0,0,4.66-4.87,4.68,4.68,0,1,0-9.35,0A4.56,4.56,0,0,0,632.9,44.59Z"></path> <path class="cls-20" d="M436.14,39.77a8.46,8.46,0,1,1-16.91-.05,8.46,8.46,0,1,1,16.91.05Zm-3.78.43a5.27,5.27,0,0,0-1.25-4,4.82,4.82,0,0,0-6.81,0,5.35,5.35,0,0,0,.17,7.18,4.61,4.61,0,0,0,5.17.83A4.28,4.28,0,0,0,432.36,40.2Z"></path> <path class="cls-20" d="M416.34,75.38,420.06,69a11.8,11.8,0,0,1-1.61-1.06,4.81,4.81,0,0,1-1.32-5.24,4.88,4.88,0,0,1,4.08-3.48,6.87,6.87,0,0,1,1.36-.11h6.26V75.34h-3.6V69.53a11.06,11.06,0,0,0-1.3,0c-.15,0-.31.22-.4.38q-1.42,2.47-2.81,5a.78.78,0,0,1-.8.48C418.76,75.36,417.61,75.38,416.34,75.38Zm8.84-13.1c-.95,0-1.84,0-2.73,0a1.93,1.93,0,0,0-1.9,1.9,1.91,1.91,0,0,0,1.77,2.12c.93.09,1.89,0,2.86,0Z"></path> <path class="cls-20" d="M507.27,37.92h6.48v-6.3h3.63V47.83h-3.6V41.45H507.3v6.39h-3.64V31.63h3.61Z"></path> <path class="cls-20" d="M441,31.61h11.42V47.84h-3.64V35.06h-4.27c0,1.12-.06,2.23-.11,3.34a27.51,27.51,0,0,1-.65,5.94,7.33,7.33,0,0,1-.46,1.29c-1,2.15-2.84,2.63-4.94,2.32-.14,0-.35-.2-.35-.32,0-.93,0-1.86,0-2.78,1.41-.17,2-.56,2.22-1.93.3-1.89.44-3.81.58-5.73S441,33.5,441,31.61Z"></path> <path class="cls-20" d="M568.68,59.13V75.34h-3.62V62.57h-6.23V75.34h-3.64V59.13Z"></path> <path class="cls-20" d="M409.11,75.34V62.57h-4.26c0,1-.05,2.05-.13,3.08-.16,1.95-.3,3.91-.57,5.84a5,5,0,0,1-1.47,3,4.52,4.52,0,0,1-4.12.93.43.43,0,0,1-.26-.28c0-.93,0-1.86,0-2.79,1.48-.18,1.9-.56,2.27-2a28.55,28.55,0,0,0,.56-5.84c.06-1.78.14-3.57.21-5.39h11.39V75.34Z"></path> <path class="cls-20" d="M547.86,47.85h-3.61V35.06H540c0,1.15-.09,2.31-.13,3.47a25.39,25.39,0,0,1-.66,5.89,7.59,7.59,0,0,1-.4,1.13c-1,2.26-2.94,2.71-5,2.39a.52.52,0,0,1-.32-.38c0-.9,0-1.79,0-2.74,1.59.08,2.12-1,2.3-2.24.24-1.73.37-3.49.48-5.24s.14-3.66.22-5.49a1.11,1.11,0,0,1,0-.23h11.37Z"></path> <path class="cls-20" d="M605.81,42.49a7.35,7.35,0,0,1-3.64,4.75c-3.68,2-10.36,1.14-12.17-4.83a8.42,8.42,0,0,1,6.21-11c3.19-.65,6.08,0,8.18,2.73a16.13,16.13,0,0,1,1.35,2.52l-3.56,1.13a4,4,0,0,0-2.1-2.61,4.67,4.67,0,0,0-6.64,3.85,4.8,4.8,0,0,0,2.42,5c2.17,1.12,5.45.56,6.4-2.33a.91.91,0,0,1,.12-.17Z"></path> <path class="cls-20" d="M662.49,64.25l-3.37,1.07a.66.66,0,0,1-.1-.17,4,4,0,0,0-4.43-2.84,4.5,4.5,0,0,0-4.14,3.58,5.83,5.83,0,0,0,.09,3,4.66,4.66,0,0,0,7.75,1.8,11.77,11.77,0,0,0,1.05-1.63l3.36,1a6.9,6.9,0,0,1-2.56,4,8.41,8.41,0,0,1-9.14.76c-3-1.44-4.36-4-4.47-7.33a8.19,8.19,0,0,1,6.61-8.52c3.2-.61,6.06.06,8.18,2.75A6.26,6.26,0,0,1,662.49,64.25Z"></path> <path class="cls-20" d="M500.42,47.87c-1.21,0-2.42,0-3.63,0-.14,0-.35-.22-.4-.38-.35-.94-.67-1.89-1-2.87h-6.34l-1.14,3.25H484.1c.07-.21.12-.39.18-.57q2.81-7.61,5.59-15.2a.63.63,0,0,1,.73-.51c1.21,0,2.42,0,3.63,0a.59.59,0,0,1,.47.29q2.88,7.89,5.71,15.79A.52.52,0,0,1,500.42,47.87Zm-8.17-12.55-2,5.89h4C493.58,39.25,492.94,37.35,492.25,35.32Z"></path> <path class="cls-20" d="M685.2,59.13v6.41a1.59,1.59,0,0,0,1.84-.65c1.25-1.85,2.64-3.61,4-5.41a.83.83,0,0,1,.77-.4c1.24,0,2.49,0,3.88,0l-5.85,7.67,5.88,8.62c-1.53,0-2.95,0-4.37,0-.15,0-.33-.2-.43-.35-1.23-1.85-2.46-3.68-3.64-5.56a1.2,1.2,0,0,0-1.32-.68,3.89,3.89,0,0,1-.69,0v6.56h-3.61V59.13Z"></path> <path class="cls-20" d="M404.07,47.83V31.62h3.62V38a1.54,1.54,0,0,0,1.86-.67c1.25-1.82,2.61-3.57,3.92-5.37a.82.82,0,0,1,.76-.39c1.26,0,2.51,0,3.89,0l-5.84,7.66,5.87,8.62c-1.53,0-2.95,0-4.37,0-.14,0-.32-.2-.42-.35-1.24-1.86-2.48-3.71-3.68-5.6a1.08,1.08,0,0,0-1.18-.64,5.12,5.12,0,0,1-.79,0v6.56Z"></path> <path class="cls-20" d="M623.32,31.59c-1.6,2.09-3.11,4.06-4.62,6.05-.41.53-1.07,1.08-1.09,1.64s.63,1.1,1,1.64c1.41,2.08,2.83,4.15,4.24,6.22.15.21.28.42.49.73a23.69,23.69,0,0,0-2.93,0,2.28,2.28,0,0,1-2.55-1.38c-.93-1.61-2-3.12-3.05-4.7a.92.92,0,0,0-1-.55,6.46,6.46,0,0,1-.89,0v6.56h-3.61V31.62h3.58V38a1.56,1.56,0,0,0,1.8-.62c1.28-1.86,2.65-3.65,4-5.45a1,1,0,0,1,.71-.36C620.67,31.57,621.93,31.59,623.32,31.59Z"></path> <path class="cls-20" d="M489.87,59.11h10.24v3.41h-6.6v3h6v3.22h-6V71.9h6.63v3.46H489.87Z"></path> <path class="cls-20" d="M459.77,59.12h10.28V62.5h-6.61v3.06h6v3.22h-6V71.9h6.63v3.45h-10.3Z"></path> <path class="cls-20" d="M457.29,47.85V31.62h3.59V37c1,0,1.88,0,2.79,0a5.34,5.34,0,0,1,4.22,1.91,5.42,5.42,0,0,1,.76,5.79A5,5,0,0,1,464,47.82C461.79,47.94,459.57,47.85,457.29,47.85Zm3.68-7.7v4.52c.84,0,1.65,0,2.45,0a2.26,2.26,0,0,0,.07-4.49C462.68,40.09,461.85,40.15,461,40.15Z"></path> <path class="cls-20" d="M616.08,69.53v5.82h-3.63V59.12c2.32,0,4.61,0,6.9,0a4.14,4.14,0,0,1,1,.18,5.17,5.17,0,0,1-.71,10.13c-.87.1-1.76.06-2.64.09C616.7,69.54,616.43,69.53,616.08,69.53Zm.07-7.25v4.08c.81,0,1.58,0,2.35,0a2,2,0,0,0,0-4.07C617.73,62.25,617,62.28,616.15,62.28Z"></path> <path class="cls-20" d="M477.83,62.6h-5V59.12h13.59v3.46h-5V75.34h-3.67Z"></path> <path class="cls-20" d="M669.56,62.61h-5V59.14h13.59v3.45h-4.94V75.35h-3.67Z"></path> <path class="cls-20" d="M532.45,31.61V35H525.9v12.8h-3.68V31.61Z"></path> <path class="cls-20" d="M645.21,31.61h10.24V35h-6.56V47.83h-3.68Z"></path> <path class="cls-20" d="M471.43,31.6H475V47.84h-3.59Z"></path> <path class="cls-20" d="M574.77,27.43h2.83c.27.84.58,1.08,1.31,1.06s1-.28,1.15-1.06h2.83a2.83,2.83,0,0,1-1.44,2.51,5.13,5.13,0,0,1-5.23,0A2.89,2.89,0,0,1,574.77,27.43Z"></path> <path class="cls-20" d="M507.49,54.93h2.83c.27.83.52,1,1.2,1.06s1-.19,1.31-1.06h2.78a3,3,0,0,1-.9,2.11,5,5,0,0,1-6.43-.16A3,3,0,0,1,507.49,54.93Z"></path> </g> </g> </svg> 