<?xml version="1.0" encoding="UTF-8"?> <svg xmlns="http://www.w3.org/2000/svg" viewBox="0 0 147 147"> <defs> <style>.cls-1{fill:#d1ee6b;stroke:#005b6e;stroke-miterlimit:10;stroke-width:7px;}.cls-2{fill:#005b6e;}</style> </defs> <title>16+</title> <g id="Слой_2" data-name="Слой 2"> <g id="Слой_37" data-name="Слой 37"> <circle class="cls-1" cx="73.5" cy="73.5" r="70"></circle> <path class="cls-2" d="M31.59,58.28H30.21q-1.38,0-2.79.12t-2.79.36q-1.26.18-1.26-1.08V52.4a1.07,1.07,0,0,1,.9-1.2,70.26,70.26,0,0,1,7.2-1q3.78-.33,6.48-.33h3.84q1.08,0,1.08,1.2V90.74q0,1.14-1.08,1.14H32.67q-1.08,0-1.08-1.14Z"></path> <path class="cls-2" d="M81.93,50.78A1.3,1.3,0,0,1,83,52v5.34a.81.81,0,0,1-.36.72,1.13,1.13,0,0,1-.9.12q-1.8-.3-3.84-.48t-3.78-.18a10.9,10.9,0,0,0-3.6.51,5.88,5.88,0,0,0-2.31,1.41,5,5,0,0,0-1.23,2.19,10.83,10.83,0,0,0-.36,2.91v1.74A9.19,9.19,0,0,1,68,65.9q.81-.18,1.71-.3t1.8-.21q.9-.09,1.62-.09,6.6,0,9.72,3.21A11.91,11.91,0,0,1,86,77.18V79.1q0,6.48-4,10T70.89,92.6q-7.68,0-11.4-3.81T55.77,77.66V65.54a21.24,21.24,0,0,1,1-6.63,14,14,0,0,1,3-5.19,13.33,13.33,0,0,1,5-3.36,19.25,19.25,0,0,1,7.11-1.2,31.55,31.55,0,0,1,5.37.45A30.58,30.58,0,0,1,81.93,50.78ZM70.35,73.52q-.9,0-1.89.06t-1.89.18v4.38a10.57,10.57,0,0,0,.81,4.62q.81,1.62,3.45,1.62A3.76,3.76,0,0,0,74.22,83a6.6,6.6,0,0,0,.93-3.69v-1a5.6,5.6,0,0,0-1-3.42Q73.11,73.52,70.35,73.52Z"></path> <path class="cls-2" d="M111.45,76V86.6a1,1,0,0,1-1.14,1.14h-6.72a1,1,0,0,1-1.14-1.14V76h-9.6q-1.14,0-1.14-1.08V69.08q0-1.08,1.14-1.08h9.6V57.38a1,1,0,0,1,1.14-1.14h6.72a1,1,0,0,1,1.14,1.14V68h9.6q1.14,0,1.14,1.08V74.9q0,1.08-1.14,1.08Z"></path> </g> </g> </svg> 