<svg width="512" height="512" viewBox="0 0 512 512" fill="none" xmlns="http://www.w3.org/2000/svg">
<path d="M467 61H45C20.218 61 0 81.196 0 106V406C0 430.72 20.128 451 45 451H467C491.72 451 512 430.872 512 406V106C512 81.28 491.872 61 467 61ZM460.786 91L256.954 294.833L51.359 91H460.786ZM30 399.788V112.069L174.479 255.309L30 399.788ZM51.213 421L195.783 276.43L246.44 326.652C252.304 332.466 261.767 332.447 267.607 326.606L317 277.213L460.787 421H51.213ZM482 399.787L338.213 256L482 112.212V399.787Z" fill="white"/>
</svg>
