<svg width="512" height="512" viewBox="0 0 512 512" fill="none" xmlns="http://www.w3.org/2000/svg">
<path d="M388.211 298.091L315.519 370.784C269.612 369.225 226.675 350.612 194.033 317.969C161.411 285.346 142.797 242.444 141.222 196.566L213.954 123.833L90.1651 0.0454941L0 90.2096L0.00103391 96.6353C0.0134408 150.566 10.2533 203.141 30.4372 252.899C51.3377 304.423 82.0334 350.646 121.672 390.284C161.333 429.945 207.586 460.654 259.144 481.554C308.908 501.728 361.481 511.956 415.413 511.956H415.505L421.927 511.954L511.999 421.88L388.211 298.091ZM409.128 480.888C361.415 480.127 314.905 470.689 270.797 452.809C223.108 433.477 180.314 405.06 143.605 368.351C106.918 331.662 78.5119 288.896 59.1799 241.239C41.3005 197.161 31.8527 150.688 31.071 103.003L90.1641 43.9101L170.088 123.834L110.094 183.829L110.095 190.255C110.107 246.784 132.128 299.93 172.1 339.902C212.088 379.889 265.243 401.909 321.792 401.907H321.84L328.262 401.906L388.21 341.957L468.134 421.881L409.128 480.888Z" fill="white"/>
</svg>
