<svg width="33" height="33" fill="none" xmlns="http://www.w3.org/2000/svg"><g clip-path="url(#clip0)"><path d="M31.791 5.785A5.89 5.89 0 0026.56.554a97.695 97.695 0 00-20.774 0A5.89 5.89 0 00.554 5.785a97.694 97.694 0 000 20.775 5.89 5.89 0 005.231 5.232 97.704 97.704 0 0020.775 0 5.89 5.89 0 005.232-5.232 97.7 97.7 0 000-20.775z" fill="url(#paint0_radial)"/><path d="M30.032 6.955a5.226 5.226 0 00-4.642-4.642 86.725 86.725 0 00-18.435 0 5.227 5.227 0 00-4.642 4.642 86.722 86.722 0 000 18.435 5.226 5.226 0 004.642 4.642 86.688 86.688 0 0018.435 0 5.226 5.226 0 004.642-4.642 86.688 86.688 0 000-18.435z" fill="url(#paint1_linear)"/><path d="M.485 25.89l.069.67a5.89 5.89 0 005.232 5.232 97.688 97.688 0 0020.774 0 5.89 5.89 0 005.232-5.232l.069-.67H.485z" fill="url(#paint2_linear)"/><path d="M31.791 26.56c.397-3.717.58-7.44.55-11.163l-7.393-7.394c-.923-1.054-2.272-1.712-3.858-1.77-3.26-.117-6.53-.11-9.79.001-2.709.094-4.603 1.914-5.088 4.589-.086.472-.137.95-.205 1.427v7.843c.038.254.092.507.11.762.108 1.628.777 3.021 1.847 3.964l7.524 7.524a97.787 97.787 0 0011.072-.552 5.89 5.89 0 005.232-5.231z" fill="url(#paint3_linear)"/><path d="M31.791 26.56a5.89 5.89 0 01-5.231 5.232c-3.687.393-7.38.577-11.072.55L7.976 24.83c.87.763 2.006 1.227 3.323 1.277 3.26.122 6.531.119 9.791.001 2.949-.106 5.082-2.289 5.174-5.237.099-3.13.099-6.27 0-9.4-.041-1.36-.519-2.557-1.31-3.463l7.388 7.389a97.973 97.973 0 01-.55 11.163z" fill="url(#paint4_linear)"/><path d="M19.99 12.67a5.181 5.181 0 10-7.32 7.32l11.987 11.986a99.128 99.128 0 001.903-.184 5.89 5.89 0 005.232-5.232c.067-.634.128-1.269.184-1.903L19.989 12.67z" fill="url(#paint5_linear)"/><path d="M32.283 19.657l-9.647-9.647a1.233 1.233 0 10-1.725 1.725l11.2 11.2c.075-1.092.133-2.185.172-3.278z" fill="url(#paint6_linear)"/><path d="M6.007 12.25c.068-.476.119-.955.205-1.427.485-2.675 2.379-4.495 5.087-4.589 3.26-.112 6.531-.118 9.791 0 2.948.106 5.082 2.288 5.175 5.237.097 3.13.097 6.27 0 9.4-.093 2.948-2.226 5.13-5.174 5.237-3.26.118-6.532.12-9.792-.002-2.948-.11-4.986-2.298-5.183-5.25-.017-.256-.071-.51-.109-.764V12.25zm10.168 12.11c1.492 0 2.986.045 4.476-.01 2.336-.086 3.773-1.48 3.828-3.815.067-2.908.067-5.82 0-8.729-.055-2.333-1.493-3.76-3.828-3.81a211.259 211.259 0 00-8.895 0c-2.318.05-3.759 1.447-3.822 3.755-.08 2.945-.08 5.895 0 8.84.063 2.308 1.504 3.673 3.822 3.76 1.471.054 2.946.01 4.42.01z" fill="url(#paint7_linear)"/><path d="M6.007 12.25c.068-.476.119-.955.205-1.427.485-2.675 2.379-4.495 5.087-4.589 3.26-.112 6.531-.118 9.791 0 2.948.106 5.082 2.288 5.175 5.237.097 3.13.097 6.27 0 9.4-.093 2.948-2.226 5.13-5.174 5.237-3.26.118-6.532.12-9.792-.002-2.948-.11-4.986-2.298-5.183-5.25-.017-.256-.071-.51-.109-.764V12.25zm10.168 12.11c1.492 0 2.986.045 4.476-.01 2.336-.086 3.773-1.48 3.828-3.815.067-2.908.067-5.82 0-8.729-.055-2.333-1.493-3.76-3.828-3.81a211.259 211.259 0 00-8.895 0c-2.318.05-3.759 1.447-3.822 3.755-.08 2.945-.08 5.895 0 8.84.063 2.308 1.504 3.673 3.822 3.76 1.471.054 2.946.01 4.42.01z" fill="#fff"/><path d="M16.173 10.992a5.18 5.18 0 100 10.361 5.18 5.18 0 000-10.36zm0 8.578a3.397 3.397 0 110-6.794 3.397 3.397 0 010 6.794zm6.715-8.814a1.232 1.232 0 11-2.464 0 1.232 1.232 0 012.464 0z" fill="#fff"/></g><defs><linearGradient id="paint1_linear" x1="12.406" y1="14.054" x2="-42.391" y2="-16.769" gradientUnits="userSpaceOnUse"><stop stop-color="#A1B5D8" stop-opacity="0"/><stop offset=".309" stop-color="#90A2BD" stop-opacity=".31"/><stop offset=".755" stop-color="#7C8B9C" stop-opacity=".757"/><stop offset="1" stop-color="#748290"/></linearGradient><linearGradient id="paint2_linear" x1="16.173" y1="28.553" x2="16.173" y2="33.594" gradientUnits="userSpaceOnUse"><stop stop-color="#FAE100" stop-opacity="0"/><stop offset=".307" stop-color="#FCA800" stop-opacity=".306"/><stop offset=".627" stop-color="#FE7300" stop-opacity=".627"/><stop offset=".869" stop-color="#FF5200" stop-opacity=".867"/><stop offset="1" stop-color="#FF4500"/></linearGradient><linearGradient id="paint3_linear" x1="14.332" y1="14.287" x2="6.328" y2="6.282" gradientUnits="userSpaceOnUse"><stop stop-color="#833AB4" stop-opacity="0"/><stop offset="1" stop-color="#833AB4"/></linearGradient><linearGradient id="paint4_linear" x1="22.168" y1="29.584" x2="18.172" y2="10.748" gradientUnits="userSpaceOnUse"><stop stop-color="#833AB4" stop-opacity="0"/><stop offset="1" stop-color="#833AB4"/></linearGradient><linearGradient id="paint5_linear" x1="23.688" y1="23.688" x2="7.64" y2="7.64" gradientUnits="userSpaceOnUse"><stop stop-color="#833AB4" stop-opacity="0"/><stop offset="1" stop-color="#833AB4"/></linearGradient><linearGradient id="paint6_linear" x1="24.878" y1="13.978" x2="19.572" y2="8.671" gradientUnits="userSpaceOnUse"><stop stop-color="#833AB4" stop-opacity="0"/><stop offset="1" stop-color="#833AB4"/></linearGradient><linearGradient id="paint7_linear" x1="22.595" y1="9.795" x2="9.51" y2="22.88" gradientUnits="userSpaceOnUse"><stop stop-color="#833AB4"/><stop offset=".092" stop-color="#9C3495"/><stop offset=".293" stop-color="#DC2546"/><stop offset=".392" stop-color="#FD1D1D"/><stop offset=".559" stop-color="#FC6831"/><stop offset=".689" stop-color="#FC9B40"/><stop offset=".752" stop-color="#FCAF45"/><stop offset=".781" stop-color="#FDB750"/><stop offset=".866" stop-color="#FECB6A"/><stop offset=".942" stop-color="#FFD87A"/><stop offset="1" stop-color="#FFDC80"/></linearGradient><radialGradient id="paint0_radial" cx="0" cy="0" r="1" gradientUnits="userSpaceOnUse" gradientTransform="translate(6.63 28.267) scale(35.6711)"><stop stop-color="#FAE100"/><stop offset=".054" stop-color="#FADC04"/><stop offset=".117" stop-color="#FBCE0E"/><stop offset=".183" stop-color="#FCB720"/><stop offset=".251" stop-color="#FE9838"/><stop offset=".305" stop-color="#FF7950"/><stop offset=".492" stop-color="#FF1C74"/><stop offset="1" stop-color="#6C1CD1"/></radialGradient><clipPath id="clip0"><path fill="#fff" d="M0 0h32.345v32.345H0z"/></clipPath></defs></svg>