<svg width="61" height="59" fill="none" xmlns="http://www.w3.org/2000/svg"><path d="M59.561 12.44L40.38 8.627a1.788 1.788 0 00-2.136 1.753v41.938a1.79 1.79 0 001.439 1.753l19.181 3.812A1.788 1.788 0 0061 56.13V14.193c0-.853-.602-1.587-1.439-1.753zm-36.805.285v44.967c-1.824.363-1.722.34-1.774.34h-.013c-.116 0-19.53-3.962-19.53-3.962A1.786 1.786 0 010 52.318V10.38a1.787 1.787 0 012.135-1.752l19.067 3.79 1.554.307z" fill="#FFE278"/><path d="M40.262 54.19c-10.642 2.127-15.382 3.078-17.506 3.502-1.824.364-1.722.34-1.774.34h-.013V12.465l.233-.047L39.544 8.66c.236-.048.494-.1.726-.052 0 46.66.004 45.58-.008 45.58z" fill="#FFB454"/><path d="M34.193 14.193c0 2.98-1.949 7.79-5.96 14.703a152.345 152.345 0 01-5.794 9.187 1.787 1.787 0 01-2.94 0c-.12-.17-2.932-4.254-5.794-9.187-4.012-6.914-5.96-11.724-5.96-14.703C7.744 6.9 13.675.968 20.968.968c7.292 0 13.224 5.932 13.224 13.225z" fill="#DD5958"/><path d="M34.193 14.193c0 2.98-1.949 7.79-5.96 14.703a152.308 152.308 0 01-5.794 9.187 1.785 1.785 0 01-1.47.772V.968c7.292 0 13.224 5.932 13.224 13.225z" fill="#D8225B"/><path d="M20.969 19.792a5.6 5.6 0 100-11.199 5.6 5.6 0 000 11.2z" fill="#E2F4FF"/><path d="M26.568 14.193c0 3.088-2.511 5.6-5.6 5.6v-11.2c3.089 0 5.6 2.512 5.6 5.6z" fill="#B9E2FD"/></svg>