<svg width="16" height="21" fill="none" xmlns="http://www.w3.org/2000/svg"><path fill-rule="evenodd" clip-rule="evenodd" d="M11.612 14.6c1.2.753 2.44 1.442 3.716 2.064a1.068 1.068 0 01.603.603 1.036 1.036 0 01-.045.845l-.211.73c-.054.27-.174.524-.35.738a1.697 1.697 0 01-.664.488 7.94 7.94 0 01-2.684.931c-2.575.053-4.85-2.064-6.443-3.834a23.214 23.214 0 01-2.697-3.638A22.738 22.738 0 01.936 9.446C.15 7.222-.604 4.253.73 2.116A7.725 7.725 0 012.904.332a1.757 1.757 0 011.6-.236l.76.187a1.12 1.12 0 01.752.41 1.085 1.085 0 01.229.816c-.013 1.623-.038 2.787.02 4.121.02.553-.2.632-.712.826l-.83.316a.993.993 0 00-.67.417.96.96 0 00-.139.768 13.559 13.559 0 004.445 7.458 1.012 1.012 0 00.751.268 1.02 1.02 0 00.714-.356l.695-.537a.776.776 0 01.508-.32.793.793 0 01.589.133l-.004-.002z" fill="#fff"/></svg>