<svg width="33" height="33" fill="none" xmlns="http://www.w3.org/2000/svg"><g clip-path="url(#clip0)"><path d="M1.038 33a.688.688 0 01-.664-.87l2.102-7.679a16.05 16.05 0 01-1.998-7.763C.482 7.847 7.676.655 16.516.655a15.941 15.941 0 0111.345 4.702 15.94 15.94 0 014.693 11.344c-.004 8.84-7.198 16.033-16.038 16.033h-.007a16.07 16.07 0 01-7.42-1.822l-7.877 2.066a.695.695 0 01-.174.022z" fill="#E5E5E5"/><path d="M1.037 32.312l2.178-7.952a15.318 15.318 0 01-2.049-7.672c.003-8.461 6.889-15.345 15.35-15.345 4.106.002 7.96 1.6 10.858 4.5A15.253 15.253 0 0131.865 16.7c-.003 8.461-6.89 15.346-15.35 15.346 0 0 .001 0 0 0h-.006a15.337 15.337 0 01-7.335-1.868l-8.137 2.134zM9.551 27.4l.466.276a12.74 12.74 0 006.494 1.778h.005c7.031 0 12.755-5.722 12.758-12.755a12.677 12.677 0 00-3.734-9.024 12.675 12.675 0 00-9.02-3.74c-7.037 0-12.76 5.721-12.762 12.754a12.72 12.72 0 001.95 6.788l.304.482-1.29 4.707 4.83-1.266z" fill="#fff"/><path d="M1.57 31.776l2.103-7.677a14.787 14.787 0 01-1.978-7.406c.003-8.168 6.65-14.814 14.818-14.814a14.723 14.723 0 0110.482 4.345 14.723 14.723 0 014.336 10.48c-.003 8.169-6.65 14.815-14.817 14.815h-.007a14.816 14.816 0 01-7.08-1.803l-7.856 2.06z" fill="#64B161"/><path d="M1.037 32.312l2.178-7.952a15.318 15.318 0 01-2.049-7.672c.003-8.461 6.889-15.345 15.35-15.345 4.106.002 7.96 1.6 10.858 4.5A15.253 15.253 0 0131.865 16.7c-.003 8.461-6.89 15.346-15.35 15.346 0 0 .001 0 0 0h-.006a15.337 15.337 0 01-7.335-1.868l-8.137 2.134zM9.551 27.4l.466.276a12.74 12.74 0 006.494 1.778h.005c7.031 0 12.755-5.722 12.758-12.755a12.677 12.677 0 00-3.734-9.024 12.675 12.675 0 00-9.02-3.74c-7.037 0-12.76 5.721-12.762 12.754a12.72 12.72 0 001.95 6.788l.304.482-1.29 4.707 4.83-1.266z" fill="#fff"/><path fill-rule="evenodd" clip-rule="evenodd" d="M12.68 10.273c-.288-.639-.59-.652-.864-.663-.223-.01-.48-.009-.735-.009a1.41 1.41 0 00-1.022.48c-.352.384-1.343 1.312-1.343 3.199 0 1.887 1.375 3.71 1.566 3.967.192.256 2.654 4.252 6.552 5.79 3.24 1.277 3.899 1.023 4.602.959.704-.064 2.27-.928 2.589-1.823.32-.896.32-1.663.224-1.824-.096-.16-.352-.256-.735-.448-.384-.191-2.27-1.12-2.621-1.247-.352-.128-.608-.192-.863.192-.256.384-.99 1.247-1.214 1.503-.224.256-.448.288-.831.096-.384-.192-1.62-.597-3.085-1.903-1.14-1.017-1.91-2.272-2.133-2.656-.224-.384-.004-.573.168-.783.31-.377.83-1.056.959-1.311.127-.256.063-.48-.032-.672-.096-.192-.842-2.089-1.183-2.847z" fill="#fff"/></g><defs><clipPath id="clip0"><path fill="#fff" transform="translate(.286 .655)" d="M0 0h32.345v32.345H0z"/></clipPath></defs></svg>