<?xml version="1.0" encoding="UTF-8"?> <svg xmlns="http://www.w3.org/2000/svg" xmlns:xlink="http://www.w3.org/1999/xlink" viewBox="0 0 330 477.5"> <defs> <style>.cls-1{fill:#fcc142;}.cls-2{fill:url(#Безымянный_градиент_71);}.cls-3{fill:#ea990a;}.cls-4{fill:#ff6464;}.cls-5{fill:#fff;}.cls-6{fill:#29abe2;}.cls-7{fill:#00b28f;}</style> <linearGradient id="Безымянный_градиент_71" x1="71.02" y1="319.73" x2="154.22" y2="126.53" gradientUnits="userSpaceOnUse"> <stop offset="0.17" stop-color="#fcc142" stop-opacity="0.4"></stop> <stop offset="1" stop-color="#fff" stop-opacity="0"></stop> </linearGradient> </defs> <title>Кинотеатр Биллборд</title> <g id="Слой_2" data-name="Слой 2"> <g id="Слой_12" data-name="Слой 12"> <polygon class="cls-1" points="78.26 278.95 81.25 277.24 85.58 285.35 78.26 278.95"></polygon> <polygon class="cls-2" points="203.9 351.42 78.53 279.03 0 0 330 203 203.9 351.42"></polygon> <polygon class="cls-3" points="135.31 477.5 130.39 474.66 130.39 360.92 135.31 363.76 135.31 477.5"></polygon> <polygon class="cls-1" points="137.78 476.06 135.32 477.48 135.32 363.74 137.78 362.32 137.78 476.06"></polygon> <polygon class="cls-1" points="203.89 416.29 81.25 345.49 81.25 277.24 203.89 348.05 203.89 416.29"></polygon> <polygon class="cls-1" points="200.9 418 203.89 416.29 198.82 404.14 200.9 418"></polygon> <polygon class="cls-3" points="200.9 418 78.26 347.19 78.26 278.95 200.9 349.75 200.9 418"></polygon> <polygon class="cls-1" points="109.64 354.37 85.21 340.26 85.21 320.56 109.64 334.66 109.64 354.37"></polygon> <polygon class="cls-4" points="109.64 330.56 85.21 316.45 85.21 296.74 109.64 310.85 109.64 330.56"></polygon> <polygon class="cls-5" points="137.83 370.64 113.4 356.54 113.4 336.83 137.83 350.93 137.83 370.64"></polygon> <polygon class="cls-6" points="137.83 346.83 113.4 332.72 113.4 313.01 137.83 327.12 137.83 346.83"></polygon> <polygon class="cls-4" points="166.02 386.92 141.59 372.81 141.59 353.1 166.02 367.21 166.02 386.92"></polygon> <polygon class="cls-7" points="166.02 363.1 141.59 349 141.59 329.29 166.02 343.39 166.02 363.1"></polygon> <polygon class="cls-6" points="194.2 403.19 169.77 389.08 169.77 369.38 194.2 383.48 194.2 403.19"></polygon> <polygon class="cls-5" points="194.2 379.38 169.77 365.27 169.77 345.56 194.2 359.67 194.2 379.38"></polygon> </g> </g> </svg> 