<?xml version="1.0" encoding="UTF-8"?> <svg xmlns="http://www.w3.org/2000/svg" viewBox="0 0 509.12 139.29"> <defs> <style>.cls-1{fill:#c6e3f4;}</style> </defs> <title>Облако 2</title> <g id="Слой_2" data-name="Слой 2"> <g id="Слой_12" data-name="Слой 12"> <path class="cls-1" d="M328.56,139.29c-101.51-1.41-132.71.47-234.22-.94-18.47-.26-37.53-.64-54.41-8.15C6.87,115.47-9.52,71.65,5.76,38.84S65.15-9.61,97.69,6.23c19.85,9.66,37.63,29.45,59.39,25.72,16.59-2.84,29.43-19.26,46.26-18.75,25.4.77,34,36.63,57,47.45,14.39,6.77,31.76,2.17,45.43-6S330.93,35.18,344.56,27c22.35-13.44,48.89-17.55,74.68-21.41,4.67-.69,9.63-1.36,14,.5,14.56,6.21,7.6,30.72,19.07,41.63,14.93,14.2,49.34-4.16,56,15.34a20.31,20.31,0,0,1,.83,7.2c-.76,25.48-21.17,47-44.65,57s-49.68,10.6-75.17,11.11c-46.33.94-13.73.05-60,1Z"></path> </g> </g> </svg> 