<?xml version="1.0" encoding="UTF-8"?> <svg xmlns="http://www.w3.org/2000/svg" id="Слой_1" data-name="Слой 1" viewBox="0 0 335.64 493.16"> <defs> <style>.cls-1{fill:#fcc142;}.cls-2{fill:#30358c;}.cls-3{fill:#fff;}.cls-4{fill:#6fc7da;}.cls-5{fill:#ec6567;}.cls-6{fill:#2dabe3;}</style> </defs> <polygon class="cls-1" points="95.72 267.82 96.4 268.21 136.91 244.82 164.62 260.82 125.46 283.43 126.14 283.82 165.97 260.82 136.91 244.04 95.72 267.82"></polygon> <ellipse class="cls-1" cx="125.93" cy="283.55" rx="3.6" ry="2.07"></ellipse> <ellipse class="cls-1" cx="96.19" cy="267.94" rx="3.6" ry="2.07"></ellipse> <polygon class="cls-1" points="24.07 307.62 24.75 308.01 62.55 286.19 77.42 294.77 132.13 263.19 131.45 262.8 77.42 293.99 62.55 285.41 24.07 307.62"></polygon> <ellipse class="cls-1" cx="131.66" cy="263.07" rx="3.6" ry="2.07"></ellipse> <ellipse class="cls-1" cx="24.54" cy="307.74" rx="3.6" ry="2.07"></ellipse> <polygon class="cls-1" points="50.66 279.32 62.22 285.99 62.89 285.6 51.34 278.93 50.66 279.32"></polygon> <ellipse class="cls-1" cx="51.13" cy="279.2" rx="3.6" ry="2.07"></ellipse> <polygon class="cls-2" points="119.2 490.97 118.52 491.36 65.17 460.56 115.82 431.31 116.5 431.7 66.52 460.56 119.2 490.97"></polygon> <ellipse class="cls-2" cx="116.03" cy="431.58" rx="3.6" ry="2.07"></ellipse> <ellipse class="cls-2" cx="118.73" cy="491.09" rx="3.6" ry="2.07"></ellipse> <polygon class="cls-2" points="123.25 476.14 122.58 476.53 96.27 461.34 123.93 445.36 124.61 445.75 97.62 461.34 123.25 476.14"></polygon> <ellipse class="cls-2" cx="124.14" cy="445.63" rx="3.6" ry="2.07"></ellipse> <ellipse class="cls-2" cx="122.79" cy="476.26" rx="3.6" ry="2.07"></ellipse> <polygon class="cls-3" points="175.23 222.79 174.56 223.18 121.21 192.38 171.86 163.14 172.53 163.53 122.56 192.38 175.23 222.79"></polygon> <ellipse class="cls-3" cx="172.07" cy="163.41" rx="3.6" ry="2.07"></ellipse> <ellipse class="cls-3" cx="174.77" cy="222.91" rx="3.6" ry="2.07"></ellipse> <polygon class="cls-3" points="179.29 207.96 178.62 208.35 152.3 193.16 179.97 177.19 180.64 177.58 153.66 193.16 179.29 207.96"></polygon> <ellipse class="cls-3" cx="180.18" cy="177.46" rx="3.6" ry="2.07"></ellipse> <ellipse class="cls-3" cx="178.83" cy="208.08" rx="3.6" ry="2.07"></ellipse> <polygon class="cls-3" points="182.04 244.72 182.72 245.11 273.58 192.65 272.9 192.26 182.04 244.72"></polygon> <ellipse class="cls-3" cx="273.12" cy="192.53" rx="3.6" ry="2.07"></ellipse> <polygon class="cls-3" points="201.31 210.96 221.25 222.47 221.92 222.08 202.66 210.96 235.05 192.26 234.38 191.87 201.31 210.96"></polygon> <ellipse class="cls-3" cx="234.59" cy="192.14" rx="3.6" ry="2.07"></ellipse> <ellipse class="cls-3" cx="181.64" cy="245.34" rx="3.6" ry="2.07"></ellipse> <polygon class="cls-1" points="68.56 232.89 69.24 233.29 113.13 207.95 82.03 190 133.06 160.53 132.39 160.14 80.68 190 111.78 207.95 68.56 232.89"></polygon> <ellipse class="cls-1" cx="69.03" cy="233.02" rx="3.6" ry="2.07"></ellipse> <polygon class="cls-1" points="59.78 254.75 60.45 255.14 110.42 226.29 95.89 217.9 95.21 218.29 109.07 226.29 59.78 254.75"></polygon> <ellipse class="cls-1" cx="60.24" cy="254.87" rx="3.6" ry="2.07"></ellipse> <polygon class="cls-1" points="109.41 226.48 121.86 233.68 122.54 233.29 110.08 226.09 109.41 226.48"></polygon> <ellipse class="cls-1" cx="122.07" cy="233.41" rx="3.6" ry="2.07"></ellipse> <ellipse class="cls-1" cx="134.57" cy="159.29" rx="3.6" ry="2.07"></ellipse> <polygon class="cls-1" points="193.57 357.88 194.24 358.27 254.01 323.76 253.34 323.37 193.57 357.88"></polygon> <ellipse class="cls-1" cx="194.03" cy="358" rx="3.6" ry="2.07"></ellipse> <polygon class="cls-3" points="149.13 383.8 171.21 396.54 277 335.47 276.32 335.08 171.21 395.76 150.48 383.8 169.81 372.64 169.13 372.25 149.13 383.8"></polygon> <ellipse class="cls-3" cx="169.35" cy="372.52" rx="3.6" ry="2.07"></ellipse> <polygon class="cls-3" points="195.59 424.62 196.27 425.01 227.54 406.95 209.52 396.54 245.57 375.73 226.08 364.48 225.4 364.87 244.21 375.73 208.16 396.54 226.19 406.95 195.59 424.62"></polygon> <ellipse class="cls-3" cx="196.06" cy="424.74" rx="3.6" ry="2.07"></ellipse> <polygon class="cls-3" points="143.32 433.98 144 434.37 209.18 396.74 208.5 396.35 143.32 433.98"></polygon> <ellipse class="cls-3" cx="143.79" cy="434.1" rx="3.6" ry="2.07"></ellipse> <ellipse class="cls-3" cx="278.39" cy="334.3" rx="3.6" ry="2.07"></ellipse> <ellipse class="cls-1" cx="255.86" cy="322.33" rx="3.6" ry="2.07"></ellipse> <polygon class="cls-3" points="38.78 446.47 39.45 446.86 121.19 399.67 88.75 380.94 230.35 299.18 229.68 298.79 87.39 380.94 119.84 399.67 38.78 446.47"></polygon> <ellipse class="cls-3" cx="39.24" cy="446.59" rx="3.6" ry="2.07"></ellipse> <polygon class="cls-3" points="38.95 391.93 39.62 392.32 128.79 340.84 143.33 349.23 144 348.84 128.79 340.06 38.95 391.93"></polygon> <ellipse class="cls-3" cx="39.41" cy="392.05" rx="3.6" ry="2.07"></ellipse> <polygon class="cls-3" points="41.48 369.98 42.16 370.37 88.07 343.86 105.31 353.81 105.98 353.42 88.07 343.08 41.48 369.98"></polygon> <ellipse class="cls-3" cx="41.94" cy="370.1" rx="3.6" ry="2.07"></ellipse> <polygon class="cls-3" points="145.12 366.34 145.8 366.73 205.01 332.55 188.45 322.98 187.77 323.37 203.66 332.55 145.12 366.34"></polygon> <ellipse class="cls-3" cx="145.59" cy="366.46" rx="3.6" ry="2.07"></ellipse> <polygon class="cls-3" points="120.18 399.86 140.41 411.54 141.09 411.15 120.85 399.47 120.18 399.86"></polygon> <ellipse class="cls-3" cx="140.62" cy="411.27" rx="3.6" ry="2.07"></ellipse> <ellipse class="cls-3" cx="232.2" cy="297.75" rx="3.6" ry="2.07"></ellipse> <polygon class="cls-4" points="156.39 322.37 157.06 322.76 212.78 290.59 212.1 290.2 156.39 322.37"></polygon> <ellipse class="cls-4" cx="156.85" cy="322.49" rx="3.6" ry="2.07"></ellipse> <polygon class="cls-4" points="126.65 323.93 127.32 324.32 166.48 301.71 179.66 309.32 180.34 308.93 166.48 300.93 126.65 323.93"></polygon> <ellipse class="cls-4" cx="127.11" cy="324.05" rx="3.6" ry="2.07"></ellipse> <ellipse class="cls-4" cx="214.4" cy="289.29" rx="3.6" ry="2.07"></ellipse> <polygon class="cls-3" points="69.19 337.59 69.87 337.98 172.9 278.49 172.22 278.1 69.19 337.59"></polygon> <ellipse class="cls-3" cx="69.66" cy="337.71" rx="3.6" ry="2.07"></ellipse> <ellipse class="cls-3" cx="174.64" cy="277.12" rx="3.6" ry="2.07"></ellipse> <polygon class="cls-5" points="3.13 197.62 3.81 198.01 145.02 116.48 183.54 138.72 240.66 105.75 239.98 105.36 183.54 137.94 145.02 115.7 3.13 197.62"></polygon> <path class="cls-5" d="M15.52,215.49a5.63,5.63,0,0,1-5.09,0c-1.4-.81-1.4-2.13,0-2.94a5.63,5.63,0,0,1,5.09,0C16.92,213.36,16.92,214.68,15.52,215.49Z" transform="translate(-9.38 -16.27)"></path> <polygon class="cls-5" points="90.29 169.18 90.97 169.57 164.26 127.26 163.58 126.87 90.29 169.18"></polygon> <ellipse class="cls-5" cx="90.76" cy="169.3" rx="3.6" ry="2.07"></ellipse> <ellipse class="cls-5" cx="241.98" cy="104.59" rx="3.6" ry="2.07"></ellipse> <polygon class="cls-3" points="163.91 60.87 182.78 71.77 183.46 71.38 164.59 60.48 163.91 60.87"></polygon> <ellipse class="cls-3" cx="164.37" cy="60.75" rx="3.6" ry="2.07"></ellipse> <polygon class="cls-3" points="39.2 154.28 39.88 154.67 183.13 71.96 209.82 87.38 210.5 86.99 183.13 71.18 39.2 154.28"></polygon> <ellipse class="cls-3" cx="39.67" cy="154.4" rx="3.6" ry="2.07"></ellipse> <ellipse class="cls-3" cx="212.57" cy="88.55" rx="3.6" ry="2.07"></ellipse> <polygon class="cls-6" points="77.84 90.64 215.01 11.44 265.03 40.32 330.93 2.27 331.61 2.66 265.03 41.1 215.01 12.22 78.51 91.03 77.84 90.64"></polygon> <ellipse class="cls-6" cx="78.3" cy="90.76" rx="3.6" ry="2.07"></ellipse> <polygon class="cls-6" points="131.53 60.03 132.2 59.64 149.67 69.72 67.02 117.44 66.35 117.05 148.31 69.72 131.53 60.03"></polygon> <ellipse class="cls-6" cx="66.81" cy="117.17" rx="3.6" ry="2.07"></ellipse> <ellipse class="cls-6" cx="332.04" cy="2.07" rx="3.6" ry="2.07"></ellipse> <polygon class="cls-3" points="37.82 211.9 55.35 222.01 71.91 212.45 71.23 212.06 55.35 221.23 38.5 211.5 37.82 211.9"></polygon> <ellipse class="cls-3" cx="38.28" cy="211.77" rx="3.6" ry="2.07"></ellipse> <ellipse class="cls-3" cx="73.77" cy="210.98" rx="3.6" ry="2.07"></ellipse> </svg> 