<?xml version="1.0" encoding="UTF-8"?> <svg xmlns="http://www.w3.org/2000/svg" viewBox="0 0 42.2 38.74"> <defs> <style>.cls-1{fill:#ff6464;}.cls-2{fill:#fff;}.cls-3{fill:#fcc142;}</style> </defs> <title>Баллы 3</title> <g id="Слой_2" data-name="Слой 2"> <g id="Слой_8" data-name="Слой 8"> <path class="cls-1" d="M38.05,24.78a26.26,26.26,0,0,0-12.72-2.91,26.48,26.48,0,0,0-12.5,2.79l-4.37.9v4.75c0,4.65,7.56,8.43,16.87,8.43S42.2,35,42.2,30.31V25.2Z"></path> <ellipse class="cls-2" cx="25.33" cy="25.56" rx="16.87" ry="8.43"></ellipse> <path class="cls-1" d="M38.05,16.87A26.38,26.38,0,0,0,25.33,14a26.61,26.61,0,0,0-12.5,2.78l-4.37.91V22.4c0,4.66,7.56,8.43,16.87,8.43S42.2,27.06,42.2,22.4V17.29Z"></path> <ellipse class="cls-2" cx="25.33" cy="17.66" rx="16.87" ry="8.43"></ellipse> <path class="cls-1" d="M38.05,9A26.26,26.26,0,0,0,25.33,6.06a26.48,26.48,0,0,0-12.5,2.79l-4.37.9v4.74c0,4.66,7.56,8.44,16.87,8.44S42.2,19.15,42.2,14.49V9.39Z"></path> <ellipse class="cls-2" cx="25.33" cy="9.75" rx="16.87" ry="8.43"></ellipse> <path class="cls-3" d="M0,11.59V5.73H5.7V0h5.85V5.73h5.67v5.86H11.55v5.69H5.7V11.59Z"></path> </g> </g> </svg> 