<?xml version="1.0" encoding="UTF-8"?> <!-- Generator: Adobe Illustrator 24.1.2, SVG Export Plug-In . SVG Version: 6.00 Build 0) --> <svg xmlns="http://www.w3.org/2000/svg" xmlns:xlink="http://www.w3.org/1999/xlink" id="Слой_1" x="0px" y="0px" viewBox="0 0 413.6 55.85" style="enable-background:new 0 0 413.6 55.85;" xml:space="preserve"> <style type="text/css"> .st0{fill:#FFFFFF;} </style> <g> <path class="st0" d="M0.52,23.79V5.59h9.23c1.68,0,3.07,0.39,4.16,1.18c1.09,0.79,1.64,1.95,1.64,3.47c0,0.87-0.25,1.62-0.74,2.25 s-0.98,1.04-1.44,1.21c0.78,0.17,1.55,0.69,2.31,1.56c0.76,0.87,1.14,1.95,1.14,3.25c0,1.59-0.62,2.87-1.85,3.83 c-1.23,0.96-2.84,1.44-4.84,1.44H0.52z M6.11,12.38h2.83c0.38,0,0.7-0.11,0.95-0.32c0.25-0.22,0.38-0.5,0.38-0.85 c0-0.38-0.13-0.69-0.38-0.92c-0.25-0.23-0.57-0.35-0.95-0.35H6.11V12.38z M6.11,19.29h2.94c0.5,0,0.91-0.13,1.21-0.4 c0.3-0.27,0.45-0.63,0.45-1.08s-0.15-0.82-0.45-1.1c-0.3-0.29-0.71-0.43-1.21-0.43H6.11V19.29z"></path> <path class="st0" d="M29.2,24.15c-3,0-5.49-0.88-7.46-2.64c-1.98-1.76-2.96-4.03-2.96-6.83c0-2.79,0.98-5.07,2.94-6.82 c1.96-1.76,4.44-2.64,7.44-2.64c1.79,0,3.32,0.32,4.6,0.96v5.28c-1.49-0.8-2.97-1.2-4.45-1.2c-1.39,0-2.53,0.42-3.43,1.26 c-0.9,0.84-1.35,1.89-1.35,3.16c0,1.3,0.47,2.36,1.4,3.19c0.94,0.82,2.13,1.23,3.59,1.23c1.78,0,3.28-0.43,4.5-1.3v5.36 C32.76,23.82,31.16,24.15,29.2,24.15z"></path> <path class="st0" d="M37.08,23.79V5.59h14.27v4.81h-8.68v1.61h6.81v4.42h-6.81v2.55h8.84v4.81H37.08z"></path> <path class="st0" d="M54.26,5.59h8.37c2.1,0,3.77,0.56,5.02,1.66c1.25,1.11,1.87,2.53,1.87,4.26c0,1.72-0.63,3.13-1.89,4.25 s-2.92,1.68-5,1.68h-2.78v6.34h-5.59V5.59z M59.85,13.39h2.03c0.57,0,1.04-0.15,1.39-0.44c0.35-0.29,0.53-0.69,0.53-1.2 c0-0.48-0.18-0.88-0.55-1.17c-0.36-0.29-0.82-0.44-1.38-0.44h-2.03V13.39z"></path> <path class="st0" d="M88.04,21.39c-1.84,1.85-4.16,2.77-6.97,2.77s-5.13-0.93-6.98-2.78c-1.85-1.85-2.77-4.08-2.77-6.68 c0-2.62,0.92-4.85,2.77-6.69c1.85-1.85,4.17-2.77,6.98-2.77S86.2,6.15,88.04,8c1.84,1.85,2.76,4.08,2.76,6.69 C90.79,17.31,89.87,19.54,88.04,21.39z M78.17,17.82c0.75,0.82,1.72,1.23,2.9,1.23s2.15-0.41,2.9-1.23 c0.75-0.82,1.13-1.87,1.13-3.13c0-1.27-0.38-2.31-1.13-3.13c-0.75-0.82-1.72-1.23-2.9-1.23s-2.15,0.41-2.9,1.23 s-1.13,1.87-1.13,3.13C77.04,15.96,77.41,17,78.17,17.82z"></path> <path class="st0" d="M103.61,24.15c-3,0-5.49-0.88-7.46-2.64c-1.98-1.76-2.96-4.03-2.96-6.83c0-2.79,0.98-5.07,2.94-6.82 c1.96-1.76,4.44-2.64,7.44-2.64c1.79,0,3.32,0.32,4.6,0.96v5.28c-1.49-0.8-2.97-1.2-4.45-1.2c-1.39,0-2.53,0.42-3.43,1.26 c-0.9,0.84-1.35,1.89-1.35,3.16c0,1.3,0.47,2.36,1.4,3.19c0.94,0.82,2.13,1.23,3.59,1.23c1.78,0,3.28-0.43,4.5-1.3v5.36 C107.17,23.82,105.57,24.15,103.61,24.15z"></path> <path class="st0" d="M120.95,24.15c-3,0-5.49-0.88-7.46-2.64c-1.98-1.76-2.96-4.03-2.96-6.83c0-2.79,0.98-5.07,2.94-6.82 c1.96-1.76,4.44-2.64,7.44-2.64c1.79,0,3.32,0.32,4.6,0.96v5.28c-1.49-0.8-2.97-1.2-4.45-1.2c-1.39,0-2.53,0.42-3.43,1.26 c-0.9,0.84-1.35,1.89-1.35,3.16c0,1.3,0.47,2.36,1.4,3.19c0.94,0.82,2.13,1.23,3.59,1.23c1.78,0,3.28-0.43,4.5-1.3v5.36 C124.51,23.82,122.91,24.15,120.95,24.15z"></path> <path class="st0" d="M128.83,23.79V5.59h5.41v9.05l7.02-9.05h4.6v18.2h-5.36v-8.97l-6.92,8.97H128.83z"></path> <path class="st0" d="M149.26,23.79V5.59h5.41v9.05l7.02-9.05h4.6v18.2h-5.36v-8.97l-6.92,8.97H149.26z M157.82,4.71 c-1.4,0-2.59-0.42-3.56-1.26c-0.97-0.84-1.47-1.99-1.51-3.44h3.54c0.02,0.94,0.52,1.4,1.51,1.4c0.95,0,1.45-0.47,1.48-1.4h3.59 c-0.04,1.47-0.52,2.63-1.47,3.46S159.26,4.71,157.82,4.71z"></path> <path class="st0" d="M179.61,24.15c-3,0-5.49-0.88-7.46-2.64c-1.98-1.76-2.96-4.03-2.96-6.83c0-2.79,0.98-5.07,2.94-6.82 c1.96-1.76,4.44-2.64,7.44-2.64c1.79,0,3.32,0.32,4.6,0.96v5.28c-1.49-0.8-2.97-1.2-4.45-1.2c-1.39,0-2.53,0.42-3.43,1.26 c-0.9,0.84-1.35,1.89-1.35,3.16c0,1.3,0.47,2.36,1.4,3.19c0.94,0.82,2.13,1.23,3.59,1.23c1.78,0,3.28-0.43,4.5-1.3v5.36 C183.17,23.82,181.56,24.15,179.61,24.15z"></path> <path class="st0" d="M187.48,23.79V5.59h5.59v6.79l5.12-6.79h6.58l-6.45,8.45l7.75,9.75h-6.86l-6.14-7.85v7.85H187.48z"></path> <path class="st0" d="M207.74,23.79V5.59h5.41v9.05l7.02-9.05h4.6v18.2h-5.36v-8.97l-6.92,8.97H207.74z"></path> <path class="st0" d="M228.17,23.79V5.59h5.41v9.05l7.02-9.05h4.6v18.2h-5.36v-8.97l-6.92,8.97H228.17z M236.73,4.71 c-1.4,0-2.59-0.42-3.56-1.26c-0.97-0.84-1.47-1.99-1.51-3.44h3.54c0.02,0.94,0.52,1.4,1.51,1.4c0.95,0,1.45-0.47,1.48-1.4h3.59 c-0.04,1.47-0.52,2.63-1.47,3.46S238.17,4.71,236.73,4.71z"></path> <path class="st0" d="M265.61,24.15c-3,0-5.49-0.88-7.46-2.64c-1.98-1.76-2.96-4.03-2.96-6.83c0-2.79,0.98-5.07,2.94-6.82 c1.96-1.76,4.44-2.64,7.44-2.64c1.79,0,3.32,0.32,4.6,0.96v5.28c-1.49-0.8-2.97-1.2-4.45-1.2c-1.39,0-2.53,0.42-3.43,1.26 c-0.9,0.84-1.35,1.89-1.35,3.16c0,1.3,0.47,2.36,1.4,3.19c0.94,0.82,2.13,1.23,3.59,1.23c1.78,0,3.28-0.43,4.5-1.3v5.36 C269.18,23.82,267.57,24.15,265.61,24.15z"></path> <path class="st0" d="M273.49,23.79V5.59h14.27v4.81h-8.68v1.61h6.81v4.42h-6.81v2.55h8.84v4.81H273.49z"></path> <path class="st0" d="M290.68,23.79V5.59h5.54l3.98,6.47l4-6.47h5.51v18.2h-5.36V13.6l-2.57,4.34h-3.02l-2.68-4.34v10.19H290.68z"></path> <path class="st0" d="M313.11,23.79V5.59h14.27v4.81h-8.68v1.61h6.81v4.42h-6.81v2.55h8.84v4.81H313.11z"></path> <path class="st0" d="M330.3,23.79V5.59h5.41v9.05l7.02-9.05h4.6v18.2h-5.36v-8.97l-6.92,8.97H330.3z M338.85,4.71 c-1.4,0-2.59-0.42-3.56-1.26c-0.97-0.84-1.47-1.99-1.51-3.44h3.54c0.02,0.94,0.52,1.4,1.51,1.4c0.95,0,1.45-0.47,1.48-1.4h3.59 c-0.03,1.47-0.52,2.63-1.47,3.46S340.29,4.71,338.85,4.71z"></path> <path class="st0" d="M350.74,23.79V5.59h5.59v6.16h5.56V5.59h5.59v18.2h-5.59v-7.18h-5.56v7.18H350.74z"></path> <path class="st0" d="M370.89,23.79V5.59h5.59v5.25h2c2.27,0,4.1,0.61,5.47,1.83c1.38,1.22,2.07,2.78,2.07,4.67 c0,1.89-0.68,3.44-2.05,4.64c-1.37,1.21-3.2,1.81-5.49,1.81H370.89z M376.48,19.14h1.64c0.68,0,1.23-0.18,1.65-0.53 c0.42-0.35,0.64-0.82,0.64-1.39c0-0.61-0.21-1.09-0.64-1.46c-0.42-0.36-0.97-0.55-1.65-0.55h-1.64V19.14z M387.6,23.79V5.59h5.56 v18.2H387.6z"></path> <path class="st0" d="M396.57,23.79V5.59h5.41v9.05L409,5.59h4.6v18.2h-5.36v-8.97l-6.92,8.97H396.57z M405.13,4.71 c-1.4,0-2.59-0.42-3.56-1.26c-0.97-0.84-1.47-1.99-1.51-3.44h3.54c0.02,0.94,0.52,1.4,1.51,1.4c0.95,0,1.45-0.47,1.48-1.4h3.59 c-0.03,1.47-0.52,2.63-1.47,3.46S406.57,4.71,405.13,4.71z"></path> <path class="st0" d="M8.55,55.85v-2.05c-2.65-0.16-4.74-1.02-6.27-2.59C0.76,49.64,0,47.78,0,45.63s0.76-4,2.29-5.56 c1.52-1.56,3.61-2.42,6.27-2.57v-1.59h5.59v1.59c2.67,0.16,4.76,1.01,6.27,2.57c1.51,1.56,2.26,3.41,2.26,5.56 s-0.75,4.01-2.26,5.58c-1.51,1.57-3.6,2.43-6.27,2.59v2.05H8.55z M8.55,49.06v-6.84c-0.75,0.05-1.4,0.36-1.98,0.92 c-0.57,0.56-0.86,1.39-0.86,2.48c0,1.09,0.28,1.92,0.84,2.48C7.13,48.68,7.79,48.99,8.55,49.06z M14.14,42.22v6.84 c0.76-0.07,1.43-0.39,1.99-0.95c0.56-0.56,0.84-1.39,0.84-2.48c0-1.09-0.29-1.92-0.86-2.48C15.55,42.58,14.89,42.28,14.14,42.22z"></path> <path class="st0" d="M25.58,54.99v-18.2h5.41v9.05l7.02-9.05h4.6v18.2h-5.36v-8.97l-6.92,8.97H25.58z"></path> <path class="st0" d="M46.02,54.99v-18.2h5.59v6.16h5.56v-6.16h5.59v18.2h-5.59v-7.18h-5.56v7.18H46.02z"></path> <path class="st0" d="M64.82,54.99l7.49-18.3h5.33l7.51,18.3h-6.01l-1.3-3.41h-5.93l-1.33,3.41H64.82z M73.53,47.4h2.68l-1.33-4.32 L73.53,47.4z"></path> <path class="st0" d="M87.18,54.99v-18.2h5.59v6.16h5.56v-6.16h5.59v18.2h-5.59v-7.18h-5.56v7.18H87.18z"></path> <path class="st0" d="M117.23,55.35c-3,0-5.49-0.88-7.46-2.64c-1.98-1.76-2.96-4.03-2.96-6.83c0-2.79,0.98-5.07,2.94-6.82 c1.96-1.76,4.44-2.64,7.44-2.64c1.79,0,3.32,0.32,4.6,0.96v5.28c-1.49-0.8-2.97-1.2-4.45-1.2c-1.39,0-2.53,0.42-3.43,1.26 c-0.9,0.84-1.35,1.89-1.35,3.16c0,1.3,0.47,2.36,1.4,3.19c0.94,0.82,2.13,1.23,3.59,1.23c1.78,0,3.28-0.43,4.5-1.3v5.36 C120.8,55.02,119.19,55.35,117.23,55.35z"></path> <path class="st0" d="M140.87,52.59c-1.84,1.85-4.16,2.77-6.97,2.77s-5.13-0.93-6.98-2.78c-1.85-1.85-2.77-4.08-2.77-6.68 c0-2.62,0.92-4.85,2.77-6.69c1.85-1.85,4.17-2.77,6.98-2.77s5.13,0.92,6.97,2.77c1.84,1.85,2.76,4.08,2.76,6.69 C143.62,48.51,142.7,50.74,140.87,52.59z M131,49.02c0.75,0.82,1.72,1.23,2.9,1.23s2.15-0.41,2.9-1.23 c0.75-0.82,1.13-1.87,1.13-3.13c0-1.27-0.38-2.31-1.13-3.13c-0.75-0.82-1.72-1.23-2.9-1.23s-2.15,0.41-2.9,1.23 s-1.13,1.87-1.13,3.13C129.87,47.16,130.25,48.2,131,49.02z"></path> <path class="st0" d="M146.54,54.99v-18.2h9.23c1.68,0,3.07,0.39,4.16,1.18c1.09,0.79,1.64,1.95,1.64,3.47 c0,0.87-0.25,1.62-0.74,2.25s-0.98,1.04-1.44,1.21c0.78,0.17,1.55,0.69,2.31,1.56c0.76,0.87,1.14,1.95,1.14,3.25 c0,1.59-0.62,2.87-1.85,3.83c-1.23,0.96-2.84,1.44-4.84,1.44H146.54z M152.13,43.58h2.83c0.38,0,0.7-0.11,0.95-0.32 c0.25-0.22,0.38-0.5,0.38-0.85c0-0.38-0.13-0.69-0.38-0.92c-0.25-0.23-0.57-0.35-0.95-0.35h-2.83V43.58z M152.13,50.49h2.94 c0.5,0,0.91-0.13,1.21-0.4c0.3-0.27,0.45-0.63,0.45-1.08s-0.15-0.82-0.45-1.1c-0.3-0.29-0.71-0.43-1.21-0.43h-2.94V50.49z"></path> <path class="st0" d="M165.44,54.99v-18.2h5.59v5.25h2c2.27,0,4.09,0.61,5.47,1.83c1.38,1.22,2.07,2.78,2.07,4.67 c0,1.89-0.68,3.44-2.05,4.64c-1.37,1.21-3.2,1.81-5.49,1.81H165.44z M171.03,50.34h1.64c0.68,0,1.23-0.18,1.65-0.53 c0.42-0.35,0.64-0.82,0.64-1.39c0-0.61-0.21-1.09-0.64-1.46c-0.42-0.36-0.97-0.55-1.65-0.55h-1.64V50.34z M182.16,54.99v-18.2h5.56 v18.2H182.16z"></path> <path class="st0" d="M191.13,54.99v-18.2h5.41v9.05l7.02-9.05h4.6v18.2h-5.36v-8.97l-6.92,8.97H191.13z M199.68,35.91 c-1.4,0-2.59-0.42-3.56-1.26c-0.97-0.84-1.47-1.99-1.51-3.44h3.54c0.02,0.94,0.52,1.4,1.51,1.4c0.95,0,1.45-0.47,1.48-1.4h3.59 c-0.04,1.47-0.52,2.63-1.47,3.46S201.12,35.91,199.68,35.91z"></path> <path class="st0" d="M226.69,55.85v-2.05c-2.65-0.16-4.74-1.02-6.27-2.59c-1.53-1.57-2.29-3.43-2.29-5.58s0.76-4,2.29-5.56 c1.52-1.56,3.61-2.42,6.27-2.57v-1.59h5.59v1.59c2.67,0.16,4.76,1.01,6.27,2.57c1.51,1.56,2.26,3.41,2.26,5.56 s-0.75,4.01-2.26,5.58c-1.51,1.57-3.6,2.43-6.27,2.59v2.05H226.69z M226.69,49.06v-6.84c-0.75,0.05-1.4,0.36-1.98,0.92 c-0.57,0.56-0.86,1.39-0.86,2.48c0,1.09,0.28,1.92,0.84,2.48C225.27,48.68,225.93,48.99,226.69,49.06z M232.28,42.22v6.84 c0.76-0.07,1.43-0.39,1.99-0.95c0.56-0.56,0.84-1.39,0.84-2.48c0-1.09-0.29-1.92-0.86-2.48C233.69,42.58,233.03,42.28,232.28,42.22 z"></path> <path class="st0" d="M243.72,54.99v-18.2H258v4.81h-8.68v1.61h6.81v4.42h-6.81v2.55h8.84v4.81H243.72z"></path> <path class="st0" d="M270.42,55.35c-3,0-5.49-0.88-7.46-2.64c-1.98-1.76-2.96-4.03-2.96-6.83c0-2.79,0.98-5.07,2.94-6.82 c1.96-1.76,4.44-2.64,7.44-2.64c1.79,0,3.32,0.32,4.6,0.96v5.28c-1.49-0.8-2.97-1.2-4.45-1.2c-1.39,0-2.53,0.42-3.43,1.26 c-0.9,0.84-1.35,1.89-1.35,3.16c0,1.3,0.47,2.36,1.4,3.19c0.94,0.82,2.13,1.23,3.59,1.23c1.78,0,3.28-0.43,4.5-1.3v5.36 C273.99,55.02,272.38,55.35,270.42,55.35z"></path> <path class="st0" d="M277.5,36.79h15.99v4.81h-5.23v13.39h-5.59V41.6h-5.17V36.79z"></path> <path class="st0" d="M296.09,54.99v-18.2h5.41v9.05l7.02-9.05h4.6v18.2h-5.36v-8.97l-6.92,8.97H296.09z"></path> <path class="st0" d="M316.52,54.99v-18.2h9.23c1.68,0,3.07,0.39,4.16,1.18c1.09,0.79,1.64,1.95,1.64,3.47 c0,0.87-0.25,1.62-0.74,2.25s-0.98,1.04-1.44,1.21c0.78,0.17,1.55,0.69,2.31,1.56c0.76,0.87,1.14,1.95,1.14,3.25 c0,1.59-0.62,2.87-1.85,3.83c-1.23,0.96-2.84,1.44-4.84,1.44H316.52z M322.11,43.58h2.83c0.38,0,0.7-0.11,0.95-0.32 c0.25-0.22,0.38-0.5,0.38-0.85c0-0.38-0.13-0.69-0.38-0.92c-0.25-0.23-0.57-0.35-0.95-0.35h-2.83V43.58z M322.11,50.49h2.94 c0.5,0,0.91-0.13,1.21-0.4c0.3-0.27,0.45-0.63,0.45-1.08s-0.15-0.82-0.45-1.1c-0.3-0.29-0.71-0.43-1.21-0.43h-2.94V50.49z"></path> <path class="st0" d="M334.07,54.99l7.49-18.3h5.33l7.52,18.3h-6.01l-1.3-3.41h-5.93l-1.33,3.41H334.07z M342.78,47.4h2.68 l-1.33-4.32L342.78,47.4z"></path> <path class="st0" d="M355.05,54.73v-4.94c0.49,0.23,0.91,0.34,1.27,0.34c0.64,0,1.12-0.13,1.43-0.4c0.31-0.27,0.58-0.94,0.79-2 s0.33-2.68,0.35-4.85l0.08-6.08h14.35v18.2h-5.56V41.6h-3.72l-0.03,2.18c-0.03,2.22-0.2,4.09-0.51,5.6 c-0.3,1.52-0.75,2.7-1.33,3.54s-1.23,1.43-1.96,1.78c-0.73,0.35-1.6,0.52-2.63,0.52C356.42,55.22,355.57,55.06,355.05,54.73z"></path> <path class="st0" d="M376.74,54.99v-18.2h5.56v5.25h2.57c2.29,0,4.12,0.61,5.5,1.83c1.38,1.22,2.07,2.78,2.07,4.67 c0,1.91-0.69,3.46-2.07,4.65c-1.38,1.2-3.21,1.79-5.5,1.79H376.74z M382.3,50.34h2.24c0.68,0,1.23-0.18,1.65-0.53 c0.42-0.35,0.64-0.82,0.64-1.39c0-0.61-0.21-1.09-0.64-1.46c-0.42-0.36-0.98-0.55-1.65-0.55h-2.24V50.34z"></path> </g> </svg> 