<?xml version="1.0" encoding="UTF-8"?> <svg xmlns="http://www.w3.org/2000/svg" viewBox="0 0 290 129.75"> <defs> <style>.cls-1{fill:#fff;}.cls-2{fill:#fcc142;}.cls-3{fill:#2e3192;}</style> </defs> <title>кинотеатр</title> <g id="Слой_2" data-name="Слой 2"> <g id="Слой_8_копия3_" data-name="Слой 8 (копия3)"> <polygon class="cls-1" points="290 96 15.5 96 7.67 100 4 96 4 0 290 0 290 96"></polygon> <polygon class="cls-2" points="286 100 11.5 100 0 129.75 0 100 0 4 286 4 286 100"></polygon> <path class="cls-3" d="M24.44,59.47H17.13V35.67h7.31v8.87l6.7-8.87h8.6l-8.43,11L41.44,59.47h-9l-8-10.27Z"></path> <path class="cls-3" d="M50.69,59.47H44.47V35.67h7.07V47.5l9.18-11.83h6v23.8h-7V47.74Z"></path> <path class="cls-3" d="M79.35,59.47H72V35.67h7.31v8.06h7.28V35.67h7.31v23.8H86.63V50.08H79.35Z"></path> <path class="cls-3" d="M102.17,38.83a13.26,13.26,0,0,1,18.25,0,12.42,12.42,0,0,1,0,17.51,13.41,13.41,0,0,1-18.25,0,12.38,12.38,0,0,1,0-17.48Zm9.14,14.45a5,5,0,0,0,3.78-1.6,5.91,5.91,0,0,0,1.49-4.11,5.75,5.75,0,0,0-1.49-4.08,5.19,5.19,0,0,0-7.55,0,5.72,5.72,0,0,0-1.5,4.08,5.87,5.87,0,0,0,1.5,4.11A4.93,4.93,0,0,0,111.31,53.28Z"></path> <path class="cls-3" d="M127.63,42V35.67h20.91V42h-6.83V59.47H134.4V42Z"></path> <path class="cls-3" d="M171.66,59.47H152.79V35.67h18.67V42H160.1v2.11H169v5.78H160.1v3.33h11.56Z"></path> <path class="cls-3" d="M181.9,59.47h-7.55l9.79-23.94h7l9.82,23.94h-7.85L191.38,55h-7.75Zm5.61-15.57-1.77,5.64h3.5Z"></path> <path class="cls-3" d="M203.38,42V35.67h20.91V42h-6.83V59.47h-7.31V42Z"></path> <path class="cls-3" d="M228.54,35.67h11A9.42,9.42,0,0,1,246,37.84,7.52,7.52,0,0,1,246,49a9.42,9.42,0,0,1-6.53,2.17h-3.64v8.3h-7.31Zm7.31,10.2h2.66a2.15,2.15,0,1,0,0-4.25h-2.66Z"></path> </g> </g> </svg> 