<?xml version="1.0" encoding="UTF-8"?> <svg xmlns="http://www.w3.org/2000/svg" xmlns:xlink="http://www.w3.org/1999/xlink" viewBox="0 0 567.6 279.74"> <defs> <style>.cls-1{fill:none;}.cls-2{fill:#80e4ff;}.cls-3{fill:#00b28f;}.cls-4{fill:url(#Безымянный_градиент_86);}.cls-5{fill:#ff6464;}.cls-6{fill:url(#Безымянный_градиент_86-2);}.cls-7{fill:#2e3192;}.cls-8{fill:#33cbef;}.cls-9{clip-path:url(#clip-path);}.cls-10{clip-path:url(#clip-path-2);}.cls-11{fill:url(#Безымянный_градиент_86-3);}.cls-12{fill:url(#Безымянный_градиент_86-4);}.cls-13{fill:#fcc142;}.cls-14{fill:url(#Безымянный_градиент_86-5);}</style> <linearGradient id="Безымянный_градиент_86" x1="463.37" y1="470.77" x2="567.37" y2="470.77" gradientTransform="matrix(-0.87, 0.5, 1, 0.58, 133.16, -438.49)" gradientUnits="userSpaceOnUse"> <stop offset="0.01" stop-color="#2e3192"></stop> <stop offset="1" stop-color="#29abe2"></stop> </linearGradient> <linearGradient id="Безымянный_градиент_86-2" x1="463.37" y1="612.8" x2="567.37" y2="612.8" xlink:href="#Безымянный_градиент_86"></linearGradient> <clipPath id="clip-path"> <rect class="cls-1" x="164.72" y="95.46" width="75" height="105.25" transform="translate(404.44 296.16) rotate(-180)"></rect> </clipPath> <clipPath id="clip-path-2"> <rect class="cls-1" x="281.4" y="28.89" width="75" height="105.25" transform="translate(637.79 163.04) rotate(-180)"></rect> </clipPath> <linearGradient id="Безымянный_градиент_86-3" x1="439.32" y1="560.3" x2="543.32" y2="560.3" xlink:href="#Безымянный_градиент_86"></linearGradient> <linearGradient id="Безымянный_градиент_86-4" x1="439.32" y1="611.01" x2="543.37" y2="611.01" xlink:href="#Безымянный_градиент_86"></linearGradient> <linearGradient id="Безымянный_градиент_86-5" x1="415.43" y1="678.13" x2="519.43" y2="678.13" xlink:href="#Безымянный_градиент_86"></linearGradient> </defs> <title>Кинотеатр кинолента 2</title> <g id="Слой_2" data-name="Слой 2"> <g id="Слой_12" data-name="Слой 12"> <path class="cls-2" d="M269.7,222.65,181.94,172c-5.74-3.32-10.39-11.38-10.39-18h0c0-6.63,4.65-9.32,10.39-6l87.76,50.66c5.74,3.32,10.39,11.38,10.39,18h0C280.09,223.28,275.44,226,269.7,222.65Z"></path> <polygon class="cls-2" points="270.19 223 386.24 156 116.05 0 0 67 270.19 223"></polygon> <polygon class="cls-3" points="70.15 92.5 160.21 40.5 103.06 7.5 12.99 59.5 70.15 92.5"></polygon> <polygon class="cls-4" points="141.16 133.5 231.22 81.5 174.07 48.5 84 100.5 141.16 133.5"></polygon> <polygon class="cls-5" points="212.17 174.5 302.24 122.5 245.08 89.5 155.01 141.5 212.17 174.5"></polygon> <polygon class="cls-6" points="283.18 215.5 373.25 163.5 316.09 130.5 226.03 182.5 283.18 215.5"></polygon> <path class="cls-7" d="M390.18,158.25,277.85,223.09a7.37,7.37,0,0,1-2.23.84c2.7-.61,4.47-3.19,4.47-7.28,0-6.62-4.65-14.68-10.39-18L181.94,148"></path> <path class="cls-8" d="M269.7,222.65a9.18,9.18,0,0,0,4.89,1.41,7.39,7.39,0,0,1-4.19-1"></path> <polygon class="cls-2" points="224.83 153.3 342.24 86.09 291.27 56.71 173.86 123.91 224.83 153.3"></polygon> <path class="cls-7" d="M214.14,64.89l2.91-1.68c.27-.16.24-.44-.08-.62l-7.43-4.29a1.23,1.23,0,0,0-1.07,0l-2.91,1.68c-.28.16-.24.44.08.62l7.43,4.29A1.16,1.16,0,0,0,214.14,64.89Z"></path> <path class="cls-7" d="M227.44,72.57l2.91-1.68c.27-.16.24-.44-.08-.62L222.84,66a1.16,1.16,0,0,0-1.07,0l-2.91,1.68c-.28.16-.24.44.07.62l7.44,4.29A1.23,1.23,0,0,0,227.44,72.57Z"></path> <path class="cls-7" d="M240.74,80.24l2.91-1.68c.27-.15.24-.43-.08-.61l-7.44-4.3a1.19,1.19,0,0,0-1.07,0l-2.9,1.68c-.28.16-.24.43.07.62l7.44,4.29A1.19,1.19,0,0,0,240.74,80.24Z"></path> <path class="cls-7" d="M254,87.92l2.9-1.68c.28-.16.24-.43-.07-.62l-7.44-4.29a1.19,1.19,0,0,0-1.07,0L245.45,83c-.27.16-.24.43.08.61l7.44,4.3A1.19,1.19,0,0,0,254,87.92Z"></path> <path class="cls-7" d="M267.33,95.6l2.91-1.68c.28-.16.24-.43-.07-.62L262.73,89a1.19,1.19,0,0,0-1.07,0l-2.91,1.67c-.27.16-.24.44.08.62l7.43,4.3A1.19,1.19,0,0,0,267.33,95.6Z"></path> <path class="cls-7" d="M280.63,103.28l2.91-1.68c.28-.16.24-.44-.08-.62L276,96.69a1.16,1.16,0,0,0-1.07,0l-2.91,1.68c-.27.16-.24.44.08.62l7.43,4.29A1.16,1.16,0,0,0,280.63,103.28Z"></path> <path class="cls-7" d="M293.93,111l2.91-1.68c.27-.16.24-.44-.08-.62l-7.43-4.29a1.16,1.16,0,0,0-1.07-.05L285.35,106c-.28.16-.24.44.08.62l7.43,4.29A1.23,1.23,0,0,0,293.93,111Z"></path> <path class="cls-7" d="M307.23,118.63l2.91-1.68c.27-.15.24-.43-.08-.61l-7.43-4.3a1.19,1.19,0,0,0-1.07,0l-2.91,1.68c-.28.16-.24.43.07.62l7.44,4.29A1.19,1.19,0,0,0,307.23,118.63Z"></path> <path class="cls-7" d="M320.53,126.31l2.91-1.68c.27-.16.24-.43-.08-.62l-7.44-4.29a1.17,1.17,0,0,0-1.06,0L312,121.36c-.28.15-.24.43.07.61l7.44,4.3A1.19,1.19,0,0,0,320.53,126.31Z"></path> <path class="cls-7" d="M333.83,134l2.91-1.68c.27-.16.24-.44-.08-.62l-7.44-4.29a1.23,1.23,0,0,0-1.07-.05L325.24,129c-.27.16-.24.44.08.62l7.44,4.29A1.16,1.16,0,0,0,333.83,134Z"></path> <path class="cls-7" d="M347.12,141.67,350,140c.28-.16.24-.44-.07-.62l-7.44-4.29a1.16,1.16,0,0,0-1.07-.05l-2.91,1.68c-.27.16-.24.44.08.62l7.44,4.29A1.21,1.21,0,0,0,347.12,141.67Z"></path> <path class="cls-7" d="M360.42,149.34l2.91-1.68c.28-.15.24-.43-.07-.61l-7.44-4.3a1.19,1.19,0,0,0-1.07,0l-2.91,1.68c-.27.16-.24.43.08.62l7.43,4.29A1.19,1.19,0,0,0,360.42,149.34Z"></path> <path class="cls-7" d="M373.72,157l2.91-1.68c.27-.16.24-.43-.08-.61l-7.43-4.3a1.19,1.19,0,0,0-1.07,0l-2.91,1.68c-.27.16-.24.43.08.62l7.43,4.29A1.19,1.19,0,0,0,373.72,157Z"></path> <path class="cls-7" d="M120.26,11l2.91-1.68c.28-.16.24-.44-.07-.62l-7.44-4.29a1.16,1.16,0,0,0-1.07,0L111.68,6c-.27.16-.24.44.08.62l7.43,4.29A1.23,1.23,0,0,0,120.26,11Z"></path> <path class="cls-7" d="M133.67,18.63,136.58,17c.28-.15.24-.43-.07-.61L129.07,12A1.19,1.19,0,0,0,128,12l-2.91,1.68c-.27.16-.24.43.08.62l7.44,4.29A1.17,1.17,0,0,0,133.67,18.63Z"></path> <path class="cls-7" d="M147.09,26.31,150,24.63c.27-.16.23-.43-.08-.62l-7.44-4.29a1.19,1.19,0,0,0-1.07,0l-2.91,1.68c-.27.15-.24.43.08.61l7.44,4.3A1.19,1.19,0,0,0,147.09,26.31Z"></path> <path class="cls-7" d="M160.5,34l2.91-1.68c.27-.16.24-.44-.08-.62l-7.44-4.29a1.23,1.23,0,0,0-1.07,0L151.91,29c-.27.16-.23.44.08.62l7.44,4.29A1.16,1.16,0,0,0,160.5,34Z"></path> <path class="cls-7" d="M173.91,41.67,176.82,40c.27-.16.24-.44-.08-.62l-7.44-4.29a1.14,1.14,0,0,0-1.06,0l-2.91,1.68c-.28.16-.24.44.07.62l7.44,4.29A1.23,1.23,0,0,0,173.91,41.67Z"></path> <path class="cls-7" d="M187.32,49.34l2.91-1.68c.27-.15.24-.43-.08-.61l-7.43-4.3a1.19,1.19,0,0,0-1.07,0l-2.91,1.68c-.28.16-.24.43.07.62l7.44,4.29A1.19,1.19,0,0,0,187.32,49.34Z"></path> <path class="cls-7" d="M200.73,57l2.91-1.68c.27-.16.24-.43-.08-.61l-7.43-4.3a1.19,1.19,0,0,0-1.07,0l-2.91,1.68c-.28.16-.24.43.07.62L199.66,57A1.19,1.19,0,0,0,200.73,57Z"></path> <g class="cls-9"> <path class="cls-7" d="M269.7,198.65,181.94,148c-5.74-3.32-10.39-11.38-10.39-18h0c0-6.63,4.65-9.32,10.39-6l87.76,50.66c5.74,3.32,10.39,11.38,10.39,18h0C280.09,199.28,275.44,202,269.7,198.65Z"></path> </g> <g class="cls-10"> <path class="cls-2" d="M386.38,132.09,298.62,81.42c-5.74-3.31-10.39-11.37-10.39-18h0c0-6.62,4.65-9.31,10.39-6l87.76,50.67c5.74,3.31,10.39,11.37,10.39,18h0C396.77,132.72,392.12,135.4,386.38,132.09Z"></path> </g> <polygon class="cls-7" points="268.88 198.25 384.93 131.25 297.41 80.66 181.36 147.66 268.88 198.25"></polygon> <polygon class="cls-11" points="251.51 173.16 341.57 121.16 284.42 88.16 194.35 140.16 251.51 173.16"></polygon> <polygon class="cls-12" points="281.88 190.75 371.94 138.75 355.43 129.16 265.36 181.16 281.88 190.75"></polygon> <polygon class="cls-2" points="451.55 279.74 567.6 212.74 297.41 56.75 181.36 123.75 451.55 279.74"></polygon> <polygon class="cls-3" points="248.01 147.25 338.07 95.25 280.92 62.25 190.85 114.25 248.01 147.25"></polygon> <polygon class="cls-13" points="319.02 188.25 409.09 136.25 351.93 103.25 261.86 155.25 319.02 188.25"></polygon> <polygon class="cls-14" points="390.03 229.24 480.1 177.24 422.94 144.24 332.88 196.24 390.03 229.24"></polygon> <polygon class="cls-5" points="461.04 270.24 551.11 218.24 493.95 185.24 403.89 237.24 461.04 270.24"></polygon> <path class="cls-7" d="M392.7,119.59l2.91-1.68c.27-.16.24-.44-.08-.62L388.1,113a1.23,1.23,0,0,0-1.07,0l-2.91,1.68c-.28.16-.24.44.07.62l7.44,4.29A1.16,1.16,0,0,0,392.7,119.59Z"></path> <path class="cls-7" d="M406,127.27l2.91-1.68c.27-.16.24-.44-.08-.62l-7.44-4.29a1.16,1.16,0,0,0-1.07-.05l-2.91,1.68c-.27.16-.23.44.08.62l7.44,4.29A1.23,1.23,0,0,0,406,127.27Z"></path> <path class="cls-7" d="M419.29,134.94l2.91-1.68c.28-.15.24-.43-.07-.61l-7.44-4.3a1.19,1.19,0,0,0-1.07,0L410.71,130c-.27.16-.24.43.08.62l7.44,4.29A1.17,1.17,0,0,0,419.29,134.94Z"></path> <path class="cls-7" d="M432.59,142.62l2.91-1.68c.28-.16.24-.43-.07-.62L428,136a1.19,1.19,0,0,0-1.07,0L424,137.67c-.27.16-.24.43.08.61l7.43,4.3A1.19,1.19,0,0,0,432.59,142.62Z"></path> <path class="cls-7" d="M445.89,150.3l2.91-1.68c.28-.16.24-.43-.08-.62l-7.43-4.29a1.19,1.19,0,0,0-1.07,0l-2.91,1.68c-.27.15-.24.43.08.61l7.43,4.3A1.19,1.19,0,0,0,445.89,150.3Z"></path> <path class="cls-7" d="M459.19,158l2.91-1.68c.27-.16.24-.44-.08-.62l-7.43-4.29a1.2,1.2,0,0,0-1.07,0L450.61,153c-.28.16-.24.44.08.62l7.43,4.29A1.16,1.16,0,0,0,459.19,158Z"></path> <path class="cls-7" d="M472.49,165.66,475.4,164c.27-.16.24-.44-.08-.62l-7.43-4.29a1.16,1.16,0,0,0-1.07,0l-2.91,1.68c-.28.16-.24.44.07.62l7.44,4.29A1.23,1.23,0,0,0,472.49,165.66Z"></path> <path class="cls-7" d="M485.79,173.33l2.91-1.68c.27-.15.24-.43-.08-.61l-7.44-4.3a1.17,1.17,0,0,0-1.06,0l-2.91,1.68c-.28.16-.24.43.07.62l7.44,4.29A1.19,1.19,0,0,0,485.79,173.33Z"></path> <path class="cls-7" d="M499.09,181l2.91-1.68c.27-.16.23-.43-.08-.62l-7.44-4.29a1.19,1.19,0,0,0-1.07,0l-2.91,1.68c-.27.15-.24.43.08.61L498,181A1.19,1.19,0,0,0,499.09,181Z"></path> <path class="cls-7" d="M512.38,188.69l2.91-1.68c.28-.16.24-.44-.07-.62l-7.44-4.29a1.23,1.23,0,0,0-1.07,0l-2.91,1.68c-.27.16-.24.44.08.62l7.44,4.29A1.14,1.14,0,0,0,512.38,188.69Z"></path> <path class="cls-7" d="M525.68,196.37l2.91-1.68c.28-.16.24-.44-.07-.62l-7.44-4.29a1.16,1.16,0,0,0-1.07-.05l-2.91,1.68c-.27.16-.24.44.08.62l7.43,4.29A1.16,1.16,0,0,0,525.68,196.37Z"></path> <path class="cls-7" d="M539,204l2.91-1.67c.27-.16.24-.44-.08-.62l-7.43-4.3a1.19,1.19,0,0,0-1.07,0l-2.91,1.68c-.27.16-.24.43.08.62l7.43,4.29A1.19,1.19,0,0,0,539,204Z"></path> <path class="cls-7" d="M552.28,211.72l2.91-1.68c.27-.16.24-.43-.08-.61l-7.43-4.3a1.19,1.19,0,0,0-1.07,0l-2.91,1.68c-.28.16-.24.43.07.62l7.44,4.29A1.19,1.19,0,0,0,552.28,211.72Z"></path> <path class="cls-7" d="M298.82,65.66,301.73,64c.28-.16.24-.44-.08-.62l-7.43-4.29a1.16,1.16,0,0,0-1.07,0l-2.91,1.68c-.27.16-.24.44.08.62l7.43,4.29A1.23,1.23,0,0,0,298.82,65.66Z"></path> <path class="cls-7" d="M312.23,73.33l2.91-1.68c.28-.15.24-.43-.07-.61l-7.44-4.3a1.19,1.19,0,0,0-1.07,0l-2.91,1.68c-.27.16-.24.43.08.62l7.43,4.29A1.19,1.19,0,0,0,312.23,73.33Z"></path> <path class="cls-7" d="M325.64,81l2.91-1.68c.28-.16.24-.43-.07-.62L321,74.42a1.19,1.19,0,0,0-1.07,0l-2.91,1.68c-.27.15-.24.43.08.61l7.43,4.3A1.19,1.19,0,0,0,325.64,81Z"></path> <path class="cls-7" d="M339.05,88.69,342,87c.28-.16.24-.44-.07-.62l-7.44-4.29a1.23,1.23,0,0,0-1.07,0l-2.91,1.68c-.27.16-.24.44.08.62L338,88.64A1.14,1.14,0,0,0,339.05,88.69Z"></path> <path class="cls-7" d="M352.47,96.37l2.9-1.68c.28-.16.24-.44-.07-.62l-7.44-4.29a1.16,1.16,0,0,0-1.07,0l-2.91,1.68c-.27.16-.24.44.08.62l7.44,4.29A1.16,1.16,0,0,0,352.47,96.37Z"></path> <path class="cls-7" d="M365.88,104l2.91-1.67c.27-.16.24-.44-.08-.62l-7.44-4.3a1.19,1.19,0,0,0-1.07,0l-2.91,1.68c-.27.16-.23.43.08.62l7.44,4.29A1.19,1.19,0,0,0,365.88,104Z"></path> <path class="cls-7" d="M379.29,111.72,382.2,110c.27-.16.24-.43-.08-.61l-7.44-4.3a1.17,1.17,0,0,0-1.06,0l-2.91,1.68c-.28.16-.24.43.07.62l7.44,4.29A1.19,1.19,0,0,0,379.29,111.72Z"></path> <path class="cls-7" d="M289.36,180.92l2.91-1.68c.28-.16.24-.43-.07-.62l-7.44-4.29a1.19,1.19,0,0,0-1.07,0L280.78,176c-.27.16-.24.43.08.61l7.44,4.3A1.17,1.17,0,0,0,289.36,180.92Z"></path> <path class="cls-7" d="M302.66,188.6l2.91-1.68c.28-.16.24-.43-.07-.62L298.06,182a1.19,1.19,0,0,0-1.07,0l-2.91,1.67c-.27.16-.24.44.08.62l7.43,4.3A1.19,1.19,0,0,0,302.66,188.6Z"></path> <path class="cls-7" d="M316,196.28l2.91-1.68c.28-.16.24-.44-.08-.62l-7.43-4.29a1.16,1.16,0,0,0-1.07-.05l-2.91,1.68c-.27.16-.24.44.08.62l7.43,4.29A1.16,1.16,0,0,0,316,196.28Z"></path> <path class="cls-7" d="M329.26,204l2.91-1.68c.27-.16.24-.44-.08-.62l-7.43-4.29a1.16,1.16,0,0,0-1.07-.05L320.68,199c-.28.16-.24.44.08.62l7.43,4.29A1.23,1.23,0,0,0,329.26,204Z"></path> <path class="cls-7" d="M342.56,211.63l2.91-1.68c.27-.15.24-.43-.08-.61L338,205a1.19,1.19,0,0,0-1.07,0L334,206.68c-.28.16-.24.43.07.62l7.44,4.29A1.19,1.19,0,0,0,342.56,211.63Z"></path> <path class="cls-7" d="M355.86,219.31l2.91-1.68c.27-.16.24-.43-.08-.62l-7.44-4.29a1.19,1.19,0,0,0-1.07,0l-2.9,1.68c-.28.15-.24.43.07.61l7.44,4.3A1.19,1.19,0,0,0,355.86,219.31Z"></path> <path class="cls-7" d="M369.16,227l2.9-1.68c.28-.16.24-.44-.07-.62l-7.44-4.29a1.23,1.23,0,0,0-1.07-.05L360.57,222c-.27.16-.24.44.08.62l7.44,4.29A1.16,1.16,0,0,0,369.16,227Z"></path> <path class="cls-7" d="M382.45,234.67l2.91-1.68c.28-.16.24-.44-.07-.62l-7.44-4.29a1.16,1.16,0,0,0-1.07-.05l-2.91,1.68c-.27.16-.24.44.08.62l7.43,4.29A1.23,1.23,0,0,0,382.45,234.67Z"></path> <path class="cls-7" d="M395.75,242.34l2.91-1.68c.28-.15.24-.43-.07-.61l-7.44-4.3a1.19,1.19,0,0,0-1.07,0l-2.91,1.68c-.27.16-.24.43.08.62l7.43,4.29A1.19,1.19,0,0,0,395.75,242.34Z"></path> <path class="cls-7" d="M409.05,250l2.91-1.68c.27-.16.24-.43-.08-.61l-7.43-4.3a1.19,1.19,0,0,0-1.07,0l-2.91,1.68c-.27.16-.24.43.08.62L408,250A1.19,1.19,0,0,0,409.05,250Z"></path> <path class="cls-7" d="M422.35,257.7l2.91-1.68c.27-.16.24-.43-.08-.62l-7.43-4.29a1.19,1.19,0,0,0-1.07,0l-2.91,1.68c-.28.15-.24.43.07.61l7.44,4.3A1.19,1.19,0,0,0,422.35,257.7Z"></path> <path class="cls-7" d="M435.65,265.38l2.91-1.68c.27-.16.24-.44-.08-.62L431,258.79a1.21,1.21,0,0,0-1.06-.05l-2.91,1.68c-.28.16-.24.44.07.62l7.44,4.29A1.16,1.16,0,0,0,435.65,265.38Z"></path> <path class="cls-7" d="M449,273.06l2.91-1.68c.27-.16.24-.44-.08-.62l-7.44-4.29a1.16,1.16,0,0,0-1.07-.05l-2.91,1.68c-.27.16-.23.44.08.62l7.44,4.29A1.23,1.23,0,0,0,449,273.06Z"></path> <path class="cls-7" d="M195.49,127l2.91-1.68c.27-.16.24-.44-.08-.62l-7.43-4.29a1.23,1.23,0,0,0-1.07-.05L186.91,122c-.28.16-.24.44.07.62l7.44,4.29A1.16,1.16,0,0,0,195.49,127Z"></path> <path class="cls-7" d="M208.9,134.67l2.91-1.68c.27-.16.24-.44-.08-.62l-7.43-4.29a1.16,1.16,0,0,0-1.07-.05l-2.91,1.68c-.28.16-.24.44.07.62l7.44,4.29A1.23,1.23,0,0,0,208.9,134.67Z"></path> <path class="cls-7" d="M222.31,142.34l2.91-1.68c.27-.15.24-.43-.08-.61l-7.43-4.3a1.19,1.19,0,0,0-1.07,0l-2.91,1.68c-.28.16-.24.43.08.62l7.43,4.29A1.19,1.19,0,0,0,222.31,142.34Z"></path> <path class="cls-7" d="M235.72,150l2.91-1.68c.27-.16.24-.43-.08-.61l-7.43-4.3a1.19,1.19,0,0,0-1.07,0l-2.91,1.68c-.27.16-.24.43.08.62l7.43,4.29A1.19,1.19,0,0,0,235.72,150Z"></path> <path class="cls-7" d="M249.13,157.7,252,156c.28-.16.24-.43-.08-.62l-7.43-4.29a1.19,1.19,0,0,0-1.07,0l-2.91,1.68c-.27.15-.24.43.08.61l7.43,4.3A1.19,1.19,0,0,0,249.13,157.7Z"></path> <path class="cls-7" d="M262.54,165.38l2.91-1.68c.28-.16.24-.44-.07-.62l-7.44-4.29a1.23,1.23,0,0,0-1.07,0L254,160.42c-.27.16-.24.44.08.62l7.43,4.29A1.16,1.16,0,0,0,262.54,165.38Z"></path> <path class="cls-7" d="M276,173.06l2.91-1.68c.28-.16.24-.44-.07-.62l-7.44-4.29a1.16,1.16,0,0,0-1.07-.05l-2.91,1.68c-.27.16-.24.44.08.62l7.43,4.29A1.23,1.23,0,0,0,276,173.06Z"></path> <path class="cls-7" d="M109.47,124.89l2.91-1.68c.28-.16.24-.44-.07-.62l-7.44-4.29a1.23,1.23,0,0,0-1.07,0l-2.91,1.68c-.27.16-.24.44.08.62l7.43,4.29A1.16,1.16,0,0,0,109.47,124.89Z"></path> <path class="cls-7" d="M122.77,132.57l2.91-1.68c.28-.16.24-.44-.08-.62L118.17,126a1.16,1.16,0,0,0-1.07,0l-2.91,1.68c-.27.16-.24.44.08.62l7.43,4.29A1.23,1.23,0,0,0,122.77,132.57Z"></path> <path class="cls-7" d="M136.07,140.24l2.91-1.68c.27-.15.24-.43-.08-.61l-7.43-4.3a1.19,1.19,0,0,0-1.07,0l-2.91,1.68c-.28.16-.24.43.08.62L135,140.2A1.19,1.19,0,0,0,136.07,140.24Z"></path> <path class="cls-7" d="M149.37,147.92l2.91-1.68c.27-.16.24-.43-.08-.62l-7.43-4.29a1.19,1.19,0,0,0-1.07,0L140.79,143c-.28.16-.24.43.07.61l7.44,4.3A1.19,1.19,0,0,0,149.37,147.92Z"></path> <path class="cls-7" d="M162.67,155.6l2.91-1.68c.27-.16.24-.43-.08-.62L158.06,149a1.19,1.19,0,0,0-1.07,0l-2.9,1.67c-.28.16-.24.44.07.62l7.44,4.3A1.19,1.19,0,0,0,162.67,155.6Z"></path> <path class="cls-7" d="M176,163.28l2.9-1.68c.28-.16.24-.44-.07-.62l-7.44-4.29a1.16,1.16,0,0,0-1.07-.05l-2.91,1.68c-.27.16-.24.44.08.62l7.44,4.29A1.16,1.16,0,0,0,176,163.28Z"></path> <path class="cls-7" d="M189.26,171l2.91-1.68c.28-.16.24-.44-.07-.62l-7.44-4.29a1.16,1.16,0,0,0-1.07-.05L180.68,166c-.27.16-.24.44.08.62l7.43,4.29A1.23,1.23,0,0,0,189.26,171Z"></path> <path class="cls-7" d="M202.56,178.63l2.91-1.68c.28-.15.24-.43-.07-.61L198,172a1.19,1.19,0,0,0-1.07,0L194,173.68c-.27.16-.24.43.08.62l7.43,4.29A1.19,1.19,0,0,0,202.56,178.63Z"></path> <path class="cls-7" d="M215.86,186.31l2.91-1.68c.27-.16.24-.43-.08-.62l-7.43-4.29a1.19,1.19,0,0,0-1.07,0l-2.91,1.68c-.27.15-.24.43.08.61l7.43,4.3A1.19,1.19,0,0,0,215.86,186.31Z"></path> <path class="cls-7" d="M229.16,194l2.91-1.68c.27-.16.24-.44-.08-.62l-7.43-4.29a1.23,1.23,0,0,0-1.07-.05L220.58,189c-.28.16-.24.44.07.62l7.44,4.29A1.16,1.16,0,0,0,229.16,194Z"></path> <path class="cls-7" d="M242.46,201.67l2.91-1.68c.27-.16.24-.44-.08-.62l-7.44-4.29a1.14,1.14,0,0,0-1.06-.05l-2.91,1.68c-.28.16-.24.44.07.62l7.44,4.29A1.23,1.23,0,0,0,242.46,201.67Z"></path> <path class="cls-7" d="M255.76,209.34l2.91-1.68c.27-.15.24-.43-.08-.61l-7.44-4.3a1.19,1.19,0,0,0-1.07,0l-2.91,1.68c-.27.16-.23.43.08.62l7.44,4.29A1.19,1.19,0,0,0,255.76,209.34Z"></path> <path class="cls-7" d="M269.05,217l2.91-1.68c.28-.16.24-.43-.07-.61l-7.44-4.3a1.19,1.19,0,0,0-1.07,0l-2.91,1.68c-.27.16-.24.43.08.62L268,217A1.17,1.17,0,0,0,269.05,217Z"></path> <path class="cls-7" d="M15.6,71l2.91-1.68c.27-.16.24-.44-.08-.62L11,64.37a1.14,1.14,0,0,0-1.06-.05L7,66c-.28.16-.24.44.07.62l7.44,4.29A1.23,1.23,0,0,0,15.6,71Z"></path> <path class="cls-7" d="M29,78.63,31.92,77c.27-.15.24-.43-.08-.61L24.41,72a1.19,1.19,0,0,0-1.07,0l-2.91,1.68c-.28.16-.24.43.07.62l7.44,4.29A1.19,1.19,0,0,0,29,78.63Z"></path> <path class="cls-7" d="M42.42,86.31l2.91-1.68c.27-.16.24-.43-.08-.62l-7.43-4.29a1.19,1.19,0,0,0-1.07,0l-2.91,1.68c-.28.15-.24.43.07.61l7.44,4.3A1.19,1.19,0,0,0,42.42,86.31Z"></path> <path class="cls-7" d="M55.83,94l2.91-1.68c.27-.16.24-.44-.08-.62L51.23,87.4a1.23,1.23,0,0,0-1.07-.05L47.25,89c-.28.16-.24.44.07.62l7.44,4.29A1.16,1.16,0,0,0,55.83,94Z"></path> <path class="cls-7" d="M69.24,101.67,72.15,100c.27-.16.24-.44-.08-.62l-7.43-4.29a1.16,1.16,0,0,0-1.07,0l-2.91,1.68c-.27.16-.24.44.08.62l7.43,4.29A1.23,1.23,0,0,0,69.24,101.67Z"></path> <path class="cls-7" d="M82.65,109.34l2.91-1.68c.27-.15.24-.43-.08-.61l-7.43-4.3a1.19,1.19,0,0,0-1.07,0l-2.91,1.68c-.27.16-.24.43.08.62l7.43,4.29A1.19,1.19,0,0,0,82.65,109.34Z"></path> <path class="cls-7" d="M96.06,117,99,115.34c.28-.16.24-.43-.08-.61l-7.43-4.3a1.19,1.19,0,0,0-1.07,0l-2.91,1.68c-.27.16-.24.43.08.62L95,117A1.19,1.19,0,0,0,96.06,117Z"></path> <path class="cls-2" d="M194.46,150.26l2.91-1.68c.27-.16.24-.44-.08-.62l-7.43-4.29a1.23,1.23,0,0,0-1.07,0l-2.91,1.68c-.28.16-.24.44.07.62l7.44,4.29A1.16,1.16,0,0,0,194.46,150.26Z"></path> <path class="cls-2" d="M207.87,157.94l2.91-1.68c.27-.16.24-.44-.08-.62l-7.43-4.29a1.16,1.16,0,0,0-1.07,0L199.29,153c-.28.16-.24.44.07.62l7.44,4.29A1.23,1.23,0,0,0,207.87,157.94Z"></path> <path class="cls-2" d="M221.28,165.61l2.91-1.68c.27-.15.24-.43-.08-.61l-7.43-4.3a1.19,1.19,0,0,0-1.07,0l-2.91,1.68c-.28.16-.24.43.08.62l7.43,4.29A1.19,1.19,0,0,0,221.28,165.61Z"></path> <path class="cls-2" d="M234.69,173.29l2.91-1.68c.27-.16.24-.43-.08-.62l-7.43-4.29a1.19,1.19,0,0,0-1.07,0l-2.91,1.68c-.27.16-.24.43.08.61l7.43,4.3A1.19,1.19,0,0,0,234.69,173.29Z"></path> <path class="cls-2" d="M248.1,181l2.91-1.68c.28-.16.24-.43-.08-.62l-7.43-4.29a1.19,1.19,0,0,0-1.07,0L239.52,176c-.27.16-.24.44.08.62l7.43,4.3A1.19,1.19,0,0,0,248.1,181Z"></path> <path class="cls-2" d="M261.51,188.65l2.91-1.68c.28-.16.24-.44-.07-.62l-7.44-4.29a1.16,1.16,0,0,0-1.07-.05l-2.91,1.68c-.27.16-.24.44.08.62l7.43,4.29A1.16,1.16,0,0,0,261.51,188.65Z"></path> <path class="cls-2" d="M274.92,196.33l2.91-1.68c.28-.16.24-.44-.07-.62l-7.44-4.29a1.16,1.16,0,0,0-1.07-.05l-2.91,1.68c-.27.16-.24.44.08.62l7.43,4.29A1.23,1.23,0,0,0,274.92,196.33Z"></path> </g> </g> </svg> 