<?xml version="1.0" encoding="UTF-8"?> <svg xmlns="http://www.w3.org/2000/svg" xmlns:xlink="http://www.w3.org/1999/xlink" viewBox="0 0 744.91 635.78"> <defs> <style>.cls-1{fill:url(#Безымянный_градиент_3);}.cls-2{fill:#2e3192;}.cls-3{fill:#dbdbdb;}.cls-4{fill:url(#Безымянный_градиент_57);}.cls-5,.cls-6,.cls-7{fill:#fff;}.cls-5{opacity:0.14;}.cls-6{opacity:0.06;}.cls-7{opacity:0.27;}.cls-8{fill:url(#Безымянный_градиент_42);}.cls-9{fill:#ccc;}.cls-10{fill:#e6e6e6;}.cls-11{fill:#3f4851;}.cls-12{fill:#575b60;}.cls-13{fill:#f2f2f2;}.cls-14{fill:url(#Безымянный_градиент_16);}.cls-15{fill:url(#Безымянный_градиент_16-2);}.cls-16{fill:url(#Безымянный_градиент_16-3);}.cls-17{fill:#d8d8d8;}.cls-18,.cls-19{fill:#4c5259;}.cls-19{opacity:0.32;}.cls-20{fill:#fcc142;}</style> <linearGradient id="Безымянный_градиент_3" x1="275.02" y1="251.99" x2="469.88" y2="589.5" gradientUnits="userSpaceOnUse"> <stop offset="0" stop-color="#2e3192"></stop> <stop offset="1" stop-color="#29abe2"></stop> </linearGradient> <linearGradient id="Безымянный_градиент_57" x1="742.15" y1="1544.32" x2="742.15" y2="1395" gradientTransform="matrix(0.87, -0.5, 0, 1.15, -176.36, -995.65)" gradientUnits="userSpaceOnUse"> <stop offset="0" stop-color="#5d6099"></stop> <stop offset="1" stop-color="#7acbed"></stop> </linearGradient> <linearGradient id="Безымянный_градиент_42" x1="549.06" y1="-255.26" x2="549.06" y2="-404.57" gradientTransform="matrix(0.87, 0.5, 0, 1.15, -183.36, 412.73)" gradientUnits="userSpaceOnUse"> <stop offset="0" stop-color="#393b5e"></stop> <stop offset="1" stop-color="#29abe2"></stop> </linearGradient> <linearGradient id="Безымянный_градиент_16" x1="739.55" y1="1395.85" x2="820.63" y2="1395.85" gradientTransform="matrix(0.87, -0.5, 0, 1.15, -162.89, -927.79)" gradientUnits="userSpaceOnUse"> <stop offset="0" stop-color="#10afba"></stop> <stop offset="1" stop-color="#29abe2"></stop> </linearGradient> <linearGradient id="Безымянный_градиент_16-2" x1="714.41" y1="1425.34" x2="795.49" y2="1425.34" xlink:href="#Безымянный_градиент_16"></linearGradient> <linearGradient id="Безымянный_градиент_16-3" x1="771.98" y1="1456.24" x2="837.66" y2="1456.24" xlink:href="#Безымянный_градиент_16"></linearGradient> </defs> <title>Кинотеатр лока</title> <g id="Слой_2" data-name="Слой 2"> <g id="Слой_12" data-name="Слой 12"> <path class="cls-1" d="M12.17,437.68l331,191.07c16.23,9.37,42.54,9.37,58.76,0l330.86-191c16.22-9.37,16.22-24.56,0-33.93l-331-191.07c-16.22-9.37-42.53-9.37-58.76,0l-330.85,191C-4.06,413.12-4.06,428.31,12.17,437.68Z"></path> <path class="cls-2" d="M12.17,420.72l331,191.07c16.23,9.37,42.54,9.37,58.76,0l330.86-191c16.22-9.36,16.22-24.55,0-33.92l-331-191.08c-16.22-9.37-42.53-9.37-58.76,0l-330.85,191C-4.06,396.16-4.06,411.35,12.17,420.72Z"></path> <polygon class="cls-3" points="529.4 252.18 471.47 218.74 499.91 202.32 557.84 235.76 529.4 252.18"></polygon> <polygon class="cls-4" points="532.72 378.19 400 454.81 400 282.4 532.72 205.77 532.72 378.19"></polygon> <polygon class="cls-5" points="416.6 291.98 400 301.56 400 282.39 416.6 272.81 416.6 291.98"></polygon> <polygon class="cls-6" points="433.19 282.4 416.59 291.99 416.59 272.82 433.19 263.23 433.19 282.4"></polygon> <polygon class="cls-7" points="449.8 272.82 433.19 282.4 433.19 263.23 449.8 253.65 449.8 272.82"></polygon> <polygon class="cls-6" points="466.38 263.24 449.78 272.82 449.78 253.65 466.38 244.07 466.38 263.24"></polygon> <polygon class="cls-5" points="482.99 253.66 466.38 263.24 466.38 244.07 482.99 234.49 482.99 253.66"></polygon> <polygon class="cls-5" points="499.57 244.08 482.97 253.66 482.97 234.49 499.57 224.91 499.57 244.08"></polygon> <polygon class="cls-7" points="416.6 311.14 400 320.72 400 301.55 416.6 291.96 416.6 311.14"></polygon> <polygon class="cls-5" points="433.19 301.56 416.59 311.14 416.59 291.97 433.19 282.39 433.19 301.56"></polygon> <polygon class="cls-5" points="416.6 330.29 400 339.88 400 320.7 416.6 311.12 416.6 330.29"></polygon> <polygon class="cls-6" points="433.19 320.71 416.59 330.3 416.59 311.13 433.19 301.54 433.19 320.71"></polygon> <polygon class="cls-5" points="449.8 291.97 433.19 301.56 433.19 282.39 449.8 272.8 449.8 291.97"></polygon> <polygon class="cls-5" points="466.38 282.4 449.78 291.98 449.78 272.81 466.38 263.23 466.38 282.4"></polygon> <polygon class="cls-6" points="449.8 311.13 433.19 320.71 433.19 301.54 449.8 291.96 449.8 311.13"></polygon> <polygon class="cls-5" points="466.38 301.55 449.78 311.13 449.78 291.96 466.38 282.38 466.38 301.55"></polygon> <polygon class="cls-6" points="482.99 272.81 466.38 282.4 466.38 263.23 482.99 253.64 482.99 272.81"></polygon> <polygon class="cls-5" points="499.57 263.23 482.97 272.82 482.97 253.65 499.57 244.06 499.57 263.23"></polygon> <polygon class="cls-7" points="482.99 291.97 466.38 301.55 466.38 282.38 482.99 272.8 482.99 291.97"></polygon> <polygon class="cls-5" points="499.57 282.39 482.97 291.97 482.97 272.8 499.57 263.22 499.57 282.39"></polygon> <polygon class="cls-5" points="416.6 349.45 400 359.03 400 339.86 416.6 330.28 416.6 349.45"></polygon> <polygon class="cls-5" points="433.19 339.87 416.59 349.45 416.59 330.28 433.19 320.7 433.19 339.87"></polygon> <polygon class="cls-6" points="416.6 368.6 400 378.19 400 359.01 416.6 349.43 416.6 368.6"></polygon> <polygon class="cls-5" points="433.19 359.02 416.59 368.61 416.59 349.44 433.19 339.85 433.19 359.02"></polygon> <polygon class="cls-5" points="449.8 330.28 433.19 339.87 433.19 320.7 449.8 311.11 449.8 330.28"></polygon> <polygon class="cls-5" points="466.38 320.71 449.78 330.29 449.78 311.12 466.38 301.54 466.38 320.71"></polygon> <polygon class="cls-7" points="449.8 349.44 433.19 359.02 433.19 339.85 449.8 330.27 449.8 349.44"></polygon> <polygon class="cls-5" points="466.38 339.86 449.78 349.45 449.78 330.27 466.38 320.69 466.38 339.86"></polygon> <polygon class="cls-5" points="482.99 311.12 466.38 320.71 466.38 301.54 482.99 291.95 482.99 311.12"></polygon> <polygon class="cls-6" points="499.57 301.55 482.97 311.13 482.97 291.96 499.57 282.37 499.57 301.55"></polygon> <polygon class="cls-6" points="482.99 330.28 466.38 339.86 466.38 320.69 482.99 311.11 482.99 330.28"></polygon> <polygon class="cls-7" points="499.57 320.7 482.97 330.28 482.97 311.11 499.57 301.53 499.57 320.7"></polygon> <polygon class="cls-5" points="416.6 387.76 400 397.34 400 378.17 416.6 368.59 416.6 387.76"></polygon> <polygon class="cls-7" points="433.19 378.18 416.59 387.76 416.59 368.59 433.19 359.01 433.19 378.18"></polygon> <polygon class="cls-5" points="416.6 406.91 400 416.5 400 397.33 416.6 387.74 416.6 406.91"></polygon> <polygon class="cls-5" points="433.19 397.33 416.59 406.92 416.59 387.75 433.19 378.16 433.19 397.33"></polygon> <polygon class="cls-5" points="449.8 368.59 433.19 378.18 433.19 359.01 449.8 349.42 449.8 368.59"></polygon> <polygon class="cls-5" points="466.38 359.02 449.78 368.6 449.78 349.43 466.38 339.85 466.38 359.02"></polygon> <polygon class="cls-6" points="449.8 387.75 433.19 397.33 433.19 378.16 449.8 368.58 449.8 387.75"></polygon> <polygon class="cls-5" points="466.38 378.17 449.78 387.76 449.78 368.58 466.38 359 466.38 378.17"></polygon> <polygon class="cls-5" points="482.99 349.43 466.38 359.02 466.38 339.85 482.99 330.26 482.99 349.43"></polygon> <polygon class="cls-5" points="499.57 339.86 482.97 349.44 482.97 330.27 499.57 320.68 499.57 339.86"></polygon> <polygon class="cls-5" points="482.99 368.59 466.38 378.17 466.38 359 482.99 349.42 482.99 368.59"></polygon> <polygon class="cls-5" points="499.57 359.01 482.97 368.6 482.97 349.42 499.57 339.84 499.57 359.01"></polygon> <polygon class="cls-7" points="416.6 426.07 400 435.65 400 416.48 416.6 406.9 416.6 426.07"></polygon> <polygon class="cls-5" points="433.19 416.49 416.59 426.07 416.59 406.9 433.19 397.32 433.19 416.49"></polygon> <polygon class="cls-5" points="416.6 445.22 400 454.81 400 435.64 416.6 426.05 416.6 445.22"></polygon> <polygon class="cls-6" points="433.19 435.64 416.59 445.23 416.59 426.06 433.19 416.47 433.19 435.64"></polygon> <polygon class="cls-5" points="449.8 406.9 433.19 416.49 433.19 397.32 449.8 387.73 449.8 406.9"></polygon> <polygon class="cls-7" points="466.38 397.33 449.78 406.91 449.78 387.74 466.38 378.16 466.38 397.33"></polygon> <polygon class="cls-5" points="449.8 426.06 433.19 435.64 433.19 416.47 449.8 406.89 449.8 426.06"></polygon> <polygon class="cls-7" points="516.15 234.5 499.55 244.09 499.55 224.92 516.15 215.34 516.15 234.5"></polygon> <polygon class="cls-5" points="516.15 253.66 499.55 263.25 499.55 244.08 516.15 234.49 516.15 253.66"></polygon> <polygon class="cls-6" points="516.15 272.82 499.55 282.4 499.55 263.23 516.15 253.65 516.15 272.82"></polygon> <polygon class="cls-5" points="516.15 291.97 499.55 301.56 499.55 282.39 516.15 272.8 516.15 291.97"></polygon> <polygon class="cls-7" points="516.15 311.13 499.55 320.71 499.55 301.54 516.15 291.95 516.15 311.13"></polygon> <polygon class="cls-5" points="516.15 330.28 499.55 339.87 499.55 320.7 516.15 311.11 516.15 330.28"></polygon> <polygon class="cls-6" points="516.15 349.44 499.55 359.02 499.55 339.85 516.15 330.27 516.15 349.44"></polygon> <polygon class="cls-5" points="516.15 368.59 499.55 378.18 499.55 359.01 516.15 349.42 516.15 368.59"></polygon> <polygon class="cls-5" points="516.15 387.75 499.55 397.33 499.55 378.16 516.15 368.58 516.15 387.75"></polygon> <polygon class="cls-5" points="466.38 416.48 449.78 426.07 449.78 406.9 466.38 397.31 466.38 416.48"></polygon> <polygon class="cls-6" points="532.74 224.93 516.14 234.51 516.14 215.34 532.74 205.76 532.74 224.93"></polygon> <polygon class="cls-5" points="532.74 244.08 516.14 253.67 516.14 234.5 532.74 224.91 532.74 244.08"></polygon> <polygon class="cls-5" points="532.74 263.24 516.14 272.82 516.14 253.65 532.74 244.07 532.74 263.24"></polygon> <polygon class="cls-5" points="532.74 282.39 516.14 291.98 516.14 272.81 532.74 263.22 532.74 282.39"></polygon> <polygon class="cls-5" points="532.74 301.55 516.14 311.13 516.14 291.96 532.74 282.38 532.74 301.55"></polygon> <polygon class="cls-5" points="532.74 320.7 516.14 330.29 516.14 311.12 532.74 301.53 532.74 320.7"></polygon> <polygon class="cls-5" points="532.74 339.86 516.14 349.44 516.14 330.27 532.74 320.69 532.74 339.86"></polygon> <polygon class="cls-7" points="532.74 359.01 516.14 368.6 516.14 349.43 532.74 339.84 532.74 359.01"></polygon> <polygon class="cls-5" points="532.74 378.17 516.14 387.75 516.14 368.58 532.74 359 532.74 378.17"></polygon> <polygon class="cls-6" points="482.99 387.74 466.38 397.33 466.38 378.16 482.99 368.57 482.99 387.74"></polygon> <polygon class="cls-5" points="499.57 378.17 482.97 387.75 482.97 368.58 499.57 358.99 499.57 378.17"></polygon> <polygon class="cls-7" points="482.99 406.9 466.38 416.48 466.38 397.31 482.99 387.73 482.99 406.9"></polygon> <polygon class="cls-5" points="499.57 397.32 482.97 406.9 482.97 387.73 499.57 378.15 499.57 397.32"></polygon> <polygon class="cls-8" points="399.99 454.78 184.3 330.25 184.3 157.84 399.99 282.37 399.99 454.78"></polygon> <polygon class="cls-5" points="200.9 186.59 184.3 177.01 184.3 157.84 200.9 167.43 200.9 186.59"></polygon> <polygon class="cls-6" points="217.49 196.17 200.89 186.59 200.89 167.42 217.49 177 217.49 196.17"></polygon> <polygon class="cls-7" points="234.1 205.76 217.49 196.18 217.49 177 234.1 186.59 234.1 205.76"></polygon> <polygon class="cls-6" points="250.68 215.34 234.08 205.75 234.08 186.58 250.68 196.17 250.68 215.34"></polygon> <polygon class="cls-5" points="267.28 224.92 250.68 215.34 250.68 196.16 267.28 205.75 267.28 224.92"></polygon> <polygon class="cls-5" points="283.87 234.5 267.27 224.91 267.27 205.74 283.87 215.33 283.87 234.5"></polygon> <polygon class="cls-7" points="200.9 205.75 184.3 196.17 184.3 177 200.9 186.58 200.9 205.75"></polygon> <polygon class="cls-5" points="217.49 215.33 200.89 205.74 200.89 186.57 217.49 196.16 217.49 215.33"></polygon> <polygon class="cls-5" points="200.9 224.91 184.3 215.32 184.3 196.15 200.9 205.74 200.9 224.91"></polygon> <polygon class="cls-6" points="217.49 234.48 200.89 224.9 200.89 205.73 217.49 215.31 217.49 234.48"></polygon> <polygon class="cls-5" points="234.1 224.92 217.49 215.33 217.49 196.16 234.1 205.75 234.1 224.92"></polygon> <polygon class="cls-5" points="250.68 234.49 234.08 224.91 234.08 205.74 250.68 215.32 250.68 234.49"></polygon> <polygon class="cls-6" points="234.1 244.07 217.49 234.49 217.49 215.31 234.1 224.9 234.1 244.07"></polygon> <polygon class="cls-5" points="250.68 253.65 234.08 244.06 234.08 224.89 250.68 234.48 250.68 253.65"></polygon> <polygon class="cls-6" points="267.28 244.08 250.68 234.49 250.68 215.32 267.28 224.91 267.28 244.08"></polygon> <polygon class="cls-5" points="283.87 253.66 267.27 244.07 267.27 224.9 283.87 234.48 283.87 253.66"></polygon> <polygon class="cls-7" points="267.28 263.23 250.68 253.65 250.68 234.48 267.28 244.06 267.28 263.23"></polygon> <polygon class="cls-5" points="283.87 272.81 267.27 263.22 267.27 244.05 283.87 253.64 283.87 272.81"></polygon> <polygon class="cls-5" points="200.9 244.06 184.3 234.48 184.3 215.31 200.9 224.89 200.9 244.06"></polygon> <polygon class="cls-5" points="217.49 253.64 200.89 244.05 200.89 224.88 217.49 234.47 217.49 253.64"></polygon> <polygon class="cls-6" points="200.9 263.22 184.3 253.63 184.3 234.46 200.9 244.04 200.9 263.22"></polygon> <polygon class="cls-5" points="217.49 272.79 200.89 263.21 200.89 244.04 217.49 253.62 217.49 272.79"></polygon> <polygon class="cls-5" points="234.1 263.23 217.49 253.64 217.49 234.47 234.1 244.06 234.1 263.23"></polygon> <polygon class="cls-5" points="250.68 272.8 234.08 263.22 234.08 244.05 250.68 253.63 250.68 272.8"></polygon> <polygon class="cls-7" points="234.1 282.38 217.49 272.8 217.49 253.63 234.1 263.21 234.1 282.38"></polygon> <polygon class="cls-5" points="250.68 291.96 234.08 282.37 234.08 263.2 250.68 272.79 250.68 291.96"></polygon> <polygon class="cls-5" points="267.28 282.39 250.68 272.8 250.68 253.63 267.28 263.22 267.28 282.39"></polygon> <polygon class="cls-6" points="283.87 291.96 267.27 282.38 267.27 263.21 283.87 272.8 283.87 291.96"></polygon> <polygon class="cls-6" points="267.28 301.54 250.68 291.96 250.68 272.79 267.28 282.37 267.28 301.54"></polygon> <polygon class="cls-7" points="283.87 311.12 267.27 301.53 267.27 282.36 283.87 291.95 283.87 311.12"></polygon> <polygon class="cls-5" points="200.9 282.37 184.3 272.79 184.3 253.62 200.9 263.2 200.9 282.37"></polygon> <polygon class="cls-7" points="217.49 291.95 200.89 282.36 200.89 263.19 217.49 272.78 217.49 291.95"></polygon> <polygon class="cls-5" points="200.9 301.53 184.3 291.94 184.3 272.77 200.9 282.36 200.9 301.53"></polygon> <polygon class="cls-5" points="217.49 311.1 200.89 301.52 200.89 282.35 217.49 291.93 217.49 311.1"></polygon> <polygon class="cls-5" points="234.1 301.54 217.49 291.95 217.49 272.78 234.1 282.37 234.1 301.54"></polygon> <polygon class="cls-5" points="250.68 311.11 234.08 301.53 234.08 282.36 250.68 291.94 250.68 311.11"></polygon> <polygon class="cls-6" points="234.1 320.69 217.49 311.11 217.49 291.94 234.1 301.52 234.1 320.69"></polygon> <polygon class="cls-5" points="250.68 330.27 234.08 320.68 234.08 301.51 250.68 311.1 250.68 330.27"></polygon> <polygon class="cls-5" points="267.28 320.7 250.68 311.11 250.68 291.94 267.28 301.53 267.28 320.7"></polygon> <polygon class="cls-5" points="283.87 330.28 267.27 320.69 267.27 301.52 283.87 311.11 283.87 330.28"></polygon> <polygon class="cls-5" points="267.28 339.85 250.68 330.27 250.68 311.1 267.28 320.68 267.28 339.85"></polygon> <polygon class="cls-5" points="283.87 349.43 267.27 339.84 267.27 320.67 283.87 330.26 283.87 349.43"></polygon> <polygon class="cls-7" points="200.9 320.68 184.3 311.1 184.3 291.93 200.9 301.51 200.9 320.68"></polygon> <polygon class="cls-5" points="217.49 330.26 200.89 320.67 200.89 301.5 217.49 311.09 217.49 330.26"></polygon> <polygon class="cls-5" points="200.9 339.84 184.3 330.25 184.3 311.08 200.9 320.67 200.9 339.84"></polygon> <polygon class="cls-6" points="217.49 349.41 200.89 339.83 200.89 320.66 217.49 330.24 217.49 349.41"></polygon> <polygon class="cls-5" points="234.1 339.85 217.49 330.26 217.49 311.09 234.1 320.68 234.1 339.85"></polygon> <polygon class="cls-7" points="250.68 349.42 234.08 339.84 234.08 320.67 250.68 330.25 250.68 349.42"></polygon> <polygon class="cls-5" points="234.1 359 217.49 349.42 217.49 330.25 234.1 339.83 234.1 359"></polygon> <polygon class="cls-7" points="300.45 244.07 283.85 234.49 283.85 215.31 300.45 224.9 300.45 244.07"></polygon> <polygon class="cls-5" points="300.45 263.23 283.85 253.64 283.85 234.47 300.45 244.06 300.45 263.23"></polygon> <polygon class="cls-6" points="300.45 282.38 283.85 272.8 283.85 253.63 300.45 263.21 300.45 282.38"></polygon> <polygon class="cls-5" points="300.45 301.54 283.85 291.95 283.85 272.78 300.45 282.37 300.45 301.54"></polygon> <polygon class="cls-7" points="300.45 320.69 283.85 311.11 283.85 291.94 300.45 301.52 300.45 320.69"></polygon> <polygon class="cls-5" points="300.45 339.85 283.85 330.26 283.85 311.09 300.45 320.68 300.45 339.85"></polygon> <polygon class="cls-6" points="300.45 359 283.85 349.42 283.85 330.25 300.45 339.83 300.45 359"></polygon> <polygon class="cls-5" points="300.45 378.16 283.85 368.57 283.85 349.4 300.45 358.99 300.45 378.16"></polygon> <polygon class="cls-5" points="300.45 397.31 283.85 387.73 283.85 368.56 300.45 378.14 300.45 397.31"></polygon> <polygon class="cls-5" points="250.68 368.58 234.08 358.99 234.08 339.82 250.68 349.41 250.68 368.58"></polygon> <polygon class="cls-6" points="317.04 253.65 300.44 244.06 300.44 224.89 317.04 234.48 317.04 253.65"></polygon> <polygon class="cls-5" points="317.04 272.81 300.44 263.22 300.44 244.05 317.04 253.63 317.04 272.81"></polygon> <polygon class="cls-5" points="317.04 291.96 300.44 282.37 300.44 263.2 317.04 272.79 317.04 291.96"></polygon> <polygon class="cls-5" points="317.04 311.12 300.44 301.53 300.44 282.36 317.04 291.94 317.04 311.12"></polygon> <polygon class="cls-5" points="317.04 330.27 300.44 320.68 300.44 301.51 317.04 311.1 317.04 330.27"></polygon> <polygon class="cls-5" points="317.04 349.43 300.44 339.84 300.44 320.67 317.04 330.25 317.04 349.43"></polygon> <polygon class="cls-5" points="317.04 368.58 300.44 358.99 300.44 339.82 317.04 349.41 317.04 368.58"></polygon> <polygon class="cls-7" points="317.04 387.74 300.44 378.15 300.44 358.98 317.04 368.56 317.04 387.74"></polygon> <polygon class="cls-5" points="317.04 406.89 300.44 397.3 300.44 378.13 317.04 387.72 317.04 406.89"></polygon> <polygon class="cls-6" points="267.28 359.01 250.68 349.42 250.68 330.25 267.28 339.84 267.28 359.01"></polygon> <polygon class="cls-5" points="283.87 368.59 267.27 359 267.27 339.83 283.87 349.42 283.87 368.59"></polygon> <polygon class="cls-7" points="267.28 378.16 250.68 368.58 250.68 349.41 267.28 358.99 267.28 378.16"></polygon> <polygon class="cls-5" points="283.87 387.74 267.27 378.15 267.27 358.98 283.87 368.57 283.87 387.74"></polygon> <polygon class="cls-5" points="333.62 263.22 317.01 253.63 317.01 234.46 333.62 244.05 333.62 263.22"></polygon> <polygon class="cls-6" points="350.21 272.8 333.6 263.21 333.6 244.04 350.21 253.63 350.21 272.8"></polygon> <polygon class="cls-7" points="366.81 282.38 350.21 272.8 350.21 253.63 366.81 263.21 366.81 282.38"></polygon> <polygon class="cls-6" points="383.4 291.96 366.8 282.38 366.8 263.2 383.4 272.79 383.4 291.96"></polygon> <polygon class="cls-5" points="400 301.55 383.4 291.96 383.4 272.79 400 282.37 400 301.55"></polygon> <polygon class="cls-7" points="333.62 282.38 317.01 272.79 317.01 253.62 333.62 263.2 333.62 282.38"></polygon> <polygon class="cls-5" points="350.21 291.95 333.6 282.37 333.6 263.2 350.21 272.78 350.21 291.95"></polygon> <polygon class="cls-5" points="333.62 301.53 317.01 291.94 317.01 272.77 333.62 282.36 333.62 301.53"></polygon> <polygon class="cls-6" points="350.21 311.11 333.6 301.52 333.6 282.35 350.21 291.94 350.21 311.11"></polygon> <polygon class="cls-5" points="366.81 301.54 350.21 291.95 350.21 272.78 366.81 282.37 366.81 301.54"></polygon> <polygon class="cls-5" points="383.4 311.12 366.8 301.53 366.8 282.36 383.4 291.95 383.4 311.12"></polygon> <polygon class="cls-6" points="366.81 320.69 350.21 311.11 350.21 291.94 366.81 301.52 366.81 320.69"></polygon> <polygon class="cls-5" points="383.4 330.27 366.8 320.69 366.8 301.51 383.4 311.1 383.4 330.27"></polygon> <polygon class="cls-6" points="400 320.7 383.4 311.12 383.4 291.94 400 301.53 400 320.7"></polygon> <polygon class="cls-7" points="400 339.86 383.4 330.27 383.4 311.1 400 320.69 400 339.86"></polygon> <polygon class="cls-5" points="333.62 320.69 317.01 311.1 317.01 291.93 333.62 301.51 333.62 320.69"></polygon> <polygon class="cls-5" points="350.21 330.26 333.6 320.68 333.6 301.51 350.21 311.09 350.21 330.26"></polygon> <polygon class="cls-6" points="333.62 339.84 317.01 330.25 317.01 311.08 333.62 320.67 333.62 339.84"></polygon> <polygon class="cls-5" points="350.21 349.42 333.6 339.83 333.6 320.66 350.21 330.25 350.21 349.42"></polygon> <polygon class="cls-5" points="366.81 339.85 350.21 330.26 350.21 311.09 366.81 320.68 366.81 339.85"></polygon> <polygon class="cls-5" points="383.4 349.43 366.8 339.84 366.8 320.67 383.4 330.26 383.4 349.43"></polygon> <polygon class="cls-7" points="366.81 359 350.21 349.42 350.21 330.25 366.81 339.83 366.81 359"></polygon> <polygon class="cls-5" points="383.4 368.58 366.8 359 366.8 339.82 383.4 349.41 383.4 368.58"></polygon> <polygon class="cls-5" points="400 359.01 383.4 349.43 383.4 330.25 400 339.84 400 359.01"></polygon> <polygon class="cls-6" points="400 378.17 383.4 368.58 383.4 349.41 400 359 400 378.17"></polygon> <polygon class="cls-5" points="333.62 359 317.01 349.41 317.01 330.24 333.62 339.82 333.62 359"></polygon> <polygon class="cls-7" points="350.21 368.57 333.6 358.99 333.6 339.82 350.21 349.4 350.21 368.57"></polygon> <polygon class="cls-5" points="333.62 378.15 317.01 368.56 317.01 349.39 333.62 358.98 333.62 378.15"></polygon> <polygon class="cls-5" points="350.21 387.73 333.6 378.14 333.6 358.97 350.21 368.56 350.21 387.73"></polygon> <polygon class="cls-5" points="366.81 378.16 350.21 368.57 350.21 349.4 366.81 358.99 366.81 378.16"></polygon> <polygon class="cls-5" points="383.4 387.74 366.8 378.15 366.8 358.98 383.4 368.57 383.4 387.74"></polygon> <polygon class="cls-6" points="366.81 397.31 350.21 387.73 350.21 368.56 366.81 378.14 366.81 397.31"></polygon> <polygon class="cls-5" points="383.4 406.89 366.8 397.31 366.8 378.14 383.4 387.72 383.4 406.89"></polygon> <polygon class="cls-5" points="400 397.32 383.4 387.74 383.4 368.57 400 378.15 400 397.32"></polygon> <polygon class="cls-5" points="400 416.48 383.4 406.89 383.4 387.72 400 397.31 400 416.48"></polygon> <polygon class="cls-7" points="333.62 397.31 317.01 387.72 317.01 368.55 333.62 378.13 333.62 397.31"></polygon> <polygon class="cls-5" points="350.21 406.88 333.6 397.3 333.6 378.13 350.21 387.71 350.21 406.88"></polygon> <polygon class="cls-5" points="333.62 416.46 317.01 406.88 317.01 387.7 333.62 397.29 333.62 416.46"></polygon> <polygon class="cls-6" points="350.21 426.04 333.6 416.45 333.6 397.28 350.21 406.87 350.21 426.04"></polygon> <polygon class="cls-5" points="366.81 416.47 350.21 406.88 350.21 387.71 366.81 397.3 366.81 416.47"></polygon> <polygon class="cls-7" points="383.4 426.05 366.8 416.46 366.8 397.29 383.4 406.88 383.4 426.05"></polygon> <polygon class="cls-5" points="366.81 435.63 350.21 426.04 350.21 406.87 366.81 416.45 366.81 435.63"></polygon> <polygon class="cls-5" points="383.4 445.2 366.8 435.62 366.8 416.45 383.4 426.03 383.4 445.2"></polygon> <polygon class="cls-6" points="400 435.63 383.4 426.05 383.4 406.88 400 416.46 400 435.63"></polygon> <polygon class="cls-7" points="400 454.79 383.4 445.2 383.4 426.03 400 435.62 400 454.79"></polygon> <polygon class="cls-9" points="276.22 357.61 289.91 349.78 289.91 499.21 276.22 491.31 276.22 357.61"></polygon> <polygon class="cls-10" points="303.61 491.31 289.91 499.21 289.91 349.78 303.61 341.88 303.61 491.31"></polygon> <polygon class="cls-11" points="394.84 292.02 179.15 167.49 179.15 102.35 394.84 226.88 394.84 292.02"></polygon> <polygon class="cls-12" points="201.38 63.85 311.98 0 527.66 124.53 417.06 188.38 201.38 63.85"></polygon> <polygon class="cls-13" points="589.44 352.21 438.58 439.31 438.58 304.62 557.84 235.77 589.44 352.21"></polygon> <polygon class="cls-14" points="547.8 280.98 477.58 321.52 477.58 306.93 547.8 266.39 547.8 280.98"></polygon> <polygon class="cls-15" points="526.03 327.6 455.81 368.14 455.81 353.55 526.03 313.01 526.03 327.6"></polygon> <polygon class="cls-16" points="562.54 342.2 505.67 375.04 505.67 360.44 562.54 327.6 562.54 342.2"></polygon> <polygon class="cls-13" points="527.66 124.53 417.08 188.37 394.85 226.88 394.85 292.02 548.96 203.04 527.66 124.53"></polygon> <polygon class="cls-9" points="438.58 439.31 433.31 436.27 433.31 301.58 438.58 304.62 438.58 439.31"></polygon> <polygon class="cls-3" points="557.84 235.76 438.58 304.62 433.31 301.58 552.58 232.72 557.84 235.76"></polygon> <rect class="cls-17" x="381.1" y="203.06" width="44.46" height="6.08" transform="matrix(0.5, -0.87, 0.87, 0.5, 23.14, 452.29)"></rect> <rect class="cls-18" x="275.88" y="20.83" width="44.46" height="249.06" transform="translate(23.15 330.82) rotate(-59.99)"></rect> <polygon class="cls-13" points="416.96 137.38 227.04 466.33 227.04 496.43 416.96 167.48 416.96 137.38"></polygon> <polygon class="cls-13" points="201.31 15.74 11.39 344.69 11.39 374.79 201.31 45.84 201.31 15.74"></polygon> <polygon class="cls-18" points="201.31 15.74 416.96 137.38 227.04 466.33 11.39 344.69 201.31 15.74"></polygon> <polygon class="cls-11" points="227.04 496.43 11.39 374.79 11.39 344.69 227.04 466.33 227.04 496.43"></polygon> <polygon class="cls-19" points="433.19 435.64 427.6 432.45 427.6 297.85 532.73 237.41 532.74 244.08 433.31 301.58 433.19 435.64"></polygon> <path class="cls-20" d="M77.63,323.8l-10.77-6.07c3.4-4.34,5-6.41,8.17-10.46-3.59-2-5.42-3-9.16-5.08C69.21,298,70.82,296,74,292l9,4.86c2.4-3.1,3.59-4.63,6-7.69l-9-4.76c3.16-4,4.74-6,8-10l9,4.74c3.08-3.89,4.65-5.85,7.93-9.85l10.57,5.61c-3.25,4-4.82,5.91-7.9,9.8l6.43,3.39c3.08-3.9,4.64-5.85,7.87-9.79l10.11,5.39c-3.2,3.89-4.76,5.84-7.84,9.75l8,4.22c-3.28,4.08-4.9,6.14-8.15,10.3l-7.89-4.24c-2.44,3.15-3.66,4.73-6.11,7.93l8,4.36c-3.26,4.25-4.89,6.41-8.23,10.82l-7.77-4.39-8,10.73c-3.92-2.24-5.91-3.38-10-5.7,3.32-4.39,4.91-6.51,8-10.65l-6.41-3.59C82.55,317.32,81,319.42,77.63,323.8Zm22.07-29c-2.43,3.09-3.63,4.64-6.06,7.77l6.42,3.51c2.44-3.17,3.64-4.73,6.07-7.84Z"></path> <path class="cls-20" d="M121.11,347c-1.37-2.79-1.81-6.55-1.39-10.92a32.08,32.08,0,0,1,4.52-13.28,28.88,28.88,0,0,1,9.36-10.11c7.21-4.47,13.91-4.31,19.38-1.41a17.25,17.25,0,0,1,7.13,6.64c-3.26,5.12-4.91,7.75-8.24,13.1a14.89,14.89,0,0,0-5.34-5.29c-3.58-1.95-8-1-10.79,3.56s-1.55,8.92,2.15,11a12.88,12.88,0,0,0,7.68,1.55c-3.37,5.44-5.08,8.2-8.55,13.78a17.78,17.78,0,0,1-10-2.24A14.74,14.74,0,0,1,121.11,347Z"></path> <path class="cls-20" d="M190.41,314.87l10.92,5.87c-3.35,4.81-5.11,7.41-8.72,12.8a13,13,0,0,1,6.26,11.71c-.08,5.06-2.08,10.45-5.61,16-5.73,9.06-16.17,17.16-27.51,13.25-4.21,6.46-6.32,9.68-10.45,15.88l-10.43-5.83c4.19-6.34,6.29-9.59,10.47-16.06-4.13-2.94-6.11-7.12-6-12.48s2-10.83,5.27-16.23c5.58-9.25,16.09-16,27.12-12.05C185.28,322.37,187,319.76,190.41,314.87Zm-26.93,41c4.22-6.55,6.31-9.81,10.4-16.12-3.32-.55-6.38,1.33-9.23,5.77S161.5,353.31,163.48,355.86Zm21.16-10.28c-4.18,6.37-6.32,9.67-10.62,16.26,3.33.44,6.41-1.52,9.31-5.94S186.71,348,184.64,345.58Z"></path> <path class="cls-20" d="M233.44,338.06l10.34,5.59c-2.92,4.58-4.56,7.2-8,12.74a13.94,13.94,0,0,1,6.55,12c.14,5.29-1.7,11.09-4.89,17-5.41,10.05-16.47,17.53-28.15,13.78-4,6.53-6,9.71-9.55,15.46-4.75-2.52-7.06-3.76-11.6-6.2,3.77-5.84,5.8-9,9.95-15.5a13.66,13.66,0,0,1-6.23-12.56c.2-5.41,2.37-11,5.9-16.6,5.71-9.07,16.1-16.78,27.35-13C228.65,345.28,230.35,342.68,233.44,338.06ZM206.31,380c4.34-6.8,6.54-10.25,10.77-16.84-3.33-.48-6.45,1.54-9.44,6.17S204.27,377.36,206.31,380Zm21.61-11c-4.16,6.7-6.33,10.21-10.59,17.11,3.49.44,6.63-1.62,9.48-6.31S230.05,371.41,227.92,369Z"></path> </g> </g> </svg> 