<?xml version="1.0" encoding="UTF-8"?> <svg xmlns="http://www.w3.org/2000/svg" viewBox="0 0 224.88 224.58"> <defs> <style>.cls-1{fill:#4d4d4d;}.cls-2{fill:#3aa559;}.cls-3{fill:#198e4d;}.cls-4{fill:#128450;}.cls-5{fill:#0c7552;}.cls-6{fill:#46bc64;}.cls-7{fill:#209951;}.cls-8{fill:#53b75e;}.cls-10,.cls-9{fill:#0d6042;}.cls-9{opacity:0.38;}.cls-11{fill:#736357;}.cls-12{fill:#a67c52;}</style> </defs> <title>Кинотеатр Клумба</title> <g id="Слой_2" data-name="Слой 2"> <g id="Слой_12" data-name="Слой 12"> <path class="cls-1" d="M112.16,162.32l88.52-51.11c.8-.46.7-1.26-.22-1.8L175.82,95.18a3.45,3.45,0,0,0-3.12-.12L84.17,146.17c-.8.46-.7,1.26.22,1.8L109,162.19A3.45,3.45,0,0,0,112.16,162.32Z"></path> <path class="cls-2" d="M112.16,160.17l88.52-51.11c.8-.46.7-1.27-.22-1.8L175.82,93a3.48,3.48,0,0,0-3.12-.13L84.17,144c-.8.46-.7,1.27.22,1.8L109,160A3.48,3.48,0,0,0,112.16,160.17Z"></path> <path class="cls-1" d="M28.52,210.62l88.53-51.11c.8-.46.7-1.27-.22-1.8L92.18,143.48a3.46,3.46,0,0,0-3.11-.13L.54,194.46c-.8.47-.7,1.27.22,1.8l24.65,14.23A3.43,3.43,0,0,0,28.52,210.62Z"></path> <path class="cls-2" d="M28.52,208.47l88.53-51.11c.8-.46.7-1.27-.22-1.8L92.18,141.33a3.46,3.46,0,0,0-3.11-.13L.54,192.31c-.8.46-.7,1.27.22,1.8l24.65,14.23A3.46,3.46,0,0,0,28.52,208.47Z"></path> <path class="cls-1" d="M135.82,176l88.52-51.11c.8-.46.7-1.27-.22-1.8l-24.64-14.23a3.48,3.48,0,0,0-3.12-.13l-88.53,51.11c-.8.46-.7,1.27.23,1.8l24.64,14.23A3.48,3.48,0,0,0,135.82,176Z"></path> <path class="cls-2" d="M135.82,173.82l88.52-51.11c.8-.47.7-1.27-.22-1.8l-24.64-14.23a3.45,3.45,0,0,0-3.12-.13l-88.53,51.11c-.8.46-.7,1.27.23,1.8l24.64,14.23A3.48,3.48,0,0,0,135.82,173.82Z"></path> <path class="cls-1" d="M52.19,224.27l88.52-51.11c.8-.46.7-1.27-.22-1.8l-24.64-14.23a3.48,3.48,0,0,0-3.12-.13L24.2,208.11c-.8.46-.7,1.27.22,1.8l24.65,14.23A3.48,3.48,0,0,0,52.19,224.27Z"></path> <path class="cls-2" d="M52.19,222.11,140.71,171c.8-.46.7-1.26-.22-1.8L115.85,155a3.45,3.45,0,0,0-3.12-.13L24.2,206c-.8.46-.7,1.26.22,1.8L49.07,222A3.45,3.45,0,0,0,52.19,222.11Z"></path> <g id="куст"> <polygon class="cls-3" points="98.25 155.12 90.29 173.95 109.2 171.79 98.25 155.12"></polygon> <polygon class="cls-4" points="64.76 167.25 71.25 182.95 89.94 182.39 90.29 173.95 64.76 167.25"></polygon> <polyline class="cls-5" points="81.92 145.07 64.76 167.25 90.29 173.95 98.25 155.12 81.92 145.07"></polyline> <polyline class="cls-2" points="112.06 148 121.75 160.91 109.2 171.79 98.25 155.12 112.06 148"></polyline> <polyline class="cls-2" points="109.2 171.79 102.22 187.69 89.94 182.39 90.29 173.95 109.2 171.79"></polyline> <polygon class="cls-6" points="121.75 160.91 116.87 180.44 109.2 171.79 121.75 160.91"></polygon> <polygon class="cls-7" points="116.87 180.44 102.22 187.69 109.2 171.79 116.87 180.44"></polygon> <polyline class="cls-5" points="71.25 182.95 102.22 187.69 89.94 182.39 71.25 182.95"></polyline> <polygon class="cls-6" points="81.92 145.07 98.25 155.12 112.06 148 81.92 145.07"></polygon> </g> <g id="елка"> <polygon class="cls-8" points="136.95 55.07 175.07 132.34 132.5 155.16 136.95 55.07"></polygon> <polygon class="cls-5" points="136.95 55.07 132.5 155.16 112 124.88 136.95 55.07"></polygon> <polygon class="cls-9" points="133.27 138.41 164.13 110.13 157.49 96.76 134.46 110.86 133.27 138.41"></polygon> <polygon class="cls-5" points="144.06 27.74 114.24 98.33 148.12 119.19 144.06 27.74"></polygon> <polygon class="cls-2" points="144.06 27.74 148.12 119.19 161.84 86.5 144.06 27.74"></polygon> <polygon class="cls-9" points="146.06 72.51 157.85 73.53 153.59 59.39 146.06 72.51"></polygon> <polygon class="cls-10" points="114.24 98.33 146.06 72.51 129.14 63.05 114.24 98.33"></polygon> <polygon class="cls-5" points="142.92 0 118.75 57.23 148.96 74.14 142.92 0"></polygon> <polygon class="cls-2" points="142.92 0 148.96 74.14 157.33 47.64 142.92 0"></polygon> <polygon class="cls-10" points="112 124.88 134.46 110.86 120.19 102 112 124.88"></polygon> </g> <polygon class="cls-11" points="37.08 131.57 51.34 161.5 42.78 179.56 37.56 199.04 49.44 199.04 47.77 180.27 54.19 161.74 38.27 131.33 37.08 131.57"></polygon> <polygon class="cls-12" points="49.44 199.04 52.68 192.55 50.47 179.24 55.53 160.87 38.74 131.09 38.27 131.33 54.19 161.74 47.46 180.35 49.44 199.04"></polygon> <polyline class="cls-4" points="32.42 101.11 10.18 129.86 43.27 138.54 53.58 114.13 32.42 101.11"></polyline> <polyline class="cls-6" points="71.48 104.91 84.05 121.63 67.77 135.74 53.58 114.13 71.48 104.91"></polyline> <polyline class="cls-2" points="67.77 135.74 58.73 156.35 42.82 149.48 43.27 138.54 67.77 135.74"></polyline> <polygon class="cls-2" points="84.05 121.63 77.72 146.95 67.77 135.74 84.05 121.63"></polygon> <polygon class="cls-3" points="77.72 146.95 58.73 156.35 67.77 135.74 77.72 146.95"></polygon> <polyline class="cls-5" points="18.59 150.2 58.73 156.35 42.82 149.48 18.59 150.2"></polyline> <polygon class="cls-3" points="50.52 93.66 42.72 112.14 61.26 110.02 50.52 93.66"></polygon> <polygon class="cls-4" points="17.67 105.57 24.03 120.97 42.37 120.42 42.72 112.14 17.67 105.57"></polygon> <polygon class="cls-3" points="53.58 114.13 43.27 138.54 67.77 135.74 53.58 114.13"></polygon> <polygon class="cls-3" points="10.18 129.86 18.59 150.2 42.82 149.48 43.27 138.54 10.18 129.86"></polygon> <polyline class="cls-5" points="34.5 83.81 17.67 105.57 42.72 112.14 50.52 93.66 34.5 83.81"></polyline> <polygon class="cls-2" points="71.93 105.71 80.14 116.38 59.48 123.09 71.93 105.71"></polygon> <polyline class="cls-2" points="64.06 86.68 73.58 99.34 61.26 110.02 50.52 93.66 64.06 86.68"></polyline> <polyline class="cls-2" points="61.26 110.02 54.42 125.62 42.37 120.42 42.72 112.14 61.26 110.02"></polyline> <polygon class="cls-6" points="73.58 99.34 68.79 118.5 61.26 110.02 73.58 99.34"></polygon> <polygon class="cls-7" points="68.79 118.5 54.42 125.62 61.26 110.02 68.79 118.5"></polygon> <polyline class="cls-5" points="24.03 120.97 54.42 125.62 42.37 120.42 24.03 120.97"></polyline> <polygon class="cls-6" points="34.5 83.81 50.52 93.66 64.06 86.68 34.5 83.81"></polygon> </g> </g> </svg> 