<?xml version="1.0" encoding="UTF-8"?> <svg xmlns="http://www.w3.org/2000/svg" viewBox="0 0 255 129.75"> <defs> <style>.cls-1{fill:#fff;}.cls-2{fill:#fcc142;}.cls-3{fill:#2e3192;}</style> </defs> <title>аэропорт</title> <g id="Слой_2" data-name="Слой 2"> <g id="Слой_8_копия3_" data-name="Слой 8 (копия3)"> <polygon class="cls-1" points="255 96 15.5 96 7.67 100 4 96 4 0 255 0 255 96"></polygon> <polygon class="cls-2" points="251 100 11.5 100 0 129.75 0 100 0 4 251 4 251 100"></polygon> <path class="cls-3" d="M22.91,59.47H15.37l9.79-23.94h7L42,59.47H34.1L32.4,55H24.65ZM28.52,43.9l-1.76,5.64h3.5Z"></path> <path class="cls-3" d="M45,58.65v-6.9a9.93,9.93,0,0,0,5.85,1.7c3,0,5.31-1.33,6.26-3.5H49.67V44.3h6.94a6.15,6.15,0,0,0-5.44-2.61,12.11,12.11,0,0,0-5.82,1.56v-6.8a13.15,13.15,0,0,1,6-1.26,14,14,0,0,1,9.73,3.47,11.46,11.46,0,0,1,3.84,8.91,11.47,11.47,0,0,1-3.88,8.94,14.21,14.21,0,0,1-9.76,3.4A14,14,0,0,1,45,58.65Z"></path> <path class="cls-3" d="M69.6,35.67H80.54a9.42,9.42,0,0,1,6.53,2.17,7.52,7.52,0,0,1,0,11.16,9.42,9.42,0,0,1-6.53,2.17H76.91v8.3H69.6Zm7.31,10.2h2.65a2.15,2.15,0,1,0,0-4.25H76.91Z"></path> <path class="cls-3" d="M96.35,38.83a13.27,13.27,0,0,1,18.26,0,12.45,12.45,0,0,1,0,17.51,13.4,13.4,0,0,1-18.26,0,12.4,12.4,0,0,1,0-17.47Zm9.15,14.45a4.92,4.92,0,0,0,3.77-1.6,5.87,5.87,0,0,0,1.5-4.11,5.72,5.72,0,0,0-1.5-4.08,5.19,5.19,0,0,0-7.55,0,5.75,5.75,0,0,0-1.49,4.08,5.91,5.91,0,0,0,1.49,4.11A5,5,0,0,0,105.5,53.28Z"></path> <path class="cls-3" d="M130.18,59.47h-7.31V35.67h21.59v23.8h-7.27V42h-7Z"></path> <path class="cls-3" d="M152.69,38.83a13.27,13.27,0,0,1,18.26,0,12.45,12.45,0,0,1,0,17.51,13.4,13.4,0,0,1-18.26,0,12.4,12.4,0,0,1,0-17.47Zm9.15,14.45a4.93,4.93,0,0,0,3.77-1.6,5.92,5.92,0,0,0,1.5-4.11,5.76,5.76,0,0,0-1.5-4.08,5.19,5.19,0,0,0-7.55,0,5.75,5.75,0,0,0-1.49,4.08,5.91,5.91,0,0,0,1.49,4.11A5,5,0,0,0,161.84,53.28Z"></path> <path class="cls-3" d="M179.21,35.67h10.95a9.39,9.39,0,0,1,6.52,2.17,7.5,7.5,0,0,1,0,11.16,9.39,9.39,0,0,1-6.52,2.17h-3.64v8.3h-7.31Zm7.31,10.2h2.65a2.16,2.16,0,1,0,0-4.25h-2.65Z"></path> <path class="cls-3" d="M202,42V35.67H222.9V42h-6.84V59.47h-7.3V42Z"></path> </g> </g> </svg> 