<?xml version="1.0" encoding="UTF-8"?> <!-- Generator: Adobe Illustrator 24.1.2, SVG Export Plug-In . SVG Version: 6.00 Build 0) --> <svg xmlns="http://www.w3.org/2000/svg" xmlns:xlink="http://www.w3.org/1999/xlink" id="Слой_1" x="0px" y="0px" viewBox="0 0 1063.57 646.28" style="enable-background:new 0 0 1063.57 646.28;" xml:space="preserve"> <style type="text/css"> .st0{fill:url(#SVGID_1_);} .st1{fill:#666666;} .st2{fill:url(#SVGID_2_);} .st3{fill:url(#SVGID_3_);} .st4{fill:#FFFFFF;} .st5{fill:#66CC5A;} .st6{fill:#2F313F;} .st7{fill:#4C4E56;} .st8{fill:#CCCCCC;} .st9{fill:none;stroke:#FF6464;stroke-width:4.69;stroke-miterlimit:10;} .st10{fill:none;stroke:#CCCCCC;stroke-width:1.48;stroke-miterlimit:10;} .st11{fill:url(#SVGID_4_);} .st12{fill:url(#SVGID_5_);} .st13{clip-path:url(#SVGID_7_);} .st14{fill:#9B9DAA;} .st15{fill:url(#SVGID_8_);} .st16{fill:url(#SVGID_9_);} .st17{fill:url(#SVGID_10_);} .st18{fill:#40424C;} .st19{fill:#F2F2F2;} .st20{fill:#DBDBDB;} </style> <g> <g id="Слой_1-2"> <linearGradient id="SVGID_1_" gradientUnits="userSpaceOnUse" x1="144.4604" y1="1156.0811" x2="1063.568" y2="1156.0811" gradientTransform="matrix(1 0 0 -1 0 1537.0311)"> <stop offset="0" style="stop-color:#2E3192"></stop> <stop offset="1" style="stop-color:#29ABE2"></stop> </linearGradient> <path class="st0" d="M154.3,423.66l375.73,216.93c13.15,7.59,34.48,7.59,47.63,0l476.05-274.85c13.15-7.59,13.15-19.9,0-27.5 L677.98,121.31c-13.16-7.59-34.48-7.59-47.64,0l-476,274.85C141.18,403.75,141.18,416.07,154.3,423.66z"></path> <path class="st1" d="M154.3,409.91l375.73,216.93c13.15,7.59,34.48,7.59,47.63,0l476.05-274.85c13.15-7.59,13.15-19.9,0-27.5 L677.98,107.56c-13.16-7.59-34.48-7.59-47.64,0l-476,274.85C141.18,390,141.18,402.32,154.3,409.91z"></path> <linearGradient id="SVGID_2_" gradientUnits="userSpaceOnUse" x1="13922.4863" y1="5527.8262" x2="13922.4863" y2="5911.0269" gradientTransform="matrix(0.87 -0.5 -1 -0.58 -6081.1133 10572.6631)"> <stop offset="0.52" style="stop-color:#4D4D4D"></stop> <stop offset="1" style="stop-color:#2E3192;stop-opacity:0"></stop> </linearGradient> <path class="st2" d="M286.42,326.5L70.21,202.11L0,242.64l313.37,180.49c37.18,21.47,96.51,22.35,135.52,2.64l0.16,0.1l4.74-2.74 l0,0l152.26-87.91l-144.87-83.67L331.31,326.5C318.91,333.66,298.81,333.66,286.42,326.5z"></path> <linearGradient id="SVGID_3_" gradientUnits="userSpaceOnUse" x1="13915.5801" y1="5642.125" x2="13915.5801" y2="5915.6616" gradientTransform="matrix(0.87 -0.5 -1 -0.58 -6081.1133 10572.6631)"> <stop offset="0.52" style="stop-color:#FFFFFF"></stop> <stop offset="1" style="stop-color:#2E3192;stop-opacity:0"></stop> </linearGradient> <path class="st3" d="M445.18,296.22l-0.43,0.25l-0.32-0.18l0.43-0.25L445.18,296.22z M440.3,299.04l-4.45,2.57l-0.32-0.18 l4.45-2.57L440.3,299.04z M431.4,304.18l-4.45,2.57l-0.32-0.18l4.45-2.57L431.4,304.18z M422.5,309.32l-4.45,2.57l-0.32-0.19 l4.45-2.57L422.5,309.32z M413.6,314.46l-4.42,2.55l-0.32-0.19l4.45-2.57L413.6,314.46z M404.7,319.59l-4.45,2.57l-0.32-0.18 l4.45-2.57L404.7,319.59z M395.8,324.73l-4.45,2.57l-0.32-0.18l4.45-2.57L395.8,324.73z M386.9,329.87l-4.45,2.57l-0.32-0.18 l4.45-2.57L386.9,329.87z M378,335.01l-4.45,2.57l-0.31-0.19l4.45-2.57L378,335.01z M369.1,340.15l-4.45,2.56l-0.31-0.18 l4.45-2.57L369.1,340.15z M360.18,345.22l-4.44,2.57l-0.32-0.18l4.45-2.57L360.18,345.22z M351.29,350.36l-4.45,2.57l-0.32-0.18 l4.46-2.53L351.29,350.36z M342.39,355.5l-4.45,2.57l-0.32-0.19l4.45-2.56L342.39,355.5z M333.39,360.59 c-1.64,0.82-3.33,1.55-5.05,2.19l-0.24-0.22c1.7-0.64,3.37-1.36,5-2.16L333.39,360.59z M322.8,364.54 c-1.9,0.51-3.89,0.94-5.9,1.29l-0.13-0.25c2-0.35,4-0.78,5.85-1.28L322.8,364.54z M310.74,366.63c-2.07,0.18-4.19,0.28-6.29,0.3 v-0.26c2.08,0,4.18-0.12,6.23-0.3L310.74,366.63z M298.14,366.72c-2.09-0.15-4.17-0.39-6.2-0.71l0.12-0.25 c2,0.31,4.07,0.55,6.14,0.7L298.14,366.72z M285.98,364.8c-1.93-0.48-3.82-1-5.62-1.67l0.24-0.23c1.77,0.63,3.64,1.19,5.56,1.67 L285.98,364.8z M275.22,361.01c-1.14-0.54-2.24-1.11-3.28-1.72l-1.33-0.76l0.31-0.19l1.33,0.77c1,0.6,2.13,1.17,3.25,1.7 L275.22,361.01z M266.47,355.77l-0.31,0.19l-4.45-2.57l0.32-0.19L266.47,355.77z M257.58,350.64l-0.32,0.18l-4.45-2.57l0.32-0.18 L257.58,350.64z M248.68,345.5l-0.32,0.18l-4.45-2.57l0.32-0.18L248.68,345.5z M239.78,340.36l-0.32,0.18l-4.45-2.57l0.32-0.18 L239.78,340.36z M230.88,335.22l-0.32,0.19l-4.45-2.57l0.32-0.19L230.88,335.22z M221.98,330.08l-0.32,0.19l-4.48-2.53l0.32-0.18 L221.98,330.08z M213.08,324.95l-0.32,0.18l-4.44-2.57l0.31-0.18L213.08,324.95z M204.18,319.81l-0.31,0.18l-4.45-2.57l0.31-0.18 L204.18,319.81z M195.29,314.67l-0.32,0.19l-4.45-2.57l0.32-0.19L195.29,314.67z M186.39,309.53l-0.32,0.19l-4.44-2.5l0.32-0.18 L186.39,309.53z M177.49,304.4l-0.32,0.18l-4.45-2.57l0.32-0.18L177.49,304.4z M168.59,299.26l-0.32,0.18l-4.45-2.57l0.32-0.18 L168.59,299.26z M159.69,294.12l-0.32,0.18l-4.45-2.56l0.32-0.19L159.69,294.12z M150.79,288.98l-0.32,0.19l-4.45-2.57l0.32-0.19 L150.79,288.98z M141.89,283.85l-0.31,0.18l-4.4-2.53l0.31-0.18L141.89,283.85z M132.99,278.71l-0.31,0.18l-4.45-2.57l0.32-0.18 L132.99,278.71z M124.1,273.57l-0.32,0.18l-4.44-2.53l0.32-0.19L124.1,273.57z M115.19,268.43l-0.32,0.19l-4.45-2.57l0.32-0.19 L115.19,268.43z M106.29,263.3l-0.32,0.18l-4.45-2.57l0.32-0.18L106.29,263.3z M97.39,258.16l-0.32,0.18l-4.45-2.57l0.32-0.18 L97.39,258.16z M88.49,253.02l-0.32,0.2l-4.45-2.57l0.32-0.18L88.49,253.02z M79.59,247.88l-0.32,0.19l-4.45-2.57l0.32-0.19 L79.59,247.88z M70.69,242.74l-0.31,0.19l-4.45-2.57l0.31-0.18L70.69,242.74z M61.8,237.61l-0.31,0.18l-4.44-2.57l0.32-0.18 L61.8,237.61z M52.9,232.47l-0.32,0.18l-4.41-2.53l0.32-0.18L52.9,232.47z M44,227.33l-0.32,0.18l-4.45-2.56l0.32-0.19L44,227.33z M35.1,222.19l-0.32,0.19l-4.45-2.57l0.32-0.19L35.1,222.19z"></path> <path class="st4" d="M485.71,318.22l-4.45,2.57l-0.32-0.18l4.45-2.57L485.71,318.22z M476.81,323.36l-4.45,2.57l-0.32-0.18 l4.45-2.57L476.81,323.36z M467.91,328.5l-4.45,2.57l-0.31-0.18l4.45-2.57L467.91,328.5z M459.01,333.64l-4.45,2.58l-0.31-0.19 l4.45-2.57L459.01,333.64z M450.12,338.78l-4.45,2.56l-0.32-0.18l4.45-2.57L450.12,338.78z M441.22,343.91l-4.45,2.57l-0.32-0.18 l4.45-2.57L441.22,343.91z M432.32,349.05l-4.45,2.57l-0.32-0.18l4.45-2.57L432.32,349.05z M423.42,354.19l-4.45,2.57l-0.32-0.19 l4.45-2.56L423.42,354.19z M414.52,359.33l-4.45,2.57l-0.32-0.19l4.43-2.49L414.52,359.33z M405.62,364.46l-4.44,2.61l-0.32-0.18 l4.45-2.57L405.62,364.46z M396.72,369.6l-4.45,2.62l-0.32-0.18l4.45-2.57L396.72,369.6z M387.82,374.74l-4.45,2.57l-0.31-0.18 l4.44-2.57L387.82,374.74z M378.92,379.88l-3.74,2.19l-0.74,0.41l-0.31-0.18l0.74-0.42l3.72-2.15L378.92,379.88z M369.61,384.78 c-1.71,0.7-3.52,1.35-5.38,1.91l-0.21-0.23c1.84-0.56,3.63-1.19,5.32-1.89L369.61,384.78z M358.44,388.22c-2,0.41-4,0.74-6.09,1 l-0.09-0.25c2-0.24,4.07-0.57,6-1L358.44,388.22z M346.09,389.68c-2.1,0.08-4.22,0.07-6.32,0v-0.26c2.07,0.09,4.18,0.1,6.25,0 L346.09,389.68z M333.52,389.13c-2.05-0.27-4.09-0.61-6.05-1l0.15-0.25c1.95,0.42,4,0.76,6,1L333.52,389.13z M321.72,386.59 c-1.81-0.57-3.59-1.24-5.33-2l0.27-0.2c1.67,0.71,3.45,1.36,5.27,1.94L321.72,386.59z M311.59,382.22l-0.27-0.15l-4.14-2.42 l0.32-0.18l4.45,2.57L311.59,382.22z M303.01,376.9l-0.32,0.18l-4.45-2.56l0.32-0.19L303.01,376.9z M294.11,371.76l-0.32,0.19 l-4.45-2.57l0.32-0.19L294.11,371.76z M285.21,366.63l-0.31,0.18l-3.42-2l0.32-0.19L285.21,366.63z"></path> <path class="st4" d="M525.44,341.22l-4.45,2.57l-0.32-0.18l4.45-2.57L525.44,341.22z M516.54,346.36l-4.45,2.57l-0.32-0.19 l4.45-2.57L516.54,346.36z M507.64,351.5l-4.46,2.54l-0.32-0.18l4.45-2.57L507.64,351.5z M498.74,356.63l-4.45,2.59l-0.32-0.18 l4.45-2.57L498.74,356.63z M489.84,361.77l-4.45,2.57l-0.32-0.18l4.45-2.57L489.84,361.77z M480.94,366.91l-4.45,2.57l-0.31-0.19 l4.44-2.56L480.94,366.91z M472.04,372.05l-4.45,2.57l-0.31-0.19l4.45-2.57L472.04,372.05z M463.18,377.22l-4.44,2.56l-0.32-0.18 l4.45-2.57L463.18,377.22z M454.29,382.35l-4.45,2.57l-0.32-0.18l4.45-2.57L454.29,382.35z M445.39,387.49l-4.45,2.57l-0.32-0.18 l4.45-2.57L445.39,387.49z M436.49,392.63l-4.45,2.57l-0.32-0.19l4.45-2.56L436.49,392.63z M427.59,397.77l-4.45,2.57l-0.32-0.19 l4.45-2.57L427.59,397.77z M418.69,402.9l-3.72,2.15l-0.74,0.42l-0.31-0.19l0.73-0.41l3.72-2.15L418.69,402.9z M409.37,407.8 c-1.76,0.73-3.55,1.37-5.37,1.92l-0.21-0.23c1.84-0.56,3.63-1.2,5.32-1.9L409.37,407.8z M398.18,411.13c-2,0.41-4,0.74-6.09,1 l-0.09-0.25c2-0.24,4.07-0.57,6-1L398.18,411.13z M385.83,412.59c-2.1,0.08-4.22,0.07-6.32,0v-0.26c2.08,0.1,4.18,0.11,6.26,0 L385.83,412.59z M373.26,412.03c-2.05-0.26-4.09-0.61-6.06-1l0.16-0.24c2,0.42,4,0.76,6,1L373.26,412.03z M361.45,409.49 c-1.84-0.58-3.63-1.24-5.32-2l0.27-0.21c1.72,0.74,3.48,1.39,5.27,1.94L361.45,409.49z M351.33,405.16l-0.27-0.16l-4.18-2.41 l0.32-0.18l4.45,2.56L351.33,405.16z M342.75,399.84l-0.32,0.18l-4.45-2.57l0.32-0.18L342.75,399.84z M333.85,394.7l-0.32,0.18 l-4.45-2.57l0.32-0.18L333.85,394.7z M324.95,389.56l-0.32,0.19l-3.41-2l0.31-0.18L324.95,389.56z"></path> </g> <path class="st5" d="M994.24,395.4"></path> <path class="st5" d="M946.37,400.05"></path> <polygon class="st6" points="861.11,232.37 758.7,173.25 758.7,328.44 861.11,387.56 "></polygon> <polygon class="st7" points="963.54,173.24 861.14,114.12 758.74,173.24 861.14,232.36 "></polygon> <polygon class="st6" points="567.3,453.74 477.69,402 477.69,505.47 567.3,557.2 "></polygon> <path class="st8" d="M479.18,404.56l86.65,50v100l-86.65-50V404.56 M477.7,402v103.47l89.6,51.75V453.74L477.69,402H477.7z"></path> <path class="st8" d="M479.18,426l86.65,50v58.67l-86.65-50V426 M477.7,423.44v62.07l89.6,51.71v-62l-89.61-51.73L477.7,423.44z"></path> <path class="st8" d="M479.18,445.22l86.65,50v18.75l-86.65-50V445.22 M477.7,442.66v22.16l89.61,51.73v-22.17l-89.61-51.73V442.66z "></path> <line class="st9" x1="493.69" y1="514.7" x2="493.69" y2="411.24"></line> <line class="st10" x1="499.45" y1="518.03" x2="499.45" y2="414.57"></line> <line class="st10" x1="516.63" y1="424.24" x2="551.62" y2="546.91"></line> <line class="st9" x1="510.87" y1="420.91" x2="545.85" y2="543.59"></line> <linearGradient id="SVGID_4_" gradientUnits="userSpaceOnUse" x1="491.0054" y1="1363.141" x2="502.5154" y2="1363.141" gradientTransform="matrix(1 0 0 -1 0 1537.0311)"> <stop offset="0" style="stop-color:#4C4E56"></stop> <stop offset="1" style="stop-color:#F2F2F2"></stop> </linearGradient> <path class="st11" d="M502.52,212.37L502.52,212.37V129.9h-11.51v82.46l0,0c0.13,3.18,2.82,5.65,5.99,5.52 c2.99-0.12,5.39-2.52,5.52-5.52l0,0V212.37z"></path> <linearGradient id="SVGID_5_" gradientUnits="userSpaceOnUse" x1="564.9054" y1="1318.821" x2="576.4154" y2="1318.821" gradientTransform="matrix(1 0 0 -1 0 1537.0311)"> <stop offset="0" style="stop-color:#4C4E56"></stop> <stop offset="1" style="stop-color:#F2F2F2"></stop> </linearGradient> <path class="st12" d="M576.42,256.71L576.42,256.71v-82.49h-11.51v82.46l0,0c0.13,3.18,2.82,5.65,5.99,5.52 c2.99-0.12,5.39-2.52,5.52-5.52l0,0V256.71z"></path> <g> <defs> <polygon id="SVGID_6_" points="782.8,271.45 458.51,84.22 458.51,161.03 782.8,348.25 "></polygon> </defs> <clipPath id="SVGID_7_"> <use xlink:href="#SVGID_6_" style="overflow:visible;"></use> </clipPath> <g class="st13"> <polygon class="st14" points="681.98,204.94 458.34,80.69 458.34,145.23 681.98,289.02 "></polygon> <path class="st14" d="M480.29,117.22l-6.22,3.59c-23,13.3-20.14,36.52,6.45,51.87l201.46,116.34v-84.08l-167.26-96.56 C501.79,108.93,489.63,111.86,480.29,117.22z"></path> <rect x="327" class="st14" width="0" height="84.08"></rect> </g> </g> <linearGradient id="SVGID_8_" gradientUnits="userSpaceOnUse" x1="-993.0056" y1="-4977.9277" x2="-1021.0325" y2="-4929.3809" gradientTransform="matrix(0.87 0.5 0 -1.15 1438.2362 -5019.7559)"> <stop offset="0" style="stop-color:#29ABE2"></stop> <stop offset="0.99" style="stop-color:#FFFFFF"></stop> </linearGradient> <polygon class="st15" points="599.75,198.57 540.06,164.1 540.06,192.82 599.75,227.29 "></polygon> <linearGradient id="SVGID_9_" gradientUnits="userSpaceOnUse" x1="-918.2697" y1="-4978.1147" x2="-946.2928" y2="-4929.5747" gradientTransform="matrix(0.87 0.5 0 -1.15 1438.2362 -5019.7559)"> <stop offset="0" style="stop-color:#29ABE2"></stop> <stop offset="0.99" style="stop-color:#FFFFFF"></stop> </linearGradient> <polygon class="st16" points="664.75,236.09 605.06,201.63 605.06,230.35 664.75,264.81 "></polygon> <linearGradient id="SVGID_10_" gradientUnits="userSpaceOnUse" x1="-1067.7336" y1="-4977.7417" x2="-1095.7576" y2="-4929.2002" gradientTransform="matrix(0.87 0.5 0 -1.15 1438.2362 -5019.7559)"> <stop offset="0" style="stop-color:#29ABE2"></stop> <stop offset="0.99" style="stop-color:#FFFFFF"></stop> </linearGradient> <polygon class="st17" points="534.76,161.04 475.06,126.58 475.06,155.3 534.76,189.76 "></polygon> <polygon class="st18" points="861.78,283.77 567.37,453.75 567.37,557.21 861.78,387.23 "></polygon> <polygon class="st18" points="963.55,173.29 861.14,232.41 861.14,387.6 963.55,328.48 "></polygon> <path class="st8" d="M860.3,286.33v100.05L568.85,554.65v-100L860.3,286.37 M861.78,283.81l-294.41,170v103.41l294.41-170V283.77 V283.81z"></path> <path class="st8" d="M860.3,307.76v58.67L568.85,534.7v-58.66L860.3,307.76 M861.78,305.2L567.37,475.22v62l294.41-170v-62V305.2z"></path> <path class="st8" d="M860.3,326.98v18.76L568.85,514.01v-18.79L860.3,326.95 M861.78,324.39l-294.41,170v22.17l294.41-170v-22.14 V324.39z"></path> <line class="st9" x1="640.65" y1="411.44" x2="640.65" y2="514.9"></line> <line class="st10" x1="635.53" y1="414.4" x2="635.53" y2="517.86"></line> <line class="st10" x1="588.49" y1="543.79" x2="623.48" y2="421.11"></line> <line class="st9" x1="594.25" y1="540.46" x2="629.24" y2="417.79"></line> <line class="st9" x1="705.3" y1="374.12" x2="705.3" y2="477.58"></line> <line class="st10" x1="700.18" y1="377.08" x2="700.18" y2="480.54"></line> <line class="st10" x1="653.13" y1="506.47" x2="688.12" y2="383.79"></line> <line class="st9" x1="658.9" y1="503.14" x2="693.88" y2="380.46"></line> <line class="st9" x1="769.94" y1="336.8" x2="769.94" y2="440.26"></line> <line class="st10" x1="764.82" y1="339.76" x2="764.82" y2="443.22"></line> <line class="st10" x1="717.78" y1="469.15" x2="752.77" y2="346.47"></line> <line class="st9" x1="723.54" y1="465.82" x2="758.53" y2="343.14"></line> <line class="st9" x1="834.58" y1="299.48" x2="834.58" y2="402.94"></line> <line class="st10" x1="829.46" y1="302.43" x2="829.46" y2="405.9"></line> <line class="st10" x1="782.42" y1="431.82" x2="817.41" y2="309.15"></line> <line class="st9" x1="788.18" y1="428.5" x2="823.17" y2="305.82"></line> <line class="st10" x1="588.92" y1="482.2" x2="595.75" y2="437.86"></line> <line class="st10" x1="722.68" y1="404.97" x2="729.51" y2="360.63"></line> <line class="st10" x1="787.33" y1="367.65" x2="794.15" y2="323.31"></line> <line class="st10" x1="687.38" y1="446.17" x2="681.94" y2="490.33"></line> <line class="st10" x1="816.66" y1="371.53" x2="811.22" y2="415.69"></line> <line class="st9" x1="561.29" y1="457.26" x2="561.29" y2="560.72"></line> <path class="st19" d="M771.57,178.15L771.57,178.15L570.12,61.84c-26.58-15.35-66.8-17.02-89.83-3.72l-6.22,3.59 c-23,13.29-20.14,36.51,6.45,51.86l201.43,116.3L448.59,364.55l119.75,69.13l322.98-186.4L771.57,178.15z"></path> <polygon class="st20" points="891.34,246.08 568.36,433.77 567.28,470.96 872.11,295.07 "></polygon> <polygon class="st14" points="568.36,433.77 448.13,364.68 463.48,411.16 567.28,470.96 "></polygon> </g> </svg> 