<?xml version="1.0" encoding="UTF-8"?> <svg xmlns="http://www.w3.org/2000/svg" xmlns:xlink="http://www.w3.org/1999/xlink" viewBox="0 0 175.5 160.09"> <defs> <style>.cls-1{fill:#a1b5d0;}.cls-2{fill:#c1cce0;}.cls-3{fill:#dde4ee;}.cls-4{fill:#0b65b5;}.cls-5{fill:#a2b5d0;}.cls-6{fill:url(#Безымянный_градиент_26);}.cls-7{fill:#2e3192;}.cls-8{fill:#849ec2;}.cls-9{fill:#849dc2;}.cls-10{fill:#878788;}.cls-11{fill:#cfd8e8;}.cls-12{fill:#a6b5cb;}.cls-13{fill:#91a9ca;}.cls-14{fill:#92aaca;}.cls-15{fill:url(#Безымянный_градиент_26-2);}.cls-16{fill:#36589a;}.cls-17{fill:#859dbf;}.cls-18{fill:#aec0dd;}.cls-19{fill:#666667;}.cls-20{fill:#dfe4ed;}.cls-21{fill:#a9bedd;}.cls-22{fill:#b0c0da;}.cls-23{fill:#b3c2db;}.cls-24{fill:#93a9c8;}.cls-25{fill:#acc0db;}.cls-26{fill:#b3c0d7;}.cls-27{fill:#b0c1db;}.cls-28{fill:#b4c0dd;}.cls-29{fill:#aec1dc;}.cls-30{fill:#b4c3d9;}.cls-31{fill:#6886b7;}.cls-32{fill:#6685b4;}.cls-33{fill:#6682b8;}.cls-34{fill:#6a83b5;}.cls-35{fill:#6682b6;}.cls-36{fill:#1a1b1a;}.cls-37{fill:#b1c0d9;}.cls-38{fill:#6b87b6;}.cls-39{fill:#a7bfde;}.cls-40{fill:#6785b7;}.cls-41{fill:#6982b6;}.cls-42{fill:#6684b4;}.cls-43{fill:#6684b5;}.cls-44{fill:#6882b6;}.cls-45{fill:#6686b5;}.cls-46{fill:#6785b4;}.cls-47{fill:#6784b3;}.cls-48{fill:#6381b3;}.cls-49{fill:#6887b7;}.cls-50{fill:#6586b9;}.cls-51{fill:#6787b5;}.cls-52{fill:#6585b8;}.cls-53{fill:#6c84b4;}.cls-54{fill:#6885b5;}.cls-55{fill:#6283b3;}.cls-56{fill:#6786b4;}.cls-57{fill:#6989b6;}.cls-58{fill:#6681b0;}.cls-59{fill:#6584b3;}.cls-60{fill:#6c85b9;}.cls-61{fill:#6986b7;}.cls-62{fill:#35548b;}.cls-63{fill:#33538b;}.cls-64{fill:#6884b3;}.cls-65{fill:#6d7784;}.cls-66{fill:#6c7684;}.cls-67{fill:#272c32;}.cls-68{fill:#748190;}.cls-69{fill:#1e292e;}.cls-70{fill:#22262d;}.cls-71{fill:#1e262a;}.cls-72{fill:#1c2025;}.cls-73{fill:#161f26;}.cls-74{fill:#1d2129;}.cls-75{fill:#191f25;}.cls-76{fill:#1c1e24;}.cls-77{fill:#1a1e25;}.cls-78{fill:#1a1d25;}.cls-79{fill:#1c1d25;}.cls-80{fill:#181d28;}.cls-81{fill:#181d24;}.cls-82{fill:#161e26;}.cls-83{fill:#1a1c28;}.cls-84{fill:#1a1c24;}.cls-85{fill:#141e24;}.cls-86{fill:#201e20;}.cls-87{fill:#162226;}.cls-88{fill:#1f2322;}.cls-89{fill:#26282d;}.cls-90{fill:#171e28;}.cls-91{fill:#6581b0;}.cls-92{fill:#6685b6;}.cls-93{fill:#181a1b;}.cls-94{fill:#131a19;}</style> <linearGradient id="Безымянный_градиент_26" x1="13813.09" y1="-347.82" x2="13857.49" y2="-347.82" gradientTransform="matrix(-0.97, -0.25, -0.25, 0.97, 13404.84, 3895.55)" gradientUnits="userSpaceOnUse"> <stop offset="0" stop-color="#191c78"></stop> <stop offset="1" stop-color="#6165d9"></stop> </linearGradient> <linearGradient id="Безымянный_градиент_26-2" x1="13875.37" y1="-310.17" x2="13920.74" y2="-310.17" xlink:href="#Безымянный_градиент_26"></linearGradient> </defs> <title>Самолет взлетающий</title> <g id="Слой_2" data-name="Слой 2"> <g id="Слой_4" data-name="Слой 4"> <path class="cls-1" d="M175.5,154.39c-2.58-2.09-5.47-3.75-8.24-5.58q-8.52-5.66-17.08-11.28l-21.53-14.18-13.28-8.78-17.5-11.48q-7.16-4.71-14.28-9.45a5.13,5.13,0,0,1-.72-.75,44.34,44.34,0,0,1-6.1-5.52c-1.09-.44-2.12.06-3.09.34C67.12,89.57,60.57,91.45,54,93.15c-.93.24-2.14.34-1.86,1.86a19.38,19.38,0,0,0,6.4,5.49c15.37,8.38,30.68,16.86,46,25.32Q123,136,141.44,146.17c6.7,3.7,13.42,7.39,20.1,11.14a4.21,4.21,0,0,0,3.74.35c2.73-.94,5.58-1.52,8.36-2.3A3.6,3.6,0,0,0,175.5,154.39Z"></path> <path class="cls-2" d="M61.57,70.68c-2.48-4.06-4.94-8.14-7.42-12.2-2.92-4.8-6-9.5-8.74-14.4-2.92-5.27-6.23-10.3-9.25-15.5-4.48-7.71-9.1-15.34-13.74-22.95-1.05-1.72-2.2-3.4-3.21-5.15-.27-.47-.5-.57-1.07-.4C14.7,1.07,11.24,2,7.8,3c-1.74.49-2.15,1.27-1.89,3.23.55-.26.55-.87.81-1.43,6,14.43,12.14,28.69,18.13,43q6.07,14.52,12.27,29a2.88,2.88,0,0,0,.59,1,2.1,2.1,0,0,0,1.48-.11c7-1.85,13.85-4,20.82-5.77C60.64,71.75,61.64,71.83,61.57,70.68Z"></path> <path class="cls-3" d="M61.57,70.68c-1.06,1.23-2.65,1.08-4,1.5-2.87.91-5.81,1.58-8.71,2.38-3.72,1-7.42,2.1-11.13,3.15a1.34,1.34,0,0,0-1.58.13c-2.82,1-16.35,4.94-19.26,5.63s-5.27,2.7-7.78,4.28a8.7,8.7,0,0,0-1.27.79,4.57,4.57,0,0,0,1.54,1.83c1.56,1.42,2.86,3.11,4.5,4.45a3.49,3.49,0,0,0,1.51,1,1.7,1.7,0,0,0,1.28-.39c3.84-2.86,7.91-5.28,12.84-5.46,1.73-.06,2.84-1.17,4.28-1.67a10.88,10.88,0,0,1,2.86-.7c5.69-1.46,11.32-3.19,17-4.68s11.33-3.12,17-4.65c3.38-.91,6.74-1.9,10.12-2.8,7.15-1.92,14.25-4,21.4-5.9,2.83-.75,5.6-1.78,8.47-2.38,3.93-.83,7.65-2.39,11.59-3.15,3.87-1.26,7.84-2.18,11.78-3.18l1.82-.56a25.71,25.71,0,0,0,3.32-1.19c-1.29-1.37-2.53-2.79-3.88-4.1-.39-.38-.54-.66-.39-1.14-.77-.17-1,.5-1.19.92a5.32,5.32,0,0,1-3.8,2.52c-6.08,1.39-12,3.26-18,4.87a5.54,5.54,0,0,1-.58.17c-.36.06-.74.09-1-.28s.08-.65.33-.9c1.12-1.12,2.51-1.89,3.69-2.92.57-.49,1.71-.9,1.22-1.81s-1.38-.08-2.09.05a18.74,18.74,0,0,0-3.53.86,3.1,3.1,0,0,0-.94.48c-2.29,1.26-4.89,1.52-7.35,2.23C94,62.24,86.21,64.29,78.49,66.41c-5.32,1.46-10.65,2.91-16,4.39C62.15,70.91,61.86,71,61.57,70.68Z"></path> <path class="cls-2" d="M110,57.76c1.73-.78,3.62-.85,5.46-1.3-1.37,1.89-3.5,2.83-5.08,4.4-.39.38-1,.6-.64,1.3a1.22,1.22,0,0,0,1.54.6c6.37-1.83,12.7-3.79,19.19-5.19,2.24-.48,3.18-2.23,4.44-3.74,4.26-5.83,8.53-11.64,12.76-17.5.36-.5,1.31-.68,1-1.6-1.48-.34-2.76.42-4.11.76a56.59,56.59,0,0,0-7.12,2.13c-4.86,4.57-9.63,9.24-14.2,14.1-1.29,1.36-3.12,2-3.78,2.88,1.19-.47,2-2.4,3.38-3.71.29-.27.61-.56.47-1-1.79-1.29-2.81-3.26-4.23-4.89a89.7,89.7,0,0,1-7.18-8.79c-1.54-2.31-3-2.3-5.34-1.54a51.67,51.67,0,0,1-6,1.72c-.08,0-.12.24-.18.37,2.8,6.7,6,13.25,8.91,19.89A4.32,4.32,0,0,0,110,57.76Z"></path> <path class="cls-4" d="M175.5,154.39c-3.75,1.06-7.52,2.09-11.25,3.2a2.4,2.4,0,0,1-2-.39q-8.26-4.53-16.51-9.1L111.16,129,69.39,105.94c-4-2.22-8-4.48-12.12-6.64a13.81,13.81,0,0,1-3.79-3.24,13.86,13.86,0,0,1-1.29-1.37.37.37,0,0,0-.41-.1c-1.44,1.52-1.42,2.57.1,4a31.69,31.69,0,0,0,2.55,2.08l32.44,17.93c.36.85,1.24,1,1.91,1.44,6.09,3.2,12,6.75,18.07,10,.78.42,1.64.45,2.39.87l3.8,2a2.8,2.8,0,0,0,1.45,1.28c2.78,1.57,5.6,3.06,8.33,4.72,2.87,1.48,5.72,3,8.52,4.62a3.12,3.12,0,0,0,1.56.52c3.28,1.46,6.31,3.37,9.46,5.07q9.6,5.21,19.11,10.56a3.06,3.06,0,0,0,2.58.27q4.38-1.26,8.77-2.43C175.16,156.88,175.16,156.9,175.5,154.39Z"></path> <path class="cls-5" d="M159.22,82.51c-2.58-2.42-5.41-4.52-8.14-6.75q-6.33-5.16-12.69-10.29c-.4-.32-.67-.6-.6-1.12a.86.86,0,0,0-.49-.39c-1.89-1.88-3.89-1.37-6.15-.62-3.44,1.15-7,1.85-10.5,2.91-.77.24-1.41.53-1.66,1.36.26.62.84.86,1.37,1.15,9.44,5.24,18.74,10.72,28.17,16a3.69,3.69,0,0,0,2.88.43c2-.51,4-1.13,6-1.66A2.49,2.49,0,0,0,159.22,82.51Z"></path> <path class="cls-6" d="M76.62,87.48c1.78,2.15,3.51,4.36,6.25,5.41,9.47-2.29,17.66-7.55,26.49-11.3,2.14-.91,4.24-1.92,6.36-2.88a22.58,22.58,0,0,0,6.89-3.3l3.31-1.64a.59.59,0,0,0-.25-1.07,8,8,0,0,1-3.13-1.76c-.26-.25-.67-.16-1-.08a57.69,57.69,0,0,0-6.94,2.66c-7.38,3-14.69,6.13-22.12,9-4.44,1.71-9.16,2.6-13.72,4C78,86.69,77.09,86.66,76.62,87.48Z"></path> <path class="cls-7" d="M36.15,77.84c.56.34,1.05-.11,1.58-.13a88.6,88.6,0,0,0-3.85-9.55Q20.68,36.74,7.38,5.37a3.38,3.38,0,0,0-.81-1.49,6.48,6.48,0,0,0-.66,2.31l9.6,22.6c.85,2,1.69,4,2.53,6-.12,1.33.69,2.38,1.12,3.53.51,1.36,1.09,2.7,1.71,4,1.19,2.4,1.8,5.07,3.36,7.31.61,1.39,1.22,2.79,1.82,4.19,0,1.75,1.14,3.09,1.65,4.66.2.62.54,1.19.74,1.82.45,1.18,1,2.3,1.43,3.49a55,55,0,0,1,2.22,5.1,4.51,4.51,0,0,0,1.13,1.93Z"></path> <path class="cls-8" d="M109.24,130.85c-6.82-3.71-13.49-7.69-20.41-11.2-.23,1,.85,1.12,1.28,1.64a15.66,15.66,0,0,0,3.1,3.25c.5.34.88.74.57,1.37-.51,1-.47,2.16-1,3.16a2.21,2.21,0,0,0-.12.42,6.7,6.7,0,0,1-.28,1.47,15.55,15.55,0,0,1-.8,3.21c-.24.49-.29,1,.42,1.15l15.14-4.11A4.68,4.68,0,0,1,109.24,130.85Z"></path> <path class="cls-9" d="M132.9,144a96,96,0,0,0-9.94-5.48,11.8,11.8,0,0,0-5.81,1.86c-.6,1-.53,2.26-1.17,3.26a3.14,3.14,0,0,0-.32,1.27,12.85,12.85,0,0,1-.48,2.47c-.07.54-.41,1.18.37,1.52C121.33,147.3,127.19,145.93,132.9,144Z"></path> <path class="cls-4" d="M121.52,71.13a12.52,12.52,0,0,1,4.4,2.64c.66-.23,1.15.14,1.68.44,6.94,4,13.9,7.86,20.83,11.83a2.89,2.89,0,0,0,2.42.35c2.42-.71,4.87-1.36,7.31-2,1-.26,1.49-.78,1.06-1.85L150.45,85a1.22,1.22,0,0,1-1-.18l-30-17.06a2.41,2.41,0,0,1-.44-.41c-.58-.51-.8,0-1,.39a1.26,1.26,0,0,0,.46,1.61A18.41,18.41,0,0,0,121.52,71.13Z"></path> <path class="cls-10" d="M15.49,95.61c-2.61-1.86-4.56-4.43-7-6.52-.22-.2-.46-.37-.7-.55-1.53,1-3.07,1.91-4.6,2.89-.41.26-.93.42-1.07,1,.28,1,1.15,1.38,1.82,2C5.85,96,7.3,98,9.32,99.47A18.06,18.06,0,0,0,15.49,95.61Z"></path> <path class="cls-11" d="M7.89,106.46l.12-.19c.63-1.41.7-3,1.2-4.42-1.3-2-3.16-3.39-4.8-5A9.56,9.56,0,0,0,1.82,94.5C.88,96,.8,97.83.29,99.5a71.94,71.94,0,0,0,6.65,6.76A.73.73,0,0,0,7.89,106.46Z"></path> <path class="cls-9" d="M24.23,49.66c-.89-2.54-2-5-3.09-7.45-2.2.13-2.4.34-3.23,3.43a19.27,19.27,0,0,1-1.26,3.85,2.3,2.3,0,0,0-.15,2.18A45.75,45.75,0,0,0,24.23,49.66Z"></path> <path class="cls-12" d="M123.31,49.85c-1.89,1.79-3.11,4.22-5.56,5.52a1.83,1.83,0,0,0,2.17-.41c2.06-1.8,4.16-3.54,6-5.55,3.35-3.56,6.95-6.9,10.44-10.34.39-.38.71-.83,1.07-1.25,0-1-.53-1.13-1.33-1q-4.5,4.58-9,9.13Q125.24,47.94,123.31,49.85Z"></path> <path class="cls-13" d="M18.34,45.61a3.48,3.48,0,0,1,2.8-3.4L18,34.8c-1.68,1.08-3.7,1.07-5.5,1.78-.32.84.48,1.09.83,1.58s1.15,1,1.56,1.6a1.54,1.54,0,0,0,.09.37c.21.32.46.61.68.92a1.14,1.14,0,0,0,.68.4c1.72.95,1.79,1.1,1.58,3.07C17.92,44.92,17.67,45.44,18.34,45.61Z"></path> <path class="cls-14" d="M117.47,140.28c1.82-.62,3.73-.93,5.49-1.73-3.18-2.11-6.65-3.71-9.92-5.66-.36.69-1.09.61-1.69.8-.23,1.31.91,1.79,1.57,2.53.33.37.83.58,1,1.11a1.41,1.41,0,0,0,.58.63C115.66,138.49,116.25,139.8,117.47,140.28Z"></path> <path class="cls-7" d="M23.58,67.78l.74.84a.35.35,0,0,0,.39.08c.71-.68.49-1.57.57-2.39A12.62,12.62,0,0,1,25.63,68c.11.61.25,1.19,1,1.36a1,1,0,0,0,.42-.05c1-1.34-.55-2.3-.39-3.34.49.45.65,1.75,2,1.36A1.56,1.56,0,0,0,29,66.11c-.3-1-1.54-1-2-1.89.6-.52,1.67-.08,1.87-1.1a1.44,1.44,0,0,0-.48-1.19c-.69-.46-1.24.1-1.9.28,0-.86.55-1.49.7-2.25a1,1,0,0,0-.14-.62,2.33,2.33,0,0,0-.74-.79.7.7,0,0,0-.43,0c-.79.7-.51,1.68-.68,2.46-.27-1-.17-2.18-.74-3.2a.76.76,0,0,0-.39-.16c-1,.23-1.08.9-.79,1.72.19.56.44,1.11.67,1.8-.7-.6-.93-1.77-2.1-1.41a4.67,4.67,0,0,0-.3,1c.17,1.18,1.42,1.35,2,2.2-.53.51-1.71-.4-1.92.81A1.86,1.86,0,0,0,22,65.26c.68.46,1.24-.18,1.93-.24C23.94,66,23.14,66.8,23.58,67.78Z"></path> <path class="cls-15" d="M7.63,106.39a1.26,1.26,0,0,1,.29-.32c3.82-1.2,7.7-2.16,11.56-3.25C24.65,101.35,29.85,100,35,98.53a12.09,12.09,0,0,0,4.16-1.17c3.49-1,7-1.9,10.49-2.89.73-.2,1.54-.67,2.22.17-1.27,2.21-1.25,2.45.73,4,.65.5,1.09,1.25,2,1.47.52.11-.21.3-.23.51l-11.58,3.27L38.79,105h0c-6.57,1.82-13.15,3.62-19.71,5.48a7.45,7.45,0,0,1-3.28.17c-2.59-.42-5.18-.9-7.77-1.28a2.67,2.67,0,0,1-2.1-1.29C6.51,107.55,7.54,107.43,7.63,106.39Z"></path> <path class="cls-16" d="M7.89,106.46c-2.33-1.75-4.19-4-6.32-6A10.56,10.56,0,0,0,.31,99.41a3.7,3.7,0,0,0,1.13,4.46c1.49,1.45,3.16,3,4.64,4.47C7.3,108.47,7.87,107.76,7.89,106.46Z"></path> <path class="cls-17" d="M33.22,70.85a50.64,50.64,0,0,0-3.12-7.17.71.71,0,0,0-.54.49c-.41,2.43-1.69,4.6-2.13,7a1.47,1.47,0,0,0,.12.74c1.4.27,2.59-.52,3.9-.74C32,71.1,32.63,71,33.22,70.85Z"></path> <path class="cls-18" d="M93,129.19c1-1.08.67-2.67,1.47-3.84.15-.23-.2-.69-.51-.86-2.14-1.16-3.18-3.46-5.1-4.84l-2-1.1c-.62,2.45-1.15,4.94-1.91,7.35-.5,1.58-.41,2.81,1,3.84.52.39.9,1,1.55,1.18.62-1-.42-1.67-.62-2.51a8.07,8.07,0,0,1-.5-2,4.71,4.71,0,0,1-.07-1.83,5.47,5.47,0,0,1,.2-1.61,2.08,2.08,0,0,1,1-1.23,1.82,1.82,0,0,1,1.07-.22,2.6,2.6,0,0,1,1.35.58,9.86,9.86,0,0,1,1,.91A5.12,5.12,0,0,1,92,125a10,10,0,0,1,.57,1.49,14.92,14.92,0,0,1,.32,2.58Z"></path> <path class="cls-7" d="M110,57.76a38.32,38.32,0,0,0-2.57-6.09c-2.05-4.67-4.19-9.3-6.3-13.94-.18-.39-.17-.93-.77-1a3.12,3.12,0,0,0,.25,2.31c2.84,6.24,5.62,12.51,8.41,18.76Z"></path> <path class="cls-19" d="M1.82,94.5c.73,1.35,2,2.19,3.05,3.26,1.35,1.4,2.8,2.71,4.21,4,.27.1.42,0,.5-.28-.16-.72.22-1.47-.12-2.18a67.26,67.26,0,0,0-7.29-6.93A3.73,3.73,0,0,0,1.82,94.5Z"></path> <path class="cls-7" d="M15.87,40.85A1.36,1.36,0,0,0,15.1,40c-.78,0-.52.65-.6,1.06s.13,1.12-.54,1.41c-.55,0-.67-.54-1-.84s-.63-.94-1.13-.84-.43.88-.6,1.35a1,1,0,0,0,.17.38A6.52,6.52,0,0,0,13,43.72c-.52.3-1.18,0-1.63.45a1.12,1.12,0,0,0,.23,1.42c.57.44,1.13-.06,1.73,0a8.87,8.87,0,0,0-.46,2.06A3.12,3.12,0,0,0,13,48l.23.37a.53.53,0,0,0,.55.25c1-.56.29-1.88,1.1-2.53.65,0,.74.58,1.08.9s.63.93,1.3.88c.66-.37.51-1,.42-1.53-.34-.67-1.17-.87-1.53-1.56.42-.34,1,0,1.39-.38a1.34,1.34,0,0,0-.47-1.81c-.62-.25-1.08.23-1.66.47C15.66,42.28,16.11,41.63,15.87,40.85Z"></path> <path class="cls-20" d="M136.15,36.87a1.69,1.69,0,0,1,1.33,1l4.44-1.23,6.75-1.86c-.36-1-.95-1.12-2-.86-3.22.81-6.35,2-9.63,2.52A1.18,1.18,0,0,0,136.15,36.87Z"></path> <path class="cls-21" d="M27.55,71.94l2.55-8.26a13.1,13.1,0,0,0-1.4-3.42c-.41-.36-.59-.92-1-1.24s-.89-.55-.89.34l.2.43A3.43,3.43,0,0,0,28.27,62l.33,1.06A4.61,4.61,0,0,0,28.78,66l-.34,1.5c-.77.34-.84,1.27-1.46,1.73a1.23,1.23,0,0,1-.27,0c-.81.21-1.22-1-2.08-.62l-.31,0A10.45,10.45,0,0,0,27.55,71.94Z"></path> <path class="cls-22" d="M22.16,65.12l-.3-1.34a4.37,4.37,0,0,0-.21-2.85l.28-1.17A2.26,2.26,0,0,0,23,58.57a1,1,0,0,1,1-.7h.12l.12,0c.52.38,1,.93,1.74.75l.11,0,.11,0c.5-.47.52-.48,0-1.08-.86-1-1.81-1.9-2.71-2.85-.84,0-.78.65-.91,1.15-.6,2.25-1.06,4.56-1.82,6.76a3.13,3.13,0,0,0,1.08,4,4.5,4.5,0,0,0,1.48,1C23.88,66.38,22.55,66,22.16,65.12Z"></path> <path class="cls-23" d="M114.14,137.29c.09-1.35-1.5-1.27-1.91-2.25-.2-.46-.8-.75-.88-1.35-.79.46-.64,1.32-.84,2-.53,1.8-.91,3.65-1.47,5.44a2,2,0,0,0,.78,2.62c.75.49,1.12,1.46,2.09,1.69l.2,0a1,1,0,0,0-.3-.94,5.4,5.4,0,0,1-1-1.71,6.21,6.21,0,0,1-.38-1.34,11.36,11.36,0,0,1-.1-2.4,6.93,6.93,0,0,1,.17-.79,1.79,1.79,0,0,1,1-1.32,2,2,0,0,1,.73-.09,3.51,3.51,0,0,1,1.26.44A.69.69,0,0,0,114.14,137.29Z"></path> <path class="cls-24" d="M23.51,54.79c-.15.25-.3.41.07.72,1,.82,1.81,1.75,2.7,2.64.19.19.31.42-.06.57.18.21.36.43.55.64.2-.48.47-.47.72-.07a1.7,1.7,0,0,0,1.21,1,66.45,66.45,0,0,0-2.65-6.41Z"></path> <path class="cls-25" d="M17.53,46.34c0,.52.08,1.07-.38,1.47-.41.18-.63.58-1,.79a1.28,1.28,0,0,1-1,.19,7.38,7.38,0,0,0-1.31-.25l-.59-.17a14.42,14.42,0,0,0,3.27,3.3c.39-2.09,1.52-4,1.84-6.06-.28-.38-.08-.77,0-1.16a2.85,2.85,0,0,0-1.63-3.52c-.19-.09-.31.18-.39.37-.26.66.2,1,.61,1.38a2.2,2.2,0,0,1,.49,1.74A2.71,2.71,0,0,0,17.53,46.34Z"></path> <path class="cls-26" d="M137.23,64.2l.56.15c.45-1.76.91-3.52,1.36-5.28a7,7,0,0,0-3.38,1,7.74,7.74,0,0,0,1,2.65A9.06,9.06,0,0,1,137.23,64.2Z"></path> <path class="cls-27" d="M92,135.32c-.11-.22-.37-.55-.31-.63.84-1.09.74-2.44,1.07-3.67-.82-.17-1,.79-1.64.93a3.69,3.69,0,0,1-.56.19c-.84.13-1.48-.89-2.38-.41A12.35,12.35,0,0,0,92,135.32Z"></path> <path class="cls-28" d="M15.12,39.76c-.17-1.06-1.29-1.32-1.78-2.12-.23-.37-.75-.54-.8-1.06A8,8,0,0,0,11.32,41c.55-.33,1-.81,1.5-1.17a2.38,2.38,0,0,1,.71-.24C14.08,39.5,14.55,40,15.12,39.76Z"></path> <path class="cls-29" d="M115.55,148.93c-.43-.82.2-1.53.27-2.3.05-.57.53-1.11.13-1.71l-.19.05c-.43.28-.71.76-1.23.9a2.2,2.2,0,0,1-1-.08,1.54,1.54,0,0,0-1.31.06C113.26,147,114,148.37,115.55,148.93Z"></path> <path class="cls-30" d="M11.58,42.34a1.39,1.39,0,0,1-.19-.15c-.07-.14-.16-.16-.29-.07-1.56,2.65-1,4.43,1.9,5.88a.29.29,0,0,0,.05-.28,3.2,3.2,0,0,0-1.33-2.19,2.56,2.56,0,0,1-.23-1.39A2.39,2.39,0,0,0,11.58,42.34Z"></path> <path class="cls-31" d="M88.22,131.73c.94,0,1.57,1.2,2.64.7-.21-1.07-.53-2.12-.68-3.21-.06-.46-.19-1-.71-1s-.53.58-.68,1c-.23.57,0,1.35-.77,1.67a.69.69,0,0,0-.33.19Z"></path> <path class="cls-32" d="M22.16,65.12c.06,1,1.12,1.54,1.18,2.54a.9.9,0,0,0,.24.12,8.87,8.87,0,0,1,.91-2.54c.16-.24.34-.58.11-.83s-.54,0-.81.11C23.26,64.76,22.85,65.34,22.16,65.12Z"></path> <path class="cls-33" d="M87.69,131l.4.05a12.46,12.46,0,0,0,.85-2.52c.1-.35.35-.79-.06-1.11s-.86-.1-1.26.1a2,2,0,0,0-1.1,1c.19.86,1,1.49,1,2.43l.1.07Z"></path> <path class="cls-34" d="M11.1,42.12l.14.05.15,0c.1-.38.2-.77.33-1.24a4.17,4.17,0,0,1,1.42,1.51c.2.3.31.83.87.45l0-.21a8.08,8.08,0,0,0-1.31-3.23c-.69.29-1,.94-1.41,1.51C11.25,41.36,11.18,41.74,11.1,42.12Z"></path> <path class="cls-35" d="M112.23,145.85l1.52.35a3.8,3.8,0,0,0-.23-3.34c-.49-.5-.72-.06-.84.31a13.08,13.08,0,0,1-.56,2.32l-.21,0Z"></path> <path class="cls-36" d="M9.5,101.56c2.39-.66,4.78-1.31,7.17-2,1.41-.4,2.92-2.87,2.56-4.19-.12-.47-.47-.61-.94-.5s-1.19.23-1.78.35l-1,.38-6,3.74C9.48,100.08,8.59,100.83,9.5,101.56Z"></path> <path class="cls-37" d="M8,106.27c5-1.35,10-2.68,15-4.06,4-1.11,8.11-2.07,12.07-3.42,0-.69-.5-1.07-.84-1.55a2.68,2.68,0,0,1-.38-2.95A5.77,5.77,0,0,0,34,92.74a.59.59,0,0,1,0-.14c.25-.17.35-.51.56-.73.26-.45.78-.67,1-1.14a1.59,1.59,0,0,1,.2,1.37,4,4,0,0,1-1.34,2.05c-.37,1.09-.69,2.2.4,3a2.5,2.5,0,0,0,2.86.32,2.44,2.44,0,0,0,1.07-2.37c0-.38-.27-.74-.15-1.29,1.27,1.24.06,2.65.55,3.83,3.51-1,7-1.91,10.54-2.83.7-.18,1.4-.67,2.18-.22H52l.15,0c.41-1.16,1.55-1.08,2.43-1.33,3.43-1,6.87-1.94,10.34-2.81,3.9-1,7.68-2.38,11.66-3.07,3.9-1.09,7.79-2.22,11.7-3.27,6.19-1.68,11.93-4.54,17.86-6.87,5.14-2,10.23-4.14,15.34-6.21-.5-1.15-1.74-1.28-2.62-1.9s-1-1.24.14-1.86A65.2,65.2,0,0,1,126.73,65a42.38,42.38,0,0,0,5.93-1.74c1.39-.49,2.61-.76,3.65.62.16.2.5.56.92.33.39-1.7-.6-2.91-1.46-4.17a3.46,3.46,0,0,0-1.69.49c-3.83,1.52-7.62,3.21-11.86,3.24-2.36.1-4.47,1.12-6.7,1.71-3.55.94-7.1,1.86-10.64,2.84C98.13,70.19,91.39,72.13,84.64,74c-5.06,1.4-10.15,2.68-15.21,4.08-4.41,1.23-8.75,2.73-13.2,3.78-5.75,1.37-22.66,6.07-22.78,6.1-4.65,1.31-7,1.47-10.33,3a27.22,27.22,0,0,0-4,2.38c-.88.61-2.17.68-2.61,1.9.21.27.52.25.82.25,1.45,0,1.47,0,1.18,1.37a3.05,3.05,0,0,1-2.35,2.48c-1.6.45-3.21.87-4.82,1.31-.66.19-1.41.25-1.84.92l-.42.25A7.59,7.59,0,0,0,8,106.27ZM31.28,93.14a2.86,2.86,0,0,1,.85-1.28,1.52,1.52,0,0,0,.77.07,1.9,1.9,0,0,0-.39.71c-.25.73-.28,1.61-1.26,1.85C30.89,94,31.22,93.56,31.28,93.14Z"></path> <path class="cls-26" d="M122.22,63.76a5.93,5.93,0,0,0,4.15-.13c2.62-.91,5.43-1.34,7.71-3.11A75.91,75.91,0,0,0,122.22,63.76Z"></path> <path class="cls-37" d="M33.78,94.27c-.93.63-.64,1.47-.34,2.26a7.88,7.88,0,0,0,1.68,2.26,41.16,41.16,0,0,0,4.05-1.1c.33-1.3.92-2.57.13-3.92a.81.81,0,0,0-1.12-.41c-.55.2-.34.53-.13.83a2.11,2.11,0,0,1-.32,2.88,2,2,0,0,1-2.27.14c-1.23-.53-1-1.57-.88-2.55a2.18,2.18,0,0,1,.11-.44A.66.66,0,0,0,33.78,94.27Z"></path> <path class="cls-7" d="M86.52,128.49c.8-.11,1.57-1.29,2.1-.83.77.67-.48,1.43-.59,2.23a2.11,2.11,0,0,0,0,1.17c.34.23.73.89.83-.17.07-.84.26-1.67.43-2.75,1,1.45.25,3.24,1.52,4.29l.42-.17c.55-1.52-.54-2.62-.78-3.66.25.26.5.88.92,1.38s.62.81,1.08.67.45-.7.42-1.15l0-.31h0c-.22-1-1.29-1-1.78-1.74.43-.52,1.69.09,1.62-1.15a2.76,2.76,0,0,0-.59-1.43c-.59-.11-1,.46-1.54.49-.11-.93,1-1.61.47-2.59l-1-.9c-.94.76-.67,1.78-.67,2.63-.6-.94,0-2.43-1-3.38a1.22,1.22,0,0,0-1,.31c-.5,1.45.79,2.39.93,3.46-.52-.72-.82-1.91-2.12-2.12a2.22,2.22,0,0,0-.22,1.78c.35.74,1.31.86,1.7,1.6-.5.35-1.12-.07-1.57.31A3.17,3.17,0,0,0,86.52,128.49Z"></path> <path class="cls-38" d="M92.92,129.5c-.19.89-.48,1.36-1.21.32a3.67,3.67,0,0,0-1.51-1.61l1.08,4c.75-.12,1-.89,1.52-1.24C92.87,130.52,93.24,130,92.92,129.5Z"></path> <path class="cls-7" d="M112.12,145.49c.88,0,.63-.75.79-1.2s-.17-1,.36-1.58c.14,1.28.8,2.29.48,3.49a.78.78,0,0,0,1,0c.62-1.24-.25-2.17-.58-3.11.45.62.68,1.62,1.77,1.77l0,0,.36-1.2a.35.35,0,0,0,0-.39c-.39-.52-1-.71-1.57-1.25.56-.36,1.43-.33,1.51-1.18a1.35,1.35,0,0,0-.52-1.15c-.53-.23-.9.31-1.49.3.11-.72.69-1.32.54-2.07a.61.61,0,0,0-.25-.32c-.21,0-.39-.12-.43-.37l-.56-.22a5.89,5.89,0,0,0-.55,2.14c-.12.44-.29.63-.72.34-.75-.42-.89-1.71-2.11-1.45L110,139c.19.84.93,1.25,1.49,1.84-.28.55-1.25-.09-1.34.76l.39,1.31c.39.61.9-.12,1.32,0,.06.66-.62,1.16-.21,1.79Z"></path> <path class="cls-39" d="M114.57,137.66l.05.3a2.34,2.34,0,0,0,1,1.89l.42,1c0,.88-.49,1.79.18,2.62a1.84,1.84,0,0,0,0,.25c.84-1,.71-2.31,1.16-3.44A7.78,7.78,0,0,0,114.57,137.66Z"></path> <path class="cls-40" d="M15.12,39.76c-.62,0-1-.91-1.74-.5-.12,1.28.47,2.43.64,3.66h0c.72-.11.82-.64.82-1.22A2.51,2.51,0,0,1,15.1,40,2.11,2.11,0,0,0,15.12,39.76Z"></path> <path class="cls-41" d="M16.93,42.68l-.61-1.38-.45-.45c-.06,1-1.13,1.65-.8,2.81Z"></path> <path class="cls-42" d="M24,57.87c-1.41-.16-1.5,1.15-2.09,1.89,1.21.35,1.36,1.76,2.45,2.52a5.91,5.91,0,0,0-.77-2.83C23.34,58.81,23.14,58.21,24,57.87Z"></path> <path class="cls-43" d="M28.78,66a8.27,8.27,0,0,0-.18-2.89c-.23.78-.91.43-1.4.54-.33.07-.76-.06-.89.36s.32.61.57.79C27.49,65.2,28.15,65.56,28.78,66Z"></path> <path class="cls-44" d="M27,69.19a2.32,2.32,0,0,0,1.46-1.73c-1.09-.59-1.51-1.79-2.5-2.82C26,66.39,27.26,67.63,27,69.19Z"></path> <path class="cls-45" d="M21.65,60.93a8.53,8.53,0,0,0,.21,2.85c.66-.81,1.71.24,2.42-.54C23.67,62.17,22.4,61.84,21.65,60.93Z"></path> <path class="cls-46" d="M24.63,68.59c.66.33,1.2,1,2.08.62-.68-.2-.65-.75-.73-1.32a7.56,7.56,0,0,0-.86-2.72Z"></path> <path class="cls-47" d="M28.27,62A8.4,8.4,0,0,0,27,59.79l-1.35,3C26.76,63,27.28,61.78,28.27,62Z"></path> <path class="cls-42" d="M26,58.66a3.41,3.41,0,0,0-1.74-.75c.26,1.35.51,2.71.77,4.07C25.76,60.92,25.36,59.66,26,58.66Z"></path> <path class="cls-48" d="M88.44,121.13c.4,1.32.24,2.77.93,4.2.76-1.13.21-2.43.78-3.45A2.63,2.63,0,0,0,88.44,121.13Z"></path> <path class="cls-49" d="M92.79,126.31c-.53.87-1.53.47-2.31.86.5,1.07,1.66,1.34,2.47,2A4.29,4.29,0,0,0,92.79,126.31Z"></path> <path class="cls-50" d="M86.21,122.78l2.36,2.68.18-.06-1.35-4A1.72,1.72,0,0,0,86.21,122.78Z"></path> <path class="cls-51" d="M91.13,122.78c-.18,1.12-1.13,2-1,3.37a6.5,6.5,0,0,0,2.06-1.27A3.52,3.52,0,0,0,91.13,122.78Z"></path> <path class="cls-52" d="M86.12,126.47a4.23,4.23,0,0,0,2.56.08,5.86,5.86,0,0,0-2.69-2A2,2,0,0,0,86.12,126.47Z"></path> <path class="cls-53" d="M11.72,45.53c.49.7.6,1.63,1.33,2.19A8.6,8.6,0,0,1,14.16,45C13.08,44.74,12.57,45.79,11.72,45.53Z"></path> <path class="cls-54" d="M17.53,46.34a2.23,2.23,0,0,0-.11-1.92,4,4,0,0,0-2.24,0A7,7,0,0,0,17.53,46.34Z"></path> <path class="cls-55" d="M13.82,48.54c.32.54.91.5,1.42.63.69-1.1-.16-2-.3-3.05L14.81,46c-.57-.43-.7,0-.67.41A6.44,6.44,0,0,1,13.82,48.54Z"></path> <path class="cls-56" d="M11.58,42.34a1.81,1.81,0,0,0-.09,1.8c.69.09,1.75.34,1.95-.2.28-.77-1-.72-1.36-1.27A1.81,1.81,0,0,0,11.58,42.34Z"></path> <path class="cls-57" d="M16.3,48.86c.57-.12.76-.54.85-1-.51-.66-1-1.31-1.53-2-.36-.48-.61-.42-.81.11h0C15.35,46.89,15.24,48.17,16.3,48.86Z"></path> <path class="cls-58" d="M112.22,139.87c.48.65,1.08.52,1.13-.15a7.18,7.18,0,0,0,.23-2.65c-.3-.58-.9-.53-1.41-.65-.29,1.1.46,2.16.12,3.26Z"></path> <path class="cls-59" d="M110.13,141.56l2.43-.3L110,139A8.74,8.74,0,0,0,110.13,141.56Z"></path> <path class="cls-60" d="M110.2,138.1c1,.2,1.13,1.43,2,1.77h0c.44-1.26-.25-2.27-.73-3.33A2,2,0,0,0,110.2,138.1Z"></path> <path class="cls-61" d="M111.63,144.7l.08-.29c.27-.7,1.13-1.47.58-2.11s-1,.77-1.77.57A3.42,3.42,0,0,0,111.63,144.7Z"></path> <path class="cls-62" d="M111.51,136.53c-.22,1.21.84,2.14.73,3.33.45.08.66-.06.56-.56a9.84,9.84,0,0,0-.63-2.88Z"></path> <path class="cls-63" d="M16.3,48.86c-.47-1-.52-2.19-1.5-2.92-.27,1.13.58,2.11.44,3.23A.84.84,0,0,0,16.3,48.86Z"></path> <path class="cls-63" d="M14,42.92a5.89,5.89,0,0,0-.64-3.66l-.65.21A10.52,10.52,0,0,0,14,42.92Z"></path> <path class="cls-64" d="M115.93,144.89l-2.06-2.44c0,1.48,1,2.51.87,3.78A2,2,0,0,0,115.93,144.89Z"></path> <path class="cls-65" d="M76.94,80.47a2.63,2.63,0,0,0-.15.61c0,.7-1,1.75.14,2a2.35,2.35,0,0,0,2.79-1.3,26.69,26.69,0,0,0,.92-3.35c.2-.87-.25-1-1-.92A2.9,2.9,0,0,0,76.94,80.47Z"></path> <path class="cls-66" d="M103.68,73.29a1.11,1.11,0,0,0-.08.3c0,.74-.93,1.55,0,2.19.65.44,2.67-.65,3-1.59s.54-2.06.82-3.08c.22-.8-.2-1.08-.87-1-1.22.23-2.39.6-2.61,2.11A9.13,9.13,0,0,1,103.68,73.29Z"></path> <path class="cls-67" d="M50,88.81l0,.9A1.82,1.82,0,0,0,52.69,89a7.65,7.65,0,0,0,.48-1.76c.11-.55.57-1.27-.23-1.59a1.62,1.62,0,0,0-2.09.76A21.59,21.59,0,0,0,50,88.81Z"></path> <path class="cls-68" d="M50,88.81c.57-.34.47-1,.63-1.47a1.72,1.72,0,0,1,.83-1.2c.48-.2,1.06-.62,1.55-.24s0,.83-.07,1.26A3.09,3.09,0,0,1,50.76,90c-.45.15-.47-.22-.71-.32-.5.44-.67.89.21.94a3,3,0,0,0,3-2.33A10.76,10.76,0,0,0,53.56,87c.07-.68.87-1.66-.1-2a2.24,2.24,0,0,0-2.74,1.07A5.07,5.07,0,0,0,50,88.81Z"></path> <path class="cls-69" d="M47.14,89.32c0,.25-.77,1.09.12,1.23,1.3.22,1.84-.82,2-2,.07-.51.72-1.38-.13-1.5C47.88,86.93,47.22,87.82,47.14,89.32Z"></path> <path class="cls-70" d="M73.91,81.66c0,.46-.7,1.24.08,1.48A1.48,1.48,0,0,0,75.84,82a2.92,2.92,0,0,0,.19-.73c0-.54.76-1.31-.06-1.56a1.47,1.47,0,0,0-1.85,1.13C74.06,81.09,74,81.33,73.91,81.66Z"></path> <path class="cls-71" d="M100.72,74.27c0,.44-.64,1.23.08,1.47a1.5,1.5,0,0,0,1.85-1.13,3.78,3.78,0,0,0,.17-.74c0-.54.72-1.3,0-1.56a1.49,1.49,0,0,0-1.86,1.12C100.86,73.67,100.81,73.91,100.72,74.27Z"></path> <path class="cls-72" d="M90.79,77.15c.1.42-.66,1.11.15,1.34a1.4,1.4,0,0,0,1.63-.82,2.28,2.28,0,0,0,.33-1c0-.57.86-1.41-.15-1.65A1.49,1.49,0,0,0,91,76.35C91,76.6,90.87,76.84,90.79,77.15Z"></path> <path class="cls-73" d="M57.48,86.33c.14.4-.8,1.14.12,1.37a1.43,1.43,0,0,0,1.73-1.1,3.45,3.45,0,0,0,.21-.87c0-.51.81-1.26-.11-1.49a1.38,1.38,0,0,0-1.7,1.12C57.66,85.65,57.58,85.94,57.48,86.33Z"></path> <path class="cls-74" d="M66.17,83.79c-.18-.39.74-1.15-.16-1.37a1.48,1.48,0,0,0-1.74,1.1,2.48,2.48,0,0,0-.22.86c0,.52-.79,1.28.14,1.51a1.46,1.46,0,0,0,1.72-1.12C66,84.49,66.06,84.19,66.17,83.79Z"></path> <path class="cls-75" d="M62.9,84.67c0-.36.63-1.1,0-1.32a1.41,1.41,0,0,0-1.79,1,3.41,3.41,0,0,0-.26,1c0,.49-.72,1.19.08,1.41a1.42,1.42,0,0,0,1.7-.94C62.71,85.51,62.77,85.16,62.9,84.67Z"></path> <path class="cls-76" d="M54.2,87.35c.07.27-.79,1.11.15,1.25,1.47.21,1.74-1.07,1.95-2.18.08-.44.59-1.19-.11-1.27C54.9,85,54.3,85.88,54.2,87.35Z"></path> <path class="cls-77" d="M43.86,90.09c.16.4-.8,1.15.13,1.38a1.46,1.46,0,0,0,1.74-1.13,3.24,3.24,0,0,0,.18-.73c0-.55.75-1.32,0-1.57a1.4,1.4,0,0,0-1.79,1.2C44,89.49,44,89.73,43.86,90.09Z"></path> <path class="cls-78" d="M40.54,91c.17.42-.76,1.17.2,1.4a1.36,1.36,0,0,0,1.64-1,3.46,3.46,0,0,0,.23-.88c0-.53.76-1.31,0-1.53a1.47,1.47,0,0,0-1.81,1.22C40.7,90.37,40.63,90.62,40.54,91Z"></path> <path class="cls-79" d="M81,79.81c.13.41-.76,1.15.11,1.39a1.42,1.42,0,0,0,1.74-1.07,2.48,2.48,0,0,0,.19-.72c0-.57.86-1.39,0-1.64a1.48,1.48,0,0,0-1.82,1.35C81.1,79.32,81,79.51,81,79.81Z"></path> <path class="cls-80" d="M72.75,81.94c-.1-.35.77-1.19-.15-1.33-1.32-.2-1.79.89-1.92,2-.06.48-.71,1.29,0,1.41C72,84.25,72.59,83.29,72.75,81.94Z"></path> <path class="cls-81" d="M67.35,83.58c0,.43-.67,1.16,0,1.39a1.48,1.48,0,0,0,1.81-1,2.61,2.61,0,0,0,.23-.88c0-.54.76-1.32-.05-1.55a1.44,1.44,0,0,0-1.79,1.23C67.51,83,67.43,83.26,67.35,83.58Z"></path> <path class="cls-82" d="M94.15,76.16c.15.4-.78,1.16.15,1.38A1.37,1.37,0,0,0,96,76.42a4.24,4.24,0,0,0,.19-.74c0-.54.78-1.3,0-1.55a1.43,1.43,0,0,0-1.82,1.18C94.31,75.56,94.24,75.8,94.15,76.16Z"></path> <path class="cls-83" d="M84.27,79c.11.38-.71,1.08.08,1.32a1.42,1.42,0,0,0,1.71-.92,2.88,2.88,0,0,0,.28-1c0-.52.79-1.27-.1-1.51A1.41,1.41,0,0,0,84.52,78C84.45,78.27,84.37,78.56,84.27,79Z"></path> <path class="cls-84" d="M87.59,78c.11.4-.77,1.14.15,1.39a1.45,1.45,0,0,0,1.67-1,2.74,2.74,0,0,0,.23-.87c0-.55.75-1.34,0-1.57a1.44,1.44,0,0,0-1.79,1.21C87.76,77.39,87.69,77.63,87.59,78Z"></path> <path class="cls-85" d="M97.46,75.27c.07.41-.65,1.13,0,1.36a1.44,1.44,0,0,0,1.81-1,2.8,2.8,0,0,0,.23-.88c0-.53.79-1.3,0-1.55a1.42,1.42,0,0,0-1.78,1.22C97.62,74.69,97.55,74.93,97.46,75.27Z"></path> <path class="cls-86" d="M37.34,93.07a2.7,2.7,0,0,0,2.24-2.84c0-.56-.34-.49-.72-.41C37.6,90.06,37.18,90.92,37.34,93.07Z"></path> <path class="cls-87" d="M33.78,94.27l.91,0C35.76,93.88,35.92,93,36.1,92c-.74-.23-1.31,0-1.84,1,.2-.65.49-1,.1-1.41-.48.24-.39.78-.63,1.14A3.57,3.57,0,0,0,33.78,94.27Z"></path> <path class="cls-88" d="M34.36,91.57c0,.44-.36.83-.11,1.41a4.73,4.73,0,0,1,1.85-1c.35-.64.52-1.21-.49-1.34A3.24,3.24,0,0,0,34.36,91.57Z"></path> <path class="cls-89" d="M27,93.16c-2.21-.28-3.18.32-3.53,2.42-.12.71-1.08,1.47-.14,2.26a.24.24,0,0,0,.15,0c.05,0,.13,0,.14-.07.14-.43.21-.53.51-.57a2.29,2.29,0,0,0,2.17-2A13.75,13.75,0,0,1,27,93.16Z"></path> <path class="cls-90" d="M29.47,93.94c-.06-.41.66-1.13,0-1.36a1.43,1.43,0,0,0-1.79,1,2.87,2.87,0,0,0-.23.88c0,.53-.79,1.27.06,1.53a1.42,1.42,0,0,0,1.75-1.09C29.3,94.62,29.37,94.33,29.47,93.94Z"></path> <path class="cls-87" d="M30.93,92.94a2.87,2.87,0,0,0-.23.72c0,.49-.7,1.19.07,1.43a1.4,1.4,0,0,0,1.71-.93,9.56,9.56,0,0,0,.32-1.33C32.14,92.16,31.54,92.72,30.93,92.94Z"></path> <path class="cls-87" d="M30.93,92.94c.64.33,1.24-.22,1.87-.11.1-.3.2-.6.29-.9-.27-.64-.8-.18-1.2-.28C31.46,92,31,92.3,30.93,92.94Z"></path> <path class="cls-91" d="M116.26,143.47a7.46,7.46,0,0,0-.18-2.62.83.83,0,0,1-1,.67c-.39,0-.9-.17-1,.34s.49.55.78.78A10.43,10.43,0,0,0,116.26,143.47Z"></path> <path class="cls-92" d="M115.66,139.85c-.08-.78-.77-1.22-1-1.89-.09.29-.17.58-.25.87-.17.64-1.12,1.33-.48,1.85S115,140.05,115.66,139.85Z"></path> <path class="cls-93" d="M80,78.43c-1.67.11-3.27,2.24-2.82,3.58a.38.38,0,0,0,.44.29c.67-.07,1.37-.22,1.61-.94C79.56,80.41,79.76,79.43,80,78.43Z"></path> <path class="cls-94" d="M103.9,74.87a3.12,3.12,0,0,0,2.82-3.45c-.06-.33-.23-.47-.5-.41-.57.12-1.29.09-1.51.79C104.39,72.8,104.17,73.82,103.9,74.87Z"></path> </g> </g> </svg> 