<?xml version="1.0" encoding="UTF-8"?> <svg xmlns="http://www.w3.org/2000/svg" xmlns:xlink="http://www.w3.org/1999/xlink" viewBox="0 0 201.95 119.8"> <defs> <style>.cls-1{fill:#a1b5d0;}.cls-2{fill:#c1cce0;}.cls-3{fill:#dde4ee;}.cls-4{fill:#0b65b5;}.cls-5{fill:#a2b5d0;}.cls-6{fill:url(#Безымянный_градиент_85);}.cls-7{fill:#2e3192;}.cls-8{fill:#849ec2;}.cls-9{fill:#849dc2;}.cls-10{fill:#878788;}.cls-11{fill:#cfd8e8;}.cls-12{fill:#a6b5cb;}.cls-13{fill:#91a9ca;}.cls-14{fill:#92aaca;}.cls-15{fill:url(#Безымянный_градиент_85-2);}.cls-16{fill:#36589a;}.cls-17{fill:#859dbf;}.cls-18{fill:#aec0dd;}.cls-19{fill:#666667;}.cls-20{fill:#dfe4ed;}.cls-21{fill:#a9bedd;}.cls-22{fill:#b0c0da;}.cls-23{fill:#b3c2db;}.cls-24{fill:#93a9c8;}.cls-25{fill:#acc0db;}.cls-26{fill:#b3c0d7;}.cls-27{fill:#b0c1db;}.cls-28{fill:#b4c0dd;}.cls-29{fill:#aec1dc;}.cls-30{fill:#b4c3d9;}.cls-31{fill:#6886b7;}.cls-32{fill:#6685b4;}.cls-33{fill:#6682b8;}.cls-34{fill:#6a83b5;}.cls-35{fill:#6682b6;}.cls-36{fill:#1a1b1a;}.cls-37{fill:#b1c0d9;}.cls-38{fill:#6b87b6;}.cls-39{fill:#a7bfde;}.cls-40{fill:#6785b7;}.cls-41{fill:#6982b6;}.cls-42{fill:#6684b4;}.cls-43{fill:#6684b5;}.cls-44{fill:#6882b6;}.cls-45{fill:#6686b5;}.cls-46{fill:#6785b4;}.cls-47{fill:#6784b3;}.cls-48{fill:#6381b3;}.cls-49{fill:#6887b7;}.cls-50{fill:#6586b9;}.cls-51{fill:#6787b5;}.cls-52{fill:#6585b8;}.cls-53{fill:#6c84b4;}.cls-54{fill:#6885b5;}.cls-55{fill:#6283b3;}.cls-56{fill:#6786b4;}.cls-57{fill:#6989b6;}.cls-58{fill:#6681b0;}.cls-59{fill:#6584b3;}.cls-60{fill:#6c85b9;}.cls-61{fill:#6986b7;}.cls-62{fill:#35548b;}.cls-63{fill:#33538b;}.cls-64{fill:#6884b3;}.cls-65{fill:#6d7784;}.cls-66{fill:#6c7684;}.cls-67{fill:#272c32;}.cls-68{fill:#748190;}.cls-69{fill:#1e292e;}.cls-70{fill:#22262d;}.cls-71{fill:#1e262a;}.cls-72{fill:#1c2025;}.cls-73{fill:#161f26;}.cls-74{fill:#1d2129;}.cls-75{fill:#191f25;}.cls-76{fill:#1c1e24;}.cls-77{fill:#1a1e25;}.cls-78{fill:#1a1d25;}.cls-79{fill:#1c1d25;}.cls-80{fill:#181d28;}.cls-81{fill:#181d24;}.cls-82{fill:#161e26;}.cls-83{fill:#1a1c28;}.cls-84{fill:#1a1c24;}.cls-85{fill:#141e24;}.cls-86{fill:#201e20;}.cls-87{fill:#162226;}.cls-88{fill:#1f2322;}.cls-89{fill:#26282d;}.cls-90{fill:#171e28;}.cls-91{fill:#6581b0;}.cls-92{fill:#6685b6;}.cls-93{fill:#181a1b;}.cls-94{fill:#131a19;}</style> <linearGradient id="Безымянный_градиент_85" x1="68.27" y1="58.12" x2="112.67" y2="58.12" gradientUnits="userSpaceOnUse"> <stop offset="0" stop-color="#191c78"></stop> <stop offset="1" stop-color="#6165d9"></stop> </linearGradient> <linearGradient id="Безымянный_градиент_85-2" x1="130.54" y1="95.78" x2="175.91" y2="95.78" xlink:href="#Безымянный_градиент_85"></linearGradient> </defs> <title>Самолёт 1</title> <g id="Слой_2" data-name="Слой 2"> <g id="Слой_2-2" data-name="Слой 2"> <path class="cls-1" d="M.14,110c3-1.39,6.24-2.26,9.38-3.34q9.68-3.33,19.37-6.63,12.2-4.15,24.4-8.31c5-1.71,10-3.45,15.06-5.15,6.61-2.25,13.22-4.47,19.83-6.72q8.1-2.76,16.2-5.56a4.92,4.92,0,0,0,.88-.55,44.67,44.67,0,0,0,7.29-3.8c1.16-.15,2,.59,2.91,1.1,5.88,3.46,11.75,6.92,17.71,10.23.84.46,2,.86,1.33,2.26a19.29,19.29,0,0,1-7.57,3.71C110,91.51,93,95.86,76,100.2c-13.61,3.49-27.24,6.93-40.85,10.42-7.42,1.9-14.85,3.78-22.25,5.73a4.21,4.21,0,0,1-3.71-.6c-2.41-1.6-5-2.87-7.52-4.33A3.7,3.7,0,0,1,.14,110Z"></path> <path class="cls-2" d="M131.46,57.63l10.25-10c4-3.91,8.21-7.68,12.07-11.75,4.15-4.36,8.62-8.39,12.86-12.67,6.27-6.34,12.66-12.55,19.06-18.76,1.45-1.4,3-2.73,4.4-4.18.38-.39.63-.42,1.14-.12,3.08,1.83,6.2,3.58,9.29,5.39,1.55.92,1.75,1.77,1,3.6-.47-.39-.31-1-.42-1.58-9.48,12.45-19,24.72-28.36,37.06q-9.52,12.53-19.16,25a3.06,3.06,0,0,1-.84.88,2.11,2.11,0,0,1-1.4-.48c-6.27-3.55-12.42-7.31-18.7-10.83C132.09,58.89,131.11,58.72,131.46,57.63Z"></path> <path class="cls-3" d="M131.46,57.63c.71,1.45,2.3,1.7,3.49,2.45,2.55,1.6,5.23,3,7.84,4.5,3.33,1.93,6.65,3.89,10,5.84.64-.24,1.08.12,1.49.53,2.48,1.7,14.59,8.88,17.23,10.28s4.42,4,6.46,6.11a7.48,7.48,0,0,1,1,1.08A4.65,4.65,0,0,1,177,89.8c-1.86,1-3.54,2.3-5.47,3.18a3.45,3.45,0,0,1-1.7.54,1.64,1.64,0,0,1-1.15-.7c-3-3.73-6.33-7.09-11-8.5-1.66-.5-2.46-1.85-3.73-2.7a10.54,10.54,0,0,0-2.58-1.39c-5.15-2.85-10.15-5.94-15.29-8.81s-10.18-5.86-15.28-8.77c-3-1.73-6-3.53-9.09-5.26-6.43-3.65-12.78-7.45-19.23-11.08-2.55-1.44-5-3.13-7.6-4.44-3.59-1.79-6.8-4.23-10.42-6-3.44-2.19-7.05-4.07-10.61-6-.55-.33-1.08-.68-1.62-1a24.85,24.85,0,0,1-2.91-2c1.59-1,3.15-2.07,4.79-3,.47-.27.68-.5.66-1,.78,0,.8.73.92,1.19a5.29,5.29,0,0,0,3,3.39c5.53,2.88,10.82,6.18,16.24,9.26a5.54,5.54,0,0,0,.53.3c.33.16.69.27,1,0s.09-.66-.09-1c-.81-1.36-2-2.46-2.85-3.75-.43-.62-1.42-1.31-.72-2.06s1.35.27,2,.57A18.6,18.6,0,0,1,88,32.53a3.11,3.11,0,0,1,.79.7c1.9,1.79,4.36,2.7,6.56,4,6.88,4.09,13.85,8,20.79,12,4.79,2.75,9.58,5.49,14.35,8.26C130.84,57.7,131.11,57.82,131.46,57.63Z"></path> <path class="cls-2" d="M87.86,33c-1.48-1.19-3.29-1.73-5-2.63.86,2.18,2.68,3.62,3.82,5.54.28.47.86.84.28,1.42a1.23,1.23,0,0,1-1.64.2C79.66,34.1,74,30.61,68.1,27.63c-2.06-1-2.52-3-3.36-4.74-2.66-6.71-5.33-13.42-7.95-20.14-.23-.58-1.1-1-.6-1.82C57.7,1,58.76,2,60,2.7a57.29,57.29,0,0,1,6.36,3.86c3.55,5.64,7,11.36,10.2,17.21.9,1.65,2.52,2.7,2.92,3.74-1-.76-1.29-2.81-2.33-4.44-.21-.33-.45-.69-.19-1.12,2.06-.8,3.54-2.46,5.32-3.67a88.1,88.1,0,0,0,9.15-6.71c2.08-1.85,3.45-1.48,5.56-.15a51.48,51.48,0,0,0,5.43,3.19c.07,0,0,.26.08.4-4.4,5.79-9.1,11.33-13.63,17A4,4,0,0,1,87.86,33Z"></path> <path class="cls-4" d="M.14,110c3.37,2,6.75,3.9,10.09,5.92a2.42,2.42,0,0,0,2,.12q9.14-2.31,18.26-4.66l38.28-9.8L115,89.79c4.46-1.14,8.92-2.32,13.4-3.38a13.85,13.85,0,0,0,4.48-2.19,12.6,12.6,0,0,0,1.6-1,.38.38,0,0,1,.41,0c1,1.84.73,2.85-1.08,3.8q-1.47.77-3,1.38l-35.9,9.2c-.56.73-1.45.66-2.21.91-6.7,1.56-13.31,3.52-20,5.14-.86.2-1.7,0-2.53.23l-4.2,1a2.77,2.77,0,0,1-1.72.87c-3.08.82-6.19,1.56-9.25,2.48-3.15.71-6.29,1.47-9.41,2.33a3.05,3.05,0,0,1-1.64.11c-3.54.59-6.95,1.67-10.43,2.53Q23,115.85,12.4,118.64a3.09,3.09,0,0,1-2.57-.39c-2.61-1.55-5.24-3.06-7.88-4.56C-.15,112.5-.16,112.53.14,110Z"></path> <path class="cls-5" d="M34,44.53c3.1-1.69,6.37-3,9.57-4.48Q51,36.63,58.42,33.27c.46-.2.79-.41.85-.93a1,1,0,0,1,.58-.26c2.3-1.34,4.11-.35,6.1,1,3,2,6.34,3.56,9.44,5.46a2.07,2.07,0,0,1,1.26,1.73A2.55,2.55,0,0,1,75,41c-10.45,2.7-20.84,5.67-31.28,8.4a3.63,3.63,0,0,1-2.9-.31C39,48.09,37.27,47,35.46,46,34.85,45.63,34.17,45.32,34,44.53Z"></path> <path class="cls-6" d="M112.67,70.11c-2.27,1.63-4.5,3.33-7.41,3.65C96.67,69.18,90.06,62,82.46,56.17c-1.84-1.42-3.62-2.92-5.43-4.38a22.49,22.49,0,0,1-5.84-4.93L68.4,44.44c-.36-.61.08-.94.51-1a8.08,8.08,0,0,0,3.47-.92,1.11,1.11,0,0,1,1,.18,56,56,0,0,1,6,4.33c6.4,4.73,12.68,9.62,19.15,14.25,3.88,2.77,8.22,4.82,12.29,7.29C111.54,69,112.42,69.2,112.67,70.11Z"></path> <path class="cls-7" d="M154.26,71c-.62.18-1-.38-1.49-.53a89.75,89.75,0,0,1,6.12-8.28Q179.56,35.05,200.32,8a3.49,3.49,0,0,1,1.16-1.24,6.49,6.49,0,0,1,.06,2.4l-15,19.47c-1.33,1.72-2.64,3.45-4,5.18-.22,1.31-1.27,2.13-2,3.13-.83,1.19-1.73,2.34-2.65,3.46-1.76,2-3,4.46-5.09,6.23l-2.82,3.6c-.42,1.7-1.88,2.71-2.77,4.1-.35.54-.83,1-1.18,1.57-.73,1-1.57,2-2.26,3a53.59,53.59,0,0,0-3.43,4.37,4.35,4.35,0,0,1-1.58,1.58Z"></path> <path class="cls-8" d="M70.2,103.88c7.53-1.88,15-4,22.57-5.71,0,1-1.11.87-1.66,1.27a15.75,15.75,0,0,1-3.81,2.36c-.58.21-1,.5-.9,1.19.25,1.09-.09,2.21.14,3.3a1.55,1.55,0,0,1,0,.43,7.57,7.57,0,0,0-.1,1.5,15.82,15.82,0,0,0,0,3.3c.1.54,0,1-.71,1L72.1,104.75A4.64,4.64,0,0,0,70.2,103.88Z"></path> <path class="cls-9" d="M44,110.69a94.78,94.78,0,0,1,11-2.8,11.73,11.73,0,0,1,5.15,3.26c.33,1.13-.05,2.32.32,3.45a3.16,3.16,0,0,1,0,1.3,12.51,12.51,0,0,0-.15,2.52c-.07.54.1,1.24-.75,1.38C54.36,116.76,49,114,44,110.69Z"></path> <path class="cls-4" d="M73.32,43a12.51,12.51,0,0,0-4.92,1.45c-.59-.39-1.15-.15-1.74,0-7.71,2.07-15.43,4.11-23.14,6.2a2.82,2.82,0,0,1-2.42-.26c-2.17-1.3-4.38-2.54-6.57-3.8-.86-.5-1.25-1.13-.56-2.06,2.62,1.55,5.24,3.08,7.85,4.63a1.22,1.22,0,0,0,1,.08l33.3-9a2.22,2.22,0,0,0,.52-.29c.69-.36.79.17.85.62A1.26,1.26,0,0,1,76.66,42,18.44,18.44,0,0,1,73.32,43Z"></path> <path class="cls-10" d="M169.79,93.34c3-1.15,5.53-3.14,8.37-4.57.26-.13.54-.23.81-.35,1.24,1.31,2.49,2.62,3.73,4,.33.35.79.64.79,1.22-.51.86-1.46,1-2.26,1.45-2.2,1.09-4.12,2.7-6.44,3.58A18.11,18.11,0,0,1,169.79,93.34Z"></path> <path class="cls-11" d="M174.42,105.74l-.06-.21c-.26-1.52.06-3-.06-4.57,1.75-1.57,3.92-2.49,5.92-3.67a9.6,9.6,0,0,1,3.08-1.59c.53,1.72.15,3.48.23,5.22a73.64,73.64,0,0,1-8.14,4.88A.74.74,0,0,1,174.42,105.74Z"></path> <path class="cls-9" d="M172.89,46.66c1.5-2.23,3.17-4.34,4.86-6.43,2.09.68,2.23.94,2.26,4.14a19.55,19.55,0,0,0,.25,4,2.26,2.26,0,0,1-.4,2.14A45.26,45.26,0,0,1,172.89,46.66Z"></path> <path class="cls-12" d="M76.94,22c1.38,2.21,2,4.87,4,6.73a1.82,1.82,0,0,1-2-.94c-1.55-2.26-3.14-4.47-4.47-6.89-2.35-4.29-5-8.42-7.5-12.63-.28-.47-.48-1-.72-1.48.22-.94.79-1,1.52-.58l6.42,11.1Q75.55,19.61,76.94,22Z"></path> <path class="cls-13" d="M179.6,44.23a3.48,3.48,0,0,0-1.85-4l4.86-6.39c1.35,1.46,3.32,2,4.87,3.1.1.89-.73.94-1.2,1.32s-1.35.65-1.91,1.16a1.59,1.59,0,0,1-.18.34c-.28.25-.59.47-.89.71a1.12,1.12,0,0,1-.75.23c-1.91.48-2,.6-2.31,2.56C180.18,43.67,180.29,44.22,179.6,44.23Z"></path> <path class="cls-14" d="M59.85,110.94c-1.6-1-3.37-1.84-4.87-3,3.61-1.25,7.37-1.92,11-3,.18.76.91.87,1.44,1.21-.1,1.32-1.33,1.49-2.16,2-.41.28-.94.36-1.22.83a1.44,1.44,0,0,1-.72.47C62.06,109.66,61.16,110.78,59.85,110.94Z"></path> <path class="cls-7" d="M169,64.36,168,65a.35.35,0,0,1-.4,0c-.52-.83-.08-1.64.05-2.45a11.11,11.11,0,0,0-.77,1.59c-.26.56-.55,1.08-1.28,1.07a1.16,1.16,0,0,1-.4-.16c-.6-1.54,1.11-2.09,1.22-3.13-.59.31-1.07,1.53-2.27.81a1.51,1.51,0,0,1,0-1.31c.54-.88,1.75-.62,2.43-1.32-.45-.65-1.6-.5-1.53-1.54a1.43,1.43,0,0,1,.77-1c.78-.26,1.17.41,1.76.75.25-.81-.16-1.57-.11-2.35a1.11,1.11,0,0,1,.29-.57,2.31,2.31,0,0,1,.92-.57.65.65,0,0,1,.4.12c.6.87.08,1.75,0,2.55.52-.91.72-2.07,1.52-2.91a.77.77,0,0,1,.42-.06c.91.47.82,1.14.34,1.86-.33.5-.71,1-1.1,1.58.83-.41,1.34-1.48,2.39-.84a4.77,4.77,0,0,1,0,1.07c-.47,1.1-1.72.95-2.52,1.61.38.64,1.75,0,1.65,1.28a1.87,1.87,0,0,1-.77,1.3c-.78.27-1.15-.49-1.81-.73C169.07,62.52,169.63,63.53,169,64.36Z"></path> <path class="cls-15" d="M174.69,105.74a1.5,1.5,0,0,0-.19-.38c-3.4-2.12-6.92-4-10.38-6-4.63-2.72-9.32-5.34-14-8a12.32,12.32,0,0,1-3.74-2.18c-3.12-1.85-6.3-3.6-9.43-5.44-.65-.38-1.32-1-2.18-.39.67,2.45.59,2.69-1.71,3.68-.76.33-1.38.95-2.35.91-.54,0,.13.35.09.56l10.39,6.07,3.65,2.12h0c5.9,3.41,11.82,6.81,17.7,10.25a7.2,7.2,0,0,0,3.13,1c2.61.23,5.23.42,7.84.71a2.72,2.72,0,0,0,2.36-.72C175.48,107.15,174.52,106.78,174.69,105.74Z"></path> <path class="cls-16" d="M174.42,105.74c2.7-1.1,5.06-2.8,7.62-4.17a12.14,12.14,0,0,1,1.49-.74,3.71,3.71,0,0,1-2.21,4L175.7,108C174.48,107.84,174.12,107,174.42,105.74Z"></path> <path class="cls-17" d="M158.85,64.91a52.07,52.07,0,0,1,4.83-6.15.73.73,0,0,1,.4.61c-.22,2.46.48,4.88.29,7.34a1.35,1.35,0,0,1-.3.68c-1.42-.08-2.38-1.15-3.59-1.69C159.93,65.45,159.4,65.18,158.85,64.91Z"></path> <path class="cls-18" d="M86.36,106.36c-.7-1.29,0-2.75-.45-4.09-.09-.25.36-.61.7-.7,2.36-.58,4-2.55,6.16-3.4l2.17-.57c0,2.53-.14,5.07,0,7.59.09,1.66-.31,2.83-1.9,3.47a5.66,5.66,0,0,1-1.79.76c-.34-1.16.82-1.51,1.23-2.27a8.31,8.31,0,0,0,1-1.8,4.77,4.77,0,0,0,.52-1.76,5.41,5.41,0,0,0,.21-1.6,2.07,2.07,0,0,0-.66-1.45,1.82,1.82,0,0,0-1-.48,2.69,2.69,0,0,0-1.45.22,10.74,10.74,0,0,0-1.22.62,5.12,5.12,0,0,0-1.49,1.62,9.92,9.92,0,0,0-.93,1.3,17.28,17.28,0,0,0-1,2.41Z"></path> <path class="cls-7" d="M87.86,33a40,40,0,0,1,4-5.25c3.16-4,6.4-7.94,9.61-11.9.27-.34.4-.86,1-.79a3.18,3.18,0,0,1-.82,2.18c-4.32,5.32-8.58,10.69-12.86,16Z"></path> <path class="cls-19" d="M183.3,95.7c-1,1.12-2.5,1.61-3.77,2.39-1.66,1-3.39,1.91-5.09,2.86-.29,0-.41-.13-.42-.39.34-.66.16-1.48.66-2.09a68.75,68.75,0,0,1,8.81-4.88A3.8,3.8,0,0,1,183.3,95.7Z"></path> <path class="cls-7" d="M183.19,40.24a1.35,1.35,0,0,1,1-.62c.75.21.33.76.32,1.17s-.42,1.06.16,1.5c.53.11.78-.35,1.14-.57s.84-.75,1.3-.52.2.95.25,1.46a1.35,1.35,0,0,1-.26.32,6.59,6.59,0,0,1-1.8.76c.43.42,1.15.31,1.47.85a1.09,1.09,0,0,1-.58,1.31c-.66.29-1.08-.34-1.66-.47a8.23,8.23,0,0,1-.08,2.11,2.62,2.62,0,0,1-.24.34l-.32.3a.54.54,0,0,1-.59.11c-.87-.8.19-1.9-.43-2.73-.62-.21-.86.38-1.28.6s-.84.74-1.47.53c-.55-.53-.26-1.06,0-1.59.5-.57,1.35-.55,1.87-1.13-.33-.43-1-.25-1.25-.72a1.33,1.33,0,0,1,.91-1.63c.67-.09,1,.49,1.49.87C183,41.67,182.76,40.93,183.19,40.24Z"></path> <path class="cls-20" d="M67.77,6.16a1.66,1.66,0,0,0-1.52.58q-2-1.16-4-2.3L56.19.93c.6-.88,1.21-.84,2.15-.32C61.24,2.2,64,4.08,67,5.46A1.18,1.18,0,0,1,67.77,6.16Z"></path> <path class="cls-21" d="M164.07,67.39l-.39-8.63a13.06,13.06,0,0,1,2.21-3c.49-.25.81-.74,1.32-.94s1-.31.78.55l-.31.37a3.36,3.36,0,0,1-1.81,1.82l-.59.95c-.17,1-.14,2-.9,2.75l0,1.54c.66.52.5,1.43,1,2a.79.79,0,0,0,.26.08c.73.41,1.42-.62,2.17-.07l.29.1A10.35,10.35,0,0,1,164.07,67.39Z"></path> <path class="cls-22" d="M171,62.15l.63-1.22a4.29,4.29,0,0,1,.92-2.71l0-1.2a2.27,2.27,0,0,1-.74-1.42,1,1,0,0,0-.81-.93l-.11,0h-.13c-.6.23-1.18.66-1.87.29h-.23c-.37-.58-.39-.61.27-1,1.08-.74,2.23-1.38,3.34-2.08.83.17.59.82.6,1.34,0,2.34-.12,4.68.05,7a3.15,3.15,0,0,1-2,3.57,4.56,4.56,0,0,1-1.68.59C169,62.94,170.41,62.87,171,62.15Z"></path> <path class="cls-23" d="M63.83,108.88c.25-1.32,1.77-.85,2.42-1.7.3-.39,1-.52,1.19-1.07.65.63.29,1.43.31,2.15.06,1.88,0,3.76.06,5.63a2,2,0,0,1-1.42,2.34c-.85.29-1.45,1.13-2.45,1.11l-.18-.08c0-.4.25-.61.52-.83A5.44,5.44,0,0,0,65.66,115a6.59,6.59,0,0,0,.7-1.2,11.55,11.55,0,0,0,.71-2.3c0-.27,0-.54,0-.8a1.79,1.79,0,0,0-.68-1.55,2,2,0,0,0-.69-.27,3.33,3.33,0,0,0-1.33.12A.74.74,0,0,1,63.83,108.88Z"></path> <path class="cls-24" d="M172.29,51.81c.08.29.18.47-.24.68-1.13.56-2.2,1.24-3.28,1.88-.23.13-.41.32-.09.57l-.69.47c-.07-.51-.34-.56-.69-.24a1.71,1.71,0,0,1-1.41.63,68.07,68.07,0,0,1,4.18-5.54Z"></path> <path class="cls-25" d="M180.2,45.13c-.12.51-.35,1,0,1.52.35.28.46.72.77,1a1.29,1.29,0,0,0,.94.44,7.37,7.37,0,0,1,1.33.08h.61a14.14,14.14,0,0,1-4,2.37c.14-2.12-.48-4.2-.26-6.32.37-.31.28-.73.29-1.12a2.85,2.85,0,0,1,2.47-3c.21,0,.25.25.28.45.08.71-.45.93-.94,1.18a2.18,2.18,0,0,0-.91,1.57A2.68,2.68,0,0,1,180.2,45.13Z"></path> <path class="cls-26" d="M59.86,32.33h-.59c0-1.81,0-3.63,0-5.45a7,7,0,0,1,3,1.78A7.87,7.87,0,0,1,60.63,31,9.93,9.93,0,0,0,59.86,32.33Z"></path> <path class="cls-27" d="M85.71,112.53c.17-.18.5-.44.46-.53-.53-1.27-.09-2.55-.11-3.82.84,0,.77,1,1.36,1.31a3.17,3.17,0,0,0,.49.32c.78.34,1.66-.48,2.4.21A12.1,12.1,0,0,1,85.71,112.53Z"></path> <path class="cls-28" d="M184.19,39.37c.43-1,1.58-1,2.26-1.6.31-.3.85-.34,1-.83a8.08,8.08,0,0,1,.08,4.57c-.45-.46-.73-1-1.16-1.51a2.16,2.16,0,0,0-.62-.41C185.26,39.38,184.67,39.78,184.19,39.37Z"></path> <path class="cls-29" d="M59.54,119.8c.62-.69.19-1.53.32-2.3.09-.56-.23-1.2.31-1.69l.17.1c.34.38.49.92,1,1.18a2.08,2.08,0,0,0,1,.17c.45,0,.92,0,1.25.39C62.25,118.46,61.17,119.64,59.54,119.8Z"></path> <path class="cls-30" d="M187,42.76l.22-.1c.1-.12.2-.11.29,0,.85,2.95-.16,4.53-3.31,5.21a.31.31,0,0,1,0-.28c.47-.75.88-1.55,1.84-1.79a2.48,2.48,0,0,0,.57-1.29A2.44,2.44,0,0,1,187,42.76Z"></path> <path class="cls-31" d="M90.31,110c-.91-.21-1.81.76-2.73,0,.48-1,1.06-1.92,1.47-2.94.17-.42.43-.89.94-.81.66.09.37.69.43,1.1.08.6-.34,1.3.32,1.8a.75.75,0,0,1,.28.28Z"></path> <path class="cls-32" d="M171,62.15c-.31,1-1.47,1.21-1.78,2.16a1.09,1.09,0,0,1-.26,0,9,9,0,0,0-.25-2.68c-.09-.27-.18-.64.11-.83s.52.13.75.31C170,61.52,170.27,62.18,171,62.15Z"></path> <path class="cls-33" d="M91,109.46l-.4-.06a12.46,12.46,0,0,1-.2-2.66c0-.36-.14-.84.34-1s.86.12,1.2.41a2,2,0,0,1,.82,1.21c-.4.78-1.3,1.2-1.53,2.11l-.12,0Z"></path> <path class="cls-34" d="M187.48,42.67h-.15l-.14,0V41.37a4.25,4.25,0,0,0-1.76,1.11c-.27.24-.51.73-1,.22a1.49,1.49,0,0,0,0-.21,8.2,8.2,0,0,1,2.08-2.8,3.59,3.59,0,0,1,1,1.82C187.53,41.9,187.51,42.28,187.48,42.67Z"></path> <path class="cls-35" d="M63.53,117.65,62,117.6A3.81,3.81,0,0,1,63,114.43c.61-.36.71.13.74.52a12.61,12.61,0,0,0,0,2.38h.21Z"></path> <path class="cls-36" d="M174.1,100.6c-2.15-1.24-4.3-2.47-6.44-3.72-1.27-.75-2.11-3.52-1.43-4.71a.69.69,0,0,1,1-.24c.53.28,1.09.52,1.63.78l.89.63,4.9,5.13C174.49,99.18,175.16,100.13,174.1,100.6Z"></path> <path class="cls-37" d="M174.44,101l-.34-.35c-.25-.76-1-1-1.56-1.35l-4.33-2.48a3.05,3.05,0,0,1-1.65-3c.05-1.36.08-1.41,1.48-1a.9.9,0,0,0,.86,0c-.11-1.28-1.35-1.68-2.05-2.49a25.63,25.63,0,0,0-3.28-3.31c-2.81-2.3-5.07-3.06-9.24-5.49-.1-.06-15.29-8.86-20.51-11.63-4-2.14-7.87-4.68-11.84-7-4.54-2.63-9.14-5.14-13.68-7.77-6.07-3.5-12.1-7.08-18.17-10.59C87,42.61,83.75,40.82,80.55,39c-2-1.13-3.8-2.65-6-3.34-4.1-1.1-7.34-3.68-10.67-6.12-.48-.34-.88-.82-1.51-.89-1.15,1-2.42,1.92-2.46,3.66a.71.71,0,0,0,1-.08c1.36-1.08,2.48-.5,3.69.31a43.34,43.34,0,0,0,5.31,3.18A63.92,63.92,0,0,1,76.66,40c.9.87.77,1.41-.33,1.83s-2.24.2-3,1.18c4.43,3.29,8.82,6.63,13.29,9.87,5.15,3.74,10,8,15.55,11.13,3.52,2,7,4.08,10.51,6.12,3.67,1.66,7,4,10.52,5.9,3.13,1.71,6.22,3.5,9.29,5.31.79.47,1.91.67,2,1.9h.15l.15,0c.86-.24,1.42.41,2.05.76,3.18,1.77,6.33,3.59,9.49,5.39.77-1,0-2.69,1.49-3.57,0,.56-.37.84-.46,1.21a2.43,2.43,0,0,0,.44,2.56,2.49,2.49,0,0,0,2.84.41c1.27-.55,1.24-1.71,1.16-2.85a3.88,3.88,0,0,1-.78-2.32,1.55,1.55,0,0,1,.53-1.27c.11.51.56.85.7,1.35.14.27.15.62.36.85a.54.54,0,0,1-.07.13,6.62,6.62,0,0,0-.26,1.53,2.66,2.66,0,0,1-1.11,2.76c-.45.38-1.06.61-1.2,1.29,3.5,2.3,7.2,4.26,10.83,6.34,4.5,2.59,9,5.14,13.54,7.71A7.62,7.62,0,0,0,174.44,101ZM154.82,88.29c-.89-.48-.7-1.34-.75-2.1a1.92,1.92,0,0,0-.2-.79,1.55,1.55,0,0,0,.76.13,2.87,2.87,0,0,1,.5,1.45C155.09,87.4,155.3,87.89,154.82,88.29Z"></path> <path class="cls-26" d="M74.5,35.68a5.9,5.9,0,0,1-4-1.17c-2.31-1.53-4.92-2.66-6.68-4.95A77.28,77.28,0,0,1,74.5,35.68Z"></path> <path class="cls-37" d="M152.43,87.44c.74.85.24,1.59-.24,2.28a8,8,0,0,1-2.2,1.76c-1.5-.79-2-1-3.64-2.08,0-1.34-.24-2.72.86-3.83a.8.8,0,0,1,1.19-.11c.47.33.19.6-.08.84a2.09,2.09,0,0,0-.42,2.86,2,2,0,0,0,2.16.71c1.33-.2,1.34-1.28,1.5-2.25a3.53,3.53,0,0,0,0-.46A.66.66,0,0,1,152.43,87.44Z"></path> <path class="cls-7" d="M92.78,107.31C92,107,91.58,105.66,91,106c-.92.46.1,1.5,0,2.31a2,2,0,0,1-.34,1.11c-.38.14-.93.68-.75-.37.13-.83.16-1.68.27-2.77-1.3,1.16-1.06,3.07-2.56,3.77l-.36-.27c-.15-1.61,1.18-2.4,1.68-3.35-.31.2-.71.73-1.23,1.11s-.81.62-1.22.38-.26-.79-.12-1.23l0-.31,0,0c.45-.87,1.51-.68,2.16-1.24-.29-.61-1.66-.34-1.28-1.52a2.73,2.73,0,0,1,.93-1.24c.6.05.83.7,1.37.87.33-.87-.56-1.81.19-2.63l1.18-.63c.71,1,.2,1.9,0,2.72.82-.76.6-2.36,1.86-3a1.24,1.24,0,0,1,.93.56c.12,1.53-1.37,2.11-1.77,3.12.68-.57,1.27-1.64,2.59-1.52a2.21,2.21,0,0,1-.24,1.77c-.52.64-1.48.51-2,1.13.4.46,1.1.21,1.45.7A3.27,3.27,0,0,1,92.78,107.31Z"></path> <path class="cls-38" d="M86.33,106.67c0,.92.12,1.45,1.09.62a3.59,3.59,0,0,1,1.87-1.17c-.73,1.27-1.4,2.46-2.07,3.64-.69-.3-.71-1.1-1.16-1.58C86.13,107.67,85.89,107.11,86.33,106.67Z"></path> <path class="cls-7" d="M63.73,117.33c-.86-.21-.43-.89-.46-1.37s.4-.9,0-1.61c-.46,1.2-1.36,2-1.35,3.25a.76.76,0,0,1-1-.22c-.3-1.35.78-2,1.33-2.86-.59.49-1.06,1.4-2.15,1.27l0,0-.05-1.25a.35.35,0,0,1,.06-.39c.5-.4,1.18-.42,1.83-.81-.45-.5-1.3-.68-1.16-1.52a1.32,1.32,0,0,1,.79-1c.57-.09.79.52,1.36.66.08-.73-.33-1.45,0-2.14a.61.61,0,0,1,.32-.25c.21,0,.41,0,.5-.25l.6-.07a6.08,6.08,0,0,1,0,2.21c0,.45.12.68.61.52.83-.23,1.29-1.45,2.4-.89v.89c-.39.77-1.21,1-1.9,1.41.13.61,1.23.23,1.1,1.07l-.7,1.17c-.54.5-.85-.34-1.3-.29-.22.63.31,1.28-.24,1.79Z"></path> <path class="cls-39" d="M63.33,109.13l-.13.28A2.33,2.33,0,0,1,61.72,111l-.66.86c-.21.86,0,1.86-.83,2.5a2.26,2.26,0,0,1-.11.22c-.56-1.17-.11-2.42-.27-3.62A7.87,7.87,0,0,1,63.33,109.13Z"></path> <path class="cls-40" d="M184.19,39.37c.6.13,1.19-.63,1.81,0-.2,1.26-1.06,2.23-1.54,3.37h0c-.67-.29-.63-.83-.48-1.39a2.59,2.59,0,0,0,.16-1.69A2.17,2.17,0,0,1,184.19,39.37Z"></path> <path class="cls-41" d="M181.7,41.74l.94-1.18.55-.32c-.18.95.68,1.88.07,2.92Z"></path> <path class="cls-42" d="M171,54.67c1.41.2,1.17,1.48,1.55,2.35-1.26,0-1.75,1.36-3,1.83A5.87,5.87,0,0,1,171,56.3C171.45,55.74,171.79,55.21,171,54.67Z"></path> <path class="cls-43" d="M164.38,61.3a8.55,8.55,0,0,1,.9-2.75c0,.81.78.64,1.22.87s.76.14.77.58-.46.5-.75.62C165.82,60.88,165.09,61.07,164.38,61.3Z"></path> <path class="cls-44" d="M165.31,64.88a2.34,2.34,0,0,1-1-2c1.21-.3,1.92-1.36,3.13-2.11C167,62.43,165.43,63.29,165.31,64.88Z"></path> <path class="cls-45" d="M172.55,58.22a9,9,0,0,1-.92,2.71c-.43-1-1.71-.2-2.21-1.14C170.28,58.92,171.59,58.92,172.55,58.22Z"></path> <path class="cls-46" d="M167.74,64.89c-.72.15-1.43.69-2.17.07.71,0,.82-.56,1-1.09a7.65,7.65,0,0,1,1.52-2.41Z"></path> <path class="cls-47" d="M165.87,57.6a8.22,8.22,0,0,1,1.81-1.82l.55,3.26C167.09,58.93,166.89,57.63,165.87,57.6Z"></path> <path class="cls-42" d="M168.91,54.93a3.44,3.44,0,0,1,1.87-.29L169,58.38C168.57,57.18,169.27,56.06,168.91,54.93Z"></path> <path class="cls-48" d="M92.77,99.7c-.72,1.18-.93,2.62-2,3.83-.46-1.29.4-2.41.11-3.54A2.68,2.68,0,0,1,92.77,99.7Z"></path> <path class="cls-49" d="M87.26,103.62c.29,1,1.36.84,2,1.42-.75.9-1.94.88-2.89,1.34A4.3,4.3,0,0,1,87.26,103.62Z"></path> <path class="cls-50" d="M94.52,101.86l-3,2-.16-.11,2.3-3.49A1.75,1.75,0,0,1,94.52,101.86Z"></path> <path class="cls-51" d="M89.75,100.62c-.1,1.13.59,2.23.11,3.51a6.43,6.43,0,0,1-1.67-1.75A3.57,3.57,0,0,1,89.75,100.62Z"></path> <path class="cls-52" d="M93.68,105.46a4.33,4.33,0,0,1-2.5-.57,6,6,0,0,1,3.1-1.26A2,2,0,0,1,93.68,105.46Z"></path> <path class="cls-53" d="M186,45.81c-.65.56-1,1.43-1.84,1.79a8.94,8.94,0,0,0-.38-3C184.91,44.7,185.14,45.85,186,45.81Z"></path> <path class="cls-54" d="M180.2,45.13a2.18,2.18,0,0,1,.59-1.82,3.87,3.87,0,0,1,2.17.56A7,7,0,0,1,180.2,45.13Z"></path> <path class="cls-55" d="M183.24,48.19c-.45.45-1,.26-1.54.26-.39-1.23.68-1.93,1.06-2.88l.18-.13c.66-.27.68.15.54.57A6.2,6.2,0,0,0,183.24,48.19Z"></path> <path class="cls-56" d="M187,42.76a1.82,1.82,0,0,1-.37,1.76c-.69-.08-1.78-.11-1.84-.68-.08-.82,1.13-.45,1.64-.88A1.67,1.67,0,0,1,187,42.76Z"></path> <path class="cls-57" d="M180.76,47.88a1.1,1.1,0,0,1-.56-1.23c.66-.5,1.33-1,2-1.52.47-.37.7-.26.76.31h0C182.17,46.21,182,47.49,180.76,47.88Z"></path> <path class="cls-58" d="M65.05,111.86c-.63.51-1.18.24-1.06-.42a7.13,7.13,0,0,1,.44-2.63c.44-.48,1-.28,1.53-.27,0,1.13-1,2-.94,3.12Z"></path> <path class="cls-59" d="M66.64,114l-2.27-.89,3.07-1.59A8.67,8.67,0,0,1,66.64,114Z"></path> <path class="cls-60" d="M67.44,110.65c-1-.06-1.45,1.11-2.39,1.21h0c-.12-1.33.81-2.14,1.54-3A1.91,1.91,0,0,1,67.44,110.65Z"></path> <path class="cls-61" d="M64.4,116.69c0-.1,0-.2,0-.3-.08-.75-.72-1.71,0-2.19s.79,1,1.57,1A3.49,3.49,0,0,1,64.4,116.69Z"></path> <path class="cls-62" d="M66.57,108.81c-.09,1.23-1.35,1.86-1.54,3-.46,0-.62-.23-.41-.68A9.89,9.89,0,0,1,66,108.54Z"></path> <path class="cls-63" d="M180.76,47.88c.7-.84,1.05-2,2.19-2.45,0,1.17-1.1,1.9-1.25,3A.83.83,0,0,1,180.76,47.88Z"></path> <path class="cls-63" d="M184.46,42.7A5.9,5.9,0,0,1,186,39.33l.57.36A10.36,10.36,0,0,1,184.46,42.7Z"></path> <path class="cls-64" d="M60.19,115.79l2.6-1.84c-.35,1.43-1.59,2.17-1.78,3.43A1.93,1.93,0,0,1,60.19,115.79Z"></path> <path class="cls-65" d="M114.12,63.23a5.54,5.54,0,0,1,0,.63c-.22.67.55,2-.65,1.92a2.34,2.34,0,0,1-2.38-2,26.92,26.92,0,0,1,0-3.48c0-.89.49-.91,1.23-.63C114.13,60.44,114.3,61.9,114.12,63.23Z"></path> <path class="cls-66" d="M90.05,49.57a1.61,1.61,0,0,1,0,.31c-.2.71.51,1.73-.57,2.11-.75.27-2.42-1.3-2.49-2.29s0-2.12,0-3.19c0-.83.47-1,1.08-.7,1.13.52,2.17,1.18,2,2.7A7.5,7.5,0,0,0,90.05,49.57Z"></path> <path class="cls-67" d="M138.09,78.08l-.27.86c-.79.49-2.2-.31-2.37-1.37a8.52,8.52,0,0,1,0-1.82c0-.57-.23-1.37.62-1.49a1.61,1.61,0,0,1,1.83,1.26A19.79,19.79,0,0,1,138.09,78.08Z"></path> <path class="cls-68" d="M138.09,78.08c-.46-.47-.21-1-.24-1.58a1.73,1.73,0,0,0-.5-1.37c-.42-.32-.88-.87-1.44-.63s-.19.81-.25,1.24a3.09,3.09,0,0,0,1.39,3.33c.41.26.52-.1.77-.13.38.55.43,1-.43.86a3,3,0,0,1-2.29-3,12.32,12.32,0,0,1,0-1.36c.11-.68-.43-1.84.6-1.9a2.25,2.25,0,0,1,2.38,1.73A5,5,0,0,1,138.09,78.08Z"></path> <path class="cls-69" d="M140.74,79.29c-.11.23.47,1.25-.43,1.17-1.31-.12-1.57-1.26-1.42-2.4.06-.51-.35-1.52.51-1.42C140.62,76.79,141,77.82,140.74,79.29Z"></path> <path class="cls-70" d="M116.75,65.15c-.13.44.37,1.38-.45,1.41A1.48,1.48,0,0,1,114.8,65a2.69,2.69,0,0,1,0-.75c.14-.52-.4-1.46.45-1.5a1.46,1.46,0,0,1,1.5,1.57C116.76,64.56,116.75,64.81,116.75,65.15Z"></path> <path class="cls-71" d="M92.66,51.26c-.13.42.31,1.35-.44,1.4a1.5,1.5,0,0,1-1.51-1.56,3.74,3.74,0,0,1,0-.75c.09-.54-.37-1.45.41-1.51a1.48,1.48,0,0,1,1.52,1.55C92.68,50.64,92.66,50.89,92.66,51.26Z"></path> <path class="cls-72" d="M101.55,56.54c-.2.38.36,1.25-.49,1.27a1.43,1.43,0,0,1-1.37-1.21,2.37,2.37,0,0,1-.06-1.05c.18-.53-.48-1.57.56-1.55a1.5,1.5,0,0,1,1.36,1.72C101.54,56,101.55,56.22,101.55,56.54Z"></path> <path class="cls-73" d="M131.48,73.8c-.23.36.49,1.31-.46,1.3a1.43,1.43,0,0,1-1.39-1.5,3.38,3.38,0,0,1,0-.9c.13-.49-.47-1.42.48-1.41a1.37,1.37,0,0,1,1.36,1.5Z"></path> <path class="cls-74" d="M123.71,69.16c.27-.33-.43-1.3.5-1.29a1.47,1.47,0,0,1,1.41,1.5,2.41,2.41,0,0,1,0,.89c-.16.5.44,1.44-.51,1.43a1.46,1.46,0,0,1-1.39-1.51C123.7,69.88,123.71,69.58,123.71,69.16Z"></path> <path class="cls-75" d="M126.66,70.83c.11-.34-.34-1.22.37-1.27A1.42,1.42,0,0,1,128.51,71a3.76,3.76,0,0,1,0,1.06c-.1.47.4,1.32-.43,1.34A1.42,1.42,0,0,1,126.66,72C126.63,71.69,126.66,71.34,126.66,70.83Z"></path> <path class="cls-76" d="M134.4,75.61c-.13.24.48,1.28-.45,1.17-1.48-.17-1.43-1.47-1.35-2.6,0-.44-.27-1.29.43-1.2C134.32,73.15,134.67,74.17,134.4,75.61Z"></path> <path class="cls-77" d="M143.72,80.86c-.25.35.49,1.32-.47,1.31a1.46,1.46,0,0,1-1.4-1.53,2.76,2.76,0,0,1,0-.76c.15-.52-.4-1.47.43-1.51A1.42,1.42,0,0,1,143.73,80C143.72,80.24,143.72,80.49,143.72,80.86Z"></path> <path class="cls-78" d="M146.72,82.53c-.28.36.44,1.32-.55,1.31a1.35,1.35,0,0,1-1.32-1.41,3.08,3.08,0,0,1,0-.91c.13-.52-.41-1.46.42-1.47a1.46,1.46,0,0,1,1.45,1.63C146.71,81.93,146.72,82.19,146.72,82.53Z"></path> <path class="cls-79" d="M110.4,61.59c-.24.36.44,1.3-.47,1.32a1.42,1.42,0,0,1-1.4-1.48,2.05,2.05,0,0,1,0-.74c.18-.55-.49-1.56.45-1.58a1.48,1.48,0,0,1,1.43,1.76C110.38,61.07,110.4,61.27,110.4,61.59Z"></path> <path class="cls-80" d="M117.81,65.71c.18-.31-.45-1.35.48-1.25,1.32.14,1.51,1.31,1.35,2.44-.07.48.36,1.43-.41,1.36C117.94,68.14,117.62,67.06,117.81,65.71Z"></path> <path class="cls-81" d="M122.62,68.65c-.14.42.36,1.3-.36,1.35a1.48,1.48,0,0,1-1.5-1.43,2.72,2.72,0,0,1,0-.9c.13-.52-.4-1.47.44-1.49a1.44,1.44,0,0,1,1.42,1.64C122.61,68.07,122.62,68.33,122.62,68.65Z"></path> <path class="cls-82" d="M98.55,54.74c-.25.35.46,1.32-.5,1.3a1.38,1.38,0,0,1-1.37-1.52,3.21,3.21,0,0,1,0-.76c.15-.51-.43-1.45.4-1.49a1.4,1.4,0,0,1,1.46,1.59C98.54,54.12,98.55,54.37,98.55,54.74Z"></path> <path class="cls-83" d="M107.41,59.93c-.21.35.41,1.22-.41,1.26a1.43,1.43,0,0,1-1.43-1.32,2.86,2.86,0,0,1,0-1c.13-.5-.45-1.43.48-1.43a1.42,1.42,0,0,1,1.37,1.53Z"></path> <path class="cls-84" d="M104.43,58.16c-.2.36.46,1.29-.48,1.31a1.48,1.48,0,0,1-1.38-1.4,2.71,2.71,0,0,1,0-.9c.12-.53-.4-1.48.42-1.51a1.44,1.44,0,0,1,1.44,1.62C104.42,57.54,104.43,57.79,104.43,58.16Z"></path> <path class="cls-85" d="M95.56,53.05c-.17.38.35,1.26-.34,1.32A1.45,1.45,0,0,1,93.72,53a3.09,3.09,0,0,1,0-.91c.13-.52-.43-1.46.44-1.49a1.43,1.43,0,0,1,1.42,1.63C95.55,52.44,95.56,52.7,95.56,53.05Z"></path> <path class="cls-86" d="M149.28,85.39a2.7,2.7,0,0,1-1.45-3.32c.19-.52.45-.38.8-.21C149.79,82.41,150,83.35,149.28,85.39Z"></path> <path class="cls-87" d="M152.43,87.44l-.87-.28c-.95-.59-.87-1.54-.82-2.47.78,0,1.28.3,1.54,1.39,0-.69-.2-1.15.26-1.39.41.34.18.84.32,1.25A3.42,3.42,0,0,1,152.43,87.44Z"></path> <path class="cls-88" d="M152.54,84.69c-.12.41.14.89-.24,1.38a4.89,4.89,0,0,0-1.56-1.38c-.18-.7-.2-1.3.82-1.18A3.29,3.29,0,0,1,152.54,84.69Z"></path> <path class="cls-89" d="M159.28,88.08c2.2.28,3,1.1,2.81,3.23-.06.72.67,1.68-.43,2.21a.2.2,0,0,1-.15,0s-.12-.07-.12-.1c0-.46-.07-.57-.36-.68a2.29,2.29,0,0,1-1.6-2.46A14.84,14.84,0,0,0,159.28,88.08Z"></path> <path class="cls-90" d="M156.68,88.21c.16-.38-.36-1.26.38-1.31a1.44,1.44,0,0,1,1.48,1.43,2.72,2.72,0,0,1,0,.9c-.15.51.45,1.43-.44,1.47a1.42,1.42,0,0,1-1.42-1.49C156.67,88.91,156.68,88.61,156.68,88.21Z"></path> <path class="cls-87" d="M155.52,86.88a2.72,2.72,0,0,1,0,.75c-.11.48.38,1.33-.43,1.36a1.4,1.4,0,0,1-1.42-1.33,12.34,12.34,0,0,1,0-1.36C154.55,85.81,155,86.51,155.52,86.88Z"></path> <path class="cls-87" d="M155.52,86.88c-.71.15-1.14-.53-1.79-.58,0-.32,0-.64,0-1,.43-.55.82,0,1.23,0C155.24,85.83,155.64,86.24,155.52,86.88Z"></path> <path class="cls-91" d="M60.23,114.34a7.6,7.6,0,0,1,.83-2.5.84.84,0,0,0,.8.9c.39.06.92.06.89.58s-.62.42-1,.56A11.39,11.39,0,0,1,60.23,114.34Z"></path> <path class="cls-92" d="M61.72,111c.27-.74,1.05-1,1.48-1.57,0,.3,0,.61,0,.91,0,.66.75,1.57,0,1.9S62.31,111.33,61.72,111Z"></path> <path class="cls-93" d="M111.65,60.49c1.59.52,2.6,3,1.84,4.17a.39.39,0,0,1-.51.17c-.63-.24-1.27-.55-1.32-1.31C111.6,62.52,111.65,61.52,111.65,60.49Z"></path> <path class="cls-94" d="M89.44,51a3.11,3.11,0,0,1-1.86-4c.13-.3.34-.39.58-.27.52.26,1.22.42,1.26,1.15C89.48,48.91,89.44,50,89.44,51Z"></path> </g> </g> </svg> 