<?xml version="1.0" encoding="UTF-8"?> <svg xmlns="http://www.w3.org/2000/svg" viewBox="0 0 147 147"> <defs> <style>.cls-1{fill:#c5ef60;stroke:#005b6e;stroke-miterlimit:10;stroke-width:7px;}.cls-2{fill:#005b6e;}</style> </defs> <title>6-8</title> <g id="Слой_2" data-name="Слой 2"> <g id="Слой_37" data-name="Слой 37"> <circle class="cls-1" cx="73.5" cy="73.5" r="70"></circle> <path class="cls-2" d="M54.21,54.66a1.3,1.3,0,0,1,1,1.26v5.34a.81.81,0,0,1-.36.72,1.13,1.13,0,0,1-.9.12q-1.8-.3-3.84-.48t-3.78-.18a10.9,10.9,0,0,0-3.6.51,5.88,5.88,0,0,0-2.31,1.41,5,5,0,0,0-1.23,2.19,10.83,10.83,0,0,0-.36,2.91V70.2a9.19,9.19,0,0,1,1.41-.42q.81-.18,1.71-.3t1.8-.21q.9-.09,1.62-.09,6.6,0,9.72,3.21a11.91,11.91,0,0,1,3.12,8.67V83q0,6.48-4,10t-11.1,3.51q-7.68,0-11.4-3.81T28.05,81.54V69.42a21.24,21.24,0,0,1,1-6.63,14,14,0,0,1,3-5.19,13.33,13.33,0,0,1,5-3.36A19.25,19.25,0,0,1,44.13,53a31.55,31.55,0,0,1,5.37.45A30.58,30.58,0,0,1,54.21,54.66ZM42.63,77.4q-.9,0-1.89.06t-1.89.18V82a10.57,10.57,0,0,0,.81,4.62q.81,1.62,3.45,1.62a3.76,3.76,0,0,0,3.39-1.41,6.6,6.6,0,0,0,.93-3.69v-1a5.6,5.6,0,0,0-1-3.42Q45.39,77.4,42.63,77.4Z"></path> <path class="cls-2" d="M64.23,80Q63.09,80,63.09,79V72.78q0-1.08,1.14-1.08H82.71q1.14,0,1.14,1.08V79q0,1.08-1.14,1.08Z"></path> <path class="cls-2" d="M89.79,64.92q0-6.12,3.9-9T104.37,53q6.9,0,10.71,2.91T118.89,65a10.09,10.09,0,0,1-1.17,4.83,10.52,10.52,0,0,1-3.87,3.87,14.13,14.13,0,0,1,4.62,4.2,10.32,10.32,0,0,1,1.8,6.06q0,6.24-3.84,9.36t-12.06,3.12q-8.22,0-12.09-3.15T88.41,84a10.7,10.7,0,0,1,1.5-5.58,10.93,10.93,0,0,1,4.5-4.08,13.24,13.24,0,0,1-3.36-4A11.13,11.13,0,0,1,89.79,64.92ZM102,77.76a8.33,8.33,0,0,0-2.16,2.46,6.73,6.73,0,0,0-.78,3.36,4.33,4.33,0,0,0,1.38,3.54,6,6,0,0,0,3.9,1.14,5.64,5.64,0,0,0,3.87-1.2,4.41,4.41,0,0,0,1.35-3.48,4,4,0,0,0-1.71-3.33A19.09,19.09,0,0,0,102,77.76Zm6.48-12.42a5,5,0,0,0-.93-3.3,5.24,5.24,0,0,0-6.45.06,4.69,4.69,0,0,0-1,3.12,4.55,4.55,0,0,0,1.32,3.36,11.37,11.37,0,0,0,4.56,2.34,7.26,7.26,0,0,0,1.89-2.58A7.78,7.78,0,0,0,108.51,65.34Z"></path> </g> </g> </svg> 