<svg width="16" height="16" viewBox="0 0 16 16" fill="none" xmlns="http://www.w3.org/2000/svg">
<g clip-path="url(#clip0)">
<path d="M11.7036 15.8401L12.5051 15.0386C12.6121 14.9318 12.6655 14.8087 12.6655 14.6696C12.6655 14.5309 12.6121 14.4079 12.5051 14.3011L6.2044 8.00008L12.5049 1.69934C12.612 1.59248 12.6653 1.4695 12.6653 1.33058C12.6653 1.1916 12.612 1.06862 12.5049 0.961812L11.7034 0.160377C11.5966 0.0533466 11.4736 -5.20985e-08 11.3346 -5.81736e-08C11.1957 -6.42438e-08 11.0728 0.053515 10.966 0.160377L3.49485 7.63132C3.38798 7.73812 3.33458 7.86116 3.33458 8.00008C3.33458 8.13901 3.38798 8.26182 3.49485 8.36857L10.966 15.8401C11.0728 15.9469 11.1958 16 11.3346 16C11.4736 16 11.5966 15.9469 11.7036 15.8401Z" fill="white"/>
</g>
<defs>
<clipPath id="clip0">
<rect x="16" width="16" height="16" rx="2" transform="rotate(90 16 0)" fill="white"/>
</clipPath>
</defs>
</svg>
