<svg width="16" height="16" viewBox="0 0 16 16" fill="none" xmlns="http://www.w3.org/2000/svg">
<g clip-path="url(#clip0)">
<path d="M4.29646 0.15987L3.49497 0.961416C3.38794 1.06822 3.33459 1.19126 3.33459 1.33035C3.33459 1.46911 3.38794 1.59209 3.49497 1.69889L9.79566 7.99992L3.49514 14.3007C3.38811 14.4075 3.33476 14.5305 3.33476 14.6694C3.33476 14.8084 3.38811 14.9314 3.49514 15.0382L4.29669 15.8396C4.40349 15.9467 4.52647 16 4.66545 16C4.80432 16 4.9273 15.9465 5.03411 15.8396L12.5052 8.36868C12.6121 8.26188 12.6655 8.13884 12.6655 7.99992C12.6655 7.86099 12.6121 7.73818 12.5052 7.63143L5.03411 0.15987C4.92724 0.0530644 4.80427 1.75257e-08 4.66545 1.58703e-08C4.52647 1.4213e-08 4.40349 0.0530644 4.29646 0.15987Z" fill="white"/>
</g>
<defs>
<clipPath id="clip0">
<rect y="16" width="16" height="16" rx="2" transform="rotate(-90 0 16)" fill="white"/>
</clipPath>
</defs>
</svg>
