<?xml version="1.0" encoding="UTF-8"?> <svg xmlns="http://www.w3.org/2000/svg" xmlns:xlink="http://www.w3.org/1999/xlink" viewBox="0 0 501.83 272.8"> <defs> <style>.cls-1{fill:none;}.cls-2{fill:#fefefe;}.cls-3{clip-path:url(#clip-path);}.cls-4{fill:#e9f4f2;}.cls-5{fill:#fcc142;}.cls-6{fill:#ea990a;}</style> <clipPath id="clip-path" transform="translate(-25.99 -9.29)"> <path class="cls-1" d="M0,0A812.19,812.19,0,0,1,156.67,64.67C185.14,80,196.46,88.32,222.29,101.8c37.84,19.76,93.37,43.67,168.38,59.53L200,310Z"></path> </clipPath> </defs> <title>Самолётик бумажный 1</title> <g id="Слой_2" data-name="Слой 2"> <g id="Слой_11" data-name="Слой 11"> <path class="cls-2" d="M209.94,278.31c-6.67,5.35-6.65,5.34-11.54-2.16-2-3-4-5.94-6.05-8.91-12.32-19.17-24.58-38.36-36.95-57.49q-63.42-98-126.89-196c-.8-1.23-1.55-2.48-2.52-4,3.94-1.08,7.26.4,10.49,1,23.26,4.14,46.46,8.57,69.67,12.93a11.88,11.88,0,0,1,1.85.7c.23,4-1.2,5.21-5.56,4.8C96.92,28.56,92,26,86.57,25c-2.39-.44-5-.45-6.57-1.77,5.46,2.18,11.93,3.07,18.09,5.14,14.67,4.91,29,10.64,43.67,15.61,12,4.07,23.77,8.59,35.65,12.9C192.25,62.23,207.09,67.65,222,73c14.09,5,28.34,9.65,42.13,15.41,9.65,4,19.67,7,29.45,10.53,9.95,3.58,19.65,8.15,30.06,10.51,3.41.78,6.45,2.66,9.73,3.85,17,6.12,34,12.39,51.15,18.1,2.32.77,5,1.65,3.57,5.18l-3,1c-3.92,1.85-7.51.9-11.46-.51-34.19-12.18-68.28-24.63-102.4-37Q212,78.56,152.89,57.06c-28.31-10.32-56.71-20.38-85-30.78C57.29,22.38,47.09,17.45,38.28,14c11.17,4.7,24.07,10,36.68,16.07C87.87,36.28,100.56,43,113.58,48.9s25.35,12.62,38.14,18.67c23.64,11.17,47,22.83,70.57,34.23,24.58,11.91,49.1,23.93,73.7,35.79,11.7,5.64,23.32,11.45,35,17.17,2.18,1.07,4.79,1.88,5,5-1.69,5.15-6,8.27-9.66,11.71-11.3,10.47-22.67,20.86-33.55,31.77a13.09,13.09,0,0,1-7.64,4.14Q258,232.83,230.84,258.28C223.81,264.89,216.9,271.63,209.94,278.31Z" transform="translate(-25.99 -9.29)"></path> <g class="cls-3"> <path class="cls-4" d="M209.94,278.31c-6.67,5.35-6.65,5.34-11.54-2.16-2-3-4-5.94-6.05-8.91-12.32-19.17-24.58-38.36-36.95-57.49q-63.42-98-126.89-196c-.8-1.23-1.55-2.48-2.52-4,3.94-1.08,7.26.4,10.49,1,23.26,4.14,46.46,8.57,69.67,12.93a11.88,11.88,0,0,1,1.85.7c.23,4-1.2,5.21-5.56,4.8C96.92,28.56,92,26,86.57,25c-2.39-.44-5-.45-6.57-1.77,5.46,2.18,11.93,3.07,18.09,5.14,14.67,4.91,29,10.64,43.67,15.61,12,4.07,23.77,8.59,35.65,12.9C192.25,62.23,207.09,67.65,222,73c14.09,5,28.34,9.65,42.13,15.41,9.65,4,19.67,7,29.45,10.53,9.95,3.58,19.65,8.15,30.06,10.51,3.41.78,6.45,2.66,9.73,3.85,17,6.12,34,12.39,51.15,18.1,2.32.77,5,1.65,3.57,5.18l-3,1c-3.92,1.85-7.51.9-11.46-.51-34.19-12.18-68.28-24.63-102.4-37Q212,78.56,152.89,57.06c-28.31-10.32-56.71-20.38-85-30.78C57.29,22.38,47.09,17.45,38.28,14c11.17,4.7,24.07,10,36.68,16.07C87.87,36.28,100.56,43,113.58,48.9s25.35,12.62,38.14,18.67c23.64,11.17,47,22.83,70.57,34.23,24.58,11.91,49.1,23.93,73.7,35.79,11.7,5.64,23.32,11.45,35,17.17,2.18,1.07,4.79,1.88,5,5-1.69,5.15-6,8.27-9.66,11.71-11.3,10.47-22.67,20.86-33.55,31.77a13.09,13.09,0,0,1-7.64,4.14Q258,232.83,230.84,258.28C223.81,264.89,216.9,271.63,209.94,278.31Z" transform="translate(-25.99 -9.29)"></path> </g> <path class="cls-2" d="M388.05,136.53c-.49-1.95-2.15-2.37-3.75-2.87-11.6-3.62-22.83-8.41-34.41-11.89-11.09-3.33-21.65-8-32.54-11.74-11.09-3.81-22.23-7.7-33.23-11.89q-25.56-9.7-51.29-19C211.27,71.37,189.6,63.86,168,56.09S124.9,40.37,103.34,32.51C94,29.11,84.69,25.74,74.75,22.14c3.49-1.68,5.46.69,7.79,1,7.1.85,14.06,2.37,21,3.88,2.35.51,3.93-.22,4.44-2.71,17.35,3.14,34.72,6.18,52.05,9.42Q327.18,64.94,494.29,96.26l33.53,6.29c-3.64,2.27-7.25,2.43-10.6,3.24Q454.61,120.92,392,135.89C390.69,136.2,389.36,136.32,388.05,136.53Z" transform="translate(-25.99 -9.29)"></path> <path class="cls-5" d="M335,160.18c-.4-1.8-2.07-2.05-3.36-2.67Q205.53,96.18,79.45,34.88c-15.42-7.5-30.82-15-45.94-23.37,4,1.42,8.05,2.82,12.07,4.27L264.07,94.87q56.15,20.32,112.29,40.66c2.83,1,5.6,2.16,8.69,2-2.42,1.05-3,3.34-3.81,5.52q-15,40.46-30,80.89a25,25,0,0,1-1.34,2.63c-3.13-.94-3.53-3.77-4-6.3-3.37-17.28-7.41-34.42-10.81-51.7C334.5,165.77,334,163,335,160.18Z" transform="translate(-25.99 -9.29)"></path> <path class="cls-6" d="M335,160.18c2.74,4.54,2.73,9.82,3.83,14.78,3.83,17.16,7.42,34.38,11.1,51.58-6.54.43-12.17-2.9-18.14-4.62-15.64-4.53-31.1-9.66-46.62-14.55Z" transform="translate(-25.99 -9.29)"></path> </g> </g> </svg> 