<?xml version="1.0" encoding="UTF-8"?> <svg xmlns="http://www.w3.org/2000/svg" xmlns:xlink="http://www.w3.org/1999/xlink" viewBox="0 0 501.83 272.8"> <defs> <style>.cls-1{fill:none;}.cls-2{fill:#e9f4f2;}.cls-3{clip-path:url(#clip-path);}.cls-4{fill:#f9f9f9;}.cls-5{fill:#fcc142;}.cls-6{fill:#ea990a;}</style> <clipPath id="clip-path" transform="translate(0 -9.29)"> <path class="cls-1" d="M527.82,0A812.19,812.19,0,0,0,371.15,64.67C342.68,80,331.36,88.32,305.53,101.8c-37.85,19.76-93.37,43.67-168.38,59.53L327.82,310Z"></path> </clipPath> </defs> <title>Самолетик бумажный 2</title> <g id="Слой_2" data-name="Слой 2"> <g id="Слой_11" data-name="Слой 11"> <path class="cls-2" d="M317.88,278.31c6.66,5.35,6.64,5.34,11.53-2.16,2-3,4-5.94,6.06-8.91,12.31-19.17,24.57-38.36,36.94-57.49q63.42-98,126.9-196c.8-1.23,1.55-2.48,2.52-4-3.95-1.08-7.27.4-10.49,1-23.26,4.14-46.46,8.57-69.67,12.93a11.88,11.88,0,0,0-1.85.7c-.23,4,1.2,5.21,5.56,4.8,5.51-.52,10.47-3.12,15.87-4.12,2.38-.44,5-.45,6.57-1.77-5.46,2.18-11.93,3.07-18.09,5.14-14.67,4.91-29,10.64-43.67,15.61-12,4.07-23.77,8.59-35.65,12.9C335.56,62.23,320.73,67.65,305.86,73c-14.09,5-28.34,9.65-42.14,15.41-9.64,4-19.66,7-29.44,10.53-9.95,3.58-19.65,8.15-30.07,10.51-3.4.78-6.44,2.66-9.73,3.85-17,6.12-34,12.39-51.14,18.1-2.33.77-5,1.65-3.57,5.18l3,1c3.91,1.85,7.51.9,11.46-.51,34.19-12.18,68.28-24.63,102.4-37q59.16-21.43,118.3-42.93c28.31-10.32,56.71-20.38,85-30.78,10.61-3.9,20.81-8.83,29.62-12.26-11.17,4.7-24.07,10-36.68,16.07C439.94,36.28,427.26,43,414.24,48.9s-25.35,12.62-38.15,18.67c-23.63,11.17-47,22.83-70.56,34.23-24.58,11.91-49.1,23.93-73.7,35.79-11.71,5.64-23.32,11.45-35,17.17-2.18,1.07-4.79,1.88-5,5,1.69,5.15,5.94,8.27,9.66,11.71,11.3,10.47,22.66,20.86,33.54,31.77a13.14,13.14,0,0,0,7.65,4.14q27.15,25.45,54.29,50.91C304,264.89,310.92,271.63,317.88,278.31Z" transform="translate(0 -9.29)"></path> <g class="cls-3"> <path class="cls-4" d="M317.88,278.31c6.66,5.35,6.64,5.34,11.53-2.16,2-3,4-5.94,6.06-8.91,12.31-19.17,24.57-38.36,36.94-57.49q63.42-98,126.9-196c.8-1.23,1.55-2.48,2.52-4-3.95-1.08-7.27.4-10.49,1-23.26,4.14-46.46,8.57-69.67,12.93a11.88,11.88,0,0,0-1.85.7c-.23,4,1.2,5.21,5.56,4.8,5.51-.52,10.47-3.12,15.87-4.12,2.38-.44,5-.45,6.57-1.77-5.46,2.18-11.93,3.07-18.09,5.14-14.67,4.91-29,10.64-43.67,15.61-12,4.07-23.77,8.59-35.65,12.9C335.56,62.23,320.73,67.65,305.86,73c-14.09,5-28.34,9.65-42.14,15.41-9.64,4-19.66,7-29.44,10.53-9.95,3.58-19.65,8.15-30.07,10.51-3.4.78-6.44,2.66-9.73,3.85-17,6.12-34,12.39-51.14,18.1-2.33.77-5,1.65-3.57,5.18l3,1c3.91,1.85,7.51.9,11.46-.51,34.19-12.18,68.28-24.63,102.4-37q59.16-21.43,118.3-42.93c28.31-10.32,56.71-20.38,85-30.78,10.61-3.9,20.81-8.83,29.62-12.26-11.17,4.7-24.07,10-36.68,16.07C439.94,36.28,427.26,43,414.24,48.9s-25.35,12.62-38.15,18.67c-23.63,11.17-47,22.83-70.56,34.23-24.58,11.91-49.1,23.93-73.7,35.79-11.71,5.64-23.32,11.45-35,17.17-2.18,1.07-4.79,1.88-5,5,1.69,5.15,5.94,8.27,9.66,11.71,11.3,10.47,22.66,20.86,33.54,31.77a13.14,13.14,0,0,0,7.65,4.14q27.15,25.45,54.29,50.91C304,264.89,310.92,271.63,317.88,278.31Z" transform="translate(0 -9.29)"></path> </g> <path class="cls-2" d="M139.77,136.53c.48-1.95,2.15-2.37,3.75-2.87,11.59-3.62,22.83-8.41,34.41-11.89,11.09-3.33,21.64-8,32.54-11.74,11.09-3.81,22.23-7.7,33.22-11.89q25.57-9.7,51.29-19c21.57-7.78,43.24-15.29,64.81-23.06s43.12-15.72,64.69-23.58c9.32-3.4,18.65-6.77,28.59-10.37-3.49-1.68-5.46.69-7.8,1-7.09.85-14,2.37-21,3.88-2.35.51-3.93-.22-4.44-2.71-17.35,3.14-34.72,6.18-52.06,9.42Q200.65,64.94,33.53,96.26L0,102.55c3.63,2.27,7.25,2.43,10.6,3.24q62.59,15.13,125.24,30.1C137.13,136.2,138.46,136.32,139.77,136.53Z" transform="translate(0 -9.29)"></path> <path class="cls-5" d="M192.86,160.18c.4-1.8,2.07-2.05,3.36-2.67Q322.29,96.18,448.37,34.88c15.42-7.5,30.82-15,45.94-23.37-4,1.42-8.06,2.82-12.07,4.27L263.75,94.87q-56.16,20.32-112.3,40.66c-2.82,1-5.59,2.16-8.68,2,2.42,1.05,3,3.34,3.8,5.52q15,40.46,30,80.89a24.93,24.93,0,0,0,1.33,2.63c3.14-.94,3.54-3.77,4-6.3,3.36-17.28,7.41-34.42,10.81-51.7C193.31,165.77,193.77,163,192.86,160.18Z" transform="translate(0 -9.29)"></path> <path class="cls-6" d="M192.86,160.18c-2.74,4.54-2.73,9.82-3.84,14.78-3.82,17.16-7.41,34.38-11.09,51.58,6.54.43,12.17-2.9,18.14-4.62,15.63-4.53,31.09-9.66,46.62-14.55Z" transform="translate(0 -9.29)"></path> </g> </g> </svg> 