<?xml version="1.0" encoding="UTF-8"?> <svg xmlns="http://www.w3.org/2000/svg" viewBox="0 0 191 129.75"> <defs> <style>.cls-1{fill:#fff;}.cls-2{fill:#fcc142;}.cls-3{fill:#2e3192;}</style> </defs> <title>школа</title> <g id="Слой_2" data-name="Слой 2"> <g id="Слой_8_копия3_" data-name="Слой 8 (копия3)"> <polygon class="cls-1" points="191 96 15.5 96 7.67 100 4 96 4 0 191 0 191 96"></polygon> <polygon class="cls-2" points="187 100 11.5 100 0 129.75 0 100 0 4 187 4 187 100"></polygon> <path class="cls-3" d="M48.85,59.47H17.13V35.67h7.31V53.18h4.93V35.67h7.28V53.18h4.93V35.67h7.27Z"></path> <path class="cls-3" d="M61.47,59.47H54.16V35.67h7.31v8.87l6.7-8.87h8.6l-8.43,11L78.47,59.47h-9l-8-10.27Z"></path> <path class="cls-3" d="M84.42,38.83a13.27,13.27,0,0,1,18.26,0,12.45,12.45,0,0,1,0,17.51,13.42,13.42,0,0,1-18.26,0,12.41,12.41,0,0,1,0-17.48Zm9.15,14.45a5,5,0,0,0,3.77-1.6,5.91,5.91,0,0,0,1.49-4.11,5.75,5.75,0,0,0-1.49-4.08,5.19,5.19,0,0,0-7.55,0,5.75,5.75,0,0,0-1.49,4.08,5.91,5.91,0,0,0,1.49,4.11A5,5,0,0,0,93.57,53.28Z"></path> <path class="cls-3" d="M109.14,52.67a4.27,4.27,0,0,0,1.66.44,2.84,2.84,0,0,0,1.87-.51c.82-.71,1.43-3.3,1.5-9l.1-7.95H133v23.8h-7.28V42H120.9l0,2.85c-.07,5.82-.89,9.8-2.42,12a6.51,6.51,0,0,1-6,3,6.9,6.9,0,0,1-3.33-.61Z"></path> <path class="cls-3" d="M144.12,59.47h-7.54l9.79-23.94h7l9.82,23.94h-7.85L153.61,55h-7.75Zm5.61-15.57L148,49.54h3.51Z"></path> </g> </g> </svg> 