<?xml version="1.0" encoding="UTF-8"?> <svg xmlns="http://www.w3.org/2000/svg" xmlns:xlink="http://www.w3.org/1999/xlink" viewBox="0 0 1323.9 980.46"> <defs> <style>.cls-1{fill:url(#Безымянный_градиент_17);}.cls-2{fill:#2e3192;}.cls-3{fill:#4d4d4d;}.cls-4{fill:#3aa559;}.cls-5{fill:url(#Безымянный_градиент_18);}.cls-6{fill:#fff;}.cls-7{fill:#b3b3b3;}.cls-8{fill:#333;}.cls-9{fill:#e03f3f;}.cls-10{fill:#fcc142;}.cls-11{fill:#1d93bc;}.cls-12{fill:#009679;}.cls-13{fill:#fffecf;}.cls-14{fill:#565656;}.cls-15{fill:#ffde76;}.cls-16{fill:#29abe2;}.cls-17{fill:#ff6464;}.cls-18{fill:#ff8f7d;}.cls-19{fill:#00b28f;}.cls-20{fill:url(#Безымянный_градиент_18-2);}.cls-21{fill:#46bc64;}.cls-22{fill:#0c7552;}.cls-23,.cls-24{fill:#0d6042;}.cls-23{opacity:0.38;isolation:isolate;}.cls-25{fill:#736357;}.cls-26{fill:#a67c52;}.cls-27{fill:#128450;}.cls-28{fill:#198e4d;}.cls-29{fill:#209951;}</style> <linearGradient id="Безымянный_градиент_17" x1="488.82" y1="10669.87" x2="835.09" y2="10070.11" gradientTransform="matrix(1, 0, 0, -1, 0, 10968.28)" gradientUnits="userSpaceOnUse"> <stop offset="0" stop-color="#2e3192"></stop> <stop offset="1" stop-color="#29abe2"></stop> </linearGradient> <linearGradient id="Безымянный_градиент_18" x1="251.52" y1="10766.03" x2="938.91" y2="10766.03" gradientTransform="matrix(1, 0, 0, -1, 0, 10968.28)" gradientUnits="userSpaceOnUse"> <stop offset="0" stop-color="#7da5bc"></stop> <stop offset="1" stop-color="#6165d9"></stop> </linearGradient> <linearGradient id="Безымянный_градиент_18-2" x1="802.03" y1="10557.82" x2="1200.13" y2="10557.82" xlink:href="#Безымянный_градиент_18"></linearGradient> </defs> <title>Школа</title> <g id="Слой_2" data-name="Слой 2"> <g id="Макетирование"> <g id="Слой_14" data-name="Слой 14"> <g id="Слой_2-2" data-name="Слой 2"> <g id="Слой_1-2" data-name="Слой 1-2"> <path class="cls-1" d="M21.62,628.42,609.75,968c28.83,16.64,75.58,16.64,104.43,0l588.09-339.54c28.85-16.65,28.85-43.65,0-60.3L714.16,228.69c-28.83-16.65-75.58-16.65-104.43,0L21.62,568.14C-7.21,584.79-7.21,611.77,21.62,628.42Z"></path> <path class="cls-2" d="M21.62,598.27,609.75,937.83c28.83,16.65,75.58,16.65,104.43,0l588.09-339.54c28.85-16.65,28.85-43.65,0-60.3L714.16,198.46c-28.83-16.65-75.58-16.65-104.43,0L21.62,538C-7.21,554.64-7.21,581.62,21.62,598.27Z"></path> <path class="cls-3" d="M299.5,673.69,142.19,582.88c-1.43-.84-1.25-2.2.4-3.22l43.78-25.28a6.15,6.15,0,0,1,5.54-.22L349.22,645c1.43.84,1.25,2.2-.4,3.21L305,673.47A6.15,6.15,0,0,1,299.5,673.69Z"></path> <path class="cls-4" d="M299.5,669.87,142.19,579.05c-1.43-.84-1.25-2.2.4-3.21l43.78-25.29a6.18,6.18,0,0,1,5.54-.22l157.31,90.82c1.43.83,1.25,2.2-.4,3.21L305,669.65A6.21,6.21,0,0,1,299.5,669.87Z"></path> <path class="cls-3" d="M481.38,779.64,324.06,688.82c-1.42-.84-1.25-2.2.4-3.21l43.78-25.29a6.21,6.21,0,0,1,5.54-.22L531.1,750.92c1.42.83,1.25,2.2-.4,3.21l-43.78,25.29A6.21,6.21,0,0,1,481.38,779.64Z"></path> <path class="cls-4" d="M481.38,775.81,324.06,685c-1.42-.83-1.25-2.19.4-3.21l43.78-25.28a6.15,6.15,0,0,1,5.54-.22L531.1,747.09c1.42.84,1.25,2.2-.4,3.21l-43.78,25.29A6.15,6.15,0,0,1,481.38,775.81Z"></path> </g> <g id="Слой_4" data-name="Слой 4"> <polygon class="cls-5" points="251.52 202.24 595.22 3.8 938.91 202.24 595.22 400.69 251.52 202.24"></polygon> <path class="cls-6" d="M595.22,7.61,932.36,202.3,595.26,396.91,258.12,202.3,595.22,7.61m0-7.61L244.92,202.3l350.3,202.31L945.55,202.3Z"></path> <polygon class="cls-6" points="545.83 561.06 244.64 387.17 244.64 383.39 545.83 557.28 545.83 561.06"></polygon> <polygon class="cls-7" points="595.22 648.84 244.92 446.61 244.92 202.22 595.22 404.47 595.22 648.84"></polygon> <polygon class="cls-8" points="595.22 688.47 259.37 494.56 259.37 455.51 595.22 649.39 595.22 688.47"></polygon> <polygon class="cls-9" points="595.22 648.84 244.64 446.43 244.64 385.89 595.22 588.31 595.22 648.84"></polygon> <polygon class="cls-10" points="595.22 648.84 380.62 524.96 380.62 464.42 595.22 588.31 595.22 648.84"></polygon> <polygon class="cls-10" points="595.22 587.56 244.64 385.17 244.64 324.63 595.22 527.04 595.22 587.56"></polygon> <polygon class="cls-10" points="595.22 526.3 244.64 323.88 244.64 263.35 595.22 465.76 595.22 526.3"></polygon> <polygon class="cls-11" points="595.22 526.3 464.73 450.94 464.73 390.4 595.22 465.76 595.22 526.3"></polygon> <polygon class="cls-10" points="595.22 465.01 244.64 262.6 244.64 202.06 595.22 404.47 595.22 465.01"></polygon> <polygon class="cls-12" points="338.03 316.52 244.64 262.6 244.64 202.06 338.03 255.98 338.03 316.52"></polygon> <polygon class="cls-2" points="595.22 589.74 244.64 387.32 244.64 383.54 595.22 585.95 595.22 589.74"></polygon> <polygon class="cls-2" points="595.22 529.2 244.64 326.79 244.64 323 595.22 525.42 595.22 529.2"></polygon> <polygon class="cls-2" points="595.22 468.66 244.64 266.25 244.64 262.47 595.22 464.88 595.22 468.66"></polygon> <polygon class="cls-2" points="385.59 332.02 356.92 315.46 356.92 279.53 385.59 296.07 385.59 332.02"></polygon> <polygon class="cls-13" points="432.27 358.98 403.6 342.42 403.6 306.49 432.27 323.02 432.27 358.98"></polygon> <polygon class="cls-13" points="478.98 385.94 450.31 369.38 450.31 333.45 478.98 349.98 478.98 385.94"></polygon> <polygon class="cls-2" points="525.66 412.9 496.99 396.34 496.99 360.41 525.66 376.94 525.66 412.9"></polygon> <polygon class="cls-13" points="572.37 439.86 543.7 423.3 543.7 387.37 572.37 403.9 572.37 439.86"></polygon> <polygon class="cls-2" points="292.2 339.58 263.53 323.02 263.53 287.1 292.2 303.65 292.2 339.58"></polygon> <polygon class="cls-13" points="338.88 366.54 310.21 349.98 310.21 314.05 338.88 330.59 338.88 366.54"></polygon> <polygon class="cls-2" points="385.59 393.5 356.92 376.94 356.92 341.01 385.59 357.55 385.59 393.5"></polygon> <polygon class="cls-2" points="432.27 420.46 403.6 403.9 403.6 367.97 432.27 384.51 432.27 420.46"></polygon> <polygon class="cls-13" points="432.27 543.43 403.6 526.87 403.6 490.94 432.27 507.5 432.27 543.43"></polygon> <polygon class="cls-13" points="478.98 570.38 450.31 553.83 450.31 517.9 478.98 534.45 478.98 570.38"></polygon> <polygon class="cls-13" points="525.66 597.34 496.99 580.79 496.99 544.86 525.66 561.41 525.66 597.34"></polygon> <polygon class="cls-13" points="572.37 624.3 543.7 607.75 543.7 571.81 572.37 588.35 572.37 624.3"></polygon> <polygon class="cls-2" points="292.2 401.07 263.53 384.51 263.53 348.58 292.2 365.11 292.2 401.07"></polygon> <polygon class="cls-2" points="338.88 428.02 310.21 411.47 310.21 375.54 338.88 392.09 338.88 428.02"></polygon> <polygon class="cls-13" points="385.59 454.98 356.92 438.43 356.92 402.5 385.59 419.03 385.59 454.98"></polygon> <polygon class="cls-2" points="432.27 481.94 403.6 465.38 403.6 429.45 432.27 445.99 432.27 481.94"></polygon> <polygon class="cls-13" points="478.98 509.85 450.31 493.29 450.31 457.36 478.98 473.89 478.98 509.85"></polygon> <polygon class="cls-2" points="525.66 536.81 496.99 520.25 496.99 484.32 525.66 500.88 525.66 536.81"></polygon> <polygon class="cls-13" points="572.37 563.77 543.7 547.21 543.7 511.28 572.37 527.81 572.37 563.77"></polygon> <polygon class="cls-6" points="896.41 415.69 595.22 589.6 595.22 585.8 896.41 411.91 896.41 415.69"></polygon> <polygon class="cls-7" points="945.79 446.45 595.5 648.71 595.5 404.32 945.79 202.08 945.79 446.45"></polygon> <polygon class="cls-14" points="931.06 494.59 595.22 688.49 595.22 649.41 931.06 455.51 931.06 494.59"></polygon> <polygon class="cls-15" points="945.79 446.45 595.22 648.87 595.22 588.33 945.79 385.92 945.79 446.45"></polygon> <polygon class="cls-15" points="945.79 385.17 595.22 587.58 595.22 527.04 945.79 324.63 945.79 385.17"></polygon> <polygon class="cls-15" points="945.79 323.9 595.22 526.3 595.22 465.76 945.79 263.37 945.79 323.9"></polygon> <polygon class="cls-16" points="648.23 495.69 595.22 526.3 595.22 465.76 648.23 435.15 648.23 495.69"></polygon> <polygon class="cls-15" points="945.79 262.62 595.22 465.03 595.22 404.5 945.79 202.08 945.79 262.62"></polygon> <polygon class="cls-17" points="868.83 307.06 759.65 370.08 759.65 309.55 868.83 246.52 868.83 307.06"></polygon> <polygon class="cls-2" points="945.79 387.35 595.22 589.76 595.22 585.98 945.79 383.56 945.79 387.35"></polygon> <polygon class="cls-2" points="945.79 326.81 595.22 529.22 595.22 525.44 945.79 323.02 945.79 326.81"></polygon> <polygon class="cls-2" points="945.79 266.27 595.22 468.68 595.22 464.9 945.79 262.49 945.79 266.27"></polygon> <polygon class="cls-13" points="736.17 432.23 707.5 448.78 707.5 412.85 736.17 396.29 736.17 432.23"></polygon> <polygon class="cls-2" points="688.65 459.67 659.98 476.23 659.98 440.27 688.65 423.71 688.65 459.67"></polygon> <polygon class="cls-2" points="782.85 405.27 754.18 421.82 754.18 385.89 782.85 369.33 782.85 405.27"></polygon> <polygon class="cls-2" points="829.56 378.31 800.88 394.87 800.88 358.91 829.56 342.38 829.56 378.31"></polygon> <polygon class="cls-13" points="876.24 351.35 847.57 367.91 847.57 331.98 876.24 315.42 876.24 351.35"></polygon> <polygon class="cls-2" points="641.97 426.09 613.29 442.65 613.29 406.69 641.97 390.14 641.97 426.09"></polygon> <polygon class="cls-13" points="688.65 399.13 659.98 415.69 659.98 379.74 688.65 363.18 688.65 399.13"></polygon> <polygon class="cls-2" points="735.33 372.17 706.68 388.73 706.68 352.78 735.33 336.22 735.33 372.17"></polygon> <polygon class="cls-2" points="922.95 324.39 894.27 340.95 894.27 305.02 922.95 288.46 922.95 324.39"></polygon> <polygon class="cls-2" points="736.17 494.65 707.5 511.21 707.5 475.28 736.17 458.72 736.17 494.65"></polygon> <polygon class="cls-13" points="688.65 522.1 659.98 538.65 659.98 502.7 688.65 486.14 688.65 522.1"></polygon> <polygon class="cls-2" points="641.97 549.05 613.29 565.61 613.29 529.66 641.97 513.1 641.97 549.05"></polygon> <polygon class="cls-2" points="782.85 467.69 754.18 484.25 754.18 448.32 782.85 431.76 782.85 467.69"></polygon> <polygon class="cls-13" points="829.56 440.74 800.88 457.29 800.88 421.36 829.56 404.8 829.56 440.74"></polygon> <polygon class="cls-13" points="876.24 413.78 847.57 430.33 847.57 394.4 876.24 377.85 876.24 413.78"></polygon> <polygon class="cls-13" points="922.95 386.82 894.27 403.38 894.27 367.44 922.95 350.89 922.95 386.82"></polygon> <polygon class="cls-13" points="736.17 555.21 707.5 571.75 707.5 535.82 736.17 519.26 736.17 555.21"></polygon> <polygon class="cls-13" points="688.65 582.63 659.98 599.19 659.98 563.24 688.65 546.68 688.65 582.63"></polygon> <polygon class="cls-13" points="641.97 609.59 613.29 626.15 613.29 590.2 641.97 573.64 641.97 609.59"></polygon> <polygon class="cls-2" points="782.85 528.23 754.18 544.79 754.18 508.86 782.85 492.3 782.85 528.23"></polygon> <polygon class="cls-13" points="829.56 501.29 800.88 517.83 800.88 481.9 829.56 465.34 829.56 501.29"></polygon> <polygon class="cls-13" points="876.24 474.33 847.57 490.87 847.57 454.94 876.24 438.38 876.24 474.33"></polygon> <polygon class="cls-2" points="922.95 447.35 894.27 463.91 894.27 427.98 922.95 411.42 922.95 447.35"></polygon> <polygon class="cls-13" points="922.95 263.85 894.27 280.41 894.27 244.46 922.95 227.92 922.95 263.85"></polygon> <polygon class="cls-18" points="759.81 309.39 650.63 246.37 759.81 183.33 868.99 246.37 759.81 309.39"></polygon> <polygon class="cls-19" points="338.03 255.96 244.64 202.04 338.03 148.12 431.42 202.06 338.03 255.96"></polygon> <polygon class="cls-2" points="907.75 618.72 879.08 602.16 879.08 566.23 907.75 582.79 907.75 618.72"></polygon> <polygon class="cls-6" points="951.64 564.36 795.39 474.16 795.39 470.38 951.64 560.58 951.64 564.36"></polygon> <polygon class="cls-10" points="1001.05 652.16 795.39 533.44 795.39 410.48 1001.05 529.2 1001.05 652.16"></polygon> <polygon class="cls-8" points="1001.05 691.24 795.85 572.8 795.85 533.73 1001.05 652.16 1001.05 691.24"></polygon> <polygon class="cls-9" points="1001.05 590.99 910.92 538.96 910.92 477.17 1001.05 529.2 1001.05 590.99"></polygon> <polygon class="cls-2" points="1001.05 593.03 795.39 474.31 795.39 470.53 1001.05 589.25 1001.05 593.03"></polygon> <polygon class="cls-2" points="841.39 548.64 812.71 532.08 812.71 496.13 841.39 512.68 841.39 548.64"></polygon> <polygon class="cls-2" points="888.07 575.6 859.4 559.04 859.4 523.09 888.07 539.64 888.07 575.6"></polygon> <polygon class="cls-2" points="934.78 602.56 906.1 586 906.1 550.04 934.78 566.6 934.78 602.56"></polygon> <polygon class="cls-2" points="981.46 629.51 952.79 612.96 952.79 577 981.46 593.56 981.46 629.51"></polygon> <polygon class="cls-2" points="888.07 515.06 859.4 498.5 859.4 462.55 888.07 479.11 888.07 515.06"></polygon> <polygon class="cls-6" points="1157.36 502.61 1001.1 592.84 1001.1 589.05 1157.36 498.83 1157.36 502.61"></polygon> <polygon class="cls-14" points="1191.68 581.18 1001.03 691.24 1001.03 652.16 1191.68 542.11 1191.68 581.18"></polygon> <polygon class="cls-15" points="1206.68 533.44 1001.03 652.16 1001.03 529.2 1206.68 410.48 1206.68 533.44"></polygon> <polygon class="cls-17" points="1091.14 538.98 1001.03 591.01 1001.03 529.2 1091.14 477.17 1091.14 538.98"></polygon> <polygon class="cls-2" points="1206.68 474.31 1001.03 593.06 1001.03 589.27 1206.68 470.53 1206.68 474.31"></polygon> <polygon class="cls-2" points="1047.01 614.28 1018.36 630.83 1018.36 594.88 1047.01 578.32 1047.01 614.28"></polygon> <polygon class="cls-2" points="1093.72 587.32 1065.04 603.88 1065.04 567.92 1093.72 551.36 1093.72 587.32"></polygon> <polygon class="cls-2" points="1140.42 560.36 1111.75 576.92 1111.75 540.96 1140.42 524.4 1140.42 560.36"></polygon> <polygon class="cls-2" points="1187.11 533.4 1158.43 549.96 1158.43 514 1187.11 497.45 1187.11 533.4"></polygon> <polygon class="cls-2" points="1140.42 499.82 1111.75 516.38 1111.75 480.43 1140.42 463.87 1140.42 499.82"></polygon> <polygon class="cls-2" points="1187.11 472.86 1158.43 489.42 1158.43 453.47 1187.11 436.91 1187.11 472.86"></polygon> <polygon class="cls-20" points="802.03 410.46 1001.08 295.54 1200.13 410.46 1001.08 525.37 802.03 410.46"></polygon> <path class="cls-6" d="M1001.05,299.34l192.48,111.12L1001.08,521.57,808.62,410.46l192.43-111.12m0-7.63L795.43,410.46,1001.08,529.2l205.64-118.74L1001.05,291.71Z"></path> <polygon class="cls-17" points="1001.05 529.18 910.94 477.15 1001.05 425.12 1091.17 477.15 1001.05 529.18"></polygon> <g id="елка"> <polygon class="cls-21" points="198.22 393.33 288.02 575.33 187.73 629.12 198.22 393.33"></polygon> <polygon class="cls-22" points="198.22 393.33 187.73 629.12 139.42 557.78 198.22 393.33"></polygon> <polygon class="cls-23" points="189.53 589.65 262.23 523.04 246.59 491.53 192.35 524.74 189.53 589.65"></polygon> <polygon class="cls-22" points="214.95 328.92 144.72 495.23 224.52 544.37 214.95 328.92"></polygon> <polygon class="cls-4" points="214.95 328.92 224.52 544.37 256.84 467.36 214.95 328.92"></polygon> <polygon class="cls-23" points="219.66 434.4 247.43 436.82 237.4 403.49 219.66 434.4"></polygon> <polygon class="cls-24" points="144.72 495.23 219.66 434.4 179.81 412.11 144.72 495.23"></polygon> <polygon class="cls-22" points="212.27 263.59 155.34 398.4 226.5 438.23 212.27 263.59"></polygon> <polygon class="cls-4" points="212.27 263.59 226.5 438.23 246.22 375.8 212.27 263.59"></polygon> <polygon class="cls-24" points="139.42 557.78 192.35 524.74 158.73 503.87 139.42 557.78"></polygon> </g> <polygon class="cls-25" points="372.93 598.29 394.17 642.91 381.44 669.82 373.63 698.85 391.35 698.85 388.87 670.88 398.43 643.26 374.71 597.94 372.93 598.29"></polygon> <polygon class="cls-26" points="391.35 698.85 396.19 689.17 392.87 669.34 400.43 641.96 375.41 597.59 374.71 597.94 398.43 643.26 388.41 670.99 391.35 698.85"></polygon> <polyline class="cls-27" points="365.98 552.9 332.84 595.74 382.16 608.67 397.51 572.3 365.98 552.9"></polyline> <polyline class="cls-21" points="424.2 558.55 442.92 583.49 418.66 604.49 397.51 572.3 424.2 558.55"></polyline> <polyline class="cls-4" points="418.66 604.49 405.21 635.23 381.48 624.99 382.16 608.67 418.66 604.49"></polyline> <polygon class="cls-4" points="442.92 583.49 433.48 621.2 418.66 604.49 442.92 583.49"></polygon> <polygon class="cls-28" points="433.48 621.2 405.21 635.23 418.66 604.49 433.48 621.2"></polygon> <polyline class="cls-22" points="345.37 626.06 405.21 635.23 381.48 624.99 345.37 626.06"></polyline> <polygon class="cls-28" points="392.96 541.8 381.32 569.33 408.97 566.16 392.96 541.8"></polygon> <polygon class="cls-27" points="344.01 559.54 353.49 582.48 380.82 581.67 381.32 569.33 344.01 559.54"></polygon> <polygon class="cls-28" points="397.51 572.3 382.16 608.67 418.66 604.49 397.51 572.3"></polygon> <polygon class="cls-28" points="332.84 595.74 345.37 626.06 381.48 624.99 382.16 608.67 332.84 595.74"></polygon> <polyline class="cls-22" points="369.1 527.11 344.01 559.54 381.32 569.33 392.96 541.8 369.1 527.11"></polyline> <polygon class="cls-4" points="424.89 559.74 437.11 575.66 406.33 585.65 424.89 559.74"></polygon> <polyline class="cls-4" points="413.14 531.4 427.33 550.26 408.97 566.16 392.96 541.8 413.14 531.4"></polyline> <polyline class="cls-4" points="408.97 566.16 398.76 589.43 380.82 581.67 381.32 569.33 408.97 566.16"></polyline> <polygon class="cls-21" points="427.33 550.26 420.18 578.81 408.97 566.16 427.33 550.26"></polygon> <polygon class="cls-29" points="420.18 578.81 398.76 589.43 408.97 566.16 420.18 578.81"></polygon> <polyline class="cls-22" points="353.49 582.48 398.76 589.43 380.82 581.67 353.49 582.48"></polyline> <polygon class="cls-21" points="369.1 527.11 392.96 541.8 413.14 531.4 369.1 527.11"></polygon> <g id="куст"> <polygon class="cls-28" points="446.66 705.51 439.95 721.37 455.87 719.54 446.66 705.51"></polygon> <polygon class="cls-27" points="418.46 715.74 423.92 728.93 439.66 728.47 439.95 721.37 418.46 715.74"></polygon> <polyline class="cls-22" points="432.91 697.07 418.46 715.74 439.95 721.37 446.66 705.51 432.91 697.07"></polyline> <polyline class="cls-4" points="458.27 699.53 466.42 710.39 455.87 719.54 446.66 705.51 458.27 699.53"></polyline> <polyline class="cls-4" points="455.87 719.54 450 732.93 439.66 728.47 439.95 721.37 455.87 719.54"></polyline> <polygon class="cls-21" points="466.42 710.39 462.31 726.82 455.87 719.54 466.42 710.39"></polygon> <polygon class="cls-29" points="462.31 726.82 450 732.93 455.87 719.54 462.31 726.82"></polygon> <polyline class="cls-22" points="423.92 728.93 450 732.93 439.66 728.47 423.92 728.93"></polyline> <polygon class="cls-21" points="432.91 697.07 446.66 705.51 458.27 699.53 432.91 697.07"></polygon> </g> <g id="куст-2"> <polygon class="cls-28" points="483.73 727.37 477.05 743.22 492.94 741.4 483.73 727.37"></polygon> <polygon class="cls-27" points="455.56 737.57 461.01 750.79 476.74 750.33 477.05 743.22 455.56 737.57"></polygon> <polyline class="cls-22" points="469.99 718.9 455.56 737.57 477.05 743.22 483.73 727.37 469.99 718.9"></polyline> <polyline class="cls-4" points="495.34 721.39 503.52 732.23 492.94 741.4 483.73 727.37 495.34 721.39"></polyline> <polyline class="cls-4" points="492.94 741.4 487.07 754.79 476.74 750.33 477.05 743.22 492.94 741.4"></polyline> <polygon class="cls-21" points="503.52 732.23 499.41 748.68 492.94 741.4 503.52 732.23"></polygon> <polygon class="cls-29" points="499.41 748.68 487.07 754.79 492.94 741.4 499.41 748.68"></polygon> <polyline class="cls-22" points="461.01 750.79 487.07 754.79 476.74 750.33 461.01 750.79"></polyline> <polygon class="cls-21" points="469.99 718.9 483.73 727.37 495.34 721.39 469.99 718.9"></polygon> </g> </g> </g> <path class="cls-6" d="M507.06,251.64l-10.5,6.07-7.66-6.21-8.63,5-8-6.51,8.5-4.91-6.19-4.91-8.5,4.91-8.18-6.43,8.63-5-7.85-6.1,10.5-6.06,7.79,6.13,6.5-3.75-7.79-6.14,10.5-6.06,7.79,6.14,8.5-4.91,8.05,6.51L502,224.28l6.12,4.94,8.56-4.94,8,6.5-8.44,4.88,7.73,6.17-10.49,6.06-7.73-6.17-6.51,3.75Zm-22-17.55,6.12,4.95,6.51-3.76-6.12-4.94Z"></path> <path class="cls-6" d="M543.51,224.13q-13.9.44-24.28-5.54c-6.89-4-10.11-8.67-9.59-14s4.44-10.15,11.85-14.43a43.46,43.46,0,0,1,13.78-5.2l13.08,7.55a41.85,41.85,0,0,0-14,4.65c-3.41,2-5.22,4.2-5.35,6.73s1.29,4.61,4.45,6.43a20.92,20.92,0,0,0,11.4,2.56,25.65,25.65,0,0,0,11.91-3.38c4.45-2.56,7-5.32,7.92-8.29L578,208.92c-1.54,2.68-4.7,5.46-9.53,8.25A53,53,0,0,1,543.51,224.13Z"></path> <path class="cls-6" d="M621.32,188.06l-13.85,8-5-2.9a46.71,46.71,0,0,1-21.9,5.28c-7.73-.07-14.17-1.64-19.51-4.72s-8-6.81-8.12-11.23,3-8.63,9.15-12.64l-3.93-2.27,13.85-8,3.92,2.27a46.25,46.25,0,0,1,21.9-5.28c7.6.08,14,1.64,19.39,4.72s8,6.81,8.24,11.23-2.9,8.59-9.14,12.65ZM573.79,176.6c-3.41,2.27-4,5.8,1.42,8.93a17.14,17.14,0,0,0,15.52.85Zm30.78,1.79c3.35-2.31,3.87-5.88-1.48-9a16.75,16.75,0,0,0-15.45-.82Z"></path> <path class="cls-6" d="M681.8,153.14l-13.85,8-5-2.9a46.71,46.71,0,0,1-21.9,5.28c-7.73-.07-14.17-1.63-19.51-4.72s-8-6.8-8.12-11.23,3-8.63,9.15-12.64l-3.93-2.27,13.85-8,3.92,2.27a46.36,46.36,0,0,1,21.9-5.28c7.6.08,14,1.64,19.39,4.72s8.05,6.81,8.24,11.23-2.9,8.59-9.14,12.65Zm-47.53-11.45c-3.41,2.26-4,5.8,1.42,8.92a17.15,17.15,0,0,0,15.52.86Zm30.78,1.78c3.35-2.31,3.87-5.88-1.48-9a16.75,16.75,0,0,0-15.45-.82Z"></path> </g> </g> </g> </svg> 