<?xml version="1.0" encoding="UTF-8"?> <svg xmlns="http://www.w3.org/2000/svg" viewBox="0 0 123.11 122.54"> <defs> <style>.cls-1{fill:#fcc142;}.cls-2{fill:#bebebd;}.cls-3{fill:#bfbebe;}.cls-4{fill:#ff6464;}.cls-5{fill:#ff988d;}.cls-6{fill:#e03f3f;}.cls-7{fill:#ffd176;}.cls-8{fill:#d66b00;}.cls-9{fill:#ea990a;}.cls-10{fill:#e1e1e0;}.cls-11{fill:#c41414;}</style> </defs> <title>Книги 2</title> <g id="Слой_2" data-name="Слой 2"> <g id="Слой_11" data-name="Слой 11"> <path class="cls-1" d="M.93,40.36c6.2-4.64,13.12-8.09,19.75-12C36.28,19.14,52,10.09,67.6.9c1.72-1,3.16-1.27,4.93-.25Q96,14.26,119.59,27.8c.39.23.61.76.91,1.14-4,4.09-9.24,6.15-14,9C93.86,45.4,81,52.54,68.3,59.93c-5,2.94-10,5.93-15.18,8.7a5.18,5.18,0,0,1-3.27.8c-6.56-2.5-12.21-6.68-18.28-10.07-8.65-4.81-17.13-9.9-25.78-14.71A13.54,13.54,0,0,1,1.07,40.9C1,40.72,1,40.54.93,40.36Z"></path> <path class="cls-2" d="M119.14,33.64q.08,6.78.14,13.57c-3.37,3.79-8.12,5.51-12.33,8C90.56,64.76,74,74.06,57.63,83.68c-1.42.84-2.87,1.61-4.34,2.36-1.13.57-2.32,1.25-3.32-.25-1.15-4.49.12-9.18-1.16-13.65.3-.92,1.13-1.09,1.9-1.33C57.5,67.92,63.59,63.76,70,60.21c15.33-8.46,30.22-17.7,45.68-25.93C116.74,33.72,117.77,32.62,119.14,33.64Z"></path> <path class="cls-3" d="M120.76,64.22c.46,4.52-.8,9.14.77,13.59-3.5,3.21-7.89,5-11.9,7.37-15,8.83-30.1,17.42-45.15,26.13-2.74,1.52-5.32,3.34-8.13,4.73-1.29.65-2.62,1.68-4.19.56-2.15-4-.93-8.29-.95-12.47a4.26,4.26,0,0,1,.41-1.13c5.17-4.1,11.12-7,16.8-10.23q23.21-13.33,46.47-26.58C116.68,65.17,118.34,63.5,120.76,64.22Z"></path> <path class="cls-4" d="M2.53,93.13c-.09-7-.26-13.93-.21-20.9,0-2.83,3-3,4.66-4.32,1.79-1.11,3.17.19,4.55.9,8.66,4.46,16.82,9.81,25.33,14.55,4.51,2.52,8.73,5.61,13.76,7.14,5.14-1.62,9.41-4.89,14-7.5,15.88-9,31.83-17.94,47.64-27.09,1.33-.77,2.9-2.69,4.51-.22,1.62,1,3.49,1.55,4.79,3,0,2-1.48,2.79-2.9,3.67-14.06,8.78-28.76,16.47-43,24.87C68,91.73,60,95.53,53.21,101.39a1.19,1.19,0,0,1-1.4.16c-7.3-5.49-15.29-9.88-23.23-14.31C21.63,83.35,15,78.92,8,75.2c-1-.52-2-1.59-3.09-1s-.6,2.08-.61,3.17c-.06,4,0,8.1-.07,12.15C4.15,90.86,4.67,92.66,2.53,93.13Z"></path> <path class="cls-5" d="M64.17,110.62c14.67-8.54,29.32-17.14,44-25.6,4.38-2.51,8.47-5.56,13.32-7.21,2.27,2.34,2.14,4.33-.8,6q-33,18.83-66.05,37.68c-1,.57-2,1.76-3.36.44a7.2,7.2,0,0,1,.79-3.34C55.9,115.59,60.88,114.38,64.17,110.62Z"></path> <path class="cls-6" d="M52.09,119.07c.9,1.26-.16,2-.77,2.87C37,113.7,22.58,105.49,8.26,97.17c-2-1.17-4.48-1.76-5.73-4C4,90,3,86.68,3.2,83.45c.18-3.65,0-7.32,0-11.46,5.16,2,9.5,4.68,13.88,7.2C27,84.88,36.84,90.64,46.56,96.59c2,1.26,5.19,1.63,5.52,4.93.48.45.42.87-.08,1.26l0,.35c-4.06-.5-7-3.35-10.34-5.2C31,92,20.47,85.68,9.74,79.74A7,7,0,0,0,6.6,78.55c-2.95,6.63-.93,13,5,16.18,13.11,7.16,25.79,15.06,38.77,22.46A3.12,3.12,0,0,1,52.09,119.07Z"></path> <path class="cls-7" d="M116.78,55.69c-1.16-.66-2-.15-3.09.47Q83.54,73.5,53.32,90.76a4.6,4.6,0,0,1-2.83.85,2.78,2.78,0,0,1,.09-3.33c4.28-3.62,9.42-5.87,14.19-8.69,17.63-10.43,35.56-20.35,53.15-30.85a3.94,3.94,0,0,1,2.15-.59c1.63,2.26,1.27,4-1.3,5.22C117.76,53.84,116.71,54.29,116.78,55.69Z"></path> <path class="cls-7" d="M119.14,33.64c-10,4.55-19.1,10.68-28.62,16.06C77.78,56.9,65.1,64.22,52.39,71.47a3.25,3.25,0,0,1-1.1.18c-1.16-.61-2-1.4-1.51-2.87,3-.33,5.29-2.34,7.78-3.76q24.94-14.16,49.77-28.56c4.37-2.54,8.61-5.3,13.17-7.52C121.51,30.93,120.68,32.38,119.14,33.64Z"></path> <path class="cls-5" d="M52,102.78c0-.42,0-.84.08-1.26,4-5.38,10.36-7.49,15.77-10.82q14.63-9,29.75-17.18c6.87-3.72,13.63-7.58,20.27-11.67a14.93,14.93,0,0,0,3.7-3.13c2.78,2.28,1.37,4-.81,5.5C109.85,70.35,98.92,76.44,88,82.62s-22,12.59-32.93,18.86A25.8,25.8,0,0,1,52,102.78Z"></path> <path class="cls-8" d="M120.07,48.15c-8.94,6-18.44,11.1-27.74,16.5q-20.55,11.91-41,23.89c-1.43,1.13-2.58.21-3.8-.46C33.52,80.47,19.86,72.34,6.2,64.2,5,63.49,3.71,62.84,3.87,61.1a1.91,1.91,0,0,1,1.57-.52c3.34.61,6,2.61,8.84,4.25,10.93,6.36,21.92,12.6,32.91,18.86a14.63,14.63,0,0,1,3.37,2.44c7.57-3.26,14.36-7.94,21.51-12,15.78-8.9,31.48-17.95,47.21-26.94Z"></path> <path class="cls-9" d="M4,61.09c2.63,3,6.24,4.73,9.58,6.48,8.69,4.56,16.68,10.29,25.51,14.61,4.11,2,7.74,5,12.21,6.36-.27,1-.53,2-.8,3.07-6.82-2.51-12.59-7-19-10.28C23.24,77,15.88,71.05,7,67.91,1.1,65.11-.72,60.46.24,54.18c.7-4.56-.75-9.27.69-13.82l.11.35a11,11,0,0,1,2.44,5.67C3.89,51.27,3.11,56.21,4,61.09Z"></path> <path class="cls-7" d="M103.32,31.84c-8.71,5.11-16.88,9.87-25,14.71-1.66,1-2.86.16-4.17-.6C63.41,39.79,52.67,33.67,42,27.42c-1.07-.62-3-.94-2.84-2.55.12-1.45,1.81-1.86,3-2.55C48.36,18.63,54.6,15,60.79,11.18c2.47-1.5,4.43-2,7.36-.21C78.44,17.28,89,23.11,99.5,29.15,100.66,29.82,101.71,30.69,103.32,31.84Z"></path> <path class="cls-9" d="M2.48,45.83C2.46,44,.64,42.67,1,40.71L40.19,63.33c3.18,1.83,6.39,3.63,9.59,5.45l1.51,2.87-2.23.14c-2.74.16-4.64-1.73-6.78-2.93-12.58-7-25-14.44-37.6-21.4A6.29,6.29,0,0,1,2.48,45.83Z"></path> <path class="cls-10" d="M4.86,46.67c7.75,3.75,15,8.39,22.48,12.64,7.26,4.13,14.48,8.32,21.72,12.48,1.76,1.21,1.5,3,1.49,4.81,0,3.18,0,6.35,0,9.53-5-1.48-9.1-4.77-13.6-7.24C28.23,74.09,19.67,69,11,64c-1.84-1.06-3.78-1.94-5.67-2.9C2.53,56.38,3.11,51.55,4.86,46.67Z"></path> <path class="cls-10" d="M6.41,78a1.49,1.49,0,0,1,2-.15q21.33,12.32,42.68,24.6a10.12,10.12,0,0,1,.92.65c.53,4.46-.94,9.05.83,13.43-1.83,1.88-3.32.15-4.67-.65C37.43,109.5,26.38,103.56,15.7,97c-.65-.4-1.32-.76-2-1.11-8.54-4.46-9.89-7.33-8-17A1.51,1.51,0,0,1,6.41,78Z"></path> <path class="cls-11" d="M6.41,78a4.38,4.38,0,0,1,.09,1.13C4.69,88.07,8.54,93.07,16.63,97c11.18,5.38,21.67,12.18,32.47,18.34,1.15.65,2.17,1.9,3.78,1.25,4.15-1.24,7.24-4.49,11.29-5.94,1,.89,0,1.37-.49,1.73a61.71,61.71,0,0,1-11.59,6.72c-11.4-6.5-23-12.67-34-19.84C14.39,96.81,10,95.57,6.58,92.62c-.89-.77-1.81-1.35-1.81-2.68,0-3.93,0-7.87,0-11.8,0-.59,0-1.42.87-1.3C6,76.88,6.16,77.61,6.41,78Z"></path> <path class="cls-8" d="M4.86,46.67c-.05,4.82-.67,9.66.48,14.43H4c-1.84-.27-1.49-1.71-1.5-2.9,0-4.12,0-8.24,0-12.36Z"></path> <path class="cls-4" d="M59.77,18.75l1,.6,1.22-1,1.67,1-1.23,1,1.34.77-1.27,1-1.36-.79-1,.79,1.34.77-1.28,1-1.35-.78-1.23,1-1.67-1,1.24-1-1-.6-1.23,1-1.67-1,1.25-1-1.37-.79,1.29-1,1.35.78,1-.78L55.47,18l1.28-1,1.37.79,1.21-1,1.67,1Zm-1.23,2.4,1-.78-1-.6-1,.79Z"></path> <path class="cls-4" d="M70.75,23.24a4,4,0,0,1,1.51,1.32l-2.1,1.21a2.52,2.52,0,0,0-1.26-1.31A4,4,0,0,0,67,23.92a3.22,3.22,0,0,0-1.81.41c-.51.28-.74.62-.71,1s.31.75.85,1.07a6.73,6.73,0,0,0,2.22.73l-2.08,1.2a7.12,7.12,0,0,1-2.19-.82,3.19,3.19,0,0,1-1.88-2.3c-.08-.83.43-1.58,1.52-2.21a7.14,7.14,0,0,1,3.86-.88A8.5,8.5,0,0,1,70.75,23.24Z"></path> <path class="cls-4" d="M78.35,28.33c1,.64,1.48,1.31,1.45,2a2.21,2.21,0,0,1-1.3,1.78,6.19,6.19,0,0,1-3.08.75A7.27,7.27,0,0,1,71.94,32l-.63.36-2.2-1.27.63-.36c-1-.63-1.46-1.3-1.45-2A2.14,2.14,0,0,1,69.57,27a6.21,6.21,0,0,1,3.1-.75,7.45,7.45,0,0,1,3.48.84l.8-.46,2.2,1.27Zm-4.06-.19a2.7,2.7,0,0,0-2.46.13c-.86.5-.77,1.06-.23,1.42ZM73.8,31a2.68,2.68,0,0,0,2.45-.13c.85-.49.77-1.06.24-1.43Z"></path> <path class="cls-4" d="M88,33.88c1,.64,1.47,1.31,1.45,2a2.2,2.2,0,0,1-1.31,1.79,6.16,6.16,0,0,1-3.08.75,7.44,7.44,0,0,1-3.48-.84l-.62.36-2.2-1.27.62-.36c-1-.64-1.46-1.31-1.45-2a2.13,2.13,0,0,1,1.29-1.78,6.18,6.18,0,0,1,3.1-.75,7.36,7.36,0,0,1,3.48.84l.8-.46,2.2,1.27Zm-4.06-.2a2.73,2.73,0,0,0-2.47.14c-.86.49-.77,1-.22,1.41Zm-.49,2.82a2.62,2.62,0,0,0,2.45-.13c.85-.49.77-1,.24-1.42Z"></path> </g> </g> </svg> 