<?xml version="1.0" encoding="UTF-8"?> <svg xmlns="http://www.w3.org/2000/svg" viewBox="0 0 147 147"> <defs> <style>.cls-1{fill:#c5ef60;stroke:#005b6e;stroke-miterlimit:10;stroke-width:7px;}.cls-2{fill:#005b6e;}</style> </defs> <title>6-14</title> <g id="Слой_2" data-name="Слой 2"> <g id="Слой_37" data-name="Слой 37"> <circle class="cls-1" cx="73.5" cy="73.5" r="70"></circle> <path class="cls-2" d="M42.35,54.82a1.15,1.15,0,0,1,.91,1.11v4.74a.73.73,0,0,1-.32.64,1,1,0,0,1-.8.1c-1.07-.17-2.2-.32-3.41-.42s-2.32-.16-3.35-.16a9.68,9.68,0,0,0-3.19.45,5.28,5.28,0,0,0-2,1.25,4.48,4.48,0,0,0-1.09,1.94,9.8,9.8,0,0,0-.32,2.58V68.6A7.76,7.76,0,0,1,30,68.22c.48-.1,1-.19,1.52-.26s1.06-.14,1.59-.19,1-.08,1.44-.08c3.9,0,6.78,1,8.62,2.85a10.58,10.58,0,0,1,2.77,7.69v1.7q0,5.75-3.52,8.86T32.56,91.9q-6.81,0-10.11-3.38t-3.3-9.87V67.9A19.08,19.08,0,0,1,20,62a12.52,12.52,0,0,1,2.64-4.6,11.9,11.9,0,0,1,4.44-3,17,17,0,0,1,6.3-1.06,27.75,27.75,0,0,1,4.77.4A25.91,25.91,0,0,1,42.35,54.82ZM32.08,75c-.53,0-1.09,0-1.67,0s-1.15.09-1.68.16v3.89a9.31,9.31,0,0,0,.72,4.09q.72,1.44,3.06,1.44a3.34,3.34,0,0,0,3-1.25,5.83,5.83,0,0,0,.83-3.27v-.85a5,5,0,0,0-.9-3C34.83,75.39,33.71,75,32.08,75Z"></path> <path class="cls-2" d="M51.24,77.32c-.68,0-1-.32-1-1V70.88c0-.64.33-.95,1-.95H67.62c.68,0,1,.31,1,.95v5.48c0,.64-.33,1-1,1Z"></path> <path class="cls-2" d="M83.32,61.47H82.09c-.81,0-1.64,0-2.47.1s-1.66.18-2.47.32-1.12-.21-1.12-1V56.25a1,1,0,0,1,.8-1.06,63.75,63.75,0,0,1,6.38-.88C85.45,54.12,87.36,54,89,54h3.4c.64,0,1,.35,1,1.06V90.25c0,.67-.32,1-1,1H84.28c-.64,0-1-.34-1-1Z"></path> <path class="cls-2" d="M129,77.48h2.5a.9.9,0,0,1,1,1v5.22a.9.9,0,0,1-1,1H129v5.53c0,.67-.32,1-1,1h-7.87c-.64,0-1-.34-1-1V84.72H104.76c-.71,0-1.06-.34-1.06-1V79.29a9.68,9.68,0,0,1,.15-1.7c.11-.57.25-1.19.43-1.87.57-2.12,1.13-4.11,1.68-6s1.1-3.6,1.67-5.27,1.15-3.29,1.73-4.87,1.2-3.15,1.84-4.71a1.4,1.4,0,0,1,1.43-.9h7c.39,0,.63.11.72.34a1,1,0,0,1,0,.77c-1.38,3.52-2.63,7.06-3.75,10.65s-2.17,7.48-3.16,11.7h5.8v-10c0-.71.32-1.07,1-1.07H128c.64,0,1,.36,1,1.07Z"></path> </g> </g> </svg> 