<svg id="Layer_1" enable-background="new 0 0 512.095 512.095" height="512" viewBox="0 0 512.095 512.095" width="512" xmlns="http://www.w3.org/2000/svg"><g><path d="m512.095 173.389h-30c0 16.143-12.4 29.438-28.174 30.877-27.601-33.484-69.38-54.866-116.06-54.866h-157.41c-13.65-21.712-37.713-35.279-63.773-35.279h-30.762v66.421c-19.932 15.371-35.916 35.762-46.055 58.709h-39.861v121.029h39.845c12.643 28.817 33.882 52.798 61.026 68.872v63.677h95.196v-42.698h123.258v42.698h95.196v-63.676c45.695-27.044 73.705-75.804 73.705-129.388 0-24.812-6.046-48.237-16.734-68.887 23.633-8.415 40.603-31.003 40.603-57.489zm-119.416 233.567-8.158 4.182v51.692h-35.196v-42.698h-183.258v42.698h-35.196v-51.692l-8.158-4.182c-27.429-14.06-48.229-37.753-58.569-66.718l-3.555-9.957h-30.589v-61.029h30.589l3.555-9.957c8.431-23.617 24.509-44.489 45.272-58.771l6.5-4.47v-51.932h.762c17.729 0 33.926 10.447 41.264 26.615l4.186 9.225 10.121-.438c1.911-.083 3.639-.123 5.282-.123h160.331c66.37 0 120.365 53.996 120.365 120.365-.001 45.393-25.117 86.466-65.548 107.19z"/><path d="m211.796 209.213h91.8v30h-91.8z"/><path d="m100.871 250.898h30v30.002h-30z"/><path d="m257.696 118.97c27.488 0 49.852-22.363 49.852-49.853s-22.364-49.853-49.852-49.853-49.852 22.363-49.852 49.853 22.364 49.853 49.852 49.853zm0-69.705c10.946 0 19.852 8.906 19.852 19.853s-8.906 19.853-19.852 19.853-19.852-8.906-19.852-19.853 8.906-19.853 19.852-19.853z"/></g></svg>