<?xml version="1.0" encoding="UTF-8"?> <svg xmlns="http://www.w3.org/2000/svg" viewBox="0 0 124.7 161.02"> <defs> <style>.cls-1{fill:#fcc142;}.cls-2{fill:#fff;}</style> </defs> <title>Вопрос ж</title> <g id="Слой_2" data-name="Слой 2"> <g id="Слой_12" data-name="Слой 12"> <ellipse class="cls-1" cx="62.35" cy="80.51" rx="50.91" ry="88.18" transform="translate(-31.9 41.96) rotate(-30)"></ellipse> <path class="cls-2" d="M68.32,91.87l-19-11V64.61q15.36,6.08,15.36.33c0-3-2.37-5.75-7.21-8.54-6.35-3.67-12.32-5.26-17.92-4.66V32.47c5.79-1.15,12.71.66,21,5.42A55.37,55.37,0,0,1,78,53.66a34.58,34.58,0,0,1,7.11,20.86c0,5.36-1.61,8.81-4.93,10.29a18.48,18.48,0,0,1-11.86.82Z"></path> <path class="cls-2" d="M67.38,100.88a22.34,22.34,0,0,1,3.41,11.39q0,5.58-3.41,7.55c-2.28,1.21-5,.93-8.16-.87a24.09,24.09,0,0,1-8.25-8.6,23,23,0,0,1-3.41-11.5c0-3.72,1.14-6.24,3.41-7.44s5-1,8.25.82A23,23,0,0,1,67.38,100.88Z"></path> </g> </g> </svg> 