<?xml version="1.0" encoding="UTF-8"?> <svg xmlns="http://www.w3.org/2000/svg" viewBox="0 0 417.42 132.3"> <defs> <style>.cls-1{fill:#ff6464;}.cls-2{fill:#fff;}</style> </defs> <title>Парк Мульты Лента</title> <g id="Слой_2" data-name="Слой 2"> <g id="Слой_12" data-name="Слой 12"> <path class="cls-1" d="M311.68,106.32a217.8,217.8,0,0,1-33.58,4.79c-38.47,2.45-68.38-5.74-94.77-13-27.54-7.54-47.43-13-72.15-6.14C90.11,97.84,70.44,111.4,52.7,132.3L0,87.57C26.86,55.92,58.06,35,92.73,25.4c43.07-11.93,78-2.36,108.85,6.08,23.23,6.36,45.18,12.36,72.14,10.65C307.35,40,341.62,25.82,375.58,0l41.84,55C383.08,81.13,347.63,98.31,311.68,106.32Z"></path> <path class="cls-2" d="M56.07,98.21l-6.71,4.85L33,80.46l6.88-5L50.65,80l-.83-11.63,6.84-5L73,86l-6.65,4.8L57.19,78.14l.7,7.7-3.74,2.7-7.22-3Z"></path> <path class="cls-2" d="M75.33,84.23l-3-6.53a8,8,0,0,0,3.91-.81,4,4,0,0,0,2.55-3.47L62,60.3l8.49-3.83,8.79,7.74L78.87,52.7,87,49l-.15,23.84a11.27,11.27,0,0,1-2.36,7.36A11.78,11.78,0,0,1,80.76,83,11.38,11.38,0,0,1,75.33,84.23Z"></path> <path class="cls-2" d="M95.25,67a4.93,4.93,0,0,0,2,.09,3.33,3.33,0,0,0,2-1c.76-1,.82-4.13-.51-10.65l-1.86-9.13,21.48-4.67,5.91,27.25L116,70.61l-4.35-20-5.56,1.21.67,3.28c1.37,6.67,1.42,11.42.21,14.3s-3.12,4.22-6.12,4.87a8.06,8.06,0,0,1-4,.13Z"></path> <path class="cls-2" d="M127.08,68.72l.36-27.87L136,41l-.1,8,3.94,0A12.21,12.21,0,0,1,148.17,52,9.57,9.57,0,0,1,148,66.25a12.32,12.32,0,0,1-8.43,2.63Zm8.69-13-.07,6,3.42,0c2.07,0,3.52-1.15,3.54-2.9s-1.39-3.09-3.46-3.11Z"></path> <path class="cls-2" d="M155.09,49.11l1.35-7.24,24.08,4.49-1.35,7.24-7.87-1.46L167.54,72.3l-8.42-1.58,3.76-20.16Z"></path> <path class="cls-2" d="M197.54,81.25,189.28,79l.81-3a14.09,14.09,0,0,1-8.22-6.33,11.9,11.9,0,0,1-1.12-9.19,11.7,11.7,0,0,1,5.63-7.3,14.09,14.09,0,0,1,10.3-1.27l.64-2.34,8.26,2.26-.64,2.34c3.89,1.31,6.62,3.42,8.22,6.33a11.83,11.83,0,0,1,1.09,9.14,12,12,0,0,1-5.6,7.35c-2.86,1.69-6.28,2.12-10.3,1.27ZM194.77,58.9c-2.23-.44-4.68.66-5.57,3.89s.67,5.43,2.81,6.22Zm5.5,12.37c2.24.4,4.7-.74,5.57-3.93s-.67-5.43-2.81-6.18Z"></path> <path class="cls-2" d="M221.83,86.18l-7.15-1.43,5.5-27.34,8.13,1.64-2.74,13.58,13.28-11.46,6.91,1.39-5.5,27.33-8-1.62,2.71-13.47Z"></path> <path class="cls-2" d="M245.39,82.82a4.9,4.9,0,0,0,1.93.6,3.33,3.33,0,0,0,2.21-.51c1-.8,1.82-3.8,2.16-10.44l.49-9.3,22,.86-1.09,27.85-8.52-.33.81-20.49-5.69-.23-.17,3.34c-.35,6.8-1.49,11.42-3.38,13.9S252,91.37,249,91.25a8,8,0,0,1-3.87-.87Z"></path> <path class="cls-2" d="M280.3,91.39l-3.69-27.63,8.45-1.12,1.06,8,3.91-.52a12.11,12.11,0,0,1,8.7,1.69,9.55,9.55,0,0,1,1.89,14.13,12.34,12.34,0,0,1-8,3.83ZM287,77.24l.8,6,3.39-.45c2.05-.28,3.32-1.65,3.08-3.39s-1.82-2.85-3.88-2.57Z"></path> <path class="cls-2" d="M317.53,84.6l-7.9,2.49-8.4-26.58L309.32,58l8.8,7.62L321,54.28l8-2.54,8.4,26.58-7.83,2.47L324.9,65.9l-1.76,7.53-4.4,1.39-5.91-5.11Z"></path> <path class="cls-2" d="M344.25,75.6,331.34,50.88l7.59-4,3.72,7.13,2.72-1.42a12.12,12.12,0,0,1,8.72-1.37,9.61,9.61,0,0,1,6.64,12.62,12.33,12.33,0,0,1-6.18,6.33ZM345.75,60l2.78,5.33,2.23-1.16c1.83-1,2.55-2.68,1.74-4.24s-2.69-2-4.53-1.09Zm28.75-.19-7.55,4L354,39l7.56-3.94Z"></path> </g> </g> </svg> 