<svg width="50" height="50" viewBox="0 0 50 50" fill="none" xmlns="http://www.w3.org/2000/svg">
<path d="M47.6562 0.78125H2.34375C1.04492 0.78125 0 1.82617 0 3.125V37.5C0 37.9297 0.351562 38.2812 0.78125 38.2812H18.5742L17.3242 44.5312H15.625C15.1953 44.5312 14.8438 44.8828 14.8438 45.3125V47.6562H13.2812V49.2188H36.7188V47.6562H35.1562V45.3125C35.1562 44.8828 34.8047 44.5312 34.375 44.5312H32.666L31.416 38.2812H49.2188C49.6484 38.2812 50 37.9297 50 37.5V3.125C50 1.82617 48.9551 0.78125 47.6562 0.78125ZM32.0312 46.0938H33.5938V47.6562H16.4062V46.0938H17.9688H32.0312ZM18.9258 44.5312L20.1758 38.2812H29.834L31.084 44.5312H18.9258ZM48.4375 36.7188H1.5625V29.6875H12.5H17.1875H21.875H26.5625H31.25H37.5H48.4375V36.7188ZM37.5 7.8125H31.25C30.8203 7.8125 30.4688 8.16406 30.4688 8.59375V15.625H32.0312V9.375H36.7188V12.5H33.5938V14.0625H36.7188V17.9688H33.5938V19.5312H36.7188V23.4375H33.5938V25H36.7188V28.125H32.0312V21.875H30.4688V28.125H27.3438V24.2188C27.3438 21.0352 31.2109 20.332 31.377 20.3027C31.4746 20.2832 31.5625 20.2539 31.6504 20.2051C32.0215 19.9805 32.1387 19.502 31.9238 19.1309L24.8926 7.41211C24.834 7.33398 24.7656 7.25586 24.6777 7.19727C24.3066 6.94336 23.7988 7.04102 23.5449 7.41211L16.5137 19.1309C16.4648 19.2188 16.4258 19.3066 16.416 19.4043C16.3477 19.834 16.6309 20.2344 17.0508 20.3027C17.2168 20.332 21.084 21.0352 21.084 24.2188V28.125H17.959V21.875H16.3965V28.125H15.6152V14.0625H16.3965V15.625H17.959V13.2812C17.959 13.1738 17.9395 13.0664 17.9004 12.9688L15.5566 7.5C15.4785 7.31445 15.332 7.16797 15.1465 7.08984C14.7461 6.92383 14.2871 7.09961 14.1211 7.5L11.7773 12.9688C11.7383 13.0664 11.709 13.1738 11.7188 13.2812V28.125H5.46875V6.25H44.5312V28.125H38.2812V8.59375C38.2812 8.16406 37.9297 7.8125 37.5 7.8125ZM22.6562 25.7812V25H25.7812V25.7812H22.6562ZM25.7812 27.3438V28.125H22.6562V27.3438H25.7812ZM22.5977 23.4375C22.2266 20.957 20.0977 19.6094 18.3984 19.0332L23.4375 10.6348V17.1875H25V10.6348L30.0391 19.0332C28.3398 19.5996 26.2109 20.9473 25.8398 23.4375H22.5977ZM13.6816 12.5L14.8438 9.79492L16.0059 12.5H13.6816ZM14.0625 14.0625V28.125H13.2812V14.0625H14.0625ZM48.4375 28.125H46.0938V5.46875C46.0938 5.03906 45.7422 4.6875 45.3125 4.6875H4.6875C4.25781 4.6875 3.90625 5.03906 3.90625 5.46875V28.125H1.5625V3.125C1.5625 2.69531 1.91406 2.34375 2.34375 2.34375H47.6562C48.0859 2.34375 48.4375 2.69531 48.4375 3.125V28.125Z" fill="#9BD1C7"/>
<path d="M25 30.4688C23.7012 30.4688 22.6562 31.5137 22.6562 32.8125C22.6562 34.1113 23.7012 35.1562 25 35.1562C26.2988 35.1562 27.3438 34.1113 27.3438 32.8125C27.3438 31.5137 26.2988 30.4688 25 30.4688ZM25 33.5938C24.5703 33.5938 24.2188 33.2422 24.2188 32.8125C24.2188 32.3828 24.5703 32.0312 25 32.0312C25.4297 32.0312 25.7812 32.3828 25.7812 32.8125C25.7812 33.2422 25.4297 33.5938 25 33.5938Z" fill="#F6F6F6"/>
</svg>
