<svg width="62" height="62" viewBox="0 0 62 62" fill="none" xmlns="http://www.w3.org/2000/svg">
<g clip-path="url(#clip0)">
<path d="M37.0189 33.5058C36.838 33.2475 36.5409 33.0796 36.218 33.0666L33.0018 32.9116L31.9943 29.6567C31.8264 29.1142 31.2451 28.8042 30.7026 28.9721C30.3797 29.0754 30.1214 29.3337 30.018 29.6567L29.0105 32.9116L25.7943 33.0666C25.2259 33.0925 24.7868 33.5833 24.8126 34.1516C24.8255 34.4746 24.9934 34.7587 25.2518 34.9525L27.8351 36.7737L26.8405 40.0029C26.6726 40.5454 26.9826 41.1266 27.5251 41.2946C27.848 41.3979 28.1968 41.3333 28.4551 41.1266L31.0255 39.1633L33.5959 41.1266C34.048 41.4754 34.6939 41.385 35.0426 40.9329C35.2493 40.6616 35.3139 40.3129 35.2105 40.0029L34.2159 36.7737L36.7993 34.9525C37.2255 34.6166 37.3418 33.9708 37.0189 33.5058ZM32.3818 35.5079C32.0201 35.7662 31.8522 36.2312 31.9943 36.6575L32.2526 37.51L31.6326 37.0321C31.258 36.7479 30.7414 36.7479 30.3797 37.0321L29.7597 37.51L30.018 36.6575C30.1472 36.2312 29.9922 35.7662 29.6305 35.5079L28.8943 34.9912L29.8372 34.9525C30.2764 34.9266 30.6509 34.6425 30.7801 34.2291L31.0126 33.48L31.2451 34.2291C31.3743 34.6425 31.7489 34.9396 32.188 34.9525L33.1309 34.9912L32.3818 35.5079Z" fill="#9BD1C7"/>
<path d="M39.6542 9.70047L43.2062 4.72756C43.5421 4.26256 43.4258 3.61672 42.9608 3.28089C42.7412 3.12589 42.4829 3.06131 42.2117 3.10006L35.495 4.05589L31.7362 0.297139C31.3358 -0.103278 30.6771 -0.103278 30.2767 0.297139L26.505 4.06881L19.7883 3.11297C19.22 3.03547 18.7033 3.42297 18.6129 3.99131C18.5742 4.24964 18.6387 4.52089 18.7937 4.74047L22.3458 9.70047C8.30541 14.4796 0.787905 29.7471 5.56707 43.7876C9.27415 54.6763 19.5042 62.0001 31 62.0001C45.8412 62.0001 57.8667 49.9746 57.8667 35.1463C57.8667 23.6376 50.5558 13.4076 39.6542 9.70047ZM50.3362 19.6334C53.4233 23.4696 55.2962 28.1584 55.7096 33.0667H51.6667V25.8334C51.6667 25.2651 51.2017 24.8001 50.6333 24.8001H40.5583C40.3 23.0563 39.9512 21.3384 39.5121 19.6334H50.3362ZM12.4 43.4001V26.8667H49.6V43.4001H12.4ZM38.4787 45.4667C38.2075 47.2105 37.8329 48.9284 37.3679 50.6334H24.6321C24.1671 48.9284 23.8054 47.2105 23.5212 45.4667H38.4787ZM37.3679 19.6334C37.8329 21.3384 38.1946 23.0563 38.4787 24.8001H23.5342C23.8054 23.0563 24.18 21.3384 24.645 19.6334H37.3679ZM25.2779 17.5667C26.815 13.0976 28.8946 10.3334 31 10.3334C33.1054 10.3334 35.185 13.0976 36.7221 17.5667H25.2779ZM48.4892 17.5667H38.9179C38.2075 15.0996 37.045 12.7876 35.4821 10.7467C40.4033 11.6509 44.9371 14.0276 48.4892 17.5667ZM21.8808 5.50256L26.7246 6.20006C27.0475 6.25172 27.3704 6.13547 27.6029 5.90297L31 2.49297L34.3971 5.89006C34.6296 6.12256 34.9525 6.22589 35.2754 6.18714L40.1192 5.48964L37.5617 9.06755C33.2475 7.98255 28.7396 7.98255 24.4383 9.06755L21.8808 5.50256ZM26.5308 10.7467C24.9679 12.7876 23.7925 15.0996 23.095 17.5667H13.5237C17.0629 14.0276 21.5967 11.6509 26.5308 10.7467ZM11.6637 19.6334H22.4879C22.0487 21.3384 21.7 23.0563 21.4417 24.8001H11.3667C10.7983 24.8001 10.3333 25.2651 10.3333 25.8334V33.0667H6.2904C6.70374 28.1584 8.57666 23.4696 11.6637 19.6334ZM11.6637 50.6334C8.12457 46.2417 6.19999 40.778 6.19999 35.1334H10.3333V44.4334C10.3333 45.0017 10.7983 45.4667 11.3667 45.4667H21.4417C21.7 47.2105 22.0487 48.9284 22.4879 50.6334H11.6637ZM13.5108 52.7001H23.0821C23.7925 55.1671 24.955 57.4792 26.5179 59.5201C21.5967 58.6159 17.0629 56.2392 13.5108 52.7001ZM31 59.9334C28.8946 59.9334 26.815 57.1692 25.2779 52.7001H36.7221C35.185 57.1692 33.1183 59.9334 31 59.9334ZM35.4821 59.5201C37.045 57.4792 38.2204 55.1671 38.9179 52.7001H48.4892C44.9371 56.2392 40.4033 58.6159 35.4821 59.5201ZM39.5121 50.6334C39.9512 48.9284 40.3 47.2105 40.5583 45.4667H50.6333C51.2017 45.4667 51.6667 45.0017 51.6667 44.4334V35.1334H55.8C55.8 40.778 53.8754 46.2417 50.3362 50.6334H39.5121Z" fill="#9BD1C7"/>
</g>
<defs>
<clipPath id="clip0">
<rect width="62" height="62" fill="white"/>
</clipPath>
</defs>
</svg>
