<svg width="50" height="50" viewBox="0 0 50 50" fill="none" xmlns="http://www.w3.org/2000/svg">
<path d="M14.2871 34.9316L15.3906 33.8281L6.57227 25L28.4473 3.125H41.4062V6.25H39.707C39.2773 5.0293 37.9395 4.39453 36.7188 4.82422C35.498 5.25391 34.8633 6.5918 35.293 7.8125C35.7227 9.0332 37.0605 9.66797 38.2812 9.23828C38.9453 9.00391 39.4727 8.47656 39.707 7.8125H41.4062V16.084L26.0059 31.4746L27.1094 32.5781L42.7344 16.9531C42.8809 16.8066 42.959 16.6113 42.959 16.3965V12.4902H45.3027C47.0312 12.4902 48.4277 11.0938 48.4277 9.36523C48.4277 7.63672 47.0312 6.24023 45.3027 6.24023H42.959V2.34375C42.959 1.91406 42.6074 1.5625 42.1777 1.5625H28.125C27.9199 1.5625 27.7148 1.64062 27.5684 1.78711L4.91211 24.4434C4.60937 24.7461 4.60937 25.2441 4.91211 25.5469L14.2871 34.9316ZM36.7188 7.03125C36.7188 6.60156 37.0703 6.25 37.5 6.25V7.8125C37.0703 7.8125 36.7188 7.46094 36.7188 7.03125ZM45.3125 7.8125C46.1719 7.8125 46.875 8.51562 46.875 9.375C46.875 10.2344 46.1719 10.9375 45.3125 10.9375H42.9688V7.8125H45.3125Z" fill="#9BD1C7"/>
<path d="M22.7736 16.9825C23.0177 17.7443 23.6036 18.3497 24.3654 18.6036C24.3849 19.3556 24.756 20.0587 25.3615 20.4982C26.0158 20.9962 26.8654 21.1427 27.6564 20.9083C28.5548 22.0314 30.1954 22.2071 31.3185 21.2989C31.465 21.1818 31.5919 21.045 31.7091 20.9083C32.4904 21.1427 33.3497 20.9962 34.004 20.4982C34.6095 20.0587 34.9806 19.3556 35.0001 18.6036C35.7618 18.3497 36.3575 17.7443 36.5919 16.9825C36.8263 16.2599 36.7091 15.4689 36.2697 14.8439C36.7091 14.2286 36.8361 13.4278 36.5919 12.7052C36.3478 11.9435 35.7618 11.338 35.0001 11.0841C34.9806 10.3321 34.6095 9.62902 34.004 9.18957C33.3497 8.69152 32.5001 8.54503 31.7091 8.77941C30.8107 7.65636 29.17 7.48058 28.047 8.38878C27.9005 8.50597 27.7736 8.64269 27.6564 8.77941C26.8751 8.54503 26.0158 8.69152 25.3615 9.18957C24.756 9.62902 24.3849 10.3321 24.3654 11.0841C23.6036 11.338 23.0079 11.9435 22.7736 12.7052C22.5392 13.4278 22.6564 14.2189 23.0958 14.8439C22.6564 15.4591 22.5392 16.2599 22.7736 16.9825ZM24.6388 14.1896C24.2872 13.9845 24.131 13.5646 24.2579 13.1739C24.3849 12.754 24.7951 12.4806 25.2345 12.5099C25.6642 12.5196 26.0255 12.1778 26.0353 11.7482C26.0353 11.6505 26.0255 11.5528 25.9865 11.4552C25.84 11.0841 25.9767 10.6642 26.299 10.4396C26.6603 10.1564 27.1681 10.1564 27.5294 10.4396C27.8712 10.6935 28.3693 10.6251 28.6232 10.2735C28.672 10.2052 28.7208 10.1173 28.7404 10.0392C28.8868 9.55089 29.3263 9.37511 29.6876 9.37511C30.049 9.37511 30.4786 9.55089 30.6349 10.0392C30.7618 10.4493 31.2013 10.6837 31.6115 10.5568C31.6993 10.5275 31.7775 10.4884 31.8458 10.4396C32.2072 10.1564 32.715 10.1564 33.0763 10.4396C33.3986 10.6642 33.5353 11.0841 33.3888 11.4552C33.2423 11.8556 33.4474 12.3048 33.8478 12.461C33.9454 12.5001 34.0431 12.5099 34.1407 12.5099C34.5802 12.4806 34.9806 12.754 35.1173 13.1739C35.2443 13.5548 35.088 13.9747 34.7365 14.1896C34.3751 14.4239 34.2775 14.9122 34.5118 15.2735C34.5704 15.3614 34.6486 15.4396 34.7365 15.4982C35.088 15.7032 35.2443 16.1232 35.1173 16.5138C34.9904 16.9337 34.5802 17.2071 34.1407 17.1778C33.7111 17.1681 33.3497 17.5099 33.34 17.9396C33.34 18.0372 33.3497 18.1349 33.3888 18.2325C33.5353 18.6036 33.3986 19.0236 33.0763 19.2482C32.715 19.5314 32.2072 19.5314 31.8458 19.2482C31.504 18.9943 31.006 19.0626 30.7521 19.4142C30.7032 19.4825 30.6544 19.5704 30.6349 19.6485C30.4884 20.1368 30.049 20.3126 29.6876 20.3126C29.3263 20.3126 28.8966 20.1368 28.7404 19.6485C28.6134 19.2384 28.174 19.004 27.7638 19.131C27.6759 19.1603 27.5978 19.1993 27.5294 19.2482C27.1681 19.5314 26.6603 19.5314 26.299 19.2482C25.9767 19.0236 25.84 18.6036 25.9865 18.2325C26.1329 17.8321 25.9279 17.3829 25.5275 17.2267C25.4298 17.1876 25.3322 17.1778 25.2345 17.1778C24.7951 17.2071 24.3947 16.9337 24.2579 16.5138C24.131 16.1329 24.2872 15.713 24.6388 15.4982C25.0001 15.2638 25.0978 14.7755 24.8634 14.4142C24.8048 14.3263 24.7267 14.2482 24.6388 14.1896Z" fill="#9BD1C7"/>
<path d="M13.5139 20.5374L8.8252 25.2261L9.93004 26.3309L14.6187 21.6422L13.5139 20.5374Z" fill="#9BD1C7"/>
<path d="M15.8576 22.8809L11.1689 27.5696L12.2738 28.6744L16.9625 23.9857L15.8576 22.8809Z" fill="#9BD1C7"/>
<path d="M18.2014 25.2246L13.5127 29.9133L14.6175 31.0182L19.3062 26.3295L18.2014 25.2246Z" fill="#9BD1C7"/>
<path d="M20.5451 27.5684L15.8564 32.2571L16.9613 33.3619L21.65 28.6732L20.5451 27.5684Z" fill="#9BD1C7"/>
<path d="M22.8795 29.9211L20.5386 32.262L21.6434 33.3668L23.9843 31.0259L22.8795 29.9211Z" fill="#9BD1C7"/>
<path d="M19.3011 16.6413L18.1963 17.7461L20.1021 19.6519L21.207 18.5471L19.3011 16.6413Z" fill="#9BD1C7"/>
<path d="M22.2289 19.5619L21.124 20.6667L26.0061 25.5488L27.1109 24.4439L22.2289 19.5619Z" fill="#9BD1C7"/>
<path d="M9.97044 7.0117C11.6111 7.42185 12.9001 8.70115 13.3103 10.3515C13.4177 10.7715 13.8376 11.0254 14.2575 10.9179C14.5407 10.8496 14.7556 10.625 14.8239 10.3515C15.2341 8.71092 16.5134 7.42185 18.1638 7.0117C18.5837 6.90427 18.8376 6.48435 18.7302 6.06443C18.6618 5.78123 18.4372 5.56638 18.1638 5.49802C16.5232 5.08787 15.2341 3.80857 14.8239 2.15818C14.7165 1.73826 14.2966 1.48435 13.8767 1.59177C13.5935 1.66013 13.3786 1.88474 13.3103 2.15818C12.9001 3.79881 11.6208 5.08787 9.97044 5.49802C9.55051 5.60545 9.29661 6.02537 9.40403 6.44529C9.47239 6.71873 9.68723 6.93357 9.97044 7.0117ZM14.0622 4.31638C14.5505 5.09763 15.2146 5.7617 15.9958 6.24998C15.2146 6.73826 14.5505 7.40232 14.0622 8.18357C13.5739 7.40232 12.9099 6.73826 12.1286 6.24998C12.9099 5.7617 13.5739 5.09763 14.0622 4.31638Z" fill="#9BD1C7"/>
<path d="M38.9288 23.2431L33.0386 29.1333L34.1434 30.2381L40.0336 24.3479L38.9288 23.2431Z" fill="#9BD1C7"/>
<path d="M41.6338 20.5424L40.0732 22.103L41.1781 23.2079L42.7387 21.6473L41.6338 20.5424Z" fill="#9BD1C7"/>
<path d="M47.6563 32.8126H40.6251C40.1954 32.8126 39.8438 33.1641 39.8438 33.5938V34.336C35.9767 31.5528 30.8399 31.2696 26.6798 33.6036L25.3126 34.3751H18.7501C16.5919 34.3751 14.8438 36.1231 14.8438 38.2813C14.8438 39.0723 15.0782 39.8341 15.5274 40.4884L7.19736 36.3477C6.69931 36.1036 6.15243 35.9669 5.59579 35.9669H5.26376C3.24228 35.9473 1.58212 37.5782 1.57236 39.5997C1.56259 40.9962 2.34384 42.2755 3.59384 42.9102L13.1837 47.7052C14.1602 48.1934 15.2345 48.4473 16.3282 48.4473H47.6563C48.086 48.4473 48.4376 48.0958 48.4376 47.6661V33.5938C48.4376 33.1641 48.086 32.8126 47.6563 32.8126ZM13.877 46.2989L4.2872 41.504C3.25204 40.9864 2.83212 39.7266 3.3497 38.6817C3.70126 37.9688 4.43368 37.5196 5.2247 37.5196H5.24423H5.57626C5.89853 37.5196 6.21103 37.5977 6.49423 37.7345L15.2735 42.0997C15.3809 42.1485 15.4981 42.1778 15.6251 42.1778H25.7813C26.211 42.1778 26.5626 41.8263 26.5626 41.3966C26.5626 40.9669 26.211 40.6153 25.7813 40.6153H18.7501C17.4513 40.6153 16.4063 39.5704 16.4063 38.2716C16.4063 36.9727 17.4513 35.9278 18.7501 35.9278H25.5177C25.6544 35.9278 25.7813 35.8888 25.8985 35.8302L27.4415 34.961C31.2403 32.8223 35.9571 33.2032 39.3653 35.9278L39.8341 36.2989V46.8751H16.3185C15.4688 46.8751 14.629 46.6798 13.877 46.2989ZM46.8751 46.8751H41.4063V34.3751H46.8751V46.8751Z" fill="#9BD1C7"/>
<path d="M44.1406 44.5312C44.7852 44.5312 45.3125 44.0039 45.3125 43.3594C45.3125 42.7148 44.7852 42.1875 44.1406 42.1875C43.4961 42.1875 42.9688 42.7148 42.9688 43.3594C42.9688 44.0039 43.4961 44.5312 44.1406 44.5312Z" fill="#9BD1C7"/>
<path d="M17.7367 19.757L16.6318 20.8618L22.8811 27.1111L23.986 26.0062L17.7367 19.757Z" fill="#9BD1C7"/>
</svg>
