<svg width="377" height="377" viewBox="0 0 377 377" fill="none" xmlns="http://www.w3.org/2000/svg">
<circle cx="1.5" cy="137.5" r="1.5" fill="#96E3D5" fill-opacity="0.35"/>
<circle cx="1.5" cy="171.5" r="1.5" fill="#96E3D5" fill-opacity="0.35"/>
<circle cx="1.5" cy="205.5" r="1.5" fill="#96E3D5" fill-opacity="0.35"/>
<circle cx="1.5" cy="239.5" r="1.5" fill="#96E3D5" fill-opacity="0.35"/>
<circle cx="35.5" cy="137.5" r="1.5" fill="#96E3D5" fill-opacity="0.6"/>
<circle cx="35.5" cy="171.5" r="1.5" fill="#96E3D5" fill-opacity="0.6"/>
<circle cx="35.5" cy="205.5" r="1.5" fill="#96E3D5" fill-opacity="0.6"/>
<circle cx="35.5" cy="239.5" r="1.5" fill="#96E3D5" fill-opacity="0.6"/>
<circle cx="69.5" cy="137.5" r="1.5" fill="#96E3D5"/>
<circle cx="69.5" cy="171.5" r="1.5" fill="#96E3D5"/>
<circle cx="69.5" cy="205.5" r="1.5" fill="#96E3D5"/>
<circle cx="69.5" cy="239.5" r="1.5" fill="#96E3D5"/>
<circle cx="103.5" cy="137.5" r="1.5" fill="#96E3D5"/>
<circle cx="103.5" cy="171.5" r="1.5" fill="#96E3D5"/>
<circle cx="103.5" cy="205.5" r="1.5" fill="#96E3D5"/>
<circle cx="103.5" cy="239.5" r="1.5" fill="#96E3D5"/>
<circle cx="137.5" cy="137.5" r="1.5" fill="#96E3D5"/>
<circle cx="137.5" cy="171.5" r="1.5" fill="#96E3D5"/>
<circle cx="137.5" cy="205.5" r="1.5" fill="#96E3D5"/>
<circle cx="137.5" cy="239.5" r="1.5" fill="#96E3D5"/>
<circle cx="171.5" cy="137.5" r="1.5" fill="#96E3D5"/>
<circle cx="171.5" cy="171.5" r="1.5" fill="#96E3D5"/>
<circle cx="171.5" cy="205.5" r="1.5" fill="#96E3D5"/>
<circle cx="171.5" cy="239.5" r="1.5" fill="#96E3D5"/>
<circle cx="205.5" cy="137.5" r="1.5" fill="#96E3D5"/>
<circle cx="205.5" cy="171.5" r="1.5" fill="#96E3D5"/>
<circle cx="205.5" cy="205.5" r="1.5" fill="#96E3D5"/>
<circle cx="205.5" cy="239.5" r="1.5" fill="#96E3D5"/>
<circle cx="239.5" cy="137.5" r="1.5" fill="#96E3D5"/>
<circle cx="239.5" cy="171.5" r="1.5" fill="#96E3D5"/>
<circle cx="239.5" cy="205.5" r="1.5" fill="#96E3D5"/>
<circle cx="239.5" cy="239.5" r="1.5" fill="#96E3D5"/>
<circle cx="1.5" cy="273.5" r="1.5" fill="#96E3D5" fill-opacity="0.35"/>
<circle cx="1.5" cy="307.5" r="1.5" fill="#96E3D5" fill-opacity="0.35"/>
<circle cx="1.5" cy="341.5" r="1.5" fill="#96E3D5" fill-opacity="0.35"/>
<circle cx="1.5" cy="375.5" r="1.5" fill="#96E3D5" fill-opacity="0.35"/>
<circle cx="35.5" cy="273.5" r="1.5" fill="#96E3D5" fill-opacity="0.6"/>
<circle cx="35.5" cy="307.5" r="1.5" fill="#96E3D5" fill-opacity="0.6"/>
<circle cx="35.5" cy="341.5" r="1.5" fill="#96E3D5" fill-opacity="0.6"/>
<circle cx="35.5" cy="375.5" r="1.5" fill="#96E3D5" fill-opacity="0.35"/>
<circle cx="69.5" cy="273.5" r="1.5" fill="#96E3D5"/>
<circle cx="69.5" cy="307.5" r="1.5" fill="#96E3D5"/>
<circle cx="69.5" cy="341.5" r="1.5" fill="#96E3D5" fill-opacity="0.6"/>
<circle cx="69.5" cy="375.5" r="1.5" fill="#96E3D5" fill-opacity="0.35"/>
<circle cx="103.5" cy="273.5" r="1.5" fill="#96E3D5"/>
<circle cx="103.5" cy="307.5" r="1.5" fill="#96E3D5"/>
<circle cx="103.5" cy="341.5" r="1.5" fill="#96E3D5" fill-opacity="0.6"/>
<circle cx="103.5" cy="375.5" r="1.5" fill="#96E3D5" fill-opacity="0.35"/>
<circle cx="137.5" cy="273.5" r="1.5" fill="#96E3D5"/>
<circle cx="137.5" cy="307.5" r="1.5" fill="#96E3D5"/>
<circle cx="137.5" cy="341.5" r="1.5" fill="#96E3D5" fill-opacity="0.6"/>
<circle cx="137.5" cy="375.5" r="1.5" fill="#96E3D5" fill-opacity="0.35"/>
<circle cx="171.5" cy="273.5" r="1.5" fill="#96E3D5"/>
<circle cx="171.5" cy="307.5" r="1.5" fill="#96E3D5"/>
<circle cx="171.5" cy="341.5" r="1.5" fill="#96E3D5" fill-opacity="0.6"/>
<circle cx="171.5" cy="375.5" r="1.5" fill="#96E3D5" fill-opacity="0.35"/>
<circle cx="205.5" cy="273.5" r="1.5" fill="#96E3D5"/>
<circle cx="205.5" cy="307.5" r="1.5" fill="#96E3D5"/>
<circle cx="205.5" cy="341.5" r="1.5" fill="#96E3D5" fill-opacity="0.6"/>
<circle cx="205.5" cy="375.5" r="1.5" fill="#96E3D5" fill-opacity="0.35"/>
<circle cx="239.5" cy="273.5" r="1.5" fill="#96E3D5"/>
<circle cx="239.5" cy="307.5" r="1.5" fill="#96E3D5"/>
<circle cx="239.5" cy="341.5" r="1.5" fill="#96E3D5" fill-opacity="0.6"/>
<circle cx="239.5" cy="375.5" r="1.5" fill="#96E3D5" fill-opacity="0.35"/>
<circle cx="273.5" cy="374.5" r="1.5" transform="rotate(-90 273.5 374.5)" fill="#96E3D5" fill-opacity="0.35"/>
<circle cx="307.5" cy="374.5" r="1.5" transform="rotate(-90 307.5 374.5)" fill="#96E3D5" fill-opacity="0.35"/>
<circle cx="341.5" cy="374.5" r="1.5" transform="rotate(-90 341.5 374.5)" fill="#96E3D5" fill-opacity="0.35"/>
<circle cx="375.5" cy="374.5" r="1.5" transform="rotate(-90 375.5 374.5)" fill="#96E3D5" fill-opacity="0.35"/>
<circle cx="273.5" cy="340.5" r="1.5" transform="rotate(-90 273.5 340.5)" fill="#96E3D5" fill-opacity="0.6"/>
<circle cx="307.5" cy="340.5" r="1.5" transform="rotate(-90 307.5 340.5)" fill="#96E3D5" fill-opacity="0.6"/>
<circle cx="341.5" cy="340.5" r="1.5" transform="rotate(-90 341.5 340.5)" fill="#96E3D5" fill-opacity="0.6"/>
<circle cx="375.5" cy="340.5" r="1.5" transform="rotate(-90 375.5 340.5)" fill="#96E3D5" fill-opacity="0.35"/>
<circle cx="273.5" cy="306.5" r="1.5" transform="rotate(-90 273.5 306.5)" fill="#96E3D5"/>
<circle cx="307.5" cy="306.5" r="1.5" transform="rotate(-90 307.5 306.5)" fill="#96E3D5"/>
<circle cx="341.5" cy="306.5" r="1.5" transform="rotate(-90 341.5 306.5)" fill="#96E3D5" fill-opacity="0.6"/>
<circle cx="375.5" cy="306.5" r="1.5" transform="rotate(-90 375.5 306.5)" fill="#96E3D5" fill-opacity="0.35"/>
<circle cx="273.5" cy="272.5" r="1.5" transform="rotate(-90 273.5 272.5)" fill="#96E3D5"/>
<circle cx="307.5" cy="272.5" r="1.5" transform="rotate(-90 307.5 272.5)" fill="#96E3D5"/>
<circle cx="341.5" cy="272.5" r="1.5" transform="rotate(-90 341.5 272.5)" fill="#96E3D5" fill-opacity="0.6"/>
<circle cx="375.5" cy="272.5" r="1.5" transform="rotate(-90 375.5 272.5)" fill="#96E3D5" fill-opacity="0.35"/>
<circle cx="273.5" cy="238.5" r="1.5" transform="rotate(-90 273.5 238.5)" fill="#96E3D5"/>
<circle cx="307.5" cy="238.5" r="1.5" transform="rotate(-90 307.5 238.5)" fill="#96E3D5"/>
<circle cx="341.5" cy="238.5" r="1.5" transform="rotate(-90 341.5 238.5)" fill="#96E3D5" fill-opacity="0.6"/>
<circle cx="375.5" cy="238.5" r="1.5" transform="rotate(-90 375.5 238.5)" fill="#96E3D5" fill-opacity="0.35"/>
<circle cx="273.5" cy="204.5" r="1.5" transform="rotate(-90 273.5 204.5)" fill="#96E3D5"/>
<circle cx="307.5" cy="204.5" r="1.5" transform="rotate(-90 307.5 204.5)" fill="#96E3D5"/>
<circle cx="341.5" cy="204.5" r="1.5" transform="rotate(-90 341.5 204.5)" fill="#96E3D5" fill-opacity="0.6"/>
<circle cx="375.5" cy="204.5" r="1.5" transform="rotate(-90 375.5 204.5)" fill="#96E3D5" fill-opacity="0.35"/>
<circle cx="273.5" cy="170.5" r="1.5" transform="rotate(-90 273.5 170.5)" fill="#96E3D5"/>
<circle cx="307.5" cy="170.5" r="1.5" transform="rotate(-90 307.5 170.5)" fill="#96E3D5"/>
<circle cx="341.5" cy="170.5" r="1.5" transform="rotate(-90 341.5 170.5)" fill="#96E3D5" fill-opacity="0.6"/>
<circle cx="375.5" cy="170.5" r="1.5" transform="rotate(-90 375.5 170.5)" fill="#96E3D5" fill-opacity="0.35"/>
<circle cx="273.5" cy="136.5" r="1.5" transform="rotate(-90 273.5 136.5)" fill="#96E3D5"/>
<circle cx="307.5" cy="136.5" r="1.5" transform="rotate(-90 307.5 136.5)" fill="#96E3D5"/>
<circle cx="341.5" cy="136.5" r="1.5" transform="rotate(-90 341.5 136.5)" fill="#96E3D5" fill-opacity="0.6"/>
<circle cx="375.5" cy="136.5" r="1.5" transform="rotate(-90 375.5 136.5)" fill="#96E3D5" fill-opacity="0.35"/>
<circle cx="273.5" cy="103.5" r="1.5" transform="rotate(-90 273.5 103.5)" fill="#96E3D5"/>
<circle cx="307.5" cy="103.5" r="1.5" transform="rotate(-90 307.5 103.5)" fill="#96E3D5"/>
<circle cx="341.5" cy="103.5" r="1.5" transform="rotate(-90 341.5 103.5)" fill="#96E3D5" fill-opacity="0.6"/>
<circle cx="375.5" cy="103.5" r="1.5" transform="rotate(-90 375.5 103.5)" fill="#96E3D5" fill-opacity="0.35"/>
<circle cx="273.5" cy="69.5" r="1.5" transform="rotate(-90 273.5 69.5)" fill="#96E3D5"/>
<circle cx="307.5" cy="69.5" r="1.5" transform="rotate(-90 307.5 69.5)" fill="#96E3D5"/>
<circle cx="341.5" cy="69.5" r="1.5" transform="rotate(-90 341.5 69.5)" fill="#96E3D5" fill-opacity="0.6"/>
<circle cx="375.5" cy="69.5" r="1.5" transform="rotate(-90 375.5 69.5)" fill="#96E3D5" fill-opacity="0.35"/>
<circle cx="273.5" cy="35.5" r="1.5" transform="rotate(-90 273.5 35.5)" fill="#96E3D5" fill-opacity="0.6"/>
<circle cx="307.5" cy="35.5" r="1.5" transform="rotate(-90 307.5 35.5)" fill="#96E3D5" fill-opacity="0.6"/>
<circle cx="341.5" cy="35.5" r="1.5" transform="rotate(-90 341.5 35.5)" fill="#96E3D5" fill-opacity="0.6"/>
<circle cx="375.5" cy="35.5" r="1.5" transform="rotate(-90 375.5 35.5)" fill="#96E3D5" fill-opacity="0.35"/>
<circle cx="273.5" cy="1.5" r="1.5" transform="rotate(-90 273.5 1.5)" fill="#96E3D5" fill-opacity="0.35"/>
<circle cx="307.5" cy="1.5" r="1.5" transform="rotate(-90 307.5 1.5)" fill="#96E3D5" fill-opacity="0.35"/>
<circle cx="341.5" cy="1.5" r="1.5" transform="rotate(-90 341.5 1.5)" fill="#96E3D5" fill-opacity="0.35"/>
<circle cx="375.5" cy="1.5" r="1.5" transform="rotate(-90 375.5 1.5)" fill="#96E3D5" fill-opacity="0.35"/>
<circle cx="1.5" cy="1.5" r="1.5" fill="#96E3D5" fill-opacity="0.35"/>
<circle cx="1.5" cy="35.5" r="1.5" fill="#96E3D5" fill-opacity="0.35"/>
<circle cx="1.5" cy="69.5" r="1.5" fill="#96E3D5" fill-opacity="0.35"/>
<circle cx="1.5" cy="103.5" r="1.5" fill="#96E3D5" fill-opacity="0.35"/>
<circle cx="35.5" cy="1.5" r="1.5" fill="#96E3D5" fill-opacity="0.35"/>
<circle cx="35.5" cy="35.5" r="1.5" fill="#96E3D5" fill-opacity="0.6"/>
<circle cx="35.5" cy="69.5" r="1.5" fill="#96E3D5" fill-opacity="0.6"/>
<circle cx="35.5" cy="103.5" r="1.5" fill="#96E3D5" fill-opacity="0.6"/>
<circle cx="69.5" cy="1.5" r="1.5" fill="#96E3D5" fill-opacity="0.35"/>
<circle cx="69.5" cy="35.5" r="1.5" fill="#96E3D5" fill-opacity="0.6"/>
<circle cx="69.5" cy="69.5" r="1.5" fill="#96E3D5"/>
<circle cx="69.5" cy="103.5" r="1.5" fill="#96E3D5"/>
<circle cx="103.5" cy="1.5" r="1.5" fill="#96E3D5" fill-opacity="0.35"/>
<circle cx="103.5" cy="35.5" r="1.5" fill="#96E3D5" fill-opacity="0.6"/>
<circle cx="103.5" cy="69.5" r="1.5" fill="#96E3D5"/>
<circle cx="103.5" cy="103.5" r="1.5" fill="#96E3D5"/>
<circle cx="137.5" cy="1.5" r="1.5" fill="#96E3D5" fill-opacity="0.35"/>
<circle cx="137.5" cy="35.5" r="1.5" fill="#96E3D5" fill-opacity="0.6"/>
<circle cx="137.5" cy="69.5" r="1.5" fill="#96E3D5"/>
<circle cx="137.5" cy="103.5" r="1.5" fill="#96E3D5"/>
<circle cx="171.5" cy="1.5" r="1.5" fill="#96E3D5" fill-opacity="0.35"/>
<circle cx="171.5" cy="35.5" r="1.5" fill="#96E3D5" fill-opacity="0.6"/>
<circle cx="171.5" cy="69.5" r="1.5" fill="#96E3D5"/>
<circle cx="171.5" cy="103.5" r="1.5" fill="#96E3D5"/>
<circle cx="205.5" cy="1.5" r="1.5" fill="#96E3D5" fill-opacity="0.35"/>
<circle cx="205.5" cy="35.5" r="1.5" fill="#96E3D5" fill-opacity="0.6"/>
<circle cx="205.5" cy="69.5" r="1.5" fill="#96E3D5"/>
<circle cx="205.5" cy="103.5" r="1.5" fill="#96E3D5"/>
<circle cx="239.5" cy="1.5" r="1.5" fill="#96E3D5" fill-opacity="0.35"/>
<circle cx="239.5" cy="35.5" r="1.5" fill="#96E3D5" fill-opacity="0.6"/>
<circle cx="239.5" cy="69.5" r="1.5" fill="#96E3D5"/>
<circle cx="239.5" cy="103.5" r="1.5" fill="#96E3D5"/>
</svg>
