<svg width="512" height="512" viewBox="0 0 512 512" fill="none" xmlns="http://www.w3.org/2000/svg">
<g clip-path="url(#clip0)">
<path d="M261.039 512C259.344 512 257.648 512 255.941 511.992C215.809 512.09 178.727 511.07 142.664 508.875C109.602 506.863 79.4219 495.438 55.3828 475.836C32.1875 456.922 16.3477 431.348 8.30469 399.832C1.30469 372.395 0.933594 345.461 0.578125 319.41C0.320312 300.719 0.0546875 278.57 0 256.047C0.0546875 233.43 0.320312 211.281 0.578125 192.59C0.933594 166.543 1.30469 139.609 8.30469 112.168C16.3477 80.6524 32.1875 55.0782 55.3828 36.1641C79.4219 16.5625 109.602 5.13675 142.668 3.12503C178.73 0.933622 215.82 -0.0898153 256.039 0.00784096C296.184 -0.0780965 333.254 0.933622 369.316 3.12503C402.379 5.13675 432.559 16.5625 456.598 36.1641C479.797 55.0782 495.633 80.6524 503.676 112.168C510.676 139.605 511.047 166.543 511.402 192.59C511.66 211.281 511.93 233.43 511.98 255.953V256.047C511.93 278.57 511.66 300.719 511.402 319.41C511.047 345.457 510.68 372.391 503.676 399.832C495.633 431.348 479.797 456.922 456.598 475.836C432.559 495.438 402.379 506.863 369.316 508.875C334.781 510.977 299.305 512 261.039 512V512ZM255.941 471.992C295.422 472.086 331.672 471.09 366.887 468.949C391.887 467.43 413.562 459.316 431.32 444.836C447.734 431.449 459.039 412.98 464.918 389.941C470.746 367.102 471.082 342.578 471.406 318.863C471.66 300.297 471.926 278.305 471.98 256C471.926 233.691 471.66 211.703 471.406 193.137C471.082 169.422 470.746 144.898 464.918 122.055C459.039 99.0157 447.734 80.5469 431.32 67.1602C413.562 52.6836 391.887 44.5703 366.887 43.0508C331.672 40.9063 295.422 39.918 256.035 40.0039C216.562 39.9102 180.309 40.9063 145.094 43.0508C120.094 44.5703 98.418 52.6836 80.6602 67.1602C64.2461 80.5469 52.9414 99.0157 47.0625 122.055C41.2344 144.898 40.8984 169.418 40.5742 193.137C40.3203 211.719 40.0547 233.723 40 256.047C40.0547 278.273 40.3203 300.281 40.5742 318.863C40.8984 342.578 41.2344 367.102 47.0625 389.941C52.9414 412.98 64.2461 431.449 80.6602 444.836C98.418 459.313 120.094 467.426 145.094 468.945C180.309 471.09 216.57 472.09 255.941 471.992V471.992ZM254.988 381C186.066 381 129.988 324.926 129.988 256C129.988 187.074 186.066 131 254.988 131C323.914 131 379.988 187.074 379.988 256C379.988 324.926 323.914 381 254.988 381V381ZM254.988 171C208.121 171 169.988 209.133 169.988 256C169.988 302.867 208.121 341 254.988 341C301.859 341 339.988 302.867 339.988 256C339.988 209.133 301.859 171 254.988 171V171ZM393.988 91C377.422 91 363.988 104.43 363.988 121C363.988 137.57 377.422 151 393.988 151C410.559 151 423.988 137.57 423.988 121C423.988 104.43 410.559 91 393.988 91Z" fill="#939598"/>
</g>
<defs>
<clipPath id="clip0">
<rect width="512" height="512" fill="white"/>
</clipPath>
</defs>
</svg>
