<svg width="512" height="512" viewBox="0 0 512 512" fill="none" xmlns="http://www.w3.org/2000/svg">
<g clip-path="url(#clip0)">
<path d="M256 512C244.824 512 234.816 506.204 229.23 496.495C229.171 496.393 229.114 496.29 229.057 496.187L102.095 263.801C71.7892 208.33 72.6582 142.489 104.42 87.677C135.493 34.053 190.685 1.29201 252.059 0.0400117C254.681 -0.0139883 257.317 -0.0139883 259.937 0.0400117C321.312 1.29201 376.504 34.053 407.578 87.677C439.34 142.489 440.209 208.329 409.903 263.801L282.941 496.187C282.884 496.29 282.827 496.393 282.768 496.495C277.183 506.203 267.176 512 256 512ZM255.999 32C254.9 32 253.804 32.011 252.71 32.033C202.611 33.055 157.525 59.854 132.106 103.721C105.999 148.776 105.277 202.883 130.176 248.457L255.999 478.757L381.821 248.458C406.72 202.883 405.999 148.776 379.89 103.721C354.471 59.855 309.385 33.055 259.286 32.033C258.195 32.011 257.098 32 255.999 32Z" fill="#939598"/>
<path d="M256 232C216.299 232 184 199.701 184 160C184 120.299 216.299 88 256 88C295.701 88 328 120.299 328 160C328 199.701 295.702 232 256 232ZM256 120C233.944 120 216 137.944 216 160C216 182.056 233.944 200 256 200C278.056 200 296 182.056 296 160C296 137.944 278.056 120 256 120Z" fill="#939598"/>
</g>
<defs>
<clipPath id="clip0">
<rect width="512" height="512" fill="white"/>
</clipPath>
</defs>
</svg>
