<svg width="512" height="512" viewBox="0 0 512 512" fill="none" xmlns="http://www.w3.org/2000/svg">
<g clip-path="url(#clip0)">
<path d="M266.598 435.2H245.41C232.431 435.2 221.867 445.764 221.867 458.743V462.865C221.867 475.844 232.431 486.4 245.402 486.4H266.59C279.569 486.4 290.133 475.844 290.133 462.865V458.743C290.133 445.764 279.569 435.2 266.598 435.2ZM273.067 462.865C273.067 466.432 270.166 469.333 266.599 469.333H245.41C241.835 469.333 238.933 466.432 238.933 462.865V458.743C238.933 455.168 241.834 452.266 245.41 452.266H266.59C270.166 452.266 273.067 455.167 273.067 458.743V462.865Z" fill="#33BEB0"/>
<path d="M370.228 0H141.782C124.775 0 110.934 13.841 110.934 30.848V481.152C110.934 498.159 124.775 512 141.782 512H370.219C387.226 512 401.067 498.159 401.067 481.161V30.848C401.068 13.841 387.227 0 370.228 0ZM384 481.152C384 481.152 384.001 481.152 384.001 481.153C384 488.747 377.822 494.933 370.228 494.933H141.782C134.179 494.933 128.001 488.746 128.001 481.16V30.848C128.001 23.253 134.179 17.067 141.782 17.067H370.219C377.822 17.067 384 23.254 384 30.848V481.151C384 481.152 384 481.152 384 481.152Z" fill="#33BEB0" stroke="#33BEB0" stroke-width="8"/>
<path d="M392.533 67H119.467C114.757 67 110.934 70.6621 110.934 75.1739V418.492C110.934 423.004 114.757 426.666 119.467 426.666H392.534C397.244 426.666 401.067 423.004 401.067 418.492V75.1739C401.067 70.6621 397.244 67 392.533 67ZM384 410.318H128V83.3488H384V410.318Z" fill="#33BEB0"/>
</g>
<defs>
<clipPath id="clip0">
<rect width="512" height="512" fill="white"/>
</clipPath>
</defs>
</svg>
