<svg width="512" height="512" viewBox="0 0 512 512" fill="none" xmlns="http://www.w3.org/2000/svg">
<g clip-path="url(#clip0)">
<path d="M506.134 241.843C506.128 241.837 506.123 241.83 506.116 241.824L401.612 137.824C393.783 130.033 381.12 130.062 373.327 137.892C365.535 145.721 365.565 158.384 373.394 166.176L443.558 236H20C8.954 236 0 244.954 0 256C0 267.046 8.954 276 20 276H443.557L373.395 345.824C365.566 353.616 365.536 366.279 373.328 374.108C381.121 381.939 393.785 381.966 401.613 374.176L506.117 270.176C506.123 270.17 506.128 270.163 506.135 270.157C513.968 262.339 513.943 249.635 506.134 241.843Z" fill="#00A9A7"/>
</g>
<defs>
<clipPath id="clip0">
<rect width="512" height="512" fill="white"/>
</clipPath>
</defs>
</svg>
