<svg xmlns="http://www.w3.org/2000/svg" viewBox="0 0 512 468.59"><defs><style>.cls-1{fill:#2a91e5;}</style></defs><title>Корзина_01</title><g id="Слой_2" data-name="Слой 2"><g id="Capa_1" data-name="Capa 1"><path class="cls-1" d="M405.39,340.91a63.84,63.84,0,1,0,63.84,63.84A63.91,63.91,0,0,0,405.39,340.91Zm0,89.37a25.54,25.54,0,1,1,25.53-25.53A25.56,25.56,0,0,1,405.39,430.28Z"/><path class="cls-1" d="M507.93,94.17a19.14,19.14,0,0,0-15.08-7.35H118.22L101,14.7A19.15,19.15,0,0,0,82.35,0H19.15a19.15,19.15,0,0,0,0,38.3H67.24l62.24,260.45a19.16,19.16,0,0,0,18.63,14.7H446.24a19.14,19.14,0,0,0,18.59-14.55l46.61-188.32A19.21,19.21,0,0,0,507.93,94.17Zm-76.67,181h-268l-35.86-150h341Z"/><path class="cls-1" d="M173.65,340.91a63.84,63.84,0,1,0,63.84,63.84A63.91,63.91,0,0,0,173.65,340.91Zm0,89.37a25.54,25.54,0,1,1,25.53-25.53A25.56,25.56,0,0,1,173.65,430.28Z"/></g></g></svg>