<?xml version="1.0" encoding="utf-8"?>
<!-- Generator: Adobe Illustrator 24.0.1, SVG Export Plug-In . SVG Version: 6.00 Build 0)  -->
<svg version="1.1" id="Слой_1" xmlns="http://www.w3.org/2000/svg" xmlns:xlink="http://www.w3.org/1999/xlink" x="0px" y="0px"
	 viewBox="0 0 491.4 512" style="enable-background:new 0 0 491.4 512;" xml:space="preserve">
<style type="text/css">
	.st0{fill:#153953;}
</style>
<title>адрес</title>
<g id="Слой_2_1_">
	<g id="Capa_1">
		<g id="Слой_2-2">
			<g id="Capa_1-2">
				<path class="st0" d="M241.8,246.1c34,2.2,63.2-24.3,63.9-58.8c0.6-30.8-22.7-57.3-53.2-60.7c-34.2-3.8-64.4,21.7-66.6,55.7
					c-0.2,2.6-0.2,5.2,0,7.8C187.8,220.1,211.7,244.1,241.8,246.1z M243.3,156.3c17.1-1.4,32.1,11.9,32.4,29.4
					c0.3,15-10.8,28.1-25.7,30.2c-17.3,2.5-32.8-10.1-34.2-27.2c0,0,0,0,0,0c-0.1-1.6-0.1-3.3,0-4.9
					C217,169.1,228.6,157.5,243.3,156.3z"/>
				<path class="st0" d="M418.3,345h-82.1c46.9-44.7,89.5-88.6,89.5-165c0-102.9-77.3-180-180-180c-102.9,0-180,77.3-180,180
					c0,76.4,42.7,120.3,89.5,165H73.5c-11.2,0-21,7.2-24.5,17.8L6.3,492.7c-3.1,9.5,4,19.3,14,19.3h443.8c13.4,0,23-13.1,18.8-25.9
					l-40.6-123.7C438.9,352,429.2,345,418.3,345z M95.7,180c0-90.4,68.2-155,160.5-149.7c74.6,4.3,137.3,69.9,139.4,144.6
					c2.8,97.8-75.3,133-142.9,212.1c-3.7,4.3-10.3,4.3-14,0c-18.4-21.5-37.6-39.8-56.5-57.7C133.9,283.3,95.7,247,95.7,180z
					 M53.6,445h93.1c8.3,0,15-6.7,15-15l0,0c0-8.3-6.7-15-15-15H63.4L74,382.7c1.5-4.6,5.8-7.7,10.7-7.7h101v-0.7
					c19.8,19.6,32.4,34.4,41.2,45.7c9.5,12.2,28,12.2,37.5,0c8.8-11.3,21.4-26,41.3-45.7v0.7h101.9c4.3,0,8.1,2.8,9.4,6.8L428,415
					h-83.3c-8.3,0-15,6.7-15,15l0,0c0,8.3,6.7,15,15,15h93.1l8.6,26.2c1.7,5.3-2.2,10.8-7.8,10.8H52.5c-5.5,0-9.3-5.3-7.6-10.5
					L53.6,445z"/>
			</g>
		</g>
	</g>
</g>
</svg>
