<?xml version="1.0" encoding="utf-8"?>
<!-- Generator: Adobe Illustrator 24.0.1, SVG Export Plug-In . SVG Version: 6.00 Build 0)  -->
<svg version="1.1" id="Слой_1" xmlns="http://www.w3.org/2000/svg" xmlns:xlink="http://www.w3.org/1999/xlink" x="0px" y="0px"
	 viewBox="0 0 509.3 509.4" style="enable-background:new 0 0 509.3 509.4;" xml:space="preserve">
<style type="text/css">
	.st0{fill:#153953;}
</style>
<title>режим работы</title>
<g id="Слой_2_1_">
	<g id="Capa_1">
		<g id="Слой_2-2">
			<g id="Capa_1-2">
				<path class="st0" d="M256,509.4c-141.4,0-256-114.6-256-256c0-67.9,27-133,75-181c101.4-98.5,263.5-96.1,362,5.3
					c96.4,99.3,96.4,257.3,0,356.7C389.1,482.5,323.9,509.5,256,509.4z M256,27.4c-124.8,0-226,101.2-226,226
					c0,59.9,23.8,117.4,66.2,159.8c88.3,88.3,231.4,88.3,319.6,0s88.3-231.4,0-319.6C373.5,51,316,27.2,256,27.4z"/>
				<path class="st0" d="M256,57.3L256,57.3c8.3,0,15,6.7,15,15v10c0,8.3-6.7,15-15,15h0c-8.3,0-15-6.7-15-15v-10
					C241,64.1,247.7,57.3,256,57.3z"/>
				<path class="st0" d="M366.2,121.9l7.1-7.1c5.9-5.9,15.3-5.9,21.2,0l0,0c5.9,5.9,5.9,15.4,0,21.2l-7.1,7.1
					c-5.9,5.9-15.3,5.9-21.2,0l0,0C360.3,137.3,360.3,127.8,366.2,121.9z"/>
				<path class="st0" d="M426.9,238.4h10c8.3,0,15,6.7,15,15v0c0,8.3-6.7,15-15,15h-10c-8.3,0-15-6.7-15-15v0
					C411.9,245.1,418.6,238.4,426.9,238.4z"/>
				<path class="st0" d="M366.1,363.6L366.1,363.6c5.9-5.9,15.4-5.9,21.2,0l7.1,7.1c5.9,5.9,5.9,15.3,0,21.2l0,0
					c-5.9,5.9-15.3,5.9-21.2,0l-7.1-7.1C360.3,379,360.3,369.5,366.1,363.6z"/>
				<path class="st0" d="M256,409.3L256,409.3c8.3,0,15,6.7,15,15v10c0,8.3-6.7,15-15,15h0c-8.3,0-15-6.7-15-15v-10
					C241,416,247.7,409.3,256,409.3z"/>
				<path class="st0" d="M117.3,370.7l7.1-7.1c5.9-5.9,15.4-5.9,21.2,0l0,0c5.9,5.9,5.9,15.3,0,21.2l-7,7.1
					c-5.8,5.9-15.3,5.9-21.2,0l0,0C111.5,386,111.5,376.5,117.3,370.7z"/>
				<path class="st0" d="M75,238.4h10c8.3,0,15,6.7,15,15v0c0,8.3-6.7,15-15,15H75c-8.3,0-15-6.7-15-15v0
					C60,245.1,66.7,238.4,75,238.4z"/>
				<path class="st0" d="M117.4,114.7L117.4,114.7c5.9-5.8,15.3-5.8,21.2,0l7.1,7.1c5.9,5.9,5.9,15.3,0,21.2l0,0
					c-5.9,5.9-15.4,5.9-21.2,0l-7.1-7.1C111.5,130.1,111.5,120.6,117.4,114.7z"/>
				<path class="st0" d="M346.9,268.4H256c-8.3,0-15-6.7-15-15v-90.9c0-8.3,6.7-15,15-15h0c8.3,0,15,6.7,15,15v70.2
					c0,3.1,2.5,5.7,5.7,5.7h70.2c8.3,0,15,6.7,15,15l0,0C361.9,261.6,355.1,268.4,346.9,268.4z"/>
			</g>
		</g>
	</g>
</g>
</svg>
