<svg xmlns="http://www.w3.org/2000/svg" viewBox="0 0 512 512"><defs><style>.cls-1{fill:#153953;}</style></defs><title>Телефон</title><g id="Слой_2" data-name="Слой 2"><g id="Layer_1" data-name="Layer 1"><path class="cls-1" d="M368,512A142.74,142.74,0,0,1,319,503.26a522.08,522.08,0,0,1-189.5-120.79A522.08,522.08,0,0,1,8.74,193a141.6,141.6,0,0,1-7.22-69.61A145.23,145.23,0,0,1,76.15,17.05,142.66,142.66,0,0,1,144.42,0a16,16,0,0,1,15.64,12.65l25.11,117.19a16,16,0,0,1-4.33,14.67l-42.91,42.91A421.18,421.18,0,0,0,324.58,374.07l42.91-42.92a16,16,0,0,1,14.67-4.33l117.19,25.12A16,16,0,0,1,512,367.58a142.49,142.49,0,0,1-17.06,68.26,145.17,145.17,0,0,1-106.3,74.64A142.65,142.65,0,0,1,368,512ZM131.63,32.7A112.11,112.11,0,0,0,38.82,182,485.28,485.28,0,0,0,330,473.18,112.11,112.11,0,0,0,479.3,380.37L384,359.94l-44.81,44.81A16,16,0,0,1,321,407.92,453.09,453.09,0,0,1,104.08,191a16,16,0,0,1,3.17-18.12L152.06,128Z"/><path class="cls-1" d="M496,272a16,16,0,0,1-16-16C480,132.48,379.52,32,256,32a16,16,0,0,1,0-32A256,256,0,0,1,512,256a16,16,0,0,1-16,16Z"/><path class="cls-1" d="M432,272a16,16,0,0,1-16-16c0-88.22-71.77-160-160-160a16,16,0,0,1,0-32c105.86,0,192,86.12,192,192A16,16,0,0,1,432,272Z"/><path class="cls-1" d="M368,272a16,16,0,0,1-16-16,96.11,96.11,0,0,0-96-96,16,16,0,1,1,0-32A128.14,128.14,0,0,1,384,256,16,16,0,0,1,368,272Z"/></g></g></svg>