<svg width="512" height="512" viewBox="0 0 512 512" fill="none" xmlns="http://www.w3.org/2000/svg">
<g clip-path="url(#clip0)">
<path d="M487.292 235.408H20.59C9.218 235.408 0 244.632 0 255.998C0 267.364 9.217 276.588 20.59 276.588H487.292C498.664 276.588 507.882 267.371 507.882 255.998C507.882 244.625 498.665 235.408 487.292 235.408Z" fill="white"/>
<path d="M505.96 241.434L304.187 39.653C296.143 31.616 283.117 31.616 275.073 39.653C267.029 47.697 267.029 60.737 275.073 68.774L462.289 255.997L275.073 443.221C267.029 451.258 267.029 464.298 275.073 472.335C279.095 476.357 284.359 478.368 289.63 478.368C294.901 478.368 300.165 476.357 304.187 472.335L505.96 270.555C514.004 262.511 514.004 249.47 505.96 241.434Z" fill="white"/>
</g>
<defs>
<clipPath id="clip0">
<rect width="511.993" height="511.993" fill="white"/>
</clipPath>
</defs>
</svg>
