<svg width="110" height="74" viewBox="0 0 110 74" fill="none" xmlns="http://www.w3.org/2000/svg">
<path d="M28.5995 26.0231C28.2995 26.3821 27.9995 27.1001 27.4995 27.8182C24.7995 32.605 23.7995 36.4346 22.2995 41.1018C18.0995 54.6247 16.3995 55.4624 15.4995 55.7018C14.8995 55.8214 14.8995 55.5821 11.1995 55.5821C8.49954 55.5821 8.19954 55.7018 7.59954 55.3427C5.89954 54.505 5.39954 51.7526 4.79954 47.3247C3.89954 41.2214 3.49954 36.6739 2.99954 32.1264C2.39954 26.3821 2.29954 25.4247 1.99954 22.1936C1.79954 20.0395 1.69954 17.7657 1.49954 15.6116C1.29954 13.5772 1.19954 12.2608 0.99954 10.5854C0.39954 5.67883 -0.000461936 4.72145 0.599538 3.88375C1.19954 2.92637 2.49954 2.92637 5.09954 2.8067C6.09954 2.8067 6.09954 2.8067 8.29954 2.92637C11.7995 3.04605 12.1995 2.92637 12.5995 3.40506C13.3995 4.36244 12.8995 5.7985 12.8995 9.26899C12.8995 10.5854 12.9995 10.5854 13.3995 15.6116C13.5995 18.2444 13.9995 22.0739 14.2995 27.2198C14.7995 26.7411 15.1995 26.6214 15.2995 26.2624C16.8995 22.0739 18.5995 17.7657 20.0995 13.5772C21.0995 10.7051 22.2995 7.9526 22.8995 4.9608C23.2995 2.56736 24.3995 2.92637 25.6995 2.92637C27.8995 2.92637 30.1995 2.92637 32.3995 2.92637C34.7995 2.92637 34.7995 2.92637 35.5995 5.67883C36.3995 8.43129 37.2995 11.1837 37.9995 13.9362C38.7995 17.0477 39.4995 20.1592 40.2995 23.2706C40.6995 24.946 41.1995 26.6214 41.7995 28.5362C42.4995 25.7837 42.8995 23.7493 43.0995 22.1936C43.1995 21.7149 43.1995 21.4755 43.3995 20.5182C43.6995 18.8428 43.9995 17.1673 44.1995 15.4919C44.5995 13.0985 44.5995 13.0985 44.8995 10.8247C45.4995 6.75588 45.8995 4.72146 46.0995 4.36244C46.8995 3.28539 47.9995 3.16572 56.1995 3.28539C61.0995 3.28539 60.6995 3.40506 61.1995 3.28539C63.7995 3.16572 66.3995 3.40506 68.9995 3.28539C69.1995 3.28539 69.7995 3.16572 70.2995 3.64441C70.6995 3.88375 70.8996 4.36244 71.0995 5.08047C71.9995 8.07227 72.9995 11.0641 73.7995 14.1755C74.3995 16.569 74.7995 19.0821 75.3995 21.4755C75.9995 23.869 76.6995 26.1428 77.3995 28.4165C77.5995 29.1346 77.6995 29.7329 77.8995 30.451C78.1995 30.0919 78.6995 29.6132 79.1995 28.8952C80.6995 26.7411 81.0995 24.946 82.3995 21.3559C83.9995 16.569 83.9995 17.287 84.4995 15.3723C84.9995 13.2182 84.9995 12.3805 85.7995 8.67063C86.6995 4.48211 86.9995 4.12309 87.2995 3.76408C88.2995 2.68703 89.1995 3.28539 93.1995 3.16572C96.9995 3.04605 98.3996 2.44769 99.0996 3.64441C99.5996 4.36244 99.1995 5.08047 99.8996 7.47391C100.2 8.43129 100.4 9.02965 100.5 9.26899C102.1 13.2182 103.5 23.7493 103.6 24.946C104.3 29.9723 104.5 33.6821 104.7 34.7591C105.1 37.2723 104.9 39.6657 105.1 42.0591C105.4 45.5296 105.6 49.0001 105.9 52.5903C106.1 55.1034 105.6 55.7018 103.5 55.7018C101.1 55.7018 98.5995 55.8214 96.1995 55.9411C94.5995 56.0608 93.9995 55.3427 93.8995 53.5477C93.6995 50.6755 93.3995 47.8034 93.3995 44.9313C93.3995 44.9313 93.3996 42.1788 93.0995 38.469C92.8996 36.3149 92.4995 33.3231 91.6995 29.7329C91.4995 30.0919 91.2996 30.5706 91.1995 30.9296C89.6995 34.7591 88.1995 38.5887 86.7995 42.4182C85.8996 44.9313 85.1995 47.5641 84.3995 50.1968C84.0995 51.2739 83.6995 52.2313 83.3995 53.3083C82.8995 55.2231 82.8995 55.5821 82.4995 55.9411C81.7995 56.6591 80.9995 55.8214 78.3995 55.8214C77.6995 55.8214 77.8995 55.8214 75.9995 55.9411C73.5995 56.0608 72.3996 56.0608 72.0995 55.9411C70.6995 55.1034 71.0995 52.8296 69.6995 47.3247C69.1995 45.5296 69.2995 46.128 68.4995 43.1362C67.6995 40.1444 66.9995 37.0329 66.1995 33.9214C65.7995 32.246 65.2995 30.5706 64.6995 28.5362C63.8995 30.9296 63.4995 32.7247 63.3995 34.0411C63.2995 34.6395 63.1995 36.1952 62.8995 38.3493C62.7995 38.828 62.7995 39.3067 62.6995 39.7854C62.1995 42.6575 61.6995 45.41 61.1995 48.1624C60.7995 50.0772 60.3995 51.8722 59.8995 53.6673C59.7995 54.146 59.5995 54.8641 59.0995 55.3427C58.3995 56.0608 57.3995 55.9411 56.1995 55.7018C53.0995 55.2231 51.3995 54.3854 48.1995 53.787C47.5995 53.6673 47.2995 53.5477 47.0995 53.5477C45.4995 53.428 39.5995 57.2575 37.4995 55.4624C37.0995 55.1034 36.1995 54.146 35.4995 52.71C35.0995 51.9919 34.4995 50.6755 32.7995 43.0165C32.2995 40.7428 31.7995 38.3493 31.1995 35.8362C30.4995 32.246 29.5995 29.0149 28.5995 26.0231Z" fill="black"/>
<path d="M31.6 23.6295C31.3 23.9885 31 24.7065 30.5 25.4246C27.8 30.2114 26.8 34.0409 25.3 38.7082C21.1 52.2311 19.4 53.0688 18.5 53.3081C17.9 53.4278 17.9 53.1885 14.2 53.1885C11.5 53.1885 11.2 53.3081 10.6 52.9491C8.90003 52.1114 8.40003 49.359 7.80003 44.9311C6.90003 38.8278 6.50003 34.2803 6.00003 29.7327C5.40003 23.9885 5.30003 23.0311 5.00003 19.8C4.80003 17.6459 4.70003 15.3721 4.50003 13.218C4.30003 11.1836 4.20003 9.86718 4.00003 8.19177C3.40003 3.28521 3.00003 2.32784 3.60003 1.49013C4.20003 0.532758 5.50003 0.532758 8.10003 0.413086C9.10003 0.413086 9.10003 0.413085 11.3 0.532757C14.8 0.652429 15.2 0.532758 15.6 1.01145C16.4 1.96882 15.9 3.40489 15.9 6.87538C15.9 8.19177 16 8.19177 16.4 13.218C16.6 15.8508 17 19.6803 17.3 24.8262C17.8 24.3475 18.2 24.2278 18.3 23.8688C19.9 19.6803 21.6 15.3721 23.1 11.1836C24.1 8.31144 25.3 5.55899 25.9 2.56718C26.3 0.173742 27.4 0.532757 28.7 0.532757C30.9 0.532757 33.2 0.532757 35.4 0.532757C37.8 0.532757 37.8 0.532758 38.6 3.28522C39.4 6.03767 40.3 8.79013 41 11.5426C41.8 14.6541 42.5 17.7655 43.3 20.877C43.7 22.5524 44.2 24.2278 44.8 26.1426C45.5 23.3901 45.9 21.3557 46.1 19.8C46.2 19.3213 46.2 19.0819 46.4 18.1246C46.7 16.4491 47 14.7737 47.2 13.0983C47.6 10.7049 47.6 10.7049 47.9 8.43112C48.5 4.36226 48.9 2.32784 49.1 1.96882C49.9 0.891775 51 0.772102 59.2 0.891774C64.1 0.891774 63.7 1.01145 64.2 0.891774C66.8 0.772102 69.4 1.01145 72 0.891774C72.2 0.891774 72.8 0.772102 73.3 1.25079C73.7 1.49013 73.9 1.96882 74.1 2.68686C75 5.67866 76 8.67046 76.8 11.7819C77.4 14.1754 77.8 16.6885 78.4 19.0819C79 21.4754 79.7 23.7491 80.4 26.0229C80.6 26.7409 80.7 27.3393 80.9 28.0573C81.2 27.6983 81.7 27.2196 82.2 26.5016C83.7 24.3475 84.1 22.5524 85.4 18.9623C87 14.1754 87 14.8934 87.5 12.9787C88 10.8246 88 9.98685 88.8 6.27702C89.7 2.0885 90 1.72948 90.3 1.37046C91.3 0.293414 92.2 0.891775 96.2 0.772102C100 0.65243 101.4 0.0540695 102.1 1.25079C102.6 1.96882 102.2 2.68686 102.9 5.0803C103.2 6.03767 103.4 6.63603 103.5 6.87538C105.1 10.8246 106.5 21.3557 106.6 22.5524C107.3 27.5786 107.5 31.2885 107.7 32.3655C108.1 34.8786 107.9 37.2721 108.1 39.6655C108.4 43.136 108.6 46.6065 108.9 50.1967C109.1 52.7098 108.6 53.3081 106.5 53.3081C104.1 53.3081 101.6 53.4278 99.2 53.5475C97.6 53.6672 97 52.9491 96.9 51.1541C96.7 48.2819 96.4 45.4098 96.4 42.5377C96.4 42.5377 96.4 39.7852 96.1 36.0754C95.9 33.9213 95.5 30.9295 94.7 27.3393C94.5 27.6983 94.3 28.177 94.2 28.536C92.7 32.3655 91.2 36.195 89.8 40.0245C88.9 42.5377 88.2 45.1704 87.4 47.8032C87.1 48.8803 86.7 49.8377 86.4 50.9147C85.9 52.8295 85.9 53.1885 85.5 53.5475C84.8 54.2655 84 53.4278 81.4 53.4278C80.7 53.4278 80.9 53.4278 79 53.5475C76.6 53.6672 75.4 53.6672 75.1 53.5475C73.7 52.7098 74.1 50.436 72.7 44.9311C72.2 43.136 72.3 43.7344 71.5 40.7426C70.7 37.7508 70 34.6393 69.2 31.5278C68.8 29.8524 68.3 28.177 67.7 26.1426C66.9 28.536 66.5 30.3311 66.4 31.6475C66.3 32.2459 66.2 33.8016 65.9 35.9557C65.8 36.4344 65.8 36.9131 65.7 37.3918C65.2 40.2639 64.7 43.0163 64.2 45.7688C63.8 47.6836 63.4 49.4786 62.9 51.2737C62.8 51.7524 62.6 52.4704 62.1 52.9491C61.4 53.6672 60.4 53.5475 59.2 53.3081C56.1 52.8295 54.4 51.9918 51.2 51.3934C50.6 51.2737 50.3 51.1541 50.1 51.1541C48.5 51.0344 42.6 54.8639 40.5 53.0688C40.1 52.7098 39.2 51.7524 38.5 50.3163C38.1 49.5983 37.5 48.2819 35.8 40.6229C35.3 38.3491 34.8 35.9557 34.2 33.4426C33.5 29.8524 32.6 26.6213 31.6 23.6295Z" fill="#8DD1C5"/>
<path d="M0 59.8896H0.9L2.7 67.4289L5.2 59.8896H5.4L7.9 67.4289L9.7 59.8896H10.8L8.2 70.301H8L5.4 62.4027L2.7 70.301H2.5L0 59.8896Z" fill="black"/>
<path d="M18.8 62.6432V70.4218H18V69.1054C17.6 69.5841 17.2 69.9431 16.8 70.3021C16.4 70.5415 15.9 70.6612 15.4 70.6612C14.5 70.6612 13.7 70.3022 13 69.4645C12.3 68.6267 12 67.6694 12 66.5923C12 65.5153 12.3 64.5579 13 63.7202C13.7 62.8825 14.5 62.5235 15.4 62.5235C15.9 62.5235 16.4 62.6432 16.9 62.8825C17.3 63.1219 17.7 63.6005 18.1 64.0792V62.6432H18.8ZM15.4 63.3612C14.9 63.3612 14.5 63.4809 14.1 63.7202C13.7 63.9596 13.4 64.3186 13.1 64.9169C13 65.3956 12.8 65.994 12.8 66.4727C12.8 67.071 12.9 67.5497 13.2 68.0284C13.4 68.5071 13.8 68.8661 14.2 69.2251C14.6 69.4645 15 69.5841 15.5 69.5841C16 69.5841 16.4 69.4645 16.8 69.2251C17.2 68.9858 17.5 68.6268 17.8 68.1481C18 67.6694 18.1 67.1907 18.1 66.5923C18.1 65.7546 17.8 64.9169 17.3 64.3186C16.8 63.7202 16.2 63.3612 15.4 63.3612Z" fill="black"/>
<path d="M20.1998 62.6432H24.9998L21.2998 69.4645H24.8998V70.3022H19.7998L23.4998 63.4809H20.0998V62.6432H20.1998Z" fill="black"/>
<path d="M25.4996 62.6432H30.2996L26.5996 69.4645H30.1996V70.3022H25.0996L28.7996 63.4809H25.3996V62.6432H25.4996Z" fill="black"/>
<path d="M31.0996 62.6432H31.8996V66.2333C31.8996 67.071 31.8996 67.6694 31.9996 68.0284C32.0996 68.5071 32.3996 68.8661 32.6996 69.1054C32.9996 69.3448 33.3996 69.4645 33.8996 69.4645C34.3996 69.4645 34.7996 69.3448 35.0996 69.1054C35.3996 68.8661 35.6996 68.5071 35.7996 68.0284C35.8996 67.7891 35.8996 67.071 35.8996 66.1136V62.5235H36.7996V66.4727C36.7996 67.5497 36.6996 68.3874 36.4996 68.8661C36.2996 69.4645 35.9996 69.8235 35.4996 70.1825C34.9996 70.5415 34.4996 70.6612 33.8996 70.6612C33.2996 70.6612 32.7996 70.4218 32.3996 70.0628C31.9996 69.7038 31.6996 69.3448 31.3996 68.7464C31.1996 68.1481 31.0996 67.43 31.0996 66.2333V62.6432Z" fill="black"/>
<path d="M38.7998 62.6432H39.5998V64.0792C39.8998 63.4809 40.2998 63.1219 40.7998 62.8825C41.1998 62.6432 41.6998 62.5235 42.2998 62.5235C43.1998 62.5235 43.9998 62.8825 44.6998 63.7202C45.3998 64.5579 45.6998 65.5153 45.6998 66.5923C45.6998 67.6694 45.3998 68.7464 44.6998 69.4645C43.9998 70.3022 43.1998 70.6612 42.2998 70.6612C41.7998 70.6612 41.2998 70.5415 40.8998 70.3022C40.4998 70.0628 40.0998 69.7038 39.6998 69.1054V73.294H38.7998V62.6432ZM42.1998 63.3612C41.4998 63.3612 40.8998 63.7202 40.3998 64.3186C39.8998 64.9169 39.5998 65.635 39.5998 66.5923C39.5998 67.1907 39.6998 67.6694 39.8998 68.1481C40.0998 68.6268 40.3998 68.9858 40.8998 69.2251C41.3998 69.4645 41.7998 69.5841 42.1998 69.5841C42.6998 69.5841 43.0998 69.4645 43.4998 69.2251C43.8998 68.9858 44.1998 68.5071 44.4998 68.0284C44.6998 67.5497 44.8998 66.9514 44.8998 66.4727C44.8998 65.8743 44.7998 65.3956 44.4998 64.9169C44.2998 64.4382 43.8998 64.0792 43.5998 63.7202C43.0998 63.6005 42.5998 63.3612 42.1998 63.3612Z" fill="black"/>
<path d="M50.4004 70.4207L51.7004 60.0092H51.8004L55.4004 68.6256L59.0004 60.0092H59.1004L60.4004 70.4207H59.5004L58.7004 62.8813L55.6004 70.301H55.4004L52.1004 62.8813L51.2004 70.4207H50.4004Z" fill="black"/>
<path d="M68.5998 62.6432V70.4218H67.7998V69.1054C67.3998 69.5841 66.9998 69.9431 66.5998 70.3021C66.1998 70.6612 65.6998 70.6612 65.1998 70.6612C64.2998 70.6612 63.4998 70.3022 62.7998 69.4645C62.0998 68.6267 61.7998 67.6694 61.7998 66.5923C61.7998 65.5153 62.0998 64.5579 62.7998 63.7202C63.4998 62.8825 64.2998 62.5235 65.1998 62.5235C65.6998 62.5235 66.1998 62.6432 66.6998 62.8825C67.1998 63.1219 67.4998 63.6005 67.8998 64.0792V62.6432H68.5998ZM65.1998 63.3612C64.6998 63.3612 64.2998 63.4809 63.8998 63.7202C63.4998 63.9596 63.1998 64.3186 62.8998 64.9169C62.6998 65.3956 62.4998 65.8743 62.4998 66.4727C62.4998 67.071 62.5998 67.5497 62.8998 68.0284C63.1998 68.5071 63.4998 68.8661 63.8998 69.2251C64.2998 69.4645 64.6998 69.5841 65.1998 69.5841C65.6998 69.5841 66.0998 69.4645 66.4998 69.2251C66.8998 68.9858 67.1998 68.6268 67.4998 68.1481C67.6998 67.6694 67.7998 67.1907 67.7998 66.5923C67.7998 65.7546 67.4998 64.9169 66.9998 64.3186C66.4998 63.7202 65.8998 63.3612 65.1998 63.3612Z" fill="black"/>
<path d="M70.2002 62.6432H71.1002V63.7202C71.4002 63.2415 71.6002 62.8825 71.9002 62.7628C72.2002 62.5235 72.5002 62.4038 72.8002 62.4038C73.0002 62.4038 73.3002 62.5235 73.6002 62.6432L73.2002 63.4809C73.0002 63.3612 72.9002 63.3612 72.8002 63.3612C72.5002 63.3612 72.2002 63.4809 72.0002 63.7202C71.7002 63.9596 71.5002 64.4383 71.4002 65.0366C71.3002 65.5153 71.2002 66.353 71.2002 67.6694V70.3022H70.3002V62.6432H70.2002Z" fill="black"/>
<path d="M74.1996 59.6492H74.9996V65.7525L77.9996 62.641H79.1996L75.5996 66.3508L79.3996 70.4197H78.1996L74.8996 66.9492V70.4197H74.0996V59.6492H74.1996Z" fill="black"/>
<path d="M86.0002 67.7891L86.7002 68.2677C86.5002 68.8661 86.2002 69.2251 85.9002 69.5841C85.6002 69.9432 85.2002 70.1825 84.9002 70.3022C84.5002 70.4218 84.1002 70.5415 83.6002 70.5415C82.5002 70.5415 81.7002 70.1825 81.1002 69.3448C80.5002 68.5071 80.2002 67.5497 80.2002 66.5923C80.2002 65.635 80.5002 64.7973 81.0002 63.9596C81.6002 63.0022 82.5002 62.5235 83.6002 62.5235C84.7002 62.5235 85.6002 63.0022 86.3002 64.0792C86.8002 64.7973 87.0002 65.635 87.0002 66.712H81.1002C81.1002 67.6694 81.4002 68.3874 81.8002 68.8661C82.3002 69.4645 82.9002 69.7038 83.5002 69.7038C83.8002 69.7038 84.2002 69.5841 84.5002 69.4645C84.8002 69.3448 85.1002 69.1055 85.3002 68.8661C85.5002 68.6268 85.7002 68.2677 86.0002 67.7891ZM86.0002 65.7546C85.9002 65.276 85.7002 64.7973 85.5002 64.4383C85.3002 64.0792 85.0002 63.8399 84.6002 63.7202C84.2002 63.4809 83.9002 63.4809 83.5002 63.4809C82.9002 63.4809 82.3002 63.7202 81.8002 64.1989C81.5002 64.5579 81.2002 65.0366 81.0002 65.7546H86.0002Z" fill="black"/>
<path d="M89.2 59.7718H90V62.644H91.3V63.4817H90V70.303H89.2V63.4817H88V62.644H89.2V59.7718Z" fill="black"/>
<path d="M92.9002 59.4117C93.1002 59.4117 93.3002 59.5314 93.4002 59.6511C93.5002 59.7707 93.6002 60.0101 93.6002 60.2494C93.6002 60.4888 93.5002 60.6084 93.4002 60.8478C93.3002 61.0871 93.1002 61.0871 92.9002 61.0871C92.7002 61.0871 92.5002 60.9675 92.4002 60.8478C92.3002 60.7281 92.2002 60.4888 92.2002 60.2494C92.2002 60.0101 92.3002 59.7707 92.4002 59.6511C92.5002 59.5314 92.8002 59.4117 92.9002 59.4117ZM92.5002 62.6429H93.3002V70.4216H92.5002V62.6429Z" fill="black"/>
<path d="M95.1 62.6432H95.9V64.0792C96.2 63.6005 96.6 63.1219 97 62.8825C97.4 62.6432 97.9 62.5235 98.3 62.5235C98.8 62.5235 99.2 62.6432 99.6 63.0022C100 63.2415 100.3 63.7202 100.4 64.1989C100.6 64.6776 100.7 65.5153 100.7 66.4727V70.4218H99.9V66.712C99.9 65.8743 99.9 65.2759 99.8 64.9169C99.7 64.4382 99.5 64.0792 99.2 63.7202C98.9 63.4809 98.6 63.3612 98.1 63.3612C97.6 63.3612 97.1 63.6005 96.7 63.9596C96.3 64.3186 96 64.7973 95.9 65.3956C95.8 65.7546 95.8 66.4727 95.8 67.5497V70.4218H95V62.6432H95.1Z" fill="black"/>
<path d="M108.4 62.6432H109.2V68.7464C109.2 69.8235 109.1 70.6612 109 71.1399C108.8 71.8579 108.4 72.4563 107.8 72.8153C107.3 73.1743 106.6 73.4137 105.8 73.4137C105.2 73.4137 104.7 73.294 104.3 73.1743C103.9 72.935 103.5 72.6956 103.2 72.4563C102.9 72.0973 102.7 71.6186 102.4 71.0202H103.3C103.6 71.4989 103.9 71.8579 104.3 72.217C104.7 72.4563 105.2 72.576 105.8 72.576C106.4 72.576 106.9 72.4563 107.3 72.217C107.7 71.9776 108 71.6186 108.2 71.2596C108.4 70.9005 108.5 70.3022 108.5 69.4645V68.8661C108.2 69.3448 107.8 69.7038 107.3 69.9432C106.8 70.1825 106.4 70.3022 105.8 70.3022C105.2 70.3022 104.6 70.1825 104.1 69.8235C103.6 69.4645 103.2 68.9858 102.9 68.3874C102.6 67.7891 102.5 67.1907 102.5 66.4727C102.5 65.7546 102.7 65.0366 103 64.4382C103.3 63.8399 103.7 63.3612 104.3 63.0022C104.8 62.6432 105.4 62.4038 106 62.4038C106.5 62.4038 107 62.5235 107.4 62.7628C107.8 63.0022 108.2 63.3612 108.6 63.9596V62.6432H108.4ZM105.9 63.3612C105.4 63.3612 105 63.4809 104.6 63.7202C104.2 63.9595 103.9 64.3186 103.6 64.7973C103.4 65.2759 103.2 65.7546 103.2 66.353C103.2 67.1907 103.4 67.9087 103.9 68.5071C104.4 69.1055 105 69.3448 105.8 69.3448C106.6 69.3448 107.2 69.1055 107.7 68.5071C108.2 67.9087 108.4 67.1907 108.4 66.353C108.4 65.7546 108.3 65.2759 108.1 64.7973C107.9 64.3186 107.6 63.9595 107.2 63.7202C106.7 63.4809 106.3 63.3612 105.9 63.3612Z" fill="black"/>
</svg>
